<svg width="118" height="40" viewBox="0 0 118 40" fill="none" xmlns="http://www.w3.org/2000/svg">
<rect width="118" height="40" rx="20" fill="#666666"/>
<rect width="118" height="40" rx="20" fill="url(#paint0_linear_350_7)"/>
<rect width="118" height="40" rx="20" fill="url(#paint1_linear_350_7)"/>
<path d="M31.392 12.4C31.616 12.144 31.864 12.016 32.136 12.016C32.408 12.016 32.64 12.152 32.832 12.424C33.104 13.816 33.24 15.376 33.24 17.104V18.928C33.24 20.304 33.216 21.12 33.168 21.376C33.12 21.616 33.072 21.888 33.024 22.192C32.976 22.496 32.928 22.728 32.88 22.888C32.848 23.048 32.792 23.264 32.712 23.536C32.536 24.128 32.288 24.656 31.968 25.12C31.488 26.016 30.856 26.72 30.072 27.232C29.288 27.744 28.488 28 27.672 28C26.872 28 26.04 27.648 25.176 26.944C24.328 26.24 23.632 25.36 23.088 24.304C22.256 22.672 21.84 20.792 21.84 18.664C21.84 17.912 21.952 16.128 22.176 13.312C22.288 13.056 22.456 12.832 22.68 12.64C22.92 12.432 23.16 12.328 23.4 12.328C23.752 12.328 23.968 12.568 24.048 13.048C23.824 15.816 23.712 17.568 23.712 18.304C23.712 20.064 24.056 21.624 24.744 22.984C25.176 23.88 25.704 24.632 26.328 25.24C26.968 25.832 27.592 26.128 28.2 26.128C29.208 26.128 30.072 25.344 30.792 23.776C31.096 23.232 31.264 22.36 31.296 21.16C31.296 20.84 31.312 20.616 31.344 20.488L31.392 17.32C31.392 15.848 31.28 14.504 31.056 13.288C31.056 12.952 31.168 12.656 31.392 12.4ZM36.0193 27.256L35.7553 17.512C35.7553 17.208 35.8593 16.96 36.0673 16.768C36.2753 16.576 36.4833 16.48 36.6913 16.48C37.2033 16.48 37.4993 16.696 37.5793 17.128C37.6433 17.56 37.6753 18.008 37.6753 18.472C38.5393 17.336 39.6193 16.768 40.9153 16.768C42.8993 16.768 43.8913 19.032 43.8913 23.56C43.8913 23.976 43.8913 24.608 43.8913 25.456C43.8913 26.288 43.8433 26.896 43.7473 27.28C43.6353 27.76 43.2913 28 42.7153 28C42.3313 28 42.1393 27.744 42.1393 27.232L42.1633 25.888C42.1633 24.032 42.0993 22.768 41.9713 22.096C41.8593 21.408 41.7473 20.864 41.6353 20.464C41.3633 19.6 40.9233 19.168 40.3153 19.168C39.5153 19.168 38.9553 19.456 38.6353 20.032C38.2833 20.656 38.0753 21.392 38.0113 22.24C37.8993 23.728 37.8433 25.304 37.8433 26.968C37.8433 27.288 37.7233 27.544 37.4833 27.736C37.2433 27.928 36.9553 28.024 36.6193 28.024C36.2193 28.024 36.0193 27.768 36.0193 27.256ZM49.2229 11.2C49.4789 11.008 49.6949 10.904 49.8709 10.888C50.0629 10.856 50.4869 10.84 51.1429 10.84C51.8149 10.84 52.3669 10.936 52.7989 11.128C53.2309 11.32 53.4469 11.704 53.4469 12.28C53.4469 12.856 53.2149 13.144 52.7509 13.144C52.6549 13.144 52.3829 13.064 51.9349 12.904C51.4869 12.728 51.1989 12.64 51.0709 12.64C50.5109 12.64 50.1749 12.976 50.0629 13.648C50.0309 13.888 50.0149 14.384 50.0149 15.136C50.0149 15.872 50.0149 16.48 50.0149 16.96H51.6949C52.3989 16.992 52.7509 17.24 52.7509 17.704C52.7509 18.376 52.2709 18.728 51.3109 18.76C51.1669 18.776 50.9909 18.784 50.7829 18.784C50.5749 18.784 50.3349 18.776 50.0629 18.76C50.0949 19.4 50.1669 20.544 50.2789 22.192C50.3909 23.824 50.4469 25.416 50.4469 26.968C50.4469 27.288 50.3189 27.544 50.0629 27.736C49.8069 27.928 49.5429 28.024 49.2709 28.024C48.8389 28.024 48.6229 27.768 48.6229 27.256C48.6229 25.816 48.5669 24.416 48.4549 23.056C48.3429 21.696 48.2629 20.264 48.2149 18.76C46.7749 18.76 45.9349 18.616 45.6949 18.328C45.5989 18.216 45.5509 18.072 45.5509 17.896C45.5509 17.48 45.7189 17.208 46.0549 17.08C46.4069 16.952 46.8069 16.888 47.2549 16.888C47.7029 16.888 48.0229 16.888 48.2149 16.888C48.2629 14.28 48.4069 12.664 48.6469 12.04C48.7909 11.656 48.9829 11.376 49.2229 11.2ZM58.8319 16.816C59.9839 16.816 60.9279 17.368 61.6639 18.472C62.4159 19.576 62.7919 20.904 62.7919 22.456C62.7919 23.992 62.4079 25.304 61.6399 26.392C60.8879 27.48 59.8799 28.024 58.6159 28.024C57.3679 28.024 56.3599 27.472 55.5919 26.368C54.8239 25.248 54.4399 24.008 54.4399 22.648C54.4399 20.904 54.7919 19.512 55.4959 18.472C56.2479 17.368 57.3599 16.816 58.8319 16.816ZM58.5439 18.784C57.8719 18.784 57.3199 19.136 56.8879 19.84C56.4559 20.544 56.2399 21.288 56.2399 22.072C56.2399 23.288 56.4799 24.216 56.9599 24.856C57.4399 25.496 57.9839 25.816 58.5919 25.816C59.6799 25.816 60.3759 25.344 60.6799 24.4C60.8079 23.952 60.8719 23.392 60.8719 22.72C60.8719 20.096 60.0959 18.784 58.5439 18.784ZM72.9756 24.424C73.5356 24.424 73.8156 24.896 73.8156 25.84C73.8156 26.352 73.5356 26.864 72.9756 27.376C72.4316 27.872 71.8316 28.12 71.1756 28.12C70.1996 28.12 69.4796 27.624 69.0156 26.632C68.8076 27.032 68.4716 27.384 68.0076 27.688C67.5596 27.976 67.1036 28.12 66.6396 28.12C66.1916 28.12 65.7996 28.032 65.4636 27.856C65.1436 27.664 64.8796 27.384 64.6716 27.016C64.4796 26.648 64.3196 26.296 64.1916 25.96C64.0796 25.608 63.9916 25.184 63.9276 24.688C63.8476 23.888 63.7836 22.608 63.7356 20.848C63.7036 19.072 63.6876 17.384 63.6876 15.784C63.6876 14.168 63.7036 13.064 63.7356 12.472C63.7836 11.864 63.8796 11.472 64.0236 11.296C64.1836 11.104 64.4236 11.008 64.7436 11.008C65.4476 11.008 65.7996 11.288 65.7996 11.848C65.7996 12.28 65.7596 13.408 65.6796 15.232C65.6156 17.056 65.5836 18.688 65.5836 20.128C65.5836 21.568 65.6396 22.728 65.7516 23.608C65.9436 25.144 66.2156 25.912 66.5676 25.912C66.9196 25.912 67.1916 25.664 67.3836 25.168C67.4476 24.976 67.5676 24.808 67.7436 24.664C67.9196 24.504 68.1436 24.424 68.4156 24.424H68.4636C68.3196 23.016 68.2476 20.824 68.2476 17.848C68.2476 14.856 68.2636 13.064 68.2956 12.472C68.3436 11.864 68.4396 11.472 68.5836 11.296C68.7436 11.104 68.9836 11.008 69.3036 11.008C70.0076 11.008 70.3596 11.288 70.3596 11.848C70.3596 12.28 70.3196 13.408 70.2396 15.232C70.1756 17.056 70.1436 18.688 70.1436 20.128C70.1436 21.568 70.1996 22.728 70.3116 23.608C70.5036 25.144 70.7756 25.912 71.1276 25.912C71.4796 25.912 71.7516 25.664 71.9436 25.168C72.0076 24.976 72.1276 24.808 72.3036 24.664C72.4796 24.504 72.7036 24.424 72.9756 24.424ZM78.8475 16.816C79.9995 16.816 80.9435 17.368 81.6795 18.472C82.4315 19.576 82.8075 20.904 82.8075 22.456C82.8075 23.992 82.4235 25.304 81.6555 26.392C80.9035 27.48 79.8955 28.024 78.6315 28.024C77.3835 28.024 76.3755 27.472 75.6075 26.368C74.8395 25.248 74.4555 24.008 74.4555 22.648C74.4555 20.904 74.8075 19.512 75.5115 18.472C76.2635 17.368 77.3755 16.816 78.8475 16.816ZM78.5595 18.784C77.8875 18.784 77.3355 19.136 76.9035 19.84C76.4715 20.544 76.2555 21.288 76.2555 22.072C76.2555 23.288 76.4955 24.216 76.9755 24.856C77.4555 25.496 77.9995 25.816 78.6075 25.816C79.6955 25.816 80.3915 25.344 80.6955 24.4C80.8235 23.952 80.8875 23.392 80.8875 22.72C80.8875 20.096 80.1115 18.784 78.5595 18.784ZM86.2712 27.976C85.7272 27.976 85.1992 26.92 84.6872 24.808C84.1912 22.68 83.9432 20.296 83.9432 17.656C83.9432 17.384 84.0552 17.176 84.2792 17.032C84.5192 16.872 84.7352 16.792 84.9272 16.792C85.1192 16.792 85.2712 16.856 85.3832 16.984C85.5112 17.096 85.5752 17.248 85.5752 17.44C85.5752 19.936 85.9992 22.336 86.8472 24.64C86.9752 24.448 87.1752 24.064 87.4472 23.488C87.7192 22.896 87.9752 22.464 88.2152 22.192C88.4552 21.92 88.7432 21.784 89.0792 21.784C89.4152 21.784 89.7672 22.032 90.1352 22.528C90.5032 23.024 90.8152 23.56 91.0712 24.136C91.3432 24.696 91.4952 24.992 91.5272 25.024C91.9592 23.68 92.1752 22.432 92.1752 21.28L92.0312 17.632C92.0152 17.392 92.1272 17.192 92.3672 17.032C92.6072 16.856 92.8392 16.768 93.0632 16.768C93.5272 16.768 93.7592 17.672 93.7592 19.48V20.8C93.7592 22.944 93.4312 24.856 92.7752 26.536C92.4232 27.496 91.9832 27.976 91.4552 27.976C91.1512 27.976 90.8712 27.784 90.6152 27.4C90.3592 27 90.0712 26.44 89.7512 25.72C89.4312 25 89.1832 24.504 89.0072 24.232L88.2872 25.648C88.0152 26.208 87.8072 26.616 87.6632 26.872C87.5192 27.112 87.3192 27.36 87.0632 27.616C86.8072 27.856 86.5432 27.976 86.2712 27.976Z" fill="black"/>
<defs>
<linearGradient id="paint0_linear_350_7" x1="59" y1="0" x2="59" y2="40" gradientUnits="userSpaceOnUse">
<stop stop-color="white"/>
<stop offset="1" stop-color="#999999"/>
</linearGradient>
<linearGradient id="paint1_linear_350_7" x1="59" y1="0" x2="59" y2="40" gradientUnits="userSpaceOnUse">
<stop stop-color="white"/>
<stop offset="1" stop-color="#999999"/>
</linearGradient>
</defs>
</svg>
