<svg width="151" height="52" viewBox="0 0 151 52" fill="none" xmlns="http://www.w3.org/2000/svg">
<rect width="151" height="52" rx="26" fill="#666666"/>
<rect width="151" height="52" rx="26" fill="url(#paint0_linear_350_6)"/>
<path d="M60.384 15.112C61.424 15.112 62.304 15.288 63.024 15.64C63.76 15.992 64.128 16.44 64.128 16.984C64.128 17.224 64.064 17.432 63.936 17.608C63.824 17.784 63.648 17.872 63.408 17.872C63.184 17.872 62.688 17.696 61.92 17.344C61.152 16.976 60.448 16.792 59.808 16.792C59.184 16.792 58.536 16.992 57.864 17.392C57.192 17.792 56.856 18.28 56.856 18.856C56.856 19.64 57.264 20.216 58.08 20.584C58.688 20.856 59.56 21.104 60.696 21.328C61.832 21.536 62.76 21.976 63.48 22.648C64.2 23.304 64.56 24.304 64.56 25.648C64.56 27.696 63.944 29.208 62.712 30.184C62.024 30.728 61.048 31 59.784 31C58.536 31 57.288 30.656 56.04 29.968C55.224 29.536 54.816 29.104 54.816 28.672C54.816 28.512 54.88 28.336 55.008 28.144C55.152 27.952 55.344 27.792 55.584 27.664C55.824 27.536 56.04 27.52 56.232 27.616C56.44 27.696 56.768 27.848 57.216 28.072C57.664 28.296 57.992 28.448 58.2 28.528C58.872 28.784 59.504 28.912 60.096 28.912C60.688 28.912 61.256 28.624 61.8 28.048C62.36 27.456 62.64 26.736 62.64 25.888C62.64 24.768 62.08 23.984 60.96 23.536C60.416 23.312 59.8 23.144 59.112 23.032C57.688 22.776 56.616 22.352 55.896 21.76C55.176 21.152 54.816 20.24 54.816 19.024C54.816 17.808 55.336 16.856 56.376 16.168C57.416 15.464 58.752 15.112 60.384 15.112ZM69.3836 19.888C70.2316 19.888 71.0396 20.136 71.8076 20.632C72.5756 21.128 72.9596 21.744 72.9596 22.48C72.9596 23.2 72.6476 23.904 72.0236 24.592C71.3996 25.264 70.5676 25.672 69.5276 25.816C69.0796 25.88 68.4076 25.912 67.5116 25.912C67.6876 27.272 68.0316 28.168 68.5436 28.6C68.7036 28.776 68.9196 28.864 69.1916 28.864C70.1836 28.864 71.0156 28.552 71.6876 27.928C72.3596 27.288 72.8396 26.968 73.1276 26.968C73.2556 26.968 73.4476 27.088 73.7036 27.328C73.9596 27.568 74.0876 27.792 74.0876 28C74.0876 28.416 73.5836 29.016 72.5756 29.8C72.1276 30.168 71.5836 30.48 70.9436 30.736C70.3196 30.976 69.7356 31.096 69.1916 31.096C67.7996 31.096 66.7756 30.2 66.1196 28.408C65.7036 27.304 65.4956 26.088 65.4956 24.76C65.4956 23.432 65.8076 22.288 66.4316 21.328C67.0556 20.368 68.0396 19.888 69.3836 19.888ZM69.5036 21.544C68.8956 21.544 68.3756 21.888 67.9436 22.576C67.7836 22.816 67.6316 23.36 67.4876 24.208C69.7276 24.208 70.8476 23.656 70.8476 22.552C70.8476 21.88 70.3996 21.544 69.5036 21.544ZM82.1861 19.792C82.8901 19.792 83.2421 20.392 83.2421 21.592C83.2421 21.72 83.2421 21.856 83.2421 22L83.1941 23.68C83.1781 24.208 83.1701 24.728 83.1701 25.24L83.5301 30.664C83.5301 31.064 83.1221 31.264 82.3061 31.264C82.2581 31.264 82.1381 31.264 81.9461 31.264C81.7701 31.264 81.6421 31.192 81.5621 31.048C81.4981 30.904 81.4901 30.728 81.5381 30.52C81.6021 30.312 81.5861 30.08 81.4901 29.824C80.7541 30.608 79.7781 31 78.5621 31C76.3061 31 75.1781 29.256 75.1781 25.768C75.1781 23.832 75.5381 22.368 76.2581 21.376C76.9941 20.384 78.0421 19.888 79.4021 19.888C80.0421 19.888 80.6821 20 81.3221 20.224C81.5301 19.936 81.8181 19.792 82.1861 19.792ZM79.6901 21.976C78.7781 21.976 78.0981 22.24 77.6501 22.768C77.2021 23.296 76.9781 24.264 76.9781 25.672C76.9781 28.04 77.6181 29.224 78.8981 29.224C79.2341 29.224 79.6021 29.072 80.0021 28.768C80.4181 28.464 80.7061 28.12 80.8661 27.736C81.1701 26.872 81.3221 25.928 81.3221 24.904C81.3221 23.88 81.1941 23.136 80.9381 22.672C80.6981 22.208 80.2821 21.976 79.6901 21.976ZM87.9846 27.496L88.0086 29.968C88.0086 30.256 87.8726 30.52 87.6006 30.76C87.3446 31 87.0886 31.12 86.8326 31.12C86.4646 31.12 86.2326 30.832 86.1366 30.256C86.1206 30.128 86.0566 28.96 85.9446 26.752C85.8326 24.528 85.6166 22.784 85.2966 21.52C85.1526 20.912 85.0806 20.552 85.0806 20.44C85.0806 19.912 85.4006 19.648 86.0406 19.648C86.3126 19.648 86.5286 19.752 86.6886 19.96C86.8486 20.168 86.9446 20.384 86.9766 20.608C87.0246 20.816 87.0646 21.104 87.0966 21.472C87.1286 21.84 87.1526 22.072 87.1686 22.168C87.5046 21.368 88.0086 20.768 88.6806 20.368C89.3526 19.968 90.0886 19.768 90.8886 19.768C92.2006 19.768 92.8566 20.104 92.8566 20.776C92.8566 21.112 92.7366 21.384 92.4966 21.592C92.2726 21.784 92.0086 21.88 91.7046 21.88C90.3446 21.88 89.3846 22.312 88.8246 23.176C88.2646 24.04 87.9846 25.48 87.9846 27.496ZM93.7869 25.384C93.7869 24.312 94.0669 23.336 94.6269 22.456C95.2029 21.576 95.9309 20.92 96.8109 20.488C97.6909 20.04 98.5469 19.816 99.3789 19.816C100.211 19.816 100.875 19.92 101.371 20.128C101.883 20.32 102.139 20.584 102.139 20.92C102.139 21.24 102.043 21.568 101.851 21.904C101.675 22.224 101.435 22.384 101.131 22.384C101.019 22.384 100.707 22.296 100.195 22.12C99.6989 21.928 99.3789 21.832 99.2349 21.832C98.3069 21.832 97.5149 22.176 96.8589 22.864C96.2029 23.536 95.8749 24.432 95.8749 25.552C95.8749 26.672 96.0509 27.512 96.4029 28.072C96.7709 28.616 97.3949 28.888 98.2749 28.888C98.6269 28.888 99.2269 28.688 100.075 28.288C100.939 27.872 101.475 27.664 101.683 27.664C101.891 27.664 102.059 27.728 102.187 27.856C102.315 27.984 102.379 28.144 102.379 28.336C102.379 28.72 102.131 29.128 101.635 29.56C101.155 29.976 100.555 30.328 99.8349 30.616C99.1149 30.888 98.4669 31.024 97.8909 31.024C96.6109 31.024 95.6029 30.52 94.8669 29.512C94.1469 28.504 93.7869 27.128 93.7869 25.384ZM105.996 23.224L106.188 28.888C106.188 29.592 106.156 30 106.092 30.112C106.06 30.4 105.964 30.624 105.804 30.784C105.66 30.944 105.372 31.024 104.94 31.024C104.732 31.024 104.564 30.896 104.436 30.64C104.308 30.368 104.236 30.064 104.22 29.728C104.108 26.912 103.956 24.272 103.764 21.808C103.588 19.328 103.5 17.024 103.5 14.896C103.5 14.56 103.612 14.296 103.836 14.104C104.06 13.912 104.324 13.816 104.628 13.816C105.076 13.816 105.34 14.2 105.42 14.968C105.516 15.736 105.572 16.696 105.588 17.848C105.62 19 105.652 19.84 105.684 20.368C106.484 19.952 107.284 19.744 108.084 19.744C109.94 19.744 111.116 20.56 111.612 22.192C111.9 23.12 112.044 24.312 112.044 25.768C112.044 26.248 111.996 27.008 111.9 28.048C111.82 29.072 111.772 29.736 111.756 30.04C111.74 30.344 111.604 30.584 111.348 30.76C111.108 30.92 110.844 31 110.556 31C110.108 31 109.884 30.76 109.884 30.28L110.052 26.104C110.052 25.752 110.036 25.168 110.004 24.352C109.972 23.536 109.804 22.888 109.5 22.408C109.212 21.928 108.7 21.688 107.964 21.688C106.652 21.688 105.996 22.2 105.996 23.224Z" fill="black"/>
<path d="M39.6833 38.125L32.0708 29.9875C31.4667 30.5042 30.7719 30.9132 29.9865 31.2146C29.201 31.516 28.3653 31.6667 27.4792 31.6667C25.284 31.6667 23.4264 30.8538 21.9063 29.228C20.3863 27.6022 19.6258 25.6165 19.625 23.2708C19.6242 20.9252 20.3846 18.9394 21.9063 17.3137C23.428 15.6879 25.2856 14.875 27.4792 14.875C29.6727 14.875 31.5307 15.6879 33.0532 17.3137C34.5757 18.9394 35.3358 20.9252 35.3333 23.2708C35.3333 24.2181 35.1924 25.1115 34.9104 25.951C34.6285 26.7906 34.2458 27.5333 33.7625 28.1792L41.375 36.3167L39.6833 38.125ZM27.4792 29.0833C28.9896 29.0833 30.2736 28.5184 31.3313 27.3887C32.389 26.2589 32.9175 24.8863 32.9167 23.2708C32.9159 21.6554 32.3874 20.2832 31.3313 19.1543C30.2753 18.0254 28.9912 17.4601 27.4792 17.4583C25.9671 17.4566 24.6835 18.0219 23.6282 19.1543C22.5729 20.2867 22.0441 21.6588 22.0417 23.2708C22.0393 24.8828 22.5681 26.2554 23.6282 27.3887C24.6883 28.5219 25.972 29.0868 27.4792 29.0833Z" fill="black"/>
<defs>
<linearGradient id="paint0_linear_350_6" x1="75.5" y1="0" x2="75.5" y2="52" gradientUnits="userSpaceOnUse">
<stop stop-color="white"/>
<stop offset="1" stop-color="#999999"/>
</linearGradient>
</defs>
</svg>
