<svg width="131" height="48" viewBox="0 0 131 48" fill="none" xmlns="http://www.w3.org/2000/svg">
<rect width="131" height="48" rx="20" fill="#D9D9D9"/>
<rect width="131" height="48" rx="20" fill="url(#paint0_linear_367_4)"/>
<path d="M58.384 15.112C59.424 15.112 60.304 15.288 61.024 15.64C61.76 15.992 62.128 16.44 62.128 16.984C62.128 17.224 62.064 17.432 61.936 17.608C61.824 17.784 61.648 17.872 61.408 17.872C61.184 17.872 60.688 17.696 59.92 17.344C59.152 16.976 58.448 16.792 57.808 16.792C57.184 16.792 56.536 16.992 55.864 17.392C55.192 17.792 54.856 18.28 54.856 18.856C54.856 19.64 55.264 20.216 56.08 20.584C56.688 20.856 57.56 21.104 58.696 21.328C59.832 21.536 60.76 21.976 61.48 22.648C62.2 23.304 62.56 24.304 62.56 25.648C62.56 27.696 61.944 29.208 60.712 30.184C60.024 30.728 59.048 31 57.784 31C56.536 31 55.288 30.656 54.04 29.968C53.224 29.536 52.816 29.104 52.816 28.672C52.816 28.512 52.88 28.336 53.008 28.144C53.152 27.952 53.344 27.792 53.584 27.664C53.824 27.536 54.04 27.52 54.232 27.616C54.44 27.696 54.768 27.848 55.216 28.072C55.664 28.296 55.992 28.448 56.2 28.528C56.872 28.784 57.504 28.912 58.096 28.912C58.688 28.912 59.256 28.624 59.8 28.048C60.36 27.456 60.64 26.736 60.64 25.888C60.64 24.768 60.08 23.984 58.96 23.536C58.416 23.312 57.8 23.144 57.112 23.032C55.688 22.776 54.616 22.352 53.896 21.76C53.176 21.152 52.816 20.24 52.816 19.024C52.816 17.808 53.336 16.856 54.376 16.168C55.416 15.464 56.752 15.112 58.384 15.112ZM70.6236 19.792C71.3276 19.792 71.6796 20.392 71.6796 21.592C71.6796 21.72 71.6796 21.856 71.6796 22L71.6316 23.68C71.6156 24.208 71.6076 24.728 71.6076 25.24L71.9676 30.664C71.9676 31.064 71.5596 31.264 70.7436 31.264C70.6956 31.264 70.5756 31.264 70.3836 31.264C70.2076 31.264 70.0796 31.192 69.9996 31.048C69.9356 30.904 69.9276 30.728 69.9756 30.52C70.0396 30.312 70.0236 30.08 69.9276 29.824C69.1916 30.608 68.2156 31 66.9996 31C64.7436 31 63.6156 29.256 63.6156 25.768C63.6156 23.832 63.9756 22.368 64.6956 21.376C65.4316 20.384 66.4796 19.888 67.8396 19.888C68.4796 19.888 69.1196 20 69.7596 20.224C69.9676 19.936 70.2556 19.792 70.6236 19.792ZM68.1276 21.976C67.2156 21.976 66.5356 22.24 66.0876 22.768C65.6396 23.296 65.4156 24.264 65.4156 25.672C65.4156 28.04 66.0556 29.224 67.3356 29.224C67.6716 29.224 68.0396 29.072 68.4396 28.768C68.8556 28.464 69.1436 28.12 69.3036 27.736C69.6076 26.872 69.7596 25.928 69.7596 24.904C69.7596 23.88 69.6316 23.136 69.3756 22.672C69.1356 22.208 68.7196 21.976 68.1276 21.976ZM81.0781 19.672C81.3021 19.672 81.4701 19.752 81.5821 19.912C81.6941 20.056 81.7501 20.216 81.7501 20.392L81.7261 20.632C81.0541 22.344 80.5581 23.736 80.2381 24.808C80.0301 25.56 79.8701 26.12 79.7581 26.488C79.6621 26.856 79.4941 27.504 79.2541 28.432C79.0141 29.36 78.8541 29.96 78.7741 30.232C78.5501 30.776 78.1581 31.048 77.5981 31.048C77.3261 31.048 77.1341 30.872 77.0221 30.52C76.5101 28.92 75.7581 27.112 74.7661 25.096C73.7741 23.08 73.2061 21.928 73.0621 21.64C72.9341 21.336 72.8701 21.064 72.8701 20.824C72.8701 20.584 72.9741 20.352 73.1821 20.128C73.4061 19.904 73.6541 19.792 73.9261 19.792C74.1981 19.792 74.4301 19.936 74.6221 20.224C74.7981 20.576 75.2941 21.56 76.1101 23.176C76.9421 24.792 77.5261 26.064 77.8621 26.992C77.8781 26.896 77.9341 26.696 78.0301 26.392C78.8461 23.56 79.5101 21.536 80.0221 20.32C80.2941 19.888 80.6461 19.672 81.0781 19.672ZM86.3914 19.888C87.2394 19.888 88.0474 20.136 88.8154 20.632C89.5834 21.128 89.9674 21.744 89.9674 22.48C89.9674 23.2 89.6554 23.904 89.0314 24.592C88.4074 25.264 87.5754 25.672 86.5354 25.816C86.0874 25.88 85.4154 25.912 84.5194 25.912C84.6954 27.272 85.0394 28.168 85.5514 28.6C85.7114 28.776 85.9274 28.864 86.1994 28.864C87.1914 28.864 88.0234 28.552 88.6954 27.928C89.3674 27.288 89.8474 26.968 90.1354 26.968C90.2634 26.968 90.4554 27.088 90.7114 27.328C90.9674 27.568 91.0954 27.792 91.0954 28C91.0954 28.416 90.5914 29.016 89.5834 29.8C89.1354 30.168 88.5914 30.48 87.9514 30.736C87.3274 30.976 86.7434 31.096 86.1994 31.096C84.8074 31.096 83.7834 30.2 83.1274 28.408C82.7114 27.304 82.5034 26.088 82.5034 24.76C82.5034 23.432 82.8154 22.288 83.4394 21.328C84.0634 20.368 85.0474 19.888 86.3914 19.888ZM86.5114 21.544C85.9034 21.544 85.3834 21.888 84.9514 22.576C84.7914 22.816 84.6394 23.36 84.4954 24.208C86.7354 24.208 87.8554 23.656 87.8554 22.552C87.8554 21.88 87.4074 21.544 86.5114 21.544Z" fill="black"/>
<defs>
<linearGradient id="paint0_linear_367_4" x1="0" y1="24" x2="131" y2="24" gradientUnits="userSpaceOnUse">
<stop stop-color="#BBBFAF"/>
<stop offset="1" stop-color="#575952"/>
</linearGradient>
</defs>
</svg>
