<svg width="159" height="27" viewBox="0 0 159 27" fill="none" xmlns="http://www.w3.org/2000/svg">
<mask id="path-1-outside-1_140_705" maskUnits="userSpaceOnUse" x="-1" y="-1" width="161" height="29" fill="black">
<rect fill="white" x="-1" y="-1" width="161" height="29"/>
<path d="M8.952 26H0.06V1.088H8.952C13.008 1.088 15.696 2.696 17.016 5.912C17.784 7.76 18.168 10.184 18.168 13.184C18.168 19.448 16.608 23.396 13.488 25.028C12.24 25.676 10.728 26 8.952 26ZM15.324 13.184C15.324 8.408 14.256 5.432 12.12 4.256C11.256 3.776 10.2 3.536 8.952 3.536H2.832V23.552H8.952C13.2 23.552 15.324 20.096 15.324 13.184ZM35.5031 13.436V22.652C35.5751 23.54 36.2711 24.068 37.5911 24.236L37.4831 26.36C35.5871 26.36 34.1591 25.88 33.1991 24.92C31.0391 25.88 28.8791 26.36 26.7191 26.36C25.0631 26.36 23.8031 25.892 22.9391 24.956C22.0751 24.02 21.6431 22.676 21.6431 20.924C21.6431 19.172 22.0871 17.888 22.9751 17.072C23.8631 16.232 25.2551 15.716 27.1511 15.524L32.8031 14.984V13.436C32.8031 12.212 32.5391 11.336 32.0111 10.808C31.4831 10.28 30.7631 10.016 29.8511 10.016C27.9311 10.016 25.9391 10.136 23.8751 10.376L22.7591 10.484L22.6511 8.432C25.2911 7.904 27.6311 7.64 29.6711 7.64C31.7111 7.64 33.1871 8.108 34.0991 9.044C35.0351 9.98 35.5031 11.444 35.5031 13.436ZM24.4151 20.78C24.4151 22.988 25.3271 24.092 27.1511 24.092C28.7831 24.092 30.3911 23.816 31.9751 23.264L32.8031 22.976V17.036L27.4751 17.54C26.3951 17.636 25.6151 17.948 25.1351 18.476C24.6551 19.004 24.4151 19.772 24.4151 20.78ZM46.4823 10.052C43.8663 10.052 42.5583 10.964 42.5583 12.788C42.5583 13.628 42.8583 14.228 43.4583 14.588C44.0583 14.924 45.4263 15.284 47.5623 15.668C49.6983 16.028 51.2103 16.544 52.0983 17.216C52.9863 17.888 53.4303 19.148 53.4303 20.996C53.4303 22.844 52.8303 24.2 51.6303 25.064C50.4543 25.928 48.7263 26.36 46.4463 26.36C44.9583 26.36 43.2063 26.192 41.1903 25.856L40.1103 25.676L40.2543 23.336C42.9903 23.744 45.0543 23.948 46.4463 23.948C47.8383 23.948 48.8943 23.732 49.6143 23.3C50.3583 22.844 50.7303 22.1 50.7303 21.068C50.7303 20.012 50.4183 19.304 49.7943 18.944C49.1703 18.56 47.8023 18.2 45.6903 17.864C43.5783 17.528 42.0783 17.036 41.1903 16.388C40.3023 15.74 39.8583 14.54 39.8583 12.788C39.8583 11.036 40.4703 9.74 41.6943 8.9C42.9423 8.06 44.4903 7.64 46.3383 7.64C47.8023 7.64 49.6383 7.808 51.8463 8.144L52.8543 8.324L52.7823 10.628C50.1183 10.244 48.0183 10.052 46.4823 10.052ZM60.2647 26H57.5647V0.151998H60.2647V9.008C62.1847 8.096 64.0327 7.64 65.8087 7.64C68.2087 7.64 69.8167 8.288 70.6327 9.584C71.4727 10.88 71.8927 13.184 71.8927 16.496V26H69.1927V16.568C69.1927 14.072 68.9407 12.368 68.4367 11.456C67.9567 10.52 66.9247 10.052 65.3407 10.052C63.8287 10.052 62.3647 10.328 60.9487 10.88L60.2647 11.132V26ZM84.8566 7.64C87.2806 7.64 88.9726 8.336 89.9326 9.728C90.9166 11.096 91.4086 13.508 91.4086 16.964C91.4086 20.42 90.7966 22.856 89.5726 24.272C88.3726 25.664 86.1526 26.36 82.9126 26.36C81.9046 26.36 80.2366 26.264 77.9086 26.072L76.9006 25.964V0.151998H79.5646V8.9C81.3886 8.06 83.1526 7.64 84.8566 7.64ZM82.8766 23.948C85.2286 23.948 86.7766 23.42 87.5206 22.364C88.2886 21.284 88.6726 19.472 88.6726 16.928C88.6726 14.384 88.3726 12.608 87.7726 11.6C87.1726 10.568 86.1046 10.052 84.5686 10.052C83.1766 10.052 81.7486 10.316 80.2846 10.844L79.5646 11.096V23.768C81.1246 23.888 82.2286 23.948 82.8766 23.948ZM95.0578 16.964C95.0578 13.676 95.6458 11.3 96.8218 9.836C97.9978 8.372 99.9778 7.64 102.762 7.64C105.57 7.64 107.55 8.372 108.702 9.836C109.878 11.3 110.466 13.676 110.466 16.964C110.466 20.252 109.914 22.64 108.81 24.128C107.706 25.616 105.69 26.36 102.762 26.36C99.8338 26.36 97.8178 25.616 96.7138 24.128C95.6098 22.64 95.0578 20.252 95.0578 16.964ZM97.8298 16.928C97.8298 19.544 98.1418 21.38 98.7658 22.436C99.4138 23.492 100.746 24.02 102.762 24.02C104.802 24.02 106.134 23.504 106.758 22.472C107.382 21.416 107.694 19.568 107.694 16.928C107.694 14.288 107.346 12.476 106.65 11.492C105.954 10.484 104.658 9.98 102.762 9.98C100.89 9.98 99.5938 10.484 98.8738 11.492C98.1778 12.476 97.8298 14.288 97.8298 16.928ZM127.577 13.436V22.652C127.649 23.54 128.345 24.068 129.665 24.236L129.557 26.36C127.661 26.36 126.233 25.88 125.273 24.92C123.113 25.88 120.953 26.36 118.793 26.36C117.137 26.36 115.877 25.892 115.013 24.956C114.149 24.02 113.717 22.676 113.717 20.924C113.717 19.172 114.161 17.888 115.049 17.072C115.937 16.232 117.329 15.716 119.225 15.524L124.877 14.984V13.436C124.877 12.212 124.613 11.336 124.085 10.808C123.557 10.28 122.837 10.016 121.925 10.016C120.005 10.016 118.013 10.136 115.949 10.376L114.833 10.484L114.725 8.432C117.365 7.904 119.705 7.64 121.745 7.64C123.785 7.64 125.261 8.108 126.173 9.044C127.109 9.98 127.577 11.444 127.577 13.436ZM116.489 20.78C116.489 22.988 117.401 24.092 119.225 24.092C120.857 24.092 122.465 23.816 124.049 23.264L124.877 22.976V17.036L119.549 17.54C118.469 17.636 117.689 17.948 117.209 18.476C116.729 19.004 116.489 19.772 116.489 20.78ZM132.905 26V8H135.569V10.448C137.657 9.008 139.853 8.06 142.157 7.604V10.34C141.149 10.532 140.093 10.832 138.989 11.24C137.909 11.648 137.081 12.008 136.505 12.32L135.604 12.788V26H132.905ZM158.717 0.151998V26H156.053V24.776C154.205 25.832 152.381 26.36 150.581 26.36C149.621 26.36 148.781 26.24 148.061 26C147.341 25.76 146.669 25.328 146.045 24.704C144.749 23.408 144.101 21.02 144.101 17.54C144.101 14.036 144.677 11.516 145.829 9.98C147.005 8.42 148.937 7.64 151.625 7.64C153.017 7.64 154.493 7.796 156.053 8.108V0.151998H158.717ZM148.133 22.76C148.517 23.216 148.925 23.528 149.357 23.696C149.789 23.864 150.341 23.948 151.013 23.948C151.709 23.948 152.477 23.84 153.317 23.624C154.181 23.384 154.853 23.156 155.333 22.94L156.053 22.616V10.412C154.517 10.124 153.089 9.98 151.769 9.98C149.945 9.98 148.673 10.568 147.953 11.744C147.233 12.896 146.873 14.696 146.873 17.144C146.873 19.928 147.293 21.8 148.133 22.76Z"/>
</mask>
<path d="M8.952 26H0.06V1.088H8.952C13.008 1.088 15.696 2.696 17.016 5.912C17.784 7.76 18.168 10.184 18.168 13.184C18.168 19.448 16.608 23.396 13.488 25.028C12.24 25.676 10.728 26 8.952 26ZM15.324 13.184C15.324 8.408 14.256 5.432 12.12 4.256C11.256 3.776 10.2 3.536 8.952 3.536H2.832V23.552H8.952C13.2 23.552 15.324 20.096 15.324 13.184ZM35.5031 13.436V22.652C35.5751 23.54 36.2711 24.068 37.5911 24.236L37.4831 26.36C35.5871 26.36 34.1591 25.88 33.1991 24.92C31.0391 25.88 28.8791 26.36 26.7191 26.36C25.0631 26.36 23.8031 25.892 22.9391 24.956C22.0751 24.02 21.6431 22.676 21.6431 20.924C21.6431 19.172 22.0871 17.888 22.9751 17.072C23.8631 16.232 25.2551 15.716 27.1511 15.524L32.8031 14.984V13.436C32.8031 12.212 32.5391 11.336 32.0111 10.808C31.4831 10.28 30.7631 10.016 29.8511 10.016C27.9311 10.016 25.9391 10.136 23.8751 10.376L22.7591 10.484L22.6511 8.432C25.2911 7.904 27.6311 7.64 29.6711 7.64C31.7111 7.64 33.1871 8.108 34.0991 9.044C35.0351 9.98 35.5031 11.444 35.5031 13.436ZM24.4151 20.78C24.4151 22.988 25.3271 24.092 27.1511 24.092C28.7831 24.092 30.3911 23.816 31.9751 23.264L32.8031 22.976V17.036L27.4751 17.54C26.3951 17.636 25.6151 17.948 25.1351 18.476C24.6551 19.004 24.4151 19.772 24.4151 20.78ZM46.4823 10.052C43.8663 10.052 42.5583 10.964 42.5583 12.788C42.5583 13.628 42.8583 14.228 43.4583 14.588C44.0583 14.924 45.4263 15.284 47.5623 15.668C49.6983 16.028 51.2103 16.544 52.0983 17.216C52.9863 17.888 53.4303 19.148 53.4303 20.996C53.4303 22.844 52.8303 24.2 51.6303 25.064C50.4543 25.928 48.7263 26.36 46.4463 26.36C44.9583 26.36 43.2063 26.192 41.1903 25.856L40.1103 25.676L40.2543 23.336C42.9903 23.744 45.0543 23.948 46.4463 23.948C47.8383 23.948 48.8943 23.732 49.6143 23.3C50.3583 22.844 50.7303 22.1 50.7303 21.068C50.7303 20.012 50.4183 19.304 49.7943 18.944C49.1703 18.56 47.8023 18.2 45.6903 17.864C43.5783 17.528 42.0783 17.036 41.1903 16.388C40.3023 15.74 39.8583 14.54 39.8583 12.788C39.8583 11.036 40.4703 9.74 41.6943 8.9C42.9423 8.06 44.4903 7.64 46.3383 7.64C47.8023 7.64 49.6383 7.808 51.8463 8.144L52.8543 8.324L52.7823 10.628C50.1183 10.244 48.0183 10.052 46.4823 10.052ZM60.2647 26H57.5647V0.151998H60.2647V9.008C62.1847 8.096 64.0327 7.64 65.8087 7.64C68.2087 7.64 69.8167 8.288 70.6327 9.584C71.4727 10.88 71.8927 13.184 71.8927 16.496V26H69.1927V16.568C69.1927 14.072 68.9407 12.368 68.4367 11.456C67.9567 10.52 66.9247 10.052 65.3407 10.052C63.8287 10.052 62.3647 10.328 60.9487 10.88L60.2647 11.132V26ZM84.8566 7.64C87.2806 7.64 88.9726 8.336 89.9326 9.728C90.9166 11.096 91.4086 13.508 91.4086 16.964C91.4086 20.42 90.7966 22.856 89.5726 24.272C88.3726 25.664 86.1526 26.36 82.9126 26.36C81.9046 26.36 80.2366 26.264 77.9086 26.072L76.9006 25.964V0.151998H79.5646V8.9C81.3886 8.06 83.1526 7.64 84.8566 7.64ZM82.8766 23.948C85.2286 23.948 86.7766 23.42 87.5206 22.364C88.2886 21.284 88.6726 19.472 88.6726 16.928C88.6726 14.384 88.3726 12.608 87.7726 11.6C87.1726 10.568 86.1046 10.052 84.5686 10.052C83.1766 10.052 81.7486 10.316 80.2846 10.844L79.5646 11.096V23.768C81.1246 23.888 82.2286 23.948 82.8766 23.948ZM95.0578 16.964C95.0578 13.676 95.6458 11.3 96.8218 9.836C97.9978 8.372 99.9778 7.64 102.762 7.64C105.57 7.64 107.55 8.372 108.702 9.836C109.878 11.3 110.466 13.676 110.466 16.964C110.466 20.252 109.914 22.64 108.81 24.128C107.706 25.616 105.69 26.36 102.762 26.36C99.8338 26.36 97.8178 25.616 96.7138 24.128C95.6098 22.64 95.0578 20.252 95.0578 16.964ZM97.8298 16.928C97.8298 19.544 98.1418 21.38 98.7658 22.436C99.4138 23.492 100.746 24.02 102.762 24.02C104.802 24.02 106.134 23.504 106.758 22.472C107.382 21.416 107.694 19.568 107.694 16.928C107.694 14.288 107.346 12.476 106.65 11.492C105.954 10.484 104.658 9.98 102.762 9.98C100.89 9.98 99.5938 10.484 98.8738 11.492C98.1778 12.476 97.8298 14.288 97.8298 16.928ZM127.577 13.436V22.652C127.649 23.54 128.345 24.068 129.665 24.236L129.557 26.36C127.661 26.36 126.233 25.88 125.273 24.92C123.113 25.88 120.953 26.36 118.793 26.36C117.137 26.36 115.877 25.892 115.013 24.956C114.149 24.02 113.717 22.676 113.717 20.924C113.717 19.172 114.161 17.888 115.049 17.072C115.937 16.232 117.329 15.716 119.225 15.524L124.877 14.984V13.436C124.877 12.212 124.613 11.336 124.085 10.808C123.557 10.28 122.837 10.016 121.925 10.016C120.005 10.016 118.013 10.136 115.949 10.376L114.833 10.484L114.725 8.432C117.365 7.904 119.705 7.64 121.745 7.64C123.785 7.64 125.261 8.108 126.173 9.044C127.109 9.98 127.577 11.444 127.577 13.436ZM116.489 20.78C116.489 22.988 117.401 24.092 119.225 24.092C120.857 24.092 122.465 23.816 124.049 23.264L124.877 22.976V17.036L119.549 17.54C118.469 17.636 117.689 17.948 117.209 18.476C116.729 19.004 116.489 19.772 116.489 20.78ZM132.905 26V8H135.569V10.448C137.657 9.008 139.853 8.06 142.157 7.604V10.34C141.149 10.532 140.093 10.832 138.989 11.24C137.909 11.648 137.081 12.008 136.505 12.32L135.604 12.788V26H132.905ZM158.717 0.151998V26H156.053V24.776C154.205 25.832 152.381 26.36 150.581 26.36C149.621 26.36 148.781 26.24 148.061 26C147.341 25.76 146.669 25.328 146.045 24.704C144.749 23.408 144.101 21.02 144.101 17.54C144.101 14.036 144.677 11.516 145.829 9.98C147.005 8.42 148.937 7.64 151.625 7.64C153.017 7.64 154.493 7.796 156.053 8.108V0.151998H158.717ZM148.133 22.76C148.517 23.216 148.925 23.528 149.357 23.696C149.789 23.864 150.341 23.948 151.013 23.948C151.709 23.948 152.477 23.84 153.317 23.624C154.181 23.384 154.853 23.156 155.333 22.94L156.053 22.616V10.412C154.517 10.124 153.089 9.98 151.769 9.98C149.945 9.98 148.673 10.568 147.953 11.744C147.233 12.896 146.873 14.696 146.873 17.144C146.873 19.928 147.293 21.8 148.133 22.76Z" fill="#666666"/>
<path d="M0.0599999 26H-0.94V27H0.0599999V26ZM0.0599999 1.088V0.0879993H-0.94V1.088H0.0599999ZM17.016 5.912L16.0909 6.29171L16.0926 6.29576L17.016 5.912ZM13.488 25.028L13.9488 25.9155L13.9515 25.9141L13.488 25.028ZM12.12 4.256L11.6344 5.13016L11.6377 5.13201L12.12 4.256ZM2.832 3.536V2.536H1.832V3.536H2.832ZM2.832 23.552H1.832V24.552H2.832V23.552ZM8.952 25H0.0599999V27H8.952V25ZM1.06 26V1.088H-0.94V26H1.06ZM0.0599999 2.088H8.952V0.0879993H0.0599999V2.088ZM8.952 2.088C10.8514 2.088 12.3472 2.46456 13.4966 3.15217C14.635 3.83315 15.5034 4.86037 16.0909 6.29171L17.9411 5.53229C17.2086 3.74763 16.073 2.36285 14.5234 1.43583C12.9848 0.515436 11.1086 0.0879993 8.952 0.0879993V2.088ZM16.0926 6.29576C16.7913 7.97713 17.168 10.2562 17.168 13.184H19.168C19.168 10.1118 18.7767 7.54286 17.9394 5.52824L16.0926 6.29576ZM17.168 13.184C17.168 19.3729 15.6158 22.7865 13.0245 24.1419L13.9515 25.9141C17.6002 24.0055 19.168 19.5231 19.168 13.184H17.168ZM13.0272 24.1405C11.9541 24.6977 10.6088 25 8.952 25V27C10.8472 27 12.5259 26.6543 13.9488 25.9155L13.0272 24.1405ZM16.324 13.184C16.324 8.38152 15.2718 4.84974 12.6023 3.37999L11.6377 5.13201C13.2402 6.01426 14.324 8.43448 14.324 13.184H16.324ZM12.6056 3.38184C11.559 2.80036 10.3261 2.536 8.952 2.536V4.536C10.0739 4.536 10.953 4.75163 11.6344 5.13016L12.6056 3.38184ZM8.952 2.536H2.832V4.536H8.952V2.536ZM1.832 3.536V23.552H3.832V3.536H1.832ZM2.832 24.552H8.952V22.552H2.832V24.552ZM8.952 24.552C11.4035 24.552 13.3288 23.5242 14.583 21.4836C15.7881 19.5227 16.324 16.7099 16.324 13.184H14.324C14.324 16.5701 13.7979 18.9413 12.879 20.4364C12.0092 21.8518 10.7485 22.552 8.952 22.552V24.552ZM35.5031 22.652H34.5031V22.6925L34.5064 22.7328L35.5031 22.652ZM37.5911 24.236L38.5898 24.2868L38.6369 23.361L37.7174 23.244L37.5911 24.236ZM37.4831 26.36V27.36H38.4336L38.4818 26.4108L37.4831 26.36ZM33.1991 24.92L33.9062 24.2129L33.4206 23.7273L32.793 24.0062L33.1991 24.92ZM22.9391 24.956L23.6739 24.2777L22.9391 24.956ZM22.9751 17.072L23.6518 17.8083L23.6571 17.8034L23.6623 17.7985L22.9751 17.072ZM27.1511 15.524L27.056 14.5285L27.0504 14.5291L27.1511 15.524ZM32.8031 14.984L32.8982 15.9795L33.8031 15.893V14.984H32.8031ZM32.0111 10.808L31.304 11.5151L32.0111 10.808ZM23.8751 10.376L23.9714 11.3713L23.981 11.3704L23.9906 11.3693L23.8751 10.376ZM22.7591 10.484L21.7605 10.5366L21.8154 11.58L22.8554 11.4793L22.7591 10.484ZM22.6511 8.432L22.455 7.45142L21.6071 7.62101L21.6525 8.48456L22.6511 8.432ZM34.0991 9.044L33.3828 9.74192L33.392 9.75111L34.0991 9.044ZM31.9751 23.264L31.6466 22.3195L31.646 22.3197L31.9751 23.264ZM32.8031 22.976L33.1316 23.9205L33.8031 23.6869V22.976H32.8031ZM32.8031 17.036H33.8031V15.9369L32.709 16.0404L32.8031 17.036ZM27.4751 17.54L27.5637 18.5361L27.5693 18.5356L27.4751 17.54ZM25.1351 18.476L25.8751 19.1487L25.1351 18.476ZM34.5031 13.436V22.652H36.5031V13.436H34.5031ZM34.5064 22.7328C34.5649 23.454 34.895 24.0709 35.4747 24.5107C36.0168 24.9219 36.7148 25.1325 37.4649 25.228L37.7174 23.244C37.1475 23.1715 36.8374 23.0341 36.6835 22.9173C36.5672 22.8291 36.5134 22.738 36.4999 22.5712L34.5064 22.7328ZM36.5924 24.1852L36.4844 26.3092L38.4818 26.4108L38.5898 24.2868L36.5924 24.1852ZM37.4831 25.36C35.7455 25.36 34.6147 24.9213 33.9062 24.2129L32.492 25.6271C33.7036 26.8387 35.4287 27.36 37.4831 27.36V25.36ZM32.793 24.0062C30.7487 24.9148 28.7265 25.36 26.7191 25.36V27.36C29.0318 27.36 31.3296 26.8452 33.6053 25.8338L32.793 24.0062ZM26.7191 25.36C25.2538 25.36 24.296 24.9516 23.6739 24.2777L22.2043 25.6343C23.3103 26.8324 24.8724 27.36 26.7191 27.36V25.36ZM23.6739 24.2777C23.0356 23.5862 22.6431 22.5199 22.6431 20.924H20.6431C20.6431 22.8321 21.1147 24.4538 22.2043 25.6343L23.6739 24.2777ZM22.6431 20.924C22.6431 19.3234 23.0485 18.3627 23.6518 17.8083L22.2985 16.3357C21.1258 17.4133 20.6431 19.0206 20.6431 20.924H22.6431ZM23.6623 17.7985C24.3222 17.1743 25.4603 16.7003 27.2519 16.5189L27.0504 14.5291C25.05 14.7317 23.4041 15.2897 22.2879 16.3455L23.6623 17.7985ZM27.2462 16.5195L32.8982 15.9795L32.708 13.9885L27.056 14.5285L27.2462 16.5195ZM33.8031 14.984V13.436H31.8031V14.984H33.8031ZM33.8031 13.436C33.8031 12.1082 33.5233 10.906 32.7182 10.1009L31.304 11.5151C31.5549 11.766 31.8031 12.3158 31.8031 13.436H33.8031ZM32.7182 10.1009C31.9627 9.34536 30.9659 9.016 29.8511 9.016V11.016C30.5604 11.016 31.0035 11.2146 31.304 11.5151L32.7182 10.1009ZM29.8511 9.016C27.8895 9.016 25.8589 9.13859 23.7596 9.38269L23.9906 11.3693C26.0194 11.1334 27.9727 11.016 29.8511 11.016V9.016ZM23.7788 9.38065L22.6628 9.48865L22.8554 11.4793L23.9714 11.3713L23.7788 9.38065ZM23.7577 10.4314L23.6497 8.37944L21.6525 8.48456L21.7605 10.5366L23.7577 10.4314ZM22.8472 9.41258C25.4418 8.89366 27.714 8.64 29.6711 8.64V6.64C27.5482 6.64 25.1404 6.91434 22.455 7.45142L22.8472 9.41258ZM29.6711 8.64C31.5891 8.64 32.7419 9.08399 33.3829 9.74186L34.8154 8.34613C33.6324 7.13201 31.8331 6.64 29.6711 6.64V8.64ZM33.392 9.75111C34.0641 10.4232 34.5031 11.5771 34.5031 13.436H36.5031C36.5031 11.3109 36.0061 9.53679 34.8062 8.33689L33.392 9.75111ZM23.4151 20.78C23.4151 21.9966 23.6625 23.095 24.3282 23.9009C25.0241 24.7433 26.0293 25.092 27.1511 25.092V23.092C26.4489 23.092 26.0862 22.8887 25.8701 22.6271C25.6238 22.329 25.4151 21.7714 25.4151 20.78H23.4151ZM27.1511 25.092C28.8983 25.092 30.6174 24.7961 32.3042 24.2083L31.646 22.3197C30.1649 22.8359 28.668 23.092 27.1511 23.092V25.092ZM32.3036 24.2085L33.1316 23.9205L32.4746 22.0315L31.6466 22.3195L32.3036 24.2085ZM33.8031 22.976V17.036H31.8031V22.976H33.8031ZM32.709 16.0404L27.381 16.5444L27.5693 18.5356L32.8973 18.0316L32.709 16.0404ZM27.3866 16.5439C26.1827 16.6509 25.1133 17.0134 24.3952 17.8033L25.8751 19.1487C26.1169 18.8826 26.6075 18.6211 27.5637 18.5361L27.3866 16.5439ZM24.3952 17.8033C23.6898 18.5792 23.4151 19.6256 23.4151 20.78H25.4151C25.4151 19.9184 25.6204 19.4288 25.8751 19.1487L24.3952 17.8033ZM43.4583 14.588L42.9438 15.4455L42.9566 15.4532L42.9697 15.4605L43.4583 14.588ZM47.5623 15.668L47.3853 16.6523L47.3961 16.6541L47.5623 15.668ZM52.0983 17.216L52.7017 16.4186L52.0983 17.216ZM51.6303 25.064L51.0459 24.2524L51.0382 24.2581L51.6303 25.064ZM41.1903 25.856L41.0259 26.8424L41.1903 25.856ZM40.1103 25.676L39.1122 25.6146L39.0568 26.5142L39.9459 26.6624L40.1103 25.676ZM40.2543 23.336L40.4018 22.3469L39.3232 22.1861L39.2562 23.2746L40.2543 23.336ZM49.6143 23.3L50.1288 24.1575L50.1368 24.1526L49.6143 23.3ZM49.7943 18.944L49.2702 19.7957L49.2823 19.8031L49.2946 19.8102L49.7943 18.944ZM45.6903 17.864L45.8474 16.8764L45.6903 17.864ZM41.1903 16.388L41.7798 15.5802L41.1903 16.388ZM41.6943 8.9L41.1359 8.07038L41.1284 8.07549L41.6943 8.9ZM51.8463 8.144L52.0221 7.15957L52.0094 7.15731L51.9967 7.15538L51.8463 8.144ZM52.8543 8.324L53.8538 8.35523L53.8808 7.49148L53.0301 7.33957L52.8543 8.324ZM52.7823 10.628L52.6396 11.6178L53.7469 11.7774L53.7818 10.6592L52.7823 10.628ZM46.4823 9.052C45.0888 9.052 43.8657 9.28933 42.9673 9.91571C42.0034 10.5878 41.5583 11.6034 41.5583 12.788H43.5583C43.5583 12.1486 43.7672 11.7962 44.1112 11.5563C44.5209 11.2707 45.2597 11.052 46.4823 11.052V9.052ZM41.5583 12.788C41.5583 13.8967 41.978 14.866 42.9438 15.4455L43.9728 13.7305C43.7386 13.59 43.5583 13.3593 43.5583 12.788H41.5583ZM42.9697 15.4605C43.3861 15.6937 43.9811 15.8932 44.6798 16.0771C45.3991 16.2664 46.3034 16.4577 47.3853 16.6522L47.7392 14.6838C46.6851 14.4943 45.8375 14.3136 45.1888 14.1429C44.5195 13.9668 44.1305 13.8183 43.9469 13.7155L42.9697 15.4605ZM47.3961 16.6541C49.4965 17.0081 50.8074 17.4932 51.4948 18.0134L52.7017 16.4186C51.6132 15.5948 49.9001 15.0479 47.7285 14.6819L47.3961 16.6541ZM51.4948 18.0134C52.0057 18.4 52.4303 19.2565 52.4303 20.996H54.4303C54.4303 19.0395 53.9669 17.376 52.7017 16.4186L51.4948 18.0134ZM52.4303 20.996C52.4303 22.6122 51.9198 23.6233 51.046 24.2525L52.2146 25.8755C53.7408 24.7767 54.4303 23.0758 54.4303 20.996H52.4303ZM51.0382 24.2581C50.1061 24.9429 48.625 25.36 46.4463 25.36V27.36C48.8275 27.36 50.8024 26.9131 52.2224 25.8699L51.0382 24.2581ZM46.4463 25.36C45.0294 25.36 43.3349 25.1996 41.3547 24.8696L41.0259 26.8424C43.0777 27.1844 44.8871 27.36 46.4463 27.36V25.36ZM41.3547 24.8696L40.2747 24.6896L39.9459 26.6624L41.0259 26.8424L41.3547 24.8696ZM41.1084 25.7374L41.2524 23.3974L39.2562 23.2746L39.1122 25.6146L41.1084 25.7374ZM40.1068 24.3251C42.8539 24.7347 44.9776 24.948 46.4463 24.948V22.948C45.131 22.948 43.1267 22.7533 40.4018 22.3469L40.1068 24.3251ZM46.4463 24.948C47.9132 24.948 49.1823 24.7254 50.1288 24.1575L49.0998 22.4425C48.6063 22.7386 47.7634 22.948 46.4463 22.948V24.948ZM50.1368 24.1526C51.2359 23.479 51.7303 22.3734 51.7303 21.068H49.7303C49.7303 21.8266 49.4807 22.209 49.0917 22.4474L50.1368 24.1526ZM51.7303 21.068C51.7303 19.8374 51.3586 18.692 50.294 18.0778L49.2946 19.8102C49.478 19.916 49.7303 20.1866 49.7303 21.068H51.7303ZM50.3184 18.0923C49.8773 17.8209 49.2628 17.6052 48.5548 17.4189C47.8269 17.2274 46.9214 17.0473 45.8474 16.8764L45.5332 18.8516C46.5711 19.0167 47.4057 19.1846 48.0458 19.3531C48.7058 19.5267 49.0873 19.6831 49.2702 19.7957L50.3184 18.0923ZM45.8474 16.8764C43.7706 16.546 42.4682 16.0826 41.7798 15.5802L40.6008 17.1958C41.6884 17.9894 43.386 18.51 45.5332 18.8516L45.8474 16.8764ZM41.7798 15.5802C41.2734 15.2107 40.8583 14.4132 40.8583 12.788H38.8583C38.8583 14.6668 39.3311 16.2693 40.6008 17.1958L41.7798 15.5802ZM40.8583 12.788C40.8583 11.2974 41.3597 10.3425 42.2601 9.72451L41.1284 8.07549C39.5809 9.13752 38.8583 10.7746 38.8583 12.788H40.8583ZM42.2527 9.72959C43.3013 9.02376 44.6434 8.64 46.3383 8.64V6.64C44.3372 6.64 42.5832 7.09624 41.1359 8.07041L42.2527 9.72959ZM46.3383 8.64C47.7331 8.64 49.5147 8.8007 51.6958 9.13262L51.9967 7.15538C49.7619 6.8153 47.8715 6.64 46.3383 6.64V8.64ZM51.6705 9.12843L52.6785 9.30843L53.0301 7.33957L52.0221 7.15957L51.6705 9.12843ZM51.8548 8.29276L51.7828 10.5968L53.7818 10.6592L53.8538 8.35523L51.8548 8.29276ZM52.9249 9.63823C50.2432 9.25167 48.0886 9.052 46.4823 9.052V11.052C47.9479 11.052 49.9934 11.2363 52.6396 11.6178L52.9249 9.63823ZM60.2647 26V27H61.2647V26H60.2647ZM57.5647 26H56.5647V27H57.5647V26ZM57.5647 0.151999V-0.848001H56.5647V0.151999H57.5647ZM60.2647 0.151999H61.2647V-0.848001H60.2647V0.151999ZM60.2647 9.008H59.2647V10.5901L60.6937 9.91128L60.2647 9.008ZM70.6327 9.584L69.7864 10.1169L69.7935 10.1279L70.6327 9.584ZM71.8927 26V27H72.8927V26H71.8927ZM69.1927 26H68.1927V27H69.1927V26ZM68.4367 11.456L67.5468 11.9123L67.5539 11.9261L67.5614 11.9397L68.4367 11.456ZM60.9487 10.88L61.2944 11.8183L61.3031 11.8151L61.3119 11.8117L60.9487 10.88ZM60.2647 11.132L59.919 10.1937L59.2647 10.4347V11.132H60.2647ZM60.2647 25H57.5647V27H60.2647V25ZM58.5647 26V0.151999H56.5647V26H58.5647ZM57.5647 1.152H60.2647V-0.848001H57.5647V1.152ZM59.2647 0.151999V9.008H61.2647V0.151999H59.2647ZM60.6937 9.91128C62.5057 9.05058 64.2075 8.64 65.8087 8.64V6.64C63.8579 6.64 61.8636 7.14141 59.8356 8.10472L60.6937 9.91128ZM65.8087 8.64C68.0697 8.64 69.2409 9.25044 69.7864 10.1168L71.4789 9.05119C70.3924 7.32555 68.3476 6.64 65.8087 6.64V8.64ZM69.7935 10.1279C70.4623 11.1597 70.8927 13.2012 70.8927 16.496H72.8927C72.8927 13.1668 72.483 10.6003 71.4718 9.0401L69.7935 10.1279ZM70.8927 16.496V26H72.8927V16.496H70.8927ZM71.8927 25H69.1927V27H71.8927V25ZM70.1927 26V16.568H68.1927V26H70.1927ZM70.1927 16.568C70.1927 15.2907 70.1285 14.1883 69.9929 13.2717C69.8593 12.3683 69.6474 11.5793 69.3119 10.9723L67.5614 11.9397C67.73 12.2447 67.896 12.7637 68.0144 13.5643C68.1309 14.3517 68.1927 15.3493 68.1927 16.568H70.1927ZM69.3265 10.9997C68.5968 9.57683 67.0892 9.052 65.3407 9.052V11.052C66.7601 11.052 67.3165 11.4632 67.5468 11.9123L69.3265 10.9997ZM65.3407 9.052C63.7037 9.052 62.1166 9.3514 60.5854 9.94829L61.3119 11.8117C62.6127 11.3046 63.9536 11.052 65.3407 11.052V9.052ZM60.603 9.94166L59.919 10.1937L60.6104 12.0703L61.2944 11.8183L60.603 9.94166ZM59.2647 11.132V26H61.2647V11.132H59.2647ZM89.9326 9.728L89.1094 10.2957L89.115 10.3039L89.1208 10.3119L89.9326 9.728ZM89.5726 24.272L88.8161 23.618L88.8152 23.6191L89.5726 24.272ZM77.9086 26.072L77.8021 27.0663L77.8142 27.0676L77.8264 27.0686L77.9086 26.072ZM76.9006 25.964H75.9006V26.8626L76.7941 26.9583L76.9006 25.964ZM76.9006 0.151999V-0.848001H75.9006V0.151999H76.9006ZM79.5646 0.151999H80.5646V-0.848001H79.5646V0.151999ZM79.5646 8.9H78.5646V10.4615L79.9829 9.80831L79.5646 8.9ZM87.5206 22.364L86.7056 21.7845L86.7031 21.788L87.5206 22.364ZM87.7726 11.6L86.908 12.1026L86.9133 12.1115L87.7726 11.6ZM80.2846 10.844L80.615 11.7879L80.6239 11.7847L80.2846 10.844ZM79.5646 11.096L79.2342 10.1521L78.5646 10.3865V11.096H79.5646ZM79.5646 23.768H78.5646V24.694L79.4879 24.7651L79.5646 23.768ZM84.8566 8.64C87.1045 8.64 88.4086 9.27959 89.1094 10.2957L90.7558 9.16027C89.5366 7.39241 87.4566 6.64 84.8566 6.64V8.64ZM89.1208 10.3119C89.9077 11.4059 90.4086 13.5364 90.4086 16.964H92.4086C92.4086 13.4795 91.9255 10.7861 90.7444 9.14407L89.1208 10.3119ZM90.4086 16.964C90.4086 20.3596 89.7958 22.4846 88.8161 23.618L90.3291 24.926C91.7974 23.2274 92.4086 20.4804 92.4086 16.964H90.4086ZM88.8152 23.6191C87.9088 24.6704 86.0711 25.36 82.9126 25.36V27.36C86.2341 27.36 88.8364 26.6576 90.33 24.9249L88.8152 23.6191ZM82.9126 25.36C81.9495 25.36 80.3175 25.2673 77.9908 25.0754L77.8264 27.0686C80.1557 27.2607 81.8597 27.36 82.9126 27.36V25.36ZM78.0151 25.0777L77.0071 24.9697L76.7941 26.9583L77.8021 27.0663L78.0151 25.0777ZM77.9006 25.964V0.151999H75.9006V25.964H77.9006ZM76.9006 1.152H79.5646V-0.848001H76.9006V1.152ZM78.5646 0.151999V8.9H80.5646V0.151999H78.5646ZM79.9829 9.80831C81.6989 9.01805 83.3205 8.64 84.8566 8.64V6.64C82.9847 6.64 81.0783 7.10195 79.1463 7.99169L79.9829 9.80831ZM82.8766 24.948C85.2972 24.948 87.2963 24.4186 88.3381 22.94L86.7031 21.788C86.2569 22.4214 85.16 22.948 82.8766 22.948V24.948ZM88.3355 22.9435C89.2923 21.598 89.6726 19.5176 89.6726 16.928H87.6726C87.6726 19.4264 87.2849 20.97 86.7056 21.7845L88.3355 22.9435ZM89.6726 16.928C89.6726 14.3692 89.3822 12.3491 88.6319 11.0885L86.9133 12.1115C87.3629 12.8669 87.6726 14.3988 87.6726 16.928H89.6726ZM88.6371 11.0974C87.8059 9.66777 86.3432 9.052 84.5686 9.052V11.052C85.866 11.052 86.5393 11.4682 86.9081 12.1026L88.6371 11.0974ZM84.5686 9.052C83.0481 9.052 81.5054 9.34066 79.9453 9.90331L80.6239 11.7847C81.9918 11.2913 83.3051 11.052 84.5686 11.052V9.052ZM79.9542 9.90014L79.2342 10.1521L79.8949 12.0399L80.6149 11.7879L79.9542 9.90014ZM78.5646 11.096V23.768H80.5646V11.096H78.5646ZM79.4879 24.7651C81.0479 24.8851 82.1862 24.948 82.8766 24.948V22.948C82.271 22.948 81.2013 22.8909 79.6413 22.7709L79.4879 24.7651ZM96.8218 9.836L97.6014 10.4623L96.8218 9.836ZM108.702 9.836L107.916 10.4544L107.922 10.4623L108.702 9.836ZM108.81 24.128L109.613 24.7238L108.81 24.128ZM96.7138 24.128L95.9107 24.7238L96.7138 24.128ZM98.7658 22.436L97.9049 22.9447L97.9091 22.9519L97.9135 22.959L98.7658 22.436ZM106.758 22.472L107.614 22.9894L107.619 22.9807L106.758 22.472ZM106.65 11.492L105.827 12.0602L105.833 12.0695L106.65 11.492ZM98.8738 11.492L98.0601 10.9108L98.0574 10.9145L98.8738 11.492ZM96.0578 16.964C96.0578 13.7502 96.6412 11.6577 97.6014 10.4623L96.0422 9.20975C94.6504 10.9423 94.0578 13.6018 94.0578 16.964H96.0578ZM97.6014 10.4623C98.51 9.33113 100.13 8.64 102.762 8.64V6.64C99.8252 6.64 97.4856 7.41287 96.0422 9.20975L97.6014 10.4623ZM102.762 8.64C105.423 8.64 107.034 9.33375 107.916 10.4544L109.488 9.21761C108.065 7.41025 105.717 6.64 102.762 6.64V8.64ZM107.922 10.4623C108.882 11.6577 109.466 13.7502 109.466 16.964H111.466C111.466 13.6018 110.873 10.9423 109.481 9.20975L107.922 10.4623ZM109.466 16.964C109.466 20.1844 108.917 22.3057 108.007 23.5322L109.613 24.7238C110.911 22.9743 111.466 20.3196 111.466 16.964H109.466ZM108.007 23.5322C107.18 24.6462 105.56 25.36 102.762 25.36V27.36C105.82 27.36 108.231 26.5858 109.613 24.7238L108.007 23.5322ZM102.762 25.36C99.9637 25.36 98.3435 24.6462 97.5169 23.5322L95.9107 24.7238C97.2922 26.5858 99.7039 27.36 102.762 27.36V25.36ZM97.5169 23.5322C96.6069 22.3057 96.0578 20.1844 96.0578 16.964H94.0578C94.0578 20.3196 94.6127 22.9743 95.9107 24.7238L97.5169 23.5322ZM96.8298 16.928C96.8298 19.5625 97.1331 21.6387 97.9049 22.9447L99.6267 21.9273C99.1505 21.1213 98.8298 19.5255 98.8298 16.928H96.8298ZM97.9135 22.959C98.8366 24.4633 100.624 25.02 102.762 25.02V23.02C100.867 23.02 99.991 22.5207 99.6181 21.913L97.9135 22.959ZM102.762 25.02C104.904 25.02 106.709 24.4848 107.614 22.9894L105.902 21.9546C105.558 22.5232 104.699 23.02 102.762 23.02V25.02ZM107.619 22.9807C108.391 21.6739 108.694 19.5845 108.694 16.928H106.694C106.694 19.5515 106.373 21.1581 105.897 21.9633L107.619 22.9807ZM108.694 16.928C108.694 15.5693 108.605 14.3888 108.415 13.4004C108.227 12.4215 107.928 11.568 107.466 10.9145L105.833 12.0695C106.067 12.4 106.291 12.9445 106.451 13.7776C106.609 14.6012 106.694 15.6467 106.694 16.928H108.694ZM107.473 10.9238C106.504 9.52138 104.799 8.98 102.762 8.98V10.98C104.516 10.98 105.403 11.4466 105.827 12.0602L107.473 10.9238ZM102.762 8.98C100.739 8.98 99.0494 9.52573 98.0601 10.9108L99.6875 12.0732C100.138 11.4423 101.041 10.98 102.762 10.98V8.98ZM98.0574 10.9145C97.5952 11.568 97.2968 12.4215 97.1088 13.4004C96.9189 14.3888 96.8298 15.5693 96.8298 16.928H98.8298C98.8298 15.6467 98.9147 14.6012 99.0729 13.7776C99.2329 12.9445 99.4565 12.4 99.6902 12.0695L98.0574 10.9145ZM127.577 22.652H126.577V22.6925L126.581 22.7328L127.577 22.652ZM129.665 24.236L130.664 24.2868L130.711 23.361L129.792 23.244L129.665 24.236ZM129.557 26.36V27.36H130.508L130.556 26.4108L129.557 26.36ZM125.273 24.92L125.98 24.2129L125.495 23.7273L124.867 24.0062L125.273 24.92ZM115.013 24.956L115.748 24.2777L115.013 24.956ZM115.049 17.072L115.726 17.8083L115.731 17.8034L115.737 17.7985L115.049 17.072ZM119.225 15.524L119.13 14.5285L119.125 14.5291L119.225 15.524ZM124.877 14.984L124.972 15.9795L125.877 15.893V14.984H124.877ZM124.085 10.808L123.378 11.5151L124.085 10.808ZM115.949 10.376L116.046 11.3713L116.055 11.3704L116.065 11.3693L115.949 10.376ZM114.833 10.484L113.835 10.5366L113.89 11.58L114.93 11.4793L114.833 10.484ZM114.725 8.432L114.529 7.45142L113.681 7.62101L113.727 8.48456L114.725 8.432ZM126.173 9.044L125.457 9.74192L125.466 9.75111L126.173 9.044ZM124.049 23.264L123.721 22.3195L123.72 22.3197L124.049 23.264ZM124.877 22.976L125.206 23.9205L125.877 23.6869V22.976H124.877ZM124.877 17.036H125.877V15.9369L124.783 16.0404L124.877 17.036ZM119.549 17.54L119.638 18.5361L119.644 18.5356L119.549 17.54ZM117.209 18.476L117.949 19.1487L117.209 18.476ZM126.577 13.436V22.652H128.577V13.436H126.577ZM126.581 22.7328C126.639 23.454 126.969 24.0709 127.549 24.5107C128.091 24.9219 128.789 25.1325 129.539 25.228L129.792 23.244C129.222 23.1715 128.912 23.0341 128.758 22.9173C128.641 22.8291 128.588 22.738 128.574 22.5712L126.581 22.7328ZM128.667 24.1852L128.559 26.3092L130.556 26.4108L130.664 24.2868L128.667 24.1852ZM129.557 25.36C127.82 25.36 126.689 24.9213 125.98 24.2129L124.566 25.6271C125.778 26.8387 127.503 27.36 129.557 27.36V25.36ZM124.867 24.0062C122.823 24.9148 120.801 25.36 118.793 25.36V27.36C121.106 27.36 123.404 26.8452 125.679 25.8338L124.867 24.0062ZM118.793 25.36C117.328 25.36 116.37 24.9516 115.748 24.2777L114.279 25.6343C115.384 26.8324 116.947 27.36 118.793 27.36V25.36ZM115.748 24.2777C115.11 23.5862 114.717 22.5199 114.717 20.924H112.717C112.717 22.8321 113.189 24.4538 114.279 25.6343L115.748 24.2777ZM114.717 20.924C114.717 19.3234 115.123 18.3627 115.726 17.8083L114.373 16.3357C113.2 17.4133 112.717 19.0206 112.717 20.924H114.717ZM115.737 17.7985C116.396 17.1743 117.535 16.7003 119.326 16.5189L119.125 14.5291C117.124 14.7317 115.478 15.2897 114.362 16.3455L115.737 17.7985ZM119.32 16.5195L124.972 15.9795L124.782 13.9885L119.13 14.5285L119.32 16.5195ZM125.877 14.984V13.436H123.877V14.984H125.877ZM125.877 13.436C125.877 12.1082 125.598 10.906 124.792 10.1009L123.378 11.5151C123.629 11.766 123.877 12.3158 123.877 13.436H125.877ZM124.792 10.1009C124.037 9.34536 123.04 9.016 121.925 9.016V11.016C122.635 11.016 123.078 11.2146 123.378 11.5151L124.792 10.1009ZM121.925 9.016C119.964 9.016 117.933 9.13859 115.834 9.38269L116.065 11.3693C118.094 11.1334 120.047 11.016 121.925 11.016V9.016ZM115.853 9.38065L114.737 9.48865L114.93 11.4793L116.046 11.3713L115.853 9.38065ZM115.832 10.4314L115.724 8.37944L113.727 8.48456L113.835 10.5366L115.832 10.4314ZM114.921 9.41258C117.516 8.89366 119.788 8.64 121.745 8.64V6.64C119.622 6.64 117.215 6.91434 114.529 7.45142L114.921 9.41258ZM121.745 8.64C123.663 8.64 124.816 9.08399 125.457 9.74186L126.89 8.34613C125.707 7.13201 123.907 6.64 121.745 6.64V8.64ZM125.466 9.75111C126.138 10.4232 126.577 11.5771 126.577 13.436H128.577C128.577 11.3109 128.08 9.53679 126.88 8.33689L125.466 9.75111ZM115.489 20.78C115.489 21.9966 115.737 23.095 116.402 23.9009C117.098 24.7433 118.104 25.092 119.225 25.092V23.092C118.523 23.092 118.16 22.8887 117.944 22.6271C117.698 22.329 117.489 21.7714 117.489 20.78H115.489ZM119.225 25.092C120.973 25.092 122.692 24.7961 124.378 24.2083L123.72 22.3197C122.239 22.8359 120.742 23.092 119.225 23.092V25.092ZM124.378 24.2085L125.206 23.9205L124.549 22.0315L123.721 22.3195L124.378 24.2085ZM125.877 22.976V17.036H123.877V22.976H125.877ZM124.783 16.0404L119.455 16.5444L119.644 18.5356L124.972 18.0316L124.783 16.0404ZM119.461 16.5439C118.257 16.6509 117.188 17.0134 116.469 17.8033L117.949 19.1487C118.191 18.8826 118.682 18.6211 119.638 18.5361L119.461 16.5439ZM116.469 17.8033C115.764 18.5792 115.489 19.6256 115.489 20.78H117.489C117.489 19.9184 117.695 19.4288 117.949 19.1487L116.469 17.8033ZM132.904 26H131.904V27H132.904V26ZM132.904 8V7H131.904V8H132.904ZM135.568 8H136.568V7H135.568V8ZM135.568 10.448H134.568V12.3524L136.136 11.2712L135.568 10.448ZM142.156 7.604H143.156V6.38668L141.962 6.62303L142.156 7.604ZM142.156 10.34L142.344 11.3223L143.156 11.1675V10.34H142.156ZM138.988 11.24L138.642 10.302L138.635 10.3045L138.988 11.24ZM136.505 12.32L136.966 13.2072L136.973 13.2033L136.981 13.1993L136.505 12.32ZM135.605 12.788L135.143 11.9008L134.605 12.1809V12.788H135.605ZM135.605 26V27H136.605V26H135.605ZM133.904 26V8H131.904V26H133.904ZM132.904 9H135.568V7H132.904V9ZM134.568 8V10.448H136.568V8H134.568ZM136.136 11.2712C138.121 9.90249 140.191 9.01239 142.351 8.58497L141.962 6.62303C139.514 7.10761 137.192 8.11351 135.001 9.62479L136.136 11.2712ZM141.156 7.604V10.34H143.156V7.604H141.156ZM141.969 9.35766C140.9 9.56138 139.79 9.87757 138.642 10.302L139.335 12.178C140.395 11.7864 141.397 11.5026 142.344 11.3223L141.969 9.35766ZM138.635 10.3045C137.54 10.7184 136.663 11.097 136.028 11.4407L136.981 13.1993C137.498 12.919 138.277 12.5776 139.342 12.1755L138.635 10.3045ZM136.043 11.4328L135.143 11.9008L136.066 13.6752L136.966 13.2072L136.043 11.4328ZM134.605 12.788V26H136.605V12.788H134.605ZM135.605 25H132.904V27H135.605V25ZM158.717 0.151999H159.717V-0.848001H158.717V0.151999ZM158.717 26V27H159.717V26H158.717ZM156.053 26H155.053V27H156.053V26ZM156.053 24.776H157.053V23.0528L155.557 23.9078L156.053 24.776ZM146.045 24.704L145.338 25.4111L146.045 24.704ZM145.829 9.98L145.03 9.37803L145.029 9.38L145.829 9.98ZM156.053 8.108L155.857 9.08858L157.053 9.3278V8.108H156.053ZM156.053 0.151999V-0.848001H155.053V0.151999H156.053ZM148.133 22.76L148.898 22.1159L148.892 22.1086L148.885 22.1015L148.133 22.76ZM153.317 23.624L153.566 24.5925L153.575 24.5901L153.584 24.5875L153.317 23.624ZM155.333 22.94L155.743 23.8519L155.333 22.94ZM156.053 22.616L156.463 23.5279L157.053 23.2626V22.616H156.053ZM156.053 10.412H157.053V9.58207L156.237 9.42913L156.053 10.412ZM147.953 11.744L148.801 12.274L148.806 12.2662L147.953 11.744ZM157.717 0.151999V26H159.717V0.151999H157.717ZM158.717 25H156.053V27H158.717V25ZM157.053 26V24.776H155.053V26H157.053ZM155.557 23.9078C153.832 24.8932 152.177 25.36 150.581 25.36V27.36C152.584 27.36 154.578 26.7708 156.549 25.6442L155.557 23.9078ZM150.581 25.36C149.701 25.36 148.972 25.2497 148.377 25.0513L147.745 26.9487C148.589 27.2303 149.54 27.36 150.581 27.36V25.36ZM148.377 25.0513C147.827 24.8678 147.284 24.529 146.752 23.9969L145.338 25.4111C146.054 26.127 146.855 26.6522 147.745 26.9487L148.377 25.0513ZM146.752 23.9969C145.753 22.9983 145.101 20.967 145.101 17.54H143.101C143.101 21.073 143.744 23.8177 145.338 25.4111L146.752 23.9969ZM145.101 17.54C145.101 14.0964 145.676 11.8498 146.629 10.58L145.029 9.38C143.677 11.1822 143.101 13.9756 143.101 17.54H145.101ZM146.627 10.582C147.549 9.35876 149.124 8.64 151.625 8.64V6.64C148.749 6.64 146.46 7.48124 145.03 9.37804L146.627 10.582ZM151.625 8.64C152.942 8.64 154.352 8.7877 155.857 9.08858L156.249 7.12742C154.633 6.8043 153.091 6.64 151.625 6.64V8.64ZM157.053 8.108V0.151999H155.053V8.108H157.053ZM156.053 1.152H158.717V-0.848001H156.053V1.152ZM147.368 23.4041C147.83 23.9526 148.368 24.3843 148.994 24.628L149.719 22.764C149.482 22.6717 149.204 22.4794 148.898 22.1159L147.368 23.4041ZM148.994 24.628C149.581 24.8563 150.268 24.948 151.013 24.948V22.948C150.414 22.948 149.996 22.8717 149.719 22.764L148.994 24.628ZM151.013 24.948C151.81 24.948 152.663 24.8245 153.566 24.5925L153.068 22.6555C152.29 22.8555 151.607 22.948 151.013 22.948V24.948ZM153.584 24.5875C154.468 24.342 155.196 24.0982 155.743 23.8519L154.922 22.0281C154.51 22.2138 153.893 22.426 153.049 22.6605L153.584 24.5875ZM155.743 23.8519L156.463 23.5279L155.642 21.7041L154.922 22.0281L155.743 23.8519ZM157.053 22.616V10.412H155.053V22.616H157.053ZM156.237 9.42913C154.651 9.13175 153.161 8.98 151.769 8.98V10.98C153.017 10.98 154.383 11.1163 155.868 11.3949L156.237 9.42913ZM151.769 8.98C149.724 8.98 148.059 9.65483 147.1 11.2218L148.806 12.2662C149.286 11.4812 150.166 10.98 151.769 10.98V8.98ZM147.105 11.214C146.234 12.6074 145.873 14.6383 145.873 17.144H147.873C147.873 14.7537 148.232 13.1846 148.801 12.274L147.105 11.214ZM145.873 17.144C145.873 18.5798 145.98 19.8228 146.212 20.8549C146.442 21.8782 146.809 22.7653 147.38 23.4185L148.885 22.1015C148.617 21.7947 148.354 21.2658 148.164 20.4171C147.975 19.5772 147.873 18.4922 147.873 17.144H145.873Z" fill="black" mask="url(#path-1-outside-1_140_705)"/>
</svg>
