<svg width="162" height="22" viewBox="0 0 162 22" fill="none" xmlns="http://www.w3.org/2000/svg">
<path d="M5.2 2.04L7.42 2C8.40667 2 8.9 2.26 8.9 2.78C8.9 2.96667 8.87333 3.1 8.82 3.18C8.76667 3.24667 8.72667 3.3 8.7 3.34C8.67333 3.38 8.62 3.41333 8.54 3.44C8.38 3.49333 8.24667 3.52667 8.14 3.54C8.03333 3.55333 7.96 3.56 7.92 3.56C7.77333 3.58667 7.52667 3.60667 7.18 3.62C6.83333 3.63333 6.32667 3.64 5.66 3.64C5.00667 3.64 4.2 3.61333 3.24 3.56V7.24H7.32C7.46667 7.24 7.6 7.30667 7.72 7.44C7.85333 7.57333 7.92 7.72 7.92 7.88C7.92 8.49333 7.66 8.8 7.14 8.8H3.24L3.32 14.04C3.32 14.72 3.08667 15.06 2.62 15.06C2.16667 15.06 1.9 14.7533 1.82 14.14C1.78 13.94 1.75333 12.2467 1.74 9.06C1.74 5.86 1.72667 4.02 1.7 3.54C1.20667 3.59333 0.96 3.31333 0.96 2.7C0.96 2.54 1.02667 2.36667 1.16 2.18C1.29333 1.98 1.40667 1.87333 1.5 1.86C1.60667 1.84667 1.73333 1.84 1.88 1.84C2.04 1.84 2.42 1.86667 3.02 1.92C3.84667 2 4.57333 2.04 5.2 2.04ZM12.8 5.68C13.76 5.68 14.5467 6.14 15.16 7.06C15.7867 7.98 16.1 9.08667 16.1 10.38C16.1 11.66 15.78 12.7533 15.14 13.66C14.5133 14.5667 13.6733 15.02 12.62 15.02C11.58 15.02 10.74 14.56 10.1 13.64C9.46 12.7067 9.14 11.6733 9.14 10.54C9.14 9.08667 9.43333 7.92667 10.02 7.06C10.6467 6.14 11.5733 5.68 12.8 5.68ZM12.56 7.32C12 7.32 11.54 7.61333 11.18 8.2C10.82 8.78667 10.64 9.40667 10.64 10.06C10.64 11.0733 10.84 11.8467 11.24 12.38C11.64 12.9133 12.0933 13.18 12.6 13.18C13.5067 13.18 14.0867 12.7867 14.34 12C14.4467 11.6267 14.5 11.16 14.5 10.6C14.5 8.41333 13.8533 7.32 12.56 7.32ZM19.9064 12.08L19.9264 14.14C19.9264 14.38 19.8131 14.6 19.5864 14.8C19.3731 15 19.1597 15.1 18.9464 15.1C18.6397 15.1 18.4464 14.86 18.3664 14.38C18.3531 14.2733 18.2997 13.3 18.2064 11.46C18.1131 9.60667 17.9331 8.15333 17.6664 7.1C17.5464 6.59333 17.4864 6.29333 17.4864 6.2C17.4864 5.76 17.7531 5.54 18.2864 5.54C18.5131 5.54 18.6931 5.62667 18.8264 5.8C18.9597 5.97333 19.0397 6.15333 19.0664 6.34C19.1064 6.51333 19.1397 6.75333 19.1664 7.06C19.1931 7.36667 19.2131 7.56 19.2264 7.64C19.5064 6.97333 19.9264 6.47333 20.4864 6.14C21.0464 5.80667 21.6597 5.64 22.3264 5.64C23.4197 5.64 23.9664 5.92 23.9664 6.48C23.9664 6.76 23.8664 6.98667 23.6664 7.16C23.4797 7.32 23.2597 7.4 23.0064 7.4C21.8731 7.4 21.0731 7.76 20.6064 8.48C20.1397 9.2 19.9064 10.4 19.9064 12.08ZM30.7617 14.18C30.2817 14.74 29.6751 15.02 28.9417 15.02C28.2084 15.02 27.5751 14.7933 27.0417 14.34C25.9217 13.4733 25.3617 12.1467 25.3617 10.36C25.3617 8.96 25.7484 7.84 26.5217 7C27.2951 6.14667 28.2484 5.72 29.3817 5.72C30.5151 5.72 31.2884 6.10667 31.7017 6.88C32.0617 7.56 32.2417 8.58667 32.2417 9.96L32.2017 11.6C32.2017 12.3733 32.2351 13.4467 32.3017 14.82C32.3817 16.18 32.4217 17.2067 32.4217 17.9C32.4217 19.0467 32.1351 19.8867 31.5617 20.42C31.0017 20.9667 30.1417 21.24 28.9817 21.24C28.2884 21.24 27.5817 21.0933 26.8617 20.8C26.1417 20.5067 25.7817 20.1667 25.7817 19.78C25.7817 19.5 25.8551 19.2867 26.0017 19.14C26.1617 18.9933 26.3417 18.92 26.5417 18.92C26.7417 18.92 27.1884 19.0667 27.8817 19.36C28.5884 19.6533 29.0951 19.8 29.4017 19.8C30.3617 19.8 30.8417 19.0133 30.8417 17.44C30.8417 15.8667 30.8151 14.78 30.7617 14.18ZM30.7417 9.96C30.7417 8.98667 30.5951 8.30667 30.3017 7.92C30.0217 7.52 29.5751 7.32 28.9617 7.32C28.3484 7.32 27.8551 7.6 27.4817 8.16C27.1084 8.72 26.9217 9.43333 26.9217 10.3C26.9217 11.1533 27.0951 11.8333 27.4417 12.34C27.8017 12.8467 28.3484 13.1 29.0817 13.1C29.8151 13.1 30.2884 12.7867 30.5017 12.16C30.6617 11.6533 30.7417 10.92 30.7417 9.96ZM37.468 5.68C38.428 5.68 39.2146 6.14 39.828 7.06C40.4546 7.98 40.768 9.08667 40.768 10.38C40.768 11.66 40.448 12.7533 39.808 13.66C39.1813 14.5667 38.3413 15.02 37.288 15.02C36.248 15.02 35.408 14.56 34.768 13.64C34.128 12.7067 33.808 11.6733 33.808 10.54C33.808 9.08667 34.1013 7.92667 34.688 7.06C35.3146 6.14 36.2413 5.68 37.468 5.68ZM37.228 7.32C36.668 7.32 36.208 7.61333 35.848 8.2C35.488 8.78667 35.308 9.40667 35.308 10.06C35.308 11.0733 35.508 11.8467 35.908 12.38C36.308 12.9133 36.7613 13.18 37.268 13.18C38.1746 13.18 38.7546 12.7867 39.008 12C39.1146 11.6267 39.168 11.16 39.168 10.6C39.168 8.41333 38.5213 7.32 37.228 7.32ZM42.4944 5.66L43.4944 5.68C43.721 5.68 43.8477 5.67333 43.8744 5.66V1.56C43.8877 1.33333 44.001 1.14 44.2144 0.979999C44.4277 0.819999 44.6277 0.739999 44.8144 0.739999C45.001 0.739999 45.1477 0.799999 45.2544 0.919999C45.3744 1.04 45.4277 1.22667 45.4144 1.48C45.401 1.73333 45.3944 3.12 45.3944 5.64L47.7344 5.56C48.1344 5.56 48.3344 5.79333 48.3344 6.26C48.3344 6.60667 48.2277 6.86667 48.0144 7.04C47.8144 7.21333 47.5944 7.30667 47.3544 7.32C47.1277 7.33333 46.901 7.34 46.6744 7.34L45.4544 7.32C45.4544 7.86667 45.5077 8.94667 45.6144 10.56C45.7344 12.1733 45.8277 13.22 45.8944 13.7C45.961 14.1667 45.9744 14.4733 45.9344 14.62C45.8944 14.7533 45.821 14.8467 45.7144 14.9C45.541 14.98 45.3077 15.02 45.0144 15.02C44.721 15.02 44.5477 14.86 44.4944 14.54C44.2277 12.7933 44.0477 10.3933 43.9544 7.34C43.8344 7.35333 43.3744 7.36 42.5744 7.36C41.7744 7.36 41.3744 7.12667 41.3744 6.66C41.3744 5.99333 41.7477 5.66 42.4944 5.66ZM59.8588 5.76C60.0321 5.76 60.1988 5.82 60.3588 5.94C60.5321 6.06 60.6188 6.19333 60.6188 6.34C60.6188 6.72667 60.0521 8.82 58.9188 12.62C57.7854 16.42 56.9454 19.0867 56.3988 20.62C56.2788 20.98 56.0921 21.16 55.8388 21.16C55.5854 21.16 55.3854 21.0667 55.2388 20.88C55.0921 20.7067 55.0188 20.4467 55.0188 20.1C55.0188 19.7533 55.2388 18.92 55.6788 17.6C56.1321 16.2933 56.4054 15.46 56.4988 15.1C56.1654 14.54 55.0388 11.74 53.1188 6.7C53.0921 6.63333 53.0788 6.54667 53.0788 6.44C53.0788 6.33333 53.1588 6.19333 53.3188 6.02C53.4788 5.84667 53.6988 5.76 53.9788 5.76C54.2588 5.76 54.4854 5.9 54.6588 6.18C54.8454 6.66 55.1521 7.5 55.5788 8.7C56.0054 9.88667 56.3321 10.7467 56.5588 11.28C56.7988 11.8133 57.0254 12.3667 57.2388 12.94C57.4254 12.3133 57.7454 11.1 58.1988 9.3C58.6521 7.48667 58.9121 6.45333 58.9788 6.2C59.0321 5.90667 59.3254 5.76 59.8588 5.76ZM65.4758 5.68C66.4358 5.68 67.2224 6.14 67.8358 7.06C68.4624 7.98 68.7758 9.08667 68.7758 10.38C68.7758 11.66 68.4558 12.7533 67.8158 13.66C67.1891 14.5667 66.3491 15.02 65.2958 15.02C64.2558 15.02 63.4158 14.56 62.7758 13.64C62.1358 12.7067 61.8158 11.6733 61.8158 10.54C61.8158 9.08667 62.1091 7.92667 62.6958 7.06C63.3224 6.14 64.2491 5.68 65.4758 5.68ZM65.2358 7.32C64.6758 7.32 64.2158 7.61333 63.8558 8.2C63.4958 8.78667 63.3158 9.40667 63.3158 10.06C63.3158 11.0733 63.5158 11.8467 63.9158 12.38C64.3158 12.9133 64.7691 13.18 65.2758 13.18C66.1824 13.18 66.7624 12.7867 67.0158 12C67.1224 11.6267 67.1758 11.16 67.1758 10.6C67.1758 8.41333 66.5291 7.32 65.2358 7.32ZM69.9622 6.44C70.0155 6.21333 70.1289 6.02667 70.3022 5.88C70.4755 5.72 70.6489 5.64 70.8222 5.64C71.0089 5.64 71.1489 5.67333 71.2422 5.74C71.3489 5.80667 71.4089 5.86667 71.4222 5.92C71.4489 5.97333 71.4755 6.06667 71.5022 6.2C71.4222 7.24 71.3822 8.18 71.3822 9.02C71.3822 9.84667 71.4822 10.8 71.6822 11.88C71.8822 12.9467 72.1022 13.48 72.3422 13.48C72.7022 13.48 73.1555 13.28 73.7022 12.88C74.2622 12.48 74.6622 12.06 74.9022 11.62C74.7422 9.7 74.6622 8.05333 74.6622 6.68C74.6622 6.4 74.7489 6.16 74.9222 5.96C75.1089 5.76 75.3289 5.66 75.5822 5.66C75.9955 5.66 76.2022 5.94 76.2022 6.5C76.2022 7.44667 76.2689 8.85333 76.4022 10.72C76.5489 12.5867 76.6955 13.7733 76.8422 14.28C76.8689 14.3867 76.8822 14.5133 76.8822 14.66C76.8822 14.7933 76.7889 14.92 76.6022 15.04C76.4289 15.1733 76.1955 15.24 75.9022 15.24C75.6222 15.24 75.4355 15.08 75.3422 14.76C75.3155 14.4933 75.2489 14.0933 75.1422 13.56C74.2089 14.5333 73.2689 15.02 72.3222 15.02C71.8822 15.02 71.4889 14.8533 71.1422 14.52C70.7955 14.1867 70.5222 13.7333 70.3222 13.16C69.9755 12.0533 69.8022 11.0133 69.8022 10.04C69.8022 9.06667 69.8555 7.86667 69.9622 6.44ZM80.59 12.08L80.61 14.14C80.61 14.38 80.4967 14.6 80.27 14.8C80.0567 15 79.8433 15.1 79.63 15.1C79.3233 15.1 79.13 14.86 79.05 14.38C79.0367 14.2733 78.9833 13.3 78.89 11.46C78.7967 9.60667 78.6167 8.15333 78.35 7.1C78.23 6.59333 78.17 6.29333 78.17 6.2C78.17 5.76 78.4367 5.54 78.97 5.54C79.1967 5.54 79.3767 5.62667 79.51 5.8C79.6433 5.97333 79.7233 6.15333 79.75 6.34C79.79 6.51333 79.8233 6.75333 79.85 7.06C79.8767 7.36667 79.8967 7.56 79.91 7.64C80.19 6.97333 80.61 6.47333 81.17 6.14C81.73 5.80667 82.3433 5.64 83.01 5.64C84.1033 5.64 84.65 5.92 84.65 6.48C84.65 6.76 84.55 6.98667 84.35 7.16C84.1633 7.32 83.9433 7.4 83.69 7.4C82.5567 7.4 81.7567 7.76 81.29 8.48C80.8233 9.2 80.59 10.4 80.59 12.08ZM93.4747 14.98C93.0214 14.98 92.6014 14.8267 92.2147 14.52C92.2147 14.52 92.128 14.4467 91.9547 14.3V20.3C91.8747 20.5667 91.7347 20.7867 91.5347 20.96C91.3347 21.1467 91.1214 21.24 90.8947 21.24C90.548 21.24 90.3747 21.0067 90.3747 20.54V6.6C90.4547 6.25333 90.548 6.00667 90.6547 5.86C90.7747 5.71333 90.9547 5.64 91.1947 5.64C91.448 5.64 91.608 5.7 91.6747 5.82C91.7547 5.92667 91.848 6.23333 91.9547 6.74C92.008 6.47333 92.2214 6.22667 92.5947 6C92.968 5.77333 93.468 5.66 94.0947 5.66C95.4547 5.66 96.4214 6.15333 96.9947 7.14C97.568 8.12667 97.8547 9.29333 97.8547 10.64C97.8547 11.9733 97.4614 13.0333 96.6747 13.82C95.9014 14.5933 94.8347 14.98 93.4747 14.98ZM91.9547 8.98V12.7C92.0347 12.74 92.128 12.8067 92.2347 12.9C92.6214 13.2467 93.0414 13.42 93.4947 13.42C95.3347 13.42 96.2547 12.4733 96.2547 10.58C96.2547 8.96667 95.8414 7.94667 95.0147 7.52C94.668 7.33333 94.2414 7.24 93.7347 7.24C93.2414 7.30667 92.8214 7.52667 92.4747 7.9C92.128 8.26 91.9547 8.62 91.9547 8.98ZM104.449 5.66C105.036 5.66 105.329 6.16 105.329 7.16C105.329 7.26667 105.329 7.38 105.329 7.5L105.289 8.9C105.276 9.34 105.269 9.77333 105.269 10.2L105.569 14.72C105.569 15.0533 105.229 15.22 104.549 15.22C104.509 15.22 104.409 15.22 104.249 15.22C104.103 15.22 103.996 15.16 103.929 15.04C103.876 14.92 103.869 14.7733 103.909 14.6C103.963 14.4267 103.949 14.2333 103.869 14.02C103.256 14.6733 102.443 15 101.429 15C99.5494 15 98.6094 13.5467 98.6094 10.64C98.6094 9.02667 98.9094 7.80667 99.5094 6.98C100.123 6.15333 100.996 5.74 102.129 5.74C102.663 5.74 103.196 5.83333 103.729 6.02C103.903 5.78 104.143 5.66 104.449 5.66ZM102.369 7.48C101.609 7.48 101.043 7.7 100.669 8.14C100.296 8.58 100.109 9.38667 100.109 10.56C100.109 12.5333 100.643 13.52 101.709 13.52C101.989 13.52 102.296 13.3933 102.629 13.14C102.976 12.8867 103.216 12.6 103.349 12.28C103.603 11.56 103.729 10.7733 103.729 9.92C103.729 9.06667 103.623 8.44667 103.409 8.06C103.209 7.67333 102.863 7.48 102.369 7.48ZM107.041 8.2C107.041 7.41333 107.321 6.78667 107.881 6.32C108.441 5.85333 109.088 5.62 109.821 5.62C110.568 5.62 111.281 5.75333 111.961 6.02C112.641 6.28667 112.981 6.64 112.981 7.08C112.981 7.30667 112.895 7.48667 112.721 7.62C112.548 7.75333 112.395 7.82 112.261 7.82C112.141 7.82 112.041 7.82 111.961 7.82C111.895 7.80667 111.628 7.68 111.161 7.44C110.708 7.2 110.288 7.08 109.901 7.08C109.515 7.08 109.181 7.18 108.901 7.38C108.635 7.56667 108.501 7.84667 108.501 8.22C108.501 8.59333 108.655 8.88667 108.961 9.1C109.281 9.31333 109.835 9.5 110.621 9.66C111.408 9.80667 112.008 10.02 112.421 10.3C112.848 10.58 113.061 11.1 113.061 11.86C113.061 12.9667 112.768 13.7533 112.181 14.22C111.608 14.6733 110.908 14.9 110.081 14.9C109.255 14.9 108.548 14.7867 107.961 14.56C107.388 14.3333 107.101 13.9933 107.101 13.54C107.101 13.02 107.361 12.76 107.881 12.76C108.015 12.76 108.308 12.8533 108.761 13.04C109.215 13.2267 109.661 13.32 110.101 13.32C110.555 13.32 110.895 13.18 111.121 12.9C111.361 12.6067 111.481 12.2733 111.481 11.9C111.481 11.5267 111.328 11.26 111.021 11.1C110.715 10.9267 110.248 10.7867 109.621 10.68C108.995 10.5733 108.535 10.46 108.241 10.34C107.441 10.02 107.041 9.30667 107.041 8.2ZM114.737 8.2C114.737 7.41333 115.017 6.78667 115.577 6.32C116.137 5.85333 116.783 5.62 117.517 5.62C118.263 5.62 118.977 5.75333 119.657 6.02C120.337 6.28667 120.677 6.64 120.677 7.08C120.677 7.30667 120.59 7.48667 120.417 7.62C120.243 7.75333 120.09 7.82 119.957 7.82C119.837 7.82 119.737 7.82 119.657 7.82C119.59 7.80667 119.323 7.68 118.857 7.44C118.403 7.2 117.983 7.08 117.597 7.08C117.21 7.08 116.877 7.18 116.597 7.38C116.33 7.56667 116.197 7.84667 116.197 8.22C116.197 8.59333 116.35 8.88667 116.657 9.1C116.977 9.31333 117.53 9.5 118.317 9.66C119.103 9.80667 119.703 10.02 120.117 10.3C120.543 10.58 120.757 11.1 120.757 11.86C120.757 12.9667 120.463 13.7533 119.877 14.22C119.303 14.6733 118.603 14.9 117.777 14.9C116.95 14.9 116.243 14.7867 115.657 14.56C115.083 14.3333 114.797 13.9933 114.797 13.54C114.797 13.02 115.057 12.76 115.577 12.76C115.71 12.76 116.003 12.8533 116.457 13.04C116.91 13.2267 117.357 13.32 117.797 13.32C118.25 13.32 118.59 13.18 118.817 12.9C119.057 12.6067 119.177 12.2733 119.177 11.9C119.177 11.5267 119.023 11.26 118.717 11.1C118.41 10.9267 117.943 10.7867 117.317 10.68C116.69 10.5733 116.23 10.46 115.937 10.34C115.137 10.02 114.737 9.30667 114.737 8.2ZM123.752 14.98C123.299 14.98 122.859 14.1 122.432 12.34C122.019 10.5667 121.812 8.58 121.812 6.38C121.812 6.15333 121.905 5.98 122.092 5.86C122.292 5.72667 122.472 5.66 122.632 5.66C122.792 5.66 122.919 5.71333 123.012 5.82C123.119 5.91333 123.172 6.04 123.172 6.2C123.172 8.28 123.525 10.28 124.232 12.2C124.339 12.04 124.505 11.72 124.732 11.24C124.959 10.7467 125.172 10.3867 125.372 10.16C125.572 9.93333 125.812 9.82 126.092 9.82C126.372 9.82 126.665 10.0267 126.972 10.44C127.279 10.8533 127.539 11.3 127.752 11.78C127.979 12.2467 128.105 12.4933 128.132 12.52C128.492 11.4 128.672 10.36 128.672 9.4L128.552 6.36C128.539 6.16 128.632 5.99333 128.832 5.86C129.032 5.71333 129.225 5.64 129.412 5.64C129.799 5.64 129.992 6.39333 129.992 7.9V9C129.992 10.7867 129.719 12.38 129.172 13.78C128.879 14.58 128.512 14.98 128.072 14.98C127.819 14.98 127.585 14.82 127.372 14.5C127.159 14.1667 126.919 13.7 126.652 13.1C126.385 12.5 126.179 12.0867 126.032 11.86L125.432 13.04C125.205 13.5067 125.032 13.8467 124.912 14.06C124.792 14.26 124.625 14.4667 124.412 14.68C124.199 14.88 123.979 14.98 123.752 14.98ZM134.89 5.68C135.85 5.68 136.637 6.14 137.25 7.06C137.877 7.98 138.19 9.08667 138.19 10.38C138.19 11.66 137.87 12.7533 137.23 13.66C136.603 14.5667 135.763 15.02 134.71 15.02C133.67 15.02 132.83 14.56 132.19 13.64C131.55 12.7067 131.23 11.6733 131.23 10.54C131.23 9.08667 131.523 7.92667 132.11 7.06C132.737 6.14 133.663 5.68 134.89 5.68ZM134.65 7.32C134.09 7.32 133.63 7.61333 133.27 8.2C132.91 8.78667 132.73 9.40667 132.73 10.06C132.73 11.0733 132.93 11.8467 133.33 12.38C133.73 12.9133 134.183 13.18 134.69 13.18C135.597 13.18 136.177 12.7867 136.43 12C136.537 11.6267 136.59 11.16 136.59 10.6C136.59 8.41333 135.943 7.32 134.65 7.32ZM141.996 12.08L142.016 14.14C142.016 14.38 141.903 14.6 141.676 14.8C141.463 15 141.25 15.1 141.036 15.1C140.73 15.1 140.536 14.86 140.456 14.38C140.443 14.2733 140.39 13.3 140.296 11.46C140.203 9.60667 140.023 8.15333 139.756 7.1C139.636 6.59333 139.576 6.29333 139.576 6.2C139.576 5.76 139.843 5.54 140.376 5.54C140.603 5.54 140.783 5.62667 140.916 5.8C141.05 5.97333 141.13 6.15333 141.156 6.34C141.196 6.51333 141.23 6.75333 141.256 7.06C141.283 7.36667 141.303 7.56 141.316 7.64C141.596 6.97333 142.016 6.47333 142.576 6.14C143.136 5.80667 143.75 5.64 144.416 5.64C145.51 5.64 146.056 5.92 146.056 6.48C146.056 6.76 145.956 6.98667 145.756 7.16C145.57 7.32 145.35 7.4 145.096 7.4C143.963 7.4 143.163 7.76 142.696 8.48C142.23 9.2 141.996 10.4 141.996 12.08ZM151.892 5.64L151.872 1.78C151.872 1.06 152.098 0.699999 152.552 0.699999C153.018 0.699999 153.278 0.899999 153.332 1.3C153.358 1.47333 153.392 2.52 153.432 4.44C153.472 6.36 153.532 8.16 153.612 9.84C153.705 11.52 153.752 13.0867 153.752 14.54C153.752 14.94 153.452 15.14 152.852 15.14C152.452 15.14 152.252 14.86 152.252 14.3C151.678 14.7533 150.998 14.98 150.212 14.98C149.212 14.98 148.398 14.6067 147.772 13.86C147.158 13.1133 146.852 12.1933 146.852 11.1C146.852 10.0067 147.072 8.98667 147.512 8.04C147.965 7.08 148.665 6.39333 149.612 5.98C150.198 5.72667 150.765 5.6 151.312 5.6C151.512 5.6 151.705 5.61333 151.892 5.64ZM151.992 8.38C151.898 8.08667 151.785 7.86667 151.652 7.72C151.518 7.56 151.372 7.46667 151.212 7.44C151.065 7.4 150.885 7.38 150.672 7.38C150.458 7.38 150.198 7.46 149.892 7.62C149.585 7.78 149.325 8.04 149.112 8.4C148.685 9.12 148.472 9.88 148.472 10.68C148.472 11.4667 148.625 12.1133 148.932 12.62C149.252 13.1133 149.698 13.36 150.272 13.36C150.858 13.36 151.318 13.0733 151.652 12.5C151.985 11.9267 152.152 11.1933 152.152 10.3C152.152 9.3 152.098 8.66 151.992 8.38ZM159.705 3.6C159.705 3.28 159.531 2.99333 159.185 2.74C158.851 2.48667 158.511 2.36 158.165 2.36C157.818 2.36 157.498 2.44 157.205 2.6C156.911 2.74667 156.698 2.92667 156.565 3.14C156.191 3.67333 155.905 3.94 155.705 3.94C155.131 3.94 154.845 3.66 154.845 3.1C154.845 2.59333 155.198 2.08 155.905 1.56C156.611 1.02667 157.351 0.76 158.125 0.76C159.218 0.76 160.085 1.20667 160.725 2.1C161.071 2.59333 161.245 3.09333 161.245 3.6C161.245 4.48 160.885 5.32667 160.165 6.14C159.858 6.48667 159.551 6.81333 159.245 7.12C158.511 7.85333 158.145 8.34 158.145 8.58C158.145 8.82 158.238 9.08667 158.425 9.38C158.598 9.67333 158.685 9.87333 158.685 9.98C158.685 10.0867 158.651 10.2067 158.585 10.34C158.425 10.58 158.191 10.7 157.885 10.7C157.591 10.7 157.291 10.5 156.985 10.1C156.678 9.68667 156.525 9.23333 156.525 8.74C156.525 7.87333 156.851 7.08667 157.505 6.38C157.811 6.04667 158.098 5.76667 158.365 5.54C159.258 4.7 159.705 4.05333 159.705 3.6ZM157.005 13.32C157.005 13.08 157.091 12.86 157.265 12.66C157.451 12.46 157.705 12.36 158.025 12.36C158.345 12.36 158.571 12.42 158.705 12.54C158.851 12.66 158.925 12.92 158.925 13.32C158.925 14.0267 158.605 14.38 157.965 14.38C157.725 14.38 157.505 14.26 157.305 14.02C157.105 13.78 157.005 13.5467 157.005 13.32Z" fill="black"/>
<path d="M1 17H161.505V18H1V17Z" fill="black"/>
</svg>
