<svg width="129" height="16" viewBox="0 0 129 16" fill="none" xmlns="http://www.w3.org/2000/svg">
<path d="M0.84 15V0.999999H2.36L7.28 13.9L12.2 0.999999H13.72V15H13V1.68H12.72L7.8 14.58H6.76L1.84 1.68H1.56V15H0.84ZM17.5848 5.94C18.1982 5.19333 19.2448 4.82 20.7248 4.82C22.2048 4.82 23.2515 5.19333 23.8648 5.94C24.4782 6.68667 24.7848 8.03333 24.7848 9.98C24.7848 11.9267 24.5115 13.28 23.9648 14.04C23.4182 14.8 22.3382 15.18 20.7248 15.18C19.1115 15.18 18.0315 14.8 17.4848 14.04C16.9382 13.28 16.6648 11.9267 16.6648 9.98C16.6648 8.03333 16.9715 6.68667 17.5848 5.94ZM18.9448 14.32C19.3848 14.4667 19.9782 14.54 20.7248 14.54C21.4715 14.54 22.0582 14.4667 22.4848 14.32C22.9248 14.16 23.2582 13.8733 23.4848 13.46C23.7248 13.0333 23.8782 12.56 23.9448 12.04C24.0115 11.5067 24.0448 10.7667 24.0448 9.82C24.0448 8.14 23.8115 6.99333 23.3448 6.38C22.8782 5.76667 22.0048 5.46 20.7248 5.46C19.4448 5.46 18.5715 5.76667 18.1048 6.38C17.6382 6.99333 17.4048 8.14 17.4048 9.82C17.4048 10.7667 17.4382 11.5067 17.5048 12.04C17.5715 12.56 17.7182 13.0333 17.9448 13.46C18.1848 13.8733 18.5182 14.16 18.9448 14.32ZM34.7122 0.4V15H34.0122V14.16C33.6255 14.4133 33.0855 14.6467 32.3922 14.86C31.6989 15.0733 31.1322 15.18 30.6922 15.18C30.2655 15.18 29.9322 15.16 29.6922 15.12C29.4655 15.0933 29.1789 14.9933 28.8322 14.82C28.4855 14.6333 28.1989 14.3733 27.9722 14.04C27.7589 13.7067 27.5655 13.2067 27.3922 12.54C27.2322 11.8733 27.1522 11.08 27.1522 10.16C27.1522 8.34667 27.4589 7.00667 28.0722 6.14C28.6989 5.26 29.7989 4.82 31.3722 4.82C32.1322 4.82 33.0122 4.9 34.0122 5.06V0.4H34.7122ZM28.8122 13.88C29.1055 14.1467 29.3789 14.3267 29.6322 14.42C29.8989 14.5 30.2455 14.54 30.6722 14.54C31.0989 14.54 31.5989 14.4533 32.1722 14.28C32.7589 14.1067 33.2122 13.9333 33.5322 13.76L34.0122 13.5V5.7C32.9722 5.54 32.0922 5.46 31.3722 5.46C30.0255 5.46 29.1055 5.84 28.6122 6.6C28.1322 7.36 27.8922 8.54667 27.8922 10.16C27.8922 12.08 28.1989 13.32 28.8122 13.88ZM44.3252 5H45.0252V15H44.3252V14.2C44.2052 14.2667 44.0452 14.36 43.8452 14.48C43.6452 14.5867 43.2518 14.7333 42.6652 14.92C42.0918 15.0933 41.5518 15.18 41.0452 15.18C39.7118 15.18 38.8318 14.8467 38.4052 14.18C37.9785 13.5 37.7652 12.1733 37.7652 10.2V5H38.4652V10.16C38.4652 11.92 38.6252 13.0933 38.9452 13.68C39.2652 14.2533 39.9652 14.54 41.0452 14.54C41.5785 14.54 42.1185 14.46 42.6652 14.3C43.2118 14.1267 43.6252 13.96 43.9052 13.8L44.3252 13.54V5ZM48.2977 15V0.4H48.9977V15H48.2977ZM58.6792 14.4L59.2792 14.36L59.3192 15C57.8259 15.12 56.5926 15.18 55.6192 15.18C54.2059 15.1667 53.2259 14.74 52.6792 13.9C52.1326 13.0467 51.8592 11.7467 51.8592 10C51.8592 6.54667 53.2059 4.82 55.8992 4.82C57.1659 4.82 58.1126 5.2 58.7392 5.96C59.3792 6.72 59.6992 7.94 59.6992 9.62V10.28H52.5992C52.5992 11.72 52.8259 12.7933 53.2792 13.5C53.7326 14.1933 54.4859 14.54 55.5392 14.54C56.5926 14.54 57.6392 14.4933 58.6792 14.4ZM52.5992 9.64H58.9592C58.9592 8.13333 58.7126 7.06 58.2192 6.42C57.7392 5.78 56.9659 5.46 55.8992 5.46C53.6992 5.46 52.5992 6.85333 52.5992 9.64ZM62.2383 8.12V6.52H63.0383V8.12H62.2383ZM62.2383 15V13.4H63.0383V15H62.2383ZM70.8009 15V0.999999H78.8209V1.68H71.5209V8H77.8009V8.68H71.5209V15H70.8009ZM80.5214 15V5H81.2214V6.56C81.6214 6.24 82.2147 5.9 83.0014 5.54C83.8014 5.16667 84.5281 4.92 85.1814 4.8V5.52C84.5947 5.64 83.9681 5.84 83.3014 6.12C82.6481 6.4 82.1414 6.65333 81.7814 6.88L81.2214 7.22V15H80.5214ZM87.0839 15V5H87.7839V15H87.0839ZM87.0839 2.1V0.999999H87.7839V2.1H87.0839ZM97.3511 14.4L97.9511 14.36L97.9911 15C96.4978 15.12 95.2644 15.18 94.2911 15.18C92.8778 15.1667 91.8978 14.74 91.3511 13.9C90.8044 13.0467 90.5311 11.7467 90.5311 10C90.5311 6.54667 91.8778 4.82 94.5711 4.82C95.8378 4.82 96.7844 5.2 97.4111 5.96C98.0511 6.72 98.3711 7.94 98.3711 9.62V10.28H91.2711C91.2711 11.72 91.4978 12.7933 91.9511 13.5C92.4044 14.1933 93.1578 14.54 94.2111 14.54C95.2644 14.54 96.3111 14.4933 97.3511 14.4ZM91.2711 9.64H97.6311C97.6311 8.13333 97.3844 7.06 96.8911 6.42C96.4111 5.78 95.6378 5.46 94.5711 5.46C92.3711 5.46 91.2711 6.85333 91.2711 9.64ZM101.69 15H100.99V5H101.69V5.8C102.877 5.14667 104.09 4.82 105.33 4.82C106.57 4.82 107.403 5.16 107.83 5.84C108.257 6.50667 108.47 7.82667 108.47 9.8V15H107.77V9.84C107.77 8.08 107.61 6.91333 107.29 6.34C106.97 5.75333 106.27 5.46 105.19 5.46C104.657 5.46 104.097 5.54667 103.51 5.72C102.937 5.88 102.49 6.04 102.17 6.2L101.69 6.46V15ZM118.677 0.4V15H117.977V14.16C117.59 14.4133 117.05 14.6467 116.357 14.86C115.664 15.0733 115.097 15.18 114.657 15.18C114.23 15.18 113.897 15.16 113.657 15.12C113.43 15.0933 113.144 14.9933 112.797 14.82C112.45 14.6333 112.164 14.3733 111.937 14.04C111.724 13.7067 111.53 13.2067 111.357 12.54C111.197 11.8733 111.117 11.08 111.117 10.16C111.117 8.34667 111.424 7.00667 112.037 6.14C112.664 5.26 113.764 4.82 115.337 4.82C116.097 4.82 116.977 4.9 117.977 5.06V0.4H118.677ZM112.777 13.88C113.07 14.1467 113.344 14.3267 113.597 14.42C113.864 14.5 114.21 14.54 114.637 14.54C115.064 14.54 115.564 14.4533 116.137 14.28C116.724 14.1067 117.177 13.9333 117.497 13.76L117.977 13.5V5.7C116.937 5.54 116.057 5.46 115.337 5.46C113.99 5.46 113.07 5.84 112.577 6.6C112.097 7.36 111.857 8.54667 111.857 10.16C111.857 12.08 112.164 13.32 112.777 13.88ZM124.69 5.46C122.903 5.46 122.01 6.12667 122.01 7.46C122.01 8.08667 122.197 8.53333 122.57 8.8C122.943 9.05333 123.77 9.28 125.05 9.48C126.33 9.68 127.223 9.94667 127.73 10.28C128.237 10.6133 128.49 11.2867 128.49 12.3C128.49 13.3 128.17 14.0333 127.53 14.5C126.89 14.9533 125.943 15.18 124.69 15.18C124.01 15.18 123.103 15.1 121.97 14.94L121.39 14.86L121.47 14.2C122.91 14.4267 124.057 14.54 124.91 14.54C125.763 14.54 126.45 14.3733 126.97 14.04C127.49 13.7067 127.75 13.14 127.75 12.34C127.75 11.54 127.543 11.0133 127.13 10.76C126.73 10.5067 125.897 10.2867 124.63 10.1C123.377 9.9 122.503 9.64 122.01 9.32C121.517 8.98667 121.27 8.43333 121.27 7.66C121.27 6.88667 121.45 6.29333 121.81 5.88C122.17 5.45333 122.59 5.17333 123.07 5.04C123.55 4.89333 124.05 4.82 124.57 4.82C125.65 4.82 126.663 4.89333 127.61 5.04L128.13 5.12L128.09 5.78C126.73 5.56667 125.597 5.46 124.69 5.46Z" fill="black"/>
</svg>
