<svg width="147" height="27" viewBox="0 0 147 27" fill="none" xmlns="http://www.w3.org/2000/svg">
<mask id="path-1-outside-1_265_132" maskUnits="userSpaceOnUse" x="-1" y="-1" width="149" height="29" fill="black">
<rect fill="white" x="-1" y="-1" width="149" height="29"/>
<path d="M14.3 13.436V22.652C14.372 23.54 15.068 24.068 16.388 24.236L16.28 26.36C14.384 26.36 12.956 25.88 11.996 24.92C9.836 25.88 7.676 26.36 5.516 26.36C3.86 26.36 2.6 25.892 1.736 24.956C0.872 24.02 0.44 22.676 0.44 20.924C0.44 19.172 0.884 17.888 1.772 17.072C2.66 16.232 4.052 15.716 5.948 15.524L11.6 14.984V13.436C11.6 12.212 11.336 11.336 10.808 10.808C10.28 10.28 9.56 10.016 8.648 10.016C6.728 10.016 4.736 10.136 2.672 10.376L1.556 10.484L1.448 8.432C4.088 7.904 6.428 7.64 8.468 7.64C10.508 7.64 11.984 8.108 12.896 9.044C13.832 9.98 14.3 11.444 14.3 13.436ZM3.212 20.78C3.212 22.988 4.124 24.092 5.948 24.092C7.58 24.092 9.188 23.816 10.772 23.264L11.6 22.976V17.036L6.272 17.54C5.192 17.636 4.412 17.948 3.932 18.476C3.452 19.004 3.212 19.772 3.212 20.78ZM33.4512 0.151998V26H30.7872V24.776C28.9392 25.832 27.1152 26.36 25.3152 26.36C24.3552 26.36 23.5152 26.24 22.7952 26C22.0752 25.76 21.4032 25.328 20.7792 24.704C19.4832 23.408 18.8352 21.02 18.8352 17.54C18.8352 14.036 19.4112 11.516 20.5632 9.98C21.7392 8.42 23.6712 7.64 26.3592 7.64C27.7512 7.64 29.2272 7.796 30.7872 8.108V0.151998H33.4512ZM22.8672 22.76C23.2512 23.216 23.6592 23.528 24.0912 23.696C24.5232 23.864 25.0752 23.948 25.7472 23.948C26.4432 23.948 27.2112 23.84 28.0512 23.624C28.9152 23.384 29.5872 23.156 30.0672 22.94L30.7872 22.616V10.412C29.2512 10.124 27.8232 9.98 26.5032 9.98C24.6792 9.98 23.4072 10.568 22.6872 11.744C21.9672 12.896 21.6072 14.696 21.6072 17.144C21.6072 19.928 22.0272 21.8 22.8672 22.76ZM52.5058 0.151998V26H49.8418V24.776C47.9938 25.832 46.1698 26.36 44.3698 26.36C43.4098 26.36 42.5698 26.24 41.8498 26C41.1298 25.76 40.4578 25.328 39.8338 24.704C38.5378 23.408 37.8898 21.02 37.8898 17.54C37.8898 14.036 38.4658 11.516 39.6178 9.98C40.7938 8.42 42.7258 7.64 45.4138 7.64C46.8058 7.64 48.2818 7.796 49.8418 8.108V0.151998H52.5058ZM41.9218 22.76C42.3058 23.216 42.7138 23.528 43.1458 23.696C43.5778 23.864 44.1298 23.948 44.8018 23.948C45.4978 23.948 46.2658 23.84 47.1058 23.624C47.9698 23.384 48.6418 23.156 49.1218 22.94L49.8418 22.616V10.412C48.3058 10.124 46.8778 9.98 45.5578 9.98C43.7338 9.98 42.4618 10.568 41.7418 11.744C41.0218 12.896 40.6618 14.696 40.6618 17.144C40.6618 19.928 41.0818 21.8 41.9218 22.76ZM63.9187 26L70.7587 1.088H76.8067L83.6467 26H80.9107L79.1107 19.592H68.4547L66.6547 26H63.9187ZM72.8467 3.464L69.0667 17.108H78.4987L74.7187 3.464H72.8467ZM87.092 26V8H89.756V10.448C91.844 9.008 94.04 8.06 96.344 7.604V10.34C95.336 10.532 94.28 10.832 93.176 11.24C92.096 11.648 91.268 12.008 90.692 12.32L89.792 12.788V26H87.092ZM108.861 10.34H103.137V18.944C103.137 21.008 103.281 22.364 103.569 23.012C103.881 23.66 104.601 23.984 105.729 23.984L108.933 23.768L109.113 26C107.505 26.264 106.281 26.396 105.441 26.396C103.569 26.396 102.273 25.94 101.553 25.028C100.833 24.116 100.473 22.376 100.473 19.808V10.34H97.9173V8H100.473V2.492H103.137V8H108.861V10.34ZM112.158 26V8H114.858V26H112.158ZM112.158 3.932V0.799998H114.858V3.932H112.158ZM125.685 10.052C123.069 10.052 121.761 10.964 121.761 12.788C121.761 13.628 122.061 14.228 122.661 14.588C123.261 14.924 124.629 15.284 126.765 15.668C128.901 16.028 130.413 16.544 131.301 17.216C132.189 17.888 132.633 19.148 132.633 20.996C132.633 22.844 132.033 24.2 130.833 25.064C129.657 25.928 127.929 26.36 125.649 26.36C124.161 26.36 122.409 26.192 120.393 25.856L119.313 25.676L119.457 23.336C122.193 23.744 124.257 23.948 125.649 23.948C127.041 23.948 128.097 23.732 128.817 23.3C129.561 22.844 129.933 22.1 129.933 21.068C129.933 20.012 129.621 19.304 128.997 18.944C128.373 18.56 127.005 18.2 124.893 17.864C122.781 17.528 121.281 17.036 120.393 16.388C119.505 15.74 119.061 14.54 119.061 12.788C119.061 11.036 119.673 9.74 120.897 8.9C122.145 8.06 123.693 7.64 125.541 7.64C127.005 7.64 128.841 7.808 131.049 8.144L132.057 8.324L131.985 10.628C129.321 10.244 127.221 10.052 125.685 10.052ZM146.092 10.34H140.368V18.944C140.368 21.008 140.512 22.364 140.8 23.012C141.112 23.66 141.832 23.984 142.96 23.984L146.164 23.768L146.344 26C144.736 26.264 143.512 26.396 142.672 26.396C140.8 26.396 139.504 25.94 138.784 25.028C138.064 24.116 137.704 22.376 137.704 19.808V10.34H135.148V8H137.704V2.492H140.368V8H146.092V10.34Z"/>
</mask>
<path d="M14.3 13.436V22.652C14.372 23.54 15.068 24.068 16.388 24.236L16.28 26.36C14.384 26.36 12.956 25.88 11.996 24.92C9.836 25.88 7.676 26.36 5.516 26.36C3.86 26.36 2.6 25.892 1.736 24.956C0.872 24.02 0.44 22.676 0.44 20.924C0.44 19.172 0.884 17.888 1.772 17.072C2.66 16.232 4.052 15.716 5.948 15.524L11.6 14.984V13.436C11.6 12.212 11.336 11.336 10.808 10.808C10.28 10.28 9.56 10.016 8.648 10.016C6.728 10.016 4.736 10.136 2.672 10.376L1.556 10.484L1.448 8.432C4.088 7.904 6.428 7.64 8.468 7.64C10.508 7.64 11.984 8.108 12.896 9.044C13.832 9.98 14.3 11.444 14.3 13.436ZM3.212 20.78C3.212 22.988 4.124 24.092 5.948 24.092C7.58 24.092 9.188 23.816 10.772 23.264L11.6 22.976V17.036L6.272 17.54C5.192 17.636 4.412 17.948 3.932 18.476C3.452 19.004 3.212 19.772 3.212 20.78ZM33.4512 0.151998V26H30.7872V24.776C28.9392 25.832 27.1152 26.36 25.3152 26.36C24.3552 26.36 23.5152 26.24 22.7952 26C22.0752 25.76 21.4032 25.328 20.7792 24.704C19.4832 23.408 18.8352 21.02 18.8352 17.54C18.8352 14.036 19.4112 11.516 20.5632 9.98C21.7392 8.42 23.6712 7.64 26.3592 7.64C27.7512 7.64 29.2272 7.796 30.7872 8.108V0.151998H33.4512ZM22.8672 22.76C23.2512 23.216 23.6592 23.528 24.0912 23.696C24.5232 23.864 25.0752 23.948 25.7472 23.948C26.4432 23.948 27.2112 23.84 28.0512 23.624C28.9152 23.384 29.5872 23.156 30.0672 22.94L30.7872 22.616V10.412C29.2512 10.124 27.8232 9.98 26.5032 9.98C24.6792 9.98 23.4072 10.568 22.6872 11.744C21.9672 12.896 21.6072 14.696 21.6072 17.144C21.6072 19.928 22.0272 21.8 22.8672 22.76ZM52.5058 0.151998V26H49.8418V24.776C47.9938 25.832 46.1698 26.36 44.3698 26.36C43.4098 26.36 42.5698 26.24 41.8498 26C41.1298 25.76 40.4578 25.328 39.8338 24.704C38.5378 23.408 37.8898 21.02 37.8898 17.54C37.8898 14.036 38.4658 11.516 39.6178 9.98C40.7938 8.42 42.7258 7.64 45.4138 7.64C46.8058 7.64 48.2818 7.796 49.8418 8.108V0.151998H52.5058ZM41.9218 22.76C42.3058 23.216 42.7138 23.528 43.1458 23.696C43.5778 23.864 44.1298 23.948 44.8018 23.948C45.4978 23.948 46.2658 23.84 47.1058 23.624C47.9698 23.384 48.6418 23.156 49.1218 22.94L49.8418 22.616V10.412C48.3058 10.124 46.8778 9.98 45.5578 9.98C43.7338 9.98 42.4618 10.568 41.7418 11.744C41.0218 12.896 40.6618 14.696 40.6618 17.144C40.6618 19.928 41.0818 21.8 41.9218 22.76ZM63.9187 26L70.7587 1.088H76.8067L83.6467 26H80.9107L79.1107 19.592H68.4547L66.6547 26H63.9187ZM72.8467 3.464L69.0667 17.108H78.4987L74.7187 3.464H72.8467ZM87.092 26V8H89.756V10.448C91.844 9.008 94.04 8.06 96.344 7.604V10.34C95.336 10.532 94.28 10.832 93.176 11.24C92.096 11.648 91.268 12.008 90.692 12.32L89.792 12.788V26H87.092ZM108.861 10.34H103.137V18.944C103.137 21.008 103.281 22.364 103.569 23.012C103.881 23.66 104.601 23.984 105.729 23.984L108.933 23.768L109.113 26C107.505 26.264 106.281 26.396 105.441 26.396C103.569 26.396 102.273 25.94 101.553 25.028C100.833 24.116 100.473 22.376 100.473 19.808V10.34H97.9173V8H100.473V2.492H103.137V8H108.861V10.34ZM112.158 26V8H114.858V26H112.158ZM112.158 3.932V0.799998H114.858V3.932H112.158ZM125.685 10.052C123.069 10.052 121.761 10.964 121.761 12.788C121.761 13.628 122.061 14.228 122.661 14.588C123.261 14.924 124.629 15.284 126.765 15.668C128.901 16.028 130.413 16.544 131.301 17.216C132.189 17.888 132.633 19.148 132.633 20.996C132.633 22.844 132.033 24.2 130.833 25.064C129.657 25.928 127.929 26.36 125.649 26.36C124.161 26.36 122.409 26.192 120.393 25.856L119.313 25.676L119.457 23.336C122.193 23.744 124.257 23.948 125.649 23.948C127.041 23.948 128.097 23.732 128.817 23.3C129.561 22.844 129.933 22.1 129.933 21.068C129.933 20.012 129.621 19.304 128.997 18.944C128.373 18.56 127.005 18.2 124.893 17.864C122.781 17.528 121.281 17.036 120.393 16.388C119.505 15.74 119.061 14.54 119.061 12.788C119.061 11.036 119.673 9.74 120.897 8.9C122.145 8.06 123.693 7.64 125.541 7.64C127.005 7.64 128.841 7.808 131.049 8.144L132.057 8.324L131.985 10.628C129.321 10.244 127.221 10.052 125.685 10.052ZM146.092 10.34H140.368V18.944C140.368 21.008 140.512 22.364 140.8 23.012C141.112 23.66 141.832 23.984 142.96 23.984L146.164 23.768L146.344 26C144.736 26.264 143.512 26.396 142.672 26.396C140.8 26.396 139.504 25.94 138.784 25.028C138.064 24.116 137.704 22.376 137.704 19.808V10.34H135.148V8H137.704V2.492H140.368V8H146.092V10.34Z" fill="#666666"/>
<path d="M14.3 22.652H13.3V22.6925L13.3033 22.7328L14.3 22.652ZM16.388 24.236L17.3867 24.2868L17.4338 23.361L16.5143 23.244L16.388 24.236ZM16.28 26.36V27.36H17.2304L17.2787 26.4108L16.28 26.36ZM11.996 24.92L12.7031 24.2129L12.2175 23.7273L11.5899 24.0062L11.996 24.92ZM1.736 24.956L2.4708 24.2777L2.4708 24.2777L1.736 24.956ZM1.772 17.072L2.44863 17.8083L2.45395 17.8034L2.4592 17.7985L1.772 17.072ZM5.948 15.524L5.85289 14.5285L5.84725 14.5291L5.948 15.524ZM11.6 14.984L11.6951 15.9795L12.6 15.893V14.984H11.6ZM10.808 10.808L10.1009 11.5151L10.1009 11.5151L10.808 10.808ZM2.672 10.376L2.76832 11.3713L2.77792 11.3704L2.7875 11.3693L2.672 10.376ZM1.556 10.484L0.557382 10.5366L0.6123 11.58L1.65232 11.4793L1.556 10.484ZM1.448 8.432L1.25188 7.45142L0.403932 7.62101L0.449382 8.48456L1.448 8.432ZM12.896 9.044L12.1797 9.74192L12.1889 9.75111L12.896 9.044ZM10.772 23.264L10.4435 22.3195L10.4429 22.3197L10.772 23.264ZM11.6 22.976L11.9285 23.9205L12.6 23.6869V22.976H11.6ZM11.6 17.036H12.6V15.9369L11.5058 16.0404L11.6 17.036ZM6.272 17.54L6.36054 18.5361L6.36617 18.5356L6.272 17.54ZM3.932 18.476L4.67194 19.1487L4.67194 19.1487L3.932 18.476ZM13.3 13.436V22.652H15.3V13.436H13.3ZM13.3033 22.7328C13.3617 23.454 13.6919 24.0709 14.2716 24.5107C14.8137 24.9219 15.5116 25.1325 16.2617 25.228L16.5143 23.244C15.9444 23.1715 15.6343 23.0341 15.4804 22.9173C15.3641 22.8291 15.3103 22.738 15.2967 22.5712L13.3033 22.7328ZM15.3893 24.1852L15.2813 26.3092L17.2787 26.4108L17.3867 24.2868L15.3893 24.1852ZM16.28 25.36C14.5424 25.36 13.4116 24.9213 12.7031 24.2129L11.2889 25.6271C12.5004 26.8387 14.2256 27.36 16.28 27.36V25.36ZM11.5899 24.0062C9.54555 24.9148 7.52335 25.36 5.516 25.36V27.36C7.82865 27.36 10.1265 26.8452 12.4021 25.8338L11.5899 24.0062ZM5.516 25.36C4.05069 25.36 3.09287 24.9516 2.4708 24.2777L1.0012 25.6343C2.10713 26.8324 3.66931 27.36 5.516 27.36V25.36ZM2.4708 24.2777C1.83248 23.5862 1.44 22.5199 1.44 20.924H-0.56C-0.56 22.8321 -0.0884749 24.4538 1.0012 25.6343L2.4708 24.2777ZM1.44 20.924C1.44 19.3234 1.84537 18.3627 2.44863 17.8083L1.09538 16.3357C-0.0773675 17.4133 -0.56 19.0206 -0.56 20.924H1.44ZM2.4592 17.7985C3.11907 17.1743 4.25716 16.7003 6.04875 16.5189L5.84725 14.5291C3.84684 14.7317 2.20093 15.2897 1.0848 16.3455L2.4592 17.7985ZM6.04311 16.5195L11.6951 15.9795L11.5049 13.9885L5.85289 14.5285L6.04311 16.5195ZM12.6 14.984V13.436H10.6V14.984H12.6ZM12.6 13.436C12.6 12.1082 12.3202 10.906 11.5151 10.1009L10.1009 11.5151C10.3518 11.766 10.6 12.3158 10.6 13.436H12.6ZM11.5151 10.1009C10.7596 9.34536 9.76273 9.016 8.648 9.016V11.016C9.35727 11.016 9.80042 11.2146 10.1009 11.5151L11.5151 10.1009ZM8.648 9.016C6.68641 9.016 4.65574 9.13859 2.5565 9.38269L2.7875 11.3693C4.81626 11.1334 6.76959 11.016 8.648 11.016V9.016ZM2.57568 9.38065L1.45968 9.48865L1.65232 11.4793L2.76832 11.3713L2.57568 9.38065ZM2.55462 10.4314L2.44662 8.37944L0.449382 8.48456L0.557382 10.5366L2.55462 10.4314ZM1.64412 9.41258C4.23871 8.89366 6.51088 8.64 8.468 8.64V6.64C6.34512 6.64 3.93729 6.91434 1.25188 7.45142L1.64412 9.41258ZM8.468 8.64C10.386 8.64 11.5388 9.08399 12.1798 9.74186L13.6122 8.34614C12.4292 7.13201 10.63 6.64 8.468 6.64V8.64ZM12.1889 9.75111C12.861 10.4232 13.3 11.5771 13.3 13.436H15.3C15.3 11.3109 14.803 9.53679 13.6031 8.33689L12.1889 9.75111ZM2.212 20.78C2.212 21.9966 2.45934 23.095 3.12504 23.9009C3.82096 24.7433 4.82618 25.092 5.948 25.092V23.092C5.24582 23.092 4.88304 22.8887 4.66696 22.6271C4.42066 22.329 4.212 21.7714 4.212 20.78H2.212ZM5.948 25.092C7.69516 25.092 9.41427 24.7961 11.1011 24.2083L10.4429 22.3197C8.96174 22.8359 7.46484 23.092 5.948 23.092V25.092ZM11.1005 24.2085L11.9285 23.9205L11.2715 22.0315L10.4435 22.3195L11.1005 24.2085ZM12.6 22.976V17.036H10.6V22.976H12.6ZM11.5058 16.0404L6.17783 16.5444L6.36617 18.5356L11.6942 18.0316L11.5058 16.0404ZM6.18346 16.5439C4.97958 16.6509 3.9102 17.0134 3.19206 17.8033L4.67194 19.1487C4.9138 18.8826 5.40442 18.6211 6.36054 18.5361L6.18346 16.5439ZM3.19206 17.8033C2.4867 18.5792 2.212 19.6256 2.212 20.78H4.212C4.212 19.9184 4.4173 19.4288 4.67194 19.1487L3.19206 17.8033ZM33.4512 0.151998H34.4512V-0.848002H33.4512V0.151998ZM33.4512 26V27H34.4512V26H33.4512ZM30.7872 26H29.7872V27H30.7872V26ZM30.7872 24.776H31.7872V23.0528L30.291 23.9078L30.7872 24.776ZM20.7792 24.704L20.072 25.4111L20.072 25.4111L20.7792 24.704ZM20.5632 9.98L19.7646 9.37803L19.7632 9.38L20.5632 9.98ZM30.7872 8.108L30.591 9.08858L31.7872 9.3278V8.108H30.7872ZM30.7872 0.151998V-0.848002H29.7872V0.151998H30.7872ZM22.8672 22.76L23.6321 22.1159L23.626 22.1086L23.6197 22.1015L22.8672 22.76ZM28.0512 23.624L28.3002 24.5925L28.3095 24.5901L28.3188 24.5875L28.0512 23.624ZM30.0672 22.94L30.4775 23.8519L30.4775 23.8519L30.0672 22.94ZM30.7872 22.616L31.1975 23.5279L31.7872 23.2626V22.616H30.7872ZM30.7872 10.412H31.7872V9.58207L30.9714 9.42913L30.7872 10.412ZM22.6872 11.744L23.5352 12.274L23.54 12.2662L22.6872 11.744ZM32.4512 0.151998V26H34.4512V0.151998H32.4512ZM33.4512 25H30.7872V27H33.4512V25ZM31.7872 26V24.776H29.7872V26H31.7872ZM30.291 23.9078C28.5664 24.8932 26.9118 25.36 25.3152 25.36V27.36C27.3185 27.36 29.3119 26.7708 31.2833 25.6442L30.291 23.9078ZM25.3152 25.36C24.4355 25.36 23.7065 25.2497 23.1114 25.0513L22.4789 26.9487C23.3238 27.2303 24.2748 27.36 25.3152 27.36V25.36ZM23.1114 25.0513C22.5609 24.8678 22.0183 24.529 21.4863 23.9969L20.072 25.4111C20.788 26.127 21.5894 26.6522 22.4789 26.9487L23.1114 25.0513ZM21.4863 23.9969C20.4877 22.9983 19.8352 20.967 19.8352 17.54H17.8352C17.8352 21.073 18.4786 23.8177 20.072 25.4111L21.4863 23.9969ZM19.8352 17.54C19.8352 14.0964 20.4108 11.8498 21.3632 10.58L19.7632 9.38C18.4115 11.1822 17.8352 13.9756 17.8352 17.54H19.8352ZM21.3617 10.582C22.2838 9.35876 23.8587 8.64 26.3592 8.64V6.64C23.4836 6.64 21.1945 7.48124 19.7646 9.37804L21.3617 10.582ZM26.3592 8.64C27.6768 8.64 29.0866 8.7877 30.591 9.08858L30.9833 7.12742C29.3677 6.8043 27.8256 6.64 26.3592 6.64V8.64ZM31.7872 8.108V0.151998H29.7872V8.108H31.7872ZM30.7872 1.152H33.4512V-0.848002H30.7872V1.152ZM22.1022 23.4041C22.5641 23.9526 23.1022 24.3843 23.7287 24.628L24.4536 22.764C24.2162 22.6717 23.9382 22.4794 23.6321 22.1159L22.1022 23.4041ZM23.7287 24.628C24.3158 24.8563 25.0022 24.948 25.7472 24.948V22.948C25.1482 22.948 24.7305 22.8717 24.4536 22.764L23.7287 24.628ZM25.7472 24.948C26.5448 24.948 27.3979 24.8245 28.3002 24.5925L27.8021 22.6555C27.0244 22.8555 26.3415 22.948 25.7472 22.948V24.948ZM28.3188 24.5875C29.2028 24.342 29.9303 24.0982 30.4775 23.8519L29.6568 22.0281C29.244 22.2138 28.6275 22.426 27.7835 22.6605L28.3188 24.5875ZM30.4775 23.8519L31.1975 23.5279L30.3768 21.7041L29.6568 22.0281L30.4775 23.8519ZM31.7872 22.616V10.412H29.7872V22.616H31.7872ZM30.9714 9.42913C29.3854 9.13175 27.895 8.98 26.5032 8.98V10.98C27.7513 10.98 29.1169 11.1163 30.6029 11.3949L30.9714 9.42913ZM26.5032 8.98C24.458 8.98 22.7937 9.65483 21.8343 11.2218L23.54 12.2662C24.0206 11.4812 24.9004 10.98 26.5032 10.98V8.98ZM21.8392 11.214C20.9683 12.6074 20.6072 14.6383 20.6072 17.144H22.6072C22.6072 14.7537 22.966 13.1846 23.5352 12.274L21.8392 11.214ZM20.6072 17.144C20.6072 18.5798 20.7149 19.8228 20.9464 20.8549C21.176 21.8782 21.543 22.7653 22.1146 23.4185L23.6197 22.1015C23.3513 21.7947 23.0883 21.2658 22.8979 20.4171C22.7095 19.5772 22.6072 18.4922 22.6072 17.144H20.6072ZM52.5058 0.151998H53.5058V-0.848002H52.5058V0.151998ZM52.5058 26V27H53.5058V26H52.5058ZM49.8418 26H48.8418V27H49.8418V26ZM49.8418 24.776H50.8418V23.0528L49.3457 23.9078L49.8418 24.776ZM39.8338 24.704L39.1267 25.4111L39.1267 25.4111L39.8338 24.704ZM39.6178 9.98L38.8193 9.37803L38.8178 9.38L39.6178 9.98ZM49.8418 8.108L49.6457 9.08858L50.8418 9.3278V8.108H49.8418ZM49.8418 0.151998V-0.848002H48.8418V0.151998H49.8418ZM41.9218 22.76L42.6868 22.1159L42.6807 22.1086L42.6744 22.1015L41.9218 22.76ZM47.1058 23.624L47.3549 24.5925L47.3642 24.5901L47.3735 24.5875L47.1058 23.624ZM49.1218 22.94L49.5322 23.8519L49.5322 23.8519L49.1218 22.94ZM49.8418 22.616L50.2522 23.5279L50.8418 23.2626V22.616H49.8418ZM49.8418 10.412H50.8418V9.58207L50.0261 9.42913L49.8418 10.412ZM41.7418 11.744L42.5899 12.274L42.5947 12.2662L41.7418 11.744ZM51.5058 0.151998V26H53.5058V0.151998H51.5058ZM52.5058 25H49.8418V27H52.5058V25ZM50.8418 26V24.776H48.8418V26H50.8418ZM49.3457 23.9078C47.6211 24.8932 45.9665 25.36 44.3698 25.36V27.36C46.3732 27.36 48.3666 26.7708 50.338 25.6442L49.3457 23.9078ZM44.3698 25.36C43.4902 25.36 42.7612 25.2497 42.1661 25.0513L41.5336 26.9487C42.3785 27.2303 43.3295 27.36 44.3698 27.36V25.36ZM42.1661 25.0513C41.6156 24.8678 41.073 24.529 40.541 23.9969L39.1267 25.4111C39.8427 26.127 40.6441 26.6522 41.5336 26.9487L42.1661 25.0513ZM40.541 23.9969C39.5424 22.9983 38.8898 20.967 38.8898 17.54H36.8898C36.8898 21.073 37.5333 23.8177 39.1267 25.4111L40.541 23.9969ZM38.8898 17.54C38.8898 14.0964 39.4655 11.8498 40.4178 10.58L38.8178 9.38C37.4662 11.1822 36.8898 13.9756 36.8898 17.54H38.8898ZM40.4164 10.582C41.3385 9.35876 42.9134 8.64 45.4138 8.64V6.64C42.5383 6.64 40.2492 7.48124 38.8193 9.37804L40.4164 10.582ZM45.4138 8.64C46.7314 8.64 48.1413 8.7877 49.6457 9.08858L50.038 7.12742C48.4224 6.8043 46.8802 6.64 45.4138 6.64V8.64ZM50.8418 8.108V0.151998H48.8418V8.108H50.8418ZM49.8418 1.152H52.5058V-0.848002H49.8418V1.152ZM41.1569 23.4041C41.6188 23.9526 42.1568 24.3843 42.7834 24.628L43.5083 22.764C43.2708 22.6717 42.9929 22.4794 42.6868 22.1159L41.1569 23.4041ZM42.7834 24.628C43.3705 24.8563 44.0568 24.948 44.8018 24.948V22.948C44.2028 22.948 43.7852 22.8717 43.5083 22.764L42.7834 24.628ZM44.8018 24.948C45.5995 24.948 46.4526 24.8245 47.3549 24.5925L46.8568 22.6555C46.0791 22.8555 45.3962 22.948 44.8018 22.948V24.948ZM47.3735 24.5875C48.2575 24.342 48.985 24.0982 49.5322 23.8519L48.7115 22.0281C48.2987 22.2138 47.6822 22.426 46.8382 22.6605L47.3735 24.5875ZM49.5322 23.8519L50.2522 23.5279L49.4315 21.7041L48.7115 22.0281L49.5322 23.8519ZM50.8418 22.616V10.412H48.8418V22.616H50.8418ZM50.0261 9.42913C48.4401 9.13175 46.9497 8.98 45.5578 8.98V10.98C46.806 10.98 48.1716 11.1163 49.6576 11.3949L50.0261 9.42913ZM45.5578 8.98C43.5126 8.98 41.8484 9.65483 40.889 11.2218L42.5947 12.2662C43.0753 11.4812 43.955 10.98 45.5578 10.98V8.98ZM40.8938 11.214C40.023 12.6074 39.6618 14.6383 39.6618 17.144H41.6618C41.6618 14.7537 42.0207 13.1846 42.5898 12.274L40.8938 11.214ZM39.6618 17.144C39.6618 18.5798 39.7695 19.8228 40.0011 20.8549C40.2307 21.8782 40.5977 22.7653 41.1693 23.4185L42.6744 22.1015C42.406 21.7947 42.143 21.2658 41.9526 20.4171C41.7641 19.5772 41.6618 18.4922 41.6618 17.144H39.6618ZM63.9187 26L62.9544 25.7352L62.6071 27H63.9187V26ZM70.7587 1.088V0.0879989H69.9962L69.7944 0.823231L70.7587 1.088ZM76.8067 1.088L77.771 0.823231L77.5691 0.0879989H76.8067V1.088ZM83.6467 26V27H84.9583L84.611 25.7352L83.6467 26ZM80.9107 26L79.9479 26.2704L80.1529 27H80.9107V26ZM79.1107 19.592L80.0734 19.3216L79.8685 18.592H79.1107V19.592ZM68.4547 19.592V18.592H67.6969L67.4919 19.3216L68.4547 19.592ZM66.6547 26V27H67.4125L67.6174 26.2704L66.6547 26ZM72.8467 3.464V2.464H72.0861L71.883 3.19701L72.8467 3.464ZM69.0667 17.108L68.103 16.841L67.752 18.108H69.0667V17.108ZM78.4987 17.108V18.108H79.8134L79.4624 16.841L78.4987 17.108ZM74.7187 3.464L75.6824 3.19701L75.4793 2.464H74.7187V3.464ZM64.883 26.2648L71.723 1.35277L69.7944 0.823231L62.9544 25.7352L64.883 26.2648ZM70.7587 2.088H76.8067V0.0879989H70.7587V2.088ZM75.8424 1.35277L82.6824 26.2648L84.611 25.7352L77.771 0.823231L75.8424 1.35277ZM83.6467 25H80.9107V27H83.6467V25ZM81.8734 25.7296L80.0734 19.3216L78.1479 19.8624L79.9479 26.2704L81.8734 25.7296ZM79.1107 18.592H68.4547V20.592H79.1107V18.592ZM67.4919 19.3216L65.6919 25.7296L67.6174 26.2704L69.4174 19.8624L67.4919 19.3216ZM66.6547 25H63.9187V27H66.6547V25ZM71.883 3.19701L68.103 16.841L70.0304 17.375L73.8104 3.73099L71.883 3.19701ZM69.0667 18.108H78.4987V16.108H69.0667V18.108ZM79.4624 16.841L75.6824 3.19701L73.755 3.73099L77.535 17.375L79.4624 16.841ZM74.7187 2.464H72.8467V4.464H74.7187V2.464ZM87.092 26H86.092V27H87.092V26ZM87.092 8V7H86.092V8H87.092ZM89.756 8H90.756V7H89.756V8ZM89.756 10.448H88.756V12.3524L90.3237 11.2712L89.756 10.448ZM96.344 7.604H97.344V6.38668L96.1499 6.62303L96.344 7.604ZM96.344 10.34L96.5311 11.3223L97.344 11.1675V10.34H96.344ZM93.176 11.24L92.8293 10.302L92.8226 10.3045L93.176 11.24ZM90.692 12.32L91.1534 13.2072L91.1609 13.2033L91.1683 13.1993L90.692 12.32ZM89.792 12.788L89.3306 11.9008L88.792 12.1809V12.788H89.792ZM89.792 26V27H90.792V26H89.792ZM88.092 26V8H86.092V26H88.092ZM87.092 9H89.756V7H87.092V9ZM88.756 8V10.448H90.756V8H88.756ZM90.3237 11.2712C92.3084 9.90249 94.3786 9.01239 96.5382 8.58497L96.1499 6.62303C93.7014 7.10761 91.3796 8.11351 89.1883 9.62479L90.3237 11.2712ZM95.344 7.604V10.34H97.344V7.604H95.344ZM96.1569 9.35766C95.0874 9.56138 93.9778 9.87757 92.8294 10.302L93.5227 12.178C94.5822 11.7864 95.5846 11.5026 96.5311 11.3223L96.1569 9.35766ZM92.8226 10.3045C91.727 10.7184 90.8503 11.097 90.2157 11.4407L91.1683 13.1993C91.6857 12.919 92.465 12.5776 93.5294 12.1755L92.8226 10.3045ZM90.2306 11.4328L89.3306 11.9008L90.2534 13.6752L91.1534 13.2072L90.2306 11.4328ZM88.792 12.788V26H90.792V12.788H88.792ZM89.792 25H87.092V27H89.792V25ZM108.861 10.34V11.34H109.861V10.34H108.861ZM103.137 10.34V9.34H102.137V10.34H103.137ZM103.569 23.012L102.656 23.4181L102.662 23.4321L102.668 23.4458L103.569 23.012ZM105.729 23.984V24.984H105.763L105.797 24.9817L105.729 23.984ZM108.933 23.768L109.93 23.6876L109.851 22.7039L108.866 22.7703L108.933 23.768ZM109.113 26L109.275 26.9868L110.184 26.8376L110.11 25.9196L109.113 26ZM101.553 25.028L100.768 25.6476L100.768 25.6476L101.553 25.028ZM100.473 10.34H101.473V9.34H100.473V10.34ZM97.9173 10.34H96.9173V11.34H97.9173V10.34ZM97.9173 8V7H96.9173V8H97.9173ZM100.473 8V9H101.473V8H100.473ZM100.473 2.492V1.492H99.4733V2.492H100.473ZM103.137 2.492H104.137V1.492H103.137V2.492ZM103.137 8H102.137V9H103.137V8ZM108.861 8H109.861V7H108.861V8ZM108.861 9.34H103.137V11.34H108.861V9.34ZM102.137 10.34V18.944H104.137V10.34H102.137ZM102.137 18.944C102.137 19.9954 102.174 20.8886 102.251 21.6146C102.326 22.3192 102.446 22.9472 102.656 23.4181L104.483 22.6059C104.404 22.4288 104.309 22.0548 104.24 21.4034C104.173 20.7734 104.137 19.9566 104.137 18.944H102.137ZM102.668 23.4458C103.231 24.6139 104.458 24.984 105.729 24.984V22.984C104.745 22.984 104.532 22.7061 104.47 22.5782L102.668 23.4458ZM105.797 24.9817L109.001 24.7657L108.866 22.7703L105.662 22.9863L105.797 24.9817ZM107.937 23.8484L108.117 26.0804L110.11 25.9196L109.93 23.6876L107.937 23.8484ZM108.951 25.0132C107.357 25.275 106.198 25.396 105.441 25.396V27.396C106.365 27.396 107.654 27.253 109.275 26.9868L108.951 25.0132ZM105.441 25.396C103.689 25.396 102.777 24.9644 102.338 24.4084L100.768 25.6476C101.769 26.9156 103.45 27.396 105.441 27.396V25.396ZM102.338 24.4084C102.112 24.1219 101.886 23.6274 101.723 22.8364C101.561 22.0553 101.473 21.0512 101.473 19.808H99.4733C99.4733 21.1328 99.5657 22.2827 99.7641 23.2416C99.9604 24.1906 100.275 25.0221 100.768 25.6476L102.338 24.4084ZM101.473 19.808V10.34H99.4733V19.808H101.473ZM100.473 9.34H97.9173V11.34H100.473V9.34ZM98.9173 10.34V8H96.9173V10.34H98.9173ZM97.9173 9H100.473V7H97.9173V9ZM101.473 8V2.492H99.4733V8H101.473ZM100.473 3.492H103.137V1.492H100.473V3.492ZM102.137 2.492V8H104.137V2.492H102.137ZM103.137 9H108.861V7H103.137V9ZM107.861 8V10.34H109.861V8H107.861ZM112.158 26H111.158V27H112.158V26ZM112.158 8V7H111.158V8H112.158ZM114.858 8H115.858V7H114.858V8ZM114.858 26V27H115.858V26H114.858ZM112.158 3.932H111.158V4.932H112.158V3.932ZM112.158 0.799998V-0.200002H111.158V0.799998H112.158ZM114.858 0.799998H115.858V-0.200002H114.858V0.799998ZM114.858 3.932V4.932H115.858V3.932H114.858ZM113.158 26V8H111.158V26H113.158ZM112.158 9H114.858V7H112.158V9ZM113.858 8V26H115.858V8H113.858ZM114.858 25H112.158V27H114.858V25ZM113.158 3.932V0.799998H111.158V3.932H113.158ZM112.158 1.8H114.858V-0.200002H112.158V1.8ZM113.858 0.799998V3.932H115.858V0.799998H113.858ZM114.858 2.932H112.158V4.932H114.858V2.932ZM122.661 14.588L122.147 15.4455L122.16 15.4532L122.173 15.4605L122.661 14.588ZM126.765 15.668L126.588 16.6523L126.599 16.6541L126.765 15.668ZM131.301 17.216L131.905 16.4186L131.905 16.4186L131.301 17.216ZM130.833 25.064L130.249 24.2524L130.241 24.2581L130.833 25.064ZM120.393 25.856L120.229 26.8424L120.393 25.856ZM119.313 25.676L118.315 25.6146L118.26 26.5142L119.149 26.6624L119.313 25.676ZM119.457 23.336L119.605 22.3469L118.526 22.1861L118.459 23.2746L119.457 23.336ZM128.817 23.3L129.332 24.1575L129.34 24.1526L128.817 23.3ZM128.997 18.944L128.473 19.7957L128.485 19.8031L128.498 19.8102L128.997 18.944ZM124.893 17.864L125.051 16.8764L125.051 16.8764L124.893 17.864ZM120.393 16.388L120.983 15.5802L120.983 15.5802L120.393 16.388ZM120.897 8.9L120.339 8.07038L120.332 8.07549L120.897 8.9ZM131.049 8.144L131.225 7.15957L131.213 7.15731L131.2 7.15538L131.049 8.144ZM132.057 8.324L133.057 8.35523L133.084 7.49148L132.233 7.33957L132.057 8.324ZM131.985 10.628L131.843 11.6178L132.95 11.7774L132.985 10.6592L131.985 10.628ZM125.685 9.052C124.292 9.052 123.069 9.28933 122.17 9.91571C121.207 10.5878 120.761 11.6034 120.761 12.788H122.761C122.761 12.1486 122.97 11.7962 123.314 11.5563C123.724 11.2707 124.463 11.052 125.685 11.052V9.052ZM120.761 12.788C120.761 13.8967 121.181 14.866 122.147 15.4455L123.176 13.7305C122.942 13.59 122.761 13.3593 122.761 12.788H120.761ZM122.173 15.4605C122.589 15.6937 123.184 15.8932 123.883 16.0771C124.602 16.2664 125.507 16.4577 126.588 16.6522L126.942 14.6838C125.888 14.4943 125.041 14.3136 124.392 14.1429C123.723 13.9668 123.334 13.8183 123.15 13.7155L122.173 15.4605ZM126.599 16.6541C128.7 17.0081 130.01 17.4932 130.698 18.0134L131.905 16.4186C130.816 15.5948 129.103 15.0479 126.932 14.6819L126.599 16.6541ZM130.698 18.0134C131.209 18.4 131.633 19.2565 131.633 20.996H133.633C133.633 19.0395 133.17 17.376 131.905 16.4186L130.698 18.0134ZM131.633 20.996C131.633 22.6122 131.123 23.6233 130.249 24.2525L131.418 25.8755C132.944 24.7767 133.633 23.0758 133.633 20.996H131.633ZM130.241 24.2581C129.309 24.9429 127.828 25.36 125.649 25.36V27.36C128.031 27.36 130.006 26.9131 131.425 25.8699L130.241 24.2581ZM125.649 25.36C124.233 25.36 122.538 25.1996 120.558 24.8696L120.229 26.8424C122.281 27.1844 124.09 27.36 125.649 27.36V25.36ZM120.558 24.8696L119.478 24.6896L119.149 26.6624L120.229 26.8424L120.558 24.8696ZM120.312 25.7374L120.456 23.3974L118.459 23.2746L118.315 25.6146L120.312 25.7374ZM119.31 24.3251C122.057 24.7347 124.181 24.948 125.649 24.948V22.948C124.334 22.948 122.33 22.7533 119.605 22.3469L119.31 24.3251ZM125.649 24.948C127.116 24.948 128.385 24.7254 129.332 24.1575L128.303 22.4425C127.809 22.7386 126.966 22.948 125.649 22.948V24.948ZM129.34 24.1526C130.439 23.479 130.933 22.3734 130.933 21.068H128.933C128.933 21.8266 128.684 22.209 128.295 22.4474L129.34 24.1526ZM130.933 21.068C130.933 19.8374 130.562 18.692 129.497 18.0778L128.498 19.8102C128.681 19.916 128.933 20.1866 128.933 21.068H130.933ZM129.522 18.0923C129.08 17.8209 128.466 17.6052 127.758 17.4189C127.03 17.2274 126.125 17.0473 125.051 16.8764L124.736 18.8516C125.774 19.0167 126.609 19.1846 127.249 19.3531C127.909 19.5268 128.29 19.6831 128.473 19.7957L129.522 18.0923ZM125.051 16.8764C122.974 16.546 121.671 16.0826 120.983 15.5802L119.804 17.1958C120.891 17.9894 122.589 18.51 124.736 18.8516L125.051 16.8764ZM120.983 15.5802C120.477 15.2107 120.061 14.4132 120.061 12.788H118.061C118.061 14.6668 118.534 16.2693 119.804 17.1958L120.983 15.5802ZM120.061 12.788C120.061 11.2974 120.563 10.3425 121.463 9.72451L120.332 8.07549C118.784 9.13752 118.061 10.7746 118.061 12.788H120.061ZM121.456 9.72959C122.504 9.02376 123.847 8.64 125.541 8.64V6.64C123.54 6.64 121.786 7.09624 120.339 8.07041L121.456 9.72959ZM125.541 8.64C126.936 8.64 128.718 8.8007 130.899 9.13262L131.2 7.15538C128.965 6.8153 127.075 6.64 125.541 6.64V8.64ZM130.874 9.12843L131.882 9.30843L132.233 7.33957L131.225 7.15957L130.874 9.12843ZM131.058 8.29276L130.986 10.5968L132.985 10.6592L133.057 8.35523L131.058 8.29276ZM132.128 9.63823C129.446 9.25167 127.292 9.052 125.685 9.052V11.052C127.151 11.052 129.197 11.2363 131.843 11.6178L132.128 9.63823ZM146.092 10.34V11.34H147.092V10.34H146.092ZM140.368 10.34V9.34H139.368V10.34H140.368ZM140.8 23.012L139.886 23.4181L139.892 23.4321L139.899 23.4458L140.8 23.012ZM142.96 23.984V24.984H142.993L143.027 24.9817L142.96 23.984ZM146.164 23.768L147.161 23.6876L147.081 22.7039L146.097 22.7703L146.164 23.768ZM146.344 26L146.506 26.9868L147.415 26.8376L147.341 25.9196L146.344 26ZM138.784 25.028L137.999 25.6476L137.999 25.6476L138.784 25.028ZM137.704 10.34H138.704V9.34H137.704V10.34ZM135.148 10.34H134.148V11.34H135.148V10.34ZM135.148 8V7H134.148V8H135.148ZM137.704 8V9H138.704V8H137.704ZM137.704 2.492V1.492H136.704V2.492H137.704ZM140.368 2.492H141.368V1.492H140.368V2.492ZM140.368 8H139.368V9H140.368V8ZM146.092 8H147.092V7H146.092V8ZM146.092 9.34H140.368V11.34H146.092V9.34ZM139.368 10.34V18.944H141.368V10.34H139.368ZM139.368 18.944C139.368 19.9954 139.404 20.8886 139.481 21.6146C139.556 22.3192 139.677 22.9472 139.886 23.4181L141.714 22.6059C141.635 22.4288 141.539 22.0548 141.47 21.4034C141.403 20.7734 141.368 19.9566 141.368 18.944H139.368ZM139.899 23.4458C140.461 24.6139 141.688 24.984 142.96 24.984V22.984C141.975 22.984 141.762 22.7061 141.701 22.5782L139.899 23.4458ZM143.027 24.9817L146.231 24.7657L146.097 22.7703L142.893 22.9863L143.027 24.9817ZM145.167 23.8484L145.347 26.0804L147.341 25.9196L147.161 23.6876L145.167 23.8484ZM146.182 25.0132C144.587 25.275 143.428 25.396 142.672 25.396V27.396C143.595 27.396 144.884 27.253 146.506 26.9868L146.182 25.0132ZM142.672 25.396C140.919 25.396 140.008 24.9644 139.569 24.4084L137.999 25.6476C139 26.9156 140.68 27.396 142.672 27.396V25.396ZM139.569 24.4084C139.343 24.1219 139.117 23.6274 138.953 22.8364C138.791 22.0553 138.704 21.0512 138.704 19.808H136.704C136.704 21.1328 136.796 22.2827 136.995 23.2416C137.191 24.1906 137.505 25.0221 137.999 25.6476L139.569 24.4084ZM138.704 19.808V10.34H136.704V19.808H138.704ZM137.704 9.34H135.148V11.34H137.704V9.34ZM136.148 10.34V8H134.148V10.34H136.148ZM135.148 9H137.704V7H135.148V9ZM138.704 8V2.492H136.704V8H138.704ZM137.704 3.492H140.368V1.492H137.704V3.492ZM139.368 2.492V8H141.368V2.492H139.368ZM140.368 9H146.092V7H140.368V9ZM145.092 8V10.34H147.092V8H145.092Z" fill="black" mask="url(#path-1-outside-1_265_132)"/>
</svg>
