<svg width="91" height="35" viewBox="0 0 91 35" fill="none" xmlns="http://www.w3.org/2000/svg">
<mask id="path-1-outside-1_140_971" maskUnits="userSpaceOnUse" x="-1" y="-1" width="93" height="37" fill="black">
<rect fill="white" x="-1" y="-1" width="93" height="37"/>
<path d="M8.936 3.14C5.336 3.14 3.536 4.496 3.536 7.208C3.536 8.72 3.944 9.764 4.76 10.34C5.6 10.892 7.28 11.456 9.8 12.032C12.344 12.584 14.144 13.316 15.2 14.228C16.256 15.116 16.784 16.592 16.784 18.656C16.784 23.768 14.132 26.324 8.828 26.324C7.076 26.324 4.88 26.12 2.24 25.712L0.944 25.532L1.232 23.228C4.496 23.66 6.98 23.876 8.684 23.876C12.236 23.876 14.012 22.208 14.012 18.872C14.012 17.528 13.616 16.568 12.824 15.992C12.056 15.392 10.604 14.888 8.468 14.48C5.66 13.88 3.668 13.112 2.492 12.176C1.316 11.216 0.728 9.62 0.728 7.388C0.728 2.924 3.404 0.692 8.756 0.692C10.508 0.692 12.608 0.872 15.056 1.232L16.28 1.412L16.028 3.752C12.692 3.344 10.328 3.14 8.936 3.14ZM20.3117 16.964C20.3117 13.676 20.8997 11.3 22.0757 9.836C23.2517 8.372 25.2317 7.64 28.0157 7.64C30.8237 7.64 32.8037 8.372 33.9557 9.836C35.1317 11.3 35.7197 13.676 35.7197 16.964C35.7197 20.252 35.1677 22.64 34.0637 24.128C32.9597 25.616 30.9437 26.36 28.0157 26.36C25.0877 26.36 23.0717 25.616 21.9677 24.128C20.8637 22.64 20.3117 20.252 20.3117 16.964ZM23.0837 16.928C23.0837 19.544 23.3957 21.38 24.0197 22.436C24.6677 23.492 25.9997 24.02 28.0157 24.02C30.0557 24.02 31.3877 23.504 32.0117 22.472C32.6357 21.416 32.9477 19.568 32.9477 16.928C32.9477 14.288 32.5997 12.476 31.9037 11.492C31.2077 10.484 29.9117 9.98 28.0157 9.98C26.1437 9.98 24.8477 10.484 24.1277 11.492C23.4317 12.476 23.0837 14.288 23.0837 16.928ZM42.8232 26H40.1233V8H42.7873V9.26C44.7313 8.18 46.5913 7.64 48.3673 7.64C50.7673 7.64 52.3753 8.288 53.1913 9.584C54.0313 10.88 54.4513 13.184 54.4513 16.496V26H51.7873V16.568C51.7873 14.072 51.5353 12.368 51.0313 11.456C50.5513 10.52 49.5073 10.052 47.8993 10.052C47.1313 10.052 46.3153 10.172 45.4513 10.412C44.6113 10.628 43.9633 10.844 43.5073 11.06L42.8232 11.384V26ZM66.4072 34.46C63.5272 34.46 61.5112 34.064 60.3592 33.272C59.2312 32.504 58.6672 31.088 58.6672 29.024C58.6672 28.04 58.8832 27.236 59.3152 26.612C59.7472 26.012 60.4792 25.328 61.5112 24.56C60.8392 24.104 60.5032 23.276 60.5032 22.076C60.5032 21.668 60.8032 20.912 61.4032 19.808L61.7272 19.232C59.8312 18.368 58.8832 16.556 58.8832 13.796C58.8832 9.692 61.1272 7.64 65.6152 7.64C66.7672 7.64 67.8352 7.76 68.8192 8L69.3592 8.108L74.6872 7.964V10.268L71.2672 10.196C72.0592 10.988 72.4552 12.188 72.4552 13.796C72.4552 16.052 71.8912 17.636 70.7632 18.548C69.6592 19.436 67.9072 19.88 65.5072 19.88C64.8592 19.88 64.2712 19.832 63.7432 19.736C63.3112 20.792 63.0952 21.476 63.0952 21.788C63.0952 22.532 63.3232 23 63.7792 23.192C64.2352 23.36 65.6152 23.444 67.9192 23.444C70.2232 23.444 71.8792 23.804 72.8872 24.524C73.8952 25.244 74.3992 26.648 74.3992 28.736C74.3992 32.552 71.7352 34.46 66.4072 34.46ZM61.3312 28.808C61.3312 30.08 61.6792 30.956 62.3752 31.436C63.0952 31.94 64.4032 32.192 66.2992 32.192C68.2192 32.192 69.5872 31.928 70.4032 31.4C71.2432 30.872 71.6632 29.984 71.6632 28.736C71.6632 27.512 71.3632 26.72 70.7632 26.36C70.1632 26 68.9872 25.82 67.2352 25.82L63.3472 25.64C62.5552 26.216 62.0152 26.72 61.7272 27.152C61.4632 27.584 61.3312 28.136 61.3312 28.808ZM61.5832 13.796C61.5832 15.212 61.8952 16.22 62.5192 16.82C63.1672 17.42 64.2232 17.72 65.6872 17.72C67.1512 17.72 68.1952 17.42 68.8192 16.82C69.4432 16.22 69.7552 15.212 69.7552 13.796C69.7552 12.356 69.4432 11.336 68.8192 10.736C68.1952 10.136 67.1512 9.836 65.6872 9.836C64.2232 9.836 63.1672 10.148 62.5192 10.772C61.8952 11.372 61.5832 12.38 61.5832 13.796ZM83.6034 10.052C80.9874 10.052 79.6794 10.964 79.6794 12.788C79.6794 13.628 79.9794 14.228 80.5794 14.588C81.1794 14.924 82.5474 15.284 84.6834 15.668C86.8194 16.028 88.3314 16.544 89.2194 17.216C90.1074 17.888 90.5514 19.148 90.5514 20.996C90.5514 22.844 89.9514 24.2 88.7514 25.064C87.5754 25.928 85.8474 26.36 83.5674 26.36C82.0794 26.36 80.3274 26.192 78.3114 25.856L77.2314 25.676L77.3754 23.336C80.1114 23.744 82.1754 23.948 83.5674 23.948C84.9594 23.948 86.0154 23.732 86.7354 23.3C87.4794 22.844 87.8514 22.1 87.8514 21.068C87.8514 20.012 87.5394 19.304 86.9154 18.944C86.2914 18.56 84.9234 18.2 82.8114 17.864C80.6994 17.528 79.1994 17.036 78.3114 16.388C77.4234 15.74 76.9794 14.54 76.9794 12.788C76.9794 11.036 77.5914 9.74 78.8154 8.9C80.0634 8.06 81.6114 7.64 83.4594 7.64C84.9234 7.64 86.7594 7.808 88.9674 8.144L89.9754 8.324L89.9034 10.628C87.2394 10.244 85.1394 10.052 83.6034 10.052Z"/>
</mask>
<path d="M8.936 3.14C5.336 3.14 3.536 4.496 3.536 7.208C3.536 8.72 3.944 9.764 4.76 10.34C5.6 10.892 7.28 11.456 9.8 12.032C12.344 12.584 14.144 13.316 15.2 14.228C16.256 15.116 16.784 16.592 16.784 18.656C16.784 23.768 14.132 26.324 8.828 26.324C7.076 26.324 4.88 26.12 2.24 25.712L0.944 25.532L1.232 23.228C4.496 23.66 6.98 23.876 8.684 23.876C12.236 23.876 14.012 22.208 14.012 18.872C14.012 17.528 13.616 16.568 12.824 15.992C12.056 15.392 10.604 14.888 8.468 14.48C5.66 13.88 3.668 13.112 2.492 12.176C1.316 11.216 0.728 9.62 0.728 7.388C0.728 2.924 3.404 0.692 8.756 0.692C10.508 0.692 12.608 0.872 15.056 1.232L16.28 1.412L16.028 3.752C12.692 3.344 10.328 3.14 8.936 3.14ZM20.3117 16.964C20.3117 13.676 20.8997 11.3 22.0757 9.836C23.2517 8.372 25.2317 7.64 28.0157 7.64C30.8237 7.64 32.8037 8.372 33.9557 9.836C35.1317 11.3 35.7197 13.676 35.7197 16.964C35.7197 20.252 35.1677 22.64 34.0637 24.128C32.9597 25.616 30.9437 26.36 28.0157 26.36C25.0877 26.36 23.0717 25.616 21.9677 24.128C20.8637 22.64 20.3117 20.252 20.3117 16.964ZM23.0837 16.928C23.0837 19.544 23.3957 21.38 24.0197 22.436C24.6677 23.492 25.9997 24.02 28.0157 24.02C30.0557 24.02 31.3877 23.504 32.0117 22.472C32.6357 21.416 32.9477 19.568 32.9477 16.928C32.9477 14.288 32.5997 12.476 31.9037 11.492C31.2077 10.484 29.9117 9.98 28.0157 9.98C26.1437 9.98 24.8477 10.484 24.1277 11.492C23.4317 12.476 23.0837 14.288 23.0837 16.928ZM42.8232 26H40.1233V8H42.7873V9.26C44.7313 8.18 46.5913 7.64 48.3673 7.64C50.7673 7.64 52.3753 8.288 53.1913 9.584C54.0313 10.88 54.4513 13.184 54.4513 16.496V26H51.7873V16.568C51.7873 14.072 51.5353 12.368 51.0313 11.456C50.5513 10.52 49.5073 10.052 47.8993 10.052C47.1313 10.052 46.3153 10.172 45.4513 10.412C44.6113 10.628 43.9633 10.844 43.5073 11.06L42.8232 11.384V26ZM66.4072 34.46C63.5272 34.46 61.5112 34.064 60.3592 33.272C59.2312 32.504 58.6672 31.088 58.6672 29.024C58.6672 28.04 58.8832 27.236 59.3152 26.612C59.7472 26.012 60.4792 25.328 61.5112 24.56C60.8392 24.104 60.5032 23.276 60.5032 22.076C60.5032 21.668 60.8032 20.912 61.4032 19.808L61.7272 19.232C59.8312 18.368 58.8832 16.556 58.8832 13.796C58.8832 9.692 61.1272 7.64 65.6152 7.64C66.7672 7.64 67.8352 7.76 68.8192 8L69.3592 8.108L74.6872 7.964V10.268L71.2672 10.196C72.0592 10.988 72.4552 12.188 72.4552 13.796C72.4552 16.052 71.8912 17.636 70.7632 18.548C69.6592 19.436 67.9072 19.88 65.5072 19.88C64.8592 19.88 64.2712 19.832 63.7432 19.736C63.3112 20.792 63.0952 21.476 63.0952 21.788C63.0952 22.532 63.3232 23 63.7792 23.192C64.2352 23.36 65.6152 23.444 67.9192 23.444C70.2232 23.444 71.8792 23.804 72.8872 24.524C73.8952 25.244 74.3992 26.648 74.3992 28.736C74.3992 32.552 71.7352 34.46 66.4072 34.46ZM61.3312 28.808C61.3312 30.08 61.6792 30.956 62.3752 31.436C63.0952 31.94 64.4032 32.192 66.2992 32.192C68.2192 32.192 69.5872 31.928 70.4032 31.4C71.2432 30.872 71.6632 29.984 71.6632 28.736C71.6632 27.512 71.3632 26.72 70.7632 26.36C70.1632 26 68.9872 25.82 67.2352 25.82L63.3472 25.64C62.5552 26.216 62.0152 26.72 61.7272 27.152C61.4632 27.584 61.3312 28.136 61.3312 28.808ZM61.5832 13.796C61.5832 15.212 61.8952 16.22 62.5192 16.82C63.1672 17.42 64.2232 17.72 65.6872 17.72C67.1512 17.72 68.1952 17.42 68.8192 16.82C69.4432 16.22 69.7552 15.212 69.7552 13.796C69.7552 12.356 69.4432 11.336 68.8192 10.736C68.1952 10.136 67.1512 9.836 65.6872 9.836C64.2232 9.836 63.1672 10.148 62.5192 10.772C61.8952 11.372 61.5832 12.38 61.5832 13.796ZM83.6034 10.052C80.9874 10.052 79.6794 10.964 79.6794 12.788C79.6794 13.628 79.9794 14.228 80.5794 14.588C81.1794 14.924 82.5474 15.284 84.6834 15.668C86.8194 16.028 88.3314 16.544 89.2194 17.216C90.1074 17.888 90.5514 19.148 90.5514 20.996C90.5514 22.844 89.9514 24.2 88.7514 25.064C87.5754 25.928 85.8474 26.36 83.5674 26.36C82.0794 26.36 80.3274 26.192 78.3114 25.856L77.2314 25.676L77.3754 23.336C80.1114 23.744 82.1754 23.948 83.5674 23.948C84.9594 23.948 86.0154 23.732 86.7354 23.3C87.4794 22.844 87.8514 22.1 87.8514 21.068C87.8514 20.012 87.5394 19.304 86.9154 18.944C86.2914 18.56 84.9234 18.2 82.8114 17.864C80.6994 17.528 79.1994 17.036 78.3114 16.388C77.4234 15.74 76.9794 14.54 76.9794 12.788C76.9794 11.036 77.5914 9.74 78.8154 8.9C80.0634 8.06 81.6114 7.64 83.4594 7.64C84.9234 7.64 86.7594 7.808 88.9674 8.144L89.9754 8.324L89.9034 10.628C87.2394 10.244 85.1394 10.052 83.6034 10.052Z" fill="#666666"/>
<path d="M4.76 10.34L4.18332 11.157L4.19691 11.1666L4.21082 11.1757L4.76 10.34ZM9.8 12.032L9.57716 13.0069L9.58795 13.0093L9.8 12.032ZM15.2 14.228L14.5463 14.9849L14.5564 14.9934L15.2 14.228ZM2.24 25.712L2.39273 24.7237L2.38516 24.7226L2.37757 24.7215L2.24 25.712ZM0.944 25.532L-0.0482779 25.408L-0.170631 26.3868L0.806432 26.5225L0.944 25.532ZM1.232 23.228L1.36321 22.2366L0.364657 22.1045L0.239722 23.104L1.232 23.228ZM12.824 15.992L12.2084 16.78L12.2219 16.7906L12.2358 16.8007L12.824 15.992ZM8.468 14.48L8.25904 15.4579L8.26969 15.4602L8.28038 15.4622L8.468 14.48ZM2.492 12.176L1.85958 12.9507L1.86925 12.9584L2.492 12.176ZM15.056 1.232L14.9105 2.22136L15.056 1.232ZM16.28 1.412L17.2743 1.51907L17.3773 0.562605L16.4255 0.42264L16.28 1.412ZM16.028 3.752L15.9066 4.7446L16.9136 4.86776L17.0223 3.85907L16.028 3.752ZM8.936 2.14C7.03915 2.14 5.43396 2.4922 4.2843 3.35828C3.08129 4.26454 2.536 5.60967 2.536 7.208H4.536C4.536 6.09433 4.89071 5.40546 5.4877 4.95572C6.13805 4.46579 7.23285 4.14 8.936 4.14V2.14ZM2.536 7.208C2.536 8.87065 2.98583 10.3117 4.18332 11.157L5.33668 9.52303C4.90217 9.21632 4.536 8.56935 4.536 7.208H2.536ZM4.21082 11.1757C5.2203 11.8391 7.06834 12.4334 9.57718 13.0069L10.0228 11.0571C7.49166 10.4786 5.9797 9.94492 5.30918 9.50429L4.21082 11.1757ZM9.58795 13.0093C12.0873 13.5516 13.6847 14.2406 14.5464 14.9848L15.8536 13.4712C14.6033 12.3914 12.6007 11.6164 10.012 11.0547L9.58795 13.0093ZM14.5564 14.9934C15.293 15.6128 15.784 16.7383 15.784 18.656H17.784C17.784 16.4457 17.219 14.6192 15.8436 13.4626L14.5564 14.9934ZM15.784 18.656C15.784 21.0483 15.1655 22.6611 14.101 23.687C13.0298 24.7195 11.3349 25.324 8.828 25.324V27.324C11.6251 27.324 13.9082 26.6505 15.489 25.127C17.0765 23.5969 17.784 21.3757 17.784 18.656H15.784ZM8.828 25.324C7.14627 25.324 5.00549 25.1275 2.39273 24.7237L2.08727 26.7003C4.75451 27.1125 7.00574 27.324 8.828 27.324V25.324ZM2.37757 24.7215L1.08157 24.5415L0.806432 26.5225L2.10243 26.7025L2.37757 24.7215ZM1.93628 25.656L2.22428 23.352L0.239722 23.104L-0.0482779 25.408L1.93628 25.656ZM1.10079 24.2194C4.37614 24.6529 6.91259 24.876 8.684 24.876V22.876C7.04742 22.876 4.61586 22.6671 1.36321 22.2366L1.10079 24.2194ZM8.684 24.876C10.5991 24.876 12.2214 24.4276 13.3646 23.3539C14.5195 22.2692 15.012 20.7108 15.012 18.872H13.012C13.012 20.3692 12.6165 21.3128 11.9954 21.8961C11.3626 22.4904 10.3209 22.876 8.684 22.876V24.876ZM15.012 18.872C15.012 17.3366 14.5518 16.0121 13.4122 15.1833L12.2358 16.8007C12.6802 17.1239 13.012 17.7194 13.012 18.872H15.012ZM13.4396 15.204C12.4661 14.4434 10.8006 13.9075 8.65562 13.4978L8.28038 15.4622C10.4074 15.8685 11.6459 16.3406 12.2084 16.78L13.4396 15.204ZM8.67696 13.5021C5.90658 12.9101 4.10347 12.1805 3.11475 11.3936L1.86925 12.9584C3.23253 14.0435 5.41342 14.8499 8.25904 15.4579L8.67696 13.5021ZM3.12438 11.4013C2.27412 10.7073 1.728 9.46508 1.728 7.388H-0.272C-0.272 9.77491 0.357877 11.7247 1.85962 12.9507L3.12438 11.4013ZM1.728 7.388C1.728 5.36264 2.3264 4.00899 3.37552 3.13394C4.45939 2.2299 6.19441 1.692 8.756 1.692V-0.308001C5.96559 -0.308001 3.68661 0.270097 2.09448 1.59806C0.467597 2.95501 -0.272 4.94936 -0.272 7.388H1.728ZM8.756 1.692C10.444 1.692 12.4927 1.8658 14.9105 2.22136L15.2015 0.24264C12.7233 -0.121805 10.572 -0.308001 8.756 -0.308001V1.692ZM14.9105 2.22136L16.1345 2.40136L16.4255 0.42264L15.2015 0.24264L14.9105 2.22136ZM15.2857 1.30493L15.0337 3.64493L17.0223 3.85907L17.2743 1.51907L15.2857 1.30493ZM16.1494 2.7594C12.8135 2.35141 10.3953 2.14 8.936 2.14V4.14C10.2607 4.14 12.5705 4.33659 15.9066 4.7446L16.1494 2.7594ZM22.0757 9.836L22.8553 10.4623L22.0757 9.836ZM33.9557 9.836L33.1698 10.4544L33.1761 10.4623L33.9557 9.836ZM34.0637 24.128L34.8668 24.7238L34.0637 24.128ZM21.9677 24.128L21.1646 24.7238L21.9677 24.128ZM24.0197 22.436L23.1588 22.9447L23.163 22.9519L23.1674 22.959L24.0197 22.436ZM32.0117 22.472L32.8675 22.9894L32.8726 22.9807L32.0117 22.472ZM31.9037 11.492L31.0808 12.0602L31.0873 12.0695L31.9037 11.492ZM24.1277 11.492L23.314 10.9108L23.3113 10.9145L24.1277 11.492ZM21.3117 16.964C21.3117 13.7502 21.8951 11.6577 22.8553 10.4623L21.2961 9.20975C19.9043 10.9423 19.3117 13.6018 19.3117 16.964H21.3117ZM22.8553 10.4623C23.7639 9.33113 25.3843 8.64 28.0157 8.64V6.64C25.0791 6.64 22.7395 7.41287 21.2961 9.20975L22.8553 10.4623ZM28.0157 8.64C30.6767 8.64 32.288 9.33375 33.1698 10.4544L34.7416 9.21761C33.3194 7.41025 30.9708 6.64 28.0157 6.64V8.64ZM33.1761 10.4623C34.1363 11.6577 34.7197 13.7502 34.7197 16.964H36.7197C36.7197 13.6018 36.1271 10.9423 34.7353 9.20975L33.1761 10.4623ZM34.7197 16.964C34.7197 20.1844 34.1706 22.3057 33.2606 23.5322L34.8668 24.7238C36.1648 22.9743 36.7197 20.3196 36.7197 16.964H34.7197ZM33.2606 23.5322C32.4341 24.6462 30.8138 25.36 28.0157 25.36V27.36C31.0736 27.36 33.4854 26.5858 34.8668 24.7238L33.2606 23.5322ZM28.0157 25.36C25.2176 25.36 23.5974 24.6462 22.7708 23.5322L21.1646 24.7238C22.5461 26.5858 24.9578 27.36 28.0157 27.36V25.36ZM22.7708 23.5322C21.8608 22.3057 21.3117 20.1844 21.3117 16.964H19.3117C19.3117 20.3196 19.8666 22.9743 21.1646 24.7238L22.7708 23.5322ZM22.0837 16.928C22.0837 19.5625 22.3871 21.6387 23.1588 22.9447L24.8806 21.9273C24.4044 21.1213 24.0837 19.5255 24.0837 16.928H22.0837ZM23.1674 22.959C24.0905 24.4633 25.8784 25.02 28.0157 25.02V23.02C26.1211 23.02 25.2449 22.5207 24.872 21.913L23.1674 22.959ZM28.0157 25.02C30.1582 25.02 31.9633 24.4848 32.8675 22.9894L31.156 21.9546C30.8122 22.5232 29.9532 23.02 28.0157 23.02V25.02ZM32.8726 22.9807C33.6449 21.6739 33.9477 19.5845 33.9477 16.928H31.9477C31.9477 19.5515 31.6266 21.1581 31.1508 21.9633L32.8726 22.9807ZM33.9477 16.928C33.9477 15.5693 33.8586 14.3888 33.6688 13.4004C33.4808 12.4215 33.1824 11.568 32.7201 10.9145L31.0873 12.0695C31.3211 12.4 31.5447 12.9445 31.7047 13.7776C31.8628 14.6012 31.9477 15.6467 31.9477 16.928H33.9477ZM32.7266 10.9238C31.7583 9.52138 30.0534 8.98 28.0157 8.98V10.98C29.7701 10.98 30.6572 11.4466 31.0808 12.0602L32.7266 10.9238ZM28.0157 8.98C25.9929 8.98 24.3033 9.52573 23.314 10.9108L24.9415 12.0732C25.3921 11.4423 26.2946 10.98 28.0157 10.98V8.98ZM23.3113 10.9145C22.8491 11.568 22.5507 12.4215 22.3627 13.4004C22.1728 14.3888 22.0837 15.5693 22.0837 16.928H24.0837C24.0837 15.6467 24.1686 14.6012 24.3268 13.7776C24.4868 12.9445 24.7104 12.4 24.9441 12.0695L23.3113 10.9145ZM42.8232 26V27H43.8232V26H42.8232ZM40.1232 26H39.1232V27H40.1232V26ZM40.1232 8V7H39.1232V8H40.1232ZM42.7873 8H43.7873V7H42.7873V8ZM42.7873 9.26H41.7873V10.9595L43.2729 10.1342L42.7873 9.26ZM53.1912 9.584L52.3449 10.1169L52.3521 10.1279L53.1912 9.584ZM54.4513 26V27H55.4513V26H54.4513ZM51.7873 26H50.7873V27H51.7873V26ZM51.0312 11.456L50.1414 11.9123L50.1485 11.9261L50.156 11.9397L51.0312 11.456ZM45.4513 10.412L45.7003 11.3805L45.7096 11.3781L45.7189 11.3755L45.4513 10.412ZM43.5073 11.06L43.9353 11.9637L43.5073 11.06ZM42.8232 11.384L42.3952 10.4803L41.8232 10.7512V11.384H42.8232ZM42.8232 25H40.1232V27H42.8232V25ZM41.1232 26V8H39.1232V26H41.1232ZM40.1232 9H42.7873V7H40.1232V9ZM41.7873 8V9.26H43.7873V8H41.7873ZM43.2729 10.1342C45.1052 9.1162 46.7989 8.64 48.3673 8.64V6.64C46.3836 6.64 44.3573 7.24379 42.3016 8.38584L43.2729 10.1342ZM48.3673 8.64C50.6283 8.64 51.7995 9.25044 52.345 10.1168L54.0375 9.05119C52.951 7.32555 50.9062 6.64 48.3673 6.64V8.64ZM52.3521 10.1279C53.0209 11.1597 53.4513 13.2012 53.4513 16.496H55.4513C55.4513 13.1668 55.0416 10.6003 54.0304 9.0401L52.3521 10.1279ZM53.4513 16.496V26H55.4513V16.496H53.4513ZM54.4513 25H51.7873V27H54.4513V25ZM52.7873 26V16.568H50.7873V26H52.7873ZM52.7873 16.568C52.7873 15.2907 52.723 14.1883 52.5875 13.2717C52.4539 12.3683 52.242 11.5793 51.9065 10.9723L50.156 11.9397C50.3246 12.2447 50.4906 12.7637 50.609 13.5643C50.7255 14.3517 50.7873 15.3493 50.7873 16.568H52.7873ZM51.9211 10.9997C51.189 9.57208 49.6637 9.052 47.8993 9.052V11.052C49.3508 11.052 49.9135 11.4679 50.1414 11.9123L51.9211 10.9997ZM47.8993 9.052C47.0272 9.052 46.1206 9.18821 45.1836 9.44848L45.7189 11.3755C46.5099 11.1558 47.2353 11.052 47.8993 11.052V9.052ZM45.2022 9.44351C44.3377 9.6658 43.6192 9.90045 43.0792 10.1563L43.9353 11.9637C44.3073 11.7875 44.8848 11.5902 45.7003 11.3805L45.2022 9.44351ZM43.0792 10.1563L42.3952 10.4803L43.2513 12.2877L43.9353 11.9637L43.0792 10.1563ZM41.8232 11.384V26H43.8232V11.384H41.8232ZM60.3592 33.272L60.9257 32.4479L60.922 32.4454L60.3592 33.272ZM59.3152 26.612L58.5037 26.0277L58.4983 26.0352L58.493 26.0428L59.3152 26.612ZM61.5112 24.56L62.1082 25.3622L63.2367 24.5224L62.0727 23.7325L61.5112 24.56ZM61.4032 19.808L60.5316 19.3177L60.528 19.3241L60.5246 19.3305L61.4032 19.808ZM61.7272 19.232L62.5988 19.7223L63.1325 18.7734L62.1419 18.322L61.7272 19.232ZM68.8192 8L68.5822 8.97152L68.6026 8.97648L68.6231 8.98058L68.8192 8ZM69.3592 8.108L69.1631 9.08858L69.2736 9.11068L69.3862 9.10764L69.3592 8.108ZM74.6872 7.964H75.6872V6.93661L74.6602 6.96436L74.6872 7.964ZM74.6872 10.268L74.6661 11.2678L75.6872 11.2893V10.268H74.6872ZM71.2672 10.196L71.2882 9.19622L68.8008 9.14385L70.5601 10.9031L71.2672 10.196ZM70.7632 18.548L71.3899 19.3272L71.3919 19.3256L70.7632 18.548ZM63.7432 19.736L63.9221 18.7521L63.1246 18.6071L62.8176 19.3574L63.7432 19.736ZM63.7792 23.192L63.3911 24.1136L63.4121 24.1225L63.4335 24.1303L63.7792 23.192ZM72.8872 24.524L72.3059 25.3377L72.8872 24.524ZM62.3752 31.436L62.9487 30.6167L62.9429 30.6128L62.3752 31.436ZM70.4032 31.4L69.871 30.5533L69.8599 30.5604L70.4032 31.4ZM70.7632 26.36L70.2487 27.2175L70.7632 26.36ZM67.2352 25.82L67.1889 26.8189L67.2121 26.82H67.2352V25.82ZM63.3472 25.64L63.3934 24.6411L63.0428 24.6248L62.759 24.8313L63.3472 25.64ZM61.7272 27.152L60.8951 26.5973L60.8842 26.6137L60.8739 26.6306L61.7272 27.152ZM62.5192 16.82L61.8261 17.5408L61.8329 17.5474L61.8398 17.5538L62.5192 16.82ZM68.8192 16.82L68.1261 16.0992L68.1261 16.0992L68.8192 16.82ZM62.5192 10.772L63.2123 11.4928L63.2128 11.4923L62.5192 10.772ZM66.4072 33.46C63.5543 33.46 61.8092 33.0554 60.9257 32.448L59.7927 34.096C61.2132 35.0727 63.5001 35.46 66.4072 35.46V33.46ZM60.922 32.4454C60.1876 31.9454 59.6672 30.9354 59.6672 29.024H57.6672C57.6672 31.2406 58.2747 33.0626 59.7964 34.0986L60.922 32.4454ZM59.6672 29.024C59.6672 28.1835 59.8511 27.5947 60.1374 27.1812L58.493 26.0428C57.9152 26.8773 57.6672 27.8965 57.6672 29.024H59.6672ZM60.1267 27.1963C60.4703 26.7191 61.1072 26.1072 62.1082 25.3622L60.9142 23.7578C59.8512 24.5488 59.024 25.3049 58.5037 26.0277L60.1267 27.1963ZM62.0727 23.7325C61.7897 23.5405 61.5032 23.1126 61.5032 22.076H59.5032C59.5032 23.4394 59.8887 24.6675 60.9497 25.3875L62.0727 23.7325ZM61.5032 22.076C61.5032 22.0877 61.5024 22.0529 61.5278 21.9543C61.5519 21.8606 61.5931 21.7345 61.6577 21.5718C61.7873 21.2453 61.9918 20.8191 62.2818 20.2855L60.5246 19.3305C60.2145 19.9009 59.9691 20.4047 59.7987 20.8342C59.6391 21.2364 59.5032 21.674 59.5032 22.076H61.5032ZM62.2748 20.2983L62.5988 19.7223L60.8556 18.7417L60.5316 19.3177L62.2748 20.2983ZM62.1419 18.322C60.7225 17.6752 59.8832 16.3159 59.8832 13.796H57.8832C57.8832 16.7961 58.9399 19.0608 61.3125 20.142L62.1419 18.322ZM59.8832 13.796C59.8832 11.9223 60.3913 10.694 61.241 9.91697C62.1077 9.12447 63.5043 8.64 65.6152 8.64V6.64C63.2381 6.64 61.2687 7.18152 59.8914 8.44103C58.4971 9.71602 57.8832 11.5657 57.8832 13.796H59.8832ZM65.6152 8.64C66.6981 8.64 67.6856 8.75282 68.5822 8.97152L69.0561 7.02848C67.9848 6.76718 66.8363 6.64 65.6152 6.64V8.64ZM68.6231 8.98058L69.1631 9.08858L69.5553 7.12742L69.0153 7.01942L68.6231 8.98058ZM69.3862 9.10764L74.7142 8.96363L74.6602 6.96436L69.3322 7.10836L69.3862 9.10764ZM73.6872 7.964V10.268H75.6872V7.964H73.6872ZM74.7082 9.26822L71.2882 9.19622L71.2461 11.1958L74.6661 11.2678L74.7082 9.26822ZM70.5601 10.9031C71.0959 11.4389 71.4552 12.3371 71.4552 13.796H73.4552C73.4552 12.0389 73.0225 10.5371 71.9743 9.48889L70.5601 10.9031ZM71.4552 13.796C71.4552 15.919 70.9219 17.1337 70.1345 17.7704L71.3919 19.3256C72.8605 18.1383 73.4552 16.185 73.4552 13.796H71.4552ZM70.1364 17.7688C69.2968 18.4441 67.8234 18.88 65.5072 18.88V20.88C67.991 20.88 70.0216 20.4279 71.3899 19.3272L70.1364 17.7688ZM65.5072 18.88C64.9073 18.88 64.3804 18.8355 63.9221 18.7521L63.5643 20.7199C64.162 20.8285 64.8111 20.88 65.5072 20.88V18.88ZM62.8176 19.3574C62.5965 19.8979 62.4232 20.3611 62.3036 20.7399C62.1943 21.086 62.0952 21.4642 62.0952 21.788H64.0952C64.0952 21.7998 64.1041 21.68 64.2108 21.3421C64.3071 21.0369 64.4578 20.6301 64.6687 20.1146L62.8176 19.3574ZM62.0952 21.788C62.0952 22.7012 62.3886 23.6915 63.3911 24.1136L64.1672 22.2704C64.1622 22.2682 64.1674 22.27 64.1743 22.2766C64.1806 22.2827 64.1758 22.2809 64.1652 22.259C64.1399 22.2071 64.0952 22.0689 64.0952 21.788H62.0952ZM63.4335 24.1303C63.8208 24.273 64.4255 24.3384 65.0954 24.3792C65.8145 24.4229 66.7583 24.444 67.9192 24.444V22.444C66.776 22.444 65.8779 22.4231 65.2169 22.3828C64.8862 22.3627 64.6261 22.3384 64.4304 22.3115C64.333 22.2982 64.2581 22.2851 64.2027 22.2732C64.1447 22.2608 64.1226 22.2528 64.1249 22.2537L63.4335 24.1303ZM67.9192 24.444C70.1692 24.444 71.5604 24.8052 72.3059 25.3377L73.4684 23.7103C72.1979 22.8028 70.2772 22.444 67.9192 22.444V24.444ZM72.3059 25.3377C72.9124 25.7709 73.3992 26.7508 73.3992 28.736H75.3992C75.3992 26.5452 74.878 24.7171 73.4684 23.7103L72.3059 25.3377ZM73.3992 28.736C73.3992 30.3822 72.843 31.4826 71.8189 32.216C70.7333 32.9936 68.982 33.46 66.4072 33.46V35.46C69.1604 35.46 71.4051 34.9724 72.9835 33.842C74.6234 32.6674 75.3992 30.9058 75.3992 28.736H73.3992ZM60.3312 28.808C60.3312 30.2345 60.7235 31.5117 61.8075 32.2592L62.9429 30.6128C62.6349 30.4003 62.3312 29.9255 62.3312 28.808H60.3312ZM61.8017 32.2552C62.7973 32.9521 64.3878 33.192 66.2992 33.192V31.192C64.4186 31.192 63.3931 30.9279 62.9487 30.6168L61.8017 32.2552ZM66.2992 33.192C68.2561 33.192 69.8745 32.9332 70.9464 32.2396L69.8599 30.5604C69.2999 30.9228 68.1823 31.192 66.2992 31.192V33.192ZM70.9354 32.2466C72.1431 31.4875 72.6632 30.2265 72.6632 28.736H70.6632C70.6632 29.7415 70.3433 30.2565 69.871 30.5534L70.9354 32.2466ZM72.6632 28.736C72.6632 27.4261 72.3521 26.1472 71.2777 25.5025L70.2487 27.2175C70.3743 27.2928 70.6632 27.5979 70.6632 28.736H72.6632ZM71.2777 25.5025C70.8146 25.2247 70.2216 25.0643 69.5825 24.9665C68.927 24.8662 68.1405 24.82 67.2352 24.82V26.82C68.0818 26.82 68.7593 26.8638 69.2799 26.9435C69.8168 27.0257 70.1118 27.1353 70.2487 27.2175L71.2777 25.5025ZM67.2814 24.8211L63.3934 24.6411L63.3009 26.6389L67.1889 26.8189L67.2814 24.8211ZM62.759 24.8313C61.9406 25.4265 61.2836 26.0145 60.8951 26.5973L62.5592 27.7067C62.7467 27.4255 63.1698 27.0055 63.9354 26.4487L62.759 24.8313ZM60.8739 26.6306C60.4874 27.263 60.3312 28.0106 60.3312 28.808H62.3312C62.3312 28.2614 62.439 27.905 62.5805 27.6735L60.8739 26.6306ZM60.5832 13.796C60.5832 15.3182 60.9121 16.662 61.8261 17.5408L63.2123 16.0992C62.8782 15.778 62.5832 15.1058 62.5832 13.796H60.5832ZM61.8398 17.5538C62.7615 18.4072 64.1266 18.72 65.6872 18.72V16.72C64.3198 16.72 63.5728 16.4328 63.1986 16.0862L61.8398 17.5538ZM65.6872 18.72C67.2428 18.72 68.6091 18.4093 69.5123 17.5408L68.1261 16.0992C67.7813 16.4307 67.0596 16.72 65.6872 16.72V18.72ZM69.5123 17.5408C70.4262 16.662 70.7552 15.3182 70.7552 13.796H68.7552C68.7552 15.1058 68.4601 15.778 68.1261 16.0992L69.5123 17.5408ZM70.7552 13.796C70.7552 12.2558 70.4289 10.8965 69.5123 10.0152L68.1261 11.4568C68.4575 11.7755 68.7552 12.4562 68.7552 13.796H70.7552ZM69.5123 10.0152C68.6091 9.14666 67.2428 8.836 65.6872 8.836V10.836C67.0596 10.836 67.7813 11.1253 68.1261 11.4568L69.5123 10.0152ZM65.6872 8.836C64.1187 8.836 62.7473 9.16406 61.8255 10.0517L63.2128 11.4923C63.5871 11.1319 64.3277 10.836 65.6872 10.836V8.836ZM61.8261 10.0512C60.9121 10.93 60.5832 12.2738 60.5832 13.796H62.5832C62.5832 12.4862 62.8782 11.814 63.2123 11.4928L61.8261 10.0512ZM80.5794 14.588L80.0649 15.4455L80.0777 15.4532L80.0908 15.4605L80.5794 14.588ZM84.6834 15.668L84.5064 16.6523L84.5172 16.6541L84.6834 15.668ZM89.2194 17.216L89.8228 16.4186L89.2194 17.216ZM88.7514 25.064L88.167 24.2524L88.1593 24.2581L88.7514 25.064ZM78.3114 25.856L78.147 26.8424L78.3114 25.856ZM77.2314 25.676L76.2333 25.6146L76.1779 26.5142L77.067 26.6624L77.2314 25.676ZM77.3754 23.336L77.5229 22.3469L76.4442 22.1861L76.3773 23.2746L77.3754 23.336ZM86.7354 23.3L87.2499 24.1575L87.2579 24.1526L86.7354 23.3ZM86.9154 18.944L86.3913 19.7957L86.4034 19.8031L86.4156 19.8102L86.9154 18.944ZM82.8114 17.864L82.9685 16.8764L82.8114 17.864ZM78.3114 16.388L78.9008 15.5802L78.3114 16.388ZM78.8154 8.9L78.257 8.07038L78.2495 8.07549L78.8154 8.9ZM88.9674 8.144L89.1432 7.15957L89.1305 7.15731L89.1178 7.15538L88.9674 8.144ZM89.9754 8.324L90.9749 8.35523L91.0019 7.49148L90.1512 7.33957L89.9754 8.324ZM89.9034 10.628L89.7607 11.6178L90.8679 11.7774L90.9029 10.6592L89.9034 10.628ZM83.6034 9.052C82.2099 9.052 80.9868 9.28933 80.0884 9.91571C79.1245 10.5878 78.6794 11.6034 78.6794 12.788H80.6794C80.6794 12.1486 80.8883 11.7962 81.2323 11.5563C81.642 11.2707 82.3808 11.052 83.6034 11.052V9.052ZM78.6794 12.788C78.6794 13.8967 79.0991 14.866 80.0649 15.4455L81.0939 13.7305C80.8597 13.59 80.6794 13.3593 80.6794 12.788H78.6794ZM80.0908 15.4605C80.5071 15.6937 81.1022 15.8932 81.8009 16.0771C82.5202 16.2664 83.4245 16.4577 84.5064 16.6522L84.8603 14.6838C83.8062 14.4943 82.9586 14.3136 82.3099 14.1429C81.6406 13.9668 81.2516 13.8183 81.068 13.7155L80.0908 15.4605ZM84.5172 16.6541C86.6176 17.0081 87.9285 17.4932 88.6159 18.0134L89.8228 16.4186C88.7343 15.5948 87.0212 15.0479 84.8496 14.6819L84.5172 16.6541ZM88.6159 18.0134C89.1268 18.4 89.5514 19.2565 89.5514 20.996H91.5514C91.5514 19.0395 91.088 17.376 89.8228 16.4186L88.6159 18.0134ZM89.5514 20.996C89.5514 22.6122 89.0409 23.6233 88.1671 24.2525L89.3357 25.8755C90.8619 24.7767 91.5514 23.0758 91.5514 20.996H89.5514ZM88.1593 24.2581C87.2272 24.9429 85.7461 25.36 83.5674 25.36V27.36C85.9486 27.36 87.9235 26.9131 89.3435 25.8699L88.1593 24.2581ZM83.5674 25.36C82.1505 25.36 80.456 25.1996 78.4758 24.8696L78.147 26.8424C80.1988 27.1844 82.0082 27.36 83.5674 27.36V25.36ZM78.4758 24.8696L77.3958 24.6896L77.067 26.6624L78.147 26.8424L78.4758 24.8696ZM78.2295 25.7374L78.3735 23.3974L76.3773 23.2746L76.2333 25.6146L78.2295 25.7374ZM77.2279 24.3251C79.975 24.7347 82.0987 24.948 83.5674 24.948V22.948C82.2521 22.948 80.2478 22.7533 77.5229 22.3469L77.2279 24.3251ZM83.5674 24.948C85.0343 24.948 86.3033 24.7254 87.2499 24.1575L86.2209 22.4425C85.7274 22.7386 84.8845 22.948 83.5674 22.948V24.948ZM87.2579 24.1526C88.357 23.479 88.8514 22.3734 88.8514 21.068H86.8514C86.8514 21.8266 86.6018 22.209 86.2128 22.4474L87.2579 24.1526ZM88.8514 21.068C88.8514 19.8374 88.4797 18.692 87.4151 18.0778L86.4156 19.8102C86.5991 19.916 86.8514 20.1866 86.8514 21.068H88.8514ZM87.4395 18.0923C86.9984 17.8209 86.3839 17.6052 85.6759 17.4189C84.948 17.2274 84.0425 17.0473 82.9685 16.8764L82.6543 18.8516C83.6922 19.0167 84.5267 19.1846 85.1669 19.3531C85.8269 19.5267 86.2084 19.6831 86.3913 19.7957L87.4395 18.0923ZM82.9685 16.8764C80.8917 16.546 79.5893 16.0826 78.9008 15.5802L77.7219 17.1958C78.8095 17.9894 80.507 18.51 82.6543 18.8516L82.9685 16.8764ZM78.9008 15.5802C78.3945 15.2107 77.9794 14.4132 77.9794 12.788H75.9794C75.9794 14.6668 76.4522 16.2693 77.7219 17.1958L78.9008 15.5802ZM77.9794 12.788C77.9794 11.2974 78.4808 10.3425 79.3812 9.72451L78.2495 8.07549C76.702 9.13752 75.9794 10.7746 75.9794 12.788H77.9794ZM79.3737 9.72959C80.4224 9.02376 81.7645 8.64 83.4594 8.64V6.64C81.4583 6.64 79.7043 7.09624 78.257 8.07041L79.3737 9.72959ZM83.4594 8.64C84.8542 8.64 86.6357 8.8007 88.8169 9.13262L89.1178 7.15538C86.883 6.8153 84.9926 6.64 83.4594 6.64V8.64ZM88.7916 9.12843L89.7996 9.30843L90.1512 7.33957L89.1432 7.15957L88.7916 9.12843ZM88.9759 8.29276L88.9039 10.5968L90.9029 10.6592L90.9749 8.35523L88.9759 8.29276ZM90.046 9.63823C87.3643 9.25167 85.2097 9.052 83.6034 9.052V11.052C85.069 11.052 87.1145 11.2363 89.7607 11.6178L90.046 9.63823Z" fill="black" mask="url(#path-1-outside-1_140_971)"/>
</svg>
