<svg width="205" height="57" viewBox="0 0 205 57" fill="none" xmlns="http://www.w3.org/2000/svg">
<g filter="url(#filter0_i_334_6)">
<rect width="205" height="57" rx="28.5" fill="#BDB4A4"/>
<rect width="205" height="57" rx="28.5" fill="url(#paint0_linear_334_6)"/>
<rect width="205" height="57" rx="28.5" fill="url(#paint1_linear_334_6)"/>
</g>
<path d="M82.648 31.664L82.672 29.792L82.888 19.76C82.888 19.568 82.992 19.416 83.2 19.304C83.408 19.192 83.672 19.136 83.992 19.136C84.76 19.136 85.144 19.408 85.144 19.952C85.144 20.128 85.048 21.472 84.856 23.984C84.68 26.496 84.592 28 84.592 28.496C84.592 28.496 84.592 29.344 84.592 31.04C84.592 32.24 84.672 32.896 84.832 33.008C85.072 33.088 85.352 33.128 85.672 33.128L89.128 32.888C89.88 32.888 90.256 33.16 90.256 33.704C90.256 34.136 90.048 34.456 89.632 34.664C89.232 34.856 88.832 34.968 88.432 35C88.032 35.016 87.544 35.024 86.968 35.024C84.456 35.024 83.096 34.944 82.888 34.784C82.776 34.688 82.712 34.328 82.696 33.704C82.68 33.064 82.664 32.616 82.648 32.36C82.648 32.104 82.648 31.872 82.648 31.664ZM96.0897 23.816C97.2417 23.816 98.1857 24.368 98.9217 25.472C99.6737 26.576 100.05 27.904 100.05 29.456C100.05 30.992 99.6657 32.304 98.8977 33.392C98.1457 34.48 97.1377 35.024 95.8737 35.024C94.6257 35.024 93.6177 34.472 92.8497 33.368C92.0817 32.248 91.6977 31.008 91.6977 29.648C91.6977 27.904 92.0497 26.512 92.7537 25.472C93.5057 24.368 94.6177 23.816 96.0897 23.816ZM95.8017 25.784C95.1297 25.784 94.5777 26.136 94.1457 26.84C93.7137 27.544 93.4977 28.288 93.4977 29.072C93.4977 30.288 93.7377 31.216 94.2177 31.856C94.6977 32.496 95.2417 32.816 95.8497 32.816C96.9377 32.816 97.6337 32.344 97.9377 31.4C98.0657 30.952 98.1297 30.392 98.1297 29.72C98.1297 27.096 97.3537 25.784 95.8017 25.784ZM108.409 34.016C107.833 34.688 107.105 35.024 106.225 35.024C105.345 35.024 104.585 34.752 103.945 34.208C102.601 33.168 101.929 31.576 101.929 29.432C101.929 27.752 102.393 26.408 103.321 25.4C104.249 24.376 105.393 23.864 106.753 23.864C108.113 23.864 109.041 24.328 109.537 25.256C109.969 26.072 110.185 27.304 110.185 28.952L110.137 30.92C110.137 31.848 110.177 33.136 110.257 34.784C110.353 36.416 110.401 37.648 110.401 38.48C110.401 39.856 110.057 40.864 109.369 41.504C108.697 42.16 107.665 42.488 106.273 42.488C105.441 42.488 104.593 42.312 103.729 41.96C102.865 41.608 102.433 41.2 102.433 40.736C102.433 40.4 102.521 40.144 102.697 39.968C102.889 39.792 103.105 39.704 103.345 39.704C103.585 39.704 104.121 39.88 104.953 40.232C105.801 40.584 106.409 40.76 106.777 40.76C107.929 40.76 108.505 39.816 108.505 37.928C108.505 36.04 108.473 34.736 108.409 34.016ZM108.385 28.952C108.385 27.784 108.209 26.968 107.857 26.504C107.521 26.024 106.985 25.784 106.249 25.784C105.513 25.784 104.921 26.12 104.473 26.792C104.025 27.464 103.801 28.32 103.801 29.36C103.801 30.384 104.009 31.2 104.425 31.808C104.857 32.416 105.513 32.72 106.393 32.72C107.273 32.72 107.841 32.344 108.097 31.592C108.289 30.984 108.385 30.104 108.385 28.952ZM113.793 19.832C114.081 19.832 114.353 19.968 114.609 20.24C114.865 20.512 114.993 20.8 114.993 21.104C114.993 21.392 114.849 21.688 114.561 21.992C114.289 22.296 114.001 22.448 113.697 22.448C113.393 22.448 113.113 22.32 112.857 22.064C112.617 21.808 112.497 21.48 112.497 21.08C112.497 20.312 112.913 19.896 113.745 19.832C113.761 19.832 113.777 19.832 113.793 19.832ZM114.801 32.408L114.825 34.088C114.825 34.392 114.705 34.648 114.465 34.856C114.225 35.048 113.969 35.144 113.697 35.144C113.297 35.144 113.089 34.944 113.073 34.544C112.865 29.44 112.761 26.616 112.761 26.072C112.761 25.528 112.785 24.864 112.833 24.08C112.865 23.792 113.049 23.648 113.385 23.648C114.233 23.648 114.713 23.992 114.825 24.68C114.873 25.032 114.897 25.312 114.897 25.52L114.801 27.032V32.408ZM118.488 34.256L118.224 24.512C118.224 24.208 118.328 23.96 118.536 23.768C118.744 23.576 118.952 23.48 119.16 23.48C119.672 23.48 119.968 23.696 120.048 24.128C120.112 24.56 120.144 25.008 120.144 25.472C121.008 24.336 122.088 23.768 123.384 23.768C125.368 23.768 126.36 26.032 126.36 30.56C126.36 30.976 126.36 31.608 126.36 32.456C126.36 33.288 126.312 33.896 126.216 34.28C126.104 34.76 125.76 35 125.184 35C124.8 35 124.608 34.744 124.608 34.232L124.632 32.888C124.632 31.032 124.568 29.768 124.44 29.096C124.328 28.408 124.216 27.864 124.104 27.464C123.832 26.6 123.392 26.168 122.784 26.168C121.984 26.168 121.424 26.456 121.104 27.032C120.752 27.656 120.544 28.392 120.48 29.24C120.368 30.728 120.312 32.304 120.312 33.968C120.312 34.288 120.192 34.544 119.952 34.736C119.712 34.928 119.424 35.024 119.088 35.024C118.688 35.024 118.488 34.768 118.488 34.256Z" fill="black"/>
<defs>
<filter id="filter0_i_334_6" x="0" y="0" width="205" height="61" filterUnits="userSpaceOnUse" color-interpolation-filters="sRGB">
<feFlood flood-opacity="0" result="BackgroundImageFix"/>
<feBlend mode="normal" in="SourceGraphic" in2="BackgroundImageFix" result="shape"/>
<feColorMatrix in="SourceAlpha" type="matrix" values="0 0 0 0 0 0 0 0 0 0 0 0 0 0 0 0 0 0 127 0" result="hardAlpha"/>
<feOffset dy="4"/>
<feGaussianBlur stdDeviation="2"/>
<feComposite in2="hardAlpha" operator="arithmetic" k2="-1" k3="1"/>
<feColorMatrix type="matrix" values="0 0 0 0 0 0 0 0 0 0 0 0 0 0 0 0 0 0 0.25 0"/>
<feBlend mode="normal" in2="shape" result="effect1_innerShadow_334_6"/>
</filter>
<linearGradient id="paint0_linear_334_6" x1="0" y1="28.5" x2="205" y2="28.5" gradientUnits="userSpaceOnUse">
<stop stop-color="#BBBFAF"/>
<stop offset="1" stop-color="#575952"/>
</linearGradient>
<linearGradient id="paint1_linear_334_6" x1="102.5" y1="0" x2="102.5" y2="57" gradientUnits="userSpaceOnUse">
<stop stop-color="white"/>
<stop offset="1" stop-color="#999999"/>
</linearGradient>
</defs>
</svg>
