<svg width="232" height="54" viewBox="0 0 232 54" fill="none" xmlns="http://www.w3.org/2000/svg">
<g filter="url(#filter0_i_397_2)">
<rect width="232" height="54" rx="27" fill="#8F8D8D"/>
<rect width="232" height="54" rx="27" fill="url(#paint0_linear_397_2)"/>
<rect width="232" height="54" rx="27" fill="url(#paint1_linear_397_2)"/>
</g>
<path d="M86.856 35.968C86.856 36.256 86.728 36.52 86.472 36.76C86.216 36.984 85.936 37.096 85.632 37.096C85.344 37.096 85.144 36.904 85.032 36.52C84.984 34.408 84.96 32.304 84.96 30.208L84.888 24.16C84.888 22.944 85.424 22.112 86.496 21.664C87.36 21.264 88.384 21.064 89.568 21.064C90.176 21.064 90.824 21.216 91.512 21.52C92.216 21.808 92.84 22.24 93.384 22.816C93.944 23.376 94.224 23.992 94.224 24.664C94.224 25.32 93.92 26.032 93.312 26.8C92.704 27.552 91.952 28.224 91.056 28.816C90.16 29.392 89.288 29.824 88.44 30.112C89.928 31.152 91.224 32.272 92.328 33.472C93.432 34.656 93.984 35.576 93.984 36.232C93.984 36.44 93.88 36.64 93.672 36.832C93.464 37.008 93.208 37.096 92.904 37.096C92.616 37.096 92.368 36.968 92.16 36.712C91.808 35.864 91.136 34.976 90.144 34.048C89.168 33.104 88.024 32.208 86.712 31.36L86.856 35.968ZM86.76 28.768C87.832 28.72 89.032 28.272 90.36 27.424C91.704 26.576 92.376 25.816 92.376 25.144C92.376 24.456 92.04 23.928 91.368 23.56C90.696 23.192 89.896 23.008 88.968 23.008C88.056 23.008 87.328 23.12 86.784 23.344C86.768 24.16 86.76 25.968 86.76 28.768ZM99.2664 25.888C100.114 25.888 100.922 26.136 101.69 26.632C102.458 27.128 102.842 27.744 102.842 28.48C102.842 29.2 102.53 29.904 101.906 30.592C101.282 31.264 100.45 31.672 99.4104 31.816C98.9624 31.88 98.2904 31.912 97.3944 31.912C97.5704 33.272 97.9144 34.168 98.4264 34.6C98.5864 34.776 98.8024 34.864 99.0744 34.864C100.066 34.864 100.898 34.552 101.57 33.928C102.242 33.288 102.722 32.968 103.01 32.968C103.138 32.968 103.33 33.088 103.586 33.328C103.842 33.568 103.97 33.792 103.97 34C103.97 34.416 103.466 35.016 102.458 35.8C102.01 36.168 101.466 36.48 100.826 36.736C100.202 36.976 99.6184 37.096 99.0744 37.096C97.6824 37.096 96.6584 36.2 96.0024 34.408C95.5864 33.304 95.3784 32.088 95.3784 30.76C95.3784 29.432 95.6904 28.288 96.3144 27.328C96.9384 26.368 97.9224 25.888 99.2664 25.888ZM99.3864 27.544C98.7784 27.544 98.2584 27.888 97.8264 28.576C97.6664 28.816 97.5144 29.36 97.3704 30.208C99.6104 30.208 100.73 29.656 100.73 28.552C100.73 27.88 100.282 27.544 99.3864 27.544ZM112.261 36.016C111.685 36.688 110.957 37.024 110.077 37.024C109.197 37.024 108.437 36.752 107.797 36.208C106.453 35.168 105.781 33.576 105.781 31.432C105.781 29.752 106.245 28.408 107.173 27.4C108.101 26.376 109.245 25.864 110.605 25.864C111.965 25.864 112.893 26.328 113.389 27.256C113.821 28.072 114.037 29.304 114.037 30.952L113.989 32.92C113.989 33.848 114.029 35.136 114.109 36.784C114.205 38.416 114.253 39.648 114.253 40.48C114.253 41.856 113.909 42.864 113.221 43.504C112.549 44.16 111.517 44.488 110.125 44.488C109.293 44.488 108.445 44.312 107.581 43.96C106.717 43.608 106.285 43.2 106.285 42.736C106.285 42.4 106.373 42.144 106.549 41.968C106.741 41.792 106.957 41.704 107.197 41.704C107.437 41.704 107.973 41.88 108.805 42.232C109.653 42.584 110.261 42.76 110.629 42.76C111.781 42.76 112.357 41.816 112.357 39.928C112.357 38.04 112.325 36.736 112.261 36.016ZM112.237 30.952C112.237 29.784 112.061 28.968 111.709 28.504C111.373 28.024 110.837 27.784 110.101 27.784C109.365 27.784 108.773 28.12 108.325 28.792C107.877 29.464 107.653 30.32 107.653 31.36C107.653 32.384 107.861 33.2 108.277 33.808C108.709 34.416 109.365 34.72 110.245 34.72C111.125 34.72 111.693 34.344 111.949 33.592C112.141 32.984 112.237 32.104 112.237 30.952ZM117.644 21.832C117.932 21.832 118.204 21.968 118.46 22.24C118.716 22.512 118.844 22.8 118.844 23.104C118.844 23.392 118.7 23.688 118.412 23.992C118.14 24.296 117.852 24.448 117.548 24.448C117.244 24.448 116.964 24.32 116.708 24.064C116.468 23.808 116.348 23.48 116.348 23.08C116.348 22.312 116.764 21.896 117.596 21.832C117.612 21.832 117.628 21.832 117.644 21.832ZM118.652 34.408L118.676 36.088C118.676 36.392 118.556 36.648 118.316 36.856C118.076 37.048 117.82 37.144 117.548 37.144C117.148 37.144 116.94 36.944 116.924 36.544C116.716 31.44 116.612 28.616 116.612 28.072C116.612 27.528 116.636 26.864 116.684 26.08C116.716 25.792 116.9 25.648 117.236 25.648C118.084 25.648 118.564 25.992 118.676 26.68C118.724 27.032 118.748 27.312 118.748 27.52L118.652 29.032V34.408ZM121.836 28.84C121.836 27.896 122.172 27.144 122.844 26.584C123.516 26.024 124.292 25.744 125.172 25.744C126.068 25.744 126.924 25.904 127.74 26.224C128.556 26.544 128.964 26.968 128.964 27.496C128.964 27.768 128.86 27.984 128.652 28.144C128.444 28.304 128.26 28.384 128.1 28.384C127.956 28.384 127.836 28.384 127.74 28.384C127.66 28.368 127.34 28.216 126.78 27.928C126.236 27.64 125.732 27.496 125.268 27.496C124.804 27.496 124.404 27.616 124.068 27.856C123.748 28.08 123.588 28.416 123.588 28.864C123.588 29.312 123.772 29.664 124.14 29.92C124.524 30.176 125.188 30.4 126.132 30.592C127.076 30.768 127.796 31.024 128.292 31.36C128.804 31.696 129.06 32.32 129.06 33.232C129.06 34.56 128.708 35.504 128.004 36.064C127.316 36.608 126.476 36.88 125.484 36.88C124.492 36.88 123.644 36.744 122.94 36.472C122.252 36.2 121.908 35.792 121.908 35.248C121.908 34.624 122.22 34.312 122.844 34.312C123.004 34.312 123.356 34.424 123.9 34.648C124.444 34.872 124.98 34.984 125.508 34.984C126.052 34.984 126.46 34.816 126.732 34.48C127.02 34.128 127.164 33.728 127.164 33.28C127.164 32.832 126.98 32.512 126.612 32.32C126.244 32.112 125.684 31.944 124.932 31.816C124.18 31.688 123.628 31.552 123.276 31.408C122.316 31.024 121.836 30.168 121.836 28.84ZM131.262 25.792L132.462 25.816C132.734 25.816 132.886 25.808 132.918 25.792V20.872C132.934 20.6 133.07 20.368 133.326 20.176C133.582 19.984 133.822 19.888 134.046 19.888C134.27 19.888 134.446 19.96 134.574 20.104C134.718 20.248 134.782 20.472 134.766 20.776C134.75 21.08 134.742 22.744 134.742 25.768L137.55 25.672C138.03 25.672 138.27 25.952 138.27 26.512C138.27 26.928 138.142 27.24 137.886 27.448C137.646 27.656 137.382 27.768 137.094 27.784C136.822 27.8 136.55 27.808 136.278 27.808L134.814 27.784C134.814 28.44 134.878 29.736 135.006 31.672C135.15 33.608 135.262 34.864 135.342 35.44C135.422 36 135.438 36.368 135.39 36.544C135.342 36.704 135.254 36.816 135.126 36.88C134.918 36.976 134.638 37.024 134.286 37.024C133.934 37.024 133.726 36.832 133.662 36.448C133.342 34.352 133.126 31.472 133.014 27.808C132.87 27.824 132.318 27.832 131.358 27.832C130.398 27.832 129.918 27.552 129.918 26.992C129.918 26.192 130.366 25.792 131.262 25.792ZM142.368 25.888C143.216 25.888 144.024 26.136 144.792 26.632C145.56 27.128 145.944 27.744 145.944 28.48C145.944 29.2 145.632 29.904 145.008 30.592C144.384 31.264 143.552 31.672 142.512 31.816C142.064 31.88 141.392 31.912 140.496 31.912C140.672 33.272 141.016 34.168 141.528 34.6C141.688 34.776 141.904 34.864 142.176 34.864C143.168 34.864 144 34.552 144.672 33.928C145.344 33.288 145.824 32.968 146.112 32.968C146.24 32.968 146.432 33.088 146.688 33.328C146.944 33.568 147.072 33.792 147.072 34C147.072 34.416 146.568 35.016 145.56 35.8C145.112 36.168 144.568 36.48 143.928 36.736C143.304 36.976 142.72 37.096 142.176 37.096C140.784 37.096 139.76 36.2 139.104 34.408C138.688 33.304 138.48 32.088 138.48 30.76C138.48 29.432 138.792 28.288 139.416 27.328C140.04 26.368 141.024 25.888 142.368 25.888ZM142.488 27.544C141.88 27.544 141.36 27.888 140.928 28.576C140.768 28.816 140.616 29.36 140.472 30.208C142.712 30.208 143.832 29.656 143.832 28.552C143.832 27.88 143.384 27.544 142.488 27.544ZM151.571 33.496L151.595 35.968C151.595 36.256 151.459 36.52 151.187 36.76C150.931 37 150.675 37.12 150.419 37.12C150.051 37.12 149.819 36.832 149.723 36.256C149.707 36.128 149.643 34.96 149.531 32.752C149.419 30.528 149.203 28.784 148.883 27.52C148.739 26.912 148.667 26.552 148.667 26.44C148.667 25.912 148.987 25.648 149.627 25.648C149.899 25.648 150.115 25.752 150.275 25.96C150.435 26.168 150.531 26.384 150.562 26.608C150.611 26.816 150.651 27.104 150.683 27.472C150.715 27.84 150.738 28.072 150.755 28.168C151.091 27.368 151.595 26.768 152.267 26.368C152.939 25.968 153.675 25.768 154.475 25.768C155.787 25.768 156.443 26.104 156.443 26.776C156.443 27.112 156.323 27.384 156.083 27.592C155.859 27.784 155.595 27.88 155.291 27.88C153.931 27.88 152.971 28.312 152.411 29.176C151.851 30.04 151.571 31.48 151.571 33.496Z" fill="black"/>
<defs>
<filter id="filter0_i_397_2" x="0" y="0" width="232" height="58" filterUnits="userSpaceOnUse" color-interpolation-filters="sRGB">
<feFlood flood-opacity="0" result="BackgroundImageFix"/>
<feBlend mode="normal" in="SourceGraphic" in2="BackgroundImageFix" result="shape"/>
<feColorMatrix in="SourceAlpha" type="matrix" values="0 0 0 0 0 0 0 0 0 0 0 0 0 0 0 0 0 0 127 0" result="hardAlpha"/>
<feOffset dy="4"/>
<feGaussianBlur stdDeviation="2"/>
<feComposite in2="hardAlpha" operator="arithmetic" k2="-1" k3="1"/>
<feColorMatrix type="matrix" values="0 0 0 0 0 0 0 0 0 0 0 0 0 0 0 0 0 0 0.25 0"/>
<feBlend mode="normal" in2="shape" result="effect1_innerShadow_397_2"/>
</filter>
<linearGradient id="paint0_linear_397_2" x1="0" y1="27" x2="232" y2="27" gradientUnits="userSpaceOnUse">
<stop stop-color="#BBBFAF"/>
<stop offset="1" stop-color="#575952"/>
</linearGradient>
<linearGradient id="paint1_linear_397_2" x1="116" y1="0" x2="116" y2="54" gradientUnits="userSpaceOnUse">
<stop stop-color="white"/>
<stop offset="1" stop-color="#999999"/>
</linearGradient>
</defs>
</svg>
