<svg width="51" height="36" viewBox="0 0 51 36" fill="none" xmlns="http://www.w3.org/2000/svg">
<path d="M39.8438 20H11.1562C10.2638 20 9.5625 19.12 9.5625 18C9.5625 16.88 10.2638 16 11.1562 16H39.8438C40.7362 16 41.4375 16.88 41.4375 18C41.4375 19.12 40.7362 20 39.8438 20Z" fill="black"/>
<path d="M19.125 34C18.916 34.0032 18.7087 33.9515 18.5166 33.8481C18.3245 33.7448 18.1517 33.5921 18.0094 33.4L6.85313 19.4C6.21563 18.6 6.21563 17.36 6.85313 16.56L18.0094 2.6C18.6469 1.8 19.635 1.8 20.2725 2.6C20.91 3.4 20.91 4.64 20.2725 5.44L10.2319 18.04L20.2725 30.64C20.91 31.44 20.91 32.68 20.2725 33.48C19.9538 33.88 19.5394 34.08 19.1569 34.08L19.125 34Z" fill="black"/>
</svg>
