<svg width="151" height="52" viewBox="0 0 151 52" fill="none" xmlns="http://www.w3.org/2000/svg">
<rect width="151" height="52" rx="26" fill="#666666"/>
<rect width="151" height="52" rx="26" fill="url(#paint0_linear_424_30)"/>
<path d="M21.064 15.304C22.136 15.304 23.32 15.512 24.616 15.928C24.904 16.152 25.048 16.4 25.048 16.672C25.048 16.928 24.912 17.16 24.64 17.368C24.384 17.56 24.088 17.656 23.752 17.656C22.888 17.432 22.08 17.32 21.328 17.32C19.6 17.32 18.288 17.832 17.392 18.856C16.496 19.88 16.048 21.4 16.048 23.416C16.048 25.432 16.576 27.008 17.632 28.144C18.176 28.736 18.824 29.032 19.576 29.032C20.328 29.032 21.528 28.632 23.176 27.832C23.752 27.56 24.136 27.424 24.328 27.424C24.744 27.424 24.952 27.64 24.952 28.072C24.952 28.504 24.752 28.864 24.352 29.152C22.976 29.872 21.904 30.36 21.136 30.616C20.368 30.856 19.704 30.976 19.144 30.976C17.992 30.976 17.008 30.552 16.192 29.704C14.736 28.136 14.008 26 14.008 23.296C14.008 20.576 14.696 18.568 16.072 17.272C17.464 15.96 19.128 15.304 21.064 15.304ZM29.6284 23.224L29.8204 28.888C29.8204 29.592 29.7884 30 29.7244 30.112C29.6924 30.4 29.5964 30.624 29.4364 30.784C29.2924 30.944 29.0044 31.024 28.5724 31.024C28.3644 31.024 28.1964 30.896 28.0684 30.64C27.9404 30.368 27.8684 30.064 27.8524 29.728C27.7404 26.912 27.5884 24.272 27.3964 21.808C27.2204 19.328 27.1324 17.024 27.1324 14.896C27.1324 14.56 27.2444 14.296 27.4684 14.104C27.6924 13.912 27.9564 13.816 28.2604 13.816C28.7084 13.816 28.9724 14.2 29.0524 14.968C29.1484 15.736 29.2044 16.696 29.2204 17.848C29.2524 19 29.2844 19.84 29.3164 20.368C30.1164 19.952 30.9164 19.744 31.7164 19.744C33.5724 19.744 34.7484 20.56 35.2444 22.192C35.5324 23.12 35.6764 24.312 35.6764 25.768C35.6764 26.248 35.6284 27.008 35.5324 28.048C35.4524 29.072 35.4044 29.736 35.3884 30.04C35.3724 30.344 35.2364 30.584 34.9804 30.76C34.7404 30.92 34.4764 31 34.1884 31C33.7404 31 33.5164 30.76 33.5164 30.28L33.6844 26.104C33.6844 25.752 33.6684 25.168 33.6364 24.352C33.6044 23.536 33.4364 22.888 33.1324 22.408C32.8444 21.928 32.3324 21.688 31.5964 21.688C30.2844 21.688 29.6284 22.2 29.6284 23.224ZM43.8346 19.792C44.5386 19.792 44.8906 20.392 44.8906 21.592C44.8906 21.72 44.8906 21.856 44.8906 22L44.8426 23.68C44.8266 24.208 44.8186 24.728 44.8186 25.24L45.1786 30.664C45.1786 31.064 44.7706 31.264 43.9546 31.264C43.9066 31.264 43.7866 31.264 43.5946 31.264C43.4186 31.264 43.2906 31.192 43.2106 31.048C43.1466 30.904 43.1386 30.728 43.1866 30.52C43.2506 30.312 43.2346 30.08 43.1386 29.824C42.4026 30.608 41.4266 31 40.2106 31C37.9546 31 36.8266 29.256 36.8266 25.768C36.8266 23.832 37.1866 22.368 37.9066 21.376C38.6426 20.384 39.6906 19.888 41.0506 19.888C41.6906 19.888 42.3306 20 42.9706 20.224C43.1786 19.936 43.4666 19.792 43.8346 19.792ZM41.3386 21.976C40.4266 21.976 39.7466 22.24 39.2986 22.768C38.8506 23.296 38.6266 24.264 38.6266 25.672C38.6266 28.04 39.2666 29.224 40.5466 29.224C40.8826 29.224 41.2506 29.072 41.6506 28.768C42.0666 28.464 42.3546 28.12 42.5146 27.736C42.8186 26.872 42.9706 25.928 42.9706 24.904C42.9706 23.88 42.8426 23.136 42.5866 22.672C42.3466 22.208 41.9306 21.976 41.3386 21.976ZM47.449 30.256L47.185 20.512C47.185 20.208 47.289 19.96 47.497 19.768C47.705 19.576 47.913 19.48 48.121 19.48C48.633 19.48 48.929 19.696 49.009 20.128C49.073 20.56 49.105 21.008 49.105 21.472C49.969 20.336 51.049 19.768 52.345 19.768C54.329 19.768 55.321 22.032 55.321 26.56C55.321 26.976 55.321 27.608 55.321 28.456C55.321 29.288 55.273 29.896 55.177 30.28C55.065 30.76 54.721 31 54.145 31C53.761 31 53.569 30.744 53.569 30.232L53.593 28.888C53.593 27.032 53.529 25.768 53.401 25.096C53.289 24.408 53.177 23.864 53.065 23.464C52.793 22.6 52.353 22.168 51.745 22.168C50.945 22.168 50.385 22.456 50.065 23.032C49.713 23.656 49.505 24.392 49.441 25.24C49.329 26.728 49.273 28.304 49.273 29.968C49.273 30.288 49.153 30.544 48.913 30.736C48.673 30.928 48.385 31.024 48.049 31.024C47.649 31.024 47.449 30.768 47.449 30.256ZM64.2766 30.016C63.7006 30.688 62.9726 31.024 62.0926 31.024C61.2126 31.024 60.4526 30.752 59.8126 30.208C58.4686 29.168 57.7966 27.576 57.7966 25.432C57.7966 23.752 58.2606 22.408 59.1886 21.4C60.1166 20.376 61.2606 19.864 62.6206 19.864C63.9806 19.864 64.9086 20.328 65.4046 21.256C65.8366 22.072 66.0526 23.304 66.0526 24.952L66.0046 26.92C66.0046 27.848 66.0446 29.136 66.1246 30.784C66.2206 32.416 66.2686 33.648 66.2686 34.48C66.2686 35.856 65.9246 36.864 65.2366 37.504C64.5646 38.16 63.5326 38.488 62.1406 38.488C61.3086 38.488 60.4606 38.312 59.5966 37.96C58.7326 37.608 58.3006 37.2 58.3006 36.736C58.3006 36.4 58.3886 36.144 58.5646 35.968C58.7566 35.792 58.9726 35.704 59.2126 35.704C59.4526 35.704 59.9886 35.88 60.8206 36.232C61.6686 36.584 62.2766 36.76 62.6446 36.76C63.7966 36.76 64.3726 35.816 64.3726 33.928C64.3726 32.04 64.3406 30.736 64.2766 30.016ZM64.2526 24.952C64.2526 23.784 64.0766 22.968 63.7246 22.504C63.3886 22.024 62.8526 21.784 62.1166 21.784C61.3806 21.784 60.7886 22.12 60.3406 22.792C59.8926 23.464 59.6686 24.32 59.6686 25.36C59.6686 26.384 59.8766 27.2 60.2926 27.808C60.7246 28.416 61.3806 28.72 62.2606 28.72C63.1406 28.72 63.7086 28.344 63.9646 27.592C64.1566 26.984 64.2526 26.104 64.2526 24.952ZM71.5321 19.888C72.3801 19.888 73.1881 20.136 73.9561 20.632C74.7241 21.128 75.1081 21.744 75.1081 22.48C75.1081 23.2 74.7961 23.904 74.1721 24.592C73.5481 25.264 72.7161 25.672 71.6761 25.816C71.2281 25.88 70.5561 25.912 69.6601 25.912C69.8361 27.272 70.1801 28.168 70.6921 28.6C70.8521 28.776 71.0681 28.864 71.3401 28.864C72.3321 28.864 73.1641 28.552 73.8361 27.928C74.5081 27.288 74.9881 26.968 75.2761 26.968C75.4041 26.968 75.5961 27.088 75.8521 27.328C76.1081 27.568 76.2361 27.792 76.2361 28C76.2361 28.416 75.7321 29.016 74.7241 29.8C74.2761 30.168 73.7321 30.48 73.0921 30.736C72.4681 30.976 71.8841 31.096 71.3401 31.096C69.9481 31.096 68.9241 30.2 68.2681 28.408C67.8521 27.304 67.6441 26.088 67.6441 24.76C67.6441 23.432 67.9561 22.288 68.5801 21.328C69.2041 20.368 70.1881 19.888 71.5321 19.888ZM71.6521 21.544C71.0441 21.544 70.5241 21.888 70.0921 22.576C69.9321 22.816 69.7801 23.36 69.6361 24.208C71.8761 24.208 72.9961 23.656 72.9961 22.552C72.9961 21.88 72.5481 21.544 71.6521 21.544ZM86.9618 30.976C86.4178 30.976 85.9138 30.792 85.4498 30.424C85.4498 30.424 85.3458 30.336 85.1378 30.16V37.36C85.0418 37.68 84.8738 37.944 84.6338 38.152C84.3938 38.376 84.1378 38.488 83.8658 38.488C83.4498 38.488 83.2418 38.208 83.2418 37.648V20.92C83.3378 20.504 83.4498 20.208 83.5778 20.032C83.7218 19.856 83.9378 19.768 84.2258 19.768C84.5298 19.768 84.7218 19.84 84.8018 19.984C84.8978 20.112 85.0098 20.48 85.1378 21.088C85.2018 20.768 85.4578 20.472 85.9058 20.2C86.3538 19.928 86.9538 19.792 87.7058 19.792C89.3378 19.792 90.4978 20.384 91.1858 21.568C91.8738 22.752 92.2178 24.152 92.2178 25.768C92.2178 27.368 91.7458 28.64 90.8018 29.584C89.8738 30.512 88.5938 30.976 86.9618 30.976ZM85.1378 23.776V28.24C85.2338 28.288 85.3458 28.368 85.4738 28.48C85.9378 28.896 86.4418 29.104 86.9858 29.104C89.1938 29.104 90.2978 27.968 90.2978 25.696C90.2978 23.76 89.8018 22.536 88.8098 22.024C88.3938 21.8 87.8818 21.688 87.2738 21.688C86.6818 21.768 86.1778 22.032 85.7618 22.48C85.3458 22.912 85.1378 23.344 85.1378 23.776ZM96.0034 23.224L96.1954 28.888C96.1954 29.592 96.1634 30 96.0994 30.112C96.0674 30.4 95.9714 30.624 95.8114 30.784C95.6674 30.944 95.3794 31.024 94.9474 31.024C94.7394 31.024 94.5714 30.896 94.4434 30.64C94.3154 30.368 94.2434 30.064 94.2274 29.728C94.1154 26.912 93.9634 24.272 93.7714 21.808C93.5954 19.328 93.5074 17.024 93.5074 14.896C93.5074 14.56 93.6194 14.296 93.8434 14.104C94.0674 13.912 94.3314 13.816 94.6354 13.816C95.0834 13.816 95.3474 14.2 95.4274 14.968C95.5234 15.736 95.5794 16.696 95.5954 17.848C95.6274 19 95.6594 19.84 95.6914 20.368C96.4914 19.952 97.2914 19.744 98.0914 19.744C99.9474 19.744 101.123 20.56 101.619 22.192C101.907 23.12 102.051 24.312 102.051 25.768C102.051 26.248 102.003 27.008 101.907 28.048C101.827 29.072 101.779 29.736 101.763 30.04C101.747 30.344 101.611 30.584 101.355 30.76C101.115 30.92 100.851 31 100.563 31C100.115 31 99.8914 30.76 99.8914 30.28L100.059 26.104C100.059 25.752 100.043 25.168 100.011 24.352C99.9794 23.536 99.8114 22.888 99.5074 22.408C99.2194 21.928 98.7074 21.688 97.9714 21.688C96.6594 21.688 96.0034 22.2 96.0034 23.224ZM107.762 19.816C108.914 19.816 109.858 20.368 110.594 21.472C111.346 22.576 111.722 23.904 111.722 25.456C111.722 26.992 111.338 28.304 110.57 29.392C109.818 30.48 108.81 31.024 107.546 31.024C106.298 31.024 105.29 30.472 104.522 29.368C103.754 28.248 103.37 27.008 103.37 25.648C103.37 23.904 103.722 22.512 104.426 21.472C105.178 20.368 106.29 19.816 107.762 19.816ZM107.474 21.784C106.802 21.784 106.25 22.136 105.818 22.84C105.386 23.544 105.17 24.288 105.17 25.072C105.17 26.288 105.41 27.216 105.89 27.856C106.37 28.496 106.914 28.816 107.522 28.816C108.61 28.816 109.306 28.344 109.61 27.4C109.738 26.952 109.802 26.392 109.802 25.72C109.802 23.096 109.026 21.784 107.474 21.784ZM113.793 19.792L114.993 19.816C115.265 19.816 115.417 19.808 115.449 19.792V14.872C115.465 14.6 115.601 14.368 115.857 14.176C116.113 13.984 116.353 13.888 116.577 13.888C116.801 13.888 116.977 13.96 117.105 14.104C117.249 14.248 117.313 14.472 117.297 14.776C117.281 15.08 117.273 16.744 117.273 19.768L120.081 19.672C120.561 19.672 120.801 19.952 120.801 20.512C120.801 20.928 120.673 21.24 120.417 21.448C120.177 21.656 119.913 21.768 119.625 21.784C119.353 21.8 119.081 21.808 118.809 21.808L117.345 21.784C117.345 22.44 117.409 23.736 117.537 25.672C117.681 27.608 117.793 28.864 117.873 29.44C117.953 30 117.969 30.368 117.921 30.544C117.873 30.704 117.785 30.816 117.657 30.88C117.449 30.976 117.169 31.024 116.817 31.024C116.465 31.024 116.257 30.832 116.193 30.448C115.873 28.352 115.657 25.472 115.545 21.808C115.401 21.824 114.849 21.832 113.889 21.832C112.929 21.832 112.449 21.552 112.449 20.992C112.449 20.192 112.897 19.792 113.793 19.792ZM125.691 19.816C126.843 19.816 127.787 20.368 128.523 21.472C129.275 22.576 129.651 23.904 129.651 25.456C129.651 26.992 129.267 28.304 128.499 29.392C127.747 30.48 126.739 31.024 125.475 31.024C124.227 31.024 123.219 30.472 122.451 29.368C121.683 28.248 121.299 27.008 121.299 25.648C121.299 23.904 121.651 22.512 122.355 21.472C123.107 20.368 124.219 19.816 125.691 19.816ZM125.403 21.784C124.731 21.784 124.179 22.136 123.747 22.84C123.315 23.544 123.099 24.288 123.099 25.072C123.099 26.288 123.339 27.216 123.819 27.856C124.299 28.496 124.843 28.816 125.451 28.816C126.539 28.816 127.235 28.344 127.539 27.4C127.667 26.952 127.731 26.392 127.731 25.72C127.731 23.096 126.955 21.784 125.403 21.784Z" fill="black"/>
<defs>
<linearGradient id="paint0_linear_424_30" x1="75.5" y1="0" x2="75.5" y2="52" gradientUnits="userSpaceOnUse">
<stop stop-color="white"/>
<stop offset="1" stop-color="#999999"/>
</linearGradient>
</defs>
</svg>
