<svg width="134" height="27" viewBox="0 0 134 27" fill="none" xmlns="http://www.w3.org/2000/svg">
<mask id="path-1-outside-1_246_49" maskUnits="userSpaceOnUse" x="-1" y="-1" width="136" height="29" fill="black">
<rect fill="white" x="-1" y="-1" width="136" height="29"/>
<path d="M0.06 26V1.088H15.216V3.536H2.832V12.14H13.056V14.552H2.832V23.552H15.216V26H0.06ZM32.998 0.151998V26H30.334V24.776C28.486 25.832 26.662 26.36 24.862 26.36C23.902 26.36 23.062 26.24 22.342 26C21.622 25.76 20.95 25.328 20.326 24.704C19.03 23.408 18.382 21.02 18.382 17.54C18.382 14.036 18.958 11.516 20.11 9.98C21.286 8.42 23.218 7.64 25.906 7.64C27.298 7.64 28.774 7.796 30.334 8.108V0.151998H32.998ZM22.414 22.76C22.798 23.216 23.206 23.528 23.638 23.696C24.07 23.864 24.622 23.948 25.294 23.948C25.99 23.948 26.758 23.84 27.598 23.624C28.462 23.384 29.134 23.156 29.614 22.94L30.334 22.616V10.412C28.798 10.124 27.37 9.98 26.05 9.98C24.226 9.98 22.954 10.568 22.234 11.744C21.514 12.896 21.154 14.696 21.154 17.144C21.154 19.928 21.574 21.8 22.414 22.76ZM38.2287 26V8H40.9287V26H38.2287ZM38.2287 3.932V0.799998H40.9287V3.932H38.2287ZM55.4277 10.34H49.7037V18.944C49.7037 21.008 49.8477 22.364 50.1357 23.012C50.4477 23.66 51.1677 23.984 52.2957 23.984L55.4997 23.768L55.6797 26C54.0717 26.264 52.8477 26.396 52.0077 26.396C50.1357 26.396 48.8397 25.94 48.1197 25.028C47.3997 24.116 47.0397 22.376 47.0397 19.808V10.34H44.4837V8H47.0397V2.492H49.7037V8H55.4277V10.34ZM69.695 18.512C69.695 22.112 71.639 23.912 75.527 23.912C77.543 23.912 79.055 23.492 80.063 22.652C81.095 21.788 81.611 20.408 81.611 18.512V1.088H84.347V18.44C84.347 21.224 83.603 23.24 82.115 24.488C80.651 25.736 78.479 26.36 75.599 26.36C72.719 26.36 70.547 25.736 69.083 24.488C67.643 23.24 66.923 21.224 66.923 18.44V1.088H69.695V18.512ZM95.2792 10.052C92.6632 10.052 91.3552 10.964 91.3552 12.788C91.3552 13.628 91.6552 14.228 92.2552 14.588C92.8552 14.924 94.2232 15.284 96.3592 15.668C98.4952 16.028 100.007 16.544 100.895 17.216C101.783 17.888 102.227 19.148 102.227 20.996C102.227 22.844 101.627 24.2 100.427 25.064C99.2512 25.928 97.5232 26.36 95.2432 26.36C93.7552 26.36 92.0032 26.192 89.9872 25.856L88.9072 25.676L89.0512 23.336C91.7872 23.744 93.8512 23.948 95.2432 23.948C96.6352 23.948 97.6912 23.732 98.4112 23.3C99.1552 22.844 99.5272 22.1 99.5272 21.068C99.5272 20.012 99.2152 19.304 98.5912 18.944C97.9672 18.56 96.5992 18.2 94.4872 17.864C92.3752 17.528 90.8752 17.036 89.9872 16.388C89.0992 15.74 88.6552 14.54 88.6552 12.788C88.6552 11.036 89.2672 9.74 90.4912 8.9C91.7392 8.06 93.2872 7.64 95.1352 7.64C96.5992 7.64 98.4352 7.808 100.643 8.144L101.651 8.324L101.579 10.628C98.9152 10.244 96.8152 10.052 95.2792 10.052ZM118.602 23.768L119.646 23.66L119.718 25.784C116.982 26.168 114.642 26.36 112.698 26.36C110.106 26.36 108.27 25.616 107.19 24.128C106.11 22.616 105.57 20.276 105.57 17.108C105.57 10.796 108.078 7.64 113.094 7.64C115.518 7.64 117.33 8.324 118.53 9.692C119.73 11.036 120.33 13.16 120.33 16.064L120.186 18.116H108.306C108.306 20.108 108.666 21.584 109.386 22.544C110.106 23.504 111.354 23.984 113.13 23.984C114.93 23.984 116.754 23.912 118.602 23.768ZM117.63 15.956C117.63 13.748 117.27 12.188 116.55 11.276C115.854 10.364 114.702 9.908 113.094 9.908C111.51 9.908 110.31 10.388 109.494 11.348C108.702 12.308 108.294 13.844 108.27 15.956H117.63ZM124.537 26V8H127.201V10.448C129.289 9.008 131.485 8.06 133.789 7.604V10.34C132.781 10.532 131.725 10.832 130.621 11.24C129.541 11.648 128.713 12.008 128.137 12.32L127.237 12.788V26H124.537Z"/>
</mask>
<path d="M0.06 26V1.088H15.216V3.536H2.832V12.14H13.056V14.552H2.832V23.552H15.216V26H0.06ZM32.998 0.151998V26H30.334V24.776C28.486 25.832 26.662 26.36 24.862 26.36C23.902 26.36 23.062 26.24 22.342 26C21.622 25.76 20.95 25.328 20.326 24.704C19.03 23.408 18.382 21.02 18.382 17.54C18.382 14.036 18.958 11.516 20.11 9.98C21.286 8.42 23.218 7.64 25.906 7.64C27.298 7.64 28.774 7.796 30.334 8.108V0.151998H32.998ZM22.414 22.76C22.798 23.216 23.206 23.528 23.638 23.696C24.07 23.864 24.622 23.948 25.294 23.948C25.99 23.948 26.758 23.84 27.598 23.624C28.462 23.384 29.134 23.156 29.614 22.94L30.334 22.616V10.412C28.798 10.124 27.37 9.98 26.05 9.98C24.226 9.98 22.954 10.568 22.234 11.744C21.514 12.896 21.154 14.696 21.154 17.144C21.154 19.928 21.574 21.8 22.414 22.76ZM38.2287 26V8H40.9287V26H38.2287ZM38.2287 3.932V0.799998H40.9287V3.932H38.2287ZM55.4277 10.34H49.7037V18.944C49.7037 21.008 49.8477 22.364 50.1357 23.012C50.4477 23.66 51.1677 23.984 52.2957 23.984L55.4997 23.768L55.6797 26C54.0717 26.264 52.8477 26.396 52.0077 26.396C50.1357 26.396 48.8397 25.94 48.1197 25.028C47.3997 24.116 47.0397 22.376 47.0397 19.808V10.34H44.4837V8H47.0397V2.492H49.7037V8H55.4277V10.34ZM69.695 18.512C69.695 22.112 71.639 23.912 75.527 23.912C77.543 23.912 79.055 23.492 80.063 22.652C81.095 21.788 81.611 20.408 81.611 18.512V1.088H84.347V18.44C84.347 21.224 83.603 23.24 82.115 24.488C80.651 25.736 78.479 26.36 75.599 26.36C72.719 26.36 70.547 25.736 69.083 24.488C67.643 23.24 66.923 21.224 66.923 18.44V1.088H69.695V18.512ZM95.2792 10.052C92.6632 10.052 91.3552 10.964 91.3552 12.788C91.3552 13.628 91.6552 14.228 92.2552 14.588C92.8552 14.924 94.2232 15.284 96.3592 15.668C98.4952 16.028 100.007 16.544 100.895 17.216C101.783 17.888 102.227 19.148 102.227 20.996C102.227 22.844 101.627 24.2 100.427 25.064C99.2512 25.928 97.5232 26.36 95.2432 26.36C93.7552 26.36 92.0032 26.192 89.9872 25.856L88.9072 25.676L89.0512 23.336C91.7872 23.744 93.8512 23.948 95.2432 23.948C96.6352 23.948 97.6912 23.732 98.4112 23.3C99.1552 22.844 99.5272 22.1 99.5272 21.068C99.5272 20.012 99.2152 19.304 98.5912 18.944C97.9672 18.56 96.5992 18.2 94.4872 17.864C92.3752 17.528 90.8752 17.036 89.9872 16.388C89.0992 15.74 88.6552 14.54 88.6552 12.788C88.6552 11.036 89.2672 9.74 90.4912 8.9C91.7392 8.06 93.2872 7.64 95.1352 7.64C96.5992 7.64 98.4352 7.808 100.643 8.144L101.651 8.324L101.579 10.628C98.9152 10.244 96.8152 10.052 95.2792 10.052ZM118.602 23.768L119.646 23.66L119.718 25.784C116.982 26.168 114.642 26.36 112.698 26.36C110.106 26.36 108.27 25.616 107.19 24.128C106.11 22.616 105.57 20.276 105.57 17.108C105.57 10.796 108.078 7.64 113.094 7.64C115.518 7.64 117.33 8.324 118.53 9.692C119.73 11.036 120.33 13.16 120.33 16.064L120.186 18.116H108.306C108.306 20.108 108.666 21.584 109.386 22.544C110.106 23.504 111.354 23.984 113.13 23.984C114.93 23.984 116.754 23.912 118.602 23.768ZM117.63 15.956C117.63 13.748 117.27 12.188 116.55 11.276C115.854 10.364 114.702 9.908 113.094 9.908C111.51 9.908 110.31 10.388 109.494 11.348C108.702 12.308 108.294 13.844 108.27 15.956H117.63ZM124.537 26V8H127.201V10.448C129.289 9.008 131.485 8.06 133.789 7.604V10.34C132.781 10.532 131.725 10.832 130.621 11.24C129.541 11.648 128.713 12.008 128.137 12.32L127.237 12.788V26H124.537Z" fill="#666666"/>
<path d="M0.06 26H-0.94V27H0.06V26ZM0.06 1.088V0.0879989H-0.94V1.088H0.06ZM15.216 1.088H16.216V0.0879989H15.216V1.088ZM15.216 3.536V4.536H16.216V3.536H15.216ZM2.832 3.536V2.536H1.832V3.536H2.832ZM2.832 12.14H1.832V13.14H2.832V12.14ZM13.056 12.14H14.056V11.14H13.056V12.14ZM13.056 14.552V15.552H14.056V14.552H13.056ZM2.832 14.552V13.552H1.832V14.552H2.832ZM2.832 23.552H1.832V24.552H2.832V23.552ZM15.216 23.552H16.216V22.552H15.216V23.552ZM15.216 26V27H16.216V26H15.216ZM1.06 26V1.088H-0.94V26H1.06ZM0.06 2.088H15.216V0.0879989H0.06V2.088ZM14.216 1.088V3.536H16.216V1.088H14.216ZM15.216 2.536H2.832V4.536H15.216V2.536ZM1.832 3.536V12.14H3.832V3.536H1.832ZM2.832 13.14H13.056V11.14H2.832V13.14ZM12.056 12.14V14.552H14.056V12.14H12.056ZM13.056 13.552H2.832V15.552H13.056V13.552ZM1.832 14.552V23.552H3.832V14.552H1.832ZM2.832 24.552H15.216V22.552H2.832V24.552ZM14.216 23.552V26H16.216V23.552H14.216ZM15.216 25H0.06V27H15.216V25ZM32.998 0.151998H33.998V-0.848002H32.998V0.151998ZM32.998 26V27H33.998V26H32.998ZM30.334 26H29.334V27H30.334V26ZM30.334 24.776H31.334V23.0528L29.8379 23.9078L30.334 24.776ZM20.326 24.704L19.6189 25.4111L19.6189 25.4111L20.326 24.704ZM20.11 9.98L19.3115 9.37803L19.31 9.38L20.11 9.98ZM30.334 8.108L30.1379 9.08858L31.334 9.3278V8.108H30.334ZM30.334 0.151998V-0.848002H29.334V0.151998H30.334ZM22.414 22.76L23.1789 22.1159L23.1728 22.1086L23.1666 22.1015L22.414 22.76ZM27.598 23.624L27.8471 24.5925L27.8564 24.5901L27.8657 24.5875L27.598 23.624ZM29.614 22.94L30.0244 23.8519L30.0244 23.8519L29.614 22.94ZM30.334 22.616L30.7444 23.5279L31.334 23.2626V22.616H30.334ZM30.334 10.412H31.334V9.58207L30.5183 9.42913L30.334 10.412ZM22.234 11.744L23.0821 12.274L23.0869 12.2662L22.234 11.744ZM31.998 0.151998V26H33.998V0.151998H31.998ZM32.998 25H30.334V27H32.998V25ZM31.334 26V24.776H29.334V26H31.334ZM29.8379 23.9078C28.1133 24.8932 26.4587 25.36 24.862 25.36V27.36C26.8654 27.36 28.8588 26.7708 30.8302 25.6442L29.8379 23.9078ZM24.862 25.36C23.9824 25.36 23.2534 25.2497 22.6583 25.0513L22.0258 26.9487C22.8707 27.2303 23.8217 27.36 24.862 27.36V25.36ZM22.6583 25.0513C22.1078 24.8678 21.5652 24.529 21.0331 23.9969L19.6189 25.4111C20.3348 26.127 21.1363 26.6522 22.0258 26.9487L22.6583 25.0513ZM21.0331 23.9969C20.0346 22.9983 19.382 20.967 19.382 17.54H17.382C17.382 21.073 18.0255 23.8177 19.6189 25.4111L21.0331 23.9969ZM19.382 17.54C19.382 14.0964 19.9577 11.8498 20.91 10.58L19.31 9.38C17.9584 11.1822 17.382 13.9756 17.382 17.54H19.382ZM20.9086 10.582C21.8307 9.35876 23.4055 8.64 25.906 8.64V6.64C23.0305 6.64 20.7414 7.48124 19.3115 9.37804L20.9086 10.582ZM25.906 8.64C27.2236 8.64 28.6335 8.7877 30.1379 9.08858L30.5301 7.12742C28.9145 6.8043 27.3724 6.64 25.906 6.64V8.64ZM31.334 8.108V0.151998H29.334V8.108H31.334ZM30.334 1.152H32.998V-0.848002H30.334V1.152ZM21.6491 23.4041C22.111 23.9526 22.649 24.3843 23.2756 24.628L24.0005 22.764C23.763 22.6717 23.4851 22.4794 23.1789 22.1159L21.6491 23.4041ZM23.2756 24.628C23.8627 24.8563 24.549 24.948 25.294 24.948V22.948C24.695 22.948 24.2774 22.8717 24.0005 22.764L23.2756 24.628ZM25.294 24.948C26.0917 24.948 26.9447 24.8245 27.8471 24.5925L27.349 22.6555C26.5713 22.8555 25.8884 22.948 25.294 22.948V24.948ZM27.8657 24.5875C28.7497 24.342 29.4772 24.0982 30.0244 23.8519L29.2037 22.0281C28.7909 22.2138 28.1744 22.426 27.3304 22.6605L27.8657 24.5875ZM30.0244 23.8519L30.7444 23.5279L29.9237 21.7041L29.2037 22.0281L30.0244 23.8519ZM31.334 22.616V10.412H29.334V22.616H31.334ZM30.5183 9.42913C28.9323 9.13175 27.4419 8.98 26.05 8.98V10.98C27.2982 10.98 28.6638 11.1163 30.1497 11.3949L30.5183 9.42913ZM26.05 8.98C24.0048 8.98 22.3406 9.65483 21.3812 11.2218L23.0869 12.2662C23.5675 11.4812 24.4472 10.98 26.05 10.98V8.98ZM21.386 11.214C20.5151 12.6074 20.154 14.6383 20.154 17.144H22.154C22.154 14.7537 22.5129 13.1846 23.082 12.274L21.386 11.214ZM20.154 17.144C20.154 18.5798 20.2617 19.8228 20.4933 20.8549C20.7229 21.8782 21.0899 22.7653 21.6615 23.4185L23.1666 22.1015C22.8982 21.7947 22.6352 21.2658 22.4448 20.4171C22.2563 19.5772 22.154 18.4922 22.154 17.144H20.154ZM38.2287 26H37.2287V27H38.2287V26ZM38.2287 8V7H37.2287V8H38.2287ZM40.9287 8H41.9287V7H40.9287V8ZM40.9287 26V27H41.9287V26H40.9287ZM38.2287 3.932H37.2287V4.932H38.2287V3.932ZM38.2287 0.799998V-0.200002H37.2287V0.799998H38.2287ZM40.9287 0.799998H41.9287V-0.200002H40.9287V0.799998ZM40.9287 3.932V4.932H41.9287V3.932H40.9287ZM39.2287 26V8H37.2287V26H39.2287ZM38.2287 9H40.9287V7H38.2287V9ZM39.9287 8V26H41.9287V8H39.9287ZM40.9287 25H38.2287V27H40.9287V25ZM39.2287 3.932V0.799998H37.2287V3.932H39.2287ZM38.2287 1.8H40.9287V-0.200002H38.2287V1.8ZM39.9287 0.799998V3.932H41.9287V0.799998H39.9287ZM40.9287 2.932H38.2287V4.932H40.9287V2.932ZM55.4277 10.34V11.34H56.4277V10.34H55.4277ZM49.7037 10.34V9.34H48.7037V10.34H49.7037ZM50.1357 23.012L49.2219 23.4181L49.2281 23.4321L49.2347 23.4458L50.1357 23.012ZM52.2957 23.984V24.984H52.3294L52.363 24.9817L52.2957 23.984ZM55.4997 23.768L56.4965 23.6876L56.4171 22.7039L55.4325 22.7703L55.4997 23.768ZM55.6797 26L55.8417 26.9868L56.7505 26.8376L56.6765 25.9196L55.6797 26ZM48.1197 25.028L47.3348 25.6476L47.3348 25.6476L48.1197 25.028ZM47.0397 10.34H48.0397V9.34H47.0397V10.34ZM44.4837 10.34H43.4837V11.34H44.4837V10.34ZM44.4837 8V7H43.4837V8H44.4837ZM47.0397 8V9H48.0397V8H47.0397ZM47.0397 2.492V1.492H46.0397V2.492H47.0397ZM49.7037 2.492H50.7037V1.492H49.7037V2.492ZM49.7037 8H48.7037V9H49.7037V8ZM55.4277 8H56.4277V7H55.4277V8ZM55.4277 9.34H49.7037V11.34H55.4277V9.34ZM48.7037 10.34V18.944H50.7037V10.34H48.7037ZM48.7037 18.944C48.7037 19.9954 48.7402 20.8886 48.8173 21.6146C48.8921 22.3192 49.0126 22.9472 49.2219 23.4181L51.0495 22.6059C50.9708 22.4288 50.8753 22.0548 50.8061 21.4034C50.7392 20.7734 50.7037 19.9566 50.7037 18.944H48.7037ZM49.2347 23.4458C49.7971 24.6139 51.0244 24.984 52.2957 24.984V22.984C51.3111 22.984 51.0983 22.7061 51.0367 22.5782L49.2347 23.4458ZM52.363 24.9817L55.567 24.7657L55.4325 22.7703L52.2285 22.9863L52.363 24.9817ZM54.503 23.8484L54.683 26.0804L56.6765 25.9196L56.4965 23.6876L54.503 23.8484ZM55.5177 25.0132C53.9234 25.275 52.7642 25.396 52.0077 25.396V27.396C52.9313 27.396 54.2201 27.253 55.8417 26.9868L55.5177 25.0132ZM52.0077 25.396C50.2553 25.396 49.3436 24.9644 48.9046 24.4084L47.3348 25.6476C48.3359 26.9156 50.0161 27.396 52.0077 27.396V25.396ZM48.9046 24.4084C48.6785 24.1219 48.4526 23.6274 48.289 22.8364C48.1274 22.0553 48.0397 21.0512 48.0397 19.808H46.0397C46.0397 21.1328 46.1321 22.2827 46.3305 23.2416C46.5268 24.1906 46.841 25.0221 47.3348 25.6476L48.9046 24.4084ZM48.0397 19.808V10.34H46.0397V19.808H48.0397ZM47.0397 9.34H44.4837V11.34H47.0397V9.34ZM45.4837 10.34V8H43.4837V10.34H45.4837ZM44.4837 9H47.0397V7H44.4837V9ZM48.0397 8V2.492H46.0397V8H48.0397ZM47.0397 3.492H49.7037V1.492H47.0397V3.492ZM48.7037 2.492V8H50.7037V2.492H48.7037ZM49.7037 9H55.4277V7H49.7037V9ZM54.4277 8V10.34H56.4277V8H54.4277ZM80.063 22.652L80.7032 23.4202L80.7049 23.4188L80.063 22.652ZM81.611 1.088V0.0879989H80.611V1.088H81.611ZM84.347 1.088H85.347V0.0879989H84.347V1.088ZM82.115 24.488L81.4723 23.7218L81.4662 23.727L82.115 24.488ZM69.083 24.488L68.428 25.2437L68.4342 25.249L69.083 24.488ZM66.923 1.088V0.0879989H65.923V1.088H66.923ZM69.695 1.088H70.695V0.0879989H69.695V1.088ZM68.695 18.512C68.695 20.4867 69.2317 22.1459 70.4736 23.2958C71.7009 24.4321 73.4471 24.912 75.527 24.912V22.912C73.7188 22.912 72.5491 22.4919 71.8324 21.8282C71.1302 21.1781 70.695 20.1373 70.695 18.512H68.695ZM75.527 24.912C77.6572 24.912 79.4411 24.472 80.7032 23.4202L79.4228 21.8838C78.6689 22.512 77.4287 22.912 75.527 22.912V24.912ZM80.7049 23.4188C82.0454 22.2965 82.611 20.5779 82.611 18.512H80.611C80.611 20.2381 80.1445 21.2795 79.421 21.8852L80.7049 23.4188ZM82.611 18.512V1.088H80.611V18.512H82.611ZM81.611 2.088H84.347V0.0879989H81.611V2.088ZM83.347 1.088V18.44H85.347V1.088H83.347ZM83.347 18.44C83.347 21.061 82.6488 22.7351 81.4724 23.7218L82.7576 25.2542C84.5572 23.7449 85.347 21.387 85.347 18.44H83.347ZM81.4662 23.727C80.2544 24.76 78.3554 25.36 75.599 25.36V27.36C78.6025 27.36 81.0475 26.712 82.7637 25.249L81.4662 23.727ZM75.599 25.36C72.8425 25.36 70.9435 24.76 69.7317 23.727L68.4342 25.249C70.1504 26.712 72.5954 27.36 75.599 27.36V25.36ZM69.7379 23.7323C68.6026 22.7484 67.923 21.0706 67.923 18.44H65.923C65.923 21.3774 66.6833 23.7316 68.428 25.2437L69.7379 23.7323ZM67.923 18.44V1.088H65.923V18.44H67.923ZM66.923 2.088H69.695V0.0879989H66.923V2.088ZM68.695 1.088V18.512H70.695V1.088H68.695ZM92.2552 14.588L91.7407 15.4455L91.7535 15.4532L91.7666 15.4605L92.2552 14.588ZM96.3592 15.668L96.1822 16.6523L96.193 16.6541L96.3592 15.668ZM100.895 17.216L101.499 16.4186L101.499 16.4186L100.895 17.216ZM100.427 25.064L99.8428 24.2524L99.8351 24.2581L100.427 25.064ZM89.9872 25.856L89.8228 26.8424L89.9872 25.856ZM88.9072 25.676L87.909 25.6146L87.8537 26.5142L88.7428 26.6624L88.9072 25.676ZM89.0512 23.336L89.1986 22.3469L88.12 22.1861L88.053 23.2746L89.0512 23.336ZM98.4112 23.3L98.9257 24.1575L98.9337 24.1526L98.4112 23.3ZM98.5912 18.944L98.0671 19.7957L98.0791 19.8031L98.0914 19.8102L98.5912 18.944ZM94.4872 17.864L94.6443 16.8764L94.6443 16.8764L94.4872 17.864ZM89.9872 16.388L90.5766 15.5802L90.5766 15.5802L89.9872 16.388ZM90.4912 8.9L89.9328 8.07038L89.9253 8.07549L90.4912 8.9ZM100.643 8.144L100.819 7.15957L100.806 7.15731L100.794 7.15538L100.643 8.144ZM101.651 8.324L102.651 8.35523L102.678 7.49148L101.827 7.33957L101.651 8.324ZM101.579 10.628L101.436 11.6178L102.544 11.7774L102.579 10.6592L101.579 10.628ZM95.2792 9.052C93.8857 9.052 92.6626 9.28933 91.7642 9.91571C90.8003 10.5878 90.3552 11.6034 90.3552 12.788H92.3552C92.3552 12.1486 92.564 11.7962 92.9081 11.5563C93.3177 11.2707 94.0566 11.052 95.2792 11.052V9.052ZM90.3552 12.788C90.3552 13.8967 90.7748 14.866 91.7407 15.4455L92.7697 13.7305C92.5355 13.59 92.3552 13.3593 92.3552 12.788H90.3552ZM91.7666 15.4605C92.1829 15.6937 92.778 15.8932 93.4767 16.0771C94.1959 16.2664 95.1003 16.4577 96.1822 16.6522L96.5361 14.6838C95.482 14.4943 94.6344 14.3136 93.9856 14.1429C93.3164 13.9668 92.9274 13.8183 92.7438 13.7155L91.7666 15.4605ZM96.193 16.6541C98.2933 17.0081 99.6042 17.4932 100.292 18.0134L101.499 16.4186C100.41 15.5948 98.697 15.0479 96.5254 14.6819L96.193 16.6541ZM100.292 18.0134C100.803 18.4 101.227 19.2565 101.227 20.996H103.227C103.227 19.0395 102.764 17.376 101.499 16.4186L100.292 18.0134ZM101.227 20.996C101.227 22.6122 100.717 23.6233 99.8429 24.2525L101.011 25.8755C102.538 24.7767 103.227 23.0758 103.227 20.996H101.227ZM99.8351 24.2581C98.903 24.9429 97.4219 25.36 95.2432 25.36V27.36C97.6244 27.36 99.5993 26.9131 101.019 25.8699L99.8351 24.2581ZM95.2432 25.36C93.8263 25.36 92.1318 25.1996 90.1516 24.8696L89.8228 26.8424C91.8745 27.1844 93.684 27.36 95.2432 27.36V25.36ZM90.1516 24.8696L89.0716 24.6896L88.7428 26.6624L89.8228 26.8424L90.1516 24.8696ZM89.9053 25.7374L90.0493 23.3974L88.053 23.2746L87.909 25.6146L89.9053 25.7374ZM88.9037 24.3251C91.6507 24.7347 93.7744 24.948 95.2432 24.948V22.948C93.9279 22.948 91.9236 22.7533 89.1986 22.3469L88.9037 24.3251ZM95.2432 24.948C96.7101 24.948 97.9791 24.7254 98.9257 24.1575L97.8967 22.4425C97.4032 22.7386 96.5602 22.948 95.2432 22.948V24.948ZM98.9337 24.1526C100.033 23.479 100.527 22.3734 100.527 21.068H98.5272C98.5272 21.8266 98.2775 22.209 97.8886 22.4474L98.9337 24.1526ZM100.527 21.068C100.527 19.8374 100.155 18.692 99.0909 18.0778L98.0914 19.8102C98.2748 19.916 98.5272 20.1866 98.5272 21.068H100.527ZM99.1153 18.0923C98.6741 17.8209 98.0597 17.6052 97.3517 17.4189C96.6238 17.2274 95.7183 17.0473 94.6443 16.8764L94.33 18.8516C95.368 19.0167 96.2025 19.1846 96.8427 19.3531C97.5026 19.5268 97.8842 19.6831 98.0671 19.7957L99.1153 18.0923ZM94.6443 16.8764C92.5675 16.546 91.2651 16.0826 90.5766 15.5802L89.3977 17.1958C90.4852 17.9894 92.1828 18.51 94.33 18.8516L94.6443 16.8764ZM90.5766 15.5802C90.0703 15.2107 89.6552 14.4132 89.6552 12.788H87.6552C87.6552 14.6668 88.128 16.2693 89.3977 17.1958L90.5766 15.5802ZM89.6552 12.788C89.6552 11.2974 90.1565 10.3425 91.057 9.72451L89.9253 8.07549C88.3778 9.13752 87.6552 10.7746 87.6552 12.788H89.6552ZM91.0495 9.72959C92.0982 9.02376 93.4403 8.64 95.1352 8.64V6.64C93.134 6.64 91.3801 7.09624 89.9328 8.07041L91.0495 9.72959ZM95.1352 8.64C96.5299 8.64 98.3115 8.8007 100.493 9.13262L100.794 7.15538C98.5588 6.8153 96.6684 6.64 95.1352 6.64V8.64ZM100.467 9.12843L101.475 9.30843L101.827 7.33957L100.819 7.15957L100.467 9.12843ZM100.652 8.29276L100.58 10.5968L102.579 10.6592L102.651 8.35523L100.652 8.29276ZM101.722 9.63823C99.04 9.25167 96.8855 9.052 95.2792 9.052V11.052C96.7448 11.052 98.7903 11.2363 101.436 11.6178L101.722 9.63823ZM118.602 23.768L118.679 24.765L118.692 24.764L118.704 24.7627L118.602 23.768ZM119.646 23.66L120.645 23.6261L120.609 22.555L119.543 22.6653L119.646 23.66ZM119.718 25.784L119.857 26.7743L120.747 26.6493L120.717 25.7501L119.718 25.784ZM107.19 24.128L106.376 24.7093L106.38 24.7154L107.19 24.128ZM118.53 9.692L117.778 10.3515L117.784 10.358L118.53 9.692ZM120.33 16.064L121.327 16.134L121.33 16.099V16.064H120.33ZM120.186 18.116V19.116H121.118L121.183 18.186L120.186 18.116ZM108.306 18.116V17.116H107.306V18.116H108.306ZM109.386 22.544L108.586 23.144L108.586 23.144L109.386 22.544ZM117.63 15.956V16.956H118.63V15.956H117.63ZM116.55 11.276L115.755 11.8827L115.76 11.8892L115.765 11.8956L116.55 11.276ZM109.494 11.348L108.732 10.7004L108.727 10.7059L108.722 10.7116L109.494 11.348ZM108.27 15.956L107.27 15.9446L107.258 16.956H108.27V15.956ZM118.704 24.7627L119.748 24.6547L119.543 22.6653L118.499 22.7733L118.704 24.7627ZM118.646 23.6939L118.718 25.8179L120.717 25.7501L120.645 23.6261L118.646 23.6939ZM119.579 24.7937C116.871 25.1737 114.58 25.36 112.698 25.36V27.36C114.703 27.36 117.092 27.1623 119.857 26.7743L119.579 24.7937ZM112.698 25.36C110.286 25.36 108.821 24.6737 107.999 23.5406L106.38 24.7154C107.718 26.5583 109.925 27.36 112.698 27.36V25.36ZM108.003 23.5468C107.103 22.2869 106.57 20.1993 106.57 17.108H104.57C104.57 20.3527 105.116 22.9451 106.376 24.7092L108.003 23.5468ZM106.57 17.108C106.57 14.0577 107.18 11.9548 108.233 10.6291C109.252 9.34738 110.809 8.64 113.094 8.64V6.64C110.363 6.64 108.157 7.51062 106.668 9.38485C105.213 11.2152 104.57 13.8463 104.57 17.108H106.57ZM113.094 8.64C115.331 8.64 116.825 9.26569 117.778 10.3514L119.281 9.03256C117.834 7.38231 115.705 6.64 113.094 6.64V8.64ZM117.784 10.358C118.745 11.4351 119.33 13.2638 119.33 16.064H121.33C121.33 13.0562 120.714 10.6369 119.275 9.02598L117.784 10.358ZM119.332 15.994L119.188 18.046L121.183 18.186L121.327 16.134L119.332 15.994ZM120.186 17.116H108.306V19.116H120.186V17.116ZM107.306 18.116C107.306 20.1942 107.675 21.9297 108.586 23.144L110.186 21.944C109.656 21.2383 109.306 20.0218 109.306 18.116H107.306ZM108.586 23.144C109.572 24.4596 111.196 24.984 113.13 24.984V22.984C111.511 22.984 110.639 22.5484 110.186 21.944L108.586 23.144ZM113.13 24.984C114.956 24.984 116.806 24.9109 118.679 24.765L118.524 22.771C116.701 22.9131 114.903 22.984 113.13 22.984V24.984ZM118.63 15.956C118.63 13.6978 118.273 11.8452 117.334 10.6564L115.765 11.8956C116.266 12.5308 116.63 13.7982 116.63 15.956H118.63ZM117.344 10.6693C116.391 9.42007 114.88 8.908 113.094 8.908V10.908C114.523 10.908 115.316 11.3079 115.755 11.8827L117.344 10.6693ZM113.094 8.908C111.298 8.908 109.785 9.46128 108.732 10.7004L110.255 11.9956C110.834 11.3147 111.721 10.908 113.094 10.908V8.908ZM108.722 10.7116C107.714 11.934 107.295 13.7493 107.27 15.9446L109.269 15.9674C109.293 13.9387 109.689 12.682 110.265 11.9844L108.722 10.7116ZM108.27 16.956H117.63V14.956H108.27V16.956ZM124.537 26H123.537V27H124.537V26ZM124.537 8V7H123.537V8H124.537ZM127.201 8H128.201V7H127.201V8ZM127.201 10.448H126.201V12.3524L127.769 11.2712L127.201 10.448ZM133.789 7.604H134.789V6.38668L133.595 6.62303L133.789 7.604ZM133.789 10.34L133.976 11.3223L134.789 11.1675V10.34H133.789ZM130.621 11.24L130.275 10.302L130.268 10.3045L130.621 11.24ZM128.137 12.32L128.599 13.2072L128.606 13.2033L128.614 13.1993L128.137 12.32ZM127.237 12.788L126.776 11.9008L126.237 12.1809V12.788H127.237ZM127.237 26V27H128.237V26H127.237ZM125.537 26V8H123.537V26H125.537ZM124.537 9H127.201V7H124.537V9ZM126.201 8V10.448H128.201V8H126.201ZM127.769 11.2712C129.754 9.90249 131.824 9.01239 133.983 8.58497L133.595 6.62303C131.147 7.10761 128.825 8.11351 126.634 9.62479L127.769 11.2712ZM132.789 7.604V10.34H134.789V7.604H132.789ZM133.602 9.35766C132.533 9.56138 131.423 9.87757 130.275 10.302L130.968 12.178C132.027 11.7864 133.03 11.5026 133.976 11.3223L133.602 9.35766ZM130.268 10.3045C129.172 10.7184 128.296 11.097 127.661 11.4407L128.614 13.1993C129.131 12.919 129.91 12.5776 130.975 12.1755L130.268 10.3045ZM127.676 11.4328L126.776 11.9008L127.699 13.6752L128.599 13.2072L127.676 11.4328ZM126.237 12.788V26H128.237V12.788H126.237ZM127.237 25H124.537V27H127.237V25Z" fill="black" mask="url(#path-1-outside-1_246_49)"/>
</svg>
