<svg width="138" height="43" viewBox="0 0 138 43" fill="none" xmlns="http://www.w3.org/2000/svg">
<path d="M19.2693 1.192C19.3893 1.12 19.5453 1.084 19.7373 1.084C19.9293 1.084 20.1033 1.168 20.2593 1.336C20.4153 1.492 20.4933 1.678 20.4933 1.894C20.4933 6.586 20.5113 9.424 20.5473 10.408C20.5953 11.38 20.6193 11.878 20.6193 11.902C20.6193 12.166 20.5473 12.418 20.4033 12.658C20.2593 12.886 20.0973 13 19.9173 13C19.7493 13 19.6173 12.994 19.5213 12.982C19.4373 12.958 19.3593 12.934 19.2873 12.91C19.2153 12.886 19.1433 12.838 19.0713 12.766L18.8913 12.586C18.8433 12.538 18.7773 12.448 18.6933 12.316C18.6213 12.172 18.5613 12.058 18.5133 11.974C18.4653 11.89 18.3873 11.746 18.2793 11.542C18.1833 11.326 17.9613 10.894 17.6133 10.246C17.2773 9.598 16.9713 9.016 16.6953 8.5C15.7473 6.76 14.8653 5.386 14.0493 4.378C14.0493 8.278 13.9413 10.984 13.7253 12.496C13.6893 12.784 13.4673 12.928 13.0593 12.928C12.8673 12.928 12.7053 12.88 12.5733 12.784C12.4533 12.688 12.3933 12.532 12.3933 12.316C12.3933 12.1 12.4353 10.912 12.5193 8.752C12.6153 6.592 12.6633 5.248 12.6633 4.72C12.6633 4.18 12.6633 3.838 12.6633 3.694C12.6633 2.83 12.7293 2.344 12.8613 2.236C12.9933 2.128 13.1313 2.074 13.2753 2.074C13.9353 2.074 14.9433 3.154 16.2993 5.314C16.5633 5.734 17.0673 6.616 17.8113 7.96C18.5553 9.292 18.9993 10.114 19.1433 10.426L18.9273 2.956C18.9273 1.924 19.0413 1.336 19.2693 1.192ZM26.9414 4.594C27.4694 4.594 27.7334 5.044 27.7334 5.944C27.7334 6.04 27.7334 6.142 27.7334 6.25L27.6974 7.51C27.6854 7.906 27.6794 8.296 27.6794 8.68L27.9494 12.748C27.9494 13.048 27.6434 13.198 27.0314 13.198C26.9954 13.198 26.9054 13.198 26.7614 13.198C26.6294 13.198 26.5334 13.144 26.4734 13.036C26.4254 12.928 26.4194 12.796 26.4554 12.64C26.5034 12.484 26.4914 12.31 26.4194 12.118C25.8674 12.706 25.1354 13 24.2234 13C22.5314 13 21.6854 11.692 21.6854 9.076C21.6854 7.624 21.9554 6.526 22.4954 5.782C23.0474 5.038 23.8334 4.666 24.8534 4.666C25.3334 4.666 25.8134 4.75 26.2934 4.918C26.4494 4.702 26.6654 4.594 26.9414 4.594ZM25.0694 6.232C24.3854 6.232 23.8754 6.43 23.5394 6.826C23.2034 7.222 23.0354 7.948 23.0354 9.004C23.0354 10.78 23.5154 11.668 24.4754 11.668C24.7274 11.668 25.0034 11.554 25.3034 11.326C25.6154 11.098 25.8314 10.84 25.9514 10.552C26.1794 9.904 26.2934 9.196 26.2934 8.428C26.2934 7.66 26.1974 7.102 26.0054 6.754C25.8254 6.406 25.5134 6.232 25.0694 6.232ZM29.4182 4.594L30.3182 4.612C30.5222 4.612 30.6362 4.606 30.6602 4.594V0.903999C30.6722 0.7 30.7742 0.526 30.9662 0.381999C31.1582 0.237999 31.3382 0.165999 31.5062 0.165999C31.6742 0.165999 31.8062 0.219999 31.9022 0.327999C32.0102 0.435999 32.0582 0.603999 32.0462 0.831999C32.0342 1.06 32.0282 2.308 32.0282 4.576L34.1342 4.504C34.4942 4.504 34.6742 4.714 34.6742 5.134C34.6742 5.446 34.5782 5.68 34.3862 5.836C34.2062 5.992 34.0082 6.076 33.7922 6.088C33.5882 6.1 33.3842 6.106 33.1802 6.106L32.0822 6.088C32.0822 6.58 32.1302 7.552 32.2262 9.004C32.3342 10.456 32.4182 11.398 32.4782 11.83C32.5382 12.25 32.5502 12.526 32.5142 12.658C32.4782 12.778 32.4122 12.862 32.3162 12.91C32.1602 12.982 31.9502 13.018 31.6862 13.018C31.4222 13.018 31.2662 12.874 31.2182 12.586C30.9782 11.014 30.8162 8.854 30.7322 6.106C30.6242 6.118 30.2102 6.124 29.4902 6.124C28.7702 6.124 28.4102 5.914 28.4102 5.494C28.4102 4.894 28.7462 4.594 29.4182 4.594ZM40.1777 4.594C40.7057 4.594 40.9697 5.044 40.9697 5.944C40.9697 6.04 40.9697 6.142 40.9697 6.25L40.9337 7.51C40.9217 7.906 40.9157 8.296 40.9157 8.68L41.1857 12.748C41.1857 13.048 40.8797 13.198 40.2677 13.198C40.2317 13.198 40.1417 13.198 39.9977 13.198C39.8657 13.198 39.7697 13.144 39.7097 13.036C39.6617 12.928 39.6557 12.796 39.6917 12.64C39.7397 12.484 39.7277 12.31 39.6557 12.118C39.1037 12.706 38.3717 13 37.4597 13C35.7677 13 34.9217 11.692 34.9217 9.076C34.9217 7.624 35.1917 6.526 35.7317 5.782C36.2837 5.038 37.0697 4.666 38.0897 4.666C38.5697 4.666 39.0497 4.75 39.5297 4.918C39.6857 4.702 39.9017 4.594 40.1777 4.594ZM38.3057 6.232C37.6217 6.232 37.1117 6.43 36.7757 6.826C36.4397 7.222 36.2717 7.948 36.2717 9.004C36.2717 10.78 36.7517 11.668 37.7117 11.668C37.9637 11.668 38.2397 11.554 38.5397 11.326C38.8517 11.098 39.0677 10.84 39.1877 10.552C39.4157 9.904 39.5297 9.196 39.5297 8.428C39.5297 7.66 39.4337 7.102 39.2417 6.754C39.0617 6.406 38.7497 6.232 38.3057 6.232ZM42.1505 1.354C42.1865 0.897999 42.2585 0.603999 42.3665 0.471999C42.4865 0.328 42.6725 0.256 42.9245 0.256C43.4405 0.256 43.6985 0.466 43.6985 0.885999C43.6985 1.21 43.6685 2.056 43.6085 3.424C43.5605 4.792 43.5365 6.016 43.5365 7.096C43.5365 8.176 43.5785 9.046 43.6625 9.706C43.8065 10.858 44.0105 11.434 44.2745 11.434C44.5385 11.434 44.7365 11.248 44.8685 10.876C44.9285 10.732 45.0245 10.606 45.1565 10.498C45.2885 10.378 45.4565 10.318 45.6605 10.318C46.0805 10.318 46.2905 10.672 46.2905 11.38C46.2905 11.764 46.0805 12.148 45.6605 12.532C45.2525 12.904 44.8445 13.09 44.4365 13.09C44.0285 13.09 43.6985 13.024 43.4465 12.892C43.2065 12.748 43.0085 12.538 42.8525 12.262C42.7085 11.986 42.5885 11.722 42.4925 11.47C42.4085 11.206 42.3485 10.888 42.3125 10.516C42.2405 9.916 42.1865 8.956 42.1505 7.636C42.1265 6.304 42.1145 5.038 42.1145 3.838C42.1145 2.626 42.1265 1.798 42.1505 1.354ZM48.1738 1.624C48.3898 1.624 48.5938 1.726 48.7858 1.93C48.9778 2.134 49.0738 2.35 49.0738 2.578C49.0738 2.794 48.9658 3.016 48.7498 3.244C48.5458 3.472 48.3298 3.586 48.1018 3.586C47.8738 3.586 47.6638 3.49 47.4718 3.298C47.2918 3.106 47.2018 2.86 47.2018 2.56C47.2018 1.984 47.5138 1.672 48.1378 1.624C48.1498 1.624 48.1618 1.624 48.1738 1.624ZM48.9298 11.056L48.9478 12.316C48.9478 12.544 48.8578 12.736 48.6778 12.892C48.4978 13.036 48.3058 13.108 48.1018 13.108C47.8018 13.108 47.6458 12.958 47.6338 12.658C47.4778 8.83 47.3998 6.712 47.3998 6.304C47.3998 5.896 47.4178 5.398 47.4538 4.81C47.4778 4.594 47.6158 4.486 47.8678 4.486C48.5038 4.486 48.8638 4.744 48.9478 5.26C48.9838 5.524 49.0018 5.734 49.0018 5.89L48.9298 7.024V11.056ZM56.0331 4.594C56.5611 4.594 56.8251 5.044 56.8251 5.944C56.8251 6.04 56.8251 6.142 56.8251 6.25L56.7891 7.51C56.7771 7.906 56.7711 8.296 56.7711 8.68L57.0411 12.748C57.0411 13.048 56.7351 13.198 56.1231 13.198C56.0871 13.198 55.9971 13.198 55.8531 13.198C55.7211 13.198 55.6251 13.144 55.5651 13.036C55.5171 12.928 55.5111 12.796 55.5471 12.64C55.5951 12.484 55.5831 12.31 55.5111 12.118C54.9591 12.706 54.2271 13 53.3151 13C51.6231 13 50.7771 11.692 50.7771 9.076C50.7771 7.624 51.0471 6.526 51.5871 5.782C52.1391 5.038 52.9251 4.666 53.9451 4.666C54.4251 4.666 54.9051 4.75 55.3851 4.918C55.5411 4.702 55.7571 4.594 56.0331 4.594ZM54.1611 6.232C53.4771 6.232 52.9671 6.43 52.6311 6.826C52.2951 7.222 52.1271 7.948 52.1271 9.004C52.1271 10.78 52.6071 11.668 53.5671 11.668C53.8191 11.668 54.0951 11.554 54.3951 11.326C54.7071 11.098 54.9231 10.84 55.0431 10.552C55.2711 9.904 55.3851 9.196 55.3851 8.428C55.3851 7.66 55.2891 7.102 55.0971 6.754C54.9171 6.406 54.6051 6.232 54.1611 6.232ZM62.0104 10.498L62.0284 9.094L62.1904 1.57C62.1904 1.426 62.2684 1.312 62.4244 1.228C62.5804 1.144 62.7784 1.102 63.0184 1.102C63.5944 1.102 63.8824 1.306 63.8824 1.714C63.8824 1.846 63.8104 2.854 63.6664 4.738C63.5344 6.622 63.4684 7.75 63.4684 8.122C63.4684 8.122 63.4684 8.758 63.4684 10.03C63.4684 10.93 63.5284 11.422 63.6484 11.506C63.8284 11.566 64.0384 11.596 64.2784 11.596L66.8704 11.416C67.4344 11.416 67.7164 11.62 67.7164 12.028C67.7164 12.352 67.5604 12.592 67.2484 12.748C66.9484 12.892 66.6484 12.976 66.3484 13C66.0484 13.012 65.6824 13.018 65.2504 13.018C63.3664 13.018 62.3464 12.958 62.1904 12.838C62.1064 12.766 62.0584 12.496 62.0464 12.028C62.0344 11.548 62.0224 11.212 62.0104 11.02C62.0104 10.828 62.0104 10.654 62.0104 10.498ZM73.9277 4.594C74.4557 4.594 74.7197 5.044 74.7197 5.944C74.7197 6.04 74.7197 6.142 74.7197 6.25L74.6837 7.51C74.6717 7.906 74.6657 8.296 74.6657 8.68L74.9357 12.748C74.9357 13.048 74.6297 13.198 74.0177 13.198C73.9817 13.198 73.8917 13.198 73.7477 13.198C73.6157 13.198 73.5197 13.144 73.4597 13.036C73.4117 12.928 73.4057 12.796 73.4417 12.64C73.4897 12.484 73.4777 12.31 73.4057 12.118C72.8537 12.706 72.1217 13 71.2097 13C69.5177 13 68.6717 11.692 68.6717 9.076C68.6717 7.624 68.9417 6.526 69.4817 5.782C70.0337 5.038 70.8197 4.666 71.8397 4.666C72.3197 4.666 72.7997 4.75 73.2797 4.918C73.4357 4.702 73.6517 4.594 73.9277 4.594ZM72.0557 6.232C71.3717 6.232 70.8617 6.43 70.5257 6.826C70.1897 7.222 70.0217 7.948 70.0217 9.004C70.0217 10.78 70.5017 11.668 71.4617 11.668C71.7137 11.668 71.9897 11.554 72.2897 11.326C72.6017 11.098 72.8177 10.84 72.9377 10.552C73.1657 9.904 73.2797 9.196 73.2797 8.428C73.2797 7.66 73.1837 7.102 72.9917 6.754C72.8117 6.406 72.4997 6.232 72.0557 6.232ZM78.4025 0.399999C78.5945 0.256 78.7565 0.177999 78.8885 0.165999C79.0325 0.141999 79.3505 0.129999 79.8425 0.129999C80.3465 0.129999 80.7605 0.202 81.0845 0.346C81.4085 0.489999 81.5705 0.777999 81.5705 1.21C81.5705 1.642 81.3965 1.858 81.0485 1.858C80.9765 1.858 80.7725 1.798 80.4365 1.678C80.1005 1.546 79.8845 1.48 79.7885 1.48C79.3685 1.48 79.1165 1.732 79.0325 2.236C79.0085 2.416 78.9965 2.788 78.9965 3.352C78.9965 3.904 78.9965 4.36 78.9965 4.72H80.2565C80.7845 4.744 81.0485 4.93 81.0485 5.278C81.0485 5.782 80.6885 6.046 79.9685 6.07C79.8605 6.082 79.7285 6.088 79.5725 6.088C79.4165 6.088 79.2365 6.082 79.0325 6.07C79.0565 6.55 79.1105 7.408 79.1945 8.644C79.2785 9.868 79.3205 11.062 79.3205 12.226C79.3205 12.466 79.2245 12.658 79.0325 12.802C78.8405 12.946 78.6425 13.018 78.4385 13.018C78.1145 13.018 77.9525 12.826 77.9525 12.442C77.9525 11.362 77.9105 10.312 77.8265 9.292C77.7425 8.272 77.6825 7.198 77.6465 6.07C76.5665 6.07 75.9365 5.962 75.7565 5.746C75.6845 5.662 75.6485 5.554 75.6485 5.422C75.6485 5.11 75.7745 4.906 76.0265 4.81C76.2905 4.714 76.5905 4.666 76.9265 4.666C77.2625 4.666 77.5025 4.666 77.6465 4.666C77.6825 2.71 77.7905 1.498 77.9705 1.03C78.0785 0.742 78.2225 0.532 78.4025 0.399999ZM85.6093 4.612C86.4733 4.612 87.1813 5.026 87.7333 5.854C88.2973 6.682 88.5793 7.678 88.5793 8.842C88.5793 9.994 88.2913 10.978 87.7153 11.794C87.1513 12.61 86.3953 13.018 85.4473 13.018C84.5113 13.018 83.7553 12.604 83.1793 11.776C82.6033 10.936 82.3153 10.006 82.3153 8.986C82.3153 7.678 82.5793 6.634 83.1073 5.854C83.6713 5.026 84.5053 4.612 85.6093 4.612ZM85.3933 6.088C84.8893 6.088 84.4753 6.352 84.1513 6.88C83.8273 7.408 83.6653 7.966 83.6653 8.554C83.6653 9.466 83.8453 10.162 84.2053 10.642C84.5653 11.122 84.9733 11.362 85.4293 11.362C86.2453 11.362 86.7673 11.008 86.9953 10.3C87.0913 9.964 87.1393 9.544 87.1393 9.04C87.1393 7.072 86.5573 6.088 85.3933 6.088ZM89.647 5.296C89.695 5.092 89.797 4.924 89.953 4.792C90.109 4.648 90.265 4.576 90.421 4.576C90.589 4.576 90.715 4.606 90.799 4.666C90.895 4.726 90.949 4.78 90.961 4.828C90.985 4.876 91.009 4.96 91.033 5.08C90.961 6.016 90.925 6.862 90.925 7.618C90.925 8.362 91.015 9.22 91.195 10.192C91.375 11.152 91.573 11.632 91.789 11.632C92.113 11.632 92.521 11.452 93.013 11.092C93.517 10.732 93.877 10.354 94.093 9.958C93.949 8.23 93.877 6.748 93.877 5.512C93.877 5.26 93.955 5.044 94.111 4.864C94.279 4.684 94.477 4.594 94.705 4.594C95.077 4.594 95.263 4.846 95.263 5.35C95.263 6.202 95.323 7.468 95.443 9.148C95.575 10.828 95.707 11.896 95.839 12.352C95.863 12.448 95.875 12.562 95.875 12.694C95.875 12.814 95.791 12.928 95.623 13.036C95.467 13.156 95.257 13.216 94.993 13.216C94.741 13.216 94.573 13.072 94.489 12.784C94.465 12.544 94.405 12.184 94.309 11.704C93.469 12.58 92.623 13.018 91.771 13.018C91.375 13.018 91.021 12.868 90.709 12.568C90.397 12.268 90.151 11.86 89.971 11.344C89.659 10.348 89.503 9.412 89.503 8.536C89.503 7.66 89.551 6.58 89.647 5.296ZM99.2121 10.372L99.2301 12.226C99.2301 12.442 99.1281 12.64 98.9241 12.82C98.7321 13 98.5401 13.09 98.3481 13.09C98.0721 13.09 97.8981 12.874 97.8261 12.442C97.8141 12.346 97.7661 11.47 97.6821 9.814C97.5981 8.146 97.4361 6.838 97.1961 5.89C97.0881 5.434 97.0341 5.164 97.0341 5.08C97.0341 4.684 97.2741 4.486 97.7541 4.486C97.9581 4.486 98.1201 4.564 98.2401 4.72C98.3601 4.876 98.4321 5.038 98.4561 5.206C98.4921 5.362 98.5221 5.578 98.5461 5.854C98.5701 6.13 98.5881 6.304 98.6001 6.376C98.8521 5.776 99.2301 5.326 99.7341 5.026C100.238 4.726 100.79 4.576 101.39 4.576C102.374 4.576 102.866 4.828 102.866 5.332C102.866 5.584 102.776 5.788 102.596 5.944C102.428 6.088 102.23 6.16 102.002 6.16C100.982 6.16 100.262 6.484 99.8421 7.132C99.4221 7.78 99.2121 8.86 99.2121 10.372ZM103.564 8.788C103.564 7.984 103.774 7.252 104.194 6.592C104.626 5.932 105.172 5.44 105.832 5.116C106.492 4.78 107.134 4.612 107.758 4.612C108.382 4.612 108.88 4.69 109.252 4.846C109.636 4.99 109.828 5.188 109.828 5.44C109.828 5.68 109.756 5.926 109.612 6.178C109.48 6.418 109.3 6.538 109.072 6.538C108.988 6.538 108.754 6.472 108.37 6.34C107.998 6.196 107.758 6.124 107.65 6.124C106.954 6.124 106.36 6.382 105.868 6.898C105.376 7.402 105.13 8.074 105.13 8.914C105.13 9.754 105.262 10.384 105.526 10.804C105.802 11.212 106.27 11.416 106.93 11.416C107.194 11.416 107.644 11.266 108.28 10.966C108.928 10.654 109.33 10.498 109.486 10.498C109.642 10.498 109.768 10.546 109.864 10.642C109.96 10.738 110.008 10.858 110.008 11.002C110.008 11.29 109.822 11.596 109.45 11.92C109.09 12.232 108.64 12.496 108.1 12.712C107.56 12.916 107.074 13.018 106.642 13.018C105.682 13.018 104.926 12.64 104.374 11.884C103.834 11.128 103.564 10.096 103.564 8.788ZM115.816 4.594C116.344 4.594 116.608 5.044 116.608 5.944C116.608 6.04 116.608 6.142 116.608 6.25L116.572 7.51C116.56 7.906 116.554 8.296 116.554 8.68L116.824 12.748C116.824 13.048 116.518 13.198 115.906 13.198C115.87 13.198 115.78 13.198 115.636 13.198C115.504 13.198 115.408 13.144 115.348 13.036C115.3 12.928 115.294 12.796 115.33 12.64C115.378 12.484 115.366 12.31 115.294 12.118C114.742 12.706 114.01 13 113.098 13C111.406 13 110.56 11.692 110.56 9.076C110.56 7.624 110.83 6.526 111.37 5.782C111.922 5.038 112.708 4.666 113.728 4.666C114.208 4.666 114.688 4.75 115.168 4.918C115.324 4.702 115.54 4.594 115.816 4.594ZM113.944 6.232C113.26 6.232 112.75 6.43 112.414 6.826C112.078 7.222 111.91 7.948 111.91 9.004C111.91 10.78 112.39 11.668 113.35 11.668C113.602 11.668 113.878 11.554 114.178 11.326C114.49 11.098 114.706 10.84 114.826 10.552C115.054 9.904 115.168 9.196 115.168 8.428C115.168 7.66 115.072 7.102 114.88 6.754C114.7 6.406 114.388 6.232 113.944 6.232ZM122.145 4.576L122.127 1.102C122.127 0.454 122.331 0.129999 122.739 0.129999C123.159 0.129999 123.393 0.309999 123.441 0.669999C123.465 0.825999 123.495 1.768 123.531 3.496C123.567 5.224 123.621 6.844 123.693 8.356C123.777 9.868 123.819 11.278 123.819 12.586C123.819 12.946 123.549 13.126 123.009 13.126C122.649 13.126 122.469 12.874 122.469 12.37C121.953 12.778 121.341 12.982 120.633 12.982C119.733 12.982 119.001 12.646 118.437 11.974C117.885 11.302 117.609 10.474 117.609 9.49C117.609 8.506 117.807 7.588 118.203 6.736C118.611 5.872 119.241 5.254 120.093 4.882C120.621 4.654 121.131 4.54 121.623 4.54C121.803 4.54 121.977 4.552 122.145 4.576ZM122.235 7.042C122.151 6.778 122.049 6.58 121.929 6.448C121.809 6.304 121.677 6.22 121.533 6.196C121.401 6.16 121.239 6.142 121.047 6.142C120.855 6.142 120.621 6.214 120.345 6.358C120.069 6.502 119.835 6.736 119.643 7.06C119.259 7.708 119.067 8.392 119.067 9.112C119.067 9.82 119.205 10.402 119.481 10.858C119.769 11.302 120.171 11.524 120.687 11.524C121.215 11.524 121.629 11.266 121.929 10.75C122.229 10.234 122.379 9.574 122.379 8.77C122.379 7.87 122.331 7.294 122.235 7.042ZM127.449 4.666C128.085 4.666 128.691 4.852 129.267 5.224C129.843 5.596 130.131 6.058 130.131 6.61C130.131 7.15 129.897 7.678 129.429 8.194C128.961 8.698 128.337 9.004 127.557 9.112C127.221 9.16 126.717 9.184 126.045 9.184C126.177 10.204 126.435 10.876 126.819 11.2C126.939 11.332 127.101 11.398 127.305 11.398C128.049 11.398 128.673 11.164 129.177 10.696C129.681 10.216 130.041 9.976 130.257 9.976C130.353 9.976 130.497 10.066 130.689 10.246C130.881 10.426 130.977 10.594 130.977 10.75C130.977 11.062 130.599 11.512 129.843 12.1C129.507 12.376 129.099 12.61 128.619 12.802C128.151 12.982 127.713 13.072 127.305 13.072C126.261 13.072 125.493 12.4 125.001 11.056C124.689 10.228 124.533 9.316 124.533 8.32C124.533 7.324 124.767 6.466 125.235 5.746C125.703 5.026 126.441 4.666 127.449 4.666ZM127.539 5.908C127.083 5.908 126.693 6.166 126.369 6.682C126.249 6.862 126.135 7.27 126.027 7.906C127.707 7.906 128.547 7.492 128.547 6.664C128.547 6.16 128.211 5.908 127.539 5.908ZM1.39063 25.318L8.68063 25.21C9.02863 25.318 9.20263 25.492 9.20263 25.732C9.20263 26.332 8.95663 26.632 8.46463 26.632C7.56463 26.632 6.61063 26.656 5.60263 26.704C5.54263 27.736 5.51263 28.516 5.51263 29.044C5.51263 29.56 5.51263 29.89 5.51263 30.034L5.58463 36.352C5.58463 36.724 5.48863 36.94 5.29663 37C5.15263 37.048 4.97263 37.072 4.75663 37.072C4.40863 37.072 4.21663 36.874 4.18063 36.478C4.10863 35.554 4.07263 33.832 4.07263 31.312C4.07263 28.78 4.10863 27.256 4.18063 26.74C3.92863 26.752 3.55663 26.758 3.06463 26.758C2.57263 26.758 1.96063 26.752 1.22863 26.74C1.03663 26.74 0.886633 26.68 0.778633 26.56C0.670633 26.44 0.616633 26.296 0.616633 26.128C0.616633 25.948 0.688633 25.774 0.832633 25.606C0.988633 25.438 1.17463 25.342 1.39063 25.318ZM9.66655 29.296C9.71455 29.092 9.81655 28.924 9.97255 28.792C10.1286 28.648 10.2846 28.576 10.4406 28.576C10.6086 28.576 10.7346 28.606 10.8186 28.666C10.9146 28.726 10.9686 28.78 10.9806 28.828C11.0046 28.876 11.0286 28.96 11.0526 29.08C10.9806 30.016 10.9446 30.862 10.9446 31.618C10.9446 32.362 11.0346 33.22 11.2146 34.192C11.3946 35.152 11.5926 35.632 11.8086 35.632C12.1326 35.632 12.5406 35.452 13.0326 35.092C13.5366 34.732 13.8966 34.354 14.1126 33.958C13.9686 32.23 13.8966 30.748 13.8966 29.512C13.8966 29.26 13.9746 29.044 14.1306 28.864C14.2986 28.684 14.4966 28.594 14.7246 28.594C15.0966 28.594 15.2826 28.846 15.2826 29.35C15.2826 30.202 15.3426 31.468 15.4626 33.148C15.5946 34.828 15.7266 35.896 15.8586 36.352C15.8826 36.448 15.8946 36.562 15.8946 36.694C15.8946 36.814 15.8106 36.928 15.6426 37.036C15.4866 37.156 15.2766 37.216 15.0126 37.216C14.7606 37.216 14.5926 37.072 14.5086 36.784C14.4846 36.544 14.4246 36.184 14.3286 35.704C13.4886 36.58 12.6426 37.018 11.7906 37.018C11.3946 37.018 11.0406 36.868 10.7286 36.568C10.4166 36.268 10.1706 35.86 9.99055 35.344C9.67855 34.348 9.52255 33.412 9.52255 32.536C9.52255 31.66 9.57055 30.58 9.66655 29.296ZM21.364 30.88C21.364 30.172 21.616 29.608 22.12 29.188C22.624 28.768 23.206 28.558 23.866 28.558C24.538 28.558 25.18 28.678 25.792 28.918C26.404 29.158 26.71 29.476 26.71 29.872C26.71 30.076 26.632 30.238 26.476 30.358C26.32 30.478 26.182 30.538 26.062 30.538C25.954 30.538 25.864 30.538 25.792 30.538C25.732 30.526 25.492 30.412 25.072 30.196C24.664 29.98 24.286 29.872 23.938 29.872C23.59 29.872 23.29 29.962 23.038 30.142C22.798 30.31 22.678 30.562 22.678 30.898C22.678 31.234 22.816 31.498 23.092 31.69C23.38 31.882 23.878 32.05 24.586 32.194C25.294 32.326 25.834 32.518 26.206 32.77C26.59 33.022 26.782 33.49 26.782 34.174C26.782 35.17 26.518 35.878 25.99 36.298C25.474 36.706 24.844 36.91 24.1 36.91C23.356 36.91 22.72 36.808 22.192 36.604C21.676 36.4 21.418 36.094 21.418 35.686C21.418 35.218 21.652 34.984 22.12 34.984C22.24 34.984 22.504 35.068 22.912 35.236C23.32 35.404 23.722 35.488 24.118 35.488C24.526 35.488 24.832 35.362 25.036 35.11C25.252 34.846 25.36 34.546 25.36 34.21C25.36 33.874 25.222 33.634 24.946 33.49C24.67 33.334 24.25 33.208 23.686 33.112C23.122 33.016 22.708 32.914 22.444 32.806C21.724 32.518 21.364 31.876 21.364 30.88ZM29.1718 25.624C29.3878 25.624 29.5918 25.726 29.7838 25.93C29.9758 26.134 30.0718 26.35 30.0718 26.578C30.0718 26.794 29.9638 27.016 29.7478 27.244C29.5438 27.472 29.3278 27.586 29.0998 27.586C28.8718 27.586 28.6618 27.49 28.4698 27.298C28.2898 27.106 28.1998 26.86 28.1998 26.56C28.1998 25.984 28.5118 25.672 29.1358 25.624C29.1478 25.624 29.1598 25.624 29.1718 25.624ZM29.9278 35.056L29.9458 36.316C29.9458 36.544 29.8558 36.736 29.6758 36.892C29.4958 37.036 29.3038 37.108 29.0998 37.108C28.7998 37.108 28.6438 36.958 28.6318 36.658C28.4758 32.83 28.3978 30.712 28.3978 30.304C28.3978 29.896 28.4158 29.398 28.4518 28.81C28.4758 28.594 28.6138 28.486 28.8658 28.486C29.5018 28.486 29.8618 28.744 29.9458 29.26C29.9818 29.524 29.9998 29.734 29.9998 29.89L29.9278 31.024V35.056ZM36.4636 30.88C36.4636 30.172 36.7156 29.608 37.2196 29.188C37.7236 28.768 38.3056 28.558 38.9656 28.558C39.6376 28.558 40.2796 28.678 40.8916 28.918C41.5036 29.158 41.8096 29.476 41.8096 29.872C41.8096 30.076 41.7316 30.238 41.5756 30.358C41.4196 30.478 41.2816 30.538 41.1616 30.538C41.0536 30.538 40.9636 30.538 40.8916 30.538C40.8316 30.526 40.5916 30.412 40.1716 30.196C39.7636 29.98 39.3856 29.872 39.0376 29.872C38.6896 29.872 38.3896 29.962 38.1376 30.142C37.8976 30.31 37.7776 30.562 37.7776 30.898C37.7776 31.234 37.9156 31.498 38.1916 31.69C38.4796 31.882 38.9776 32.05 39.6856 32.194C40.3936 32.326 40.9336 32.518 41.3056 32.77C41.6896 33.022 41.8816 33.49 41.8816 34.174C41.8816 35.17 41.6176 35.878 41.0896 36.298C40.5736 36.706 39.9436 36.91 39.1996 36.91C38.4556 36.91 37.8196 36.808 37.2916 36.604C36.7756 36.4 36.5176 36.094 36.5176 35.686C36.5176 35.218 36.7516 34.984 37.2196 34.984C37.3396 34.984 37.6036 35.068 38.0116 35.236C38.4196 35.404 38.8216 35.488 39.2176 35.488C39.6256 35.488 39.9316 35.362 40.1356 35.11C40.3516 34.846 40.4596 34.546 40.4596 34.21C40.4596 33.874 40.3216 33.634 40.0456 33.49C39.7696 33.334 39.3496 33.208 38.7856 33.112C38.2216 33.016 37.8076 32.914 37.5436 32.806C36.8236 32.518 36.4636 31.876 36.4636 30.88ZM48.1054 28.594C48.6334 28.594 48.8974 29.044 48.8974 29.944C48.8974 30.04 48.8974 30.142 48.8974 30.25L48.8614 31.51C48.8494 31.906 48.8434 32.296 48.8434 32.68L49.1134 36.748C49.1134 37.048 48.8074 37.198 48.1954 37.198C48.1594 37.198 48.0694 37.198 47.9254 37.198C47.7934 37.198 47.6974 37.144 47.6374 37.036C47.5894 36.928 47.5834 36.796 47.6194 36.64C47.6674 36.484 47.6554 36.31 47.5834 36.118C47.0314 36.706 46.2994 37 45.3874 37C43.6954 37 42.8494 35.692 42.8494 33.076C42.8494 31.624 43.1194 30.526 43.6594 29.782C44.2114 29.038 44.9974 28.666 46.0174 28.666C46.4974 28.666 46.9774 28.75 47.4574 28.918C47.6134 28.702 47.8294 28.594 48.1054 28.594ZM46.2334 30.232C45.5494 30.232 45.0394 30.43 44.7034 30.826C44.3674 31.222 44.1994 31.948 44.1994 33.004C44.1994 34.78 44.6794 35.668 45.6394 35.668C45.8914 35.668 46.1674 35.554 46.4674 35.326C46.7794 35.098 46.9954 34.84 47.1154 34.552C47.3434 33.904 47.4574 33.196 47.4574 32.428C47.4574 31.66 47.3614 31.102 47.1694 30.754C46.9894 30.406 46.6774 30.232 46.2334 30.232ZM50.1682 24.832C50.1682 24.352 50.4682 24.112 51.0682 24.112C51.3442 24.112 51.5062 24.28 51.5542 24.616V27.316C51.5542 27.82 51.5602 28.324 51.5722 28.828C51.8122 28.756 52.1182 28.72 52.4902 28.72C53.6542 28.72 54.5542 29.11 55.1902 29.89C55.8262 30.67 56.1442 31.648 56.1442 32.824C56.1442 34 55.7662 34.996 55.0102 35.812C54.2662 36.616 53.3062 37.018 52.1302 37.018C50.9542 37.018 50.3662 36.688 50.3662 36.028C50.3662 35.356 50.3302 33.664 50.2582 30.952C50.1982 28.228 50.1682 26.188 50.1682 24.832ZM53.8042 30.628C53.3722 30.292 52.9162 30.124 52.4362 30.124C52.1722 30.124 51.9022 30.172 51.6262 30.268C51.6982 31.252 51.7342 32.998 51.7342 35.506C51.9382 35.578 52.1482 35.614 52.3642 35.614C52.8322 35.614 53.3002 35.44 53.7682 35.092C54.4642 34.612 54.8122 33.88 54.8122 32.896C54.8122 31.9 54.4762 31.144 53.8042 30.628ZM60.1422 28.666C60.7782 28.666 61.3842 28.852 61.9602 29.224C62.5362 29.596 62.8242 30.058 62.8242 30.61C62.8242 31.15 62.5902 31.678 62.1222 32.194C61.6542 32.698 61.0302 33.004 60.2502 33.112C59.9142 33.16 59.4102 33.184 58.7382 33.184C58.8702 34.204 59.1282 34.876 59.5122 35.2C59.6322 35.332 59.7942 35.398 59.9982 35.398C60.7422 35.398 61.3662 35.164 61.8702 34.696C62.3742 34.216 62.7342 33.976 62.9502 33.976C63.0462 33.976 63.1902 34.066 63.3822 34.246C63.5742 34.426 63.6702 34.594 63.6702 34.75C63.6702 35.062 63.2922 35.512 62.5362 36.1C62.2002 36.376 61.7922 36.61 61.3122 36.802C60.8442 36.982 60.4062 37.072 59.9982 37.072C58.9542 37.072 58.1862 36.4 57.6942 35.056C57.3822 34.228 57.2262 33.316 57.2262 32.32C57.2262 31.324 57.4602 30.466 57.9282 29.746C58.3962 29.026 59.1342 28.666 60.1422 28.666ZM60.2322 29.908C59.7762 29.908 59.3862 30.166 59.0622 30.682C58.9422 30.862 58.8282 31.27 58.7202 31.906C60.4002 31.906 61.2402 31.492 61.2402 30.664C61.2402 30.16 60.9042 29.908 60.2322 29.908ZM65.0281 30.88C65.0281 30.172 65.2801 29.608 65.7841 29.188C66.2881 28.768 66.8701 28.558 67.5301 28.558C68.2021 28.558 68.8441 28.678 69.4561 28.918C70.0681 29.158 70.3741 29.476 70.3741 29.872C70.3741 30.076 70.2961 30.238 70.1401 30.358C69.9841 30.478 69.8461 30.538 69.7261 30.538C69.6181 30.538 69.5281 30.538 69.4561 30.538C69.3961 30.526 69.1561 30.412 68.7361 30.196C68.3281 29.98 67.9501 29.872 67.6021 29.872C67.2541 29.872 66.9541 29.962 66.7021 30.142C66.4621 30.31 66.3421 30.562 66.3421 30.898C66.3421 31.234 66.4801 31.498 66.7561 31.69C67.0441 31.882 67.5421 32.05 68.2501 32.194C68.9581 32.326 69.4981 32.518 69.8701 32.77C70.2541 33.022 70.4461 33.49 70.4461 34.174C70.4461 35.17 70.1821 35.878 69.6541 36.298C69.1381 36.706 68.5081 36.91 67.7641 36.91C67.0201 36.91 66.3841 36.808 65.8561 36.604C65.3401 36.4 65.0821 36.094 65.0821 35.686C65.0821 35.218 65.3161 34.984 65.7841 34.984C65.9041 34.984 66.1681 35.068 66.5761 35.236C66.9841 35.404 67.3861 35.488 67.7821 35.488C68.1901 35.488 68.4961 35.362 68.7001 35.11C68.9161 34.846 69.0241 34.546 69.0241 34.21C69.0241 33.874 68.8861 33.634 68.6101 33.49C68.3341 33.334 67.9141 33.208 67.3501 33.112C66.7861 33.016 66.3721 32.914 66.1081 32.806C65.3881 32.518 65.0281 31.876 65.0281 30.88ZM81.5023 42.076C81.5023 42.052 81.5023 42.022 81.5023 41.986L81.5743 39.142C81.5743 38.53 81.5503 37.894 81.5023 37.234L81.3943 35.83C80.9983 36.61 80.1583 37 78.8743 37C78.2623 37 77.6923 36.802 77.1643 36.406C76.1563 35.626 75.6523 34.462 75.6523 32.914C75.6523 31.582 75.9523 30.538 76.5523 29.782C77.1643 29.026 78.0343 28.648 79.1623 28.648C80.2903 28.648 81.1243 28.948 81.6643 29.548C82.0363 29.956 82.3003 30.388 82.4563 30.844C82.6843 31.636 82.8043 32.56 82.8163 33.616V34.282L82.9603 38.008C82.9723 38.38 82.9783 38.896 82.9783 39.556V41.77C82.9303 41.998 82.8103 42.196 82.6183 42.364C82.4263 42.532 82.2523 42.616 82.0963 42.616C81.7003 42.616 81.5023 42.436 81.5023 42.076ZM78.6223 30.07C78.1063 30.07 77.7223 30.274 77.4703 30.682C77.2183 31.09 77.0923 31.75 77.0923 32.662C77.0923 33.574 77.2903 34.306 77.6863 34.858C78.0823 35.398 78.5383 35.668 79.0543 35.668C79.5703 35.668 80.0263 35.482 80.4223 35.11C80.8303 34.738 81.1423 34.21 81.3583 33.526C81.2983 32.254 81.0583 31.36 80.6383 30.844C80.2183 30.328 79.5463 30.07 78.6223 30.07ZM84.0923 29.296C84.1403 29.092 84.2423 28.924 84.3983 28.792C84.5543 28.648 84.7103 28.576 84.8663 28.576C85.0343 28.576 85.1603 28.606 85.2443 28.666C85.3403 28.726 85.3943 28.78 85.4063 28.828C85.4303 28.876 85.4543 28.96 85.4783 29.08C85.4063 30.016 85.3703 30.862 85.3703 31.618C85.3703 32.362 85.4603 33.22 85.6403 34.192C85.8203 35.152 86.0183 35.632 86.2343 35.632C86.5583 35.632 86.9663 35.452 87.4583 35.092C87.9623 34.732 88.3223 34.354 88.5383 33.958C88.3943 32.23 88.3223 30.748 88.3223 29.512C88.3223 29.26 88.4003 29.044 88.5563 28.864C88.7243 28.684 88.9223 28.594 89.1503 28.594C89.5223 28.594 89.7083 28.846 89.7083 29.35C89.7083 30.202 89.7683 31.468 89.8883 33.148C90.0203 34.828 90.1523 35.896 90.2843 36.352C90.3083 36.448 90.3203 36.562 90.3203 36.694C90.3203 36.814 90.2363 36.928 90.0683 37.036C89.9123 37.156 89.7023 37.216 89.4383 37.216C89.1863 37.216 89.0183 37.072 88.9343 36.784C88.9103 36.544 88.8503 36.184 88.7543 35.704C87.9143 36.58 87.0683 37.018 86.2163 37.018C85.8203 37.018 85.4663 36.868 85.1543 36.568C84.8423 36.268 84.5963 35.86 84.4163 35.344C84.1043 34.348 83.9483 33.412 83.9483 32.536C83.9483 31.66 83.9963 30.58 84.0923 29.296ZM93.9274 28.666C94.5634 28.666 95.1694 28.852 95.7454 29.224C96.3214 29.596 96.6094 30.058 96.6094 30.61C96.6094 31.15 96.3754 31.678 95.9074 32.194C95.4394 32.698 94.8154 33.004 94.0354 33.112C93.6994 33.16 93.1954 33.184 92.5234 33.184C92.6554 34.204 92.9134 34.876 93.2974 35.2C93.4174 35.332 93.5794 35.398 93.7834 35.398C94.5274 35.398 95.1514 35.164 95.6554 34.696C96.1594 34.216 96.5194 33.976 96.7354 33.976C96.8314 33.976 96.9754 34.066 97.1674 34.246C97.3594 34.426 97.4554 34.594 97.4554 34.75C97.4554 35.062 97.0774 35.512 96.3214 36.1C95.9854 36.376 95.5774 36.61 95.0974 36.802C94.6294 36.982 94.1914 37.072 93.7834 37.072C92.7394 37.072 91.9714 36.4 91.4794 35.056C91.1674 34.228 91.0114 33.316 91.0114 32.32C91.0114 31.324 91.2454 30.466 91.7134 29.746C92.1814 29.026 92.9194 28.666 93.9274 28.666ZM94.0174 29.908C93.5614 29.908 93.1714 30.166 92.8474 30.682C92.7274 30.862 92.6134 31.27 92.5054 31.906C94.1854 31.906 95.0254 31.492 95.0254 30.664C95.0254 30.16 94.6894 29.908 94.0174 29.908ZM100.829 34.372L100.847 36.226C100.847 36.442 100.745 36.64 100.541 36.82C100.349 37 100.157 37.09 99.9652 37.09C99.6892 37.09 99.5152 36.874 99.4432 36.442C99.4312 36.346 99.3832 35.47 99.2992 33.814C99.2152 32.146 99.0532 30.838 98.8132 29.89C98.7052 29.434 98.6512 29.164 98.6512 29.08C98.6512 28.684 98.8912 28.486 99.3712 28.486C99.5752 28.486 99.7372 28.564 99.8572 28.72C99.9772 28.876 100.049 29.038 100.073 29.206C100.109 29.362 100.139 29.578 100.163 29.854C100.187 30.13 100.205 30.304 100.217 30.376C100.469 29.776 100.847 29.326 101.351 29.026C101.855 28.726 102.407 28.576 103.007 28.576C103.991 28.576 104.483 28.828 104.483 29.332C104.483 29.584 104.393 29.788 104.213 29.944C104.045 30.088 103.847 30.16 103.619 30.16C102.599 30.16 101.879 30.484 101.459 31.132C101.039 31.78 100.829 32.86 100.829 34.372ZM108.025 28.666C108.661 28.666 109.267 28.852 109.843 29.224C110.419 29.596 110.707 30.058 110.707 30.61C110.707 31.15 110.473 31.678 110.005 32.194C109.537 32.698 108.913 33.004 108.133 33.112C107.797 33.16 107.293 33.184 106.621 33.184C106.753 34.204 107.011 34.876 107.395 35.2C107.515 35.332 107.677 35.398 107.881 35.398C108.625 35.398 109.249 35.164 109.753 34.696C110.257 34.216 110.617 33.976 110.833 33.976C110.929 33.976 111.073 34.066 111.265 34.246C111.457 34.426 111.553 34.594 111.553 34.75C111.553 35.062 111.175 35.512 110.419 36.1C110.083 36.376 109.675 36.61 109.195 36.802C108.727 36.982 108.289 37.072 107.881 37.072C106.837 37.072 106.069 36.4 105.577 35.056C105.265 34.228 105.109 33.316 105.109 32.32C105.109 31.324 105.343 30.466 105.811 29.746C106.279 29.026 107.017 28.666 108.025 28.666ZM108.115 29.908C107.659 29.908 107.269 30.166 106.945 30.682C106.825 30.862 106.711 31.27 106.603 31.906C108.283 31.906 109.123 31.492 109.123 30.664C109.123 30.16 108.787 29.908 108.115 29.908ZM114.927 34.372L114.945 36.226C114.945 36.442 114.843 36.64 114.639 36.82C114.447 37 114.255 37.09 114.063 37.09C113.787 37.09 113.613 36.874 113.541 36.442C113.529 36.346 113.481 35.47 113.397 33.814C113.313 32.146 113.151 30.838 112.911 29.89C112.803 29.434 112.749 29.164 112.749 29.08C112.749 28.684 112.989 28.486 113.469 28.486C113.673 28.486 113.835 28.564 113.955 28.72C114.075 28.876 114.147 29.038 114.171 29.206C114.207 29.362 114.237 29.578 114.261 29.854C114.285 30.13 114.303 30.304 114.315 30.376C114.567 29.776 114.945 29.326 115.449 29.026C115.953 28.726 116.505 28.576 117.105 28.576C118.089 28.576 118.581 28.828 118.581 29.332C118.581 29.584 118.491 29.788 118.311 29.944C118.143 30.088 117.945 30.16 117.717 30.16C116.697 30.16 115.977 30.484 115.557 31.132C115.137 31.78 114.927 32.86 114.927 34.372ZM120.557 37.018C120.245 37.018 120.059 36.844 119.999 36.496C119.999 34.072 119.855 31.912 119.567 30.016C119.567 29.776 119.651 29.56 119.819 29.368C119.999 29.176 120.197 29.08 120.413 29.08C120.641 29.08 120.809 29.206 120.917 29.458C121.361 28.87 121.955 28.576 122.699 28.576C123.647 28.576 124.379 29.032 124.895 29.944C125.495 29.08 126.287 28.648 127.271 28.648C128.267 28.648 129.011 29.044 129.503 29.836C129.827 30.328 130.055 30.976 130.187 31.78C130.319 32.584 130.385 33.724 130.385 35.2C130.385 35.776 130.325 36.226 130.205 36.55C130.085 36.862 129.833 37.018 129.449 37.018C129.137 37.018 128.981 36.82 128.981 36.424L129.035 34.174C129.035 31.474 128.333 30.124 126.929 30.124C126.485 30.124 126.173 30.28 125.993 30.592C125.789 30.964 125.669 31.354 125.633 31.762C125.585 32.482 125.561 33.136 125.561 33.724V36.334C125.561 36.526 125.465 36.688 125.273 36.82C125.081 36.952 124.883 37.018 124.679 37.018C124.415 37.018 124.247 36.844 124.175 36.496L124.229 32.77C124.229 31.45 124.007 30.628 123.563 30.304C123.347 30.148 123.017 30.07 122.573 30.07C122.141 30.07 121.817 30.232 121.601 30.556C121.397 30.88 121.295 31.402 121.295 32.122L121.403 35.47C121.403 36.502 121.121 37.018 120.557 37.018ZM134.357 28.666C134.993 28.666 135.599 28.852 136.175 29.224C136.751 29.596 137.039 30.058 137.039 30.61C137.039 31.15 136.805 31.678 136.337 32.194C135.869 32.698 135.245 33.004 134.465 33.112C134.129 33.16 133.625 33.184 132.953 33.184C133.085 34.204 133.343 34.876 133.727 35.2C133.847 35.332 134.009 35.398 134.213 35.398C134.957 35.398 135.581 35.164 136.085 34.696C136.589 34.216 136.949 33.976 137.165 33.976C137.261 33.976 137.405 34.066 137.597 34.246C137.789 34.426 137.885 34.594 137.885 34.75C137.885 35.062 137.507 35.512 136.751 36.1C136.415 36.376 136.007 36.61 135.527 36.802C135.059 36.982 134.621 37.072 134.213 37.072C133.169 37.072 132.401 36.4 131.909 35.056C131.597 34.228 131.441 33.316 131.441 32.32C131.441 31.324 131.675 30.466 132.143 29.746C132.611 29.026 133.349 28.666 134.357 28.666ZM134.447 29.908C133.991 29.908 133.601 30.166 133.277 30.682C133.157 30.862 133.043 31.27 132.935 31.906C134.615 31.906 135.455 31.492 135.455 30.664C135.455 30.16 135.119 29.908 134.447 29.908Z" fill="black"/>
</svg>
