<svg width="24" height="24" viewBox="0 0 24 24" fill="none" xmlns="http://www.w3.org/2000/svg">
<g clip-path="url(#clip0_140_635)">
<path d="M12 4C14.787 4 17.263 5.257 19.026 6.813C19.911 7.594 20.64 8.471 21.154 9.344C21.659 10.201 22 11.13 22 12C22 12.87 21.66 13.799 21.154 14.656C20.64 15.529 19.911 16.406 19.026 17.187C17.263 18.743 14.786 20 12 20C9.213 20 6.737 18.743 4.974 17.187C4.089 16.406 3.36 15.529 2.846 14.656C2.34 13.799 2 12.87 2 12C2 11.13 2.34 10.201 2.846 9.344C3.36 8.471 4.089 7.594 4.974 6.813C6.737 5.257 9.214 4 12 4ZM12 6C9.816 6 7.792 6.993 6.298 8.312C5.554 8.968 4.966 9.685 4.569 10.359C4.163 11.049 4 11.62 4 12C4 12.38 4.163 12.951 4.569 13.641C4.966 14.315 5.554 15.031 6.298 15.688C7.792 17.007 9.816 18 12 18C14.184 18 16.208 17.007 17.702 15.688C18.446 15.031 19.034 14.315 19.431 13.641C19.837 12.951 20 12.38 20 12C20 11.62 19.837 11.049 19.431 10.359C19.034 9.685 18.446 8.969 17.702 8.312C16.208 6.993 14.184 6 12 6ZM12 9C12.088 9 12.175 9.004 12.261 9.011C12.0439 9.39185 11.9579 9.8335 12.0163 10.268C12.0747 10.7025 12.2743 11.1057 12.5843 11.4157C12.8943 11.7257 13.2975 11.9253 13.732 11.9837C14.1665 12.0421 14.6081 11.9561 14.989 11.739C15.0416 12.3412 14.911 12.9452 14.6145 13.4719C14.3179 13.9986 13.8692 14.4234 13.327 14.6907C12.7849 14.958 12.1746 15.0553 11.5762 14.9699C10.9778 14.8844 10.4192 14.6202 9.97357 14.2118C9.52792 13.8034 9.21603 13.27 9.07876 12.6813C8.94149 12.0926 8.98524 11.4762 9.20429 10.9128C9.42334 10.3495 9.80746 9.8654 10.3063 9.52407C10.8052 9.18274 11.3955 9.00008 12 9Z" fill="black"/>
</g>
<defs>
<clipPath id="clip0_140_635">
<rect width="24" height="24" fill="white"/>
</clipPath>
</defs>
</svg>
