<svg width="124" height="16" viewBox="0 0 124 16" fill="none" xmlns="http://www.w3.org/2000/svg">
<path d="M0.84 15V0.999999H2.36L7.28 13.9L12.2 0.999999H13.72V15H13V1.68H12.72L7.8 14.58H6.76L1.84 1.68H1.56V15H0.84ZM17.5848 5.94C18.1982 5.19333 19.2448 4.82 20.7248 4.82C22.2048 4.82 23.2515 5.19333 23.8648 5.94C24.4782 6.68667 24.7848 8.03333 24.7848 9.98C24.7848 11.9267 24.5115 13.28 23.9648 14.04C23.4182 14.8 22.3382 15.18 20.7248 15.18C19.1115 15.18 18.0315 14.8 17.4848 14.04C16.9382 13.28 16.6648 11.9267 16.6648 9.98C16.6648 8.03333 16.9715 6.68667 17.5848 5.94ZM18.9448 14.32C19.3848 14.4667 19.9782 14.54 20.7248 14.54C21.4715 14.54 22.0582 14.4667 22.4848 14.32C22.9248 14.16 23.2582 13.8733 23.4848 13.46C23.7248 13.0333 23.8782 12.56 23.9448 12.04C24.0115 11.5067 24.0448 10.7667 24.0448 9.82C24.0448 8.14 23.8115 6.99333 23.3448 6.38C22.8782 5.76667 22.0048 5.46 20.7248 5.46C19.4448 5.46 18.5715 5.76667 18.1048 6.38C17.6382 6.99333 17.4048 8.14 17.4048 9.82C17.4048 10.7667 17.4382 11.5067 17.5048 12.04C17.5715 12.56 17.7182 13.0333 17.9448 13.46C18.1848 13.8733 18.5182 14.16 18.9448 14.32ZM34.7122 0.4V15H34.0122V14.16C33.6255 14.4133 33.0855 14.6467 32.3922 14.86C31.6989 15.0733 31.1322 15.18 30.6922 15.18C30.2655 15.18 29.9322 15.16 29.6922 15.12C29.4655 15.0933 29.1789 14.9933 28.8322 14.82C28.4855 14.6333 28.1989 14.3733 27.9722 14.04C27.7589 13.7067 27.5655 13.2067 27.3922 12.54C27.2322 11.8733 27.1522 11.08 27.1522 10.16C27.1522 8.34667 27.4589 7.00667 28.0722 6.14C28.6989 5.26 29.7989 4.82 31.3722 4.82C32.1322 4.82 33.0122 4.9 34.0122 5.06V0.4H34.7122ZM28.8122 13.88C29.1055 14.1467 29.3789 14.3267 29.6322 14.42C29.8989 14.5 30.2455 14.54 30.6722 14.54C31.0989 14.54 31.5989 14.4533 32.1722 14.28C32.7589 14.1067 33.2122 13.9333 33.5322 13.76L34.0122 13.5V5.7C32.9722 5.54 32.0922 5.46 31.3722 5.46C30.0255 5.46 29.1055 5.84 28.6122 6.6C28.1322 7.36 27.8922 8.54667 27.8922 10.16C27.8922 12.08 28.1989 13.32 28.8122 13.88ZM44.3252 5H45.0252V15H44.3252V14.2C44.2052 14.2667 44.0452 14.36 43.8452 14.48C43.6452 14.5867 43.2518 14.7333 42.6652 14.92C42.0918 15.0933 41.5518 15.18 41.0452 15.18C39.7118 15.18 38.8318 14.8467 38.4052 14.18C37.9785 13.5 37.7652 12.1733 37.7652 10.2V5H38.4652V10.16C38.4652 11.92 38.6252 13.0933 38.9452 13.68C39.2652 14.2533 39.9652 14.54 41.0452 14.54C41.5785 14.54 42.1185 14.46 42.6652 14.3C43.2118 14.1267 43.6252 13.96 43.9052 13.8L44.3252 13.54V5ZM48.2977 15V0.4H48.9977V15H48.2977ZM58.6792 14.4L59.2792 14.36L59.3192 15C57.8259 15.12 56.5926 15.18 55.6192 15.18C54.2059 15.1667 53.2259 14.74 52.6792 13.9C52.1326 13.0467 51.8592 11.7467 51.8592 10C51.8592 6.54667 53.2059 4.82 55.8992 4.82C57.1659 4.82 58.1126 5.2 58.7392 5.96C59.3792 6.72 59.6992 7.94 59.6992 9.62V10.28H52.5992C52.5992 11.72 52.8259 12.7933 53.2792 13.5C53.7326 14.1933 54.4859 14.54 55.5392 14.54C56.5926 14.54 57.6392 14.4933 58.6792 14.4ZM52.5992 9.64H58.9592C58.9592 8.13333 58.7126 7.06 58.2192 6.42C57.7392 5.78 56.9659 5.46 55.8992 5.46C53.6992 5.46 52.5992 6.85333 52.5992 9.64ZM62.2383 8.12V6.52H63.0383V8.12H62.2383ZM62.2383 15V13.4H63.0383V15H62.2383ZM73.4009 5.46C71.6143 5.46 70.7209 6.12667 70.7209 7.46C70.7209 8.08667 70.9076 8.53333 71.2809 8.8C71.6543 9.05333 72.4809 9.28 73.7609 9.48C75.0409 9.68 75.9343 9.94667 76.4409 10.28C76.9476 10.6133 77.2009 11.2867 77.2009 12.3C77.2009 13.3 76.8809 14.0333 76.2409 14.5C75.6009 14.9533 74.6543 15.18 73.4009 15.18C72.7209 15.18 71.8143 15.1 70.6809 14.94L70.1009 14.86L70.1809 14.2C71.6209 14.4267 72.7676 14.54 73.6209 14.54C74.4743 14.54 75.1609 14.3733 75.6809 14.04C76.2009 13.7067 76.4609 13.14 76.4609 12.34C76.4609 11.54 76.2543 11.0133 75.8409 10.76C75.4409 10.5067 74.6076 10.2867 73.3409 10.1C72.0876 9.9 71.2143 9.64 70.7209 9.32C70.2276 8.98667 69.9809 8.43333 69.9809 7.66C69.9809 6.88667 70.1609 6.29333 70.5209 5.88C70.8809 5.45333 71.3009 5.17333 71.7809 5.04C72.2609 4.89333 72.7609 4.82 73.2809 4.82C74.3609 4.82 75.3743 4.89333 76.3209 5.04L76.8409 5.12L76.8009 5.78C75.4409 5.56667 74.3076 5.46 73.4009 5.46ZM80.4597 15H79.7597V0.4H80.4597V5.6C81.633 5.08 82.8397 4.82 84.0797 4.82C85.3197 4.82 86.153 5.16 86.5797 5.84C87.0064 6.50667 87.2197 7.82667 87.2197 9.8V15H86.5197V9.84C86.5197 8.08 86.3597 6.91333 86.0397 6.34C85.7197 5.75333 85.0197 5.46 83.9397 5.46C83.4064 5.46 82.8464 5.52667 82.2597 5.66C81.6864 5.79333 81.2464 5.92667 80.9397 6.06L80.4597 6.26V15ZM96.927 7.94V13.7C96.9804 14.18 97.4804 14.46 98.427 14.54L98.387 15.16C97.4137 15.16 96.727 14.88 96.327 14.32C94.967 14.8933 93.6204 15.18 92.287 15.18C91.4604 15.18 90.8137 14.9333 90.347 14.44C89.8937 13.9467 89.667 13.2467 89.667 12.34C89.667 11.42 89.887 10.72 90.327 10.24C90.767 9.76 91.467 9.47333 92.427 9.38L96.227 8.98V7.94C96.227 7.08667 96.0404 6.46667 95.667 6.08C95.307 5.69333 94.7537 5.5 94.007 5.5C93.247 5.5 92.1937 5.58667 90.847 5.76L90.227 5.84L90.167 5.18C91.6604 4.94 92.9404 4.82 94.007 4.82C95.9537 4.82 96.927 5.86 96.927 7.94ZM92.507 10C91.747 10.08 91.207 10.3 90.887 10.66C90.567 11.02 90.407 11.56 90.407 12.28C90.407 13 90.567 13.56 90.887 13.96C91.2204 14.3467 91.6804 14.54 92.267 14.54C92.8537 14.54 93.4737 14.4733 94.127 14.34C94.7804 14.1933 95.2937 14.0533 95.667 13.92L96.227 13.72V9.62L92.507 10ZM100.189 15V5H100.889V6.56C101.289 6.24 101.883 5.9 102.669 5.54C103.469 5.16667 104.196 4.92 104.849 4.8V5.52C104.263 5.64 103.636 5.84 102.969 6.12C102.316 6.4 101.809 6.65333 101.449 6.88L100.889 7.22V15H100.189ZM112.82 14.4L113.42 14.36L113.46 15C111.967 15.12 110.733 15.18 109.76 15.18C108.347 15.1667 107.367 14.74 106.82 13.9C106.273 13.0467 106 11.7467 106 10C106 6.54667 107.347 4.82 110.04 4.82C111.307 4.82 112.253 5.2 112.88 5.96C113.52 6.72 113.84 7.94 113.84 9.62V10.28H106.74C106.74 11.72 106.967 12.7933 107.42 13.5C107.873 14.1933 108.627 14.54 109.68 14.54C110.733 14.54 111.78 14.4933 112.82 14.4ZM106.74 9.64H113.1C113.1 8.13333 112.853 7.06 112.36 6.42C111.88 5.78 111.107 5.46 110.04 5.46C107.84 5.46 106.74 6.85333 106.74 9.64ZM123.599 0.4V15H122.899V14.16C122.512 14.4133 121.972 14.6467 121.279 14.86C120.586 15.0733 120.019 15.18 119.579 15.18C119.152 15.18 118.819 15.16 118.579 15.12C118.352 15.0933 118.066 14.9933 117.719 14.82C117.372 14.6333 117.086 14.3733 116.859 14.04C116.646 13.7067 116.452 13.2067 116.279 12.54C116.119 11.8733 116.039 11.08 116.039 10.16C116.039 8.34667 116.346 7.00667 116.959 6.14C117.586 5.26 118.686 4.82 120.259 4.82C121.019 4.82 121.899 4.9 122.899 5.06V0.4H123.599ZM117.699 13.88C117.992 14.1467 118.266 14.3267 118.519 14.42C118.786 14.5 119.132 14.54 119.559 14.54C119.986 14.54 120.486 14.4533 121.059 14.28C121.646 14.1067 122.099 13.9333 122.419 13.76L122.899 13.5V5.7C121.859 5.54 120.979 5.46 120.259 5.46C118.912 5.46 117.992 5.84 117.499 6.6C117.019 7.36 116.779 8.54667 116.779 10.16C116.779 12.08 117.086 13.32 117.699 13.88Z" fill="black"/>
</svg>
