<svg width="60" height="55" viewBox="0 0 60 55" fill="none" xmlns="http://www.w3.org/2000/svg">
<g clip-path="url(#clip0_346_72)">
<path d="M58.4883 0.676757C59.4375 1.32129 60 2.35254 60 3.4375V39.5313C60 44.2793 54.9609 48.125 48.75 48.125C42.5391 48.125 37.5 44.2793 37.5 39.5313C37.5 34.7832 42.5391 30.9375 48.75 30.9375C50.0625 30.9375 51.3281 31.1094 52.5 31.4316V15.791L22.5 24.041V46.4063C22.5 51.1543 17.4609 55 11.25 55C5.03906 55 0 51.1543 0 46.4063C0 41.6582 5.03906 37.8125 11.25 37.8125C12.5625 37.8125 13.8281 37.9844 15 38.3066V13.75C15 12.2354 16.0898 10.8926 17.6719 10.4521L55.1719 0.139648C56.3086 -0.171876 57.5391 0.0214835 58.4883 0.676757Z" fill="black"/>
</g>
<defs>
<clipPath id="clip0_346_72">
<rect width="60" height="55" fill="white"/>
</clipPath>
</defs>
</svg>
