<svg width="57" height="15" viewBox="0 0 57 15" fill="none" xmlns="http://www.w3.org/2000/svg">
<path d="M5.86 14.04L2.92 14C2.78667 14 2.65333 14 2.52 14C1.2 14 0.54 13.7467 0.54 13.24C0.54 12.88 0.606667 12.54 0.74 12.22C0.873333 11.9 1 11.66 1.12 11.5C1.24 11.34 1.48 11.0733 1.84 10.7C2.2 10.3267 2.46 10.0467 2.62 9.86C2.78 9.67333 3.26 9.2 4.06 8.44C4.87333 7.68 5.48 6.99333 5.88 6.38C6.29333 5.76667 6.5 5.12 6.5 4.44C6.5 3.38667 6.08 2.70667 5.24 2.4C5 2.32 4.75333 2.28 4.5 2.28C3.92667 2.28 3.35333 2.52667 2.78 3.02C2.55333 3.23333 2.31333 3.34 2.06 3.34C1.98 3.34 1.90667 3.33333 1.84 3.32C1.50667 3.24 1.34 3.00667 1.34 2.62C1.34 2.1 1.70667 1.66667 2.44 1.32C3.22667 0.946666 4.08 0.759999 5 0.759999C5.93333 0.759999 6.69333 1.1 7.28 1.78C7.88 2.44667 8.18 3.28 8.18 4.28C8.18 5.70667 7.74 6.93333 6.86 7.96C6.44667 8.44 6.02667 8.88667 5.6 9.3C4.25333 10.58 3.35333 11.5533 2.9 12.22C3.5 12.26 4.24 12.28 5.12 12.28C6.01333 12.28 7.11333 12.2267 8.42 12.12C8.62 12.16 8.78 12.2533 8.9 12.4C9.03333 12.5333 9.1 12.6867 9.1 12.86C9.1 13.3133 8.86 13.6267 8.38 13.8C7.9 13.96 7.06 14.04 5.86 14.04ZM9.97547 7.68C9.97547 5.89333 10.2955 4.32 10.9355 2.96C11.2555 2.26667 11.6888 1.72 12.2355 1.32C12.7821 0.92 13.4088 0.719999 14.1155 0.719999C15.1555 0.719999 16.0021 1.4 16.6555 2.76C17.3221 4.10667 17.6555 5.71333 17.6555 7.58C17.6555 9.43333 17.3488 10.9733 16.7355 12.2C16.1221 13.4133 15.2555 14.02 14.1355 14.02C11.3621 14.02 9.97547 11.9067 9.97547 7.68ZM13.9355 12.18C14.4155 12.18 14.8155 11.9333 15.1355 11.44C15.4688 10.9333 15.6955 10.3733 15.8155 9.76C15.9355 9.13333 15.9955 8.32667 15.9955 7.34C15.9955 6.34 15.8621 5.28 15.5955 4.16C15.4621 3.54667 15.2555 3.06 14.9755 2.7C14.7088 2.32667 14.3821 2.14 13.9955 2.14C13.4755 2.14 13.0288 2.45333 12.6555 3.08C11.9888 4.21333 11.6555 5.72 11.6555 7.6C11.6555 8.82667 11.8821 9.9 12.3355 10.82C12.8021 11.7267 13.3355 12.18 13.9355 12.18ZM25.3097 13.14C25.3097 13.38 25.203 13.6 24.9897 13.8C24.7764 13.9867 24.543 14.08 24.2897 14.08C24.0497 14.08 23.883 13.92 23.7897 13.6C23.7497 11.84 23.7297 10.0867 23.7297 8.34L23.6697 3.3C23.6697 2.28667 24.1164 1.59333 25.0097 1.22C25.7297 0.886666 26.583 0.719999 27.5697 0.719999C28.0764 0.719999 28.6164 0.846666 29.1897 1.1C29.7764 1.34 30.2964 1.7 30.7497 2.18C31.2164 2.64667 31.4497 3.16 31.4497 3.72C31.4497 4.26667 31.1964 4.86 30.6897 5.5C30.183 6.12667 29.5564 6.68667 28.8097 7.18C28.063 7.66 27.3364 8.02 26.6297 8.26C27.8697 9.12667 28.9497 10.06 29.8697 11.06C30.7897 12.0467 31.2497 12.8133 31.2497 13.36C31.2497 13.5333 31.163 13.7 30.9897 13.86C30.8164 14.0067 30.603 14.08 30.3497 14.08C30.1097 14.08 29.903 13.9733 29.7297 13.76C29.4364 13.0533 28.8764 12.3133 28.0497 11.54C27.2364 10.7533 26.283 10.0067 25.1897 9.3L25.3097 13.14ZM25.2297 7.14C26.123 7.1 27.123 6.72667 28.2297 6.02C29.3497 5.31333 29.9097 4.68 29.9097 4.12C29.9097 3.54667 29.6297 3.10667 29.0697 2.8C28.5097 2.49333 27.843 2.34 27.0697 2.34C26.3097 2.34 25.703 2.43333 25.2497 2.62C25.2364 3.3 25.2297 4.80667 25.2297 7.14ZM36.3117 4.68C37.2717 4.68 38.0584 5.14 38.6717 6.06C39.2984 6.98 39.6117 8.08667 39.6117 9.38C39.6117 10.66 39.2917 11.7533 38.6517 12.66C38.0251 13.5667 37.1851 14.02 36.1317 14.02C35.0917 14.02 34.2517 13.56 33.6117 12.64C32.9717 11.7067 32.6517 10.6733 32.6517 9.54C32.6517 8.08667 32.9451 6.92667 33.5317 6.06C34.1584 5.14 35.0851 4.68 36.3117 4.68ZM36.0717 6.32C35.5117 6.32 35.0517 6.61333 34.6917 7.2C34.3317 7.78667 34.1517 8.40667 34.1517 9.06C34.1517 10.0733 34.3517 10.8467 34.7517 11.38C35.1517 11.9133 35.6051 12.18 36.1117 12.18C37.0184 12.18 37.5984 11.7867 37.8517 11C37.9584 10.6267 38.0117 10.16 38.0117 9.6C38.0117 7.41333 37.3651 6.32 36.0717 6.32ZM42.4981 13.98C42.0448 13.98 41.6048 13.1 41.1781 11.34C40.7648 9.56667 40.5581 7.58 40.5581 5.38C40.5581 5.15333 40.6515 4.98 40.8381 4.86C41.0381 4.72667 41.2181 4.66 41.3781 4.66C41.5381 4.66 41.6648 4.71333 41.7581 4.82C41.8648 4.91333 41.9181 5.04 41.9181 5.2C41.9181 7.28 42.2715 9.28 42.9781 11.2C43.0848 11.04 43.2515 10.72 43.4781 10.24C43.7048 9.74667 43.9181 9.38667 44.1181 9.16C44.3181 8.93333 44.5581 8.82 44.8381 8.82C45.1181 8.82 45.4115 9.02667 45.7181 9.44C46.0248 9.85333 46.2848 10.3 46.4981 10.78C46.7248 11.2467 46.8515 11.4933 46.8781 11.52C47.2381 10.4 47.4181 9.36 47.4181 8.4L47.2981 5.36C47.2848 5.16 47.3781 4.99333 47.5781 4.86C47.7781 4.71333 47.9715 4.64 48.1581 4.64C48.5448 4.64 48.7381 5.39333 48.7381 6.9V8C48.7381 9.78667 48.4648 11.38 47.9181 12.78C47.6248 13.58 47.2581 13.98 46.8181 13.98C46.5648 13.98 46.3315 13.82 46.1181 13.5C45.9048 13.1667 45.6648 12.7 45.3981 12.1C45.1315 11.5 44.9248 11.0867 44.7781 10.86L44.1781 12.04C43.9515 12.5067 43.7781 12.8467 43.6581 13.06C43.5381 13.26 43.3715 13.4667 43.1581 13.68C42.9448 13.88 42.7248 13.98 42.4981 13.98ZM50.4359 7.2C50.4359 6.41333 50.7159 5.78667 51.2759 5.32C51.8359 4.85333 52.4826 4.62 53.2159 4.62C53.9626 4.62 54.6759 4.75333 55.3559 5.02C56.0359 5.28667 56.3759 5.64 56.3759 6.08C56.3759 6.30667 56.2893 6.48667 56.1159 6.62C55.9426 6.75333 55.7893 6.82 55.6559 6.82C55.5359 6.82 55.4359 6.82 55.3559 6.82C55.2893 6.80667 55.0226 6.68 54.5559 6.44C54.1026 6.2 53.6826 6.08 53.2959 6.08C52.9093 6.08 52.5759 6.18 52.2959 6.38C52.0293 6.56667 51.8959 6.84667 51.8959 7.22C51.8959 7.59333 52.0493 7.88667 52.3559 8.1C52.6759 8.31333 53.2293 8.5 54.0159 8.66C54.8026 8.80667 55.4026 9.02 55.8159 9.3C56.2426 9.58 56.4559 10.1 56.4559 10.86C56.4559 11.9667 56.1626 12.7533 55.5759 13.22C55.0026 13.6733 54.3026 13.9 53.4759 13.9C52.6493 13.9 51.9426 13.7867 51.3559 13.56C50.7826 13.3333 50.4959 12.9933 50.4959 12.54C50.4959 12.02 50.7559 11.76 51.2759 11.76C51.4093 11.76 51.7026 11.8533 52.1559 12.04C52.6093 12.2267 53.0559 12.32 53.4959 12.32C53.9493 12.32 54.2893 12.18 54.5159 11.9C54.7559 11.6067 54.8759 11.2733 54.8759 10.9C54.8759 10.5267 54.7226 10.26 54.4159 10.1C54.1093 9.92667 53.6426 9.78667 53.0159 9.68C52.3893 9.57333 51.9293 9.46 51.6359 9.34C50.8359 9.02 50.4359 8.30667 50.4359 7.2Z" fill="black"/>
</svg>
