<svg width="103" height="28" viewBox="0 0 103 28" fill="none" xmlns="http://www.w3.org/2000/svg">
<mask id="path-1-outside-1_140_792" maskUnits="userSpaceOnUse" x="-1" y="-1" width="105" height="30" fill="black">
<rect fill="white" x="-1" y="-1" width="105" height="30"/>
<path d="M5.048 11.34V27H2.348V11.34H0.08V9H2.348V7.38C2.348 4.836 2.708 3.108 3.428 2.196C4.148 1.26 5.408 0.791998 7.208 0.791998L10.844 1.044L10.808 3.276C9.464 3.228 8.348 3.204 7.46 3.204C6.596 3.204 5.972 3.492 5.588 4.068C5.228 4.644 5.048 5.76 5.048 7.416V9H10.268V11.34H5.048ZM13.51 27V9H16.174V11.448C18.262 10.008 20.458 9.06 22.762 8.604V11.34C21.754 11.532 20.698 11.832 19.594 12.24C18.514 12.648 17.686 13.008 17.11 13.32L16.21 13.788V27H13.51ZM25.9553 27V9H28.6553V27H25.9553ZM25.9553 4.932V1.8H28.6553V4.932H25.9553ZM46.0703 24.768L47.1143 24.66L47.1863 26.784C44.4503 27.168 42.1103 27.36 40.1663 27.36C37.5743 27.36 35.7383 26.616 34.6583 25.128C33.5783 23.616 33.0383 21.276 33.0383 18.108C33.0383 11.796 35.5463 8.64 40.5623 8.64C42.9863 8.64 44.7983 9.324 45.9983 10.692C47.1983 12.036 47.7983 14.16 47.7983 17.064L47.6543 19.116H35.7743C35.7743 21.108 36.1343 22.584 36.8543 23.544C37.5743 24.504 38.8223 24.984 40.5983 24.984C42.3983 24.984 44.2223 24.912 46.0703 24.768ZM45.0983 16.956C45.0983 14.748 44.7383 13.188 44.0183 12.276C43.3223 11.364 42.1703 10.908 40.5623 10.908C38.9783 10.908 37.7783 11.388 36.9623 12.348C36.1703 13.308 35.7623 14.844 35.7383 16.956H45.0983ZM54.7061 27H52.0061V9H54.6701V10.26C56.6141 9.18 58.4741 8.64 60.2501 8.64C62.6501 8.64 64.2581 9.288 65.0741 10.584C65.9141 11.88 66.3341 14.184 66.3341 17.496V27H63.6701V17.568C63.6701 15.072 63.4181 13.368 62.9141 12.456C62.4341 11.52 61.3901 11.052 59.7821 11.052C59.0141 11.052 58.1981 11.172 57.3341 11.412C56.4941 11.628 55.8461 11.844 55.3901 12.06L54.7061 12.384V27ZM85.166 1.152V27H82.502V25.776C80.654 26.832 78.83 27.36 77.03 27.36C76.07 27.36 75.23 27.24 74.51 27C73.79 26.76 73.118 26.328 72.494 25.704C71.198 24.408 70.55 22.02 70.55 18.54C70.55 15.036 71.126 12.516 72.278 10.98C73.454 9.42 75.386 8.64 78.074 8.64C79.466 8.64 80.942 8.796 82.502 9.108V1.152H85.166ZM74.582 23.76C74.966 24.216 75.374 24.528 75.806 24.696C76.238 24.864 76.79 24.948 77.462 24.948C78.158 24.948 78.926 24.84 79.766 24.624C80.63 24.384 81.302 24.156 81.782 23.94L82.502 23.616V11.412C80.966 11.124 79.538 10.98 78.218 10.98C76.394 10.98 75.122 11.568 74.402 12.744C73.682 13.896 73.322 15.696 73.322 18.144C73.322 20.928 73.742 22.8 74.582 23.76ZM96.0487 11.052C93.4327 11.052 92.1247 11.964 92.1247 13.788C92.1247 14.628 92.4247 15.228 93.0247 15.588C93.6247 15.924 94.9927 16.284 97.1287 16.668C99.2647 17.028 100.777 17.544 101.665 18.216C102.553 18.888 102.997 20.148 102.997 21.996C102.997 23.844 102.397 25.2 101.197 26.064C100.021 26.928 98.2927 27.36 96.0127 27.36C94.5247 27.36 92.7727 27.192 90.7567 26.856L89.6767 26.676L89.8207 24.336C92.5567 24.744 94.6207 24.948 96.0127 24.948C97.4047 24.948 98.4607 24.732 99.1807 24.3C99.9247 23.844 100.297 23.1 100.297 22.068C100.297 21.012 99.9847 20.304 99.3607 19.944C98.7367 19.56 97.3687 19.2 95.2567 18.864C93.1447 18.528 91.6447 18.036 90.7567 17.388C89.8687 16.74 89.4247 15.54 89.4247 13.788C89.4247 12.036 90.0367 10.74 91.2607 9.9C92.5087 9.06 94.0567 8.64 95.9047 8.64C97.3687 8.64 99.2047 8.808 101.413 9.144L102.421 9.324L102.349 11.628C99.6847 11.244 97.5847 11.052 96.0487 11.052Z"/>
</mask>
<path d="M5.048 11.34V27H2.348V11.34H0.08V9H2.348V7.38C2.348 4.836 2.708 3.108 3.428 2.196C4.148 1.26 5.408 0.791998 7.208 0.791998L10.844 1.044L10.808 3.276C9.464 3.228 8.348 3.204 7.46 3.204C6.596 3.204 5.972 3.492 5.588 4.068C5.228 4.644 5.048 5.76 5.048 7.416V9H10.268V11.34H5.048ZM13.51 27V9H16.174V11.448C18.262 10.008 20.458 9.06 22.762 8.604V11.34C21.754 11.532 20.698 11.832 19.594 12.24C18.514 12.648 17.686 13.008 17.11 13.32L16.21 13.788V27H13.51ZM25.9553 27V9H28.6553V27H25.9553ZM25.9553 4.932V1.8H28.6553V4.932H25.9553ZM46.0703 24.768L47.1143 24.66L47.1863 26.784C44.4503 27.168 42.1103 27.36 40.1663 27.36C37.5743 27.36 35.7383 26.616 34.6583 25.128C33.5783 23.616 33.0383 21.276 33.0383 18.108C33.0383 11.796 35.5463 8.64 40.5623 8.64C42.9863 8.64 44.7983 9.324 45.9983 10.692C47.1983 12.036 47.7983 14.16 47.7983 17.064L47.6543 19.116H35.7743C35.7743 21.108 36.1343 22.584 36.8543 23.544C37.5743 24.504 38.8223 24.984 40.5983 24.984C42.3983 24.984 44.2223 24.912 46.0703 24.768ZM45.0983 16.956C45.0983 14.748 44.7383 13.188 44.0183 12.276C43.3223 11.364 42.1703 10.908 40.5623 10.908C38.9783 10.908 37.7783 11.388 36.9623 12.348C36.1703 13.308 35.7623 14.844 35.7383 16.956H45.0983ZM54.7061 27H52.0061V9H54.6701V10.26C56.6141 9.18 58.4741 8.64 60.2501 8.64C62.6501 8.64 64.2581 9.288 65.0741 10.584C65.9141 11.88 66.3341 14.184 66.3341 17.496V27H63.6701V17.568C63.6701 15.072 63.4181 13.368 62.9141 12.456C62.4341 11.52 61.3901 11.052 59.7821 11.052C59.0141 11.052 58.1981 11.172 57.3341 11.412C56.4941 11.628 55.8461 11.844 55.3901 12.06L54.7061 12.384V27ZM85.166 1.152V27H82.502V25.776C80.654 26.832 78.83 27.36 77.03 27.36C76.07 27.36 75.23 27.24 74.51 27C73.79 26.76 73.118 26.328 72.494 25.704C71.198 24.408 70.55 22.02 70.55 18.54C70.55 15.036 71.126 12.516 72.278 10.98C73.454 9.42 75.386 8.64 78.074 8.64C79.466 8.64 80.942 8.796 82.502 9.108V1.152H85.166ZM74.582 23.76C74.966 24.216 75.374 24.528 75.806 24.696C76.238 24.864 76.79 24.948 77.462 24.948C78.158 24.948 78.926 24.84 79.766 24.624C80.63 24.384 81.302 24.156 81.782 23.94L82.502 23.616V11.412C80.966 11.124 79.538 10.98 78.218 10.98C76.394 10.98 75.122 11.568 74.402 12.744C73.682 13.896 73.322 15.696 73.322 18.144C73.322 20.928 73.742 22.8 74.582 23.76ZM96.0487 11.052C93.4327 11.052 92.1247 11.964 92.1247 13.788C92.1247 14.628 92.4247 15.228 93.0247 15.588C93.6247 15.924 94.9927 16.284 97.1287 16.668C99.2647 17.028 100.777 17.544 101.665 18.216C102.553 18.888 102.997 20.148 102.997 21.996C102.997 23.844 102.397 25.2 101.197 26.064C100.021 26.928 98.2927 27.36 96.0127 27.36C94.5247 27.36 92.7727 27.192 90.7567 26.856L89.6767 26.676L89.8207 24.336C92.5567 24.744 94.6207 24.948 96.0127 24.948C97.4047 24.948 98.4607 24.732 99.1807 24.3C99.9247 23.844 100.297 23.1 100.297 22.068C100.297 21.012 99.9847 20.304 99.3607 19.944C98.7367 19.56 97.3687 19.2 95.2567 18.864C93.1447 18.528 91.6447 18.036 90.7567 17.388C89.8687 16.74 89.4247 15.54 89.4247 13.788C89.4247 12.036 90.0367 10.74 91.2607 9.9C92.5087 9.06 94.0567 8.64 95.9047 8.64C97.3687 8.64 99.2047 8.808 101.413 9.144L102.421 9.324L102.349 11.628C99.6847 11.244 97.5847 11.052 96.0487 11.052Z" fill="#666666"/>
<path d="M5.048 11.34V10.34H4.048V11.34H5.048ZM5.048 27V28H6.048V27H5.048ZM2.348 27H1.348V28H2.348V27ZM2.348 11.34H3.348V10.34H2.348V11.34ZM0.08 11.34H-0.92V12.34H0.08V11.34ZM0.08 9V8H-0.92V9H0.08ZM2.348 9V10H3.348V9H2.348ZM3.428 2.196L4.21294 2.81569L4.22062 2.80571L3.428 2.196ZM7.208 0.791998L7.27714 -0.205608L7.24261 -0.208002H7.208V0.791998ZM10.844 1.044L11.8439 1.06013L11.8592 0.111959L10.9131 0.0463924L10.844 1.044ZM10.808 3.276L10.7723 4.27536L11.7914 4.31176L11.8079 3.29213L10.808 3.276ZM5.588 4.068L4.75595 3.5133L4.74779 3.52553L4.74 3.538L5.588 4.068ZM5.048 9H4.048V10H5.048V9ZM10.268 9H11.268V8H10.268V9ZM10.268 11.34V12.34H11.268V11.34H10.268ZM4.048 11.34V27H6.048V11.34H4.048ZM5.048 26H2.348V28H5.048V26ZM3.348 27V11.34H1.348V27H3.348ZM2.348 10.34H0.08V12.34H2.348V10.34ZM1.08 11.34V9H-0.92V11.34H1.08ZM0.08 10H2.348V8H0.08V10ZM3.348 9V7.38H1.348V9H3.348ZM3.348 7.38C3.348 6.1493 3.43559 5.15464 3.59698 4.37995C3.76032 3.59594 3.98585 3.10321 4.21288 2.81564L2.64312 1.57635C2.15015 2.20079 1.83568 3.02806 1.63902 3.97205C1.44041 4.92536 1.348 6.0667 1.348 7.38H3.348ZM4.22062 2.80571C4.66869 2.22323 5.5516 1.792 7.208 1.792V-0.208002C5.2644 -0.208002 3.62731 0.296768 2.63538 1.58629L4.22062 2.80571ZM7.13886 1.78961L10.7749 2.04161L10.9131 0.0463924L7.27714 -0.205608L7.13886 1.78961ZM9.84413 1.02787L9.80813 3.25987L11.8079 3.29213L11.8439 1.06013L9.84413 1.02787ZM10.8437 2.27664C9.49317 2.2284 8.36427 2.204 7.46 2.204V4.204C8.33173 4.204 9.43484 4.22759 10.7723 4.27536L10.8437 2.27664ZM7.46 2.204C6.35572 2.204 5.37214 2.58901 4.75595 3.5133L6.42005 4.6227C6.57186 4.39499 6.83628 4.204 7.46 4.204V2.204ZM4.74 3.538C4.45759 3.98987 4.29474 4.5641 4.19576 5.17777C4.09435 5.80649 4.048 6.55679 4.048 7.416H6.048C6.048 6.61921 6.09165 5.98351 6.17024 5.49623C6.25126 4.9939 6.35842 4.72213 6.436 4.598L4.74 3.538ZM4.048 7.416V9H6.048V7.416H4.048ZM5.048 10H10.268V8H5.048V10ZM9.268 9V11.34H11.268V9H9.268ZM10.268 10.34H5.048V12.34H10.268V10.34ZM13.51 27H12.51V28H13.51V27ZM13.51 9V8H12.51V9H13.51ZM16.174 9H17.174V8H16.174V9ZM16.174 11.448H15.174V13.3524L16.7417 12.2712L16.174 11.448ZM22.762 8.604H23.762V7.38668L22.5678 7.62303L22.762 8.604ZM22.762 11.34L22.9491 12.3223L23.762 12.1675V11.34H22.762ZM19.594 12.24L19.2473 11.302L19.2406 11.3045L19.594 12.24ZM17.11 13.32L17.5713 14.2072L17.5788 14.2033L17.5863 14.1993L17.11 13.32ZM16.21 13.788L15.7486 12.9008L15.21 13.1809V13.788H16.21ZM16.21 27V28H17.21V27H16.21ZM14.51 27V9H12.51V27H14.51ZM13.51 10H16.174V8H13.51V10ZM15.174 9V11.448H17.174V9H15.174ZM16.7417 12.2712C18.7263 10.9025 20.7965 10.0124 22.9561 9.58497L22.5678 7.62303C20.1194 8.10761 17.7976 9.11351 15.6062 10.6248L16.7417 12.2712ZM21.762 8.604V11.34H23.762V8.604H21.762ZM22.5749 10.3577C21.5053 10.5614 20.3958 10.8776 19.2473 11.302L19.9406 13.178C21.0001 12.7864 22.0026 12.5026 22.9491 12.3223L22.5749 10.3577ZM19.2406 11.3045C18.145 11.7184 17.2683 12.097 16.6337 12.4407L17.5863 14.1993C18.1037 13.919 18.883 13.5776 19.9474 13.1755L19.2406 11.3045ZM16.6486 12.4328L15.7486 12.9008L16.6713 14.6752L17.5713 14.2072L16.6486 12.4328ZM15.21 13.788V27H17.21V13.788H15.21ZM16.21 26H13.51V28H16.21V26ZM25.9553 27H24.9553V28H25.9553V27ZM25.9553 9V8H24.9553V9H25.9553ZM28.6553 9H29.6553V8H28.6553V9ZM28.6553 27V28H29.6553V27H28.6553ZM25.9553 4.932H24.9553V5.932H25.9553V4.932ZM25.9553 1.8V0.799998H24.9553V1.8H25.9553ZM28.6553 1.8H29.6553V0.799998H28.6553V1.8ZM28.6553 4.932V5.932H29.6553V4.932H28.6553ZM26.9553 27V9H24.9553V27H26.9553ZM25.9553 10H28.6553V8H25.9553V10ZM27.6553 9V27H29.6553V9H27.6553ZM28.6553 26H25.9553V28H28.6553V26ZM26.9553 4.932V1.8H24.9553V4.932H26.9553ZM25.9553 2.8H28.6553V0.799998H25.9553V2.8ZM27.6553 1.8V4.932H29.6553V1.8H27.6553ZM28.6553 3.932H25.9553V5.932H28.6553V3.932ZM46.0703 24.768L46.148 25.765L46.1606 25.764L46.1732 25.7627L46.0703 24.768ZM47.1143 24.66L48.1137 24.6261L48.0774 23.555L47.0114 23.6653L47.1143 24.66ZM47.1863 26.784L47.3253 27.7743L48.2162 27.6493L48.1857 26.7501L47.1863 26.784ZM34.6583 25.128L33.8445 25.7093L33.849 25.7154L34.6583 25.128ZM45.9983 10.692L45.2465 11.3515L45.2523 11.358L45.9983 10.692ZM47.7983 17.064L48.7958 17.134L48.7983 17.099V17.064H47.7983ZM47.6543 19.116V20.116H48.5866L48.6518 19.186L47.6543 19.116ZM35.7743 19.116V18.116H34.7743V19.116H35.7743ZM36.8543 23.544L36.0543 24.144L36.8543 23.544ZM45.0983 16.956V17.956H46.0983V16.956H45.0983ZM44.0183 12.276L43.2233 12.8827L43.2283 12.8892L43.2334 12.8956L44.0183 12.276ZM36.9623 12.348L36.2003 11.7004L36.1956 11.7059L36.1909 11.7116L36.9623 12.348ZM35.7383 16.956L34.7383 16.9446L34.7269 17.956H35.7383V16.956ZM46.1732 25.7627L47.2172 25.6547L47.0114 23.6653L45.9674 23.7733L46.1732 25.7627ZM46.1149 24.6939L46.1869 26.8179L48.1857 26.7501L48.1137 24.6261L46.1149 24.6939ZM47.0473 25.7937C44.3399 26.1737 42.049 26.36 40.1663 26.36V28.36C42.1716 28.36 44.5607 28.1623 47.3253 27.7743L47.0473 25.7937ZM40.1663 26.36C37.7543 26.36 36.29 25.6737 35.4676 24.5406L33.849 25.7154C35.1866 27.5583 37.3942 28.36 40.1663 28.36V26.36ZM35.472 24.5468C34.5721 23.2869 34.0383 21.1993 34.0383 18.108H32.0383C32.0383 21.3527 32.5845 23.9451 33.8445 25.7092L35.472 24.5468ZM34.0383 18.108C34.0383 15.0577 34.6487 12.9548 35.7022 11.6291C36.7208 10.3474 38.2773 9.64 40.5623 9.64V7.64C37.8313 7.64 35.6258 8.51062 34.1364 10.3848C32.6818 12.2152 32.0383 14.8463 32.0383 18.108H34.0383ZM40.5623 9.64C42.7993 9.64 44.2941 10.2657 45.2465 11.3514L46.75 10.0326C45.3025 8.38231 43.1733 7.64 40.5623 7.64V9.64ZM45.2523 11.358C46.214 12.4351 46.7983 14.2638 46.7983 17.064H48.7983C48.7983 14.0562 48.1825 11.6369 46.7442 10.026L45.2523 11.358ZM46.8007 16.994L46.6567 19.046L48.6518 19.186L48.7958 17.134L46.8007 16.994ZM47.6543 18.116H35.7743V20.116H47.6543V18.116ZM34.7743 19.116C34.7743 21.1942 35.1436 22.9297 36.0543 24.144L37.6543 22.944C37.125 22.2383 36.7743 21.0218 36.7743 19.116H34.7743ZM36.0543 24.144C37.041 25.4596 38.665 25.984 40.5983 25.984V23.984C38.9796 23.984 38.1076 23.5484 37.6543 22.944L36.0543 24.144ZM40.5983 25.984C42.425 25.984 44.2749 25.9109 46.148 25.765L45.9926 23.771C44.1697 23.9131 42.3716 23.984 40.5983 23.984V25.984ZM46.0983 16.956C46.0983 14.6978 45.7417 12.8452 44.8032 11.6564L43.2334 12.8956C43.7349 13.5308 44.0983 14.7982 44.0983 16.956H46.0983ZM44.8132 11.6693C43.8599 10.4201 42.3492 9.908 40.5623 9.908V11.908C41.9914 11.908 42.7847 12.3079 43.2233 12.8827L44.8132 11.6693ZM40.5623 9.908C38.7666 9.908 37.2536 10.4613 36.2003 11.7004L37.7242 12.9956C38.303 12.3147 39.1899 11.908 40.5623 11.908V9.908ZM36.1909 11.7116C35.1824 12.934 34.7633 14.7493 34.7383 16.9446L36.7382 16.9674C36.7613 14.9387 37.1581 13.682 37.7337 12.9844L36.1909 11.7116ZM35.7383 17.956H45.0983V15.956H35.7383V17.956ZM54.7061 27V28H55.7061V27H54.7061ZM52.0061 27H51.0061V28H52.0061V27ZM52.0061 9V8H51.0061V9H52.0061ZM54.6701 9H55.6701V8H54.6701V9ZM54.6701 10.26H53.6701V11.9595L55.1557 11.1342L54.6701 10.26ZM65.0741 10.584L64.2278 11.1169L64.2349 11.1279L65.0741 10.584ZM66.3341 27V28H67.3341V27H66.3341ZM63.6701 27H62.6701V28H63.6701V27ZM62.9141 12.456L62.0242 12.9123L62.0313 12.9261L62.0388 12.9397L62.9141 12.456ZM57.3341 11.412L57.5831 12.3805L57.5924 12.3781L57.6017 12.3755L57.3341 11.412ZM55.3901 12.06L55.8181 12.9637L55.3901 12.06ZM54.7061 12.384L54.278 11.4803L53.7061 11.7512V12.384H54.7061ZM54.7061 26H52.0061V28H54.7061V26ZM53.0061 27V9H51.0061V27H53.0061ZM52.0061 10H54.6701V8H52.0061V10ZM53.6701 9V10.26H55.6701V9H53.6701ZM55.1557 11.1342C56.988 10.1162 58.6817 9.64 60.2501 9.64V7.64C58.2664 7.64 56.2401 8.24379 54.1844 9.38584L55.1557 11.1342ZM60.2501 9.64C62.5111 9.64 63.6823 10.2504 64.2278 11.1168L65.9203 10.0512C64.8338 8.32555 62.789 7.64 60.2501 7.64V9.64ZM64.2349 11.1279C64.9037 12.1597 65.3341 14.2012 65.3341 17.496H67.3341C67.3341 14.1668 66.9244 11.6003 65.9132 10.0401L64.2349 11.1279ZM65.3341 17.496V27H67.3341V17.496H65.3341ZM66.3341 26H63.6701V28H66.3341V26ZM64.6701 27V17.568H62.6701V27H64.6701ZM64.6701 17.568C64.6701 16.2907 64.6059 15.1883 64.4703 14.2717C64.3367 13.3683 64.1248 12.5793 63.7893 11.9723L62.0388 12.9397C62.2074 13.2447 62.3734 13.7637 62.4918 14.5643C62.6083 15.3517 62.6701 16.3493 62.6701 17.568H64.6701ZM63.8039 11.9997C63.0718 10.5721 61.5466 10.052 59.7821 10.052V12.052C61.2336 12.052 61.7963 12.4679 62.0242 12.9123L63.8039 11.9997ZM59.7821 10.052C58.91 10.052 58.0034 10.1882 57.0664 10.4485L57.6017 12.3755C58.3927 12.1558 59.1181 12.052 59.7821 12.052V10.052ZM57.085 10.4435C56.2205 10.6658 55.502 10.9005 54.962 11.1563L55.8181 12.9637C56.1901 12.7875 56.7676 12.5902 57.5831 12.3805L57.085 10.4435ZM54.962 11.1563L54.278 11.4803L55.1341 13.2877L55.8181 12.9637L54.962 11.1563ZM53.7061 12.384V27H55.7061V12.384H53.7061ZM85.166 1.152H86.166V0.151999H85.166V1.152ZM85.166 27V28H86.166V27H85.166ZM82.502 27H81.502V28H82.502V27ZM82.502 25.776H83.502V24.0528L82.0059 24.9078L82.502 25.776ZM72.494 25.704L71.7869 26.4111L72.494 25.704ZM72.278 10.98L71.4795 10.378L71.478 10.38L72.278 10.98ZM82.502 9.108L82.3059 10.0886L83.502 10.3278V9.108H82.502ZM82.502 1.152V0.151999H81.502V1.152H82.502ZM74.582 23.76L75.3469 23.1159L75.3408 23.1086L75.3346 23.1015L74.582 23.76ZM79.766 24.624L80.015 25.5925L80.0244 25.5901L80.0336 25.5875L79.766 24.624ZM81.782 23.94L82.1924 24.8519L81.782 23.94ZM82.502 23.616L82.9124 24.5279L83.502 24.2626V23.616H82.502ZM82.502 11.412H83.502V10.5821L82.6863 10.4291L82.502 11.412ZM74.402 12.744L75.25 13.274L75.2549 13.2662L74.402 12.744ZM84.166 1.152V27H86.166V1.152H84.166ZM85.166 26H82.502V28H85.166V26ZM83.502 27V25.776H81.502V27H83.502ZM82.0059 24.9078C80.2813 25.8932 78.6266 26.36 77.03 26.36V28.36C79.0334 28.36 81.0267 27.7708 82.9981 26.6442L82.0059 24.9078ZM77.03 26.36C76.1504 26.36 75.4214 26.2497 74.8262 26.0513L74.1938 27.9487C75.0386 28.2303 75.9897 28.36 77.03 28.36V26.36ZM74.8262 26.0513C74.2757 25.8678 73.7332 25.529 73.2011 24.9969L71.7869 26.4111C72.5028 27.127 73.3043 27.6522 74.1938 27.9487L74.8262 26.0513ZM73.2011 24.9969C72.2026 23.9983 71.55 21.967 71.55 18.54H69.55C69.55 22.073 70.1934 24.8177 71.7869 26.4111L73.2011 24.9969ZM71.55 18.54C71.55 15.0964 72.1256 12.8498 73.078 11.58L71.478 10.38C70.1264 12.1822 69.55 14.9756 69.55 18.54H71.55ZM73.0765 11.582C73.9986 10.3588 75.5735 9.64 78.074 9.64V7.64C75.1985 7.64 72.9094 8.48124 71.4795 10.378L73.0765 11.582ZM78.074 9.64C79.3916 9.64 80.8015 9.7877 82.3059 10.0886L82.6981 8.12742C81.0825 7.8043 79.5404 7.64 78.074 7.64V9.64ZM83.502 9.108V1.152H81.502V9.108H83.502ZM82.502 2.152H85.166V0.151999H82.502V2.152ZM73.8171 24.4041C74.2789 24.9526 74.817 25.3843 75.4436 25.628L76.1684 23.764C75.931 23.6717 75.6531 23.4794 75.3469 23.1159L73.8171 24.4041ZM75.4436 25.628C76.0306 25.8563 76.717 25.948 77.462 25.948V23.948C76.863 23.948 76.4454 23.8717 76.1684 23.764L75.4436 25.628ZM77.462 25.948C78.2596 25.948 79.1127 25.8245 80.015 25.5925L79.517 23.6555C78.7393 23.8555 78.0564 23.948 77.462 23.948V25.948ZM80.0336 25.5875C80.9176 25.342 81.6452 25.0982 82.1924 24.8519L81.3716 23.0281C80.9588 23.2138 80.3424 23.426 79.4984 23.6605L80.0336 25.5875ZM82.1924 24.8519L82.9124 24.5279L82.0916 22.7041L81.3716 23.0281L82.1924 24.8519ZM83.502 23.616V11.412H81.502V23.616H83.502ZM82.6863 10.4291C81.1003 10.1317 79.6099 9.98 78.218 9.98V11.98C79.4661 11.98 80.8317 12.1163 82.3177 12.3949L82.6863 10.4291ZM78.218 9.98C76.1728 9.98 74.5085 10.6548 73.5491 12.2218L75.2549 13.2662C75.7355 12.4812 76.6152 11.98 78.218 11.98V9.98ZM73.554 12.214C72.6831 13.6074 72.322 15.6383 72.322 18.144H74.322C74.322 15.7537 74.6809 14.1846 75.25 13.274L73.554 12.214ZM72.322 18.144C72.322 19.5798 72.4297 20.8228 72.6613 21.8549C72.8908 22.8782 73.2579 23.7653 73.8294 24.4185L75.3346 23.1015C75.0661 22.7947 74.8032 22.2658 74.6127 21.4171C74.4243 20.5772 74.322 19.4922 74.322 18.144H72.322ZM93.0247 15.588L92.5102 16.4455L92.523 16.4532L92.5361 16.4605L93.0247 15.588ZM97.1287 16.668L96.9517 17.6523L96.9625 17.6541L97.1287 16.668ZM101.665 18.216L102.268 17.4186L101.665 18.216ZM101.197 26.064L100.612 25.2524L100.605 25.2581L101.197 26.064ZM90.7567 26.856L90.5923 27.8424L90.7567 26.856ZM89.6767 26.676L88.6786 26.6146L88.6232 27.5142L89.5123 27.6624L89.6767 26.676ZM89.8207 24.336L89.9682 23.3469L88.8896 23.1861L88.8226 24.2746L89.8207 24.336ZM99.1807 24.3L99.6952 25.1575L99.7032 25.1526L99.1807 24.3ZM99.3607 19.944L98.8366 20.7957L98.8487 20.8031L98.861 20.8102L99.3607 19.944ZM95.2567 18.864L95.4138 17.8764L95.2567 18.864ZM90.7567 17.388L91.3462 16.5802L90.7567 17.388ZM91.2607 9.9L90.7023 9.07038L90.6948 9.07549L91.2607 9.9ZM101.413 9.144L101.588 8.15957L101.576 8.15731L101.563 8.15538L101.413 9.144ZM102.421 9.324L103.42 9.35523L103.447 8.49148L102.596 8.33957L102.421 9.324ZM102.349 11.628L102.206 12.6178L103.313 12.7774L103.348 11.6592L102.349 11.628ZM96.0487 10.052C94.6552 10.052 93.4321 10.2893 92.5337 10.9157C91.5698 11.5878 91.1247 12.6034 91.1247 13.788H93.1247C93.1247 13.1486 93.3336 12.7962 93.6776 12.5563C94.0873 12.2707 94.8261 12.052 96.0487 12.052V10.052ZM91.1247 13.788C91.1247 14.8967 91.5444 15.866 92.5102 16.4455L93.5392 14.7305C93.305 14.59 93.1247 14.3593 93.1247 13.788H91.1247ZM92.5361 16.4605C92.9525 16.6937 93.5475 16.8932 94.2462 17.0771C94.9655 17.2664 95.8698 17.4577 96.9518 17.6522L97.3056 15.6838C96.2515 15.4943 95.4039 15.3136 94.7552 15.1429C94.0859 14.9668 93.6969 14.8183 93.5133 14.7155L92.5361 16.4605ZM96.9625 17.6541C99.0629 18.0081 100.374 18.4932 101.061 19.0134L102.268 17.4186C101.18 16.5948 99.4665 16.0479 97.2949 15.6819L96.9625 17.6541ZM101.061 19.0134C101.572 19.4 101.997 20.2565 101.997 21.996H103.997C103.997 20.0395 103.533 18.376 102.268 17.4186L101.061 19.0134ZM101.997 21.996C101.997 23.6122 101.486 24.6233 100.612 25.2525L101.781 26.8755C103.307 25.7767 103.997 24.0758 103.997 21.996H101.997ZM100.605 25.2581C99.6725 25.9429 98.1914 26.36 96.0127 26.36V28.36C98.3939 28.36 100.369 27.9131 101.789 26.8699L100.605 25.2581ZM96.0127 26.36C94.5958 26.36 92.9013 26.1996 90.9211 25.8696L90.5923 27.8424C92.6441 28.1844 94.4536 28.36 96.0127 28.36V26.36ZM90.9211 25.8696L89.8411 25.6896L89.5123 27.6624L90.5923 27.8424L90.9211 25.8696ZM90.6748 26.7374L90.8188 24.3974L88.8226 24.2746L88.6786 26.6146L90.6748 26.7374ZM89.6732 25.3251C92.4203 25.7347 94.544 25.948 96.0127 25.948V23.948C94.6974 23.948 92.6931 23.7533 89.9682 23.3469L89.6732 25.3251ZM96.0127 25.948C97.4796 25.948 98.7487 25.7254 99.6952 25.1575L98.6662 23.4425C98.1727 23.7386 97.3298 23.948 96.0127 23.948V25.948ZM99.7032 25.1526C100.802 24.479 101.297 23.3734 101.297 22.068H99.2967C99.2967 22.8266 99.0471 23.209 98.6581 23.4474L99.7032 25.1526ZM101.297 22.068C101.297 20.8374 100.925 19.692 99.8604 19.0778L98.861 20.8102C99.0444 20.916 99.2967 21.1866 99.2967 22.068H101.297ZM99.8848 19.0923C99.4437 18.8209 98.8292 18.6052 98.1212 18.4189C97.3933 18.2274 96.4878 18.0473 95.4138 17.8764L95.0996 19.8516C96.1375 20.0167 96.9721 20.1846 97.6122 20.3531C98.2722 20.5267 98.6537 20.6831 98.8366 20.7957L99.8848 19.0923ZM95.4138 17.8764C93.337 17.546 92.0346 17.0826 91.3462 16.5802L90.1672 18.1958C91.2548 18.9894 92.9524 19.51 95.0996 19.8516L95.4138 17.8764ZM91.3462 16.5802C90.8398 16.2107 90.4247 15.4132 90.4247 13.788H88.4247C88.4247 15.6668 88.8975 17.2693 90.1672 18.1958L91.3462 16.5802ZM90.4247 13.788C90.4247 12.2974 90.9261 11.3425 91.8265 10.7245L90.6948 9.07549C89.1473 10.1375 88.4247 11.7746 88.4247 13.788H90.4247ZM91.8191 10.7296C92.8677 10.0238 94.2098 9.64 95.9047 9.64V7.64C93.9036 7.64 92.1497 8.09624 90.7023 9.07041L91.8191 10.7296ZM95.9047 9.64C97.2995 9.64 99.0811 9.8007 101.262 10.1326L101.563 8.15538C99.3283 7.8153 97.4379 7.64 95.9047 7.64V9.64ZM101.237 10.1284L102.245 10.3084L102.596 8.33957L101.588 8.15957L101.237 10.1284ZM101.421 9.29276L101.349 11.5968L103.348 11.6592L103.42 9.35523L101.421 9.29276ZM102.491 10.6382C99.8096 10.2517 97.655 10.052 96.0487 10.052V12.052C97.5143 12.052 99.5598 12.2363 102.206 12.6178L102.491 10.6382Z" fill="black" mask="url(#path-1-outside-1_140_792)"/>
</svg>
