<svg width="156" height="27" viewBox="0 0 156 27" fill="none" xmlns="http://www.w3.org/2000/svg">
<mask id="path-1-outside-1_265_132" maskUnits="userSpaceOnUse" x="-1" y="-1" width="158" height="29" fill="black">
<rect fill="white" x="-1" y="-1" width="158" height="29"/>
<path d="M14.3 13.436V22.652C14.372 23.54 15.068 24.068 16.388 24.236L16.28 26.36C14.384 26.36 12.956 25.88 11.996 24.92C9.836 25.88 7.676 26.36 5.516 26.36C3.86 26.36 2.6 25.892 1.736 24.956C0.872 24.02 0.44 22.676 0.44 20.924C0.44 19.172 0.884 17.888 1.772 17.072C2.66 16.232 4.052 15.716 5.948 15.524L11.6 14.984V13.436C11.6 12.212 11.336 11.336 10.808 10.808C10.28 10.28 9.56 10.016 8.648 10.016C6.728 10.016 4.736 10.136 2.672 10.376L1.556 10.484L1.448 8.432C4.088 7.904 6.428 7.64 8.468 7.64C10.508 7.64 11.984 8.108 12.896 9.044C13.832 9.98 14.3 11.444 14.3 13.436ZM3.212 20.78C3.212 22.988 4.124 24.092 5.948 24.092C7.58 24.092 9.188 23.816 10.772 23.264L11.6 22.976V17.036L6.272 17.54C5.192 17.636 4.412 17.948 3.932 18.476C3.452 19.004 3.212 19.772 3.212 20.78ZM33.4512 0.151998V26H30.7872V24.776C28.9392 25.832 27.1152 26.36 25.3152 26.36C24.3552 26.36 23.5152 26.24 22.7952 26C22.0752 25.76 21.4032 25.328 20.7792 24.704C19.4832 23.408 18.8352 21.02 18.8352 17.54C18.8352 14.036 19.4112 11.516 20.5632 9.98C21.7392 8.42 23.6712 7.64 26.3592 7.64C27.7512 7.64 29.2272 7.796 30.7872 8.108V0.151998H33.4512ZM22.8672 22.76C23.2512 23.216 23.6592 23.528 24.0912 23.696C24.5232 23.864 25.0752 23.948 25.7472 23.948C26.4432 23.948 27.2112 23.84 28.0512 23.624C28.9152 23.384 29.5872 23.156 30.0672 22.94L30.7872 22.616V10.412C29.2512 10.124 27.8232 9.98 26.5032 9.98C24.6792 9.98 23.4072 10.568 22.6872 11.744C21.9672 12.896 21.6072 14.696 21.6072 17.144C21.6072 19.928 22.0272 21.8 22.8672 22.76ZM52.5058 0.151998V26H49.8418V24.776C47.9938 25.832 46.1698 26.36 44.3698 26.36C43.4098 26.36 42.5698 26.24 41.8498 26C41.1298 25.76 40.4578 25.328 39.8338 24.704C38.5378 23.408 37.8898 21.02 37.8898 17.54C37.8898 14.036 38.4658 11.516 39.6178 9.98C40.7938 8.42 42.7258 7.64 45.4138 7.64C46.8058 7.64 48.2818 7.796 49.8418 8.108V0.151998H52.5058ZM41.9218 22.76C42.3058 23.216 42.7138 23.528 43.1458 23.696C43.5778 23.864 44.1298 23.948 44.8018 23.948C45.4978 23.948 46.2658 23.84 47.1058 23.624C47.9698 23.384 48.6418 23.156 49.1218 22.94L49.8418 22.616V10.412C48.3058 10.124 46.8778 9.98 45.5578 9.98C43.7338 9.98 42.4618 10.568 41.7418 11.744C41.0218 12.896 40.6618 14.696 40.6618 17.144C40.6618 19.928 41.0818 21.8 41.9218 22.76ZM66.1147 26V1.088H81.0187V3.536H68.8867V13.256H79.1467V15.704H68.8867V26H66.1147ZM83.8225 26V8H86.4865V10.448C88.5745 9.008 90.7705 8.06 93.0745 7.604V10.34C92.0665 10.532 91.0105 10.832 89.9065 11.24C88.8265 11.648 87.9985 12.008 87.4225 12.32L86.5225 12.788V26H83.8225ZM96.2678 26V8H98.9678V26H96.2678ZM96.2678 3.932V0.799998H98.9678V3.932H96.2678ZM116.383 23.768L117.427 23.66L117.499 25.784C114.763 26.168 112.423 26.36 110.479 26.36C107.887 26.36 106.051 25.616 104.971 24.128C103.891 22.616 103.351 20.276 103.351 17.108C103.351 10.796 105.859 7.64 110.875 7.64C113.299 7.64 115.111 8.324 116.311 9.692C117.511 11.036 118.111 13.16 118.111 16.064L117.967 18.116H106.087C106.087 20.108 106.447 21.584 107.167 22.544C107.887 23.504 109.135 23.984 110.911 23.984C112.711 23.984 114.535 23.912 116.383 23.768ZM115.411 15.956C115.411 13.748 115.051 12.188 114.331 11.276C113.635 10.364 112.483 9.908 110.875 9.908C109.291 9.908 108.091 10.388 107.275 11.348C106.483 12.308 106.075 13.844 106.051 15.956H115.411ZM125.019 26H122.319V8H124.983V9.26C126.927 8.18 128.787 7.64 130.563 7.64C132.963 7.64 134.571 8.288 135.387 9.584C136.227 10.88 136.647 13.184 136.647 16.496V26H133.983V16.568C133.983 14.072 133.731 12.368 133.227 11.456C132.747 10.52 131.703 10.052 130.095 10.052C129.327 10.052 128.511 10.172 127.647 10.412C126.807 10.628 126.159 10.844 125.703 11.06L125.019 11.384V26ZM155.479 0.151998V26H152.815V24.776C150.967 25.832 149.143 26.36 147.343 26.36C146.383 26.36 145.543 26.24 144.823 26C144.103 25.76 143.431 25.328 142.807 24.704C141.511 23.408 140.863 21.02 140.863 17.54C140.863 14.036 141.439 11.516 142.591 9.98C143.767 8.42 145.699 7.64 148.387 7.64C149.779 7.64 151.255 7.796 152.815 8.108V0.151998H155.479ZM144.895 22.76C145.279 23.216 145.687 23.528 146.119 23.696C146.551 23.864 147.103 23.948 147.775 23.948C148.471 23.948 149.239 23.84 150.079 23.624C150.943 23.384 151.615 23.156 152.095 22.94L152.815 22.616V10.412C151.279 10.124 149.851 9.98 148.531 9.98C146.707 9.98 145.435 10.568 144.715 11.744C143.995 12.896 143.635 14.696 143.635 17.144C143.635 19.928 144.055 21.8 144.895 22.76Z"/>
</mask>
<path d="M14.3 13.436V22.652C14.372 23.54 15.068 24.068 16.388 24.236L16.28 26.36C14.384 26.36 12.956 25.88 11.996 24.92C9.836 25.88 7.676 26.36 5.516 26.36C3.86 26.36 2.6 25.892 1.736 24.956C0.872 24.02 0.44 22.676 0.44 20.924C0.44 19.172 0.884 17.888 1.772 17.072C2.66 16.232 4.052 15.716 5.948 15.524L11.6 14.984V13.436C11.6 12.212 11.336 11.336 10.808 10.808C10.28 10.28 9.56 10.016 8.648 10.016C6.728 10.016 4.736 10.136 2.672 10.376L1.556 10.484L1.448 8.432C4.088 7.904 6.428 7.64 8.468 7.64C10.508 7.64 11.984 8.108 12.896 9.044C13.832 9.98 14.3 11.444 14.3 13.436ZM3.212 20.78C3.212 22.988 4.124 24.092 5.948 24.092C7.58 24.092 9.188 23.816 10.772 23.264L11.6 22.976V17.036L6.272 17.54C5.192 17.636 4.412 17.948 3.932 18.476C3.452 19.004 3.212 19.772 3.212 20.78ZM33.4512 0.151998V26H30.7872V24.776C28.9392 25.832 27.1152 26.36 25.3152 26.36C24.3552 26.36 23.5152 26.24 22.7952 26C22.0752 25.76 21.4032 25.328 20.7792 24.704C19.4832 23.408 18.8352 21.02 18.8352 17.54C18.8352 14.036 19.4112 11.516 20.5632 9.98C21.7392 8.42 23.6712 7.64 26.3592 7.64C27.7512 7.64 29.2272 7.796 30.7872 8.108V0.151998H33.4512ZM22.8672 22.76C23.2512 23.216 23.6592 23.528 24.0912 23.696C24.5232 23.864 25.0752 23.948 25.7472 23.948C26.4432 23.948 27.2112 23.84 28.0512 23.624C28.9152 23.384 29.5872 23.156 30.0672 22.94L30.7872 22.616V10.412C29.2512 10.124 27.8232 9.98 26.5032 9.98C24.6792 9.98 23.4072 10.568 22.6872 11.744C21.9672 12.896 21.6072 14.696 21.6072 17.144C21.6072 19.928 22.0272 21.8 22.8672 22.76ZM52.5058 0.151998V26H49.8418V24.776C47.9938 25.832 46.1698 26.36 44.3698 26.36C43.4098 26.36 42.5698 26.24 41.8498 26C41.1298 25.76 40.4578 25.328 39.8338 24.704C38.5378 23.408 37.8898 21.02 37.8898 17.54C37.8898 14.036 38.4658 11.516 39.6178 9.98C40.7938 8.42 42.7258 7.64 45.4138 7.64C46.8058 7.64 48.2818 7.796 49.8418 8.108V0.151998H52.5058ZM41.9218 22.76C42.3058 23.216 42.7138 23.528 43.1458 23.696C43.5778 23.864 44.1298 23.948 44.8018 23.948C45.4978 23.948 46.2658 23.84 47.1058 23.624C47.9698 23.384 48.6418 23.156 49.1218 22.94L49.8418 22.616V10.412C48.3058 10.124 46.8778 9.98 45.5578 9.98C43.7338 9.98 42.4618 10.568 41.7418 11.744C41.0218 12.896 40.6618 14.696 40.6618 17.144C40.6618 19.928 41.0818 21.8 41.9218 22.76ZM66.1147 26V1.088H81.0187V3.536H68.8867V13.256H79.1467V15.704H68.8867V26H66.1147ZM83.8225 26V8H86.4865V10.448C88.5745 9.008 90.7705 8.06 93.0745 7.604V10.34C92.0665 10.532 91.0105 10.832 89.9065 11.24C88.8265 11.648 87.9985 12.008 87.4225 12.32L86.5225 12.788V26H83.8225ZM96.2678 26V8H98.9678V26H96.2678ZM96.2678 3.932V0.799998H98.9678V3.932H96.2678ZM116.383 23.768L117.427 23.66L117.499 25.784C114.763 26.168 112.423 26.36 110.479 26.36C107.887 26.36 106.051 25.616 104.971 24.128C103.891 22.616 103.351 20.276 103.351 17.108C103.351 10.796 105.859 7.64 110.875 7.64C113.299 7.64 115.111 8.324 116.311 9.692C117.511 11.036 118.111 13.16 118.111 16.064L117.967 18.116H106.087C106.087 20.108 106.447 21.584 107.167 22.544C107.887 23.504 109.135 23.984 110.911 23.984C112.711 23.984 114.535 23.912 116.383 23.768ZM115.411 15.956C115.411 13.748 115.051 12.188 114.331 11.276C113.635 10.364 112.483 9.908 110.875 9.908C109.291 9.908 108.091 10.388 107.275 11.348C106.483 12.308 106.075 13.844 106.051 15.956H115.411ZM125.019 26H122.319V8H124.983V9.26C126.927 8.18 128.787 7.64 130.563 7.64C132.963 7.64 134.571 8.288 135.387 9.584C136.227 10.88 136.647 13.184 136.647 16.496V26H133.983V16.568C133.983 14.072 133.731 12.368 133.227 11.456C132.747 10.52 131.703 10.052 130.095 10.052C129.327 10.052 128.511 10.172 127.647 10.412C126.807 10.628 126.159 10.844 125.703 11.06L125.019 11.384V26ZM155.479 0.151998V26H152.815V24.776C150.967 25.832 149.143 26.36 147.343 26.36C146.383 26.36 145.543 26.24 144.823 26C144.103 25.76 143.431 25.328 142.807 24.704C141.511 23.408 140.863 21.02 140.863 17.54C140.863 14.036 141.439 11.516 142.591 9.98C143.767 8.42 145.699 7.64 148.387 7.64C149.779 7.64 151.255 7.796 152.815 8.108V0.151998H155.479ZM144.895 22.76C145.279 23.216 145.687 23.528 146.119 23.696C146.551 23.864 147.103 23.948 147.775 23.948C148.471 23.948 149.239 23.84 150.079 23.624C150.943 23.384 151.615 23.156 152.095 22.94L152.815 22.616V10.412C151.279 10.124 149.851 9.98 148.531 9.98C146.707 9.98 145.435 10.568 144.715 11.744C143.995 12.896 143.635 14.696 143.635 17.144C143.635 19.928 144.055 21.8 144.895 22.76Z" fill="#666666"/>
<path d="M14.3 22.652H13.3V22.6925L13.3033 22.7328L14.3 22.652ZM16.388 24.236L17.3867 24.2868L17.4338 23.361L16.5143 23.244L16.388 24.236ZM16.28 26.36V27.36H17.2304L17.2787 26.4108L16.28 26.36ZM11.996 24.92L12.7031 24.2129L12.2175 23.7273L11.5899 24.0062L11.996 24.92ZM1.736 24.956L2.4708 24.2777L1.736 24.956ZM1.772 17.072L2.44863 17.8083L2.45395 17.8034L2.4592 17.7985L1.772 17.072ZM5.948 15.524L5.85289 14.5285L5.84725 14.5291L5.948 15.524ZM11.6 14.984L11.6951 15.9795L12.6 15.893V14.984H11.6ZM10.808 10.808L10.1009 11.5151H10.1009L10.808 10.808ZM2.672 10.376L2.76832 11.3713L2.77792 11.3704L2.7875 11.3693L2.672 10.376ZM1.556 10.484L0.557382 10.5366L0.6123 11.58L1.65232 11.4793L1.556 10.484ZM1.448 8.432L1.25188 7.45142L0.403932 7.62101L0.449382 8.48456L1.448 8.432ZM12.896 9.044L12.1797 9.74192L12.1889 9.75111L12.896 9.044ZM10.772 23.264L10.4435 22.3195L10.4429 22.3197L10.772 23.264ZM11.6 22.976L11.9285 23.9205L12.6 23.6869V22.976H11.6ZM11.6 17.036H12.6V15.9369L11.5058 16.0404L11.6 17.036ZM6.272 17.54L6.36054 18.5361L6.36617 18.5356L6.272 17.54ZM3.932 18.476L4.67194 19.1487L3.932 18.476ZM13.3 13.436V22.652H15.3V13.436H13.3ZM13.3033 22.7328C13.3617 23.454 13.6919 24.0709 14.2716 24.5107C14.8137 24.9219 15.5116 25.1325 16.2617 25.228L16.5143 23.244C15.9444 23.1715 15.6343 23.0341 15.4804 22.9173C15.3641 22.8291 15.3103 22.738 15.2967 22.5712L13.3033 22.7328ZM15.3893 24.1852L15.2813 26.3092L17.2787 26.4108L17.3867 24.2868L15.3893 24.1852ZM16.28 25.36C14.5424 25.36 13.4116 24.9213 12.7031 24.2129L11.2889 25.6271C12.5004 26.8387 14.2256 27.36 16.28 27.36V25.36ZM11.5899 24.0062C9.54555 24.9148 7.52335 25.36 5.516 25.36V27.36C7.82865 27.36 10.1265 26.8452 12.4021 25.8338L11.5899 24.0062ZM5.516 25.36C4.05069 25.36 3.09287 24.9516 2.4708 24.2777L1.0012 25.6343C2.10713 26.8324 3.66931 27.36 5.516 27.36V25.36ZM2.4708 24.2777C1.83248 23.5862 1.44 22.5199 1.44 20.924H-0.56C-0.56 22.8321 -0.0884749 24.4538 1.0012 25.6343L2.4708 24.2777ZM1.44 20.924C1.44 19.3234 1.84537 18.3627 2.44863 17.8083L1.09538 16.3357C-0.0773675 17.4133 -0.56 19.0206 -0.56 20.924H1.44ZM2.4592 17.7985C3.11907 17.1743 4.25716 16.7003 6.04875 16.5189L5.84725 14.5291C3.84684 14.7317 2.20093 15.2897 1.0848 16.3455L2.4592 17.7985ZM6.04311 16.5195L11.6951 15.9795L11.5049 13.9885L5.85289 14.5285L6.04311 16.5195ZM12.6 14.984V13.436H10.6V14.984H12.6ZM12.6 13.436C12.6 12.1082 12.3202 10.906 11.5151 10.1009L10.1009 11.5151C10.3518 11.766 10.6 12.3158 10.6 13.436H12.6ZM11.5151 10.1009C10.7596 9.34536 9.76273 9.016 8.648 9.016V11.016C9.35727 11.016 9.80042 11.2146 10.1009 11.5151L11.5151 10.1009ZM8.648 9.016C6.68641 9.016 4.65574 9.13859 2.5565 9.38269L2.7875 11.3693C4.81626 11.1334 6.76959 11.016 8.648 11.016V9.016ZM2.57568 9.38065L1.45968 9.48865L1.65232 11.4793L2.76832 11.3713L2.57568 9.38065ZM2.55462 10.4314L2.44662 8.37944L0.449382 8.48456L0.557382 10.5366L2.55462 10.4314ZM1.64412 9.41258C4.23871 8.89366 6.51088 8.64 8.468 8.64V6.64C6.34512 6.64 3.93729 6.91434 1.25188 7.45142L1.64412 9.41258ZM8.468 8.64C10.386 8.64 11.5388 9.08399 12.1798 9.74186L13.6122 8.34613C12.4292 7.13201 10.63 6.64 8.468 6.64V8.64ZM12.1889 9.75111C12.861 10.4232 13.3 11.5771 13.3 13.436H15.3C15.3 11.3109 14.803 9.53679 13.6031 8.33689L12.1889 9.75111ZM2.212 20.78C2.212 21.9966 2.45934 23.095 3.12504 23.9009C3.82096 24.7433 4.82618 25.092 5.948 25.092V23.092C5.24582 23.092 4.88304 22.8887 4.66696 22.6271C4.42066 22.329 4.212 21.7714 4.212 20.78H2.212ZM5.948 25.092C7.69516 25.092 9.41427 24.7961 11.1011 24.2083L10.4429 22.3197C8.96173 22.8359 7.46484 23.092 5.948 23.092V25.092ZM11.1005 24.2085L11.9285 23.9205L11.2715 22.0315L10.4435 22.3195L11.1005 24.2085ZM12.6 22.976V17.036H10.6V22.976H12.6ZM11.5058 16.0404L6.17783 16.5444L6.36617 18.5356L11.6942 18.0316L11.5058 16.0404ZM6.18346 16.5439C4.97958 16.6509 3.9102 17.0134 3.19206 17.8033L4.67194 19.1487C4.9138 18.8826 5.40442 18.6211 6.36054 18.5361L6.18346 16.5439ZM3.19206 17.8033C2.4867 18.5792 2.212 19.6256 2.212 20.78H4.212C4.212 19.9184 4.4173 19.4288 4.67194 19.1487L3.19206 17.8033ZM33.4512 0.151999H34.4512V-0.848001H33.4512V0.151999ZM33.4512 26V27H34.4512V26H33.4512ZM30.7872 26H29.7872V27H30.7872V26ZM30.7872 24.776H31.7872V23.0528L30.291 23.9078L30.7872 24.776ZM20.7792 24.704L20.0721 25.4111L20.7792 24.704ZM20.5632 9.98L19.7646 9.37803L19.7632 9.38L20.5632 9.98ZM30.7872 8.108L30.591 9.08858L31.7872 9.3278V8.108H30.7872ZM30.7872 0.151999V-0.848001H29.7872V0.151999H30.7872ZM22.8672 22.76L23.6321 22.1159L23.626 22.1086L23.6197 22.1015L22.8672 22.76ZM28.0512 23.624L28.3002 24.5925L28.3095 24.5901L28.3188 24.5875L28.0512 23.624ZM30.0672 22.94L30.4775 23.8519L30.0672 22.94ZM30.7872 22.616L31.1975 23.5279L31.7872 23.2626V22.616H30.7872ZM30.7872 10.412H31.7872V9.58207L30.9714 9.42913L30.7872 10.412ZM22.6872 11.744L23.5352 12.274L23.54 12.2662L22.6872 11.744ZM32.4512 0.151999V26H34.4512V0.151999H32.4512ZM33.4512 25H30.7872V27H33.4512V25ZM31.7872 26V24.776H29.7872V26H31.7872ZM30.291 23.9078C28.5664 24.8932 26.9118 25.36 25.3152 25.36V27.36C27.3185 27.36 29.3119 26.7708 31.2833 25.6442L30.291 23.9078ZM25.3152 25.36C24.4355 25.36 23.7065 25.2497 23.1114 25.0513L22.4789 26.9487C23.3238 27.2303 24.2748 27.36 25.3152 27.36V25.36ZM23.1114 25.0513C22.5609 24.8678 22.0183 24.529 21.4863 23.9969L20.0721 25.4111C20.788 26.127 21.5894 26.6522 22.4789 26.9487L23.1114 25.0513ZM21.4863 23.9969C20.4877 22.9983 19.8352 20.967 19.8352 17.54H17.8352C17.8352 21.073 18.4786 23.8177 20.0721 25.4111L21.4863 23.9969ZM19.8352 17.54C19.8352 14.0964 20.4108 11.8498 21.3632 10.58L19.7632 9.38C18.4115 11.1822 17.8352 13.9756 17.8352 17.54H19.8352ZM21.3617 10.582C22.2838 9.35876 23.8587 8.64 26.3592 8.64V6.64C23.4836 6.64 21.1945 7.48124 19.7646 9.37804L21.3617 10.582ZM26.3592 8.64C27.6768 8.64 29.0866 8.7877 30.591 9.08858L30.9833 7.12742C29.3677 6.8043 27.8256 6.64 26.3592 6.64V8.64ZM31.7872 8.108V0.151999H29.7872V8.108H31.7872ZM30.7872 1.152H33.4512V-0.848001H30.7872V1.152ZM22.1022 23.4041C22.5641 23.9526 23.1022 24.3843 23.7287 24.628L24.4536 22.764C24.2162 22.6717 23.9382 22.4794 23.6321 22.1159L22.1022 23.4041ZM23.7287 24.628C24.3158 24.8563 25.0022 24.948 25.7472 24.948V22.948C25.1482 22.948 24.7305 22.8717 24.4536 22.764L23.7287 24.628ZM25.7472 24.948C26.5448 24.948 27.3979 24.8245 28.3002 24.5925L27.8021 22.6555C27.0244 22.8555 26.3415 22.948 25.7472 22.948V24.948ZM28.3188 24.5875C29.2028 24.342 29.9303 24.0982 30.4775 23.8519L29.6568 22.0281C29.244 22.2138 28.6275 22.426 27.7835 22.6605L28.3188 24.5875ZM30.4775 23.8519L31.1975 23.5279L30.3768 21.7041L29.6568 22.0281L30.4775 23.8519ZM31.7872 22.616V10.412H29.7872V22.616H31.7872ZM30.9714 9.42913C29.3854 9.13175 27.895 8.98 26.5032 8.98V10.98C27.7513 10.98 29.1169 11.1163 30.6029 11.3949L30.9714 9.42913ZM26.5032 8.98C24.458 8.98 22.7937 9.65483 21.8343 11.2218L23.54 12.2662C24.0206 11.4812 24.9004 10.98 26.5032 10.98V8.98ZM21.8392 11.214C20.9683 12.6074 20.6072 14.6383 20.6072 17.144H22.6072C22.6072 14.7537 22.966 13.1846 23.5352 12.274L21.8392 11.214ZM20.6072 17.144C20.6072 18.5798 20.7149 19.8228 20.9464 20.8549C21.176 21.8782 21.543 22.7653 22.1146 23.4185L23.6197 22.1015C23.3513 21.7947 23.0883 21.2658 22.8979 20.4171C22.7095 19.5772 22.6072 18.4922 22.6072 17.144H20.6072ZM52.5058 0.151999H53.5058V-0.848001H52.5058V0.151999ZM52.5058 26V27H53.5058V26H52.5058ZM49.8418 26H48.8418V27H49.8418V26ZM49.8418 24.776H50.8418V23.0528L49.3457 23.9078L49.8418 24.776ZM39.8338 24.704L39.1267 25.4111L39.8338 24.704ZM39.6178 9.98L38.8193 9.37803L38.8178 9.38L39.6178 9.98ZM49.8418 8.108L49.6457 9.08858L50.8418 9.3278V8.108H49.8418ZM49.8418 0.151999V-0.848001H48.8418V0.151999H49.8418ZM41.9218 22.76L42.6868 22.1159L42.6807 22.1086L42.6744 22.1015L41.9218 22.76ZM47.1058 23.624L47.3549 24.5925L47.3642 24.5901L47.3735 24.5875L47.1058 23.624ZM49.1218 22.94L49.5322 23.8519L49.1218 22.94ZM49.8418 22.616L50.2522 23.5279L50.8418 23.2626V22.616H49.8418ZM49.8418 10.412H50.8418V9.58207L50.0261 9.42913L49.8418 10.412ZM41.7418 11.744L42.5899 12.274L42.5947 12.2662L41.7418 11.744ZM51.5058 0.151999V26H53.5058V0.151999H51.5058ZM52.5058 25H49.8418V27H52.5058V25ZM50.8418 26V24.776H48.8418V26H50.8418ZM49.3457 23.9078C47.6211 24.8932 45.9665 25.36 44.3698 25.36V27.36C46.3732 27.36 48.3666 26.7708 50.338 25.6442L49.3457 23.9078ZM44.3698 25.36C43.4902 25.36 42.7612 25.2497 42.1661 25.0513L41.5336 26.9487C42.3785 27.2303 43.3295 27.36 44.3698 27.36V25.36ZM42.1661 25.0513C41.6156 24.8678 41.073 24.529 40.541 23.9969L39.1267 25.4111C39.8427 26.127 40.6441 26.6522 41.5336 26.9487L42.1661 25.0513ZM40.541 23.9969C39.5424 22.9983 38.8898 20.967 38.8898 17.54H36.8898C36.8898 21.073 37.5333 23.8177 39.1267 25.4111L40.541 23.9969ZM38.8898 17.54C38.8898 14.0964 39.4655 11.8498 40.4178 10.58L38.8178 9.38C37.4662 11.1822 36.8898 13.9756 36.8898 17.54H38.8898ZM40.4164 10.582C41.3385 9.35876 42.9134 8.64 45.4138 8.64V6.64C42.5383 6.64 40.2492 7.48124 38.8193 9.37804L40.4164 10.582ZM45.4138 8.64C46.7314 8.64 48.1413 8.7877 49.6457 9.08858L50.038 7.12742C48.4224 6.8043 46.8802 6.64 45.4138 6.64V8.64ZM50.8418 8.108V0.151999H48.8418V8.108H50.8418ZM49.8418 1.152H52.5058V-0.848001H49.8418V1.152ZM41.1569 23.4041C41.6188 23.9526 42.1568 24.3843 42.7834 24.628L43.5083 22.764C43.2708 22.6717 42.9929 22.4794 42.6868 22.1159L41.1569 23.4041ZM42.7834 24.628C43.3705 24.8563 44.0568 24.948 44.8018 24.948V22.948C44.2028 22.948 43.7852 22.8717 43.5083 22.764L42.7834 24.628ZM44.8018 24.948C45.5995 24.948 46.4526 24.8245 47.3549 24.5925L46.8568 22.6555C46.0791 22.8555 45.3962 22.948 44.8018 22.948V24.948ZM47.3735 24.5875C48.2575 24.342 48.985 24.0982 49.5322 23.8519L48.7115 22.0281C48.2987 22.2138 47.6822 22.426 46.8382 22.6605L47.3735 24.5875ZM49.5322 23.8519L50.2522 23.5279L49.4315 21.7041L48.7115 22.0281L49.5322 23.8519ZM50.8418 22.616V10.412H48.8418V22.616H50.8418ZM50.0261 9.42913C48.4401 9.13175 46.9497 8.98 45.5578 8.98V10.98C46.806 10.98 48.1716 11.1163 49.6576 11.3949L50.0261 9.42913ZM45.5578 8.98C43.5126 8.98 41.8484 9.65483 40.889 11.2218L42.5947 12.2662C43.0753 11.4812 43.955 10.98 45.5578 10.98V8.98ZM40.8938 11.214C40.023 12.6074 39.6618 14.6383 39.6618 17.144H41.6618C41.6618 14.7537 42.0207 13.1846 42.5898 12.274L40.8938 11.214ZM39.6618 17.144C39.6618 18.5798 39.7695 19.8228 40.0011 20.8549C40.2307 21.8782 40.5977 22.7653 41.1693 23.4185L42.6744 22.1015C42.406 21.7947 42.143 21.2658 41.9526 20.4171C41.7641 19.5772 41.6618 18.4922 41.6618 17.144H39.6618ZM66.1147 26H65.1147V27H66.1147V26ZM66.1147 1.088V0.0879993H65.1147V1.088H66.1147ZM81.0187 1.088H82.0187V0.0879993H81.0187V1.088ZM81.0187 3.536V4.536H82.0187V3.536H81.0187ZM68.8867 3.536V2.536H67.8867V3.536H68.8867ZM68.8867 13.256H67.8867V14.256H68.8867V13.256ZM79.1467 13.256H80.1467V12.256H79.1467V13.256ZM79.1467 15.704V16.704H80.1467V15.704H79.1467ZM68.8867 15.704V14.704H67.8867V15.704H68.8867ZM68.8867 26V27H69.8867V26H68.8867ZM67.1147 26V1.088H65.1147V26H67.1147ZM66.1147 2.088H81.0187V0.0879993H66.1147V2.088ZM80.0187 1.088V3.536H82.0187V1.088H80.0187ZM81.0187 2.536H68.8867V4.536H81.0187V2.536ZM67.8867 3.536V13.256H69.8867V3.536H67.8867ZM68.8867 14.256H79.1467V12.256H68.8867V14.256ZM78.1467 13.256V15.704H80.1467V13.256H78.1467ZM79.1467 14.704H68.8867V16.704H79.1467V14.704ZM67.8867 15.704V26H69.8867V15.704H67.8867ZM68.8867 25H66.1147V27H68.8867V25ZM83.8225 26H82.8225V27H83.8225V26ZM83.8225 8V7H82.8225V8H83.8225ZM86.4865 8H87.4865V7H86.4865V8ZM86.4865 10.448H85.4865V12.3524L87.0542 11.2712L86.4865 10.448ZM93.0745 7.604H94.0745V6.38668L92.8803 6.62303L93.0745 7.604ZM93.0745 10.34L93.2616 11.3223L94.0745 11.1675V10.34H93.0745ZM89.9065 11.24L89.5598 10.302L89.5531 10.3045L89.9065 11.24ZM87.4225 12.32L87.8838 13.2072L87.8913 13.2033L87.8988 13.1993L87.4225 12.32ZM86.5225 12.788L86.0611 11.9008L85.5225 12.1809V12.788H86.5225ZM86.5225 26V27H87.5225V26H86.5225ZM84.8225 26V8H82.8225V26H84.8225ZM83.8225 9H86.4865V7H83.8225V9ZM85.4865 8V10.448H87.4865V8H85.4865ZM87.0542 11.2712C89.0388 9.90249 91.109 9.01239 93.2686 8.58497L92.8803 6.62303C90.4319 7.10761 88.1101 8.11351 85.9187 9.62479L87.0542 11.2712ZM92.0745 7.604V10.34H94.0745V7.604H92.0745ZM92.8874 9.35766C91.8178 9.56138 90.7083 9.87757 89.5598 10.302L90.2531 12.178C91.3126 11.7864 92.3151 11.5026 93.2616 11.3223L92.8874 9.35766ZM89.5531 10.3045C88.4575 10.7184 87.5808 11.097 86.9462 11.4407L87.8988 13.1993C88.4162 12.919 89.1955 12.5776 90.2599 12.1755L89.5531 10.3045ZM86.9611 11.4328L86.0611 11.9008L86.9838 13.6752L87.8838 13.2072L86.9611 11.4328ZM85.5225 12.788V26H87.5225V12.788H85.5225ZM86.5225 25H83.8225V27H86.5225V25ZM96.2678 26H95.2678V27H96.2678V26ZM96.2678 8V7H95.2678V8H96.2678ZM98.9678 8H99.9678V7H98.9678V8ZM98.9678 26V27H99.9678V26H98.9678ZM96.2678 3.932H95.2678V4.932H96.2678V3.932ZM96.2678 0.799998V-0.200002H95.2678V0.799998H96.2678ZM98.9678 0.799998H99.9678V-0.200002H98.9678V0.799998ZM98.9678 3.932V4.932H99.9678V3.932H98.9678ZM97.2678 26V8H95.2678V26H97.2678ZM96.2678 9H98.9678V7H96.2678V9ZM97.9678 8V26H99.9678V8H97.9678ZM98.9678 25H96.2678V27H98.9678V25ZM97.2678 3.932V0.799998H95.2678V3.932H97.2678ZM96.2678 1.8H98.9678V-0.200002H96.2678V1.8ZM97.9678 0.799998V3.932H99.9678V0.799998H97.9678ZM98.9678 2.932H96.2678V4.932H98.9678V2.932ZM116.383 23.768L116.46 24.765L116.473 24.764L116.486 24.7627L116.383 23.768ZM117.427 23.66L118.426 23.6261L118.39 22.555L117.324 22.6653L117.427 23.66ZM117.499 25.784L117.638 26.7743L118.529 26.6493L118.498 25.7501L117.499 25.784ZM104.971 24.128L104.157 24.7093L104.161 24.7154L104.971 24.128ZM116.311 9.692L115.559 10.3515L115.565 10.358L116.311 9.692ZM118.111 16.064L119.108 16.134L119.111 16.099V16.064H118.111ZM117.967 18.116V19.116H118.899L118.964 18.186L117.967 18.116ZM106.087 18.116V17.116H105.087V18.116H106.087ZM107.167 22.544L106.367 23.144L107.167 22.544ZM115.411 15.956V16.956H116.411V15.956H115.411ZM114.331 11.276L113.536 11.8827L113.541 11.8892L113.546 11.8956L114.331 11.276ZM107.275 11.348L106.513 10.7004L106.508 10.7059L106.503 10.7116L107.275 11.348ZM106.051 15.956L105.051 15.9446L105.039 16.956H106.051V15.956ZM116.486 24.7627L117.53 24.6547L117.324 22.6653L116.28 22.7733L116.486 24.7627ZM116.427 23.6939L116.499 25.8179L118.498 25.7501L118.426 23.6261L116.427 23.6939ZM117.36 24.7937C114.652 25.1737 112.361 25.36 110.479 25.36V27.36C112.484 27.36 114.873 27.1623 117.638 26.7743L117.36 24.7937ZM110.479 25.36C108.067 25.36 106.602 24.6737 105.78 23.5406L104.161 24.7154C105.499 26.5583 107.707 27.36 110.479 27.36V25.36ZM105.785 23.5468C104.885 22.2869 104.351 20.1993 104.351 17.108H102.351C102.351 20.3527 102.897 22.9451 104.157 24.7092L105.785 23.5468ZM104.351 17.108C104.351 14.0577 104.961 11.9548 106.015 10.6291C107.033 9.34738 108.59 8.64 110.875 8.64V6.64C108.144 6.64 105.938 7.51062 104.449 9.38485C102.994 11.2152 102.351 13.8463 102.351 17.108H104.351ZM110.875 8.64C113.112 8.64 114.607 9.26569 115.559 10.3514L117.063 9.03256C115.615 7.38231 113.486 6.64 110.875 6.64V8.64ZM115.565 10.358C116.527 11.4351 117.111 13.2638 117.111 16.064H119.111C119.111 13.0562 118.495 10.6369 117.057 9.02598L115.565 10.358ZM117.113 15.994L116.969 18.046L118.964 18.186L119.108 16.134L117.113 15.994ZM117.967 17.116H106.087V19.116H117.967V17.116ZM105.087 18.116C105.087 20.1942 105.456 21.9297 106.367 23.144L107.967 21.944C107.438 21.2383 107.087 20.0218 107.087 18.116H105.087ZM106.367 23.144C107.353 24.4596 108.977 24.984 110.911 24.984V22.984C109.292 22.984 108.42 22.5484 107.967 21.944L106.367 23.144ZM110.911 24.984C112.737 24.984 114.587 24.9109 116.46 24.765L116.305 22.771C114.482 22.9131 112.684 22.984 110.911 22.984V24.984ZM116.411 15.956C116.411 13.6978 116.054 11.8452 115.116 10.6564L113.546 11.8956C114.047 12.5308 114.411 13.7982 114.411 15.956H116.411ZM115.126 10.6693C114.172 9.42007 112.662 8.908 110.875 8.908V10.908C112.304 10.908 113.097 11.3079 113.536 11.8827L115.126 10.6693ZM110.875 8.908C109.079 8.908 107.566 9.46128 106.513 10.7004L108.037 11.9956C108.616 11.3147 109.502 10.908 110.875 10.908V8.908ZM106.503 10.7116C105.495 11.934 105.076 13.7493 105.051 15.9446L107.051 15.9674C107.074 13.9387 107.471 12.682 108.046 11.9844L106.503 10.7116ZM106.051 16.956H115.411V14.956H106.051V16.956ZM125.019 26V27H126.019V26H125.019ZM122.319 26H121.319V27H122.319V26ZM122.319 8V7H121.319V8H122.319ZM124.983 8H125.983V7H124.983V8ZM124.983 9.26H123.983V10.9595L125.468 10.1342L124.983 9.26ZM135.387 9.584L134.54 10.1169L134.547 10.1279L135.387 9.584ZM136.647 26V27H137.647V26H136.647ZM133.983 26H132.983V27H133.983V26ZM133.227 11.456L132.337 11.9123L132.344 11.9261L132.351 11.9397L133.227 11.456ZM127.647 10.412L127.896 11.3805L127.905 11.3781L127.914 11.3755L127.647 10.412ZM125.703 11.06L126.131 11.9637L125.703 11.06ZM125.019 11.384L124.59 10.4803L124.019 10.7512V11.384H125.019ZM125.019 25H122.319V27H125.019V25ZM123.319 26V8H121.319V26H123.319ZM122.319 9H124.983V7H122.319V9ZM123.983 8V9.26H125.983V8H123.983ZM125.468 10.1342C127.301 9.1162 128.994 8.64 130.563 8.64V6.64C128.579 6.64 126.553 7.24379 124.497 8.38584L125.468 10.1342ZM130.563 8.64C132.824 8.64 133.995 9.25044 134.54 10.1168L136.233 9.05119C135.146 7.32555 133.102 6.64 130.563 6.64V8.64ZM134.547 10.1279C135.216 11.1597 135.647 13.2012 135.647 16.496H137.647C137.647 13.1668 137.237 10.6003 136.226 9.0401L134.547 10.1279ZM135.647 16.496V26H137.647V16.496H135.647ZM136.647 25H133.983V27H136.647V25ZM134.983 26V16.568H132.983V26H134.983ZM134.983 16.568C134.983 15.2907 134.918 14.1883 134.783 13.2717C134.649 12.3683 134.437 11.5793 134.102 10.9723L132.351 11.9397C132.52 12.2447 132.686 12.7637 132.804 13.5643C132.921 14.3517 132.983 15.3493 132.983 16.568H134.983ZM134.116 10.9997C133.384 9.57208 131.859 9.052 130.095 9.052V11.052C131.546 11.052 132.109 11.4679 132.337 11.9123L134.116 10.9997ZM130.095 9.052C129.222 9.052 128.316 9.18821 127.379 9.44848L127.914 11.3755C128.705 11.1558 129.431 11.052 130.095 11.052V9.052ZM127.398 9.44351C126.533 9.6658 125.815 9.90045 125.274 10.1563L126.131 11.9637C126.503 11.7875 127.08 11.5902 127.896 11.3805L127.398 9.44351ZM125.274 10.1563L124.59 10.4803L125.447 12.2877L126.131 11.9637L125.274 10.1563ZM124.019 11.384V26H126.019V11.384H124.019ZM155.479 0.151999H156.479V-0.848001H155.479V0.151999ZM155.479 26V27H156.479V26H155.479ZM152.814 26H151.814V27H152.814V26ZM152.814 24.776H153.814V23.0528L152.318 23.9078L152.814 24.776ZM142.807 24.704L142.099 25.4111L142.807 24.704ZM142.59 9.98L141.792 9.37803L141.79 9.38L142.59 9.98ZM152.814 8.108L152.618 9.08858L153.814 9.3278V8.108H152.814ZM152.814 0.151999V-0.848001H151.814V0.151999H152.814ZM144.895 22.76L145.659 22.1159L145.653 22.1086L145.647 22.1015L144.895 22.76ZM150.079 23.624L150.328 24.5925L150.337 24.5901L150.346 24.5875L150.079 23.624ZM152.094 22.94L152.505 23.8519L152.094 22.94ZM152.814 22.616L153.225 23.5279L153.814 23.2626V22.616H152.814ZM152.814 10.412H153.814V9.58207L152.999 9.42913L152.814 10.412ZM144.714 11.744L145.563 12.274L145.567 12.2662L144.714 11.744ZM154.479 0.151999V26H156.479V0.151999H154.479ZM155.479 25H152.814V27H155.479V25ZM153.814 26V24.776H151.814V26H153.814ZM152.318 23.9078C150.594 24.8932 148.939 25.36 147.342 25.36V27.36C149.346 27.36 151.339 26.7708 153.311 25.6442L152.318 23.9078ZM147.342 25.36C146.463 25.36 145.734 25.2497 145.139 25.0513L144.506 26.9487C145.351 27.2303 146.302 27.36 147.342 27.36V25.36ZM145.139 25.0513C144.588 24.8678 144.046 24.529 143.514 23.9969L142.099 25.4111C142.815 26.127 143.617 26.6522 144.506 26.9487L145.139 25.0513ZM143.514 23.9969C142.515 22.9983 141.863 20.967 141.863 17.54H139.863C139.863 21.073 140.506 23.8177 142.099 25.4111L143.514 23.9969ZM141.863 17.54C141.863 14.0964 142.438 11.8498 143.391 10.58L141.79 9.38C140.439 11.1822 139.863 13.9756 139.863 17.54H141.863ZM143.389 10.582C144.311 9.35876 145.886 8.64 148.387 8.64V6.64C145.511 6.64 143.222 7.48124 141.792 9.37804L143.389 10.582ZM148.387 8.64C149.704 8.64 151.114 8.7877 152.618 9.08858L153.011 7.12742C151.395 6.8043 149.853 6.64 148.387 6.64V8.64ZM153.814 8.108V0.151999H151.814V8.108H153.814ZM152.814 1.152H155.479V-0.848001H152.814V1.152ZM144.13 23.4041C144.591 23.9526 145.13 24.3843 145.756 24.628L146.481 22.764C146.243 22.6717 145.966 22.4794 145.659 22.1159L144.13 23.4041ZM145.756 24.628C146.343 24.8563 147.029 24.948 147.775 24.948V22.948C147.176 22.948 146.758 22.8717 146.481 22.764L145.756 24.628ZM147.775 24.948C148.572 24.948 149.425 24.8245 150.328 24.5925L149.829 22.6555C149.052 22.8555 148.369 22.948 147.775 22.948V24.948ZM150.346 24.5875C151.23 24.342 151.958 24.0982 152.505 23.8519L151.684 22.0281C151.271 22.2138 150.655 22.426 149.811 22.6605L150.346 24.5875ZM152.505 23.8519L153.225 23.5279L152.404 21.7041L151.684 22.0281L152.505 23.8519ZM153.814 22.616V10.412H151.814V22.616H153.814ZM152.999 9.42913C151.413 9.13175 149.922 8.98 148.531 8.98V10.98C149.779 10.98 151.144 11.1163 152.63 11.3949L152.999 9.42913ZM148.531 8.98C146.485 8.98 144.821 9.65483 143.862 11.2218L145.567 12.2662C146.048 11.4812 146.928 10.98 148.531 10.98V8.98ZM143.867 11.214C142.996 12.6074 142.635 14.6383 142.635 17.144H144.635C144.635 14.7537 144.993 13.1846 145.562 12.274L143.867 11.214ZM142.635 17.144C142.635 18.5798 142.742 19.8228 142.974 20.8549C143.203 21.8782 143.57 22.7653 144.142 23.4185L145.647 22.1015C145.379 21.7947 145.116 21.2658 144.925 20.4171C144.737 19.5772 144.635 18.4922 144.635 17.144H142.635Z" fill="black" mask="url(#path-1-outside-1_265_132)"/>
</svg>
