<svg width="107" height="26" viewBox="0 0 107 26" fill="none" xmlns="http://www.w3.org/2000/svg">
<path d="M10.392 2.4C10.616 2.144 10.864 2.016 11.136 2.016C11.408 2.016 11.64 2.152 11.832 2.424C12.104 3.816 12.24 5.376 12.24 7.104V8.928C12.24 10.304 12.216 11.12 12.168 11.376C12.12 11.616 12.072 11.888 12.024 12.192C11.976 12.496 11.928 12.728 11.88 12.888C11.848 13.048 11.792 13.264 11.712 13.536C11.536 14.128 11.288 14.656 10.968 15.12C10.488 16.016 9.856 16.72 9.072 17.232C8.288 17.744 7.488 18 6.672 18C5.872 18 5.04 17.648 4.176 16.944C3.328 16.24 2.632 15.36 2.088 14.304C1.256 12.672 0.84 10.792 0.84 8.664C0.84 7.912 0.952 6.128 1.176 3.312C1.288 3.056 1.456 2.832 1.68 2.64C1.92 2.432 2.16 2.328 2.4 2.328C2.752 2.328 2.968 2.568 3.048 3.048C2.824 5.816 2.712 7.568 2.712 8.304C2.712 10.064 3.056 11.624 3.744 12.984C4.176 13.88 4.704 14.632 5.328 15.24C5.968 15.832 6.592 16.128 7.2 16.128C8.208 16.128 9.072 15.344 9.792 13.776C10.096 13.232 10.264 12.36 10.296 11.16C10.296 10.84 10.312 10.616 10.344 10.488L10.392 7.32C10.392 5.848 10.28 4.504 10.056 3.288C10.056 2.952 10.168 2.656 10.392 2.4ZM17.8993 17.976C17.3553 17.976 16.8513 17.792 16.3873 17.424C16.3873 17.424 16.2833 17.336 16.0753 17.16V24.36C15.9793 24.68 15.8113 24.944 15.5713 25.152C15.3313 25.376 15.0753 25.488 14.8033 25.488C14.3873 25.488 14.1793 25.208 14.1793 24.648V7.92C14.2753 7.504 14.3873 7.208 14.5153 7.032C14.6593 6.856 14.8753 6.768 15.1633 6.768C15.4673 6.768 15.6593 6.84 15.7393 6.984C15.8353 7.112 15.9473 7.48 16.0753 8.088C16.1393 7.768 16.3953 7.472 16.8433 7.2C17.2913 6.928 17.8913 6.792 18.6433 6.792C20.2753 6.792 21.4353 7.384 22.1233 8.568C22.8113 9.752 23.1553 11.152 23.1553 12.768C23.1553 14.368 22.6833 15.64 21.7393 16.584C20.8113 17.512 19.5313 17.976 17.8993 17.976ZM16.0753 10.776V15.24C16.1713 15.288 16.2833 15.368 16.4113 15.48C16.8753 15.896 17.3793 16.104 17.9233 16.104C20.1313 16.104 21.2353 14.968 21.2353 12.696C21.2353 10.76 20.7393 9.536 19.7473 9.024C19.3313 8.8 18.8193 8.688 18.2113 8.688C17.6193 8.768 17.1153 9.032 16.6993 9.48C16.2833 9.912 16.0753 10.344 16.0753 10.776ZM30.1089 6.768L30.0849 2.136C30.0849 1.272 30.3569 0.839999 30.9009 0.839999C31.4609 0.839999 31.7729 1.08 31.8369 1.56C31.8689 1.768 31.9089 3.024 31.9569 5.328C32.0049 7.632 32.0769 9.792 32.1729 11.808C32.2849 13.824 32.3409 15.704 32.3409 17.448C32.3409 17.928 31.9809 18.168 31.2609 18.168C30.7809 18.168 30.5409 17.832 30.5409 17.16C29.8529 17.704 29.0369 17.976 28.0929 17.976C26.8929 17.976 25.9169 17.528 25.1649 16.632C24.4289 15.736 24.0609 14.632 24.0609 13.32C24.0609 12.008 24.3249 10.784 24.8529 9.648C25.3969 8.496 26.2369 7.672 27.3729 7.176C28.0769 6.872 28.7569 6.72 29.4129 6.72C29.6529 6.72 29.8849 6.736 30.1089 6.768ZM30.2289 10.056C30.1169 9.704 29.9809 9.44 29.8209 9.264C29.6609 9.072 29.4849 8.96 29.2929 8.928C29.1169 8.88 28.9009 8.856 28.6449 8.856C28.3889 8.856 28.0769 8.952 27.7089 9.144C27.3409 9.336 27.0289 9.648 26.7729 10.08C26.2609 10.944 26.0049 11.856 26.0049 12.816C26.0049 13.76 26.1889 14.536 26.5569 15.144C26.9409 15.736 27.4769 16.032 28.1649 16.032C28.8689 16.032 29.4209 15.688 29.8209 15C30.2209 14.312 30.4209 13.432 30.4209 12.36C30.4209 11.16 30.3569 10.392 30.2289 10.056ZM40.4205 6.792C41.1245 6.792 41.4765 7.392 41.4765 8.592C41.4765 8.72 41.4765 8.856 41.4765 9L41.4285 10.68C41.4125 11.208 41.4045 11.728 41.4045 12.24L41.7645 17.664C41.7645 18.064 41.3565 18.264 40.5405 18.264C40.4925 18.264 40.3725 18.264 40.1805 18.264C40.0045 18.264 39.8765 18.192 39.7965 18.048C39.7325 17.904 39.7245 17.728 39.7725 17.52C39.8365 17.312 39.8205 17.08 39.7245 16.824C38.9885 17.608 38.0125 18 36.7965 18C34.5405 18 33.4125 16.256 33.4125 12.768C33.4125 10.832 33.7725 9.368 34.4925 8.376C35.2285 7.384 36.2765 6.888 37.6365 6.888C38.2765 6.888 38.9165 7 39.5565 7.224C39.7645 6.936 40.0525 6.792 40.4205 6.792ZM37.9245 8.976C37.0125 8.976 36.3325 9.24 35.8845 9.768C35.4365 10.296 35.2125 11.264 35.2125 12.672C35.2125 15.04 35.8525 16.224 37.1325 16.224C37.4685 16.224 37.8365 16.072 38.2365 15.768C38.6525 15.464 38.9405 15.12 39.1005 14.736C39.4045 13.872 39.5565 12.928 39.5565 11.904C39.5565 10.88 39.4285 10.136 39.1725 9.672C38.9325 9.208 38.5165 8.976 37.9245 8.976ZM43.7229 6.792L44.9229 6.816C45.1949 6.816 45.3469 6.808 45.3789 6.792V1.872C45.3949 1.6 45.5309 1.368 45.7869 1.176C46.0429 0.983999 46.2829 0.887999 46.5069 0.887999C46.7309 0.887999 46.9069 0.959999 47.0349 1.104C47.1789 1.248 47.2429 1.472 47.2269 1.776C47.2109 2.08 47.2029 3.744 47.2029 6.768L50.0109 6.672C50.4909 6.672 50.7309 6.952 50.7309 7.512C50.7309 7.928 50.6029 8.24 50.3469 8.448C50.1069 8.656 49.8429 8.768 49.5549 8.784C49.2829 8.8 49.0109 8.808 48.7389 8.808L47.2749 8.784C47.2749 9.44 47.3389 10.736 47.4669 12.672C47.6109 14.608 47.7229 15.864 47.8029 16.44C47.8829 17 47.8989 17.368 47.8509 17.544C47.8029 17.704 47.7149 17.816 47.5869 17.88C47.3789 17.976 47.0989 18.024 46.7469 18.024C46.3949 18.024 46.1869 17.832 46.1229 17.448C45.8029 15.352 45.5869 12.472 45.4749 8.808C45.3309 8.824 44.7789 8.832 43.8189 8.832C42.8589 8.832 42.3789 8.552 42.3789 7.992C42.3789 7.192 42.8269 6.792 43.7229 6.792ZM54.8289 6.888C55.6769 6.888 56.4849 7.136 57.2529 7.632C58.0209 8.128 58.4049 8.744 58.4049 9.48C58.4049 10.2 58.0929 10.904 57.4689 11.592C56.8449 12.264 56.0129 12.672 54.9729 12.816C54.5249 12.88 53.8529 12.912 52.9569 12.912C53.1329 14.272 53.4769 15.168 53.9889 15.6C54.1489 15.776 54.3649 15.864 54.6369 15.864C55.6289 15.864 56.4609 15.552 57.1329 14.928C57.8049 14.288 58.2849 13.968 58.5729 13.968C58.7009 13.968 58.8929 14.088 59.1489 14.328C59.4049 14.568 59.5329 14.792 59.5329 15C59.5329 15.416 59.0289 16.016 58.0209 16.8C57.5729 17.168 57.0289 17.48 56.3889 17.736C55.7649 17.976 55.1809 18.096 54.6369 18.096C53.2449 18.096 52.2209 17.2 51.5649 15.408C51.1489 14.304 50.9409 13.088 50.9409 11.76C50.9409 10.432 51.2529 9.288 51.8769 8.328C52.5009 7.368 53.4849 6.888 54.8289 6.888ZM54.9489 8.544C54.3409 8.544 53.8209 8.888 53.3889 9.576C53.2289 9.816 53.0769 10.36 52.9329 11.208C55.1729 11.208 56.2929 10.656 56.2929 9.552C56.2929 8.88 55.8449 8.544 54.9489 8.544ZM75.9467 2.4C76.1707 2.144 76.4187 2.016 76.6907 2.016C76.9627 2.016 77.1947 2.152 77.3867 2.424C77.6587 3.816 77.7947 5.376 77.7947 7.104V8.928C77.7947 10.304 77.7707 11.12 77.7227 11.376C77.6747 11.616 77.6267 11.888 77.5787 12.192C77.5307 12.496 77.4827 12.728 77.4347 12.888C77.4027 13.048 77.3467 13.264 77.2667 13.536C77.0907 14.128 76.8427 14.656 76.5227 15.12C76.0427 16.016 75.4107 16.72 74.6267 17.232C73.8427 17.744 73.0427 18 72.2267 18C71.4267 18 70.5947 17.648 69.7307 16.944C68.8827 16.24 68.1867 15.36 67.6427 14.304C66.8107 12.672 66.3947 10.792 66.3947 8.664C66.3947 7.912 66.5067 6.128 66.7307 3.312C66.8427 3.056 67.0107 2.832 67.2347 2.64C67.4747 2.432 67.7147 2.328 67.9547 2.328C68.3067 2.328 68.5227 2.568 68.6027 3.048C68.3787 5.816 68.2667 7.568 68.2667 8.304C68.2667 10.064 68.6107 11.624 69.2987 12.984C69.7307 13.88 70.2587 14.632 70.8827 15.24C71.5227 15.832 72.1467 16.128 72.7547 16.128C73.7627 16.128 74.6267 15.344 75.3467 13.776C75.6507 13.232 75.8187 12.36 75.8507 11.16C75.8507 10.84 75.8667 10.616 75.8987 10.488L75.9467 7.32C75.9467 5.848 75.8347 4.504 75.6107 3.288C75.6107 2.952 75.7227 2.656 75.9467 2.4ZM80.07 9.84C80.07 8.896 80.406 8.144 81.078 7.584C81.75 7.024 82.526 6.744 83.406 6.744C84.302 6.744 85.158 6.904 85.974 7.224C86.79 7.544 87.198 7.968 87.198 8.496C87.198 8.768 87.094 8.984 86.886 9.144C86.678 9.304 86.494 9.384 86.334 9.384C86.19 9.384 86.07 9.384 85.974 9.384C85.894 9.368 85.574 9.216 85.014 8.928C84.47 8.64 83.966 8.496 83.502 8.496C83.038 8.496 82.638 8.616 82.302 8.856C81.982 9.08 81.822 9.416 81.822 9.864C81.822 10.312 82.006 10.664 82.374 10.92C82.758 11.176 83.422 11.4 84.366 11.592C85.31 11.768 86.03 12.024 86.526 12.36C87.038 12.696 87.294 13.32 87.294 14.232C87.294 15.56 86.942 16.504 86.238 17.064C85.55 17.608 84.71 17.88 83.718 17.88C82.726 17.88 81.878 17.744 81.174 17.472C80.486 17.2 80.142 16.792 80.142 16.248C80.142 15.624 80.454 15.312 81.078 15.312C81.238 15.312 81.59 15.424 82.134 15.648C82.678 15.872 83.214 15.984 83.742 15.984C84.286 15.984 84.694 15.816 84.966 15.48C85.254 15.128 85.398 14.728 85.398 14.28C85.398 13.832 85.214 13.512 84.846 13.32C84.478 13.112 83.918 12.944 83.166 12.816C82.414 12.688 81.862 12.552 81.51 12.408C80.55 12.024 80.07 11.168 80.07 9.84ZM92.3524 6.888C93.2004 6.888 94.0084 7.136 94.7764 7.632C95.5444 8.128 95.9284 8.744 95.9284 9.48C95.9284 10.2 95.6164 10.904 94.9924 11.592C94.3684 12.264 93.5364 12.672 92.4964 12.816C92.0484 12.88 91.3764 12.912 90.4804 12.912C90.6564 14.272 91.0004 15.168 91.5124 15.6C91.6724 15.776 91.8884 15.864 92.1604 15.864C93.1524 15.864 93.9844 15.552 94.6564 14.928C95.3284 14.288 95.8084 13.968 96.0964 13.968C96.2244 13.968 96.4164 14.088 96.6724 14.328C96.9284 14.568 97.0564 14.792 97.0564 15C97.0564 15.416 96.5524 16.016 95.5444 16.8C95.0964 17.168 94.5524 17.48 93.9124 17.736C93.2884 17.976 92.7044 18.096 92.1604 18.096C90.7684 18.096 89.7444 17.2 89.0884 15.408C88.6724 14.304 88.4644 13.088 88.4644 11.76C88.4644 10.432 88.7764 9.288 89.4004 8.328C90.0244 7.368 91.0084 6.888 92.3524 6.888ZM92.4724 8.544C91.8644 8.544 91.3444 8.888 90.9124 9.576C90.7524 9.816 90.6004 10.36 90.4564 11.208C92.6964 11.208 93.8164 10.656 93.8164 9.552C93.8164 8.88 93.3684 8.544 92.4724 8.544ZM101.555 14.496L101.579 16.968C101.579 17.256 101.443 17.52 101.171 17.76C100.915 18 100.659 18.12 100.403 18.12C100.035 18.12 99.8029 17.832 99.7069 17.256C99.6909 17.128 99.6269 15.96 99.5149 13.752C99.4029 11.528 99.1869 9.784 98.8669 8.52C98.7229 7.912 98.6509 7.552 98.6509 7.44C98.6509 6.912 98.9709 6.648 99.6109 6.648C99.8829 6.648 100.099 6.752 100.259 6.96C100.419 7.168 100.515 7.384 100.547 7.608C100.595 7.816 100.635 8.104 100.667 8.472C100.699 8.84 100.723 9.072 100.739 9.168C101.075 8.368 101.579 7.768 102.251 7.368C102.923 6.968 103.659 6.768 104.459 6.768C105.771 6.768 106.427 7.104 106.427 7.776C106.427 8.112 106.307 8.384 106.067 8.592C105.843 8.784 105.579 8.88 105.275 8.88C103.915 8.88 102.955 9.312 102.395 10.176C101.835 11.04 101.555 12.48 101.555 14.496Z" fill="black"/>
</svg>
