<svg width="84" height="26" viewBox="0 0 84 26" fill="none" xmlns="http://www.w3.org/2000/svg">
<mask id="path-1-outside-1_140_792" maskUnits="userSpaceOnUse" x="-1" y="-1" width="86" height="28" fill="black">
<rect fill="white" x="-1" y="-1" width="86" height="28"/>
<path d="M3.652 17.512C3.652 21.112 5.596 22.912 9.484 22.912C11.5 22.912 13.012 22.492 14.02 21.652C15.052 20.788 15.568 19.408 15.568 17.512V0.0879989H18.304V17.44C18.304 20.224 17.56 22.24 16.072 23.488C14.608 24.736 12.436 25.36 9.556 25.36C6.676 25.36 4.504 24.736 3.04 23.488C1.6 22.24 0.88 20.224 0.88 17.44V0.0879989H3.652V17.512ZM29.2362 9.052C26.6202 9.052 25.3122 9.964 25.3122 11.788C25.3122 12.628 25.6122 13.228 26.2122 13.588C26.8122 13.924 28.1802 14.284 30.3162 14.668C32.4522 15.028 33.9642 15.544 34.8522 16.216C35.7402 16.888 36.1842 18.148 36.1842 19.996C36.1842 21.844 35.5842 23.2 34.3842 24.064C33.2082 24.928 31.4802 25.36 29.2002 25.36C27.7122 25.36 25.9602 25.192 23.9442 24.856L22.8642 24.676L23.0082 22.336C25.7442 22.744 27.8082 22.948 29.2002 22.948C30.5922 22.948 31.6482 22.732 32.3682 22.3C33.1122 21.844 33.4842 21.1 33.4842 20.068C33.4842 19.012 33.1722 18.304 32.5482 17.944C31.9242 17.56 30.5562 17.2 28.4442 16.864C26.3322 16.528 24.8322 16.036 23.9442 15.388C23.0562 14.74 22.6122 13.54 22.6122 11.788C22.6122 10.036 23.2242 8.74 24.4482 7.9C25.6962 7.06 27.2442 6.64 29.0922 6.64C30.5562 6.64 32.3922 6.808 34.6002 7.144L35.6082 7.324L35.5362 9.628C32.8722 9.244 30.7722 9.052 29.2362 9.052ZM52.5586 22.768L53.6026 22.66L53.6746 24.784C50.9386 25.168 48.5986 25.36 46.6546 25.36C44.0626 25.36 42.2266 24.616 41.1466 23.128C40.0666 21.616 39.5266 19.276 39.5266 16.108C39.5266 9.796 42.0346 6.64 47.0506 6.64C49.4746 6.64 51.2866 7.324 52.4866 8.692C53.6866 10.036 54.2866 12.16 54.2866 15.064L54.1426 17.116H42.2626C42.2626 19.108 42.6226 20.584 43.3426 21.544C44.0626 22.504 45.3106 22.984 47.0866 22.984C48.8866 22.984 50.7106 22.912 52.5586 22.768ZM51.5866 14.956C51.5866 12.748 51.2266 11.188 50.5066 10.276C49.8106 9.364 48.6586 8.908 47.0506 8.908C45.4666 8.908 44.2666 9.388 43.4506 10.348C42.6586 11.308 42.2506 12.844 42.2266 14.956H51.5866ZM58.4943 25V7H61.1583V9.448C63.2463 8.008 65.4423 7.06 67.7463 6.604V9.34C66.7383 9.532 65.6823 9.832 64.5783 10.24C63.4983 10.648 62.6703 11.008 62.0943 11.32L61.1943 11.788V25H58.4943ZM76.5917 9.052C73.9757 9.052 72.6677 9.964 72.6677 11.788C72.6677 12.628 72.9677 13.228 73.5677 13.588C74.1677 13.924 75.5357 14.284 77.6717 14.668C79.8077 15.028 81.3197 15.544 82.2077 16.216C83.0957 16.888 83.5397 18.148 83.5397 19.996C83.5397 21.844 82.9397 23.2 81.7397 24.064C80.5637 24.928 78.8357 25.36 76.5557 25.36C75.0677 25.36 73.3157 25.192 71.2997 24.856L70.2197 24.676L70.3637 22.336C73.0997 22.744 75.1637 22.948 76.5557 22.948C77.9477 22.948 79.0037 22.732 79.7237 22.3C80.4677 21.844 80.8397 21.1 80.8397 20.068C80.8397 19.012 80.5277 18.304 79.9037 17.944C79.2797 17.56 77.9117 17.2 75.7997 16.864C73.6877 16.528 72.1877 16.036 71.2997 15.388C70.4117 14.74 69.9677 13.54 69.9677 11.788C69.9677 10.036 70.5797 8.74 71.8037 7.9C73.0517 7.06 74.5997 6.64 76.4477 6.64C77.9117 6.64 79.7477 6.808 81.9557 7.144L82.9637 7.324L82.8917 9.628C80.2277 9.244 78.1277 9.052 76.5917 9.052Z"/>
</mask>
<path d="M3.652 17.512C3.652 21.112 5.596 22.912 9.484 22.912C11.5 22.912 13.012 22.492 14.02 21.652C15.052 20.788 15.568 19.408 15.568 17.512V0.0879989H18.304V17.44C18.304 20.224 17.56 22.24 16.072 23.488C14.608 24.736 12.436 25.36 9.556 25.36C6.676 25.36 4.504 24.736 3.04 23.488C1.6 22.24 0.88 20.224 0.88 17.44V0.0879989H3.652V17.512ZM29.2362 9.052C26.6202 9.052 25.3122 9.964 25.3122 11.788C25.3122 12.628 25.6122 13.228 26.2122 13.588C26.8122 13.924 28.1802 14.284 30.3162 14.668C32.4522 15.028 33.9642 15.544 34.8522 16.216C35.7402 16.888 36.1842 18.148 36.1842 19.996C36.1842 21.844 35.5842 23.2 34.3842 24.064C33.2082 24.928 31.4802 25.36 29.2002 25.36C27.7122 25.36 25.9602 25.192 23.9442 24.856L22.8642 24.676L23.0082 22.336C25.7442 22.744 27.8082 22.948 29.2002 22.948C30.5922 22.948 31.6482 22.732 32.3682 22.3C33.1122 21.844 33.4842 21.1 33.4842 20.068C33.4842 19.012 33.1722 18.304 32.5482 17.944C31.9242 17.56 30.5562 17.2 28.4442 16.864C26.3322 16.528 24.8322 16.036 23.9442 15.388C23.0562 14.74 22.6122 13.54 22.6122 11.788C22.6122 10.036 23.2242 8.74 24.4482 7.9C25.6962 7.06 27.2442 6.64 29.0922 6.64C30.5562 6.64 32.3922 6.808 34.6002 7.144L35.6082 7.324L35.5362 9.628C32.8722 9.244 30.7722 9.052 29.2362 9.052ZM52.5586 22.768L53.6026 22.66L53.6746 24.784C50.9386 25.168 48.5986 25.36 46.6546 25.36C44.0626 25.36 42.2266 24.616 41.1466 23.128C40.0666 21.616 39.5266 19.276 39.5266 16.108C39.5266 9.796 42.0346 6.64 47.0506 6.64C49.4746 6.64 51.2866 7.324 52.4866 8.692C53.6866 10.036 54.2866 12.16 54.2866 15.064L54.1426 17.116H42.2626C42.2626 19.108 42.6226 20.584 43.3426 21.544C44.0626 22.504 45.3106 22.984 47.0866 22.984C48.8866 22.984 50.7106 22.912 52.5586 22.768ZM51.5866 14.956C51.5866 12.748 51.2266 11.188 50.5066 10.276C49.8106 9.364 48.6586 8.908 47.0506 8.908C45.4666 8.908 44.2666 9.388 43.4506 10.348C42.6586 11.308 42.2506 12.844 42.2266 14.956H51.5866ZM58.4943 25V7H61.1583V9.448C63.2463 8.008 65.4423 7.06 67.7463 6.604V9.34C66.7383 9.532 65.6823 9.832 64.5783 10.24C63.4983 10.648 62.6703 11.008 62.0943 11.32L61.1943 11.788V25H58.4943ZM76.5917 9.052C73.9757 9.052 72.6677 9.964 72.6677 11.788C72.6677 12.628 72.9677 13.228 73.5677 13.588C74.1677 13.924 75.5357 14.284 77.6717 14.668C79.8077 15.028 81.3197 15.544 82.2077 16.216C83.0957 16.888 83.5397 18.148 83.5397 19.996C83.5397 21.844 82.9397 23.2 81.7397 24.064C80.5637 24.928 78.8357 25.36 76.5557 25.36C75.0677 25.36 73.3157 25.192 71.2997 24.856L70.2197 24.676L70.3637 22.336C73.0997 22.744 75.1637 22.948 76.5557 22.948C77.9477 22.948 79.0037 22.732 79.7237 22.3C80.4677 21.844 80.8397 21.1 80.8397 20.068C80.8397 19.012 80.5277 18.304 79.9037 17.944C79.2797 17.56 77.9117 17.2 75.7997 16.864C73.6877 16.528 72.1877 16.036 71.2997 15.388C70.4117 14.74 69.9677 13.54 69.9677 11.788C69.9677 10.036 70.5797 8.74 71.8037 7.9C73.0517 7.06 74.5997 6.64 76.4477 6.64C77.9117 6.64 79.7477 6.808 81.9557 7.144L82.9637 7.324L82.8917 9.628C80.2277 9.244 78.1277 9.052 76.5917 9.052Z" fill="#666666"/>
<path d="M14.02 21.652L14.6602 22.4202L14.6619 22.4188L14.02 21.652ZM15.568 0.0879989V-0.912001H14.568V0.0879989H15.568ZM18.304 0.0879989H19.304V-0.912001H18.304V0.0879989ZM16.072 23.488L15.4294 22.7218L15.4233 22.727L16.072 23.488ZM3.04 23.488L2.38505 24.2437L2.39127 24.249L3.04 23.488ZM0.88 0.0879989V-0.912001H-0.12V0.0879989H0.88ZM3.652 0.0879989H4.652V-0.912001H3.652V0.0879989ZM2.652 17.512C2.652 19.4867 3.18877 21.1459 4.43059 22.2958C5.65788 23.4321 7.40415 23.912 9.484 23.912V21.912C7.67585 21.912 6.50612 21.4919 5.78941 20.8282C5.08723 20.1781 4.652 19.1373 4.652 17.512H2.652ZM9.484 23.912C11.6142 23.912 13.3981 23.472 14.6602 22.4202L13.3798 20.8838C12.6259 21.512 11.3858 21.912 9.484 21.912V23.912ZM14.6619 22.4188C16.0025 21.2965 16.568 19.5779 16.568 17.512H14.568C14.568 19.2381 14.1015 20.2795 13.3781 20.8852L14.6619 22.4188ZM16.568 17.512V0.0879989H14.568V17.512H16.568ZM15.568 1.088H18.304V-0.912001H15.568V1.088ZM17.304 0.0879989V17.44H19.304V0.0879989H17.304ZM17.304 17.44C17.304 20.061 16.6058 21.7351 15.4294 22.7218L16.7146 24.2542C18.5142 22.7449 19.304 20.387 19.304 17.44H17.304ZM15.4233 22.727C14.2114 23.76 12.3125 24.36 9.556 24.36V26.36C12.5595 26.36 15.0046 25.712 16.7207 24.249L15.4233 22.727ZM9.556 24.36C6.79953 24.36 4.90056 23.76 3.68873 22.727L2.39127 24.249C4.10745 25.712 6.55247 26.36 9.556 26.36V24.36ZM3.69493 22.7323C2.55967 21.7484 1.88 20.0706 1.88 17.44H-0.12C-0.12 20.3774 0.640332 22.7316 2.38507 24.2437L3.69493 22.7323ZM1.88 17.44V0.0879989H-0.12V17.44H1.88ZM0.88 1.088H3.652V-0.912001H0.88V1.088ZM2.652 0.0879989V17.512H4.652V0.0879989H2.652ZM26.2122 13.588L25.6977 14.4455L25.7105 14.4532L25.7236 14.4605L26.2122 13.588ZM30.3162 14.668L30.1392 15.6523L30.15 15.6541L30.3162 14.668ZM34.8522 16.216L35.4556 15.4186L35.4556 15.4186L34.8522 16.216ZM34.3842 24.064L33.7999 23.2524L33.7921 23.2581L34.3842 24.064ZM23.9442 24.856L23.7798 25.8424L23.9442 24.856ZM22.8642 24.676L21.8661 24.6146L21.8107 25.5142L22.6998 25.6624L22.8642 24.676ZM23.0082 22.336L23.1557 21.3469L22.0771 21.1861L22.0101 22.2746L23.0082 22.336ZM32.3682 22.3L32.8827 23.1575L32.8908 23.1526L32.3682 22.3ZM32.5482 17.944L32.0241 18.7957L32.0362 18.8031L32.0485 18.8102L32.5482 17.944ZM28.4442 16.864L28.6013 15.8764L28.6013 15.8764L28.4442 16.864ZM23.9442 15.388L24.5337 14.5802L24.5337 14.5802L23.9442 15.388ZM24.4482 7.9L23.8898 7.07038L23.8823 7.07549L24.4482 7.9ZM34.6002 7.144L34.776 6.15957L34.7633 6.15731L34.7506 6.15538L34.6002 7.144ZM35.6082 7.324L36.6077 7.35523L36.6347 6.49148L35.784 6.33957L35.6082 7.324ZM35.5362 9.628L35.3935 10.6178L36.5008 10.7774L36.5357 9.65923L35.5362 9.628ZM29.2362 8.052C27.8427 8.052 26.6196 8.28933 25.7212 8.91571C24.7573 9.58781 24.3122 10.6034 24.3122 11.788H26.3122C26.3122 11.1486 26.5211 10.7962 26.8651 10.5563C27.2748 10.2707 28.0136 10.052 29.2362 10.052V8.052ZM24.3122 11.788C24.3122 12.8967 24.7319 13.866 25.6977 14.4455L26.7267 12.7305C26.4925 12.59 26.3122 12.3593 26.3122 11.788H24.3122ZM25.7236 14.4605C26.14 14.6937 26.735 14.8932 27.4337 15.0771C28.153 15.2664 29.0573 15.4577 30.1392 15.6522L30.4931 13.6838C29.439 13.4943 28.5914 13.3136 27.9427 13.1429C27.2734 12.9668 26.8844 12.8183 26.7008 12.7155L25.7236 14.4605ZM30.15 15.6541C32.2504 16.0081 33.5613 16.4932 34.2487 17.0134L35.4556 15.4186C34.3671 14.5948 32.654 14.0479 30.4824 13.6819L30.15 15.6541ZM34.2487 17.0134C34.7596 17.4 35.1842 18.2565 35.1842 19.996H37.1842C37.1842 18.0395 36.7208 16.376 35.4556 15.4186L34.2487 17.0134ZM35.1842 19.996C35.1842 21.6122 34.6737 22.6233 33.7999 23.2525L34.9685 24.8755C36.4947 23.7767 37.1842 22.0758 37.1842 19.996H35.1842ZM33.7921 23.2581C32.86 23.9429 31.3789 24.36 29.2002 24.36V26.36C31.5814 26.36 33.5563 25.9131 34.9763 24.8699L33.7921 23.2581ZM29.2002 24.36C27.7833 24.36 26.0888 24.1996 24.1086 23.8696L23.7798 25.8424C25.8316 26.1844 27.6411 26.36 29.2002 26.36V24.36ZM24.1086 23.8696L23.0286 23.6896L22.6998 25.6624L23.7798 25.8424L24.1086 23.8696ZM23.8623 24.7374L24.0063 22.3974L22.0101 22.2746L21.8661 24.6146L23.8623 24.7374ZM22.8607 23.3251C25.6078 23.7347 27.7315 23.948 29.2002 23.948V21.948C27.8849 21.948 25.8806 21.7533 23.1557 21.3469L22.8607 23.3251ZM29.2002 23.948C30.6671 23.948 31.9362 23.7254 32.8827 23.1575L31.8537 21.4425C31.3602 21.7386 30.5173 21.948 29.2002 21.948V23.948ZM32.8908 23.1526C33.9898 22.479 34.4842 21.3734 34.4842 20.068H32.4842C32.4842 20.8266 32.2346 21.209 31.8456 21.4474L32.8908 23.1526ZM34.4842 20.068C34.4842 18.8374 34.1125 17.692 33.0479 17.0778L32.0485 18.8102C32.2319 18.916 32.4842 19.1866 32.4842 20.068H34.4842ZM33.0723 17.0923C32.6312 16.8209 32.0167 16.6052 31.3087 16.4189C30.5808 16.2274 29.6753 16.0473 28.6013 15.8764L28.2871 17.8516C29.325 18.0167 30.1596 18.1846 30.7997 18.3531C31.4597 18.5268 31.8412 18.6831 32.0241 18.7957L33.0723 17.0923ZM28.6013 15.8764C26.5245 15.546 25.2221 15.0826 24.5337 14.5802L23.3547 16.1958C24.4423 16.9894 26.1399 17.51 28.2871 17.8516L28.6013 15.8764ZM24.5337 14.5802C24.0273 14.2107 23.6122 13.4132 23.6122 11.788H21.6122C21.6122 13.6668 22.085 15.2693 23.3547 16.1958L24.5337 14.5802ZM23.6122 11.788C23.6122 10.2974 24.1136 9.34248 25.014 8.72451L23.8823 7.07549C22.3348 8.13752 21.6122 9.77463 21.6122 11.788H23.6122ZM25.0066 8.72959C26.0552 8.02376 27.3973 7.64 29.0922 7.64V5.64C27.0911 5.64 25.3372 6.09624 23.8898 7.07041L25.0066 8.72959ZM29.0922 7.64C30.487 7.64 32.2686 7.8007 34.4497 8.13262L34.7506 6.15538C32.5158 5.8153 30.6254 5.64 29.0922 5.64V7.64ZM34.4244 8.12843L35.4324 8.30843L35.784 6.33957L34.776 6.15957L34.4244 8.12843ZM34.6087 7.29276L34.5367 9.59676L36.5357 9.65923L36.6077 7.35523L34.6087 7.29276ZM35.6789 8.63823C32.9971 8.25167 30.8425 8.052 29.2362 8.052V10.052C30.7018 10.052 32.7473 10.2363 35.3935 10.6178L35.6789 8.63823ZM52.5586 22.768L52.6363 23.765L52.6489 23.764L52.6615 23.7627L52.5586 22.768ZM53.6026 22.66L54.602 22.6261L54.5657 21.555L53.4997 21.6653L53.6026 22.66ZM53.6746 24.784L53.8136 25.7743L54.7045 25.6493L54.674 24.7501L53.6746 24.784ZM41.1466 23.128L40.3328 23.7093L40.3373 23.7154L41.1466 23.128ZM52.4866 8.692L51.7348 9.35146L51.7406 9.35802L52.4866 8.692ZM54.2866 15.064L55.2841 15.134L55.2866 15.099V15.064H54.2866ZM54.1426 17.116V18.116H55.0748L55.1401 17.186L54.1426 17.116ZM42.2626 17.116V16.116H41.2626V17.116H42.2626ZM43.3426 21.544L42.5426 22.144L42.5426 22.144L43.3426 21.544ZM51.5866 14.956V15.956H52.5866V14.956H51.5866ZM50.5066 10.276L49.7116 10.8827L49.7166 10.8892L49.7217 10.8956L50.5066 10.276ZM43.4506 10.348L42.6886 9.70035L42.6839 9.70595L42.6792 9.71162L43.4506 10.348ZM42.2266 14.956L41.2266 14.9446L41.2151 15.956H42.2266V14.956ZM52.6615 23.7627L53.7055 23.6547L53.4997 21.6653L52.4557 21.7733L52.6615 23.7627ZM52.6031 22.6939L52.6751 24.8179L54.674 24.7501L54.602 22.6261L52.6031 22.6939ZM53.5356 23.7937C50.8281 24.1737 48.5372 24.36 46.6546 24.36V26.36C48.6599 26.36 51.049 26.1623 53.8136 25.7743L53.5356 23.7937ZM46.6546 24.36C44.2426 24.36 42.7783 23.6737 41.9559 22.5406L40.3373 23.7154C41.6749 25.5583 43.8825 26.36 46.6546 26.36V24.36ZM41.9603 22.5468C41.0604 21.2869 40.5266 19.1993 40.5266 16.108H38.5266C38.5266 19.3527 39.0728 21.9451 40.3328 23.7092L41.9603 22.5468ZM40.5266 16.108C40.5266 13.0577 41.137 10.9548 42.1905 9.62915C43.2091 8.34738 44.7656 7.64 47.0506 7.64V5.64C44.3195 5.64 42.1141 6.51062 40.6247 8.38485C39.1701 10.2152 38.5266 12.8463 38.5266 16.108H40.5266ZM47.0506 7.64C49.2876 7.64 50.7824 8.26569 51.7348 9.35144L53.2383 8.03256C51.7907 6.38231 49.6616 5.64 47.0506 5.64V7.64ZM51.7406 9.35802C52.7023 10.4351 53.2866 12.2638 53.2866 15.064H55.2866C55.2866 12.0562 54.6708 9.63691 53.2325 8.02598L51.7406 9.35802ZM53.289 14.994L53.145 17.046L55.1401 17.186L55.2841 15.134L53.289 14.994ZM54.1426 16.116H42.2626V18.116H54.1426V16.116ZM41.2626 17.116C41.2626 19.1942 41.6318 20.9297 42.5426 22.144L44.1426 20.944C43.6133 20.2383 43.2626 19.0218 43.2626 17.116H41.2626ZM42.5426 22.144C43.5293 23.4596 45.1533 23.984 47.0866 23.984V21.984C45.4679 21.984 44.5959 21.5484 44.1426 20.944L42.5426 22.144ZM47.0866 23.984C48.9132 23.984 50.7632 23.9109 52.6363 23.765L52.4809 21.771C50.658 21.9131 48.8599 21.984 47.0866 21.984V23.984ZM52.5866 14.956C52.5866 12.6978 52.23 10.8452 51.2914 9.65636L49.7217 10.8956C50.2231 11.5308 50.5866 12.7982 50.5866 14.956H52.5866ZM51.3015 9.66933C50.3481 8.42007 48.8375 7.908 47.0506 7.908V9.908C48.4797 9.908 49.273 10.3079 49.7116 10.8827L51.3015 9.66933ZM47.0506 7.908C45.2549 7.908 43.7418 8.46128 42.6886 9.70035L44.2125 10.9956C44.7913 10.3147 45.6782 9.908 47.0506 9.908V7.908ZM42.6792 9.71162C41.6707 10.934 41.2516 12.7493 41.2266 14.9446L43.2265 14.9674C43.2496 12.9387 43.6464 11.682 44.2219 10.9844L42.6792 9.71162ZM42.2266 15.956H51.5866V13.956H42.2266V15.956ZM58.4943 25H57.4943V26H58.4943V25ZM58.4943 7V6H57.4943V7H58.4943ZM61.1583 7H62.1583V6H61.1583V7ZM61.1583 9.448H60.1583V11.3524L61.7261 10.2712L61.1583 9.448ZM67.7463 6.604H68.7463V5.38668L67.5522 5.62303L67.7463 6.604ZM67.7463 9.34L67.9335 10.3223L68.7463 10.1675V9.34H67.7463ZM64.5783 10.24L64.2317 9.30198L64.2249 9.30453L64.5783 10.24ZM62.0943 11.32L62.5557 12.2072L62.5632 12.2033L62.5706 12.1993L62.0943 11.32ZM61.1943 11.788L60.733 10.9008L60.1943 11.1809V11.788H61.1943ZM61.1943 25V26H62.1943V25H61.1943ZM59.4943 25V7H57.4943V25H59.4943ZM58.4943 8H61.1583V6H58.4943V8ZM60.1583 7V9.448H62.1583V7H60.1583ZM61.7261 10.2712C63.7107 8.90249 65.7809 8.01239 67.9405 7.58497L67.5522 5.62303C65.1038 6.10761 62.782 7.11351 60.5906 8.62479L61.7261 10.2712ZM66.7463 6.604V9.34H68.7463V6.604H66.7463ZM67.5592 8.35766C66.4897 8.56138 65.3802 8.87757 64.2317 9.302L64.925 11.178C65.9845 10.7864 66.987 10.5026 67.9335 10.3223L67.5592 8.35766ZM64.2249 9.30453C63.1293 9.71842 62.2526 10.097 61.6181 10.4407L62.5706 12.1993C63.0881 11.919 63.8673 11.5776 64.9317 11.1755L64.2249 9.30453ZM61.633 10.4328L60.733 10.9008L61.6557 12.6752L62.5557 12.2072L61.633 10.4328ZM60.1943 11.788V25H62.1943V11.788H60.1943ZM61.1943 24H58.4943V26H61.1943V24ZM73.5677 13.588L73.0532 14.4455L73.066 14.4532L73.0791 14.4605L73.5677 13.588ZM77.6717 14.668L77.4947 15.6523L77.5055 15.6541L77.6717 14.668ZM82.2077 16.216L82.8111 15.4186L82.8111 15.4186L82.2077 16.216ZM81.7397 24.064L81.1553 23.2524L81.1476 23.2581L81.7397 24.064ZM71.2997 24.856L71.1353 25.8424L71.2997 24.856ZM70.2197 24.676L69.2215 24.6146L69.1662 25.5142L70.0553 25.6624L70.2197 24.676ZM70.3637 22.336L70.5111 21.3469L69.4325 21.1861L69.3655 22.2746L70.3637 22.336ZM79.7237 22.3L80.2382 23.1575L80.2462 23.1526L79.7237 22.3ZM79.9037 17.944L79.3796 18.7957L79.3916 18.8031L79.4039 18.8102L79.9037 17.944ZM75.7997 16.864L75.9568 15.8764L75.9568 15.8764L75.7997 16.864ZM71.2997 15.388L71.8891 14.5802L71.8891 14.5802L71.2997 15.388ZM71.8037 7.9L71.2453 7.07038L71.2378 7.07549L71.8037 7.9ZM81.9557 7.144L82.1314 6.15957L82.1188 6.15731L82.1061 6.15538L81.9557 7.144ZM82.9637 7.324L83.9632 7.35523L83.9902 6.49148L83.1394 6.33957L82.9637 7.324ZM82.8917 9.628L82.749 10.6178L83.8562 10.7774L83.8912 9.65923L82.8917 9.628ZM76.5917 8.052C75.1982 8.052 73.9751 8.28933 73.0767 8.91571C72.1128 9.58781 71.6677 10.6034 71.6677 11.788H73.6677C73.6677 11.1486 73.8765 10.7962 74.2206 10.5563C74.6302 10.2707 75.3691 10.052 76.5917 10.052V8.052ZM71.6677 11.788C71.6677 12.8967 72.0873 13.866 73.0532 14.4455L74.0822 12.7305C73.848 12.59 73.6677 12.3593 73.6677 11.788H71.6677ZM73.0791 14.4605C73.4954 14.6937 74.0905 14.8932 74.7892 15.0771C75.5084 15.2664 76.4128 15.4577 77.4947 15.6522L77.8486 13.6838C76.7945 13.4943 75.9469 13.3136 75.2981 13.1429C74.6289 12.9668 74.2399 12.8183 74.0563 12.7155L73.0791 14.4605ZM77.5055 15.6541C79.6058 16.0081 80.9167 16.4932 81.6042 17.0134L82.8111 15.4186C81.7226 14.5948 80.0095 14.0479 77.8379 13.6819L77.5055 15.6541ZM81.6042 17.0134C82.1151 17.4 82.5397 18.2565 82.5397 19.996H84.5397C84.5397 18.0395 84.0763 16.376 82.8111 15.4186L81.6042 17.0134ZM82.5397 19.996C82.5397 21.6122 82.0292 22.6233 81.1554 23.2525L82.324 24.8755C83.8502 23.7767 84.5397 22.0758 84.5397 19.996H82.5397ZM81.1476 23.2581C80.2155 23.9429 78.7344 24.36 76.5557 24.36V26.36C78.9369 26.36 80.9118 25.9131 82.3317 24.8699L81.1476 23.2581ZM76.5557 24.36C75.1388 24.36 73.4443 24.1996 71.4641 23.8696L71.1353 25.8424C73.187 26.1844 74.9965 26.36 76.5557 26.36V24.36ZM71.4641 23.8696L70.3841 23.6896L70.0553 25.6624L71.1353 25.8424L71.4641 23.8696ZM71.2178 24.7374L71.3618 22.3974L69.3655 22.2746L69.2215 24.6146L71.2178 24.7374ZM70.2162 23.3251C72.9632 23.7347 75.0869 23.948 76.5557 23.948V21.948C75.2404 21.948 73.2361 21.7533 70.5111 21.3469L70.2162 23.3251ZM76.5557 23.948C78.0226 23.948 79.2916 23.7254 80.2382 23.1575L79.2092 21.4425C78.7157 21.7386 77.8727 21.948 76.5557 21.948V23.948ZM80.2462 23.1526C81.3453 22.479 81.8397 21.3734 81.8397 20.068H79.8397C79.8397 20.8266 79.59 21.209 79.2011 21.4474L80.2462 23.1526ZM81.8397 20.068C81.8397 18.8374 81.468 17.692 80.4034 17.0778L79.4039 18.8102C79.5873 18.916 79.8397 19.1866 79.8397 20.068H81.8397ZM80.4278 17.0923C79.9866 16.8209 79.3722 16.6052 78.6642 16.4189C77.9363 16.2274 77.0308 16.0473 75.9568 15.8764L75.6425 17.8516C76.6805 18.0167 77.515 18.1846 78.1552 18.3531C78.8151 18.5268 79.1967 18.6831 79.3796 18.7957L80.4278 17.0923ZM75.9568 15.8764C73.88 15.546 72.5776 15.0826 71.8891 14.5802L70.7102 16.1958C71.7977 16.9894 73.4953 17.51 75.6425 17.8516L75.9568 15.8764ZM71.8891 14.5802C71.3828 14.2107 70.9677 13.4132 70.9677 11.788H68.9677C68.9677 13.6668 69.4405 15.2693 70.7102 16.1958L71.8891 14.5802ZM70.9677 11.788C70.9677 10.2974 71.469 9.34248 72.3695 8.72451L71.2378 7.07549C69.6903 8.13752 68.9677 9.77463 68.9677 11.788H70.9677ZM72.362 8.72959C73.4107 8.02376 74.7528 7.64 76.4477 7.64V5.64C74.4465 5.64 72.6926 6.09624 71.2453 7.07041L72.362 8.72959ZM76.4477 7.64C77.8424 7.64 79.624 7.8007 81.8052 8.13262L82.1061 6.15538C79.8713 5.8153 77.9809 5.64 76.4477 5.64V7.64ZM81.7799 8.12843L82.7879 8.30843L83.1394 6.33957L82.1314 6.15957L81.7799 8.12843ZM81.9641 7.29276L81.8921 9.59676L83.8912 9.65923L83.9632 7.35523L81.9641 7.29276ZM83.0343 8.63823C80.3525 8.25167 78.198 8.052 76.5917 8.052V10.052C78.0573 10.052 80.1028 10.2363 82.749 10.6178L83.0343 8.63823Z" fill="black" mask="url(#path-1-outside-1_140_792)"/>
</svg>
