<svg width="38" height="38" viewBox="0 0 38 38" fill="none" xmlns="http://www.w3.org/2000/svg">
<path d="M35.1925 18.9965C35.2315 22.1608 34.3313 25.2656 32.6058 27.9182C30.8803 30.5709 28.4069 32.6523 25.4984 33.8993C22.59 35.1462 19.3771 35.5027 16.266 34.9237C13.1549 34.3446 10.2854 32.856 8.02036 30.6461C5.7553 28.4363 4.19642 25.6043 3.54084 22.5085C2.88525 19.4126 3.16242 16.1919 4.33729 13.2536C5.51215 10.3153 7.53195 7.7913 10.1413 6.00089C12.7506 4.21048 15.8322 3.23403 18.9965 3.19502C23.2396 3.1427 27.3297 4.77811 30.3671 7.74147C33.4044 10.7048 35.1402 14.7534 35.1925 18.9965ZM19.5251 11.1891C19.267 11.4595 19.125 11.8203 19.1296 12.1941C19.1342 12.5679 19.285 12.925 19.5497 13.189L24.1761 17.7323L10.0372 17.9066C9.66588 17.9112 9.31163 18.063 9.05234 18.3288C8.79305 18.5946 8.64995 18.9525 8.65452 19.3237C8.6591 19.695 8.81098 20.0493 9.07675 20.3086C9.34252 20.5679 9.70041 20.711 10.0717 20.7064L24.0706 20.5338L19.6956 25.0181C19.4336 25.2865 19.2891 25.648 19.2937 26.0231C19.2983 26.3981 19.4518 26.756 19.7202 27.0179C19.9887 27.2798 20.3502 27.4244 20.7253 27.4198C21.1003 27.4151 21.4581 27.2617 21.7201 26.9932L29.492 18.9868L21.5049 11.1647C21.3733 11.0363 21.2177 10.9351 21.047 10.8668C20.8763 10.7985 20.6938 10.7646 20.5099 10.7668C20.3261 10.7691 20.1445 10.8076 19.9755 10.88C19.8065 10.9525 19.6535 11.0575 19.5251 11.1891Z" fill="black"/>
</svg>
