<svg width="38" height="38" viewBox="0 0 38 38" fill="none" xmlns="http://www.w3.org/2000/svg">
<path d="M3.00109 18.8267C3.03535 15.6624 4.00717 12.5793 5.79366 9.96733C7.58014 7.35533 10.1011 5.33175 13.0376 4.15247C15.9742 2.97319 19.1945 2.69119 22.2913 3.34212C25.3881 3.99305 28.2224 5.54768 30.4357 7.80941C32.649 10.0711 34.1419 12.9384 34.7256 16.0486C35.3093 19.1588 34.9576 22.3723 33.7151 25.2826C32.4725 28.1929 30.3948 30.6694 27.7447 32.3989C25.0946 34.1285 21.9912 35.0333 18.8269 34.999C14.5837 34.9531 10.5325 33.2234 7.56461 30.1905C4.59669 27.1576 2.95514 23.07 3.00109 18.8267ZM18.4836 26.9948C18.7478 26.7305 18.8981 26.3731 18.9022 25.9993C18.9062 25.6255 18.7637 25.265 18.5052 24.995L13.9853 20.3458L28.1245 20.4988C28.4957 20.5029 28.8534 20.3592 29.1188 20.0995C29.3842 19.8398 29.5355 19.4854 29.5395 19.1141C29.5436 18.7428 29.3999 18.3851 29.1402 18.1198C28.8805 17.8544 28.5261 17.703 28.1548 17.699L14.1556 17.5474L18.6333 13.1657C18.9014 12.9033 19.0542 12.5452 19.0583 12.1702C19.0624 11.7951 18.9173 11.4338 18.6549 11.1658C18.3926 10.8977 18.0345 10.7448 17.6595 10.7408C17.2844 10.7367 16.9231 10.8818 16.6551 11.1441L8.69989 18.9684L16.5037 26.9734C16.6323 27.1048 16.7855 27.2096 16.9546 27.2818C17.1237 27.354 17.3053 27.3922 17.4892 27.3942C17.673 27.3962 17.8555 27.3619 18.0261 27.2934C18.1967 27.2249 18.3522 27.1234 18.4836 26.9948Z" fill="black"/>
</svg>
