<svg width="71" height="38" viewBox="0 0 71 38" fill="none" xmlns="http://www.w3.org/2000/svg">
<g filter="url(#filter0_i_163_155)">
<rect width="71" height="38" rx="19" fill="#8F8D8D"/>
<rect width="71" height="38" rx="19" fill="url(#paint0_linear_163_155)"/>
<rect width="71" height="38" rx="19" fill="url(#paint1_linear_163_155)"/>
<path d="M54.2083 29H40.7917C39.7375 29 38.875 28.1 38.875 27V13C38.875 11.9 39.7375 11 40.7917 11H54.2083C55.2625 11 56.125 11.9 56.125 13V27C56.125 28.1 55.2625 29 54.2083 29Z" fill="#F44336"/>
<path d="M50.8542 20L45.5833 16V24L50.8542 20Z" fill="white"/>
</g>
<path d="M12.8673 21.572C12.802 20.6107 12.7693 19.3133 12.7693 17.68C12.7693 16.0373 12.7927 14.9733 12.8393 14.488C12.886 14.1893 13.0913 13.9933 13.4553 13.9C13.8193 13.7973 14.3 13.746 14.8973 13.746C15.7747 13.746 16.512 13.9373 17.1093 14.32C17.716 14.6933 18.0193 15.2487 18.0193 15.986C18.0193 16.5927 17.9353 17.1013 17.7673 17.512C17.5993 17.9133 17.3893 18.212 17.1373 18.408C16.7267 18.7253 16.12 18.884 15.3173 18.884C14.972 18.884 14.5193 18.8373 13.9593 18.744C14.006 20.6107 14.0247 21.7867 14.0153 22.272C14.006 22.7573 13.8427 23 13.5253 23C13.32 23 13.1893 22.9627 13.1333 22.888C13.0773 22.8133 13.04 22.762 13.0213 22.734C13.0027 22.6967 12.984 22.6453 12.9653 22.58C12.9467 22.5147 12.9327 22.4633 12.9233 22.426C12.914 22.3793 12.9047 22.314 12.8953 22.23C12.8953 22.146 12.8907 22.0807 12.8813 22.034C12.872 21.894 12.8673 21.74 12.8673 21.572ZM16.8573 16.028C16.8573 15.6453 16.652 15.3467 16.2413 15.132C15.8307 14.908 15.392 14.796 14.9253 14.796C14.4587 14.796 14.132 14.838 13.9453 14.922C13.908 15.4727 13.8893 15.9813 13.8893 16.448C13.8893 16.9053 13.908 17.3207 13.9453 17.694C14.1973 17.722 14.37 17.7453 14.4633 17.764C14.706 17.792 14.9113 17.806 15.0793 17.806C15.2567 17.806 15.3733 17.806 15.4293 17.806C15.4947 17.7967 15.6113 17.7827 15.7793 17.764C15.9567 17.736 16.0827 17.694 16.1573 17.638C16.232 17.582 16.3253 17.5073 16.4373 17.414C16.5493 17.3207 16.6287 17.2133 16.6753 17.092C16.7967 16.756 16.8573 16.4013 16.8573 16.028ZM19.2996 13.942C19.3276 13.5873 19.3836 13.3587 19.4676 13.256C19.5609 13.144 19.7056 13.088 19.9016 13.088C20.3029 13.088 20.5036 13.2513 20.5036 13.578C20.5036 13.83 20.4802 14.488 20.4336 15.552C20.3962 16.616 20.3776 17.568 20.3776 18.408C20.3776 19.248 20.4102 19.9247 20.4756 20.438C20.5876 21.334 20.7462 21.782 20.9516 21.782C21.1569 21.782 21.3109 21.6373 21.4136 21.348C21.4602 21.236 21.5349 21.138 21.6376 21.054C21.7402 20.9607 21.8709 20.914 22.0296 20.914C22.3562 20.914 22.5196 21.1893 22.5196 21.74C22.5196 22.0387 22.3562 22.3373 22.0296 22.636C21.7122 22.9253 21.3949 23.07 21.0776 23.07C20.7602 23.07 20.5036 23.0187 20.3076 22.916C20.1209 22.804 19.9669 22.6407 19.8456 22.426C19.7336 22.2113 19.6402 22.006 19.5656 21.81C19.5002 21.6047 19.4536 21.3573 19.4256 21.068C19.3696 20.6013 19.3276 19.8547 19.2996 18.828C19.2809 17.792 19.2716 16.8073 19.2716 15.874C19.2716 14.9313 19.2809 14.2873 19.2996 13.942ZM26.9663 16.462C27.377 16.462 27.5823 16.812 27.5823 17.512C27.5823 17.5867 27.5823 17.666 27.5823 17.75L27.5543 18.73C27.545 19.038 27.5403 19.3413 27.5403 19.64L27.7503 22.804C27.7503 23.0373 27.5123 23.154 27.0363 23.154C27.0083 23.154 26.9383 23.154 26.8263 23.154C26.7237 23.154 26.649 23.112 26.6023 23.028C26.565 22.944 26.5603 22.8413 26.5883 22.72C26.6257 22.5987 26.6163 22.4633 26.5603 22.314C26.131 22.7713 25.5617 23 24.8523 23C23.5363 23 22.8783 21.9827 22.8783 19.948C22.8783 18.8187 23.0883 17.9647 23.5083 17.386C23.9377 16.8073 24.549 16.518 25.3423 16.518C25.7157 16.518 26.089 16.5833 26.4623 16.714C26.5837 16.546 26.7517 16.462 26.9663 16.462ZM25.5103 17.736C24.9783 17.736 24.5817 17.89 24.3203 18.198C24.059 18.506 23.9283 19.0707 23.9283 19.892C23.9283 21.2733 24.3017 21.964 25.0483 21.964C25.2443 21.964 25.459 21.8753 25.6923 21.698C25.935 21.5207 26.103 21.32 26.1963 21.096C26.3737 20.592 26.4623 20.0413 26.4623 19.444C26.4623 18.8467 26.3877 18.4127 26.2383 18.142C26.0983 17.8713 25.8557 17.736 25.5103 17.736ZM33.0087 16.532C33.1301 16.532 33.2467 16.574 33.3587 16.658C33.4801 16.742 33.5407 16.8353 33.5407 16.938C33.5407 17.2087 33.1441 18.674 32.3507 21.334C31.5574 23.994 30.9694 25.8607 30.5867 26.934C30.5027 27.186 30.3721 27.312 30.1947 27.312C30.0174 27.312 29.8774 27.2467 29.7747 27.116C29.6721 26.9947 29.6207 26.8127 29.6207 26.57C29.6207 26.3273 29.7747 25.744 30.0827 24.82C30.4001 23.9053 30.5914 23.322 30.6567 23.07C30.4234 22.678 29.6347 20.718 28.2907 17.19C28.2721 17.1433 28.2627 17.0827 28.2627 17.008C28.2627 16.9333 28.3187 16.8353 28.4307 16.714C28.5427 16.5927 28.6967 16.532 28.8927 16.532C29.0887 16.532 29.2474 16.63 29.3687 16.826C29.4994 17.162 29.7141 17.75 30.0127 18.59C30.3114 19.4207 30.5401 20.0227 30.6987 20.396C30.8667 20.7693 31.0254 21.1567 31.1747 21.558C31.3054 21.1193 31.5294 20.27 31.8467 19.01C32.1641 17.7407 32.3461 17.0173 32.3927 16.84C32.4301 16.6347 32.6354 16.532 33.0087 16.532Z" fill="black"/>
<defs>
<filter id="filter0_i_163_155" x="0" y="0" width="71" height="42" filterUnits="userSpaceOnUse" color-interpolation-filters="sRGB">
<feFlood flood-opacity="0" result="BackgroundImageFix"/>
<feBlend mode="normal" in="SourceGraphic" in2="BackgroundImageFix" result="shape"/>
<feColorMatrix in="SourceAlpha" type="matrix" values="0 0 0 0 0 0 0 0 0 0 0 0 0 0 0 0 0 0 127 0" result="hardAlpha"/>
<feOffset dy="4"/>
<feGaussianBlur stdDeviation="2"/>
<feComposite in2="hardAlpha" operator="arithmetic" k2="-1" k3="1"/>
<feColorMatrix type="matrix" values="0 0 0 0 0 0 0 0 0 0 0 0 0 0 0 0 0 0 0.25 0"/>
<feBlend mode="normal" in2="shape" result="effect1_innerShadow_163_155"/>
</filter>
<linearGradient id="paint0_linear_163_155" x1="0" y1="19" x2="71" y2="19" gradientUnits="userSpaceOnUse">
<stop stop-color="#BBBFAF"/>
<stop offset="0.415503" stop-color="#929588"/>
<stop offset="1" stop-color="#575952"/>
</linearGradient>
<linearGradient id="paint1_linear_163_155" x1="35.5" y1="0" x2="35.5" y2="38" gradientUnits="userSpaceOnUse">
<stop stop-color="white"/>
<stop offset="1" stop-color="#999999"/>
</linearGradient>
</defs>
</svg>
