<svg width="118" height="40" viewBox="0 0 118 40" fill="none" xmlns="http://www.w3.org/2000/svg">
<rect width="118" height="40" rx="20" fill="#666666"/>
<rect width="118" height="40" rx="20" fill="url(#paint0_linear_365_3)"/>
<rect width="118" height="40" rx="20" fill="url(#paint1_linear_365_3)"/>
<path d="M34.368 26.552C34.256 24.904 34.2 22.68 34.2 19.88C34.2 17.064 34.24 15.24 34.32 14.408C34.4 13.896 34.752 13.56 35.376 13.4C36 13.224 36.824 13.136 37.848 13.136C39.352 13.136 40.616 13.464 41.64 14.12C42.68 14.76 43.2 15.712 43.2 16.976C43.2 18.016 43.056 18.888 42.768 19.592C42.48 20.28 42.12 20.792 41.688 21.128C40.984 21.672 39.944 21.944 38.568 21.944C37.976 21.944 37.2 21.864 36.24 21.704C36.32 24.904 36.352 26.92 36.336 27.752C36.32 28.584 36.04 29 35.496 29C35.144 29 34.92 28.936 34.824 28.808C34.728 28.68 34.664 28.592 34.632 28.544C34.6 28.48 34.568 28.392 34.536 28.28C34.504 28.168 34.48 28.08 34.464 28.016C34.448 27.936 34.432 27.824 34.416 27.68C34.416 27.536 34.408 27.424 34.392 27.344C34.376 27.104 34.368 26.84 34.368 26.552ZM41.208 17.048C41.208 16.392 40.856 15.88 40.152 15.512C39.448 15.128 38.696 14.936 37.896 14.936C37.096 14.936 36.536 15.008 36.216 15.152C36.152 16.096 36.12 16.968 36.12 17.768C36.12 18.552 36.152 19.264 36.216 19.904C36.648 19.952 36.944 19.992 37.104 20.024C37.52 20.072 37.872 20.096 38.16 20.096C38.464 20.096 38.664 20.096 38.76 20.096C38.872 20.08 39.072 20.056 39.36 20.024C39.664 19.976 39.88 19.904 40.008 19.808C40.136 19.712 40.296 19.584 40.488 19.424C40.68 19.264 40.816 19.08 40.896 18.872C41.104 18.296 41.208 17.688 41.208 17.048ZM48.5627 25.496L48.5867 27.968C48.5867 28.256 48.4507 28.52 48.1787 28.76C47.9227 29 47.6667 29.12 47.4107 29.12C47.0427 29.12 46.8107 28.832 46.7147 28.256C46.6987 28.128 46.6347 26.96 46.5227 24.752C46.4107 22.528 46.1947 20.784 45.8747 19.52C45.7307 18.912 45.6587 18.552 45.6587 18.44C45.6587 17.912 45.9787 17.648 46.6187 17.648C46.8907 17.648 47.1067 17.752 47.2667 17.96C47.4267 18.168 47.5227 18.384 47.5547 18.608C47.6027 18.816 47.6427 19.104 47.6747 19.472C47.7067 19.84 47.7307 20.072 47.7467 20.168C48.0827 19.368 48.5867 18.768 49.2587 18.368C49.9307 17.968 50.6667 17.768 51.4667 17.768C52.7787 17.768 53.4347 18.104 53.4347 18.776C53.4347 19.112 53.3147 19.384 53.0747 19.592C52.8507 19.784 52.5867 19.88 52.2827 19.88C50.9227 19.88 49.9627 20.312 49.4027 21.176C48.8427 22.04 48.5627 23.48 48.5627 25.496ZM58.9491 17.816C60.1011 17.816 61.0451 18.368 61.7811 19.472C62.5331 20.576 62.9091 21.904 62.9091 23.456C62.9091 24.992 62.5251 26.304 61.7571 27.392C61.0051 28.48 59.9971 29.024 58.7331 29.024C57.4851 29.024 56.4771 28.472 55.7091 27.368C54.9411 26.248 54.5571 25.008 54.5571 23.648C54.5571 21.904 54.9091 20.512 55.6131 19.472C56.3651 18.368 57.4771 17.816 58.9491 17.816ZM58.6611 19.784C57.9891 19.784 57.4371 20.136 57.0051 20.84C56.5731 21.544 56.3571 22.288 56.3571 23.072C56.3571 24.288 56.5971 25.216 57.0771 25.856C57.5571 26.496 58.1011 26.816 58.7091 26.816C59.7971 26.816 60.4931 26.344 60.7971 25.4C60.9251 24.952 60.9891 24.392 60.9891 23.72C60.9891 21.096 60.2131 19.784 58.6611 19.784ZM72.5888 20.312L72.5168 26.408C72.5168 27.272 72.5168 27.848 72.5168 28.136C72.5328 28.424 72.4288 28.664 72.2048 28.856C71.9808 29.048 71.7168 29.144 71.4128 29.144C71.1088 29.144 70.9008 28.944 70.7888 28.544C70.5968 24.928 70.5008 22.768 70.5008 22.064C70.5008 21.344 70.5008 20.92 70.5008 20.792V19.688C70.1488 19.752 69.7808 19.784 69.3968 19.784C69.0288 19.784 68.7248 19.776 68.4848 19.76C68.5168 20.4 68.5888 21.544 68.7008 23.192C68.8128 24.824 68.8688 26.416 68.8688 27.968C68.8688 28.288 68.7408 28.544 68.4848 28.736C68.2288 28.928 67.9648 29.024 67.6928 29.024C67.2608 29.024 67.0448 28.768 67.0448 28.256C67.0448 26.816 66.9888 25.416 66.8768 24.056C66.7648 22.696 66.6848 21.264 66.6367 19.76C65.1968 19.76 64.3568 19.616 64.1168 19.328C64.0208 19.216 63.9728 19.072 63.9728 18.896C63.9728 18.48 64.1408 18.208 64.4768 18.08C64.8288 17.952 65.2288 17.888 65.6768 17.888C66.1248 17.888 66.4448 17.888 66.6367 17.888C66.6848 15.28 66.8288 13.664 67.0688 13.04C67.2128 12.656 67.4048 12.376 67.6448 12.2C67.9008 12.008 68.1168 11.904 68.2928 11.888C68.4848 11.856 68.7968 11.84 69.2288 11.84C70.8448 11.84 71.8768 12.144 72.3248 12.752C72.6608 13.216 72.8288 13.784 72.8288 14.456C72.8288 14.808 72.6928 15.128 72.4208 15.416C72.1488 15.704 71.8528 15.848 71.5328 15.848C71.5168 15.848 71.5008 15.848 71.4848 15.848C70.5888 15.752 70.1408 15.296 70.1408 14.48C70.1408 14.352 70.2048 14.144 70.3328 13.856C70.0768 13.712 69.7968 13.64 69.4928 13.64C68.7888 13.64 68.4288 14.264 68.4128 15.512C68.3968 15.64 68.3888 15.776 68.3888 15.92L68.4368 17.96L71.2208 17.84C71.6208 17.84 71.9248 17.896 72.1328 18.008C72.3568 18.12 72.4928 18.344 72.5408 18.68C72.5728 19.112 72.5888 19.656 72.5888 20.312ZM73.9181 13.472C73.9661 12.864 74.0621 12.472 74.2061 12.296C74.3661 12.104 74.6141 12.008 74.9501 12.008C75.6381 12.008 75.9821 12.288 75.9821 12.848C75.9821 13.28 75.9421 14.408 75.8621 16.232C75.7981 18.056 75.7661 19.688 75.7661 21.128C75.7661 22.568 75.8221 23.728 75.9341 24.608C76.1261 26.144 76.3981 26.912 76.7501 26.912C77.1021 26.912 77.3661 26.664 77.5421 26.168C77.6221 25.976 77.7501 25.808 77.9261 25.664C78.1021 25.504 78.3261 25.424 78.5981 25.424C79.1581 25.424 79.4381 25.896 79.4381 26.84C79.4381 27.352 79.1581 27.864 78.5981 28.376C78.0541 28.872 77.5101 29.12 76.9661 29.12C76.4221 29.12 75.9821 29.032 75.6461 28.856C75.3261 28.664 75.0621 28.384 74.8541 28.016C74.6621 27.648 74.5021 27.296 74.3741 26.96C74.2621 26.608 74.1821 26.184 74.1341 25.688C74.0381 24.888 73.9661 23.608 73.9181 21.848C73.8861 20.072 73.8701 18.384 73.8701 16.784C73.8701 15.168 73.8861 14.064 73.9181 13.472ZM83.8211 17.888C84.6691 17.888 85.4771 18.136 86.2451 18.632C87.0131 19.128 87.3971 19.744 87.3971 20.48C87.3971 21.2 87.0851 21.904 86.4611 22.592C85.8371 23.264 85.0051 23.672 83.9651 23.816C83.5171 23.88 82.8451 23.912 81.9491 23.912C82.1251 25.272 82.4691 26.168 82.9811 26.6C83.1411 26.776 83.3571 26.864 83.6291 26.864C84.6211 26.864 85.4531 26.552 86.1251 25.928C86.7971 25.288 87.2771 24.968 87.5651 24.968C87.6931 24.968 87.8851 25.088 88.1411 25.328C88.3971 25.568 88.5251 25.792 88.5251 26C88.5251 26.416 88.0211 27.016 87.0131 27.8C86.5651 28.168 86.0211 28.48 85.3811 28.736C84.7571 28.976 84.1731 29.096 83.6291 29.096C82.2371 29.096 81.2131 28.2 80.5571 26.408C80.1411 25.304 79.9331 24.088 79.9331 22.76C79.9331 21.432 80.2451 20.288 80.8691 19.328C81.4931 18.368 82.4771 17.888 83.8211 17.888ZM83.9411 19.544C83.3331 19.544 82.8131 19.888 82.3811 20.576C82.2211 20.816 82.0691 21.36 81.9251 22.208C84.1651 22.208 85.2851 21.656 85.2851 20.552C85.2851 19.88 84.8371 19.544 83.9411 19.544Z" fill="#211F1F"/>
<defs>
<linearGradient id="paint0_linear_365_3" x1="59" y1="0" x2="59" y2="40" gradientUnits="userSpaceOnUse">
<stop stop-color="white"/>
<stop offset="1" stop-color="#999999"/>
</linearGradient>
<linearGradient id="paint1_linear_365_3" x1="59" y1="0" x2="59" y2="40" gradientUnits="userSpaceOnUse">
<stop stop-color="white"/>
<stop offset="1" stop-color="#999999"/>
</linearGradient>
</defs>
</svg>
