<svg width="151" height="52" viewBox="0 0 151 52" fill="none" xmlns="http://www.w3.org/2000/svg">
<rect width="151" height="52" rx="26" fill="#666666"/>
<rect width="151" height="52" rx="26" fill="url(#paint0_linear_350_2)"/>
<path d="M60.216 15.184C60.616 15.184 60.952 15.36 61.224 15.712C61.496 16.064 61.848 16.792 62.28 17.896C63.288 20.504 64.272 24.592 65.232 30.16C65.248 30.224 65.256 30.32 65.256 30.448C65.256 30.56 65.176 30.688 65.016 30.832C64.872 30.96 64.656 31.024 64.368 31.024C64.096 31.024 63.864 30.96 63.672 30.832C63.48 30.688 63.352 30.464 63.288 30.16C63.224 29.84 63.104 29.224 62.928 28.312C62.544 26.28 62.288 25.224 62.16 25.144C61.968 25.032 61.328 24.912 60.24 24.784C59.168 24.656 58.456 24.592 58.104 24.592C57.752 24.592 57.544 24.624 57.48 24.688C57.192 24.944 56.8 26.888 56.304 30.52C56.24 30.824 55.936 30.976 55.392 30.976C54.848 30.976 54.576 30.744 54.576 30.28C54.576 29.128 55 26.928 55.848 23.68C56.696 20.432 57.4 18.28 57.96 17.224C58.664 15.864 59.416 15.184 60.216 15.184ZM60.12 17.848C59.88 17.848 59.464 18.56 58.872 19.984C58.28 21.392 57.984 22.264 57.984 22.6C57.984 22.68 58 22.736 58.032 22.768C58.16 22.896 58.664 23.008 59.544 23.104C60.424 23.2 61.008 23.248 61.296 23.248C61.584 23.248 61.744 23.232 61.776 23.2C61.808 23.152 61.824 23.024 61.824 22.816C61.824 22.592 61.608 21.712 61.176 20.176C60.744 18.624 60.392 17.848 60.12 17.848ZM72.3668 19.768L72.3428 15.136C72.3428 14.272 72.6148 13.84 73.1588 13.84C73.7188 13.84 74.0308 14.08 74.0948 14.56C74.1268 14.768 74.1668 16.024 74.2148 18.328C74.2628 20.632 74.3348 22.792 74.4308 24.808C74.5428 26.824 74.5988 28.704 74.5988 30.448C74.5988 30.928 74.2388 31.168 73.5188 31.168C73.0388 31.168 72.7988 30.832 72.7988 30.16C72.1108 30.704 71.2948 30.976 70.3508 30.976C69.1508 30.976 68.1748 30.528 67.4228 29.632C66.6868 28.736 66.3188 27.632 66.3188 26.32C66.3188 25.008 66.5828 23.784 67.1108 22.648C67.6548 21.496 68.4948 20.672 69.6308 20.176C70.3348 19.872 71.0148 19.72 71.6708 19.72C71.9108 19.72 72.1428 19.736 72.3668 19.768ZM72.4868 23.056C72.3748 22.704 72.2388 22.44 72.0788 22.264C71.9188 22.072 71.7428 21.96 71.5508 21.928C71.3748 21.88 71.1588 21.856 70.9028 21.856C70.6468 21.856 70.3348 21.952 69.9668 22.144C69.5988 22.336 69.2868 22.648 69.0308 23.08C68.5188 23.944 68.2628 24.856 68.2628 25.816C68.2628 26.76 68.4468 27.536 68.8148 28.144C69.1988 28.736 69.7348 29.032 70.4228 29.032C71.1268 29.032 71.6788 28.688 72.0788 28C72.4788 27.312 72.6788 26.432 72.6788 25.36C72.6788 24.16 72.6148 23.392 72.4868 23.056ZM81.7183 19.768L81.6943 15.136C81.6943 14.272 81.9663 13.84 82.5103 13.84C83.0703 13.84 83.3823 14.08 83.4463 14.56C83.4783 14.768 83.5183 16.024 83.5663 18.328C83.6143 20.632 83.6863 22.792 83.7823 24.808C83.8943 26.824 83.9503 28.704 83.9503 30.448C83.9503 30.928 83.5903 31.168 82.8703 31.168C82.3903 31.168 82.1503 30.832 82.1503 30.16C81.4623 30.704 80.6463 30.976 79.7023 30.976C78.5023 30.976 77.5263 30.528 76.7743 29.632C76.0383 28.736 75.6703 27.632 75.6703 26.32C75.6703 25.008 75.9343 23.784 76.4623 22.648C77.0063 21.496 77.8463 20.672 78.9823 20.176C79.6863 19.872 80.3663 19.72 81.0223 19.72C81.2623 19.72 81.4943 19.736 81.7183 19.768ZM81.8383 23.056C81.7263 22.704 81.5903 22.44 81.4303 22.264C81.2703 22.072 81.0943 21.96 80.9023 21.928C80.7263 21.88 80.5103 21.856 80.2543 21.856C79.9983 21.856 79.6863 21.952 79.3183 22.144C78.9503 22.336 78.6383 22.648 78.3823 23.08C77.8703 23.944 77.6143 24.856 77.6143 25.816C77.6143 26.76 77.7983 27.536 78.1663 28.144C78.5503 28.736 79.0863 29.032 79.7743 29.032C80.4783 29.032 81.0303 28.688 81.4303 28C81.8303 27.312 82.0303 26.432 82.0303 25.36C82.0303 24.16 81.9663 23.392 81.8383 23.056Z" fill="black"/>
<defs>
<linearGradient id="paint0_linear_350_2" x1="75.5" y1="0" x2="75.5" y2="52" gradientUnits="userSpaceOnUse">
<stop stop-color="white"/>
<stop offset="1" stop-color="#999999"/>
</linearGradient>
</defs>
</svg>
