<svg width="205" height="57" viewBox="0 0 205 57" fill="none" xmlns="http://www.w3.org/2000/svg">
<g filter="url(#filter0_i_363_2)">
<rect width="205" height="57" rx="28.5" fill="#BDB4A4"/>
<rect width="205" height="57" rx="28.5" fill="url(#paint0_linear_363_2)"/>
<rect width="205" height="57" rx="28.5" fill="url(#paint1_linear_363_2)"/>
</g>
<path d="M70.14 33.96C70.0467 32.5867 70 30.7333 70 28.4C70 26.0533 70.0333 24.5333 70.1 23.84C70.1667 23.4133 70.46 23.1333 70.98 23C71.5 22.8533 72.1867 22.78 73.04 22.78C74.2933 22.78 75.3467 23.0533 76.2 23.6C77.0667 24.1333 77.5 24.9267 77.5 25.98C77.5 26.8467 77.38 27.5733 77.14 28.16C76.9 28.7333 76.6 29.16 76.24 29.44C75.6533 29.8933 74.7867 30.12 73.64 30.12C73.1467 30.12 72.5 30.0533 71.7 29.92C71.7667 32.5867 71.7933 34.2667 71.78 34.96C71.7667 35.6533 71.5333 36 71.08 36C70.7867 36 70.6 35.9467 70.52 35.84C70.44 35.7333 70.3867 35.66 70.36 35.62C70.3333 35.5667 70.3067 35.4933 70.28 35.4C70.2533 35.3067 70.2333 35.2333 70.22 35.18C70.2067 35.1133 70.1933 35.02 70.18 34.9C70.18 34.78 70.1733 34.6867 70.16 34.62C70.1467 34.42 70.14 34.2 70.14 33.96ZM75.84 26.04C75.84 25.4933 75.5467 25.0667 74.96 24.76C74.3733 24.44 73.7467 24.28 73.08 24.28C72.4133 24.28 71.9467 24.34 71.68 24.46C71.6267 25.2467 71.6 25.9733 71.6 26.64C71.6 27.2933 71.6267 27.8867 71.68 28.42C72.04 28.46 72.2867 28.4933 72.42 28.52C72.7667 28.56 73.06 28.58 73.3 28.58C73.5533 28.58 73.72 28.58 73.8 28.58C73.8933 28.5667 74.06 28.5467 74.3 28.52C74.5533 28.48 74.7333 28.42 74.84 28.34C74.9467 28.26 75.08 28.1533 75.24 28.02C75.4 27.8867 75.5133 27.7333 75.58 27.56C75.7533 27.08 75.84 26.5733 75.84 26.04ZM79.3289 23.06C79.3689 22.5533 79.4489 22.2267 79.5689 22.08C79.7022 21.92 79.9089 21.84 80.1889 21.84C80.7622 21.84 81.0489 22.0733 81.0489 22.54C81.0489 22.9 81.0156 23.84 80.9489 25.36C80.8956 26.88 80.8689 28.24 80.8689 29.44C80.8689 30.64 80.9156 31.6067 81.0089 32.34C81.1689 33.62 81.3956 34.26 81.6889 34.26C81.9822 34.26 82.2022 34.0533 82.3489 33.64C82.4156 33.48 82.5222 33.34 82.6689 33.22C82.8156 33.0867 83.0022 33.02 83.2289 33.02C83.6956 33.02 83.9289 33.4133 83.9289 34.2C83.9289 34.6267 83.6956 35.0533 83.2289 35.48C82.7756 35.8933 82.3222 36.1 81.8689 36.1C81.4156 36.1 81.0489 36.0267 80.7689 35.88C80.5022 35.72 80.2822 35.4867 80.1089 35.18C79.9489 34.8733 79.8156 34.58 79.7089 34.3C79.6156 34.0067 79.5489 33.6533 79.5089 33.24C79.4289 32.5733 79.3689 31.5067 79.3289 30.04C79.3022 28.56 79.2889 27.1533 79.2889 25.82C79.2889 24.4733 79.3022 23.5533 79.3289 23.06ZM90.2814 26.66C90.8681 26.66 91.1614 27.16 91.1614 28.16C91.1614 28.2667 91.1614 28.38 91.1614 28.5L91.1214 29.9C91.1081 30.34 91.1014 30.7733 91.1014 31.2L91.4014 35.72C91.4014 36.0533 91.0614 36.22 90.3814 36.22C90.3414 36.22 90.2414 36.22 90.0814 36.22C89.9347 36.22 89.8281 36.16 89.7614 36.04C89.7081 35.92 89.7014 35.7733 89.7414 35.6C89.7947 35.4267 89.7814 35.2333 89.7014 35.02C89.0881 35.6733 88.2747 36 87.2614 36C85.3814 36 84.4414 34.5467 84.4414 31.64C84.4414 30.0267 84.7414 28.8067 85.3414 27.98C85.9547 27.1533 86.8281 26.74 87.9614 26.74C88.4947 26.74 89.0281 26.8333 89.5614 27.02C89.7347 26.78 89.9747 26.66 90.2814 26.66ZM88.2014 28.48C87.4414 28.48 86.8747 28.7 86.5014 29.14C86.1281 29.58 85.9414 30.3867 85.9414 31.56C85.9414 33.5333 86.4747 34.52 87.5414 34.52C87.8214 34.52 88.1281 34.3933 88.4614 34.14C88.8081 33.8867 89.0481 33.6 89.1814 33.28C89.4347 32.56 89.5614 31.7733 89.5614 30.92C89.5614 30.0667 89.4547 29.4467 89.2414 29.06C89.0414 28.6733 88.6947 28.48 88.2014 28.48ZM98.9134 26.76C99.0868 26.76 99.2534 26.82 99.4134 26.94C99.5868 27.06 99.6734 27.1933 99.6734 27.34C99.6734 27.7267 99.1068 29.82 97.9734 33.62C96.8401 37.42 96.0001 40.0867 95.4534 41.62C95.3334 41.98 95.1468 42.16 94.8934 42.16C94.6401 42.16 94.4401 42.0667 94.2934 41.88C94.1468 41.7067 94.0734 41.4467 94.0734 41.1C94.0734 40.7533 94.2934 39.92 94.7334 38.6C95.1868 37.2933 95.4601 36.46 95.5534 36.1C95.2201 35.54 94.0934 32.74 92.1734 27.7C92.1468 27.6333 92.1334 27.5467 92.1334 27.44C92.1334 27.3333 92.2134 27.1933 92.3734 27.02C92.5334 26.8467 92.7534 26.76 93.0334 26.76C93.3134 26.76 93.5401 26.9 93.7134 27.18C93.9001 27.66 94.2068 28.5 94.6334 29.7C95.0601 30.8867 95.3868 31.7467 95.6134 32.28C95.8534 32.8133 96.0801 33.3667 96.2934 33.94C96.4801 33.3133 96.8001 32.1 97.2534 30.3C97.7068 28.4867 97.9668 27.4533 98.0334 27.2C98.0868 26.9067 98.3801 26.76 98.9134 26.76Z" fill="black"/>
<path d="M143.25 46.75H118.75C116.825 46.75 115.25 45.175 115.25 43.25V18.75C115.25 16.825 116.825 15.25 118.75 15.25H143.25C145.175 15.25 146.75 16.825 146.75 18.75V43.25C146.75 45.175 145.175 46.75 143.25 46.75Z" fill="#F44336"/>
<path d="M137.125 31L127.5 24V38L137.125 31Z" fill="white"/>
<defs>
<filter id="filter0_i_363_2" x="0" y="0" width="205" height="61" filterUnits="userSpaceOnUse" color-interpolation-filters="sRGB">
<feFlood flood-opacity="0" result="BackgroundImageFix"/>
<feBlend mode="normal" in="SourceGraphic" in2="BackgroundImageFix" result="shape"/>
<feColorMatrix in="SourceAlpha" type="matrix" values="0 0 0 0 0 0 0 0 0 0 0 0 0 0 0 0 0 0 127 0" result="hardAlpha"/>
<feOffset dy="4"/>
<feGaussianBlur stdDeviation="2"/>
<feComposite in2="hardAlpha" operator="arithmetic" k2="-1" k3="1"/>
<feColorMatrix type="matrix" values="0 0 0 0 0 0 0 0 0 0 0 0 0 0 0 0 0 0 0.25 0"/>
<feBlend mode="normal" in2="shape" result="effect1_innerShadow_363_2"/>
</filter>
<linearGradient id="paint0_linear_363_2" x1="0" y1="28.5" x2="205" y2="28.5" gradientUnits="userSpaceOnUse">
<stop stop-color="#BBBFAF"/>
<stop offset="1" stop-color="#575952"/>
</linearGradient>
<linearGradient id="paint1_linear_363_2" x1="102.5" y1="0" x2="102.5" y2="57" gradientUnits="userSpaceOnUse">
<stop stop-color="white"/>
<stop offset="1" stop-color="#999999"/>
</linearGradient>
</defs>
</svg>
