<svg width="157" height="52" viewBox="0 0 157 52" fill="none" xmlns="http://www.w3.org/2000/svg">
<rect width="151" height="52" rx="26" fill="#666666"/>
<rect width="151" height="52" rx="26" fill="url(#paint0_linear_425_39)"/>
<path d="M29.392 16.4C29.616 16.144 29.864 16.016 30.136 16.016C30.408 16.016 30.64 16.152 30.832 16.424C31.104 17.816 31.24 19.376 31.24 21.104V22.928C31.24 24.304 31.216 25.12 31.168 25.376C31.12 25.616 31.072 25.888 31.024 26.192C30.976 26.496 30.928 26.728 30.88 26.888C30.848 27.048 30.792 27.264 30.712 27.536C30.536 28.128 30.288 28.656 29.968 29.12C29.488 30.016 28.856 30.72 28.072 31.232C27.288 31.744 26.488 32 25.672 32C24.872 32 24.04 31.648 23.176 30.944C22.328 30.24 21.632 29.36 21.088 28.304C20.256 26.672 19.84 24.792 19.84 22.664C19.84 21.912 19.952 20.128 20.176 17.312C20.288 17.056 20.456 16.832 20.68 16.64C20.92 16.432 21.16 16.328 21.4 16.328C21.752 16.328 21.968 16.568 22.048 17.048C21.824 19.816 21.712 21.568 21.712 22.304C21.712 24.064 22.056 25.624 22.744 26.984C23.176 27.88 23.704 28.632 24.328 29.24C24.968 29.832 25.592 30.128 26.2 30.128C27.208 30.128 28.072 29.344 28.792 27.776C29.096 27.232 29.264 26.36 29.296 25.16C29.296 24.84 29.312 24.616 29.344 24.488L29.392 21.32C29.392 19.848 29.28 18.504 29.056 17.288C29.056 16.952 29.168 16.656 29.392 16.4ZM36.8993 31.976C36.3553 31.976 35.8513 31.792 35.3873 31.424C35.3873 31.424 35.2833 31.336 35.0753 31.16V38.36C34.9793 38.68 34.8113 38.944 34.5713 39.152C34.3313 39.376 34.0753 39.488 33.8033 39.488C33.3873 39.488 33.1793 39.208 33.1793 38.648V21.92C33.2753 21.504 33.3873 21.208 33.5153 21.032C33.6593 20.856 33.8753 20.768 34.1633 20.768C34.4673 20.768 34.6593 20.84 34.7393 20.984C34.8353 21.112 34.9473 21.48 35.0753 22.088C35.1393 21.768 35.3953 21.472 35.8433 21.2C36.2913 20.928 36.8913 20.792 37.6433 20.792C39.2753 20.792 40.4353 21.384 41.1233 22.568C41.8113 23.752 42.1553 25.152 42.1553 26.768C42.1553 28.368 41.6833 29.64 40.7393 30.584C39.8113 31.512 38.5313 31.976 36.8993 31.976ZM35.0753 24.776V29.24C35.1713 29.288 35.2833 29.368 35.4113 29.48C35.8753 29.896 36.3793 30.104 36.9233 30.104C39.1313 30.104 40.2353 28.968 40.2353 26.696C40.2353 24.76 39.7393 23.536 38.7473 23.024C38.3313 22.8 37.8193 22.688 37.2113 22.688C36.6193 22.768 36.1153 23.032 35.6993 23.48C35.2833 23.912 35.0753 24.344 35.0753 24.776ZM49.1089 20.768L49.0849 16.136C49.0849 15.272 49.3569 14.84 49.9009 14.84C50.4609 14.84 50.7729 15.08 50.8369 15.56C50.8689 15.768 50.9089 17.024 50.9569 19.328C51.0049 21.632 51.0769 23.792 51.1729 25.808C51.2849 27.824 51.3409 29.704 51.3409 31.448C51.3409 31.928 50.9809 32.168 50.2609 32.168C49.7809 32.168 49.5409 31.832 49.5409 31.16C48.8529 31.704 48.0369 31.976 47.0929 31.976C45.8929 31.976 44.9169 31.528 44.1649 30.632C43.4289 29.736 43.0609 28.632 43.0609 27.32C43.0609 26.008 43.3249 24.784 43.8529 23.648C44.3969 22.496 45.2369 21.672 46.3729 21.176C47.0769 20.872 47.7569 20.72 48.4129 20.72C48.6529 20.72 48.8849 20.736 49.1089 20.768ZM49.2289 24.056C49.1169 23.704 48.9809 23.44 48.8209 23.264C48.6609 23.072 48.4849 22.96 48.2929 22.928C48.1169 22.88 47.9009 22.856 47.6449 22.856C47.3889 22.856 47.0769 22.952 46.7089 23.144C46.3409 23.336 46.0289 23.648 45.7729 24.08C45.2609 24.944 45.0049 25.856 45.0049 26.816C45.0049 27.76 45.1889 28.536 45.5569 29.144C45.9409 29.736 46.4769 30.032 47.1649 30.032C47.8689 30.032 48.4209 29.688 48.8209 29C49.2209 28.312 49.4209 27.432 49.4209 26.36C49.4209 25.16 49.3569 24.392 49.2289 24.056ZM59.4205 20.792C60.1245 20.792 60.4765 21.392 60.4765 22.592C60.4765 22.72 60.4765 22.856 60.4765 23L60.4285 24.68C60.4125 25.208 60.4045 25.728 60.4045 26.24L60.7645 31.664C60.7645 32.064 60.3565 32.264 59.5405 32.264C59.4925 32.264 59.3725 32.264 59.1805 32.264C59.0045 32.264 58.8765 32.192 58.7965 32.048C58.7325 31.904 58.7245 31.728 58.7725 31.52C58.8365 31.312 58.8205 31.08 58.7245 30.824C57.9885 31.608 57.0125 32 55.7965 32C53.5405 32 52.4125 30.256 52.4125 26.768C52.4125 24.832 52.7725 23.368 53.4925 22.376C54.2285 21.384 55.2765 20.888 56.6365 20.888C57.2765 20.888 57.9165 21 58.5565 21.224C58.7645 20.936 59.0525 20.792 59.4205 20.792ZM56.9245 22.976C56.0125 22.976 55.3325 23.24 54.8845 23.768C54.4365 24.296 54.2125 25.264 54.2125 26.672C54.2125 29.04 54.8525 30.224 56.1325 30.224C56.4685 30.224 56.8365 30.072 57.2365 29.768C57.6525 29.464 57.9405 29.12 58.1005 28.736C58.4045 27.872 58.5565 26.928 58.5565 25.904C58.5565 24.88 58.4285 24.136 58.1725 23.672C57.9325 23.208 57.5165 22.976 56.9245 22.976ZM62.7229 20.792L63.9229 20.816C64.1949 20.816 64.3469 20.808 64.3789 20.792V15.872C64.3949 15.6 64.5309 15.368 64.7869 15.176C65.0429 14.984 65.2829 14.888 65.5069 14.888C65.7309 14.888 65.9069 14.96 66.0349 15.104C66.1789 15.248 66.2429 15.472 66.2269 15.776C66.2109 16.08 66.2029 17.744 66.2029 20.768L69.0109 20.672C69.4909 20.672 69.7309 20.952 69.7309 21.512C69.7309 21.928 69.6029 22.24 69.3469 22.448C69.1069 22.656 68.8429 22.768 68.5549 22.784C68.2829 22.8 68.0109 22.808 67.7389 22.808L66.2749 22.784C66.2749 23.44 66.3389 24.736 66.4669 26.672C66.6109 28.608 66.7229 29.864 66.8029 30.44C66.8829 31 66.8989 31.368 66.8509 31.544C66.8029 31.704 66.7149 31.816 66.5869 31.88C66.3789 31.976 66.0989 32.024 65.7469 32.024C65.3949 32.024 65.1869 31.832 65.1229 31.448C64.8029 29.352 64.5869 26.472 64.4749 22.808C64.3309 22.824 63.7789 22.832 62.8189 22.832C61.8589 22.832 61.3789 22.552 61.3789 21.992C61.3789 21.192 61.8269 20.792 62.7229 20.792ZM73.8289 20.888C74.6769 20.888 75.4849 21.136 76.2529 21.632C77.0209 22.128 77.4049 22.744 77.4049 23.48C77.4049 24.2 77.0929 24.904 76.4689 25.592C75.8449 26.264 75.0129 26.672 73.9729 26.816C73.5249 26.88 72.8529 26.912 71.9569 26.912C72.1329 28.272 72.4769 29.168 72.9889 29.6C73.1489 29.776 73.3649 29.864 73.6369 29.864C74.6289 29.864 75.4609 29.552 76.1329 28.928C76.8049 28.288 77.2849 27.968 77.5729 27.968C77.7009 27.968 77.8929 28.088 78.1489 28.328C78.4049 28.568 78.5329 28.792 78.5329 29C78.5329 29.416 78.0289 30.016 77.0209 30.8C76.5729 31.168 76.0289 31.48 75.3889 31.736C74.7649 31.976 74.1809 32.096 73.6369 32.096C72.2449 32.096 71.2209 31.2 70.5649 29.408C70.1489 28.304 69.9409 27.088 69.9409 25.76C69.9409 24.432 70.2529 23.288 70.8769 22.328C71.5009 21.368 72.4849 20.888 73.8289 20.888ZM73.9489 22.544C73.3409 22.544 72.8209 22.888 72.3889 23.576C72.2289 23.816 72.0769 24.36 71.9329 25.208C74.1729 25.208 75.2929 24.656 75.2929 23.552C75.2929 22.88 74.8449 22.544 73.9489 22.544ZM94.9467 16.4C95.1707 16.144 95.4187 16.016 95.6907 16.016C95.9627 16.016 96.1947 16.152 96.3867 16.424C96.6587 17.816 96.7947 19.376 96.7947 21.104V22.928C96.7947 24.304 96.7707 25.12 96.7227 25.376C96.6747 25.616 96.6267 25.888 96.5787 26.192C96.5307 26.496 96.4827 26.728 96.4347 26.888C96.4027 27.048 96.3467 27.264 96.2667 27.536C96.0907 28.128 95.8427 28.656 95.5227 29.12C95.0427 30.016 94.4107 30.72 93.6267 31.232C92.8427 31.744 92.0427 32 91.2267 32C90.4267 32 89.5947 31.648 88.7307 30.944C87.8827 30.24 87.1867 29.36 86.6427 28.304C85.8107 26.672 85.3947 24.792 85.3947 22.664C85.3947 21.912 85.5067 20.128 85.7307 17.312C85.8427 17.056 86.0107 16.832 86.2347 16.64C86.4747 16.432 86.7147 16.328 86.9547 16.328C87.3067 16.328 87.5227 16.568 87.6027 17.048C87.3787 19.816 87.2667 21.568 87.2667 22.304C87.2667 24.064 87.6107 25.624 88.2987 26.984C88.7307 27.88 89.2587 28.632 89.8827 29.24C90.5227 29.832 91.1467 30.128 91.7547 30.128C92.7627 30.128 93.6267 29.344 94.3467 27.776C94.6507 27.232 94.8187 26.36 94.8507 25.16C94.8507 24.84 94.8667 24.616 94.8987 24.488L94.9467 21.32C94.9467 19.848 94.8347 18.504 94.6107 17.288C94.6107 16.952 94.7227 16.656 94.9467 16.4ZM99.07 23.84C99.07 22.896 99.406 22.144 100.078 21.584C100.75 21.024 101.526 20.744 102.406 20.744C103.302 20.744 104.158 20.904 104.974 21.224C105.79 21.544 106.198 21.968 106.198 22.496C106.198 22.768 106.094 22.984 105.886 23.144C105.678 23.304 105.494 23.384 105.334 23.384C105.19 23.384 105.07 23.384 104.974 23.384C104.894 23.368 104.574 23.216 104.014 22.928C103.47 22.64 102.966 22.496 102.502 22.496C102.038 22.496 101.638 22.616 101.302 22.856C100.982 23.08 100.822 23.416 100.822 23.864C100.822 24.312 101.006 24.664 101.374 24.92C101.758 25.176 102.422 25.4 103.366 25.592C104.31 25.768 105.03 26.024 105.526 26.36C106.038 26.696 106.294 27.32 106.294 28.232C106.294 29.56 105.942 30.504 105.238 31.064C104.55 31.608 103.71 31.88 102.718 31.88C101.726 31.88 100.878 31.744 100.174 31.472C99.486 31.2 99.142 30.792 99.142 30.248C99.142 29.624 99.454 29.312 100.078 29.312C100.238 29.312 100.59 29.424 101.134 29.648C101.678 29.872 102.214 29.984 102.742 29.984C103.286 29.984 103.694 29.816 103.966 29.48C104.254 29.128 104.398 28.728 104.398 28.28C104.398 27.832 104.214 27.512 103.846 27.32C103.478 27.112 102.918 26.944 102.166 26.816C101.414 26.688 100.862 26.552 100.51 26.408C99.55 26.024 99.07 25.168 99.07 23.84ZM111.352 20.888C112.2 20.888 113.008 21.136 113.776 21.632C114.544 22.128 114.928 22.744 114.928 23.48C114.928 24.2 114.616 24.904 113.992 25.592C113.368 26.264 112.536 26.672 111.496 26.816C111.048 26.88 110.376 26.912 109.48 26.912C109.656 28.272 110 29.168 110.512 29.6C110.672 29.776 110.888 29.864 111.16 29.864C112.152 29.864 112.984 29.552 113.656 28.928C114.328 28.288 114.808 27.968 115.096 27.968C115.224 27.968 115.416 28.088 115.672 28.328C115.928 28.568 116.056 28.792 116.056 29C116.056 29.416 115.552 30.016 114.544 30.8C114.096 31.168 113.552 31.48 112.912 31.736C112.288 31.976 111.704 32.096 111.16 32.096C109.768 32.096 108.744 31.2 108.088 29.408C107.672 28.304 107.464 27.088 107.464 25.76C107.464 24.432 107.776 23.288 108.4 22.328C109.024 21.368 110.008 20.888 111.352 20.888ZM111.472 22.544C110.864 22.544 110.344 22.888 109.912 23.576C109.752 23.816 109.6 24.36 109.456 25.208C111.696 25.208 112.816 24.656 112.816 23.552C112.816 22.88 112.368 22.544 111.472 22.544ZM120.555 28.496L120.579 30.968C120.579 31.256 120.443 31.52 120.171 31.76C119.915 32 119.659 32.12 119.403 32.12C119.035 32.12 118.803 31.832 118.707 31.256C118.691 31.128 118.627 29.96 118.515 27.752C118.403 25.528 118.187 23.784 117.867 22.52C117.723 21.912 117.651 21.552 117.651 21.44C117.651 20.912 117.971 20.648 118.611 20.648C118.883 20.648 119.099 20.752 119.259 20.96C119.419 21.168 119.515 21.384 119.547 21.608C119.595 21.816 119.635 22.104 119.667 22.472C119.699 22.84 119.723 23.072 119.739 23.168C120.075 22.368 120.579 21.768 121.251 21.368C121.923 20.968 122.659 20.768 123.459 20.768C124.771 20.768 125.427 21.104 125.427 21.776C125.427 22.112 125.307 22.384 125.067 22.592C124.843 22.784 124.579 22.88 124.275 22.88C122.915 22.88 121.955 23.312 121.395 24.176C120.835 25.04 120.555 26.48 120.555 28.496Z" fill="black"/>
<defs>
<linearGradient id="paint0_linear_425_39" x1="75.5" y1="0" x2="75.5" y2="52" gradientUnits="userSpaceOnUse">
<stop stop-color="white"/>
<stop offset="1" stop-color="#999999"/>
</linearGradient>
</defs>
</svg>
