<svg width="50" height="31" viewBox="0 0 50 31" fill="none" xmlns="http://www.w3.org/2000/svg">
<path d="M1.1 14.12C0.913333 14 0.82 13.8267 0.82 13.6C0.82 13.3733 0.893333 13.1667 1.04 12.98C0.986667 11.6467 0.96 10.24 0.96 8.76C1.04 8.44 1.16 8.20667 1.32 8.06C1.49333 7.91333 1.74 7.82 2.06 7.78C3.82 7.86 5.72667 7.9 7.78 7.9C8.28667 8.00667 8.54 8.22667 8.54 8.56C8.54 9.12 7.99333 9.44667 6.9 9.54C6.60667 9.55333 6.28667 9.56 5.94 9.56H4.64C4.38667 9.56 3.68667 9.50667 2.54 9.4C2.54 11.0667 2.56667 12.2133 2.62 12.84C3.32667 12.8533 4.68667 12.86 6.7 12.86C7.18 12.9533 7.42 13.1733 7.42 13.52C7.42 13.8533 7.22667 14.1133 6.84 14.3C6.8 14.3267 6.72667 14.3533 6.62 14.38L3.16 14.32C2.94667 14.32 2.77333 14.3333 2.64 14.36L2.72 17.8C2.72 18.5733 2.7 19.1267 2.66 19.46L7.3 19.4C7.72667 19.4667 7.94 19.6467 7.94 19.94C7.94 20.14 7.84667 20.34 7.66 20.54C7.48667 20.74 7.28 20.8667 7.04 20.92L1.92 21C1.61333 21 1.4 20.9467 1.28 20.84C1.16 20.72 1.1 20.5267 1.1 20.26C1.15333 19.8867 1.18 19.2867 1.18 18.46V17.06L1.1 14.12ZM10.3677 20.38L10.1477 12.26C10.1477 12.0067 10.2343 11.8 10.4077 11.64C10.581 11.48 10.7543 11.4 10.9277 11.4C11.3543 11.4 11.601 11.58 11.6677 11.94C11.721 12.3 11.7477 12.6733 11.7477 13.06C12.4677 12.1133 13.3677 11.64 14.4477 11.64C16.101 11.64 16.9277 13.5267 16.9277 17.3C16.9277 17.6467 16.9277 18.1733 16.9277 18.88C16.9277 19.5733 16.8877 20.08 16.8077 20.4C16.7143 20.8 16.4277 21 15.9477 21C15.6277 21 15.4677 20.7867 15.4677 20.36L15.4877 19.24C15.4877 17.6933 15.4343 16.64 15.3277 16.08C15.2343 15.5067 15.141 15.0533 15.0477 14.72C14.821 14 14.4543 13.64 13.9477 13.64C13.281 13.64 12.8143 13.88 12.5477 14.36C12.2543 14.88 12.081 15.4933 12.0277 16.2C11.9343 17.44 11.8877 18.7533 11.8877 20.14C11.8877 20.4067 11.7877 20.62 11.5877 20.78C11.3877 20.94 11.1477 21.02 10.8677 21.02C10.5343 21.02 10.3677 20.8067 10.3677 20.38ZM19.1506 11.66L20.1506 11.68C20.3773 11.68 20.504 11.6733 20.5306 11.66V7.56C20.544 7.33333 20.6573 7.14 20.8706 6.98C21.084 6.82 21.284 6.74 21.4706 6.74C21.6573 6.74 21.804 6.8 21.9106 6.92C22.0306 7.04 22.084 7.22667 22.0706 7.48C22.0573 7.73333 22.0506 9.12 22.0506 11.64L24.3906 11.56C24.7906 11.56 24.9906 11.7933 24.9906 12.26C24.9906 12.6067 24.884 12.8667 24.6706 13.04C24.4706 13.2133 24.2506 13.3067 24.0106 13.32C23.784 13.3333 23.5573 13.34 23.3306 13.34L22.1106 13.32C22.1106 13.8667 22.164 14.9467 22.2706 16.56C22.3906 18.1733 22.484 19.22 22.5506 19.7C22.6173 20.1667 22.6306 20.4733 22.5906 20.62C22.5506 20.7533 22.4773 20.8467 22.3706 20.9C22.1973 20.98 21.964 21.02 21.6706 21.02C21.3773 21.02 21.204 20.86 21.1506 20.54C20.884 18.7933 20.704 16.3933 20.6106 13.34C20.4906 13.3533 20.0306 13.36 19.2306 13.36C18.4306 13.36 18.0306 13.1267 18.0306 12.66C18.0306 11.9933 18.404 11.66 19.1506 11.66ZM28.4056 11.74C29.1123 11.74 29.7856 11.9467 30.4256 12.36C31.0656 12.7733 31.3856 13.2867 31.3856 13.9C31.3856 14.5 31.1256 15.0867 30.6056 15.66C30.0856 16.22 29.3923 16.56 28.5256 16.68C28.1523 16.7333 27.5923 16.76 26.8456 16.76C26.9923 17.8933 27.279 18.64 27.7056 19C27.839 19.1467 28.019 19.22 28.2456 19.22C29.0723 19.22 29.7656 18.96 30.3256 18.44C30.8856 17.9067 31.2856 17.64 31.5256 17.64C31.6323 17.64 31.7923 17.74 32.0056 17.94C32.219 18.14 32.3256 18.3267 32.3256 18.5C32.3256 18.8467 31.9056 19.3467 31.0656 20C30.6923 20.3067 30.239 20.5667 29.7056 20.78C29.1856 20.98 28.699 21.08 28.2456 21.08C27.0856 21.08 26.2323 20.3333 25.6856 18.84C25.339 17.92 25.1656 16.9067 25.1656 15.8C25.1656 14.6933 25.4256 13.74 25.9456 12.94C26.4656 12.14 27.2856 11.74 28.4056 11.74ZM28.5056 13.12C27.999 13.12 27.5656 13.4067 27.2056 13.98C27.0723 14.18 26.9456 14.6333 26.8256 15.34C28.6923 15.34 29.6256 14.88 29.6256 13.96C29.6256 13.4 29.2523 13.12 28.5056 13.12ZM36.0744 18.08L36.0944 20.14C36.0944 20.38 35.981 20.6 35.7544 20.8C35.541 21 35.3277 21.1 35.1144 21.1C34.8077 21.1 34.6144 20.86 34.5344 20.38C34.521 20.2733 34.4677 19.3 34.3744 17.46C34.281 15.6067 34.101 14.1533 33.8344 13.1C33.7144 12.5933 33.6544 12.2933 33.6544 12.2C33.6544 11.76 33.921 11.54 34.4544 11.54C34.681 11.54 34.861 11.6267 34.9944 11.8C35.1277 11.9733 35.2077 12.1533 35.2344 12.34C35.2744 12.5133 35.3077 12.7533 35.3344 13.06C35.361 13.3667 35.381 13.56 35.3944 13.64C35.6744 12.9733 36.0944 12.4733 36.6544 12.14C37.2144 11.8067 37.8277 11.64 38.4944 11.64C39.5877 11.64 40.1344 11.92 40.1344 12.48C40.1344 12.76 40.0344 12.9867 39.8344 13.16C39.6477 13.32 39.4277 13.4 39.1744 13.4C38.041 13.4 37.241 13.76 36.7744 14.48C36.3077 15.2 36.0744 16.4 36.0744 18.08Z" fill="black"/>
</svg>
