<svg width="175" height="27" viewBox="0 0 175 27" fill="none" xmlns="http://www.w3.org/2000/svg">
<mask id="path-1-outside-1_428_2" maskUnits="userSpaceOnUse" x="-1" y="-1" width="177" height="29" fill="black">
<rect fill="white" x="-1" y="-1" width="177" height="29"/>
<path d="M16.108 25.604C13.636 26.108 11.416 26.36 9.448 26.36C7.48 26.36 5.884 26.096 4.66 25.568C3.46 25.016 2.524 24.176 1.852 23.048C1.204 21.896 0.748 20.588 0.484 19.124C0.244 17.636 0.124 15.788 0.124 13.58C0.124 11.372 0.244 9.524 0.484 8.036C0.748 6.524 1.204 5.192 1.852 4.04C2.524 2.888 3.46 2.048 4.66 1.52C5.86 0.991999 7.42 0.727999 9.34 0.727999C11.26 0.727999 13.516 0.991999 16.108 1.52L16 3.86C13.576 3.428 11.416 3.212 9.52 3.212C6.88 3.212 5.128 4.004 4.264 5.588C3.424 7.148 3.004 9.824 3.004 13.616C3.004 15.512 3.076 17.036 3.22 18.188C3.388 19.34 3.7 20.384 4.156 21.32C4.612 22.232 5.272 22.892 6.136 23.3C7.024 23.684 8.308 23.876 9.988 23.876C11.692 23.876 13.696 23.66 16 23.228L16.108 25.604ZM20.0334 26V8H22.6974V10.448C24.7854 9.008 26.9814 8.06 29.2854 7.604V10.34C28.2774 10.532 27.2214 10.832 26.1174 11.24C25.0374 11.648 24.2094 12.008 23.6334 12.32L22.7334 12.788V26H20.0334ZM44.3672 23.768L45.4112 23.66L45.4832 25.784C42.7472 26.168 40.4072 26.36 38.4632 26.36C35.8712 26.36 34.0352 25.616 32.9552 24.128C31.8752 22.616 31.3352 20.276 31.3352 17.108C31.3352 10.796 33.8432 7.64 38.8592 7.64C41.2832 7.64 43.0952 8.324 44.2952 9.692C45.4952 11.036 46.0952 13.16 46.0952 16.064L45.9512 18.116H34.0712C34.0712 20.108 34.4312 21.584 35.1512 22.544C35.8712 23.504 37.1192 23.984 38.8952 23.984C40.6952 23.984 42.5192 23.912 44.3672 23.768ZM43.3952 15.956C43.3952 13.748 43.0352 12.188 42.3152 11.276C41.6192 10.364 40.4672 9.908 38.8592 9.908C37.2752 9.908 36.0752 10.388 35.2592 11.348C34.4672 12.308 34.0592 13.844 34.0352 15.956H43.3952ZM63.0109 13.436V22.652C63.0829 23.54 63.7789 24.068 65.0989 24.236L64.9909 26.36C63.0949 26.36 61.6669 25.88 60.7069 24.92C58.5469 25.88 56.3869 26.36 54.2269 26.36C52.5709 26.36 51.3109 25.892 50.4469 24.956C49.5829 24.02 49.1509 22.676 49.1509 20.924C49.1509 19.172 49.5949 17.888 50.4829 17.072C51.3709 16.232 52.7629 15.716 54.6589 15.524L60.3109 14.984V13.436C60.3109 12.212 60.0469 11.336 59.5189 10.808C58.9909 10.28 58.2709 10.016 57.3589 10.016C55.4389 10.016 53.4469 10.136 51.3829 10.376L50.2669 10.484L50.1589 8.432C52.7989 7.904 55.1389 7.64 57.1789 7.64C59.2189 7.64 60.6949 8.108 61.6069 9.044C62.5429 9.98 63.0109 11.444 63.0109 13.436ZM51.9229 20.78C51.9229 22.988 52.8349 24.092 54.6589 24.092C56.2909 24.092 57.8989 23.816 59.4829 23.264L60.3109 22.976V17.036L54.9829 17.54C53.9029 17.636 53.1229 17.948 52.6429 18.476C52.1629 19.004 51.9229 19.772 51.9229 20.78ZM77.6621 10.34H71.9381V18.944C71.9381 21.008 72.0821 22.364 72.3701 23.012C72.6821 23.66 73.4021 23.984 74.5301 23.984L77.7341 23.768L77.9141 26C76.3061 26.264 75.0821 26.396 74.2421 26.396C72.3701 26.396 71.0741 25.94 70.3541 25.028C69.6341 24.116 69.2741 22.376 69.2741 19.808V10.34H66.7181V8H69.2741V2.492H71.9381V8H77.6621V10.34ZM93.1992 23.768L94.2432 23.66L94.3152 25.784C91.5792 26.168 89.2392 26.36 87.2952 26.36C84.7032 26.36 82.8672 25.616 81.7872 24.128C80.7072 22.616 80.1672 20.276 80.1672 17.108C80.1672 10.796 82.6752 7.64 87.6912 7.64C90.1152 7.64 91.9272 8.324 93.1272 9.692C94.3272 11.036 94.9272 13.16 94.9272 16.064L94.7832 18.116H82.9032C82.9032 20.108 83.2632 21.584 83.9832 22.544C84.7032 23.504 85.9512 23.984 87.7272 23.984C89.5272 23.984 91.3512 23.912 93.1992 23.768ZM92.2272 15.956C92.2272 13.748 91.8672 12.188 91.1472 11.276C90.4512 10.364 89.2992 9.908 87.6912 9.908C86.1072 9.908 84.9072 10.388 84.0912 11.348C83.2992 12.308 82.8912 13.844 82.8672 15.956H92.2272ZM110.105 18.512C110.105 22.112 112.049 23.912 115.937 23.912C117.953 23.912 119.465 23.492 120.473 22.652C121.505 21.788 122.021 20.408 122.021 18.512V1.088H124.757V18.44C124.757 21.224 124.013 23.24 122.525 24.488C121.061 25.736 118.889 26.36 116.009 26.36C113.129 26.36 110.957 25.736 109.493 24.488C108.053 23.24 107.333 21.224 107.333 18.44V1.088H110.105V18.512ZM135.689 10.052C133.073 10.052 131.765 10.964 131.765 12.788C131.765 13.628 132.065 14.228 132.665 14.588C133.265 14.924 134.633 15.284 136.769 15.668C138.905 16.028 140.417 16.544 141.305 17.216C142.193 17.888 142.637 19.148 142.637 20.996C142.637 22.844 142.037 24.2 140.837 25.064C139.661 25.928 137.933 26.36 135.653 26.36C134.165 26.36 132.413 26.192 130.397 25.856L129.317 25.676L129.461 23.336C132.197 23.744 134.261 23.948 135.653 23.948C137.045 23.948 138.101 23.732 138.821 23.3C139.565 22.844 139.937 22.1 139.937 21.068C139.937 20.012 139.625 19.304 139.001 18.944C138.377 18.56 137.009 18.2 134.897 17.864C132.785 17.528 131.285 17.036 130.397 16.388C129.509 15.74 129.065 14.54 129.065 12.788C129.065 11.036 129.677 9.74 130.901 8.9C132.149 8.06 133.697 7.64 135.545 7.64C137.009 7.64 138.845 7.808 141.053 8.144L142.061 8.324L141.989 10.628C139.325 10.244 137.225 10.052 135.689 10.052ZM159.012 23.768L160.056 23.66L160.128 25.784C157.392 26.168 155.052 26.36 153.108 26.36C150.516 26.36 148.68 25.616 147.6 24.128C146.52 22.616 145.98 20.276 145.98 17.108C145.98 10.796 148.488 7.64 153.504 7.64C155.928 7.64 157.74 8.324 158.94 9.692C160.14 11.036 160.74 13.16 160.74 16.064L160.596 18.116H148.716C148.716 20.108 149.076 21.584 149.796 22.544C150.516 23.504 151.764 23.984 153.54 23.984C155.34 23.984 157.164 23.912 159.012 23.768ZM158.04 15.956C158.04 13.748 157.68 12.188 156.96 11.276C156.264 10.364 155.112 9.908 153.504 9.908C151.92 9.908 150.72 10.388 149.904 11.348C149.112 12.308 148.704 13.844 148.68 15.956H158.04ZM164.947 26V8H167.611V10.448C169.699 9.008 171.895 8.06 174.199 7.604V10.34C173.191 10.532 172.135 10.832 171.031 11.24C169.951 11.648 169.123 12.008 168.547 12.32L167.647 12.788V26H164.947Z"/>
</mask>
<path d="M16.108 25.604C13.636 26.108 11.416 26.36 9.448 26.36C7.48 26.36 5.884 26.096 4.66 25.568C3.46 25.016 2.524 24.176 1.852 23.048C1.204 21.896 0.748 20.588 0.484 19.124C0.244 17.636 0.124 15.788 0.124 13.58C0.124 11.372 0.244 9.524 0.484 8.036C0.748 6.524 1.204 5.192 1.852 4.04C2.524 2.888 3.46 2.048 4.66 1.52C5.86 0.991999 7.42 0.727999 9.34 0.727999C11.26 0.727999 13.516 0.991999 16.108 1.52L16 3.86C13.576 3.428 11.416 3.212 9.52 3.212C6.88 3.212 5.128 4.004 4.264 5.588C3.424 7.148 3.004 9.824 3.004 13.616C3.004 15.512 3.076 17.036 3.22 18.188C3.388 19.34 3.7 20.384 4.156 21.32C4.612 22.232 5.272 22.892 6.136 23.3C7.024 23.684 8.308 23.876 9.988 23.876C11.692 23.876 13.696 23.66 16 23.228L16.108 25.604ZM20.0334 26V8H22.6974V10.448C24.7854 9.008 26.9814 8.06 29.2854 7.604V10.34C28.2774 10.532 27.2214 10.832 26.1174 11.24C25.0374 11.648 24.2094 12.008 23.6334 12.32L22.7334 12.788V26H20.0334ZM44.3672 23.768L45.4112 23.66L45.4832 25.784C42.7472 26.168 40.4072 26.36 38.4632 26.36C35.8712 26.36 34.0352 25.616 32.9552 24.128C31.8752 22.616 31.3352 20.276 31.3352 17.108C31.3352 10.796 33.8432 7.64 38.8592 7.64C41.2832 7.64 43.0952 8.324 44.2952 9.692C45.4952 11.036 46.0952 13.16 46.0952 16.064L45.9512 18.116H34.0712C34.0712 20.108 34.4312 21.584 35.1512 22.544C35.8712 23.504 37.1192 23.984 38.8952 23.984C40.6952 23.984 42.5192 23.912 44.3672 23.768ZM43.3952 15.956C43.3952 13.748 43.0352 12.188 42.3152 11.276C41.6192 10.364 40.4672 9.908 38.8592 9.908C37.2752 9.908 36.0752 10.388 35.2592 11.348C34.4672 12.308 34.0592 13.844 34.0352 15.956H43.3952ZM63.0109 13.436V22.652C63.0829 23.54 63.7789 24.068 65.0989 24.236L64.9909 26.36C63.0949 26.36 61.6669 25.88 60.7069 24.92C58.5469 25.88 56.3869 26.36 54.2269 26.36C52.5709 26.36 51.3109 25.892 50.4469 24.956C49.5829 24.02 49.1509 22.676 49.1509 20.924C49.1509 19.172 49.5949 17.888 50.4829 17.072C51.3709 16.232 52.7629 15.716 54.6589 15.524L60.3109 14.984V13.436C60.3109 12.212 60.0469 11.336 59.5189 10.808C58.9909 10.28 58.2709 10.016 57.3589 10.016C55.4389 10.016 53.4469 10.136 51.3829 10.376L50.2669 10.484L50.1589 8.432C52.7989 7.904 55.1389 7.64 57.1789 7.64C59.2189 7.64 60.6949 8.108 61.6069 9.044C62.5429 9.98 63.0109 11.444 63.0109 13.436ZM51.9229 20.78C51.9229 22.988 52.8349 24.092 54.6589 24.092C56.2909 24.092 57.8989 23.816 59.4829 23.264L60.3109 22.976V17.036L54.9829 17.54C53.9029 17.636 53.1229 17.948 52.6429 18.476C52.1629 19.004 51.9229 19.772 51.9229 20.78ZM77.6621 10.34H71.9381V18.944C71.9381 21.008 72.0821 22.364 72.3701 23.012C72.6821 23.66 73.4021 23.984 74.5301 23.984L77.7341 23.768L77.9141 26C76.3061 26.264 75.0821 26.396 74.2421 26.396C72.3701 26.396 71.0741 25.94 70.3541 25.028C69.6341 24.116 69.2741 22.376 69.2741 19.808V10.34H66.7181V8H69.2741V2.492H71.9381V8H77.6621V10.34ZM93.1992 23.768L94.2432 23.66L94.3152 25.784C91.5792 26.168 89.2392 26.36 87.2952 26.36C84.7032 26.36 82.8672 25.616 81.7872 24.128C80.7072 22.616 80.1672 20.276 80.1672 17.108C80.1672 10.796 82.6752 7.64 87.6912 7.64C90.1152 7.64 91.9272 8.324 93.1272 9.692C94.3272 11.036 94.9272 13.16 94.9272 16.064L94.7832 18.116H82.9032C82.9032 20.108 83.2632 21.584 83.9832 22.544C84.7032 23.504 85.9512 23.984 87.7272 23.984C89.5272 23.984 91.3512 23.912 93.1992 23.768ZM92.2272 15.956C92.2272 13.748 91.8672 12.188 91.1472 11.276C90.4512 10.364 89.2992 9.908 87.6912 9.908C86.1072 9.908 84.9072 10.388 84.0912 11.348C83.2992 12.308 82.8912 13.844 82.8672 15.956H92.2272ZM110.105 18.512C110.105 22.112 112.049 23.912 115.937 23.912C117.953 23.912 119.465 23.492 120.473 22.652C121.505 21.788 122.021 20.408 122.021 18.512V1.088H124.757V18.44C124.757 21.224 124.013 23.24 122.525 24.488C121.061 25.736 118.889 26.36 116.009 26.36C113.129 26.36 110.957 25.736 109.493 24.488C108.053 23.24 107.333 21.224 107.333 18.44V1.088H110.105V18.512ZM135.689 10.052C133.073 10.052 131.765 10.964 131.765 12.788C131.765 13.628 132.065 14.228 132.665 14.588C133.265 14.924 134.633 15.284 136.769 15.668C138.905 16.028 140.417 16.544 141.305 17.216C142.193 17.888 142.637 19.148 142.637 20.996C142.637 22.844 142.037 24.2 140.837 25.064C139.661 25.928 137.933 26.36 135.653 26.36C134.165 26.36 132.413 26.192 130.397 25.856L129.317 25.676L129.461 23.336C132.197 23.744 134.261 23.948 135.653 23.948C137.045 23.948 138.101 23.732 138.821 23.3C139.565 22.844 139.937 22.1 139.937 21.068C139.937 20.012 139.625 19.304 139.001 18.944C138.377 18.56 137.009 18.2 134.897 17.864C132.785 17.528 131.285 17.036 130.397 16.388C129.509 15.74 129.065 14.54 129.065 12.788C129.065 11.036 129.677 9.74 130.901 8.9C132.149 8.06 133.697 7.64 135.545 7.64C137.009 7.64 138.845 7.808 141.053 8.144L142.061 8.324L141.989 10.628C139.325 10.244 137.225 10.052 135.689 10.052ZM159.012 23.768L160.056 23.66L160.128 25.784C157.392 26.168 155.052 26.36 153.108 26.36C150.516 26.36 148.68 25.616 147.6 24.128C146.52 22.616 145.98 20.276 145.98 17.108C145.98 10.796 148.488 7.64 153.504 7.64C155.928 7.64 157.74 8.324 158.94 9.692C160.14 11.036 160.74 13.16 160.74 16.064L160.596 18.116H148.716C148.716 20.108 149.076 21.584 149.796 22.544C150.516 23.504 151.764 23.984 153.54 23.984C155.34 23.984 157.164 23.912 159.012 23.768ZM158.04 15.956C158.04 13.748 157.68 12.188 156.96 11.276C156.264 10.364 155.112 9.908 153.504 9.908C151.92 9.908 150.72 10.388 149.904 11.348C149.112 12.308 148.704 13.844 148.68 15.956H158.04ZM164.947 26V8H167.611V10.448C169.699 9.008 171.895 8.06 174.199 7.604V10.34C173.191 10.532 172.135 10.832 171.031 11.24C169.951 11.648 169.123 12.008 168.547 12.32L167.647 12.788V26H164.947Z" fill="#666666"/>
<path d="M16.108 25.604L16.3078 26.5838L17.1458 26.413L17.107 25.5586L16.108 25.604ZM4.66 25.568L4.24209 26.4765L4.25294 26.4815L4.26391 26.4862L4.66 25.568ZM1.852 23.048L0.980425 23.5383L0.986528 23.5491L0.992899 23.5598L1.852 23.048ZM0.484 19.124L-0.503241 19.2832L-0.501768 19.2924L-0.500127 19.3015L0.484 19.124ZM0.484 8.036L-0.501179 7.86398L-0.503241 7.87677L0.484 8.036ZM1.852 4.04L0.988221 3.53613L0.98427 3.5429L0.980425 3.54974L1.852 4.04ZM4.66 1.52L5.06274 2.43532L5.06274 2.43531L4.66 1.52ZM16.108 1.52L17.1069 1.5661L17.1464 0.71099L16.3076 0.540123L16.108 1.52ZM16 3.86L15.8245 4.84449L16.9464 5.04442L16.9989 3.9061L16 3.86ZM4.264 5.588L3.38609 5.10914L3.38353 5.1139L4.264 5.588ZM3.22 18.188L2.22772 18.312L2.22899 18.3222L2.23047 18.3323L3.22 18.188ZM4.156 21.32L3.25696 21.758L3.26157 21.7672L4.156 21.32ZM6.136 23.3L5.70899 24.2042L5.72393 24.2113L5.73909 24.2179L6.136 23.3ZM16 23.228L16.999 23.1826L16.9467 22.0331L15.8157 22.2451L16 23.228ZM15.9082 24.6242C13.4846 25.1183 11.3332 25.36 9.448 25.36V27.36C11.4988 27.36 13.7874 27.0977 16.3078 26.5838L15.9082 24.6242ZM9.448 25.36C7.55699 25.36 6.11017 25.1045 5.05609 24.6498L4.26391 26.4862C5.65784 27.0875 7.40301 27.36 9.448 27.36V25.36ZM5.07791 24.6595C4.06053 24.1915 3.27889 23.4893 2.7111 22.5362L0.992899 23.5598C1.76911 24.8627 2.85947 25.8405 4.24209 26.4765L5.07791 24.6595ZM2.72358 22.5577C2.13668 21.5144 1.71478 20.3144 1.46813 18.9465L-0.500127 19.3015C-0.218783 20.8616 0.271316 22.2776 0.980425 23.5383L2.72358 22.5577ZM1.47124 18.9648C1.24265 17.5475 1.124 15.7568 1.124 13.58H-0.876C-0.876 15.8192 -0.754648 17.7245 -0.503241 19.2832L1.47124 18.9648ZM1.124 13.58C1.124 11.4032 1.24265 9.61251 1.47124 8.19523L-0.503241 7.87677C-0.754648 9.43549 -0.876 11.3408 -0.876 13.58H1.124ZM1.4691 8.208C1.71667 6.79008 2.13936 5.56887 2.72358 4.53026L0.980425 3.54974C0.26864 4.81513 -0.22067 6.25792 -0.501097 7.864L1.4691 8.208ZM2.71578 4.54387C3.28336 3.57087 4.05956 2.87671 5.06274 2.43532L4.25726 0.604684C2.86044 1.21928 1.76464 2.20513 0.988221 3.53613L2.71578 4.54387ZM5.06274 2.43531C6.09108 1.98284 7.49963 1.728 9.34 1.728V-0.272001C7.34037 -0.272001 5.62892 0.00115538 4.25726 0.604685L5.06274 2.43531ZM9.34 1.728C11.1732 1.728 13.3594 1.98063 15.9084 2.49988L16.3076 0.540123C13.6726 0.00336482 11.3468 -0.272001 9.34 -0.272001V1.728ZM15.1091 1.47389L15.0011 3.81389L16.9989 3.9061L17.1069 1.5661L15.1091 1.47389ZM16.1755 2.87551C13.7097 2.43606 11.4892 2.212 9.52 2.212V4.212C11.3428 4.212 13.4423 4.41994 15.8245 4.84449L16.1755 2.87551ZM9.52 2.212C6.70219 2.212 4.49999 3.06703 3.3861 5.10915L5.1419 6.06685C5.75601 4.94097 7.05781 4.212 9.52 4.212V2.212ZM3.38353 5.1139C2.41641 6.90998 2.004 9.80658 2.004 13.616H4.004C4.004 9.84142 4.43159 7.38602 5.14447 6.0621L3.38353 5.1139ZM2.004 13.616C2.004 15.5311 2.0764 17.1014 2.22772 18.312L4.21228 18.064C4.0756 16.9706 4.004 15.4929 4.004 13.616H2.004ZM2.23047 18.3323C2.4116 19.5744 2.7509 20.7191 3.25701 21.758L5.05499 20.882C4.6491 20.0489 4.3644 19.1056 4.20953 18.0437L2.23047 18.3323ZM3.26157 21.7672C3.81057 22.8652 4.62829 23.6939 5.70899 24.2042L6.56301 22.3958C5.91571 22.0901 5.41343 21.5988 5.05043 20.8728L3.26157 21.7672ZM5.73909 24.2179C6.81256 24.6821 8.25738 24.876 9.988 24.876V22.876C8.35862 22.876 7.23545 22.6859 6.53291 22.3821L5.73909 24.2179ZM9.988 24.876C11.7719 24.876 13.8404 24.6504 16.1843 24.2109L15.8157 22.2451C13.5516 22.6696 11.6121 22.876 9.988 22.876V24.876ZM15.001 23.2734L15.109 25.6494L17.107 25.5586L16.999 23.1826L15.001 23.2734ZM20.0334 26H19.0334V27H20.0334V26ZM20.0334 8V7H19.0334V8H20.0334ZM22.6974 8H23.6974V7H22.6974V8ZM22.6974 10.448H21.6974V12.3524L23.2651 11.2712L22.6974 10.448ZM29.2854 7.604H30.2854V6.38668L29.0913 6.62303L29.2854 7.604ZM29.2854 10.34L29.4725 11.3223L30.2854 11.1675V10.34H29.2854ZM26.1174 11.24L25.7707 10.302L25.764 10.3045L26.1174 11.24ZM23.6334 12.32L24.0948 13.2072L24.1023 13.2033L24.1097 13.1993L23.6334 12.32ZM22.7334 12.788L22.2721 11.9008L21.7334 12.1809V12.788H22.7334ZM22.7334 26V27H23.7334V26H22.7334ZM21.0334 26V8H19.0334V26H21.0334ZM20.0334 9H22.6974V7H20.0334V9ZM21.6974 8V10.448H23.6974V8H21.6974ZM23.2651 11.2712C25.2498 9.90249 27.32 9.01239 29.4796 8.58497L29.0913 6.62303C26.6428 7.10761 24.321 8.11351 22.1297 9.62479L23.2651 11.2712ZM28.2854 7.604V10.34H30.2854V7.604H28.2854ZM29.0983 9.35766C28.0288 9.56138 26.9192 9.87757 25.7708 10.302L26.4641 12.178C27.5236 11.7864 28.5261 11.5026 29.4725 11.3223L29.0983 9.35766ZM25.764 10.3045C24.6684 10.7184 23.7917 11.097 23.1571 11.4407L24.1097 13.1993C24.6271 12.919 25.4064 12.5776 26.4708 12.1755L25.764 10.3045ZM23.1721 11.4328L22.2721 11.9008L23.1948 13.6752L24.0948 13.2072L23.1721 11.4328ZM21.7334 12.788V26H23.7334V12.788H21.7334ZM22.7334 25H20.0334V27H22.7334V25ZM44.3672 23.768L44.4448 24.765L44.4575 24.764L44.4701 24.7627L44.3672 23.768ZM45.4112 23.66L46.4106 23.6261L46.3743 22.555L45.3083 22.6653L45.4112 23.66ZM45.4832 25.784L45.6221 26.7743L46.5131 26.6493L46.4826 25.7501L45.4832 25.784ZM32.9552 24.128L32.1414 24.7093L32.1459 24.7154L32.9552 24.128ZM44.2952 9.692L43.5434 10.3515L43.5492 10.358L44.2952 9.692ZM46.0952 16.064L47.0927 16.134L47.0952 16.099V16.064H46.0952ZM45.9512 18.116V19.116H46.8834L46.9487 18.186L45.9512 18.116ZM34.0712 18.116V17.116H33.0712V18.116H34.0712ZM35.1512 22.544L34.3512 23.144L34.3512 23.144L35.1512 22.544ZM43.3952 15.956V16.956H44.3952V15.956H43.3952ZM42.3152 11.276L41.5202 11.8827L41.5252 11.8892L41.5303 11.8956L42.3152 11.276ZM35.2592 11.348L34.4972 10.7004L34.4925 10.7059L34.4878 10.7116L35.2592 11.348ZM34.0352 15.956L33.0352 15.9446L33.0237 16.956H34.0352V15.956ZM44.4701 24.7627L45.5141 24.6547L45.3083 22.6653L44.2643 22.7733L44.4701 24.7627ZM44.4117 23.6939L44.4837 25.8179L46.4826 25.7501L46.4106 23.6261L44.4117 23.6939ZM45.3442 24.7937C42.6367 25.1737 40.3458 25.36 38.4632 25.36V27.36C40.4685 27.36 42.8576 27.1623 45.6221 26.7743L45.3442 24.7937ZM38.4632 25.36C36.0512 25.36 34.5868 24.6737 33.7645 23.5406L32.1459 24.7154C33.4835 26.5583 35.6911 27.36 38.4632 27.36V25.36ZM33.7689 23.5468C32.869 22.2869 32.3352 20.1993 32.3352 17.108H30.3352C30.3352 20.3527 30.8814 22.9451 32.1414 24.7092L33.7689 23.5468ZM32.3352 17.108C32.3352 14.0577 32.9456 11.9548 33.9991 10.6291C35.0176 9.34738 36.5742 8.64 38.8592 8.64V6.64C36.1281 6.64 33.9227 7.51062 32.4333 9.38485C30.9787 11.2152 30.3352 13.8463 30.3352 17.108H32.3352ZM38.8592 8.64C41.0962 8.64 42.591 9.26569 43.5434 10.3514L45.0469 9.03256C43.5993 7.38231 41.4702 6.64 38.8592 6.64V8.64ZM43.5492 10.358C44.5109 11.4351 45.0952 13.2638 45.0952 16.064H47.0952C47.0952 13.0562 46.4794 10.6369 45.0411 9.02598L43.5492 10.358ZM45.0976 15.994L44.9536 18.046L46.9487 18.186L47.0927 16.134L45.0976 15.994ZM45.9512 17.116H34.0712V19.116H45.9512V17.116ZM33.0712 18.116C33.0712 20.1942 33.4404 21.9297 34.3512 23.144L35.9512 21.944C35.4219 21.2383 35.0712 20.0218 35.0712 18.116H33.0712ZM34.3512 23.144C35.3378 24.4596 36.9619 24.984 38.8952 24.984V22.984C37.2765 22.984 36.4045 22.5484 35.9512 21.944L34.3512 23.144ZM38.8952 24.984C40.7218 24.984 42.5718 24.9109 44.4448 24.765L44.2895 22.771C42.4666 22.9131 40.6685 22.984 38.8952 22.984V24.984ZM44.3952 15.956C44.3952 13.6978 44.0386 11.8452 43.1 10.6564L41.5303 11.8956C42.0317 12.5308 42.3952 13.7982 42.3952 15.956H44.3952ZM43.1101 10.6693C42.1567 9.42007 40.6461 8.908 38.8592 8.908V10.908C40.2883 10.908 41.0816 11.3079 41.5202 11.8827L43.1101 10.6693ZM38.8592 8.908C37.0635 8.908 35.5504 9.46128 34.4972 10.7004L36.0211 11.9956C36.5999 11.3147 37.4868 10.908 38.8592 10.908V8.908ZM34.4878 10.7116C33.4793 11.934 33.0602 13.7493 33.0352 15.9446L35.0351 15.9674C35.0581 13.9387 35.455 12.682 36.0305 11.9844L34.4878 10.7116ZM34.0352 16.956H43.3952V14.956H34.0352V16.956ZM63.0109 22.652H62.0109V22.6925L62.0142 22.7328L63.0109 22.652ZM65.0989 24.236L66.0976 24.2868L66.1447 23.361L65.2252 23.244L65.0989 24.236ZM64.9909 26.36V27.36H65.9414L65.9896 26.4108L64.9909 26.36ZM60.7069 24.92L61.414 24.2129L60.9284 23.7273L60.3008 24.0062L60.7069 24.92ZM50.4469 24.956L51.1817 24.2777L51.1817 24.2777L50.4469 24.956ZM50.4829 17.072L51.1596 17.8083L51.1649 17.8034L51.1701 17.7985L50.4829 17.072ZM54.6589 15.524L54.5638 14.5285L54.5582 14.5291L54.6589 15.524ZM60.3109 14.984L60.406 15.9795L61.3109 15.893V14.984H60.3109ZM59.5189 10.808L58.8118 11.5151L58.8118 11.5151L59.5189 10.808ZM51.3829 10.376L51.4793 11.3713L51.4889 11.3704L51.4984 11.3693L51.3829 10.376ZM50.2669 10.484L49.2683 10.5366L49.3232 11.58L50.3633 11.4793L50.2669 10.484ZM50.1589 8.432L49.9628 7.45142L49.1149 7.62101L49.1603 8.48456L50.1589 8.432ZM61.6069 9.044L60.8906 9.74192L60.8998 9.75111L61.6069 9.044ZM59.4829 23.264L59.1544 22.3195L59.1539 22.3197L59.4829 23.264ZM60.3109 22.976L60.6395 23.9205L61.3109 23.6869V22.976H60.3109ZM60.3109 17.036H61.3109V15.9369L60.2168 16.0404L60.3109 17.036ZM54.9829 17.54L55.0715 18.5361L55.0771 18.5356L54.9829 17.54ZM52.6429 18.476L53.3829 19.1487L53.3829 19.1487L52.6429 18.476ZM62.0109 13.436V22.652H64.0109V13.436H62.0109ZM62.0142 22.7328C62.0727 23.454 62.4028 24.0709 62.9826 24.5107C63.5246 24.9219 64.2226 25.1325 64.9727 25.228L65.2252 23.244C64.6553 23.1715 64.3453 23.0341 64.1913 22.9173C64.0751 22.8291 64.0212 22.738 64.0077 22.5712L62.0142 22.7328ZM64.1002 24.1852L63.9922 26.3092L65.9896 26.4108L66.0976 24.2868L64.1002 24.1852ZM64.9909 25.36C63.2533 25.36 62.1225 24.9213 61.414 24.2129L59.9998 25.6271C61.2114 26.8387 62.9366 27.36 64.9909 27.36V25.36ZM60.3008 24.0062C58.2565 24.9148 56.2343 25.36 54.2269 25.36V27.36C56.5396 27.36 58.8374 26.8452 61.1131 25.8338L60.3008 24.0062ZM54.2269 25.36C52.7616 25.36 51.8038 24.9516 51.1817 24.2777L49.7121 25.6343C50.8181 26.8324 52.3802 27.36 54.2269 27.36V25.36ZM51.1817 24.2777C50.5434 23.5862 50.1509 22.5199 50.1509 20.924H48.1509C48.1509 22.8321 48.6225 24.4538 49.7121 25.6343L51.1817 24.2777ZM50.1509 20.924C50.1509 19.3234 50.5563 18.3627 51.1596 17.8083L49.8063 16.3357C48.6336 17.4133 48.1509 19.0206 48.1509 20.924H50.1509ZM51.1701 17.7985C51.83 17.1743 52.9681 16.7003 54.7597 16.5189L54.5582 14.5291C52.5578 14.7317 50.9119 15.2897 49.7957 16.3455L51.1701 17.7985ZM54.754 16.5195L60.406 15.9795L60.2158 13.9885L54.5638 14.5285L54.754 16.5195ZM61.3109 14.984V13.436H59.3109V14.984H61.3109ZM61.3109 13.436C61.3109 12.1082 61.0311 10.906 60.226 10.1009L58.8118 11.5151C59.0627 11.766 59.3109 12.3158 59.3109 13.436H61.3109ZM60.226 10.1009C59.4705 9.34536 58.4737 9.016 57.3589 9.016V11.016C58.0682 11.016 58.5114 11.2146 58.8118 11.5151L60.226 10.1009ZM57.3589 9.016C55.3973 9.016 53.3667 9.13859 51.2674 9.38269L51.4984 11.3693C53.5272 11.1334 55.4805 11.016 57.3589 11.016V9.016ZM51.2866 9.38065L50.1706 9.48865L50.3633 11.4793L51.4793 11.3713L51.2866 9.38065ZM51.2656 10.4314L51.1576 8.37944L49.1603 8.48456L49.2683 10.5366L51.2656 10.4314ZM50.3551 9.41258C52.9496 8.89366 55.2218 8.64 57.1789 8.64V6.64C55.0561 6.64 52.6482 6.91434 49.9628 7.45142L50.3551 9.41258ZM57.1789 8.64C59.0969 8.64 60.2497 9.08399 60.8907 9.74186L62.3232 8.34614C61.1402 7.13201 59.3409 6.64 57.1789 6.64V8.64ZM60.8998 9.75111C61.5719 10.4232 62.0109 11.5771 62.0109 13.436H64.0109C64.0109 11.3109 63.5139 9.53679 62.314 8.33689L60.8998 9.75111ZM50.9229 20.78C50.9229 21.9966 51.1703 23.095 51.836 23.9009C52.5319 24.7433 53.5371 25.092 54.6589 25.092V23.092C53.9568 23.092 53.594 22.8887 53.3779 22.6271C53.1316 22.329 52.9229 21.7714 52.9229 20.78H50.9229ZM54.6589 25.092C56.4061 25.092 58.1252 24.7961 59.812 24.2083L59.1539 22.3197C57.6727 22.8359 56.1758 23.092 54.6589 23.092V25.092ZM59.8115 24.2085L60.6395 23.9205L59.9824 22.0315L59.1544 22.3195L59.8115 24.2085ZM61.3109 22.976V17.036H59.3109V22.976H61.3109ZM60.2168 16.0404L54.8888 16.5444L55.0771 18.5356L60.4051 18.0316L60.2168 16.0404ZM54.8944 16.5439C53.6905 16.6509 52.6211 17.0134 51.903 17.8033L53.3829 19.1487C53.6247 18.8826 54.1154 18.6211 55.0715 18.5361L54.8944 16.5439ZM51.903 17.8033C51.1976 18.5792 50.9229 19.6256 50.9229 20.78H52.9229C52.9229 19.9184 53.1282 19.4288 53.3829 19.1487L51.903 17.8033ZM77.6621 10.34V11.34H78.6621V10.34H77.6621ZM71.9381 10.34V9.34H70.9381V10.34H71.9381ZM72.3701 23.012L71.4563 23.4181L71.4625 23.4321L71.4691 23.4458L72.3701 23.012ZM74.5301 23.984V24.984H74.5638L74.5974 24.9817L74.5301 23.984ZM77.7341 23.768L78.7309 23.6876L78.6515 22.7039L77.6668 22.7703L77.7341 23.768ZM77.9141 26L78.0761 26.9868L78.9849 26.8376L78.9109 25.9196L77.9141 26ZM70.3541 25.028L69.5692 25.6476L69.5692 25.6476L70.3541 25.028ZM69.2741 10.34H70.2741V9.34H69.2741V10.34ZM66.7181 10.34H65.7181V11.34H66.7181V10.34ZM66.7181 8V7H65.7181V8H66.7181ZM69.2741 8V9H70.2741V8H69.2741ZM69.2741 2.492V1.492H68.2741V2.492H69.2741ZM71.9381 2.492H72.9381V1.492H71.9381V2.492ZM71.9381 8H70.9381V9H71.9381V8ZM77.6621 8H78.6621V7H77.6621V8ZM77.6621 9.34H71.9381V11.34H77.6621V9.34ZM70.9381 10.34V18.944H72.9381V10.34H70.9381ZM70.9381 18.944C70.9381 19.9954 70.9746 20.8886 71.0517 21.6146C71.1265 22.3192 71.247 22.9472 71.4563 23.4181L73.2839 22.6059C73.2052 22.4288 73.1097 22.0548 73.0405 21.4034C72.9736 20.7734 72.9381 19.9566 72.9381 18.944H70.9381ZM71.4691 23.4458C72.0315 24.6139 73.2587 24.984 74.5301 24.984V22.984C73.5455 22.984 73.3327 22.7061 73.2711 22.5782L71.4691 23.4458ZM74.5974 24.9817L77.8014 24.7657L77.6668 22.7703L74.4628 22.9863L74.5974 24.9817ZM76.7373 23.8484L76.9173 26.0804L78.9109 25.9196L78.7309 23.6876L76.7373 23.8484ZM77.7521 25.0132C76.1577 25.275 74.9985 25.396 74.2421 25.396V27.396C75.1657 27.396 76.4545 27.253 78.0761 26.9868L77.7521 25.0132ZM74.2421 25.396C72.4897 25.396 71.5779 24.9644 71.139 24.4084L69.5692 25.6476C70.5702 26.9156 72.2505 27.396 74.2421 27.396V25.396ZM71.139 24.4084C70.9129 24.1219 70.687 23.6274 70.5234 22.8364C70.3617 22.0553 70.2741 21.0512 70.2741 19.808H68.2741C68.2741 21.1328 68.3664 22.2827 68.5648 23.2416C68.7612 24.1906 69.0753 25.0221 69.5692 25.6476L71.139 24.4084ZM70.2741 19.808V10.34H68.2741V19.808H70.2741ZM69.2741 9.34H66.7181V11.34H69.2741V9.34ZM67.7181 10.34V8H65.7181V10.34H67.7181ZM66.7181 9H69.2741V7H66.7181V9ZM70.2741 8V2.492H68.2741V8H70.2741ZM69.2741 3.492H71.9381V1.492H69.2741V3.492ZM70.9381 2.492V8H72.9381V2.492H70.9381ZM71.9381 9H77.6621V7H71.9381V9ZM76.6621 8V10.34H78.6621V8H76.6621ZM93.1992 23.768L93.2769 24.765L93.2895 24.764L93.3021 24.7627L93.1992 23.768ZM94.2432 23.66L95.2426 23.6261L95.2063 22.555L94.1403 22.6653L94.2432 23.66ZM94.3152 25.784L94.4542 26.7743L95.3451 26.6493L95.3146 25.7501L94.3152 25.784ZM81.7872 24.128L80.9734 24.7093L80.9779 24.7154L81.7872 24.128ZM93.1272 9.692L92.3754 10.3515L92.3813 10.358L93.1272 9.692ZM94.9272 16.064L95.9247 16.134L95.9272 16.099V16.064H94.9272ZM94.7832 18.116V19.116H95.7155L95.7807 18.186L94.7832 18.116ZM82.9032 18.116V17.116H81.9032V18.116H82.9032ZM83.9832 22.544L83.1832 23.144L83.1832 23.144L83.9832 22.544ZM92.2272 15.956V16.956H93.2272V15.956H92.2272ZM91.1472 11.276L90.3522 11.8827L90.3572 11.8892L90.3623 11.8956L91.1472 11.276ZM84.0912 11.348L83.3292 10.7004L83.3245 10.7059L83.3198 10.7116L84.0912 11.348ZM82.8672 15.956L81.8673 15.9446L81.8558 16.956H82.8672V15.956ZM93.3021 24.7627L94.3461 24.6547L94.1403 22.6653L93.0963 22.7733L93.3021 24.7627ZM93.2438 23.6939L93.3158 25.8179L95.3146 25.7501L95.2426 23.6261L93.2438 23.6939ZM94.1762 24.7937C91.4688 25.1737 89.1779 25.36 87.2952 25.36V27.36C89.3005 27.36 91.6896 27.1623 94.4542 26.7743L94.1762 24.7937ZM87.2952 25.36C84.8832 25.36 83.4189 24.6737 82.5965 23.5406L80.9779 24.7154C82.3155 26.5583 84.5231 27.36 87.2952 27.36V25.36ZM82.6009 23.5468C81.701 22.2869 81.1672 20.1993 81.1672 17.108H79.1672C79.1672 20.3527 79.7134 22.9451 80.9735 24.7092L82.6009 23.5468ZM81.1672 17.108C81.1672 14.0577 81.7777 11.9548 82.8311 10.6291C83.8497 9.34738 85.4062 8.64 87.6912 8.64V6.64C84.9602 6.64 82.7547 7.51062 81.2653 9.38485C79.8107 11.2152 79.1672 13.8463 79.1672 17.108H81.1672ZM87.6912 8.64C89.9282 8.64 91.423 9.26569 92.3754 10.3514L93.8789 9.03256C92.4314 7.38231 90.3022 6.64 87.6912 6.64V8.64ZM92.3813 10.358C93.3429 11.4351 93.9272 13.2638 93.9272 16.064H95.9272C95.9272 13.0562 95.3114 10.6369 93.8731 9.02598L92.3813 10.358ZM93.9296 15.994L93.7856 18.046L95.7807 18.186L95.9247 16.134L93.9296 15.994ZM94.7832 17.116H82.9032V19.116H94.7832V17.116ZM81.9032 18.116C81.9032 20.1942 82.2725 21.9297 83.1832 23.144L84.7832 21.944C84.2539 21.2383 83.9032 20.0218 83.9032 18.116H81.9032ZM83.1832 23.144C84.1699 24.4596 85.7939 24.984 87.7272 24.984V22.984C86.1085 22.984 85.2365 22.5484 84.7832 21.944L83.1832 23.144ZM87.7272 24.984C89.5539 24.984 91.4038 24.9109 93.2769 24.765L93.1215 22.771C91.2986 22.9131 89.5005 22.984 87.7272 22.984V24.984ZM93.2272 15.956C93.2272 13.6978 92.8706 11.8452 91.9321 10.6564L90.3623 11.8956C90.8638 12.5308 91.2272 13.7982 91.2272 15.956H93.2272ZM91.9421 10.6693C90.9888 9.42007 89.4781 8.908 87.6912 8.908V10.908C89.1203 10.908 89.9136 11.3079 90.3522 11.8827L91.9421 10.6693ZM87.6912 8.908C85.8955 8.908 84.3825 9.46128 83.3292 10.7004L84.8531 11.9956C85.4319 11.3147 86.3189 10.908 87.6912 10.908V8.908ZM83.3198 10.7116C82.3113 11.934 81.8922 13.7493 81.8673 15.9446L83.8671 15.9674C83.8902 13.9387 84.2871 12.682 84.8626 11.9844L83.3198 10.7116ZM82.8672 16.956H92.2272V14.956H82.8672V16.956ZM120.473 22.652L121.113 23.4202L121.115 23.4188L120.473 22.652ZM122.021 1.088V0.0879989H121.021V1.088H122.021ZM124.757 1.088H125.757V0.0879989H124.757V1.088ZM122.525 24.488L121.882 23.7218L121.876 23.727L122.525 24.488ZM109.493 24.488L108.838 25.2437L108.844 25.249L109.493 24.488ZM107.333 1.088V0.0879989H106.333V1.088H107.333ZM110.105 1.088H111.105V0.0879989H110.105V1.088ZM109.105 18.512C109.105 20.4867 109.642 22.1459 110.884 23.2958C112.111 24.4321 113.857 24.912 115.937 24.912V22.912C114.129 22.912 112.959 22.4919 112.243 21.8282C111.54 21.1781 111.105 20.1373 111.105 18.512H109.105ZM115.937 24.912C118.067 24.912 119.851 24.472 121.113 23.4202L119.833 21.8838C119.079 22.512 117.839 22.912 115.937 22.912V24.912ZM121.115 23.4188C122.456 22.2965 123.021 20.5779 123.021 18.512H121.021C121.021 20.2381 120.555 21.2795 119.831 21.8852L121.115 23.4188ZM123.021 18.512V1.088H121.021V18.512H123.021ZM122.021 2.088H124.757V0.0879989H122.021V2.088ZM123.757 1.088V18.44H125.757V1.088H123.757ZM123.757 18.44C123.757 21.061 123.059 22.7351 121.883 23.7218L123.168 25.2542C124.967 23.7449 125.757 21.387 125.757 18.44H123.757ZM121.876 23.727C120.665 24.76 118.766 25.36 116.009 25.36V27.36C119.013 27.36 121.458 26.712 123.174 25.249L121.876 23.727ZM116.009 25.36C113.253 25.36 111.354 24.76 110.142 23.727L108.844 25.249C110.561 26.712 113.006 27.36 116.009 27.36V25.36ZM110.148 23.7323C109.013 22.7484 108.333 21.0706 108.333 18.44H106.333C106.333 21.3774 107.093 23.7316 108.838 25.2437L110.148 23.7323ZM108.333 18.44V1.088H106.333V18.44H108.333ZM107.333 2.088H110.105V0.0879989H107.333V2.088ZM109.105 1.088V18.512H111.105V1.088H109.105ZM132.665 14.588L132.151 15.4455L132.164 15.4532L132.177 15.4605L132.665 14.588ZM136.769 15.668L136.592 16.6523L136.603 16.6541L136.769 15.668ZM141.305 17.216L141.909 16.4186L141.909 16.4186L141.305 17.216ZM140.837 25.064L140.253 24.2524L140.245 24.2581L140.837 25.064ZM130.397 25.856L130.233 26.8424L130.397 25.856ZM129.317 25.676L128.319 25.6146L128.264 26.5142L129.153 26.6624L129.317 25.676ZM129.461 23.336L129.609 22.3469L128.53 22.1861L128.463 23.2746L129.461 23.336ZM138.821 23.3L139.336 24.1575L139.344 24.1526L138.821 23.3ZM139.001 18.944L138.477 19.7957L138.489 19.8031L138.502 19.8102L139.001 18.944ZM134.897 17.864L135.054 16.8764L135.054 16.8764L134.897 17.864ZM130.397 16.388L130.987 15.5802L130.987 15.5802L130.397 16.388ZM130.901 8.9L130.343 8.07038L130.335 8.07549L130.901 8.9ZM141.053 8.144L141.229 7.15957L141.216 7.15731L141.204 7.15538L141.053 8.144ZM142.061 8.324L143.061 8.35523L143.088 7.49148L142.237 7.33957L142.061 8.324ZM141.989 10.628L141.847 11.6178L142.954 11.7774L142.989 10.6592L141.989 10.628ZM135.689 9.052C134.296 9.052 133.073 9.28933 132.174 9.91571C131.21 10.5878 130.765 11.6034 130.765 12.788H132.765C132.765 12.1486 132.974 11.7962 133.318 11.5563C133.728 11.2707 134.467 11.052 135.689 11.052V9.052ZM130.765 12.788C130.765 13.8967 131.185 14.866 132.151 15.4455L133.18 13.7305C132.946 13.59 132.765 13.3593 132.765 12.788H130.765ZM132.177 15.4605C132.593 15.6937 133.188 15.8932 133.887 16.0771C134.606 16.2664 135.51 16.4577 136.592 16.6522L136.946 14.6838C135.892 14.4943 135.045 14.3136 134.396 14.1429C133.727 13.9668 133.338 13.8183 133.154 13.7155L132.177 15.4605ZM136.603 16.6541C138.703 17.0081 140.014 17.4932 140.702 18.0134L141.909 16.4186C140.82 15.5948 139.107 15.0479 136.936 14.6819L136.603 16.6541ZM140.702 18.0134C141.213 18.4 141.637 19.2565 141.637 20.996H143.637C143.637 19.0395 143.174 17.376 141.909 16.4186L140.702 18.0134ZM141.637 20.996C141.637 22.6122 141.127 23.6233 140.253 24.2525L141.422 25.8755C142.948 24.7767 143.637 23.0758 143.637 20.996H141.637ZM140.245 24.2581C139.313 24.9429 137.832 25.36 135.653 25.36V27.36C138.035 27.36 140.009 26.9131 141.429 25.8699L140.245 24.2581ZM135.653 25.36C134.236 25.36 132.542 25.1996 130.562 24.8696L130.233 26.8424C132.285 27.1844 134.094 27.36 135.653 27.36V25.36ZM130.562 24.8696L129.482 24.6896L129.153 26.6624L130.233 26.8424L130.562 24.8696ZM130.315 25.7374L130.459 23.3974L128.463 23.2746L128.319 25.6146L130.315 25.7374ZM129.314 24.3251C132.061 24.7347 134.185 24.948 135.653 24.948V22.948C134.338 22.948 132.334 22.7533 129.609 22.3469L129.314 24.3251ZM135.653 24.948C137.12 24.948 138.389 24.7254 139.336 24.1575L138.307 22.4425C137.813 22.7386 136.97 22.948 135.653 22.948V24.948ZM139.344 24.1526C140.443 23.479 140.937 22.3734 140.937 21.068H138.937C138.937 21.8266 138.688 22.209 138.299 22.4474L139.344 24.1526ZM140.937 21.068C140.937 19.8374 140.566 18.692 139.501 18.0778L138.502 19.8102C138.685 19.916 138.937 20.1866 138.937 21.068H140.937ZM139.525 18.0923C139.084 17.8209 138.47 17.6052 137.762 17.4189C137.034 17.2274 136.128 17.0473 135.054 16.8764L134.74 18.8516C135.778 19.0167 136.613 19.1846 137.253 19.3531C137.913 19.5268 138.294 19.6831 138.477 19.7957L139.525 18.0923ZM135.054 16.8764C132.978 16.546 131.675 16.0826 130.987 15.5802L129.808 17.1958C130.895 17.9894 132.593 18.51 134.74 18.8516L135.054 16.8764ZM130.987 15.5802C130.48 15.2107 130.065 14.4132 130.065 12.788H128.065C128.065 14.6668 128.538 16.2693 129.808 17.1958L130.987 15.5802ZM130.065 12.788C130.065 11.2974 130.567 10.3425 131.467 9.72451L130.335 8.07549C128.788 9.13752 128.065 10.7746 128.065 12.788H130.065ZM131.46 9.72959C132.508 9.02376 133.85 8.64 135.545 8.64V6.64C133.544 6.64 131.79 7.09624 130.343 8.07041L131.46 9.72959ZM135.545 8.64C136.94 8.64 138.722 8.8007 140.903 9.13262L141.204 7.15538C138.969 6.8153 137.079 6.64 135.545 6.64V8.64ZM140.878 9.12843L141.886 9.30843L142.237 7.33957L141.229 7.15957L140.878 9.12843ZM141.062 8.29276L140.99 10.5968L142.989 10.6592L143.061 8.35523L141.062 8.29276ZM142.132 9.63823C139.45 9.25167 137.296 9.052 135.689 9.052V11.052C137.155 11.052 139.2 11.2363 141.847 11.6178L142.132 9.63823ZM159.012 23.768L159.089 24.765L159.102 24.764L159.115 24.7627L159.012 23.768ZM160.056 23.66L161.055 23.6261L161.019 22.555L159.953 22.6653L160.056 23.66ZM160.128 25.784L160.267 26.7743L161.158 26.6493L161.127 25.7501L160.128 25.784ZM147.6 24.128L146.786 24.7093L146.79 24.7154L147.6 24.128ZM158.94 9.692L158.188 10.3515L158.194 10.358L158.94 9.692ZM160.74 16.064L161.737 16.134L161.74 16.099V16.064H160.74ZM160.596 18.116V19.116H161.528L161.593 18.186L160.596 18.116ZM148.716 18.116V17.116H147.716V18.116H148.716ZM149.796 22.544L148.996 23.144L148.996 23.144L149.796 22.544ZM158.04 15.956V16.956H159.04V15.956H158.04ZM156.96 11.276L156.165 11.8827L156.17 11.8892L156.175 11.8956L156.96 11.276ZM149.904 11.348L149.142 10.7004L149.137 10.7059L149.132 10.7116L149.904 11.348ZM148.68 15.956L147.68 15.9446L147.668 16.956H148.68V15.956ZM159.115 24.7627L160.159 24.6547L159.953 22.6653L158.909 22.7733L159.115 24.7627ZM159.056 23.6939L159.128 25.8179L161.127 25.7501L161.055 23.6261L159.056 23.6939ZM159.989 24.7937C157.281 25.1737 154.99 25.36 153.108 25.36V27.36C155.113 27.36 157.502 27.1623 160.267 26.7743L159.989 24.7937ZM153.108 25.36C150.696 25.36 149.231 24.6737 148.409 23.5406L146.79 24.7154C148.128 26.5583 150.336 27.36 153.108 27.36V25.36ZM148.413 23.5468C147.513 22.2869 146.98 20.1993 146.98 17.108H144.98C144.98 20.3527 145.526 22.9451 146.786 24.7092L148.413 23.5468ZM146.98 17.108C146.98 14.0577 147.59 11.9548 148.644 10.6291C149.662 9.34738 151.219 8.64 153.504 8.64V6.64C150.773 6.64 148.567 7.51062 147.078 9.38485C145.623 11.2152 144.98 13.8463 144.98 17.108H146.98ZM153.504 8.64C155.741 8.64 157.236 9.26569 158.188 10.3514L159.691 9.03256C158.244 7.38231 156.115 6.64 153.504 6.64V8.64ZM158.194 10.358C159.155 11.4351 159.74 13.2638 159.74 16.064H161.74C161.74 13.0562 161.124 10.6369 159.686 9.02598L158.194 10.358ZM159.742 15.994L159.598 18.046L161.593 18.186L161.737 16.134L159.742 15.994ZM160.596 17.116H148.716V19.116H160.596V17.116ZM147.716 18.116C147.716 20.1942 148.085 21.9297 148.996 23.144L150.596 21.944C150.066 21.2383 149.716 20.0218 149.716 18.116H147.716ZM148.996 23.144C149.982 24.4596 151.606 24.984 153.54 24.984V22.984C151.921 22.984 151.049 22.5484 150.596 21.944L148.996 23.144ZM153.54 24.984C155.366 24.984 157.216 24.9109 159.089 24.765L158.934 22.771C157.111 22.9131 155.313 22.984 153.54 22.984V24.984ZM159.04 15.956C159.04 13.6978 158.683 11.8452 157.745 10.6564L156.175 11.8956C156.676 12.5308 157.04 13.7982 157.04 15.956H159.04ZM157.755 10.6693C156.801 9.42007 155.291 8.908 153.504 8.908V10.908C154.933 10.908 155.726 11.3079 156.165 11.8827L157.755 10.6693ZM153.504 8.908C151.708 8.908 150.195 9.46128 149.142 10.7004L150.666 11.9956C151.244 11.3147 152.131 10.908 153.504 10.908V8.908ZM149.132 10.7116C148.124 11.934 147.705 13.7493 147.68 15.9446L149.68 15.9674C149.703 13.9387 150.1 12.682 150.675 11.9844L149.132 10.7116ZM148.68 16.956H158.04V14.956H148.68V16.956ZM164.947 26H163.947V27H164.947V26ZM164.947 8V7H163.947V8H164.947ZM167.611 8H168.611V7H167.611V8ZM167.611 10.448H166.611V12.3524L168.179 11.2712L167.611 10.448ZM174.199 7.604H175.199V6.38668L174.005 6.62303L174.199 7.604ZM174.199 10.34L174.387 11.3223L175.199 11.1675V10.34H174.199ZM171.031 11.24L170.685 10.302L170.678 10.3045L171.031 11.24ZM168.547 12.32L169.009 13.2072L169.016 13.2033L169.024 13.1993L168.547 12.32ZM167.647 12.788L167.186 11.9008L166.647 12.1809V12.788H167.647ZM167.647 26V27H168.647V26H167.647ZM165.947 26V8H163.947V26H165.947ZM164.947 9H167.611V7H164.947V9ZM166.611 8V10.448H168.611V8H166.611ZM168.179 11.2712C170.164 9.90249 172.234 9.01239 174.394 8.58497L174.005 6.62303C171.557 7.10761 169.235 8.11351 167.044 9.62479L168.179 11.2712ZM173.199 7.604V10.34H175.199V7.604H173.199ZM174.012 9.35766C172.943 9.56138 171.833 9.87757 170.685 10.302L171.378 12.178C172.438 11.7864 173.44 11.5026 174.387 11.3223L174.012 9.35766ZM170.678 10.3045C169.582 10.7184 168.706 11.097 168.071 11.4407L169.024 13.1993C169.541 12.919 170.32 12.5776 171.385 12.1755L170.678 10.3045ZM168.086 11.4328L167.186 11.9008L168.109 13.6752L169.009 13.2072L168.086 11.4328ZM166.647 12.788V26H168.647V12.788H166.647ZM167.647 25H164.947V27H167.647V25Z" fill="black" mask="url(#path-1-outside-1_428_2)"/>
</svg>
