<svg width="148" height="27" viewBox="0 0 148 27" fill="none" xmlns="http://www.w3.org/2000/svg">
<mask id="path-1-outside-1_263_97" maskUnits="userSpaceOnUse" x="-1" y="-1" width="150" height="29" fill="black">
<rect fill="white" x="-1" y="-1" width="150" height="29"/>
<path d="M0.06 26V1.088H15.216V3.536H2.832V12.14H13.056V14.552H2.832V23.552H15.216V26H0.06ZM32.998 0.151998V26H30.334V24.776C28.486 25.832 26.662 26.36 24.862 26.36C23.902 26.36 23.062 26.24 22.342 26C21.622 25.76 20.95 25.328 20.326 24.704C19.03 23.408 18.382 21.02 18.382 17.54C18.382 14.036 18.958 11.516 20.11 9.98C21.286 8.42 23.218 7.64 25.906 7.64C27.298 7.64 28.774 7.796 30.334 8.108V0.151998H32.998ZM22.414 22.76C22.798 23.216 23.206 23.528 23.638 23.696C24.07 23.864 24.622 23.948 25.294 23.948C25.99 23.948 26.758 23.84 27.598 23.624C28.462 23.384 29.134 23.156 29.614 22.94L30.334 22.616V10.412C28.798 10.124 27.37 9.98 26.05 9.98C24.226 9.98 22.954 10.568 22.234 11.744C21.514 12.896 21.154 14.696 21.154 17.144C21.154 19.928 21.574 21.8 22.414 22.76ZM38.2287 26V8H40.9287V26H38.2287ZM38.2287 3.932V0.799998H40.9287V3.932H38.2287ZM55.4277 10.34H49.7037V18.944C49.7037 21.008 49.8477 22.364 50.1357 23.012C50.4477 23.66 51.1677 23.984 52.2957 23.984L55.4997 23.768L55.6797 26C54.0717 26.264 52.8477 26.396 52.0077 26.396C50.1357 26.396 48.8397 25.94 48.1197 25.028C47.3997 24.116 47.0397 22.376 47.0397 19.808V10.34H44.4837V8H47.0397V2.492H49.7037V8H55.4277V10.34ZM64.907 26L71.747 1.088H77.795L84.635 26H81.899L80.099 19.592H69.443L67.643 26H64.907ZM73.835 3.464L70.055 17.108H79.487L75.707 3.464H73.835ZM88.0803 26V8H90.7443V10.448C92.8323 9.008 95.0283 8.06 97.3323 7.604V10.34C96.3243 10.532 95.2683 10.832 94.1643 11.24C93.0843 11.648 92.2563 12.008 91.6803 12.32L90.7803 12.788V26H88.0803ZM109.85 10.34H104.126V18.944C104.126 21.008 104.27 22.364 104.558 23.012C104.87 23.66 105.59 23.984 106.718 23.984L109.922 23.768L110.102 26C108.494 26.264 107.27 26.396 106.43 26.396C104.558 26.396 103.262 25.94 102.542 25.028C101.822 24.116 101.462 22.376 101.462 19.808V10.34H98.9056V8H101.462V2.492H104.126V8H109.85V10.34ZM113.147 26V8H115.847V26H113.147ZM113.147 3.932V0.799998H115.847V3.932H113.147ZM126.674 10.052C124.058 10.052 122.75 10.964 122.75 12.788C122.75 13.628 123.05 14.228 123.65 14.588C124.25 14.924 125.618 15.284 127.754 15.668C129.89 16.028 131.402 16.544 132.29 17.216C133.178 17.888 133.622 19.148 133.622 20.996C133.622 22.844 133.022 24.2 131.822 25.064C130.646 25.928 128.918 26.36 126.638 26.36C125.15 26.36 123.398 26.192 121.382 25.856L120.302 25.676L120.446 23.336C123.182 23.744 125.246 23.948 126.638 23.948C128.03 23.948 129.086 23.732 129.806 23.3C130.55 22.844 130.922 22.1 130.922 21.068C130.922 20.012 130.61 19.304 129.986 18.944C129.362 18.56 127.994 18.2 125.882 17.864C123.77 17.528 122.27 17.036 121.382 16.388C120.494 15.74 120.05 14.54 120.05 12.788C120.05 11.036 120.662 9.74 121.886 8.9C123.134 8.06 124.682 7.64 126.53 7.64C127.994 7.64 129.83 7.808 132.038 8.144L133.046 8.324L132.974 10.628C130.31 10.244 128.21 10.052 126.674 10.052ZM147.08 10.34H141.356V18.944C141.356 21.008 141.5 22.364 141.788 23.012C142.1 23.66 142.82 23.984 143.948 23.984L147.152 23.768L147.332 26C145.724 26.264 144.5 26.396 143.66 26.396C141.788 26.396 140.492 25.94 139.772 25.028C139.052 24.116 138.692 22.376 138.692 19.808V10.34H136.136V8H138.692V2.492H141.356V8H147.08V10.34Z"/>
</mask>
<path d="M0.06 26V1.088H15.216V3.536H2.832V12.14H13.056V14.552H2.832V23.552H15.216V26H0.06ZM32.998 0.151998V26H30.334V24.776C28.486 25.832 26.662 26.36 24.862 26.36C23.902 26.36 23.062 26.24 22.342 26C21.622 25.76 20.95 25.328 20.326 24.704C19.03 23.408 18.382 21.02 18.382 17.54C18.382 14.036 18.958 11.516 20.11 9.98C21.286 8.42 23.218 7.64 25.906 7.64C27.298 7.64 28.774 7.796 30.334 8.108V0.151998H32.998ZM22.414 22.76C22.798 23.216 23.206 23.528 23.638 23.696C24.07 23.864 24.622 23.948 25.294 23.948C25.99 23.948 26.758 23.84 27.598 23.624C28.462 23.384 29.134 23.156 29.614 22.94L30.334 22.616V10.412C28.798 10.124 27.37 9.98 26.05 9.98C24.226 9.98 22.954 10.568 22.234 11.744C21.514 12.896 21.154 14.696 21.154 17.144C21.154 19.928 21.574 21.8 22.414 22.76ZM38.2287 26V8H40.9287V26H38.2287ZM38.2287 3.932V0.799998H40.9287V3.932H38.2287ZM55.4277 10.34H49.7037V18.944C49.7037 21.008 49.8477 22.364 50.1357 23.012C50.4477 23.66 51.1677 23.984 52.2957 23.984L55.4997 23.768L55.6797 26C54.0717 26.264 52.8477 26.396 52.0077 26.396C50.1357 26.396 48.8397 25.94 48.1197 25.028C47.3997 24.116 47.0397 22.376 47.0397 19.808V10.34H44.4837V8H47.0397V2.492H49.7037V8H55.4277V10.34ZM64.907 26L71.747 1.088H77.795L84.635 26H81.899L80.099 19.592H69.443L67.643 26H64.907ZM73.835 3.464L70.055 17.108H79.487L75.707 3.464H73.835ZM88.0803 26V8H90.7443V10.448C92.8323 9.008 95.0283 8.06 97.3323 7.604V10.34C96.3243 10.532 95.2683 10.832 94.1643 11.24C93.0843 11.648 92.2563 12.008 91.6803 12.32L90.7803 12.788V26H88.0803ZM109.85 10.34H104.126V18.944C104.126 21.008 104.27 22.364 104.558 23.012C104.87 23.66 105.59 23.984 106.718 23.984L109.922 23.768L110.102 26C108.494 26.264 107.27 26.396 106.43 26.396C104.558 26.396 103.262 25.94 102.542 25.028C101.822 24.116 101.462 22.376 101.462 19.808V10.34H98.9056V8H101.462V2.492H104.126V8H109.85V10.34ZM113.147 26V8H115.847V26H113.147ZM113.147 3.932V0.799998H115.847V3.932H113.147ZM126.674 10.052C124.058 10.052 122.75 10.964 122.75 12.788C122.75 13.628 123.05 14.228 123.65 14.588C124.25 14.924 125.618 15.284 127.754 15.668C129.89 16.028 131.402 16.544 132.29 17.216C133.178 17.888 133.622 19.148 133.622 20.996C133.622 22.844 133.022 24.2 131.822 25.064C130.646 25.928 128.918 26.36 126.638 26.36C125.15 26.36 123.398 26.192 121.382 25.856L120.302 25.676L120.446 23.336C123.182 23.744 125.246 23.948 126.638 23.948C128.03 23.948 129.086 23.732 129.806 23.3C130.55 22.844 130.922 22.1 130.922 21.068C130.922 20.012 130.61 19.304 129.986 18.944C129.362 18.56 127.994 18.2 125.882 17.864C123.77 17.528 122.27 17.036 121.382 16.388C120.494 15.74 120.05 14.54 120.05 12.788C120.05 11.036 120.662 9.74 121.886 8.9C123.134 8.06 124.682 7.64 126.53 7.64C127.994 7.64 129.83 7.808 132.038 8.144L133.046 8.324L132.974 10.628C130.31 10.244 128.21 10.052 126.674 10.052ZM147.08 10.34H141.356V18.944C141.356 21.008 141.5 22.364 141.788 23.012C142.1 23.66 142.82 23.984 143.948 23.984L147.152 23.768L147.332 26C145.724 26.264 144.5 26.396 143.66 26.396C141.788 26.396 140.492 25.94 139.772 25.028C139.052 24.116 138.692 22.376 138.692 19.808V10.34H136.136V8H138.692V2.492H141.356V8H147.08V10.34Z" fill="#666666"/>
<path d="M0.06 26H-0.94V27H0.06V26ZM0.06 1.088V0.0879989H-0.94V1.088H0.06ZM15.216 1.088H16.216V0.0879989H15.216V1.088ZM15.216 3.536V4.536H16.216V3.536H15.216ZM2.832 3.536V2.536H1.832V3.536H2.832ZM2.832 12.14H1.832V13.14H2.832V12.14ZM13.056 12.14H14.056V11.14H13.056V12.14ZM13.056 14.552V15.552H14.056V14.552H13.056ZM2.832 14.552V13.552H1.832V14.552H2.832ZM2.832 23.552H1.832V24.552H2.832V23.552ZM15.216 23.552H16.216V22.552H15.216V23.552ZM15.216 26V27H16.216V26H15.216ZM1.06 26V1.088H-0.94V26H1.06ZM0.06 2.088H15.216V0.0879989H0.06V2.088ZM14.216 1.088V3.536H16.216V1.088H14.216ZM15.216 2.536H2.832V4.536H15.216V2.536ZM1.832 3.536V12.14H3.832V3.536H1.832ZM2.832 13.14H13.056V11.14H2.832V13.14ZM12.056 12.14V14.552H14.056V12.14H12.056ZM13.056 13.552H2.832V15.552H13.056V13.552ZM1.832 14.552V23.552H3.832V14.552H1.832ZM2.832 24.552H15.216V22.552H2.832V24.552ZM14.216 23.552V26H16.216V23.552H14.216ZM15.216 25H0.06V27H15.216V25ZM32.998 0.151998H33.998V-0.848002H32.998V0.151998ZM32.998 26V27H33.998V26H32.998ZM30.334 26H29.334V27H30.334V26ZM30.334 24.776H31.334V23.0528L29.8379 23.9078L30.334 24.776ZM20.326 24.704L19.6189 25.4111L19.6189 25.4111L20.326 24.704ZM20.11 9.98L19.3115 9.37803L19.31 9.38L20.11 9.98ZM30.334 8.108L30.1379 9.08858L31.334 9.3278V8.108H30.334ZM30.334 0.151998V-0.848002H29.334V0.151998H30.334ZM22.414 22.76L23.1789 22.1159L23.1728 22.1086L23.1666 22.1015L22.414 22.76ZM27.598 23.624L27.8471 24.5925L27.8564 24.5901L27.8657 24.5875L27.598 23.624ZM29.614 22.94L30.0244 23.8519L30.0244 23.8519L29.614 22.94ZM30.334 22.616L30.7444 23.5279L31.334 23.2626V22.616H30.334ZM30.334 10.412H31.334V9.58207L30.5183 9.42913L30.334 10.412ZM22.234 11.744L23.0821 12.274L23.0869 12.2662L22.234 11.744ZM31.998 0.151998V26H33.998V0.151998H31.998ZM32.998 25H30.334V27H32.998V25ZM31.334 26V24.776H29.334V26H31.334ZM29.8379 23.9078C28.1133 24.8932 26.4587 25.36 24.862 25.36V27.36C26.8654 27.36 28.8588 26.7708 30.8302 25.6442L29.8379 23.9078ZM24.862 25.36C23.9824 25.36 23.2534 25.2497 22.6583 25.0513L22.0258 26.9487C22.8707 27.2303 23.8217 27.36 24.862 27.36V25.36ZM22.6583 25.0513C22.1078 24.8678 21.5652 24.529 21.0331 23.9969L19.6189 25.4111C20.3348 26.127 21.1363 26.6522 22.0258 26.9487L22.6583 25.0513ZM21.0331 23.9969C20.0346 22.9983 19.382 20.967 19.382 17.54H17.382C17.382 21.073 18.0255 23.8177 19.6189 25.4111L21.0331 23.9969ZM19.382 17.54C19.382 14.0964 19.9577 11.8498 20.91 10.58L19.31 9.38C17.9584 11.1822 17.382 13.9756 17.382 17.54H19.382ZM20.9086 10.582C21.8307 9.35876 23.4055 8.64 25.906 8.64V6.64C23.0305 6.64 20.7414 7.48124 19.3115 9.37804L20.9086 10.582ZM25.906 8.64C27.2236 8.64 28.6335 8.7877 30.1379 9.08858L30.5301 7.12742C28.9145 6.8043 27.3724 6.64 25.906 6.64V8.64ZM31.334 8.108V0.151998H29.334V8.108H31.334ZM30.334 1.152H32.998V-0.848002H30.334V1.152ZM21.6491 23.4041C22.111 23.9526 22.649 24.3843 23.2756 24.628L24.0005 22.764C23.763 22.6717 23.4851 22.4794 23.1789 22.1159L21.6491 23.4041ZM23.2756 24.628C23.8627 24.8563 24.549 24.948 25.294 24.948V22.948C24.695 22.948 24.2774 22.8717 24.0005 22.764L23.2756 24.628ZM25.294 24.948C26.0917 24.948 26.9447 24.8245 27.8471 24.5925L27.349 22.6555C26.5713 22.8555 25.8884 22.948 25.294 22.948V24.948ZM27.8657 24.5875C28.7497 24.342 29.4772 24.0982 30.0244 23.8519L29.2037 22.0281C28.7909 22.2138 28.1744 22.426 27.3304 22.6605L27.8657 24.5875ZM30.0244 23.8519L30.7444 23.5279L29.9237 21.7041L29.2037 22.0281L30.0244 23.8519ZM31.334 22.616V10.412H29.334V22.616H31.334ZM30.5183 9.42913C28.9323 9.13175 27.4419 8.98 26.05 8.98V10.98C27.2982 10.98 28.6638 11.1163 30.1497 11.3949L30.5183 9.42913ZM26.05 8.98C24.0048 8.98 22.3406 9.65483 21.3812 11.2218L23.0869 12.2662C23.5675 11.4812 24.4472 10.98 26.05 10.98V8.98ZM21.386 11.214C20.5151 12.6074 20.154 14.6383 20.154 17.144H22.154C22.154 14.7537 22.5129 13.1846 23.082 12.274L21.386 11.214ZM20.154 17.144C20.154 18.5798 20.2617 19.8228 20.4933 20.8549C20.7229 21.8782 21.0899 22.7653 21.6615 23.4185L23.1666 22.1015C22.8982 21.7947 22.6352 21.2658 22.4448 20.4171C22.2563 19.5772 22.154 18.4922 22.154 17.144H20.154ZM38.2287 26H37.2287V27H38.2287V26ZM38.2287 8V7H37.2287V8H38.2287ZM40.9287 8H41.9287V7H40.9287V8ZM40.9287 26V27H41.9287V26H40.9287ZM38.2287 3.932H37.2287V4.932H38.2287V3.932ZM38.2287 0.799998V-0.200002H37.2287V0.799998H38.2287ZM40.9287 0.799998H41.9287V-0.200002H40.9287V0.799998ZM40.9287 3.932V4.932H41.9287V3.932H40.9287ZM39.2287 26V8H37.2287V26H39.2287ZM38.2287 9H40.9287V7H38.2287V9ZM39.9287 8V26H41.9287V8H39.9287ZM40.9287 25H38.2287V27H40.9287V25ZM39.2287 3.932V0.799998H37.2287V3.932H39.2287ZM38.2287 1.8H40.9287V-0.200002H38.2287V1.8ZM39.9287 0.799998V3.932H41.9287V0.799998H39.9287ZM40.9287 2.932H38.2287V4.932H40.9287V2.932ZM55.4277 10.34V11.34H56.4277V10.34H55.4277ZM49.7037 10.34V9.34H48.7037V10.34H49.7037ZM50.1357 23.012L49.2219 23.4181L49.2281 23.4321L49.2347 23.4458L50.1357 23.012ZM52.2957 23.984V24.984H52.3294L52.363 24.9817L52.2957 23.984ZM55.4997 23.768L56.4965 23.6876L56.4171 22.7039L55.4325 22.7703L55.4997 23.768ZM55.6797 26L55.8417 26.9868L56.7505 26.8376L56.6765 25.9196L55.6797 26ZM48.1197 25.028L47.3348 25.6476L47.3348 25.6476L48.1197 25.028ZM47.0397 10.34H48.0397V9.34H47.0397V10.34ZM44.4837 10.34H43.4837V11.34H44.4837V10.34ZM44.4837 8V7H43.4837V8H44.4837ZM47.0397 8V9H48.0397V8H47.0397ZM47.0397 2.492V1.492H46.0397V2.492H47.0397ZM49.7037 2.492H50.7037V1.492H49.7037V2.492ZM49.7037 8H48.7037V9H49.7037V8ZM55.4277 8H56.4277V7H55.4277V8ZM55.4277 9.34H49.7037V11.34H55.4277V9.34ZM48.7037 10.34V18.944H50.7037V10.34H48.7037ZM48.7037 18.944C48.7037 19.9954 48.7402 20.8886 48.8173 21.6146C48.8921 22.3192 49.0126 22.9472 49.2219 23.4181L51.0495 22.6059C50.9708 22.4288 50.8753 22.0548 50.8061 21.4034C50.7392 20.7734 50.7037 19.9566 50.7037 18.944H48.7037ZM49.2347 23.4458C49.7971 24.6139 51.0244 24.984 52.2957 24.984V22.984C51.3111 22.984 51.0983 22.7061 51.0367 22.5782L49.2347 23.4458ZM52.363 24.9817L55.567 24.7657L55.4325 22.7703L52.2285 22.9863L52.363 24.9817ZM54.503 23.8484L54.683 26.0804L56.6765 25.9196L56.4965 23.6876L54.503 23.8484ZM55.5177 25.0132C53.9234 25.275 52.7642 25.396 52.0077 25.396V27.396C52.9313 27.396 54.2201 27.253 55.8417 26.9868L55.5177 25.0132ZM52.0077 25.396C50.2553 25.396 49.3436 24.9644 48.9046 24.4084L47.3348 25.6476C48.3359 26.9156 50.0161 27.396 52.0077 27.396V25.396ZM48.9046 24.4084C48.6785 24.1219 48.4526 23.6274 48.289 22.8364C48.1274 22.0553 48.0397 21.0512 48.0397 19.808H46.0397C46.0397 21.1328 46.1321 22.2827 46.3305 23.2416C46.5268 24.1906 46.841 25.0221 47.3348 25.6476L48.9046 24.4084ZM48.0397 19.808V10.34H46.0397V19.808H48.0397ZM47.0397 9.34H44.4837V11.34H47.0397V9.34ZM45.4837 10.34V8H43.4837V10.34H45.4837ZM44.4837 9H47.0397V7H44.4837V9ZM48.0397 8V2.492H46.0397V8H48.0397ZM47.0397 3.492H49.7037V1.492H47.0397V3.492ZM48.7037 2.492V8H50.7037V2.492H48.7037ZM49.7037 9H55.4277V7H49.7037V9ZM54.4277 8V10.34H56.4277V8H54.4277ZM64.907 26L63.9427 25.7352L63.5954 27H64.907V26ZM71.747 1.088V0.0879989H70.9845L70.7827 0.823231L71.747 1.088ZM77.795 1.088L78.7593 0.823231L78.5574 0.0879989H77.795V1.088ZM84.635 26V27H85.9465L85.5993 25.7352L84.635 26ZM81.899 26L80.9362 26.2704L81.1412 27H81.899V26ZM80.099 19.592L81.0617 19.3216L80.8568 18.592H80.099V19.592ZM69.443 19.592V18.592H68.6852L68.4802 19.3216L69.443 19.592ZM67.643 26V27H68.4008L68.6057 26.2704L67.643 26ZM73.835 3.464V2.464H73.0743L72.8713 3.19701L73.835 3.464ZM70.055 17.108L69.0913 16.841L68.7403 18.108H70.055V17.108ZM79.487 17.108V18.108H80.8017L80.4507 16.841L79.487 17.108ZM75.707 3.464L76.6707 3.19701L76.4676 2.464H75.707V3.464ZM65.8713 26.2648L72.7113 1.35277L70.7827 0.823231L63.9427 25.7352L65.8713 26.2648ZM71.747 2.088H77.795V0.0879989H71.747V2.088ZM76.8307 1.35277L83.6707 26.2648L85.5993 25.7352L78.7593 0.823231L76.8307 1.35277ZM84.635 25H81.899V27H84.635V25ZM82.8617 25.7296L81.0617 19.3216L79.1362 19.8624L80.9362 26.2704L82.8617 25.7296ZM80.099 18.592H69.443V20.592H80.099V18.592ZM68.4802 19.3216L66.6802 25.7296L68.6057 26.2704L70.4057 19.8624L68.4802 19.3216ZM67.643 25H64.907V27H67.643V25ZM72.8713 3.19701L69.0913 16.841L71.0187 17.375L74.7987 3.73099L72.8713 3.19701ZM70.055 18.108H79.487V16.108H70.055V18.108ZM80.4507 16.841L76.6707 3.19701L74.7433 3.73099L78.5233 17.375L80.4507 16.841ZM75.707 2.464H73.835V4.464H75.707V2.464ZM88.0803 26H87.0803V27H88.0803V26ZM88.0803 8V7H87.0803V8H88.0803ZM90.7443 8H91.7443V7H90.7443V8ZM90.7443 10.448H89.7443V12.3524L91.312 11.2712L90.7443 10.448ZM97.3323 7.604H98.3323V6.38668L97.1381 6.62303L97.3323 7.604ZM97.3323 10.34L97.5194 11.3223L98.3323 11.1675V10.34H97.3323ZM94.1643 11.24L93.8176 10.302L93.8109 10.3045L94.1643 11.24ZM91.6803 12.32L92.1416 13.2072L92.1491 13.2033L92.1566 13.1993L91.6803 12.32ZM90.7803 12.788L90.3189 11.9008L89.7803 12.1809V12.788H90.7803ZM90.7803 26V27H91.7803V26H90.7803ZM89.0803 26V8H87.0803V26H89.0803ZM88.0803 9H90.7443V7H88.0803V9ZM89.7443 8V10.448H91.7443V8H89.7443ZM91.312 11.2712C93.2967 9.90249 95.3669 9.01239 97.5264 8.58497L97.1381 6.62303C94.6897 7.10761 92.3679 8.11351 90.1765 9.62479L91.312 11.2712ZM96.3323 7.604V10.34H98.3323V7.604H96.3323ZM97.1452 9.35766C96.0756 9.56138 94.9661 9.87757 93.8176 10.302L94.5109 12.178C95.5705 11.7864 96.5729 11.5026 97.5194 11.3223L97.1452 9.35766ZM93.8109 10.3045C92.7153 10.7184 91.8386 11.097 91.204 11.4407L92.1566 13.1993C92.674 12.919 93.4533 12.5776 94.5177 12.1755L93.8109 10.3045ZM91.2189 11.4328L90.3189 11.9008L91.2416 13.6752L92.1416 13.2072L91.2189 11.4328ZM89.7803 12.788V26H91.7803V12.788H89.7803ZM90.7803 25H88.0803V27H90.7803V25ZM109.85 10.34V11.34H110.85V10.34H109.85ZM104.126 10.34V9.34H103.126V10.34H104.126ZM104.558 23.012L103.644 23.4181L103.65 23.4321L103.657 23.4458L104.558 23.012ZM106.718 23.984V24.984H106.751L106.785 24.9817L106.718 23.984ZM109.922 23.768L110.918 23.6876L110.839 22.7039L109.854 22.7703L109.922 23.768ZM110.102 26L110.264 26.9868L111.172 26.8376L111.098 25.9196L110.102 26ZM102.542 25.028L101.757 25.6476L101.757 25.6476L102.542 25.028ZM101.462 10.34H102.462V9.34H101.462V10.34ZM98.9056 10.34H97.9056V11.34H98.9056V10.34ZM98.9056 8V7H97.9056V8H98.9056ZM101.462 8V9H102.462V8H101.462ZM101.462 2.492V1.492H100.462V2.492H101.462ZM104.126 2.492H105.126V1.492H104.126V2.492ZM104.126 8H103.126V9H104.126V8ZM109.85 8H110.85V7H109.85V8ZM109.85 9.34H104.126V11.34H109.85V9.34ZM103.126 10.34V18.944H105.126V10.34H103.126ZM103.126 18.944C103.126 19.9954 103.162 20.8886 103.239 21.6146C103.314 22.3192 103.434 22.9472 103.644 23.4181L105.471 22.6059C105.393 22.4288 105.297 22.0548 105.228 21.4034C105.161 20.7734 105.126 19.9566 105.126 18.944H103.126ZM103.657 23.4458C104.219 24.6139 105.446 24.984 106.718 24.984V22.984C105.733 22.984 105.52 22.7061 105.459 22.5782L103.657 23.4458ZM106.785 24.9817L109.989 24.7657L109.854 22.7703L106.65 22.9863L106.785 24.9817ZM108.925 23.8484L109.105 26.0804L111.098 25.9196L110.918 23.6876L108.925 23.8484ZM109.94 25.0132C108.345 25.275 107.186 25.396 106.43 25.396V27.396C107.353 27.396 108.642 27.253 110.264 26.9868L109.94 25.0132ZM106.43 25.396C104.677 25.396 103.765 24.9644 103.326 24.4084L101.757 25.6476C102.758 26.9156 104.438 27.396 106.43 27.396V25.396ZM103.326 24.4084C103.1 24.1219 102.875 23.6274 102.711 22.8364C102.549 22.0553 102.462 21.0512 102.462 19.808H100.462C100.462 21.1328 100.554 22.2827 100.752 23.2416C100.949 24.1906 101.263 25.0221 101.757 25.6476L103.326 24.4084ZM102.462 19.808V10.34H100.462V19.808H102.462ZM101.462 9.34H98.9056V11.34H101.462V9.34ZM99.9056 10.34V8H97.9056V10.34H99.9056ZM98.9056 9H101.462V7H98.9056V9ZM102.462 8V2.492H100.462V8H102.462ZM101.462 3.492H104.126V1.492H101.462V3.492ZM103.126 2.492V8H105.126V2.492H103.126ZM104.126 9H109.85V7H104.126V9ZM108.85 8V10.34H110.85V8H108.85ZM113.147 26H112.147V27H113.147V26ZM113.147 8V7H112.147V8H113.147ZM115.847 8H116.847V7H115.847V8ZM115.847 26V27H116.847V26H115.847ZM113.147 3.932H112.147V4.932H113.147V3.932ZM113.147 0.799998V-0.200002H112.147V0.799998H113.147ZM115.847 0.799998H116.847V-0.200002H115.847V0.799998ZM115.847 3.932V4.932H116.847V3.932H115.847ZM114.147 26V8H112.147V26H114.147ZM113.147 9H115.847V7H113.147V9ZM114.847 8V26H116.847V8H114.847ZM115.847 25H113.147V27H115.847V25ZM114.147 3.932V0.799998H112.147V3.932H114.147ZM113.147 1.8H115.847V-0.200002H113.147V1.8ZM114.847 0.799998V3.932H116.847V0.799998H114.847ZM115.847 2.932H113.147V4.932H115.847V2.932ZM123.65 14.588L123.135 15.4455L123.148 15.4532L123.161 15.4605L123.65 14.588ZM127.754 15.668L127.577 16.6523L127.587 16.6541L127.754 15.668ZM132.29 17.216L132.893 16.4186L132.893 16.4186L132.29 17.216ZM131.822 25.064L131.237 24.2524L131.23 24.2581L131.822 25.064ZM121.382 25.856L121.217 26.8424L121.382 25.856ZM120.302 25.676L119.304 25.6146L119.248 26.5142L120.137 26.6624L120.302 25.676ZM120.446 23.336L120.593 22.3469L119.515 22.1861L119.448 23.2746L120.446 23.336ZM129.806 23.3L130.32 24.1575L130.328 24.1526L129.806 23.3ZM129.986 18.944L129.462 19.7957L129.474 19.8031L129.486 19.8102L129.986 18.944ZM125.882 17.864L126.039 16.8764L126.039 16.8764L125.882 17.864ZM121.382 16.388L121.971 15.5802L121.971 15.5802L121.382 16.388ZM121.886 8.9L121.327 8.07038L121.32 8.07549L121.886 8.9ZM132.038 8.144L132.213 7.15957L132.201 7.15731L132.188 7.15538L132.038 8.144ZM133.046 8.324L134.045 8.35523L134.072 7.49148L133.221 7.33957L133.046 8.324ZM132.974 10.628L132.831 11.6178L133.938 11.7774L133.973 10.6592L132.974 10.628ZM126.674 9.052C125.28 9.052 124.057 9.28933 123.159 9.91571C122.195 10.5878 121.75 11.6034 121.75 12.788H123.75C123.75 12.1486 123.959 11.7962 124.303 11.5563C124.712 11.2707 125.451 11.052 126.674 11.052V9.052ZM121.75 12.788C121.75 13.8967 122.169 14.866 123.135 15.4455L124.164 13.7305C123.93 13.59 123.75 13.3593 123.75 12.788H121.75ZM123.161 15.4605C123.577 15.6937 124.172 15.8932 124.871 16.0771C125.59 16.2664 126.495 16.4577 127.577 16.6522L127.931 14.6838C126.877 14.4943 126.029 14.3136 125.38 14.1429C124.711 13.9668 124.322 13.8183 124.138 13.7155L123.161 15.4605ZM127.587 16.6541C129.688 17.0081 130.999 17.4932 131.686 18.0134L132.893 16.4186C131.805 15.5948 130.092 15.0479 127.92 14.6819L127.587 16.6541ZM131.686 18.0134C132.197 18.4 132.622 19.2565 132.622 20.996H134.622C134.622 19.0395 134.158 17.376 132.893 16.4186L131.686 18.0134ZM132.622 20.996C132.622 22.6122 132.111 23.6233 131.237 24.2525L132.406 25.8755C133.932 24.7767 134.622 23.0758 134.622 20.996H132.622ZM131.23 24.2581C130.298 24.9429 128.816 25.36 126.638 25.36V27.36C129.019 27.36 130.994 26.9131 132.414 25.8699L131.23 24.2581ZM126.638 25.36C125.221 25.36 123.526 25.1996 121.546 24.8696L121.217 26.8424C123.269 27.1844 125.079 27.36 126.638 27.36V25.36ZM121.546 24.8696L120.466 24.6896L120.137 26.6624L121.217 26.8424L121.546 24.8696ZM121.3 25.7374L121.444 23.3974L119.448 23.2746L119.304 25.6146L121.3 25.7374ZM120.298 24.3251C123.045 24.7347 125.169 24.948 126.638 24.948V22.948C125.322 22.948 123.318 22.7533 120.593 22.3469L120.298 24.3251ZM126.638 24.948C128.105 24.948 129.374 24.7254 130.32 24.1575L129.291 22.4425C128.798 22.7386 127.955 22.948 126.638 22.948V24.948ZM130.328 24.1526C131.427 23.479 131.922 22.3734 131.922 21.068H129.922C129.922 21.8266 129.672 22.209 129.283 22.4474L130.328 24.1526ZM131.922 21.068C131.922 19.8374 131.55 18.692 130.485 18.0778L129.486 19.8102C129.669 19.916 129.922 20.1866 129.922 21.068H131.922ZM130.51 18.0923C130.069 17.8209 129.454 17.6052 128.746 17.4189C128.018 17.2274 127.113 17.0473 126.039 16.8764L125.725 18.8516C126.763 19.0167 127.597 19.1846 128.237 19.3531C128.897 19.5268 129.279 19.6831 129.462 19.7957L130.51 18.0923ZM126.039 16.8764C123.962 16.546 122.66 16.0826 121.971 15.5802L120.792 17.1958C121.88 17.9894 123.577 18.51 125.725 18.8516L126.039 16.8764ZM121.971 15.5802C121.465 15.2107 121.05 14.4132 121.05 12.788H119.05C119.05 14.6668 119.523 16.2693 120.792 17.1958L121.971 15.5802ZM121.05 12.788C121.05 11.2974 121.551 10.3425 122.452 9.72451L121.32 8.07549C119.772 9.13752 119.05 10.7746 119.05 12.788H121.05ZM122.444 9.72959C123.493 9.02376 124.835 8.64 126.53 8.64V6.64C124.529 6.64 122.775 7.09624 121.327 8.07041L122.444 9.72959ZM126.53 8.64C127.924 8.64 129.706 8.8007 131.887 9.13262L132.188 7.15538C129.953 6.8153 128.063 6.64 126.53 6.64V8.64ZM131.862 9.12843L132.87 9.30843L133.221 7.33957L132.213 7.15957L131.862 9.12843ZM132.046 8.29276L131.974 10.5968L133.973 10.6592L134.045 8.35523L132.046 8.29276ZM133.116 9.63823C130.435 9.25167 128.28 9.052 126.674 9.052V11.052C128.139 11.052 130.185 11.2363 132.831 11.6178L133.116 9.63823ZM147.08 10.34V11.34H148.08V10.34H147.08ZM141.356 10.34V9.34H140.356V10.34H141.356ZM141.788 23.012L140.874 23.4181L140.88 23.4321L140.887 23.4458L141.788 23.012ZM143.948 23.984V24.984H143.982L144.015 24.9817L143.948 23.984ZM147.152 23.768L148.149 23.6876L148.069 22.7039L147.085 22.7703L147.152 23.768ZM147.332 26L147.494 26.9868L148.403 26.8376L148.329 25.9196L147.332 26ZM139.772 25.028L138.987 25.6476L138.987 25.6476L139.772 25.028ZM138.692 10.34H139.692V9.34H138.692V10.34ZM136.136 10.34H135.136V11.34H136.136V10.34ZM136.136 8V7H135.136V8H136.136ZM138.692 8V9H139.692V8H138.692ZM138.692 2.492V1.492H137.692V2.492H138.692ZM141.356 2.492H142.356V1.492H141.356V2.492ZM141.356 8H140.356V9H141.356V8ZM147.08 8H148.08V7H147.08V8ZM147.08 9.34H141.356V11.34H147.08V9.34ZM140.356 10.34V18.944H142.356V10.34H140.356ZM140.356 18.944C140.356 19.9954 140.393 20.8886 140.47 21.6146C140.544 22.3192 140.665 22.9472 140.874 23.4181L142.702 22.6059C142.623 22.4288 142.528 22.0548 142.458 21.4034C142.392 20.7734 142.356 19.9566 142.356 18.944H140.356ZM140.887 23.4458C141.449 24.6139 142.677 24.984 143.948 24.984V22.984C142.963 22.984 142.751 22.7061 142.689 22.5782L140.887 23.4458ZM144.015 24.9817L147.219 24.7657L147.085 22.7703L143.881 22.9863L144.015 24.9817ZM146.155 23.8484L146.335 26.0804L148.329 25.9196L148.149 23.6876L146.155 23.8484ZM147.17 25.0132C145.576 25.275 144.416 25.396 143.66 25.396V27.396C144.584 27.396 145.872 27.253 147.494 26.9868L147.17 25.0132ZM143.66 25.396C141.908 25.396 140.996 24.9644 140.557 24.4084L138.987 25.6476C139.988 26.9156 141.668 27.396 143.66 27.396V25.396ZM140.557 24.4084C140.331 24.1219 140.105 23.6274 139.941 22.8364C139.78 22.0553 139.692 21.0512 139.692 19.808H137.692C137.692 21.1328 137.784 22.2827 137.983 23.2416C138.179 24.1906 138.493 25.0221 138.987 25.6476L140.557 24.4084ZM139.692 19.808V10.34H137.692V19.808H139.692ZM138.692 9.34H136.136V11.34H138.692V9.34ZM137.136 10.34V8H135.136V10.34H137.136ZM136.136 9H138.692V7H136.136V9ZM139.692 8V2.492H137.692V8H139.692ZM138.692 3.492H141.356V1.492H138.692V3.492ZM140.356 2.492V8H142.356V2.492H140.356ZM141.356 9H147.08V7H141.356V9ZM146.08 8V10.34H148.08V8H146.08Z" fill="black" mask="url(#path-1-outside-1_263_97)"/>
</svg>
