<svg width="67" height="57" viewBox="0 0 67 57" fill="none" xmlns="http://www.w3.org/2000/svg">
<path d="M61.4167 31.1743C58.3061 29.272 54.523 28.3344 50.6982 28.5176C46.8735 28.7009 43.2381 29.994 40.3982 32.1814C37.5584 34.3688 35.6856 37.3182 35.0923 40.5379C34.499 43.7577 35.2208 47.0532 37.1376 49.875H8.37504C7.63464 49.875 6.92457 49.6248 6.40103 49.1794C5.8775 48.734 5.58337 48.1299 5.58337 47.5V9.5C5.58337 8.87011 5.8775 8.26602 6.40103 7.82062C6.92457 7.37522 7.63464 7.125 8.37504 7.125H29.0725L34.6558 11.875H58.625C59.3654 11.875 60.0755 12.1252 60.5991 12.5706C61.1226 13.016 61.4167 13.6201 61.4167 14.25V31.1743ZM50.25 40.375V32.0625L64.2084 42.75L50.25 53.4375V45.125H41.875V40.375H50.25Z" fill="black"/>
</svg>
