<svg width="143" height="35" viewBox="0 0 143 35" fill="none" xmlns="http://www.w3.org/2000/svg">
<mask id="path-1-outside-1_265_178" maskUnits="userSpaceOnUse" x="-1" y="-1" width="145" height="37" fill="black">
<rect fill="white" x="-1" y="-1" width="145" height="37"/>
<path d="M0.864 26L7.704 1.088H13.752L20.592 26H17.856L16.056 19.592H5.4L3.6 26H0.864ZM9.792 3.464L6.012 17.108H15.444L11.664 3.464H9.792ZM37.6504 0.151998V26H34.9864V24.776C33.1384 25.832 31.3144 26.36 29.5144 26.36C28.5544 26.36 27.7144 26.24 26.9944 26C26.2744 25.76 25.6024 25.328 24.9784 24.704C23.6824 23.408 23.0344 21.02 23.0344 17.54C23.0344 14.036 23.6104 11.516 24.7624 9.98C25.9384 8.42 27.8704 7.64 30.5584 7.64C31.9504 7.64 33.4264 7.796 34.9864 8.108V0.151998H37.6504ZM27.0664 22.76C27.4504 23.216 27.8584 23.528 28.2904 23.696C28.7224 23.864 29.2744 23.948 29.9464 23.948C30.6424 23.948 31.4104 23.84 32.2504 23.624C33.1144 23.384 33.7864 23.156 34.2664 22.94L34.9864 22.616V10.412C33.4504 10.124 32.0224 9.98 30.7024 9.98C28.8784 9.98 27.6064 10.568 26.8864 11.744C26.1664 12.896 25.8064 14.696 25.8064 17.144C25.8064 19.928 26.2264 21.8 27.0664 22.76ZM56.7051 0.151998V26H54.0411V24.776C52.1931 25.832 50.3691 26.36 48.5691 26.36C47.6091 26.36 46.7691 26.24 46.0491 26C45.3291 25.76 44.6571 25.328 44.0331 24.704C42.7371 23.408 42.0891 21.02 42.0891 17.54C42.0891 14.036 42.6651 11.516 43.8171 9.98C44.9931 8.42 46.9251 7.64 49.6131 7.64C51.0051 7.64 52.4811 7.796 54.0411 8.108V0.151998H56.7051ZM46.1211 22.76C46.5051 23.216 46.9131 23.528 47.3451 23.696C47.7771 23.864 48.3291 23.948 49.0011 23.948C49.6971 23.948 50.4651 23.84 51.3051 23.624C52.1691 23.384 52.8411 23.156 53.3211 22.94L54.0411 22.616V10.412C52.5051 10.124 51.0771 9.98 49.7571 9.98C47.9331 9.98 46.6611 10.568 45.9411 11.744C45.2211 12.896 44.8611 14.696 44.8611 17.144C44.8611 19.928 45.2811 21.8 46.1211 22.76ZM77.1899 3.14C73.5899 3.14 71.7899 4.496 71.7899 7.208C71.7899 8.72 72.1979 9.764 73.0139 10.34C73.8539 10.892 75.5339 11.456 78.0539 12.032C80.5979 12.584 82.3979 13.316 83.4539 14.228C84.5099 15.116 85.0379 16.592 85.0379 18.656C85.0379 23.768 82.3859 26.324 77.0819 26.324C75.3299 26.324 73.1339 26.12 70.4939 25.712L69.1979 25.532L69.4859 23.228C72.7499 23.66 75.2339 23.876 76.9379 23.876C80.4899 23.876 82.2659 22.208 82.2659 18.872C82.2659 17.528 81.8699 16.568 81.0779 15.992C80.3099 15.392 78.8579 14.888 76.7219 14.48C73.9139 13.88 71.9219 13.112 70.7459 12.176C69.5699 11.216 68.9819 9.62 68.9819 7.388C68.9819 2.924 71.6579 0.692 77.0099 0.692C78.7619 0.692 80.8619 0.872 83.3099 1.232L84.5339 1.412L84.2819 3.752C80.9459 3.344 78.5819 3.14 77.1899 3.14ZM88.5656 16.964C88.5656 13.676 89.1536 11.3 90.3296 9.836C91.5056 8.372 93.4856 7.64 96.2696 7.64C99.0776 7.64 101.058 8.372 102.21 9.836C103.386 11.3 103.974 13.676 103.974 16.964C103.974 20.252 103.422 22.64 102.318 24.128C101.214 25.616 99.1976 26.36 96.2696 26.36C93.3416 26.36 91.3256 25.616 90.2216 24.128C89.1176 22.64 88.5656 20.252 88.5656 16.964ZM91.3376 16.928C91.3376 19.544 91.6496 21.38 92.2736 22.436C92.9216 23.492 94.2536 24.02 96.2696 24.02C98.3096 24.02 99.6416 23.504 100.266 22.472C100.89 21.416 101.202 19.568 101.202 16.928C101.202 14.288 100.854 12.476 100.158 11.492C99.4616 10.484 98.1656 9.98 96.2696 9.98C94.3976 9.98 93.1016 10.484 92.3816 11.492C91.6856 12.476 91.3376 14.288 91.3376 16.928ZM111.077 26H108.377V8H111.041V9.26C112.985 8.18 114.845 7.64 116.621 7.64C119.021 7.64 120.629 8.288 121.445 9.584C122.285 10.88 122.705 13.184 122.705 16.496V26H120.041V16.568C120.041 14.072 119.789 12.368 119.285 11.456C118.805 10.52 117.761 10.052 116.153 10.052C115.385 10.052 114.569 10.172 113.705 10.412C112.865 10.628 112.217 10.844 111.761 11.06L111.077 11.384V26ZM134.661 34.46C131.781 34.46 129.765 34.064 128.613 33.272C127.485 32.504 126.921 31.088 126.921 29.024C126.921 28.04 127.137 27.236 127.569 26.612C128.001 26.012 128.733 25.328 129.765 24.56C129.093 24.104 128.757 23.276 128.757 22.076C128.757 21.668 129.057 20.912 129.657 19.808L129.981 19.232C128.085 18.368 127.137 16.556 127.137 13.796C127.137 9.692 129.381 7.64 133.869 7.64C135.021 7.64 136.089 7.76 137.073 8L137.613 8.108L142.941 7.964V10.268L139.521 10.196C140.313 10.988 140.709 12.188 140.709 13.796C140.709 16.052 140.145 17.636 139.017 18.548C137.913 19.436 136.161 19.88 133.761 19.88C133.113 19.88 132.525 19.832 131.997 19.736C131.565 20.792 131.349 21.476 131.349 21.788C131.349 22.532 131.577 23 132.033 23.192C132.489 23.36 133.869 23.444 136.173 23.444C138.477 23.444 140.133 23.804 141.141 24.524C142.149 25.244 142.653 26.648 142.653 28.736C142.653 32.552 139.989 34.46 134.661 34.46ZM129.585 28.808C129.585 30.08 129.933 30.956 130.629 31.436C131.349 31.94 132.657 32.192 134.553 32.192C136.473 32.192 137.841 31.928 138.657 31.4C139.497 30.872 139.917 29.984 139.917 28.736C139.917 27.512 139.617 26.72 139.017 26.36C138.417 26 137.241 25.82 135.489 25.82L131.601 25.64C130.809 26.216 130.269 26.72 129.981 27.152C129.717 27.584 129.585 28.136 129.585 28.808ZM129.837 13.796C129.837 15.212 130.149 16.22 130.773 16.82C131.421 17.42 132.477 17.72 133.941 17.72C135.405 17.72 136.449 17.42 137.073 16.82C137.697 16.22 138.009 15.212 138.009 13.796C138.009 12.356 137.697 11.336 137.073 10.736C136.449 10.136 135.405 9.836 133.941 9.836C132.477 9.836 131.421 10.148 130.773 10.772C130.149 11.372 129.837 12.38 129.837 13.796Z"/>
</mask>
<path d="M0.864 26L7.704 1.088H13.752L20.592 26H17.856L16.056 19.592H5.4L3.6 26H0.864ZM9.792 3.464L6.012 17.108H15.444L11.664 3.464H9.792ZM37.6504 0.151998V26H34.9864V24.776C33.1384 25.832 31.3144 26.36 29.5144 26.36C28.5544 26.36 27.7144 26.24 26.9944 26C26.2744 25.76 25.6024 25.328 24.9784 24.704C23.6824 23.408 23.0344 21.02 23.0344 17.54C23.0344 14.036 23.6104 11.516 24.7624 9.98C25.9384 8.42 27.8704 7.64 30.5584 7.64C31.9504 7.64 33.4264 7.796 34.9864 8.108V0.151998H37.6504ZM27.0664 22.76C27.4504 23.216 27.8584 23.528 28.2904 23.696C28.7224 23.864 29.2744 23.948 29.9464 23.948C30.6424 23.948 31.4104 23.84 32.2504 23.624C33.1144 23.384 33.7864 23.156 34.2664 22.94L34.9864 22.616V10.412C33.4504 10.124 32.0224 9.98 30.7024 9.98C28.8784 9.98 27.6064 10.568 26.8864 11.744C26.1664 12.896 25.8064 14.696 25.8064 17.144C25.8064 19.928 26.2264 21.8 27.0664 22.76ZM56.7051 0.151998V26H54.0411V24.776C52.1931 25.832 50.3691 26.36 48.5691 26.36C47.6091 26.36 46.7691 26.24 46.0491 26C45.3291 25.76 44.6571 25.328 44.0331 24.704C42.7371 23.408 42.0891 21.02 42.0891 17.54C42.0891 14.036 42.6651 11.516 43.8171 9.98C44.9931 8.42 46.9251 7.64 49.6131 7.64C51.0051 7.64 52.4811 7.796 54.0411 8.108V0.151998H56.7051ZM46.1211 22.76C46.5051 23.216 46.9131 23.528 47.3451 23.696C47.7771 23.864 48.3291 23.948 49.0011 23.948C49.6971 23.948 50.4651 23.84 51.3051 23.624C52.1691 23.384 52.8411 23.156 53.3211 22.94L54.0411 22.616V10.412C52.5051 10.124 51.0771 9.98 49.7571 9.98C47.9331 9.98 46.6611 10.568 45.9411 11.744C45.2211 12.896 44.8611 14.696 44.8611 17.144C44.8611 19.928 45.2811 21.8 46.1211 22.76ZM77.1899 3.14C73.5899 3.14 71.7899 4.496 71.7899 7.208C71.7899 8.72 72.1979 9.764 73.0139 10.34C73.8539 10.892 75.5339 11.456 78.0539 12.032C80.5979 12.584 82.3979 13.316 83.4539 14.228C84.5099 15.116 85.0379 16.592 85.0379 18.656C85.0379 23.768 82.3859 26.324 77.0819 26.324C75.3299 26.324 73.1339 26.12 70.4939 25.712L69.1979 25.532L69.4859 23.228C72.7499 23.66 75.2339 23.876 76.9379 23.876C80.4899 23.876 82.2659 22.208 82.2659 18.872C82.2659 17.528 81.8699 16.568 81.0779 15.992C80.3099 15.392 78.8579 14.888 76.7219 14.48C73.9139 13.88 71.9219 13.112 70.7459 12.176C69.5699 11.216 68.9819 9.62 68.9819 7.388C68.9819 2.924 71.6579 0.692 77.0099 0.692C78.7619 0.692 80.8619 0.872 83.3099 1.232L84.5339 1.412L84.2819 3.752C80.9459 3.344 78.5819 3.14 77.1899 3.14ZM88.5656 16.964C88.5656 13.676 89.1536 11.3 90.3296 9.836C91.5056 8.372 93.4856 7.64 96.2696 7.64C99.0776 7.64 101.058 8.372 102.21 9.836C103.386 11.3 103.974 13.676 103.974 16.964C103.974 20.252 103.422 22.64 102.318 24.128C101.214 25.616 99.1976 26.36 96.2696 26.36C93.3416 26.36 91.3256 25.616 90.2216 24.128C89.1176 22.64 88.5656 20.252 88.5656 16.964ZM91.3376 16.928C91.3376 19.544 91.6496 21.38 92.2736 22.436C92.9216 23.492 94.2536 24.02 96.2696 24.02C98.3096 24.02 99.6416 23.504 100.266 22.472C100.89 21.416 101.202 19.568 101.202 16.928C101.202 14.288 100.854 12.476 100.158 11.492C99.4616 10.484 98.1656 9.98 96.2696 9.98C94.3976 9.98 93.1016 10.484 92.3816 11.492C91.6856 12.476 91.3376 14.288 91.3376 16.928ZM111.077 26H108.377V8H111.041V9.26C112.985 8.18 114.845 7.64 116.621 7.64C119.021 7.64 120.629 8.288 121.445 9.584C122.285 10.88 122.705 13.184 122.705 16.496V26H120.041V16.568C120.041 14.072 119.789 12.368 119.285 11.456C118.805 10.52 117.761 10.052 116.153 10.052C115.385 10.052 114.569 10.172 113.705 10.412C112.865 10.628 112.217 10.844 111.761 11.06L111.077 11.384V26ZM134.661 34.46C131.781 34.46 129.765 34.064 128.613 33.272C127.485 32.504 126.921 31.088 126.921 29.024C126.921 28.04 127.137 27.236 127.569 26.612C128.001 26.012 128.733 25.328 129.765 24.56C129.093 24.104 128.757 23.276 128.757 22.076C128.757 21.668 129.057 20.912 129.657 19.808L129.981 19.232C128.085 18.368 127.137 16.556 127.137 13.796C127.137 9.692 129.381 7.64 133.869 7.64C135.021 7.64 136.089 7.76 137.073 8L137.613 8.108L142.941 7.964V10.268L139.521 10.196C140.313 10.988 140.709 12.188 140.709 13.796C140.709 16.052 140.145 17.636 139.017 18.548C137.913 19.436 136.161 19.88 133.761 19.88C133.113 19.88 132.525 19.832 131.997 19.736C131.565 20.792 131.349 21.476 131.349 21.788C131.349 22.532 131.577 23 132.033 23.192C132.489 23.36 133.869 23.444 136.173 23.444C138.477 23.444 140.133 23.804 141.141 24.524C142.149 25.244 142.653 26.648 142.653 28.736C142.653 32.552 139.989 34.46 134.661 34.46ZM129.585 28.808C129.585 30.08 129.933 30.956 130.629 31.436C131.349 31.94 132.657 32.192 134.553 32.192C136.473 32.192 137.841 31.928 138.657 31.4C139.497 30.872 139.917 29.984 139.917 28.736C139.917 27.512 139.617 26.72 139.017 26.36C138.417 26 137.241 25.82 135.489 25.82L131.601 25.64C130.809 26.216 130.269 26.72 129.981 27.152C129.717 27.584 129.585 28.136 129.585 28.808ZM129.837 13.796C129.837 15.212 130.149 16.22 130.773 16.82C131.421 17.42 132.477 17.72 133.941 17.72C135.405 17.72 136.449 17.42 137.073 16.82C137.697 16.22 138.009 15.212 138.009 13.796C138.009 12.356 137.697 11.336 137.073 10.736C136.449 10.136 135.405 9.836 133.941 9.836C132.477 9.836 131.421 10.148 130.773 10.772C130.149 11.372 129.837 12.38 129.837 13.796Z" fill="#666666"/>
<path d="M0.864 26L-0.100312 25.7352L-0.447575 27H0.864V26ZM7.704 1.088V0.0879993H6.94156L6.73969 0.823231L7.704 1.088ZM13.752 1.088L14.7163 0.823231L14.5144 0.0879993H13.752V1.088ZM20.592 26V27H21.9036L21.5563 25.7352L20.592 26ZM17.856 26L16.8933 26.2704L17.0982 27H17.856V26ZM16.056 19.592L17.0187 19.3216L16.8138 18.592H16.056V19.592ZM5.4 19.592V18.592H4.6422L4.43726 19.3216L5.4 19.592ZM3.6 26V27H4.3578L4.56274 26.2704L3.6 26ZM9.792 3.464V2.464H9.03138L8.8283 3.19701L9.792 3.464ZM6.012 17.108L5.0483 16.841L4.69729 18.108H6.012V17.108ZM15.444 17.108V18.108H16.7587L16.4077 16.841L15.444 17.108ZM11.664 3.464L12.6277 3.19701L12.4246 2.464H11.664V3.464ZM1.82831 26.2648L8.66831 1.35277L6.73969 0.823231L-0.100312 25.7352L1.82831 26.2648ZM7.704 2.088H13.752V0.0879993H7.704V2.088ZM12.7877 1.35277L19.6277 26.2648L21.5563 25.7352L14.7163 0.823231L12.7877 1.35277ZM20.592 25H17.856V27H20.592V25ZM18.8187 25.7296L17.0187 19.3216L15.0933 19.8624L16.8933 26.2704L18.8187 25.7296ZM16.056 18.592H5.4V20.592H16.056V18.592ZM4.43726 19.3216L2.63726 25.7296L4.56274 26.2704L6.36274 19.8624L4.43726 19.3216ZM3.6 25H0.864V27H3.6V25ZM8.8283 3.19701L5.0483 16.841L6.9757 17.375L10.7557 3.73099L8.8283 3.19701ZM6.012 18.108H15.444V16.108H6.012V18.108ZM16.4077 16.841L12.6277 3.19701L10.7003 3.73099L14.4803 17.375L16.4077 16.841ZM11.664 2.464H9.792V4.464H11.664V2.464ZM37.6504 0.151999H38.6504V-0.848001H37.6504V0.151999ZM37.6504 26V27H38.6504V26H37.6504ZM34.9864 26H33.9864V27H34.9864V26ZM34.9864 24.776H35.9864V23.0528L34.4902 23.9078L34.9864 24.776ZM24.9784 24.704L24.2713 25.4111L24.9784 24.704ZM24.7624 9.98L23.9639 9.37803L23.9624 9.38L24.7624 9.98ZM34.9864 8.108L34.7903 9.08858L35.9864 9.3278V8.108H34.9864ZM34.9864 0.151999V-0.848001H33.9864V0.151999H34.9864ZM27.0664 22.76L27.8313 22.1159L27.8252 22.1086L27.819 22.1015L27.0664 22.76ZM32.2504 23.624L32.4994 24.5925L32.5087 24.5901L32.518 24.5875L32.2504 23.624ZM34.2664 22.94L34.6767 23.8519L34.2664 22.94ZM34.9864 22.616L35.3967 23.5279L35.9864 23.2626V22.616H34.9864ZM34.9864 10.412H35.9864V9.58207L35.1707 9.42913L34.9864 10.412ZM26.8864 11.744L27.7344 12.274L27.7392 12.2662L26.8864 11.744ZM36.6504 0.151999V26H38.6504V0.151999H36.6504ZM37.6504 25H34.9864V27H37.6504V25ZM35.9864 26V24.776H33.9864V26H35.9864ZM34.4902 23.9078C32.7656 24.8932 31.111 25.36 29.5144 25.36V27.36C31.5177 27.36 33.5111 26.7708 35.4825 25.6442L34.4902 23.9078ZM29.5144 25.36C28.6347 25.36 27.9057 25.2497 27.3106 25.0513L26.6781 26.9487C27.523 27.2303 28.474 27.36 29.5144 27.36V25.36ZM27.3106 25.0513C26.7601 24.8678 26.2176 24.529 25.6855 23.9969L24.2713 25.4111C24.9872 26.127 25.7887 26.6522 26.6781 26.9487L27.3106 25.0513ZM25.6855 23.9969C24.6869 22.9983 24.0344 20.967 24.0344 17.54H22.0344C22.0344 21.073 22.6778 23.8177 24.2713 25.4111L25.6855 23.9969ZM24.0344 17.54C24.0344 14.0964 24.61 11.8498 25.5624 10.58L23.9624 9.38C22.6108 11.1822 22.0344 13.9756 22.0344 17.54H24.0344ZM25.5609 10.582C26.483 9.35876 28.0579 8.64 30.5584 8.64V6.64C27.6829 6.64 25.3937 7.48124 23.9639 9.37804L25.5609 10.582ZM30.5584 8.64C31.876 8.64 33.2859 8.7877 34.7903 9.08858L35.1825 7.12742C33.5669 6.8043 32.0248 6.64 30.5584 6.64V8.64ZM35.9864 8.108V0.151999H33.9864V8.108H35.9864ZM34.9864 1.152H37.6504V-0.848001H34.9864V1.152ZM26.3015 23.4041C26.7633 23.9526 27.3014 24.3843 27.9279 24.628L28.6528 22.764C28.4154 22.6717 28.1375 22.4794 27.8313 22.1159L26.3015 23.4041ZM27.9279 24.628C28.515 24.8563 29.2014 24.948 29.9464 24.948V22.948C29.3474 22.948 28.9297 22.8717 28.6528 22.764L27.9279 24.628ZM29.9464 24.948C30.744 24.948 31.5971 24.8245 32.4994 24.5925L32.0013 22.6555C31.2237 22.8555 30.5408 22.948 29.9464 22.948V24.948ZM32.518 24.5875C33.402 24.342 34.1295 24.0982 34.6767 23.8519L33.856 22.0281C33.4432 22.2138 32.8268 22.426 31.9827 22.6605L32.518 24.5875ZM34.6767 23.8519L35.3967 23.5279L34.576 21.7041L33.856 22.0281L34.6767 23.8519ZM35.9864 22.616V10.412H33.9864V22.616H35.9864ZM35.1707 9.42913C33.5846 9.13175 32.0942 8.98 30.7024 8.98V10.98C31.9505 10.98 33.3161 11.1163 34.8021 11.3949L35.1707 9.42913ZM30.7024 8.98C28.6572 8.98 26.9929 9.65483 26.0335 11.2218L27.7392 12.2662C28.2198 11.4812 29.0996 10.98 30.7024 10.98V8.98ZM26.0384 11.214C25.1675 12.6074 24.8064 14.6383 24.8064 17.144H26.8064C26.8064 14.7537 27.1653 13.1846 27.7344 12.274L26.0384 11.214ZM24.8064 17.144C24.8064 18.5798 24.9141 19.8228 25.1456 20.8549C25.3752 21.8782 25.7422 22.7653 26.3138 23.4185L27.819 22.1015C27.5505 21.7947 27.2875 21.2658 27.0971 20.4171C26.9087 19.5772 26.8064 18.4922 26.8064 17.144H24.8064ZM56.7051 0.151999H57.7051V-0.848001H56.7051V0.151999ZM56.7051 26V27H57.7051V26H56.7051ZM54.0411 26H53.0411V27H54.0411V26ZM54.0411 24.776H55.0411V23.0528L53.5449 23.9078L54.0411 24.776ZM44.0331 24.704L43.326 25.4111L44.0331 24.704ZM43.8171 9.98L43.0185 9.37803L43.0171 9.38L43.8171 9.98ZM54.0411 8.108L53.8449 9.08858L55.0411 9.3278V8.108H54.0411ZM54.0411 0.151999V-0.848001H53.0411V0.151999H54.0411ZM46.1211 22.76L46.886 22.1159L46.8799 22.1086L46.8736 22.1015L46.1211 22.76ZM51.3051 23.624L51.5541 24.5925L51.5634 24.5901L51.5727 24.5875L51.3051 23.624ZM53.3211 22.94L53.7314 23.8519L53.3211 22.94ZM54.0411 22.616L54.4514 23.5279L55.0411 23.2626V22.616H54.0411ZM54.0411 10.412H55.0411V9.58207L54.2254 9.42913L54.0411 10.412ZM45.9411 11.744L46.7891 12.274L46.7939 12.2662L45.9411 11.744ZM55.7051 0.151999V26H57.7051V0.151999H55.7051ZM56.7051 25H54.0411V27H56.7051V25ZM55.0411 26V24.776H53.0411V26H55.0411ZM53.5449 23.9078C51.8203 24.8932 50.1657 25.36 48.5691 25.36V27.36C50.5724 27.36 52.5658 26.7708 54.5372 25.6442L53.5449 23.9078ZM48.5691 25.36C47.6894 25.36 46.9604 25.2497 46.3653 25.0513L45.7328 26.9487C46.5777 27.2303 47.5287 27.36 48.5691 27.36V25.36ZM46.3653 25.0513C45.8148 24.8678 45.2722 24.529 44.7402 23.9969L43.326 25.4111C44.0419 26.127 44.8433 26.6522 45.7328 26.9487L46.3653 25.0513ZM44.7402 23.9969C43.7416 22.9983 43.0891 20.967 43.0891 17.54H41.0891C41.0891 21.073 41.7325 23.8177 43.326 25.4111L44.7402 23.9969ZM43.0891 17.54C43.0891 14.0964 43.6647 11.8498 44.6171 10.58L43.0171 9.38C41.6654 11.1822 41.0891 13.9756 41.0891 17.54H43.0891ZM44.6156 10.582C45.5377 9.35876 47.1126 8.64 49.6131 8.64V6.64C46.7376 6.64 44.4484 7.48124 43.0185 9.37804L44.6156 10.582ZM49.6131 8.64C50.9307 8.64 52.3406 8.7877 53.8449 9.08858L54.2372 7.12742C52.6216 6.8043 51.0795 6.64 49.6131 6.64V8.64ZM55.0411 8.108V0.151999H53.0411V8.108H55.0411ZM54.0411 1.152H56.7051V-0.848001H54.0411V1.152ZM45.3562 23.4041C45.818 23.9526 46.3561 24.3843 46.9826 24.628L47.7075 22.764C47.4701 22.6717 47.1921 22.4794 46.886 22.1159L45.3562 23.4041ZM46.9826 24.628C47.5697 24.8563 48.2561 24.948 49.0011 24.948V22.948C48.4021 22.948 47.9844 22.8717 47.7075 22.764L46.9826 24.628ZM49.0011 24.948C49.7987 24.948 50.6518 24.8245 51.5541 24.5925L51.056 22.6555C50.2784 22.8555 49.5954 22.948 49.0011 22.948V24.948ZM51.5727 24.5875C52.4567 24.342 53.1842 24.0982 53.7314 23.8519L52.9107 22.0281C52.4979 22.2138 51.8814 22.426 51.0374 22.6605L51.5727 24.5875ZM53.7314 23.8519L54.4514 23.5279L53.6307 21.7041L52.9107 22.0281L53.7314 23.8519ZM55.0411 22.616V10.412H53.0411V22.616H55.0411ZM54.2254 9.42913C52.6393 9.13175 51.1489 8.98 49.7571 8.98V10.98C51.0052 10.98 52.3708 11.1163 53.8568 11.3949L54.2254 9.42913ZM49.7571 8.98C47.7119 8.98 46.0476 9.65483 45.0882 11.2218L46.7939 12.2662C47.2745 11.4812 48.1543 10.98 49.7571 10.98V8.98ZM45.0931 11.214C44.2222 12.6074 43.8611 14.6383 43.8611 17.144H45.8611C45.8611 14.7537 46.2199 13.1846 46.7891 12.274L45.0931 11.214ZM43.8611 17.144C43.8611 18.5798 43.9688 19.8228 44.2003 20.8549C44.4299 21.8782 44.7969 22.7653 45.3685 23.4185L46.8736 22.1015C46.6052 21.7947 46.3422 21.2658 46.1518 20.4171C45.9634 19.5772 45.8611 18.4922 45.8611 17.144H43.8611ZM73.0139 10.34L72.4372 11.157L72.4508 11.1666L72.4647 11.1757L73.0139 10.34ZM78.0539 12.032L77.8311 13.0069L77.8419 13.0093L78.0539 12.032ZM83.4539 14.228L82.8002 14.9849L82.8103 14.9934L83.4539 14.228ZM70.4939 25.712L70.6466 24.7237L70.6391 24.7226L70.6315 24.7215L70.4939 25.712ZM69.1979 25.532L68.2056 25.408L68.0833 26.3868L69.0603 26.5225L69.1979 25.532ZM69.4859 23.228L69.6171 22.2366L68.6186 22.1045L68.4936 23.104L69.4859 23.228ZM81.0779 15.992L80.4623 16.78L80.4758 16.7906L80.4897 16.8007L81.0779 15.992ZM76.7219 14.48L76.5129 15.4579L76.5236 15.4602L76.5343 15.4622L76.7219 14.48ZM70.7459 12.176L70.1135 12.9507L70.1232 12.9584L70.7459 12.176ZM83.3099 1.232L83.1644 2.22136L83.3099 1.232ZM84.5339 1.412L85.5282 1.51907L85.6312 0.562605L84.6794 0.42264L84.5339 1.412ZM84.2819 3.752L84.1605 4.7446L85.1675 4.86776L85.2762 3.85907L84.2819 3.752ZM77.1899 2.14C75.2931 2.14 73.6879 2.4922 72.5382 3.35828C71.3352 4.26454 70.7899 5.60967 70.7899 7.208H72.7899C72.7899 6.09433 73.1446 5.40546 73.7416 4.95572C74.392 4.46579 75.4868 4.14 77.1899 4.14V2.14ZM70.7899 7.208C70.7899 8.87065 71.2397 10.3117 72.4372 11.157L73.5906 9.52303C73.1561 9.21632 72.7899 8.56935 72.7899 7.208H70.7899ZM72.4647 11.1757C73.4742 11.8391 75.3223 12.4334 77.8311 13.0069L78.2767 11.0571C75.7456 10.4786 74.2336 9.94492 73.5631 9.50429L72.4647 11.1757ZM77.8419 13.0093C80.3412 13.5516 81.9386 14.2406 82.8003 14.9848L84.1075 13.4712C82.8572 12.3914 80.8546 11.6164 78.266 11.0547L77.8419 13.0093ZM82.8103 14.9934C83.5469 15.6128 84.0379 16.7383 84.0379 18.656H86.0379C86.0379 16.4457 85.4729 14.6192 84.0975 13.4626L82.8103 14.9934ZM84.0379 18.656C84.0379 21.0483 83.4194 22.6611 82.3549 23.687C81.2837 24.7195 79.5888 25.324 77.0819 25.324V27.324C79.879 27.324 82.1621 26.6505 83.7429 25.127C85.3305 23.5969 86.0379 21.3757 86.0379 18.656H84.0379ZM77.0819 25.324C75.4002 25.324 73.2594 25.1275 70.6466 24.7237L70.3412 26.7003C73.0084 27.1125 75.2596 27.324 77.0819 27.324V25.324ZM70.6315 24.7215L69.3355 24.5415L69.0603 26.5225L70.3563 26.7025L70.6315 24.7215ZM70.1902 25.656L70.4782 23.352L68.4936 23.104L68.2056 25.408L70.1902 25.656ZM69.3547 24.2194C72.63 24.6529 75.1665 24.876 76.9379 24.876V22.876C75.3013 22.876 72.8698 22.6671 69.6171 22.2366L69.3547 24.2194ZM76.9379 24.876C78.853 24.876 80.4753 24.4276 81.6185 23.3539C82.7735 22.2692 83.2659 20.7108 83.2659 18.872H81.2659C81.2659 20.3692 80.8704 21.3128 80.2493 21.8961C79.6165 22.4904 78.5748 22.876 76.9379 22.876V24.876ZM83.2659 18.872C83.2659 17.3366 82.8057 16.0121 81.6661 15.1833L80.4897 16.8007C80.9341 17.1239 81.2659 17.7194 81.2659 18.872H83.2659ZM81.6936 15.204C80.72 14.4434 79.0545 13.9075 76.9095 13.4978L76.5343 15.4622C78.6613 15.8685 79.8998 16.3406 80.4623 16.78L81.6936 15.204ZM76.9309 13.5021C74.1605 12.9101 72.3574 12.1805 71.3687 11.3936L70.1232 12.9584C71.4864 14.0435 73.6673 14.8499 76.5129 15.4579L76.9309 13.5021ZM71.3783 11.4013C70.528 10.7073 69.9819 9.46508 69.9819 7.388H67.9819C67.9819 9.77491 68.6118 11.7247 70.1135 12.9507L71.3783 11.4013ZM69.9819 7.388C69.9819 5.36264 70.5803 4.00899 71.6294 3.13394C72.7133 2.2299 74.4483 1.692 77.0099 1.692V-0.308001C74.2195 -0.308001 71.9405 0.270097 70.3484 1.59806C68.7215 2.95501 67.9819 4.94936 67.9819 7.388H69.9819ZM77.0099 1.692C78.6979 1.692 80.7466 1.8658 83.1644 2.22136L83.4554 0.24264C80.9772 -0.121805 78.8259 -0.308001 77.0099 -0.308001V1.692ZM83.1644 2.22136L84.3884 2.40136L84.6794 0.42264L83.4554 0.24264L83.1644 2.22136ZM83.5397 1.30493L83.2877 3.64493L85.2762 3.85907L85.5282 1.51907L83.5397 1.30493ZM84.4033 2.7594C81.0674 2.35141 78.6492 2.14 77.1899 2.14V4.14C78.5146 4.14 80.8244 4.33659 84.1605 4.7446L84.4033 2.7594ZM90.3296 9.836L91.1092 10.4623L90.3296 9.836ZM102.21 9.836L101.424 10.4544L101.43 10.4623L102.21 9.836ZM102.318 24.128L103.121 24.7238L102.318 24.128ZM90.2216 24.128L89.4185 24.7238L90.2216 24.128ZM92.2736 22.436L91.4127 22.9447L91.4169 22.9519L91.4213 22.959L92.2736 22.436ZM100.266 22.472L101.121 22.9894L101.127 22.9807L100.266 22.472ZM100.158 11.492L99.3347 12.0602L99.3412 12.0695L100.158 11.492ZM92.3816 11.492L91.5679 10.9108L91.5652 10.9145L92.3816 11.492ZM89.5656 16.964C89.5656 13.7502 90.149 11.6577 91.1092 10.4623L89.55 9.20975C88.1583 10.9423 87.5656 13.6018 87.5656 16.964H89.5656ZM91.1092 10.4623C92.0179 9.33113 93.6382 8.64 96.2696 8.64V6.64C93.333 6.64 90.9934 7.41287 89.55 9.20975L91.1092 10.4623ZM96.2696 8.64C98.9306 8.64 100.542 9.33375 101.424 10.4544L102.995 9.21761C101.573 7.41025 99.2247 6.64 96.2696 6.64V8.64ZM101.43 10.4623C102.39 11.6577 102.974 13.7502 102.974 16.964H104.974C104.974 13.6018 104.381 10.9423 102.989 9.20975L101.43 10.4623ZM102.974 16.964C102.974 20.1844 102.424 22.3057 101.515 23.5322L103.121 24.7238C104.419 22.9743 104.974 20.3196 104.974 16.964H102.974ZM101.515 23.5322C100.688 24.6462 99.0677 25.36 96.2696 25.36V27.36C99.3275 27.36 101.739 26.5858 103.121 24.7238L101.515 23.5322ZM96.2696 25.36C93.4715 25.36 91.8513 24.6462 91.0247 23.5322L89.4185 24.7238C90.8 26.5858 93.2117 27.36 96.2696 27.36V25.36ZM91.0247 23.5322C90.1147 22.3057 89.5656 20.1844 89.5656 16.964H87.5656C87.5656 20.3196 88.1205 22.9743 89.4185 24.7238L91.0247 23.5322ZM90.3376 16.928C90.3376 19.5625 90.641 21.6387 91.4127 22.9447L93.1346 21.9273C92.6583 21.1213 92.3376 19.5255 92.3376 16.928H90.3376ZM91.4213 22.959C92.3444 24.4633 94.1323 25.02 96.2696 25.02V23.02C94.375 23.02 93.4988 22.5207 93.1259 21.913L91.4213 22.959ZM96.2696 25.02C98.4121 25.02 100.217 24.4848 101.121 22.9894L99.4099 21.9546C99.0661 22.5232 98.2071 23.02 96.2696 23.02V25.02ZM101.127 22.9807C101.899 21.6739 102.202 19.5845 102.202 16.928H100.202C100.202 19.5515 99.8805 21.1581 99.4047 21.9633L101.127 22.9807ZM102.202 16.928C102.202 15.5693 102.112 14.3888 101.923 13.4004C101.735 12.4215 101.436 11.568 100.974 10.9145L99.3412 12.0695C99.575 12.4 99.7986 12.9445 99.9586 13.7776C100.117 14.6012 100.202 15.6467 100.202 16.928H102.202ZM100.981 10.9238C100.012 9.52138 98.3073 8.98 96.2696 8.98V10.98C98.024 10.98 98.9111 11.4466 99.3347 12.0602L100.981 10.9238ZM96.2696 8.98C94.2468 8.98 92.5572 9.52573 91.5679 10.9108L93.1954 12.0732C93.646 11.4423 94.5485 10.98 96.2696 10.98V8.98ZM91.5652 10.9145C91.103 11.568 90.8046 12.4215 90.6166 13.4004C90.4268 14.3888 90.3376 15.5693 90.3376 16.928H92.3376C92.3376 15.6467 92.4225 14.6012 92.5807 13.7776C92.7407 12.9445 92.9643 12.4 93.198 12.0695L91.5652 10.9145ZM111.077 26V27H112.077V26H111.077ZM108.377 26H107.377V27H108.377V26ZM108.377 8V7H107.377V8H108.377ZM111.041 8H112.041V7H111.041V8ZM111.041 9.26H110.041V10.9595L111.527 10.1342L111.041 9.26ZM121.445 9.584L120.599 10.1169L120.606 10.1279L121.445 9.584ZM122.705 26V27H123.705V26H122.705ZM120.041 26H119.041V27H120.041V26ZM119.285 11.456L118.395 11.9123L118.402 11.9261L118.41 11.9397L119.285 11.456ZM113.705 10.412L113.954 11.3805L113.964 11.3781L113.973 11.3755L113.705 10.412ZM111.761 11.06L112.189 11.9637L111.761 11.06ZM111.077 11.384L110.649 10.4803L110.077 10.7512V11.384H111.077ZM111.077 25H108.377V27H111.077V25ZM109.377 26V8H107.377V26H109.377ZM108.377 9H111.041V7H108.377V9ZM110.041 8V9.26H112.041V8H110.041ZM111.527 10.1342C113.359 9.1162 115.053 8.64 116.621 8.64V6.64C114.638 6.64 112.611 7.24379 110.556 8.38584L111.527 10.1342ZM116.621 8.64C118.882 8.64 120.053 9.25044 120.599 10.1168L122.291 9.05119C121.205 7.32555 119.16 6.64 116.621 6.64V8.64ZM120.606 10.1279C121.275 11.1597 121.705 13.2012 121.705 16.496H123.705C123.705 13.1668 123.296 10.6003 122.284 9.0401L120.606 10.1279ZM121.705 16.496V26H123.705V16.496H121.705ZM122.705 25H120.041V27H122.705V25ZM121.041 26V16.568H119.041V26H121.041ZM121.041 16.568C121.041 15.2907 120.977 14.1883 120.841 13.2717C120.708 12.3683 120.496 11.5793 120.16 10.9723L118.41 11.9397C118.578 12.2447 118.745 12.7637 118.863 13.5643C118.979 14.3517 119.041 15.3493 119.041 16.568H121.041ZM120.175 10.9997C119.443 9.57208 117.918 9.052 116.153 9.052V11.052C117.605 11.052 118.167 11.4679 118.395 11.9123L120.175 10.9997ZM116.153 9.052C115.281 9.052 114.374 9.18821 113.438 9.44848L113.973 11.3755C114.764 11.1558 115.489 11.052 116.153 11.052V9.052ZM113.456 9.44351C112.592 9.6658 111.873 9.90045 111.333 10.1563L112.189 11.9637C112.561 11.7875 113.139 11.5902 113.954 11.3805L113.456 9.44351ZM111.333 10.1563L110.649 10.4803L111.505 12.2877L112.189 11.9637L111.333 10.1563ZM110.077 11.384V26H112.077V11.384H110.077ZM128.613 33.272L129.18 32.4479L129.176 32.4454L128.613 33.272ZM127.569 26.612L126.758 26.0277L126.752 26.0352L126.747 26.0428L127.569 26.612ZM129.765 24.56L130.362 25.3622L131.491 24.5224L130.327 23.7325L129.765 24.56ZM129.657 19.808L128.786 19.3177L128.782 19.3241L128.778 19.3305L129.657 19.808ZM129.981 19.232L130.853 19.7223L131.386 18.7734L130.396 18.322L129.981 19.232ZM137.073 8L136.836 8.97152L136.856 8.97648L136.877 8.98058L137.073 8ZM137.613 8.108L137.417 9.08858L137.527 9.11068L137.64 9.10764L137.613 8.108ZM142.941 7.964H143.941V6.93661L142.914 6.96436L142.941 7.964ZM142.941 10.268L142.92 11.2678L143.941 11.2893V10.268H142.941ZM139.521 10.196L139.542 9.19622L137.055 9.14385L138.814 10.9031L139.521 10.196ZM139.017 18.548L139.644 19.3272L139.646 19.3256L139.017 18.548ZM131.997 19.736L132.176 18.7521L131.378 18.6071L131.072 19.3574L131.997 19.736ZM132.033 23.192L131.645 24.1136L131.666 24.1225L131.687 24.1303L132.033 23.192ZM141.141 24.524L140.56 25.3377L141.141 24.524ZM130.629 31.436L131.203 30.6167L131.197 30.6128L130.629 31.436ZM138.657 31.4L138.125 30.5533L138.114 30.5604L138.657 31.4ZM139.017 26.36L138.503 27.2175L139.017 26.36ZM135.489 25.82L135.443 26.8189L135.466 26.82H135.489V25.82ZM131.601 25.64L131.647 24.6411L131.297 24.6248L131.013 24.8313L131.601 25.64ZM129.981 27.152L129.149 26.5973L129.138 26.6137L129.128 26.6306L129.981 27.152ZM130.773 16.82L130.08 17.5408L130.087 17.5474L130.094 17.5538L130.773 16.82ZM137.073 16.82L136.38 16.0992V16.0992L137.073 16.82ZM130.773 10.772L131.466 11.4928L131.467 11.4923L130.773 10.772ZM134.661 33.46C131.808 33.46 130.063 33.0554 129.18 32.448L128.047 34.096C129.467 35.0727 131.754 35.46 134.661 35.46V33.46ZM129.176 32.4454C128.442 31.9454 127.921 30.9354 127.921 29.024H125.921C125.921 31.2406 126.529 33.0626 128.05 34.0986L129.176 32.4454ZM127.921 29.024C127.921 28.1835 128.105 27.5947 128.391 27.1812L126.747 26.0428C126.169 26.8773 125.921 27.8965 125.921 29.024H127.921ZM128.381 27.1963C128.724 26.7191 129.361 26.1072 130.362 25.3622L129.168 23.7578C128.105 24.5488 127.278 25.3049 126.758 26.0277L128.381 27.1963ZM130.327 23.7325C130.044 23.5405 129.757 23.1126 129.757 22.076H127.757C127.757 23.4394 128.143 24.6675 129.204 25.3875L130.327 23.7325ZM129.757 22.076C129.757 22.0877 129.756 22.0529 129.782 21.9543C129.806 21.8606 129.847 21.7345 129.912 21.5718C130.041 21.2453 130.246 20.8191 130.536 20.2855L128.778 19.3305C128.468 19.9009 128.223 20.4047 128.053 20.8342C127.893 21.2364 127.757 21.674 127.757 22.076H129.757ZM130.529 20.2983L130.853 19.7223L129.11 18.7417L128.786 19.3177L130.529 20.2983ZM130.396 18.322C128.976 17.6752 128.137 16.3159 128.137 13.796H126.137C126.137 16.7961 127.194 19.0608 129.566 20.142L130.396 18.322ZM128.137 13.796C128.137 11.9223 128.645 10.694 129.495 9.91697C130.362 9.12447 131.758 8.64 133.869 8.64V6.64C131.492 6.64 129.523 7.18152 128.145 8.44103C126.751 9.71602 126.137 11.5657 126.137 13.796H128.137ZM133.869 8.64C134.952 8.64 135.939 8.75282 136.836 8.97152L137.31 7.02848C136.239 6.76718 135.09 6.64 133.869 6.64V8.64ZM136.877 8.98058L137.417 9.08858L137.809 7.12742L137.269 7.01942L136.877 8.98058ZM137.64 9.10764L142.968 8.96363L142.914 6.96436L137.586 7.10836L137.64 9.10764ZM141.941 7.964V10.268H143.941V7.964H141.941ZM142.962 9.26822L139.542 9.19622L139.5 11.1958L142.92 11.2678L142.962 9.26822ZM138.814 10.9031C139.35 11.4389 139.709 12.3371 139.709 13.796H141.709C141.709 12.0389 141.276 10.5371 140.228 9.48889L138.814 10.9031ZM139.709 13.796C139.709 15.919 139.176 17.1337 138.388 17.7704L139.646 19.3256C141.114 18.1383 141.709 16.185 141.709 13.796H139.709ZM138.39 17.7688C137.551 18.4441 136.077 18.88 133.761 18.88V20.88C136.245 20.88 138.275 20.4279 139.644 19.3272L138.39 17.7688ZM133.761 18.88C133.161 18.88 132.634 18.8355 132.176 18.7521L131.818 20.7199C132.416 20.8285 133.065 20.88 133.761 20.88V18.88ZM131.072 19.3574C130.85 19.8979 130.677 20.3611 130.558 20.7399C130.448 21.086 130.349 21.4642 130.349 21.788H132.349C132.349 21.7998 132.358 21.68 132.465 21.3421C132.561 21.0369 132.712 20.6301 132.923 20.1146L131.072 19.3574ZM130.349 21.788C130.349 22.7012 130.642 23.6915 131.645 24.1136L132.421 22.2704C132.416 22.2682 132.421 22.27 132.428 22.2766C132.435 22.2827 132.43 22.2809 132.419 22.259C132.394 22.2071 132.349 22.0689 132.349 21.788H130.349ZM131.687 24.1303C132.075 24.273 132.679 24.3384 133.349 24.3792C134.068 24.4229 135.012 24.444 136.173 24.444V22.444C135.03 22.444 134.132 22.4231 133.471 22.3828C133.14 22.3627 132.88 22.3384 132.684 22.3115C132.587 22.2982 132.512 22.2851 132.457 22.2732C132.399 22.2608 132.377 22.2528 132.379 22.2537L131.687 24.1303ZM136.173 24.444C138.423 24.444 139.814 24.8052 140.56 25.3377L141.722 23.7103C140.452 22.8028 138.531 22.444 136.173 22.444V24.444ZM140.56 25.3377C141.166 25.7709 141.653 26.7508 141.653 28.736H143.653C143.653 26.5452 143.132 24.7171 141.722 23.7103L140.56 25.3377ZM141.653 28.736C141.653 30.3822 141.097 31.4826 140.073 32.216C138.987 32.9936 137.236 33.46 134.661 33.46V35.46C137.414 35.46 139.659 34.9724 141.237 33.842C142.877 32.6674 143.653 30.9058 143.653 28.736H141.653ZM128.585 28.808C128.585 30.2345 128.977 31.5117 130.061 32.2592L131.197 30.6128C130.889 30.4003 130.585 29.9255 130.585 28.808H128.585ZM130.056 32.2552C131.051 32.9521 132.642 33.192 134.553 33.192V31.192C132.672 31.192 131.647 30.9279 131.203 30.6168L130.056 32.2552ZM134.553 33.192C136.51 33.192 138.128 32.9332 139.2 32.2396L138.114 30.5604C137.554 30.9228 136.436 31.192 134.553 31.192V33.192ZM139.189 32.2466C140.397 31.4875 140.917 30.2265 140.917 28.736H138.917C138.917 29.7415 138.597 30.2565 138.125 30.5534L139.189 32.2466ZM140.917 28.736C140.917 27.4261 140.606 26.1472 139.532 25.5025L138.503 27.2175C138.628 27.2928 138.917 27.5979 138.917 28.736H140.917ZM139.532 25.5025C139.068 25.2247 138.475 25.0643 137.836 24.9665C137.181 24.8662 136.394 24.82 135.489 24.82V26.82C136.336 26.82 137.013 26.8638 137.534 26.9435C138.071 27.0257 138.366 27.1353 138.503 27.2175L139.532 25.5025ZM135.535 24.8211L131.647 24.6411L131.555 26.6389L135.443 26.8189L135.535 24.8211ZM131.013 24.8313C130.195 25.4265 129.538 26.0145 129.149 26.5973L130.813 27.7067C131.001 27.4255 131.424 27.0055 132.189 26.4487L131.013 24.8313ZM129.128 26.6306C128.741 27.263 128.585 28.0106 128.585 28.808H130.585C130.585 28.2614 130.693 27.905 130.834 27.6735L129.128 26.6306ZM128.837 13.796C128.837 15.3182 129.166 16.662 130.08 17.5408L131.466 16.0992C131.132 15.778 130.837 15.1058 130.837 13.796H128.837ZM130.094 17.5538C131.015 18.4072 132.38 18.72 133.941 18.72V16.72C132.574 16.72 131.827 16.4328 131.452 16.0862L130.094 17.5538ZM133.941 18.72C135.497 18.72 136.863 18.4093 137.766 17.5408L136.38 16.0992C136.035 16.4307 135.314 16.72 133.941 16.72V18.72ZM137.766 17.5408C138.68 16.662 139.009 15.3182 139.009 13.796H137.009C137.009 15.1058 136.714 15.778 136.38 16.0992L137.766 17.5408ZM139.009 13.796C139.009 12.2558 138.683 10.8965 137.766 10.0152L136.38 11.4568C136.711 11.7755 137.009 12.4562 137.009 13.796H139.009ZM137.766 10.0152C136.863 9.14666 135.497 8.836 133.941 8.836V10.836C135.314 10.836 136.035 11.1253 136.38 11.4568L137.766 10.0152ZM133.941 8.836C132.373 8.836 131.001 9.16406 130.079 10.0517L131.467 11.4923C131.841 11.1319 132.582 10.836 133.941 10.836V8.836ZM130.08 10.0512C129.166 10.93 128.837 12.2738 128.837 13.796H130.837C130.837 12.4862 131.132 11.814 131.466 11.4928L130.08 10.0512Z" fill="black" mask="url(#path-1-outside-1_265_178)"/>
</svg>
