<svg width="123" height="16" viewBox="0 0 123 16" fill="none" xmlns="http://www.w3.org/2000/svg">
<path d="M0.84 15V0.999999H2.36L7.28 13.9L12.2 0.999999H13.72V15H13V1.68H12.72L7.8 14.58H6.76L1.84 1.68H1.56V15H0.84ZM17.5848 5.94C18.1982 5.19333 19.2448 4.82 20.7248 4.82C22.2048 4.82 23.2515 5.19333 23.8648 5.94C24.4782 6.68667 24.7848 8.03333 24.7848 9.98C24.7848 11.9267 24.5115 13.28 23.9648 14.04C23.4182 14.8 22.3382 15.18 20.7248 15.18C19.1115 15.18 18.0315 14.8 17.4848 14.04C16.9382 13.28 16.6648 11.9267 16.6648 9.98C16.6648 8.03333 16.9715 6.68667 17.5848 5.94ZM18.9448 14.32C19.3848 14.4667 19.9782 14.54 20.7248 14.54C21.4715 14.54 22.0582 14.4667 22.4848 14.32C22.9248 14.16 23.2582 13.8733 23.4848 13.46C23.7248 13.0333 23.8782 12.56 23.9448 12.04C24.0115 11.5067 24.0448 10.7667 24.0448 9.82C24.0448 8.14 23.8115 6.99333 23.3448 6.38C22.8782 5.76667 22.0048 5.46 20.7248 5.46C19.4448 5.46 18.5715 5.76667 18.1048 6.38C17.6382 6.99333 17.4048 8.14 17.4048 9.82C17.4048 10.7667 17.4382 11.5067 17.5048 12.04C17.5715 12.56 17.7182 13.0333 17.9448 13.46C18.1848 13.8733 18.5182 14.16 18.9448 14.32ZM34.7122 0.4V15H34.0122V14.16C33.6255 14.4133 33.0855 14.6467 32.3922 14.86C31.6989 15.0733 31.1322 15.18 30.6922 15.18C30.2655 15.18 29.9322 15.16 29.6922 15.12C29.4655 15.0933 29.1789 14.9933 28.8322 14.82C28.4855 14.6333 28.1989 14.3733 27.9722 14.04C27.7589 13.7067 27.5655 13.2067 27.3922 12.54C27.2322 11.8733 27.1522 11.08 27.1522 10.16C27.1522 8.34667 27.4589 7.00667 28.0722 6.14C28.6989 5.26 29.7989 4.82 31.3722 4.82C32.1322 4.82 33.0122 4.9 34.0122 5.06V0.4H34.7122ZM28.8122 13.88C29.1055 14.1467 29.3789 14.3267 29.6322 14.42C29.8989 14.5 30.2455 14.54 30.6722 14.54C31.0989 14.54 31.5989 14.4533 32.1722 14.28C32.7589 14.1067 33.2122 13.9333 33.5322 13.76L34.0122 13.5V5.7C32.9722 5.54 32.0922 5.46 31.3722 5.46C30.0255 5.46 29.1055 5.84 28.6122 6.6C28.1322 7.36 27.8922 8.54667 27.8922 10.16C27.8922 12.08 28.1989 13.32 28.8122 13.88ZM44.3252 5H45.0252V15H44.3252V14.2C44.2052 14.2667 44.0452 14.36 43.8452 14.48C43.6452 14.5867 43.2518 14.7333 42.6652 14.92C42.0918 15.0933 41.5518 15.18 41.0452 15.18C39.7118 15.18 38.8318 14.8467 38.4052 14.18C37.9785 13.5 37.7652 12.1733 37.7652 10.2V5H38.4652V10.16C38.4652 11.92 38.6252 13.0933 38.9452 13.68C39.2652 14.2533 39.9652 14.54 41.0452 14.54C41.5785 14.54 42.1185 14.46 42.6652 14.3C43.2118 14.1267 43.6252 13.96 43.9052 13.8L44.3252 13.54V5ZM48.2977 15V0.4H48.9977V15H48.2977ZM58.6792 14.4L59.2792 14.36L59.3192 15C57.8259 15.12 56.5926 15.18 55.6192 15.18C54.2059 15.1667 53.2259 14.74 52.6792 13.9C52.1326 13.0467 51.8592 11.7467 51.8592 10C51.8592 6.54667 53.2059 4.82 55.8992 4.82C57.1659 4.82 58.1126 5.2 58.7392 5.96C59.3792 6.72 59.6992 7.94 59.6992 9.62V10.28H52.5992C52.5992 11.72 52.8259 12.7933 53.2792 13.5C53.7326 14.1933 54.4859 14.54 55.5392 14.54C56.5926 14.54 57.6392 14.4933 58.6792 14.4ZM52.5992 9.64H58.9592C58.9592 8.13333 58.7126 7.06 58.2192 6.42C57.7392 5.78 56.9659 5.46 55.8992 5.46C53.6992 5.46 52.5992 6.85333 52.5992 9.64ZM62.2383 8.12V6.52H63.0383V8.12H62.2383ZM62.2383 15V13.4H63.0383V15H62.2383ZM69.5209 15L73.8209 0.999999H75.9409L80.2409 15H79.5209L78.2209 10.7H71.5409L70.2409 15H69.5209ZM74.3209 1.68L71.7609 10.02H78.0009L75.4409 1.68H74.3209ZM82.3769 15V5H83.0769V6.56C83.4769 6.24 84.0702 5.9 84.8569 5.54C85.6569 5.16667 86.3835 4.92 87.0369 4.8V5.52C86.4502 5.64 85.8235 5.84 85.1569 6.12C84.5035 6.4 83.9969 6.65333 83.6369 6.88L83.0769 7.22V15H82.3769ZM93.8594 5.64H90.2194V10.88C90.2194 12.4133 90.326 13.4133 90.5394 13.88C90.766 14.3333 91.2727 14.56 92.0594 14.56L94.0194 14.4L94.0794 15.04C93.1994 15.1467 92.526 15.2 92.0594 15.2C91.1127 15.2 90.4527 14.96 90.0794 14.48C89.706 13.9867 89.5194 13.04 89.5194 11.64V5.64H87.9394V5H89.5194V1.74H90.2194V5H93.8594V5.64ZM95.7753 15V5H96.4753V15H95.7753ZM95.7753 2.1V0.999999H96.4753V2.1H95.7753ZM102.503 5.46C100.716 5.46 99.8225 6.12667 99.8225 7.46C99.8225 8.08667 100.009 8.53333 100.383 8.8C100.756 9.05333 101.583 9.28 102.863 9.48C104.143 9.68 105.036 9.94667 105.543 10.28C106.049 10.6133 106.303 11.2867 106.303 12.3C106.303 13.3 105.983 14.0333 105.343 14.5C104.703 14.9533 103.756 15.18 102.503 15.18C101.823 15.18 100.916 15.1 99.7825 14.94L99.2025 14.86L99.2825 14.2C100.723 14.4267 101.869 14.54 102.723 14.54C103.576 14.54 104.263 14.3733 104.783 14.04C105.303 13.7067 105.563 13.14 105.563 12.34C105.563 11.54 105.356 11.0133 104.943 10.76C104.543 10.5067 103.709 10.2867 102.443 10.1C101.189 9.9 100.316 9.64 99.8225 9.32C99.3292 8.98667 99.0825 8.43333 99.0825 7.66C99.0825 6.88667 99.2625 6.29333 99.6225 5.88C99.9825 5.45333 100.403 5.17333 100.883 5.04C101.363 4.89333 101.863 4.82 102.383 4.82C103.463 4.82 104.476 4.89333 105.423 5.04L105.943 5.12L105.903 5.78C104.543 5.56667 103.409 5.46 102.503 5.46ZM113.781 5.64H110.141V10.88C110.141 12.4133 110.248 13.4133 110.461 13.88C110.688 14.3333 111.195 14.56 111.981 14.56L113.941 14.4L114.001 15.04C113.121 15.1467 112.448 15.2 111.981 15.2C111.035 15.2 110.375 14.96 110.001 14.48C109.628 13.9867 109.441 13.04 109.441 11.64V5.64H107.861V5H109.441V1.74H110.141V5H113.781V5.64ZM118.557 5.46C116.771 5.46 115.877 6.12667 115.877 7.46C115.877 8.08667 116.064 8.53333 116.437 8.8C116.811 9.05333 117.637 9.28 118.917 9.48C120.197 9.68 121.091 9.94667 121.597 10.28C122.104 10.6133 122.357 11.2867 122.357 12.3C122.357 13.3 122.037 14.0333 121.397 14.5C120.757 14.9533 119.811 15.18 118.557 15.18C117.877 15.18 116.971 15.1 115.837 14.94L115.257 14.86L115.337 14.2C116.777 14.4267 117.924 14.54 118.777 14.54C119.631 14.54 120.317 14.3733 120.837 14.04C121.357 13.7067 121.617 13.14 121.617 12.34C121.617 11.54 121.411 11.0133 120.997 10.76C120.597 10.5067 119.764 10.2867 118.497 10.1C117.244 9.9 116.371 9.64 115.877 9.32C115.384 8.98667 115.137 8.43333 115.137 7.66C115.137 6.88667 115.317 6.29333 115.677 5.88C116.037 5.45333 116.457 5.17333 116.937 5.04C117.417 4.89333 117.917 4.82 118.437 4.82C119.517 4.82 120.531 4.89333 121.477 5.04L121.997 5.12L121.957 5.78C120.597 5.56667 119.464 5.46 118.557 5.46Z" fill="black"/>
</svg>
