<svg width="120" height="20" viewBox="0 0 120 20" fill="none" xmlns="http://www.w3.org/2000/svg">
<path d="M0.84 15V0.999999H2.36L7.28 13.9L12.2 0.999999H13.72V15H13V1.68H12.72L7.8 14.58H6.76L1.84 1.68H1.56V15H0.84ZM17.5848 5.94C18.1982 5.19333 19.2448 4.82 20.7248 4.82C22.2048 4.82 23.2515 5.19333 23.8648 5.94C24.4782 6.68667 24.7848 8.03333 24.7848 9.98C24.7848 11.9267 24.5115 13.28 23.9648 14.04C23.4182 14.8 22.3382 15.18 20.7248 15.18C19.1115 15.18 18.0315 14.8 17.4848 14.04C16.9382 13.28 16.6648 11.9267 16.6648 9.98C16.6648 8.03333 16.9715 6.68667 17.5848 5.94ZM18.9448 14.32C19.3848 14.4667 19.9782 14.54 20.7248 14.54C21.4715 14.54 22.0582 14.4667 22.4848 14.32C22.9248 14.16 23.2582 13.8733 23.4848 13.46C23.7248 13.0333 23.8782 12.56 23.9448 12.04C24.0115 11.5067 24.0448 10.7667 24.0448 9.82C24.0448 8.14 23.8115 6.99333 23.3448 6.38C22.8782 5.76667 22.0048 5.46 20.7248 5.46C19.4448 5.46 18.5715 5.76667 18.1048 6.38C17.6382 6.99333 17.4048 8.14 17.4048 9.82C17.4048 10.7667 17.4382 11.5067 17.5048 12.04C17.5715 12.56 17.7182 13.0333 17.9448 13.46C18.1848 13.8733 18.5182 14.16 18.9448 14.32ZM34.7122 0.4V15H34.0122V14.16C33.6255 14.4133 33.0855 14.6467 32.3922 14.86C31.6989 15.0733 31.1322 15.18 30.6922 15.18C30.2655 15.18 29.9322 15.16 29.6922 15.12C29.4655 15.0933 29.1789 14.9933 28.8322 14.82C28.4855 14.6333 28.1989 14.3733 27.9722 14.04C27.7589 13.7067 27.5655 13.2067 27.3922 12.54C27.2322 11.8733 27.1522 11.08 27.1522 10.16C27.1522 8.34667 27.4589 7.00667 28.0722 6.14C28.6989 5.26 29.7989 4.82 31.3722 4.82C32.1322 4.82 33.0122 4.9 34.0122 5.06V0.4H34.7122ZM28.8122 13.88C29.1055 14.1467 29.3789 14.3267 29.6322 14.42C29.8989 14.5 30.2455 14.54 30.6722 14.54C31.0989 14.54 31.5989 14.4533 32.1722 14.28C32.7589 14.1067 33.2122 13.9333 33.5322 13.76L34.0122 13.5V5.7C32.9722 5.54 32.0922 5.46 31.3722 5.46C30.0255 5.46 29.1055 5.84 28.6122 6.6C28.1322 7.36 27.8922 8.54667 27.8922 10.16C27.8922 12.08 28.1989 13.32 28.8122 13.88ZM44.3252 5H45.0252V15H44.3252V14.2C44.2052 14.2667 44.0452 14.36 43.8452 14.48C43.6452 14.5867 43.2518 14.7333 42.6652 14.92C42.0918 15.0933 41.5518 15.18 41.0452 15.18C39.7118 15.18 38.8318 14.8467 38.4052 14.18C37.9785 13.5 37.7652 12.1733 37.7652 10.2V5H38.4652V10.16C38.4652 11.92 38.6252 13.0933 38.9452 13.68C39.2652 14.2533 39.9652 14.54 41.0452 14.54C41.5785 14.54 42.1185 14.46 42.6652 14.3C43.2118 14.1267 43.6252 13.96 43.9052 13.8L44.3252 13.54V5ZM48.2977 15V0.4H48.9977V15H48.2977ZM58.6792 14.4L59.2792 14.36L59.3192 15C57.8259 15.12 56.5926 15.18 55.6192 15.18C54.2059 15.1667 53.2259 14.74 52.6792 13.9C52.1326 13.0467 51.8592 11.7467 51.8592 10C51.8592 6.54667 53.2059 4.82 55.8992 4.82C57.1659 4.82 58.1126 5.2 58.7392 5.96C59.3792 6.72 59.6992 7.94 59.6992 9.62V10.28H52.5992C52.5992 11.72 52.8259 12.7933 53.2792 13.5C53.7326 14.1933 54.4859 14.54 55.5392 14.54C56.5926 14.54 57.6392 14.4933 58.6792 14.4ZM52.5992 9.64H58.9592C58.9592 8.13333 58.7126 7.06 58.2192 6.42C57.7392 5.78 56.9659 5.46 55.8992 5.46C53.6992 5.46 52.5992 6.85333 52.5992 9.64ZM62.2383 8.12V6.52H63.0383V8.12H62.2383ZM62.2383 15V13.4H63.0383V15H62.2383ZM74.4009 1.46C72.0276 1.46 70.8409 2.39333 70.8409 4.26C70.8409 5.1 70.9809 5.70667 71.2609 6.08C71.4209 6.28 71.5876 6.45333 71.7609 6.6C71.9343 6.73333 72.1876 6.85333 72.5209 6.96C73.0676 7.12 73.7609 7.26667 74.6009 7.4C76.0543 7.62667 77.0943 7.98 77.7209 8.46C78.3609 8.92667 78.6809 9.75333 78.6809 10.94C78.6809 12.4467 78.3276 13.5267 77.6209 14.18C76.9276 14.82 75.8676 15.14 74.4409 15.14C73.5609 15.14 72.3809 15.06 70.9009 14.9L70.1609 14.82L70.2409 14.12C72.0809 14.3467 73.5343 14.46 74.6009 14.46C76.8143 14.46 77.9209 13.3067 77.9209 11C77.9209 10.0267 77.6676 9.35333 77.1609 8.98C76.6543 8.60667 75.8676 8.34 74.8009 8.18C73.7476 8.02 72.9943 7.88 72.5409 7.76C72.1009 7.62667 71.6676 7.42667 71.2409 7.16C70.8276 6.89333 70.5276 6.53333 70.3409 6.08C70.1676 5.61333 70.0809 5.02 70.0809 4.3C70.0809 1.95333 71.5209 0.779999 74.4009 0.779999C75.3209 0.779999 76.4276 0.859999 77.7209 1.02L78.3809 1.1L78.3009 1.8C76.4743 1.57333 75.1743 1.46 74.4009 1.46ZM81.8817 5.94C82.4951 5.19333 83.5417 4.82 85.0217 4.82C86.5017 4.82 87.5484 5.19333 88.1617 5.94C88.7751 6.68667 89.0817 8.03333 89.0817 9.98C89.0817 11.9267 88.8084 13.28 88.2617 14.04C87.7151 14.8 86.6351 15.18 85.0217 15.18C83.4084 15.18 82.3284 14.8 81.7817 14.04C81.2351 13.28 80.9617 11.9267 80.9617 9.98C80.9617 8.03333 81.2684 6.68667 81.8817 5.94ZM83.2417 14.32C83.6817 14.4667 84.2751 14.54 85.0217 14.54C85.7684 14.54 86.3551 14.4667 86.7817 14.32C87.2217 14.16 87.5551 13.8733 87.7817 13.46C88.0217 13.0333 88.1751 12.56 88.2417 12.04C88.3084 11.5067 88.3417 10.7667 88.3417 9.82C88.3417 8.14 88.1084 6.99333 87.6417 6.38C87.1751 5.76667 86.3017 5.46 85.0217 5.46C83.7417 5.46 82.8684 5.76667 82.4017 6.38C81.9351 6.99333 81.7017 8.14 81.7017 9.82C81.7017 10.7667 81.7351 11.5067 81.8017 12.04C81.8684 12.56 82.0151 13.0333 82.2417 13.46C82.4817 13.8733 82.8151 14.16 83.2417 14.32ZM92.5691 15H91.8691V5H92.5691V5.8C93.7557 5.14667 94.9691 4.82 96.2091 4.82C97.4491 4.82 98.2824 5.16 98.7091 5.84C99.1357 6.50667 99.3491 7.82667 99.3491 9.8V15H98.6491V9.84C98.6491 8.08 98.4891 6.91333 98.1691 6.34C97.8491 5.75333 97.1491 5.46 96.0691 5.46C95.5357 5.46 94.9757 5.54667 94.3891 5.72C93.8157 5.88 93.3691 6.04 93.0491 6.2L92.5691 6.46V15ZM110.216 16.62C110.216 17.7533 109.876 18.56 109.196 19.04C108.529 19.5333 107.416 19.78 105.856 19.78C104.309 19.78 103.276 19.5533 102.756 19.1C102.249 18.66 101.996 17.8267 101.996 16.6C101.996 15.84 102.249 15.2333 102.756 14.78C102.943 14.6067 103.256 14.36 103.696 14.04C103.403 13.8533 103.256 13.42 103.256 12.74C103.256 12.5533 103.409 12.14 103.716 11.5L103.856 11.18C102.709 10.8067 102.136 9.79333 102.136 8.14C102.136 5.91333 103.276 4.8 105.556 4.8C106.249 4.8 106.863 4.86667 107.396 5L107.676 5.06L110.476 5V5.7H108.316C108.849 6.19333 109.116 7.02667 109.116 8.2C109.116 9.36 108.823 10.1867 108.236 10.68C107.663 11.1733 106.743 11.42 105.476 11.42C105.076 11.42 104.716 11.3933 104.396 11.34C104.089 12.1 103.936 12.58 103.936 12.78C103.936 12.98 103.949 13.1333 103.976 13.24C104.003 13.3467 104.056 13.4467 104.136 13.54C104.216 13.6333 104.369 13.6933 104.596 13.72C105.009 13.7867 105.789 13.82 106.936 13.82C108.083 13.82 108.916 14.0067 109.436 14.38C109.956 14.74 110.216 15.4867 110.216 16.62ZM102.716 16.58C102.716 17.5667 102.923 18.24 103.336 18.6C103.763 18.96 104.616 19.14 105.896 19.14C107.189 19.14 108.109 18.9467 108.656 18.56C109.203 18.1867 109.476 17.54 109.476 16.62C109.476 15.7133 109.276 15.1267 108.876 14.86C108.476 14.5933 107.729 14.46 106.636 14.46L104.216 14.4C103.616 14.8133 103.216 15.16 103.016 15.44C102.816 15.7333 102.716 16.1133 102.716 16.58ZM102.856 8.14C102.856 9.12667 103.063 9.81333 103.476 10.2C103.889 10.5867 104.596 10.78 105.596 10.78C106.609 10.78 107.323 10.5933 107.736 10.22C108.163 9.83333 108.376 9.14 108.376 8.14C108.376 7.14 108.163 6.44 107.736 6.04C107.323 5.64 106.609 5.44 105.596 5.44C104.596 5.44 103.889 5.64667 103.476 6.06C103.063 6.46 102.856 7.15333 102.856 8.14ZM115.295 5.46C113.509 5.46 112.615 6.12667 112.615 7.46C112.615 8.08667 112.802 8.53333 113.175 8.8C113.549 9.05333 114.375 9.28 115.655 9.48C116.935 9.68 117.829 9.94667 118.335 10.28C118.842 10.6133 119.095 11.2867 119.095 12.3C119.095 13.3 118.775 14.0333 118.135 14.5C117.495 14.9533 116.549 15.18 115.295 15.18C114.615 15.18 113.709 15.1 112.575 14.94L111.995 14.86L112.075 14.2C113.515 14.4267 114.662 14.54 115.515 14.54C116.369 14.54 117.055 14.3733 117.575 14.04C118.095 13.7067 118.355 13.14 118.355 12.34C118.355 11.54 118.149 11.0133 117.735 10.76C117.335 10.5067 116.502 10.2867 115.235 10.1C113.982 9.9 113.109 9.64 112.615 9.32C112.122 8.98667 111.875 8.43333 111.875 7.66C111.875 6.88667 112.055 6.29333 112.415 5.88C112.775 5.45333 113.195 5.17333 113.675 5.04C114.155 4.89333 114.655 4.82 115.175 4.82C116.255 4.82 117.269 4.89333 118.215 5.04L118.735 5.12L118.695 5.78C117.335 5.56667 116.202 5.46 115.295 5.46Z" fill="black"/>
</svg>
