<svg width="116" height="16" viewBox="0 0 116 16" fill="none" xmlns="http://www.w3.org/2000/svg">
<path d="M0.84 15V0.999999H2.36L7.28 13.9L12.2 0.999999H13.72V15H13V1.68H12.72L7.8 14.58H6.76L1.84 1.68H1.56V15H0.84ZM17.5848 5.94C18.1982 5.19333 19.2448 4.82 20.7248 4.82C22.2048 4.82 23.2515 5.19333 23.8648 5.94C24.4782 6.68667 24.7848 8.03333 24.7848 9.98C24.7848 11.9267 24.5115 13.28 23.9648 14.04C23.4182 14.8 22.3382 15.18 20.7248 15.18C19.1115 15.18 18.0315 14.8 17.4848 14.04C16.9382 13.28 16.6648 11.9267 16.6648 9.98C16.6648 8.03333 16.9715 6.68667 17.5848 5.94ZM18.9448 14.32C19.3848 14.4667 19.9782 14.54 20.7248 14.54C21.4715 14.54 22.0582 14.4667 22.4848 14.32C22.9248 14.16 23.2582 13.8733 23.4848 13.46C23.7248 13.0333 23.8782 12.56 23.9448 12.04C24.0115 11.5067 24.0448 10.7667 24.0448 9.82C24.0448 8.14 23.8115 6.99333 23.3448 6.38C22.8782 5.76667 22.0048 5.46 20.7248 5.46C19.4448 5.46 18.5715 5.76667 18.1048 6.38C17.6382 6.99333 17.4048 8.14 17.4048 9.82C17.4048 10.7667 17.4382 11.5067 17.5048 12.04C17.5715 12.56 17.7182 13.0333 17.9448 13.46C18.1848 13.8733 18.5182 14.16 18.9448 14.32ZM34.7122 0.4V15H34.0122V14.16C33.6255 14.4133 33.0855 14.6467 32.3922 14.86C31.6989 15.0733 31.1322 15.18 30.6922 15.18C30.2655 15.18 29.9322 15.16 29.6922 15.12C29.4655 15.0933 29.1789 14.9933 28.8322 14.82C28.4855 14.6333 28.1989 14.3733 27.9722 14.04C27.7589 13.7067 27.5655 13.2067 27.3922 12.54C27.2322 11.8733 27.1522 11.08 27.1522 10.16C27.1522 8.34667 27.4589 7.00667 28.0722 6.14C28.6989 5.26 29.7989 4.82 31.3722 4.82C32.1322 4.82 33.0122 4.9 34.0122 5.06V0.4H34.7122ZM28.8122 13.88C29.1055 14.1467 29.3789 14.3267 29.6322 14.42C29.8989 14.5 30.2455 14.54 30.6722 14.54C31.0989 14.54 31.5989 14.4533 32.1722 14.28C32.7589 14.1067 33.2122 13.9333 33.5322 13.76L34.0122 13.5V5.7C32.9722 5.54 32.0922 5.46 31.3722 5.46C30.0255 5.46 29.1055 5.84 28.6122 6.6C28.1322 7.36 27.8922 8.54667 27.8922 10.16C27.8922 12.08 28.1989 13.32 28.8122 13.88ZM44.3252 5H45.0252V15H44.3252V14.2C44.2052 14.2667 44.0452 14.36 43.8452 14.48C43.6452 14.5867 43.2518 14.7333 42.6652 14.92C42.0918 15.0933 41.5518 15.18 41.0452 15.18C39.7118 15.18 38.8318 14.8467 38.4052 14.18C37.9785 13.5 37.7652 12.1733 37.7652 10.2V5H38.4652V10.16C38.4652 11.92 38.6252 13.0933 38.9452 13.68C39.2652 14.2533 39.9652 14.54 41.0452 14.54C41.5785 14.54 42.1185 14.46 42.6652 14.3C43.2118 14.1267 43.6252 13.96 43.9052 13.8L44.3252 13.54V5ZM48.2977 15V0.4H48.9977V15H48.2977ZM58.6792 14.4L59.2792 14.36L59.3192 15C57.8259 15.12 56.5926 15.18 55.6192 15.18C54.2059 15.1667 53.2259 14.74 52.6792 13.9C52.1326 13.0467 51.8592 11.7467 51.8592 10C51.8592 6.54667 53.2059 4.82 55.8992 4.82C57.1659 4.82 58.1126 5.2 58.7392 5.96C59.3792 6.72 59.6992 7.94 59.6992 9.62V10.28H52.5992C52.5992 11.72 52.8259 12.7933 53.2792 13.5C53.7326 14.1933 54.4859 14.54 55.5392 14.54C56.5926 14.54 57.6392 14.4933 58.6792 14.4ZM52.5992 9.64H58.9592C58.9592 8.13333 58.7126 7.06 58.2192 6.42C57.7392 5.78 56.9659 5.46 55.8992 5.46C53.6992 5.46 52.5992 6.85333 52.5992 9.64ZM62.2383 8.12V6.52H63.0383V8.12H62.2383ZM62.2383 15V13.4H63.0383V15H62.2383ZM71.4409 11.08C71.4409 12.2933 71.7676 13.1667 72.4209 13.7C73.0743 14.2333 74.0343 14.5 75.3009 14.5C76.5809 14.5 77.5543 14.24 78.2209 13.72C78.9009 13.1867 79.2409 12.3067 79.2409 11.08V0.999999H79.9609V11.08C79.9609 12.5333 79.5609 13.58 78.7609 14.22C77.9743 14.86 76.8209 15.18 75.3009 15.18C73.7943 15.18 72.6543 14.86 71.8809 14.22C71.1076 13.58 70.7209 12.5333 70.7209 11.08V0.999999H71.4409V11.08ZM86.0572 5.46C84.2705 5.46 83.3772 6.12667 83.3772 7.46C83.3772 8.08667 83.5639 8.53333 83.9372 8.8C84.3105 9.05333 85.1372 9.28 86.4172 9.48C87.6972 9.68 88.5905 9.94667 89.0972 10.28C89.6039 10.6133 89.8572 11.2867 89.8572 12.3C89.8572 13.3 89.5372 14.0333 88.8972 14.5C88.2572 14.9533 87.3105 15.18 86.0572 15.18C85.3772 15.18 84.4705 15.1 83.3372 14.94L82.7572 14.86L82.8372 14.2C84.2772 14.4267 85.4239 14.54 86.2772 14.54C87.1305 14.54 87.8172 14.3733 88.3372 14.04C88.8572 13.7067 89.1172 13.14 89.1172 12.34C89.1172 11.54 88.9105 11.0133 88.4972 10.76C88.0972 10.5067 87.2639 10.2867 85.9972 10.1C84.7439 9.9 83.8705 9.64 83.3772 9.32C82.8839 8.98667 82.6372 8.43333 82.6372 7.66C82.6372 6.88667 82.8172 6.29333 83.1772 5.88C83.5372 5.45333 83.9572 5.17333 84.4372 5.04C84.9172 4.89333 85.4172 4.82 85.9372 4.82C87.0172 4.82 88.0305 4.89333 88.9772 5.04L89.4972 5.12L89.4572 5.78C88.0972 5.56667 86.9639 5.46 86.0572 5.46ZM98.8159 14.4L99.4159 14.36L99.4559 15C97.9626 15.12 96.7293 15.18 95.7559 15.18C94.3426 15.1667 93.3626 14.74 92.8159 13.9C92.2693 13.0467 91.9959 11.7467 91.9959 10C91.9959 6.54667 93.3426 4.82 96.0359 4.82C97.3026 4.82 98.2493 5.2 98.8759 5.96C99.5159 6.72 99.8359 7.94 99.8359 9.62V10.28H92.7359C92.7359 11.72 92.9626 12.7933 93.4159 13.5C93.8693 14.1933 94.6226 14.54 95.6759 14.54C96.7293 14.54 97.7759 14.4933 98.8159 14.4ZM92.7359 9.64H99.0959C99.0959 8.13333 98.8493 7.06 98.3559 6.42C97.8759 5.78 97.1026 5.46 96.0359 5.46C93.8359 5.46 92.7359 6.85333 92.7359 9.64ZM102.455 15V5H103.155V6.56C103.555 6.24 104.148 5.9 104.935 5.54C105.735 5.16667 106.462 4.92 107.115 4.8V5.52C106.528 5.64 105.902 5.84 105.235 6.12C104.582 6.4 104.075 6.65333 103.715 6.88L103.155 7.22V15H102.455ZM111.878 5.46C110.091 5.46 109.198 6.12667 109.198 7.46C109.198 8.08667 109.384 8.53333 109.758 8.8C110.131 9.05333 110.958 9.28 112.238 9.48C113.518 9.68 114.411 9.94667 114.918 10.28C115.424 10.6133 115.678 11.2867 115.678 12.3C115.678 13.3 115.358 14.0333 114.718 14.5C114.078 14.9533 113.131 15.18 111.878 15.18C111.198 15.18 110.291 15.1 109.158 14.94L108.578 14.86L108.658 14.2C110.098 14.4267 111.244 14.54 112.098 14.54C112.951 14.54 113.638 14.3733 114.158 14.04C114.678 13.7067 114.938 13.14 114.938 12.34C114.938 11.54 114.731 11.0133 114.318 10.76C113.918 10.5067 113.084 10.2867 111.818 10.1C110.564 9.9 109.691 9.64 109.198 9.32C108.704 8.98667 108.458 8.43333 108.458 7.66C108.458 6.88667 108.638 6.29333 108.998 5.88C109.358 5.45333 109.778 5.17333 110.258 5.04C110.738 4.89333 111.238 4.82 111.758 4.82C112.838 4.82 113.851 4.89333 114.798 5.04L115.318 5.12L115.278 5.78C113.918 5.56667 112.784 5.46 111.878 5.46Z" fill="black"/>
</svg>
