<svg width="150" height="35" viewBox="0 0 150 35" fill="none" xmlns="http://www.w3.org/2000/svg">
<mask id="path-1-outside-1_401_3" maskUnits="userSpaceOnUse" x="-1" y="-1" width="152" height="37" fill="black">
<rect fill="white" x="-1" y="-1" width="152" height="37"/>
<path d="M0.06 27V2.088H5.064L12.12 23.148L19.176 2.088H24.18V27H21.408V5.04H20.904L13.668 26.1H10.572L3.336 5.04H2.832V27H0.06ZM28.1344 9H30.8344L35.3344 24.66H36.5224L41.0584 9H43.7584L36.2704 34.992H33.5704L35.9104 27H33.2464L28.1344 9ZM64.7149 18.612H58.3789V27H55.6069V2.088H64.7149C67.4269 2.088 69.4309 2.748 70.7269 4.068C72.0229 5.388 72.6709 7.404 72.6709 10.116C72.6709 15.78 70.0189 18.612 64.7149 18.612ZM58.3789 16.164H64.6789C68.1109 16.164 69.8269 14.148 69.8269 10.116C69.8269 8.196 69.4189 6.792 68.6029 5.904C67.7869 4.992 66.4789 4.536 64.6789 4.536H58.3789V16.164ZM76.4787 27V9H79.1427V11.448C81.2307 10.008 83.4267 9.06 85.7307 8.604V11.34C84.7227 11.532 83.6667 11.832 82.5627 12.24C81.4827 12.648 80.6547 13.008 80.0787 13.32L79.1787 13.788V27H76.4787ZM87.7805 17.964C87.7805 14.676 88.3685 12.3 89.5445 10.836C90.7205 9.372 92.7005 8.64 95.4845 8.64C98.2925 8.64 100.272 9.372 101.424 10.836C102.6 12.3 103.188 14.676 103.188 17.964C103.188 21.252 102.636 23.64 101.532 25.128C100.428 26.616 98.4125 27.36 95.4845 27.36C92.5565 27.36 90.5405 26.616 89.4365 25.128C88.3325 23.64 87.7805 21.252 87.7805 17.964ZM90.5525 17.928C90.5525 20.544 90.8645 22.38 91.4885 23.436C92.1365 24.492 93.4685 25.02 95.4845 25.02C97.5245 25.02 98.8565 24.504 99.4805 23.472C100.104 22.416 100.416 20.568 100.416 17.928C100.416 15.288 100.068 13.476 99.3725 12.492C98.6765 11.484 97.3805 10.98 95.4845 10.98C93.6125 10.98 92.3165 11.484 91.5965 12.492C90.9005 13.476 90.5525 15.288 90.5525 17.928ZM111.048 11.34V27H108.348V11.34H106.08V9H108.348V7.38C108.348 4.836 108.708 3.108 109.428 2.196C110.148 1.26 111.408 0.791998 113.208 0.791998L116.844 1.044L116.808 3.276C115.464 3.228 114.348 3.204 113.46 3.204C112.596 3.204 111.972 3.492 111.588 4.068C111.228 4.644 111.048 5.76 111.048 7.416V9H116.268V11.34H111.048ZM119.51 27V9H122.21V27H119.51ZM119.51 4.932V1.8H122.21V4.932H119.51ZM127.601 27V1.152H130.301V27H127.601ZM147.957 24.768L149.001 24.66L149.073 26.784C146.337 27.168 143.997 27.36 142.053 27.36C139.461 27.36 137.625 26.616 136.545 25.128C135.465 23.616 134.925 21.276 134.925 18.108C134.925 11.796 137.433 8.64 142.449 8.64C144.873 8.64 146.685 9.324 147.885 10.692C149.085 12.036 149.685 14.16 149.685 17.064L149.541 19.116H137.661C137.661 21.108 138.021 22.584 138.741 23.544C139.461 24.504 140.709 24.984 142.485 24.984C144.285 24.984 146.109 24.912 147.957 24.768ZM146.985 16.956C146.985 14.748 146.625 13.188 145.905 12.276C145.209 11.364 144.057 10.908 142.449 10.908C140.865 10.908 139.665 11.388 138.849 12.348C138.057 13.308 137.649 14.844 137.625 16.956H146.985Z"/>
</mask>
<path d="M0.06 27V2.088H5.064L12.12 23.148L19.176 2.088H24.18V27H21.408V5.04H20.904L13.668 26.1H10.572L3.336 5.04H2.832V27H0.06ZM28.1344 9H30.8344L35.3344 24.66H36.5224L41.0584 9H43.7584L36.2704 34.992H33.5704L35.9104 27H33.2464L28.1344 9ZM64.7149 18.612H58.3789V27H55.6069V2.088H64.7149C67.4269 2.088 69.4309 2.748 70.7269 4.068C72.0229 5.388 72.6709 7.404 72.6709 10.116C72.6709 15.78 70.0189 18.612 64.7149 18.612ZM58.3789 16.164H64.6789C68.1109 16.164 69.8269 14.148 69.8269 10.116C69.8269 8.196 69.4189 6.792 68.6029 5.904C67.7869 4.992 66.4789 4.536 64.6789 4.536H58.3789V16.164ZM76.4787 27V9H79.1427V11.448C81.2307 10.008 83.4267 9.06 85.7307 8.604V11.34C84.7227 11.532 83.6667 11.832 82.5627 12.24C81.4827 12.648 80.6547 13.008 80.0787 13.32L79.1787 13.788V27H76.4787ZM87.7805 17.964C87.7805 14.676 88.3685 12.3 89.5445 10.836C90.7205 9.372 92.7005 8.64 95.4845 8.64C98.2925 8.64 100.272 9.372 101.424 10.836C102.6 12.3 103.188 14.676 103.188 17.964C103.188 21.252 102.636 23.64 101.532 25.128C100.428 26.616 98.4125 27.36 95.4845 27.36C92.5565 27.36 90.5405 26.616 89.4365 25.128C88.3325 23.64 87.7805 21.252 87.7805 17.964ZM90.5525 17.928C90.5525 20.544 90.8645 22.38 91.4885 23.436C92.1365 24.492 93.4685 25.02 95.4845 25.02C97.5245 25.02 98.8565 24.504 99.4805 23.472C100.104 22.416 100.416 20.568 100.416 17.928C100.416 15.288 100.068 13.476 99.3725 12.492C98.6765 11.484 97.3805 10.98 95.4845 10.98C93.6125 10.98 92.3165 11.484 91.5965 12.492C90.9005 13.476 90.5525 15.288 90.5525 17.928ZM111.048 11.34V27H108.348V11.34H106.08V9H108.348V7.38C108.348 4.836 108.708 3.108 109.428 2.196C110.148 1.26 111.408 0.791998 113.208 0.791998L116.844 1.044L116.808 3.276C115.464 3.228 114.348 3.204 113.46 3.204C112.596 3.204 111.972 3.492 111.588 4.068C111.228 4.644 111.048 5.76 111.048 7.416V9H116.268V11.34H111.048ZM119.51 27V9H122.21V27H119.51ZM119.51 4.932V1.8H122.21V4.932H119.51ZM127.601 27V1.152H130.301V27H127.601ZM147.957 24.768L149.001 24.66L149.073 26.784C146.337 27.168 143.997 27.36 142.053 27.36C139.461 27.36 137.625 26.616 136.545 25.128C135.465 23.616 134.925 21.276 134.925 18.108C134.925 11.796 137.433 8.64 142.449 8.64C144.873 8.64 146.685 9.324 147.885 10.692C149.085 12.036 149.685 14.16 149.685 17.064L149.541 19.116H137.661C137.661 21.108 138.021 22.584 138.741 23.544C139.461 24.504 140.709 24.984 142.485 24.984C144.285 24.984 146.109 24.912 147.957 24.768ZM146.985 16.956C146.985 14.748 146.625 13.188 145.905 12.276C145.209 11.364 144.057 10.908 142.449 10.908C140.865 10.908 139.665 11.388 138.849 12.348C138.057 13.308 137.649 14.844 137.625 16.956H146.985Z" fill="#666666"/>
<path d="M0.06 27H-0.94V28H0.06V27ZM0.06 2.088V1.088H-0.94V2.088H0.06ZM5.064 2.088L6.0122 1.77031L5.78359 1.088H5.064V2.088ZM12.12 23.148L11.1718 23.4657L12.12 26.2958L13.0682 23.4657L12.12 23.148ZM19.176 2.088V1.088H18.4564L18.2278 1.77031L19.176 2.088ZM24.18 2.088H25.18V1.088H24.18V2.088ZM24.18 27V28H25.18V27H24.18ZM21.408 27H20.408V28H21.408V27ZM21.408 5.04H22.408V4.04H21.408V5.04ZM20.904 5.04V4.04H20.1902L19.9583 4.71506L20.904 5.04ZM13.668 26.1V27.1H14.3818L14.6137 26.4249L13.668 26.1ZM10.572 26.1L9.62627 26.4249L9.85821 27.1H10.572V26.1ZM3.336 5.04L4.28173 4.71506L4.04979 4.04H3.336V5.04ZM2.832 5.04V4.04H1.832V5.04H2.832ZM2.832 27V28H3.832V27H2.832ZM1.06 27V2.088H-0.94V27H1.06ZM0.06 3.088H5.064V1.088H0.06V3.088ZM4.1158 2.40569L11.1718 23.4657L13.0682 22.8303L6.0122 1.77031L4.1158 2.40569ZM13.0682 23.4657L20.1242 2.40569L18.2278 1.77031L11.1718 22.8303L13.0682 23.4657ZM19.176 3.088H24.18V1.088H19.176V3.088ZM23.18 2.088V27H25.18V2.088H23.18ZM24.18 26H21.408V28H24.18V26ZM22.408 27V5.04H20.408V27H22.408ZM21.408 4.04H20.904V6.04H21.408V4.04ZM19.9583 4.71506L12.7223 25.7751L14.6137 26.4249L21.8497 5.36494L19.9583 4.71506ZM13.668 25.1H10.572V27.1H13.668V25.1ZM11.5177 25.7751L4.28173 4.71506L2.39027 5.36494L9.62627 26.4249L11.5177 25.7751ZM3.336 4.04H2.832V6.04H3.336V4.04ZM1.832 5.04V27H3.832V5.04H1.832ZM2.832 26H0.06V28H2.832V26ZM28.1344 9V8H26.8108L27.1724 9.2732L28.1344 9ZM30.8344 9L31.7955 8.72382L31.5875 8H30.8344V9ZM35.3344 24.66L34.3733 24.9362L34.5813 25.66H35.3344V24.66ZM36.5224 24.66V25.66H37.2738L37.4829 24.9382L36.5224 24.66ZM41.0584 9V8H40.3069L40.0979 8.72178L41.0584 9ZM43.7584 9L44.7193 9.27683L45.0871 8H43.7584V9ZM36.2704 34.992V35.992H37.023L37.2313 35.2688L36.2704 34.992ZM33.5704 34.992L32.6107 34.711L32.2356 35.992H33.5704V34.992ZM35.9104 27L36.8701 27.281L37.2452 26H35.9104V27ZM33.2464 27L32.2844 27.2732L32.4908 28H33.2464V27ZM28.1344 10H30.8344V8H28.1344V10ZM29.8733 9.27618L34.3733 24.9362L36.2955 24.3838L31.7955 8.72382L29.8733 9.27618ZM35.3344 25.66H36.5224V23.66H35.3344V25.66ZM37.4829 24.9382L42.0189 9.27822L40.0979 8.72178L35.5619 24.3818L37.4829 24.9382ZM41.0584 10H43.7584V8H41.0584V10ZM42.7975 8.72317L35.3095 34.7152L37.2313 35.2688L44.7193 9.27683L42.7975 8.72317ZM36.2704 33.992H33.5704V35.992H36.2704V33.992ZM34.5301 35.273L36.8701 27.281L34.9507 26.719L32.6107 34.711L34.5301 35.273ZM35.9104 26H33.2464V28H35.9104V26ZM34.2083 26.7268L29.0963 8.7268L27.1724 9.2732L32.2844 27.2732L34.2083 26.7268ZM58.3789 18.612V17.612H57.3789V18.612H58.3789ZM58.3789 27V28H59.3789V27H58.3789ZM55.6069 27H54.6069V28H55.6069V27ZM55.6069 2.088V1.088H54.6069V2.088H55.6069ZM70.7269 4.068L70.0133 4.76859L70.0133 4.76859L70.7269 4.068ZM58.3789 16.164H57.3789V17.164H58.3789V16.164ZM68.6029 5.904L67.8576 6.57085L67.8665 6.58062L68.6029 5.904ZM58.3789 4.536V3.536H57.3789V4.536H58.3789ZM64.7149 17.612H58.3789V19.612H64.7149V17.612ZM57.3789 18.612V27H59.3789V18.612H57.3789ZM58.3789 26H55.6069V28H58.3789V26ZM56.6069 27V2.088H54.6069V27H56.6069ZM55.6069 3.088H64.7149V1.088H55.6069V3.088ZM64.7149 3.088C67.2836 3.088 68.9779 3.71397 70.0133 4.76859L71.4404 3.36741C69.8839 1.78202 67.5702 1.088 64.7149 1.088V3.088ZM70.0133 4.76859C71.0553 5.8299 71.6709 7.5446 71.6709 10.116H73.6709C73.6709 7.2634 72.9904 4.9461 71.4404 3.36741L70.0133 4.76859ZM71.6709 10.116C71.6709 12.8096 71.039 14.6437 69.952 15.8045C68.8765 16.9529 67.1953 17.612 64.7149 17.612V19.612C67.5384 19.612 69.8353 18.8551 71.4118 17.1715C72.9768 15.5003 73.6709 13.0864 73.6709 10.116H71.6709ZM58.3789 17.164H64.6789V15.164H58.3789V17.164ZM64.6789 17.164C66.5949 17.164 68.2004 16.5937 69.3014 15.3002C70.3761 14.0375 70.8269 12.2503 70.8269 10.116H68.8269C68.8269 12.0137 68.4196 13.2505 67.7784 14.0038C67.1634 14.7263 66.1948 15.164 64.6789 15.164V17.164ZM70.8269 10.116C70.8269 8.08672 70.4008 6.38268 69.3392 5.22737L67.8665 6.58062C68.4369 7.20132 68.8269 8.30528 68.8269 10.116H70.8269ZM69.3481 5.2372C68.2676 4.02956 66.6276 3.536 64.6789 3.536V5.536C66.3302 5.536 67.3062 5.95444 67.8576 6.57079L69.3481 5.2372ZM64.6789 3.536H58.3789V5.536H64.6789V3.536ZM57.3789 4.536V16.164H59.3789V4.536H57.3789ZM76.4787 27H75.4787V28H76.4787V27ZM76.4787 9V8H75.4787V9H76.4787ZM79.1427 9H80.1427V8H79.1427V9ZM79.1427 11.448H78.1427V13.3524L79.7105 12.2712L79.1427 11.448ZM85.7307 8.604H86.7307V7.38668L85.5366 7.62303L85.7307 8.604ZM85.7307 11.34L85.9178 12.3223L86.7307 12.1675V11.34H85.7307ZM82.5627 12.24L82.2161 11.302L82.2093 11.3045L82.5627 12.24ZM80.0787 13.32L80.5401 14.2072L80.5476 14.2033L80.555 14.1993L80.0787 13.32ZM79.1787 13.788L78.7174 12.9008L78.1787 13.1809V13.788H79.1787ZM79.1787 27V28H80.1787V27H79.1787ZM77.4787 27V9H75.4787V27H77.4787ZM76.4787 10H79.1427V8H76.4787V10ZM78.1427 9V11.448H80.1427V9H78.1427ZM79.7105 12.2712C81.6951 10.9025 83.7653 10.0124 85.9249 9.58497L85.5366 7.62303C83.0882 8.10761 80.7663 9.11351 78.575 10.6248L79.7105 12.2712ZM84.7307 8.604V11.34H86.7307V8.604H84.7307ZM85.5436 10.3577C84.4741 10.5614 83.3645 10.8776 82.2161 11.302L82.9094 13.178C83.9689 12.7864 84.9714 12.5026 85.9178 12.3223L85.5436 10.3577ZM82.2093 11.3045C81.1137 11.7184 80.237 12.097 79.6024 12.4407L80.555 14.1993C81.0724 13.919 81.8517 13.5776 82.9161 13.1755L82.2093 11.3045ZM79.6174 12.4328L78.7174 12.9008L79.6401 14.6752L80.5401 14.2072L79.6174 12.4328ZM78.1787 13.788V27H80.1787V13.788H78.1787ZM79.1787 26H76.4787V28H79.1787V26ZM89.5445 10.836L90.3241 11.4623L90.3241 11.4623L89.5445 10.836ZM101.424 10.836L100.639 11.4544L100.645 11.4623L101.424 10.836ZM101.532 25.128L102.336 25.7238L102.336 25.7238L101.532 25.128ZM89.4365 25.128L88.6334 25.7238L88.6334 25.7238L89.4365 25.128ZM91.4885 23.436L90.6275 23.9447L90.6318 23.9519L90.6361 23.959L91.4885 23.436ZM99.4805 23.472L100.336 23.9894L100.341 23.9807L99.4805 23.472ZM99.3725 12.492L98.5495 13.0602L98.5561 13.0695L99.3725 12.492ZM91.5965 12.492L90.7827 11.9108L90.7801 11.9145L91.5965 12.492ZM88.7805 17.964C88.7805 14.7502 89.3638 12.6577 90.3241 11.4623L88.7648 10.2097C87.3731 11.9423 86.7805 14.6018 86.7805 17.964H88.7805ZM90.3241 11.4623C91.2327 10.3311 92.8531 9.64 95.4845 9.64V7.64C92.5479 7.64 90.2082 8.41287 88.7648 10.2097L90.3241 11.4623ZM95.4845 9.64C98.1454 9.64 99.7568 10.3337 100.639 11.4544L102.21 10.2176C100.788 8.41025 98.4395 7.64 95.4845 7.64V9.64ZM100.645 11.4623C101.605 12.6577 102.188 14.7502 102.188 17.964H104.188C104.188 14.6018 103.596 11.9423 102.204 10.2097L100.645 11.4623ZM102.188 17.964C102.188 21.1844 101.639 23.3057 100.729 24.5322L102.336 25.7238C103.634 23.9743 104.188 21.3196 104.188 17.964H102.188ZM100.729 24.5322C99.9028 25.6462 98.2826 26.36 95.4845 26.36V28.36C98.5424 28.36 100.954 27.5858 102.336 25.7238L100.729 24.5322ZM95.4845 26.36C92.6864 26.36 91.0661 25.6462 90.2396 24.5322L88.6334 25.7238C90.0148 27.5858 92.4266 28.36 95.4845 28.36V26.36ZM90.2396 24.5322C89.3296 23.3057 88.7805 21.1844 88.7805 17.964H86.7805C86.7805 21.3196 87.3353 23.9743 88.6334 25.7238L90.2396 24.5322ZM89.5525 17.928C89.5525 20.5625 89.8558 22.6387 90.6275 23.9447L92.3494 22.9273C91.8731 22.1213 91.5525 20.5255 91.5525 17.928H89.5525ZM90.6361 23.959C91.5593 25.4633 93.3471 26.02 95.4845 26.02V24.02C93.5898 24.02 92.7137 23.5207 92.3408 22.913L90.6361 23.959ZM95.4845 26.02C97.627 26.02 99.432 25.4848 100.336 23.9894L98.6247 22.9546C98.2809 23.5232 97.422 24.02 95.4845 24.02V26.02ZM100.341 23.9807C101.114 22.6739 101.416 20.5845 101.416 17.928H99.4165C99.4165 20.5515 99.0953 22.1581 98.6195 22.9633L100.341 23.9807ZM101.416 17.928C101.416 16.5693 101.327 15.3888 101.138 14.4004C100.95 13.4215 100.651 12.568 100.189 11.9145L98.5561 13.0695C98.7898 13.4 99.0134 13.9445 99.1734 14.7776C99.3316 15.6012 99.4165 16.6467 99.4165 17.928H101.416ZM100.195 11.9238C99.227 10.5214 97.5221 9.98 95.4845 9.98V11.98C97.2388 11.98 98.1259 12.4466 98.5496 13.0602L100.195 11.9238ZM95.4845 9.98C93.4616 9.98 91.772 10.5257 90.7827 11.9108L92.4102 13.0732C92.8609 12.4423 93.7633 11.98 95.4845 11.98V9.98ZM90.7801 11.9145C90.3178 12.568 90.0194 13.4215 89.8314 14.4004C89.6416 15.3888 89.5525 16.5693 89.5525 17.928H91.5525C91.5525 16.6467 91.6373 15.6012 91.7955 14.7776C91.9555 13.9445 92.1791 13.4 92.4129 13.0695L90.7801 11.9145ZM111.048 11.34V10.34H110.048V11.34H111.048ZM111.048 27V28H112.048V27H111.048ZM108.348 27H107.348V28H108.348V27ZM108.348 11.34H109.348V10.34H108.348V11.34ZM106.08 11.34H105.08V12.34H106.08V11.34ZM106.08 9V8H105.08V9H106.08ZM108.348 9V10H109.348V9H108.348ZM109.428 2.196L110.213 2.81569L110.221 2.80571L109.428 2.196ZM113.208 0.791998L113.277 -0.205608L113.243 -0.208002H113.208V0.791998ZM116.844 1.044L117.844 1.06013L117.859 0.111959L116.913 0.0463926L116.844 1.044ZM116.808 3.276L116.772 4.27536L117.791 4.31176L117.808 3.29213L116.808 3.276ZM111.588 4.068L110.756 3.5133L110.748 3.52553L110.74 3.538L111.588 4.068ZM111.048 9H110.048V10H111.048V9ZM116.268 9H117.268V8H116.268V9ZM116.268 11.34V12.34H117.268V11.34H116.268ZM110.048 11.34V27H112.048V11.34H110.048ZM111.048 26H108.348V28H111.048V26ZM109.348 27V11.34H107.348V27H109.348ZM108.348 10.34H106.08V12.34H108.348V10.34ZM107.08 11.34V9H105.08V11.34H107.08ZM106.08 10H108.348V8H106.08V10ZM109.348 9V7.38H107.348V9H109.348ZM109.348 7.38C109.348 6.1493 109.436 5.15464 109.597 4.37995C109.76 3.59594 109.986 3.10321 110.213 2.81564L108.643 1.57636C108.15 2.20079 107.836 3.02806 107.639 3.97205C107.44 4.92536 107.348 6.0667 107.348 7.38H109.348ZM110.221 2.80571C110.669 2.22323 111.552 1.792 113.208 1.792V-0.208002C111.264 -0.208002 109.627 0.296768 108.635 1.58629L110.221 2.80571ZM113.139 1.78961L116.775 2.04161L116.913 0.0463926L113.277 -0.205608L113.139 1.78961ZM115.844 1.02787L115.808 3.25987L117.808 3.29213L117.844 1.06013L115.844 1.02787ZM116.844 2.27664C115.493 2.2284 114.364 2.204 113.46 2.204V4.204C114.332 4.204 115.435 4.2276 116.772 4.27536L116.844 2.27664ZM113.46 2.204C112.356 2.204 111.372 2.58901 110.756 3.5133L112.42 4.6227C112.572 4.39499 112.836 4.204 113.46 4.204V2.204ZM110.74 3.538C110.458 3.98987 110.295 4.5641 110.196 5.17777C110.094 5.80649 110.048 6.55679 110.048 7.416H112.048C112.048 6.61921 112.092 5.9835 112.17 5.49623C112.251 4.9939 112.358 4.72213 112.436 4.598L110.74 3.538ZM110.048 7.416V9H112.048V7.416H110.048ZM111.048 10H116.268V8H111.048V10ZM115.268 9V11.34H117.268V9H115.268ZM116.268 10.34H111.048V12.34H116.268V10.34ZM119.51 27H118.51V28H119.51V27ZM119.51 9V8H118.51V9H119.51ZM122.21 9H123.21V8H122.21V9ZM122.21 27V28H123.21V27H122.21ZM119.51 4.932H118.51V5.932H119.51V4.932ZM119.51 1.8V0.799998H118.51V1.8H119.51ZM122.21 1.8H123.21V0.799998H122.21V1.8ZM122.21 4.932V5.932H123.21V4.932H122.21ZM120.51 27V9H118.51V27H120.51ZM119.51 10H122.21V8H119.51V10ZM121.21 9V27H123.21V9H121.21ZM122.21 26H119.51V28H122.21V26ZM120.51 4.932V1.8H118.51V4.932H120.51ZM119.51 2.8H122.21V0.799998H119.51V2.8ZM121.21 1.8V4.932H123.21V1.8H121.21ZM122.21 3.932H119.51V5.932H122.21V3.932ZM127.601 27H126.601V28H127.601V27ZM127.601 1.152V0.151998H126.601V1.152H127.601ZM130.301 1.152H131.301V0.151998H130.301V1.152ZM130.301 27V28H131.301V27H130.301ZM128.601 27V1.152H126.601V27H128.601ZM127.601 2.152H130.301V0.151998H127.601V2.152ZM129.301 1.152V27H131.301V1.152H129.301ZM130.301 26H127.601V28H130.301V26ZM147.957 24.768L148.035 25.765L148.047 25.764L148.06 25.7627L147.957 24.768ZM149.001 24.66L150 24.6261L149.964 23.555L148.898 23.6653L149.001 24.66ZM149.073 26.784L149.212 27.7743L150.103 27.6493L150.072 26.7501L149.073 26.784ZM136.545 25.128L135.731 25.7093L135.736 25.7154L136.545 25.128ZM147.885 10.692L147.133 11.3515L147.139 11.358L147.885 10.692ZM149.685 17.064L150.683 17.134L150.685 17.099V17.064H149.685ZM149.541 19.116V20.116H150.473L150.539 19.186L149.541 19.116ZM137.661 19.116V18.116H136.661V19.116H137.661ZM138.741 23.544L137.941 24.144L137.941 24.144L138.741 23.544ZM146.985 16.956V17.956H147.985V16.956H146.985ZM145.905 12.276L145.11 12.8827L145.115 12.8892L145.12 12.8956L145.905 12.276ZM138.849 12.348L138.087 11.7004L138.082 11.7059L138.078 11.7116L138.849 12.348ZM137.625 16.956L136.625 16.9446L136.614 17.956H137.625V16.956ZM148.06 25.7627L149.104 25.6547L148.898 23.6653L147.854 23.7733L148.06 25.7627ZM148.002 24.6939L148.074 26.8179L150.072 26.7501L150 24.6261L148.002 24.6939ZM148.934 25.7937C146.227 26.1737 143.936 26.36 142.053 26.36V28.36C144.058 28.36 146.447 28.1623 149.212 27.7743L148.934 25.7937ZM142.053 26.36C139.641 26.36 138.177 25.6737 137.354 24.5406L135.736 25.7154C137.073 27.5583 139.281 28.36 142.053 28.36V26.36ZM137.359 24.5468C136.459 23.2869 135.925 21.1993 135.925 18.108H133.925C133.925 21.3527 134.471 23.9451 135.731 25.7092L137.359 24.5468ZM135.925 18.108C135.925 15.0577 136.535 12.9548 137.589 11.6291C138.607 10.3474 140.164 9.64 142.449 9.64V7.64C139.718 7.64 137.513 8.51062 136.023 10.3848C134.569 12.2152 133.925 14.8463 133.925 18.108H135.925ZM142.449 9.64C144.686 9.64 146.181 10.2657 147.133 11.3514L148.637 10.0326C147.189 8.38231 145.06 7.64 142.449 7.64V9.64ZM147.139 11.358C148.101 12.4351 148.685 14.2638 148.685 17.064H150.685C150.685 14.0562 150.069 11.6369 148.631 10.026L147.139 11.358ZM148.687 16.994L148.543 19.046L150.539 19.186L150.683 17.134L148.687 16.994ZM149.541 18.116H137.661V20.116H149.541V18.116ZM136.661 19.116C136.661 21.1942 137.03 22.9297 137.941 24.144L139.541 22.944C139.012 22.2383 138.661 21.0218 138.661 19.116H136.661ZM137.941 24.144C138.928 25.4596 140.552 25.984 142.485 25.984V23.984C140.866 23.984 139.994 23.5484 139.541 22.944L137.941 24.144ZM142.485 25.984C144.312 25.984 146.162 25.9109 148.035 25.765L147.879 23.771C146.056 23.9131 144.258 23.984 142.485 23.984V25.984ZM147.985 16.956C147.985 14.6978 147.628 12.8452 146.69 11.6564L145.12 12.8956C145.622 13.5308 145.985 14.7982 145.985 16.956H147.985ZM146.7 11.6693C145.747 10.4201 144.236 9.908 142.449 9.908V11.908C143.878 11.908 144.671 12.3079 145.11 12.8827L146.7 11.6693ZM142.449 9.908C140.653 9.908 139.14 10.4613 138.087 11.7004L139.611 12.9956C140.19 12.3147 141.077 11.908 142.449 11.908V9.908ZM138.078 11.7116C137.069 12.934 136.65 14.7493 136.625 16.9446L138.625 16.9674C138.648 14.9387 139.045 13.682 139.62 12.9844L138.078 11.7116ZM137.625 17.956H146.985V15.956H137.625V17.956Z" fill="black" mask="url(#path-1-outside-1_401_3)"/>
</svg>
