<svg width="140" height="35" viewBox="0 0 140 35" fill="none" xmlns="http://www.w3.org/2000/svg">
<mask id="path-1-outside-1_448_2" maskUnits="userSpaceOnUse" x="-1" y="-1" width="142" height="37" fill="black">
<rect fill="white" x="-1" y="-1" width="142" height="37"/>
<path d="M0.06 26V1.088H15.216V3.536H2.832V12.14H13.056V14.552H2.832V23.552H15.216V26H0.06ZM32.998 0.151998V26H30.334V24.776C28.486 25.832 26.662 26.36 24.862 26.36C23.902 26.36 23.062 26.24 22.342 26C21.622 25.76 20.95 25.328 20.326 24.704C19.03 23.408 18.382 21.02 18.382 17.54C18.382 14.036 18.958 11.516 20.11 9.98C21.286 8.42 23.218 7.64 25.906 7.64C27.298 7.64 28.774 7.796 30.334 8.108V0.151998H32.998ZM22.414 22.76C22.798 23.216 23.206 23.528 23.638 23.696C24.07 23.864 24.622 23.948 25.294 23.948C25.99 23.948 26.758 23.84 27.598 23.624C28.462 23.384 29.134 23.156 29.614 22.94L30.334 22.616V10.412C28.798 10.124 27.37 9.98 26.05 9.98C24.226 9.98 22.954 10.568 22.234 11.744C21.514 12.896 21.154 14.696 21.154 17.144C21.154 19.928 21.574 21.8 22.414 22.76ZM38.2287 26V8H40.9287V26H38.2287ZM38.2287 3.932V0.799998H40.9287V3.932H38.2287ZM55.4277 10.34H49.7037V18.944C49.7037 21.008 49.8477 22.364 50.1357 23.012C50.4477 23.66 51.1677 23.984 52.2957 23.984L55.4997 23.768L55.6797 26C54.0717 26.264 52.8477 26.396 52.0077 26.396C50.1357 26.396 48.8397 25.94 48.1197 25.028C47.3997 24.116 47.0397 22.376 47.0397 19.808V10.34H44.4837V8H47.0397V2.492H49.7037V8H55.4277V10.34ZM73.979 3.14C70.379 3.14 68.579 4.496 68.579 7.208C68.579 8.72 68.987 9.764 69.803 10.34C70.643 10.892 72.323 11.456 74.843 12.032C77.387 12.584 79.187 13.316 80.243 14.228C81.299 15.116 81.827 16.592 81.827 18.656C81.827 23.768 79.175 26.324 73.871 26.324C72.119 26.324 69.923 26.12 67.283 25.712L65.987 25.532L66.275 23.228C69.539 23.66 72.023 23.876 73.727 23.876C77.279 23.876 79.055 22.208 79.055 18.872C79.055 17.528 78.659 16.568 77.867 15.992C77.099 15.392 75.647 14.888 73.511 14.48C70.703 13.88 68.711 13.112 67.535 12.176C66.359 11.216 65.771 9.62 65.771 7.388C65.771 2.924 68.447 0.692 73.799 0.692C75.551 0.692 77.651 0.872 80.099 1.232L81.323 1.412L81.071 3.752C77.735 3.344 75.371 3.14 73.979 3.14ZM85.3547 16.964C85.3547 13.676 85.9427 11.3 87.1187 9.836C88.2947 8.372 90.2747 7.64 93.0587 7.64C95.8667 7.64 97.8467 8.372 98.9987 9.836C100.175 11.3 100.763 13.676 100.763 16.964C100.763 20.252 100.211 22.64 99.1067 24.128C98.0027 25.616 95.9867 26.36 93.0587 26.36C90.1307 26.36 88.1147 25.616 87.0107 24.128C85.9067 22.64 85.3547 20.252 85.3547 16.964ZM88.1267 16.928C88.1267 19.544 88.4387 21.38 89.0627 22.436C89.7107 23.492 91.0427 24.02 93.0587 24.02C95.0987 24.02 96.4307 23.504 97.0547 22.472C97.6787 21.416 97.9907 19.568 97.9907 16.928C97.9907 14.288 97.6427 12.476 96.9467 11.492C96.2507 10.484 94.9547 9.98 93.0587 9.98C91.1867 9.98 89.8907 10.484 89.1707 11.492C88.4747 12.476 88.1267 14.288 88.1267 16.928ZM107.866 26H105.166V8H107.83V9.26C109.774 8.18 111.634 7.64 113.41 7.64C115.81 7.64 117.418 8.288 118.234 9.584C119.074 10.88 119.494 13.184 119.494 16.496V26H116.83V16.568C116.83 14.072 116.578 12.368 116.074 11.456C115.594 10.52 114.55 10.052 112.942 10.052C112.174 10.052 111.358 10.172 110.494 10.412C109.654 10.628 109.006 10.844 108.55 11.06L107.866 11.384V26ZM131.45 34.46C128.57 34.46 126.554 34.064 125.402 33.272C124.274 32.504 123.71 31.088 123.71 29.024C123.71 28.04 123.926 27.236 124.358 26.612C124.79 26.012 125.522 25.328 126.554 24.56C125.882 24.104 125.546 23.276 125.546 22.076C125.546 21.668 125.846 20.912 126.446 19.808L126.77 19.232C124.874 18.368 123.926 16.556 123.926 13.796C123.926 9.692 126.17 7.64 130.658 7.64C131.81 7.64 132.878 7.76 133.862 8L134.402 8.108L139.73 7.964V10.268L136.31 10.196C137.102 10.988 137.498 12.188 137.498 13.796C137.498 16.052 136.934 17.636 135.806 18.548C134.702 19.436 132.95 19.88 130.55 19.88C129.902 19.88 129.314 19.832 128.786 19.736C128.354 20.792 128.138 21.476 128.138 21.788C128.138 22.532 128.366 23 128.822 23.192C129.278 23.36 130.658 23.444 132.962 23.444C135.266 23.444 136.922 23.804 137.93 24.524C138.938 25.244 139.442 26.648 139.442 28.736C139.442 32.552 136.778 34.46 131.45 34.46ZM126.374 28.808C126.374 30.08 126.722 30.956 127.418 31.436C128.138 31.94 129.446 32.192 131.342 32.192C133.262 32.192 134.63 31.928 135.446 31.4C136.286 30.872 136.706 29.984 136.706 28.736C136.706 27.512 136.406 26.72 135.806 26.36C135.206 26 134.03 25.82 132.278 25.82L128.39 25.64C127.598 26.216 127.058 26.72 126.77 27.152C126.506 27.584 126.374 28.136 126.374 28.808ZM126.626 13.796C126.626 15.212 126.938 16.22 127.562 16.82C128.21 17.42 129.266 17.72 130.73 17.72C132.194 17.72 133.238 17.42 133.862 16.82C134.486 16.22 134.798 15.212 134.798 13.796C134.798 12.356 134.486 11.336 133.862 10.736C133.238 10.136 132.194 9.836 130.73 9.836C129.266 9.836 128.21 10.148 127.562 10.772C126.938 11.372 126.626 12.38 126.626 13.796Z"/>
</mask>
<path d="M0.06 26V1.088H15.216V3.536H2.832V12.14H13.056V14.552H2.832V23.552H15.216V26H0.06ZM32.998 0.151998V26H30.334V24.776C28.486 25.832 26.662 26.36 24.862 26.36C23.902 26.36 23.062 26.24 22.342 26C21.622 25.76 20.95 25.328 20.326 24.704C19.03 23.408 18.382 21.02 18.382 17.54C18.382 14.036 18.958 11.516 20.11 9.98C21.286 8.42 23.218 7.64 25.906 7.64C27.298 7.64 28.774 7.796 30.334 8.108V0.151998H32.998ZM22.414 22.76C22.798 23.216 23.206 23.528 23.638 23.696C24.07 23.864 24.622 23.948 25.294 23.948C25.99 23.948 26.758 23.84 27.598 23.624C28.462 23.384 29.134 23.156 29.614 22.94L30.334 22.616V10.412C28.798 10.124 27.37 9.98 26.05 9.98C24.226 9.98 22.954 10.568 22.234 11.744C21.514 12.896 21.154 14.696 21.154 17.144C21.154 19.928 21.574 21.8 22.414 22.76ZM38.2287 26V8H40.9287V26H38.2287ZM38.2287 3.932V0.799998H40.9287V3.932H38.2287ZM55.4277 10.34H49.7037V18.944C49.7037 21.008 49.8477 22.364 50.1357 23.012C50.4477 23.66 51.1677 23.984 52.2957 23.984L55.4997 23.768L55.6797 26C54.0717 26.264 52.8477 26.396 52.0077 26.396C50.1357 26.396 48.8397 25.94 48.1197 25.028C47.3997 24.116 47.0397 22.376 47.0397 19.808V10.34H44.4837V8H47.0397V2.492H49.7037V8H55.4277V10.34ZM73.979 3.14C70.379 3.14 68.579 4.496 68.579 7.208C68.579 8.72 68.987 9.764 69.803 10.34C70.643 10.892 72.323 11.456 74.843 12.032C77.387 12.584 79.187 13.316 80.243 14.228C81.299 15.116 81.827 16.592 81.827 18.656C81.827 23.768 79.175 26.324 73.871 26.324C72.119 26.324 69.923 26.12 67.283 25.712L65.987 25.532L66.275 23.228C69.539 23.66 72.023 23.876 73.727 23.876C77.279 23.876 79.055 22.208 79.055 18.872C79.055 17.528 78.659 16.568 77.867 15.992C77.099 15.392 75.647 14.888 73.511 14.48C70.703 13.88 68.711 13.112 67.535 12.176C66.359 11.216 65.771 9.62 65.771 7.388C65.771 2.924 68.447 0.692 73.799 0.692C75.551 0.692 77.651 0.872 80.099 1.232L81.323 1.412L81.071 3.752C77.735 3.344 75.371 3.14 73.979 3.14ZM85.3547 16.964C85.3547 13.676 85.9427 11.3 87.1187 9.836C88.2947 8.372 90.2747 7.64 93.0587 7.64C95.8667 7.64 97.8467 8.372 98.9987 9.836C100.175 11.3 100.763 13.676 100.763 16.964C100.763 20.252 100.211 22.64 99.1067 24.128C98.0027 25.616 95.9867 26.36 93.0587 26.36C90.1307 26.36 88.1147 25.616 87.0107 24.128C85.9067 22.64 85.3547 20.252 85.3547 16.964ZM88.1267 16.928C88.1267 19.544 88.4387 21.38 89.0627 22.436C89.7107 23.492 91.0427 24.02 93.0587 24.02C95.0987 24.02 96.4307 23.504 97.0547 22.472C97.6787 21.416 97.9907 19.568 97.9907 16.928C97.9907 14.288 97.6427 12.476 96.9467 11.492C96.2507 10.484 94.9547 9.98 93.0587 9.98C91.1867 9.98 89.8907 10.484 89.1707 11.492C88.4747 12.476 88.1267 14.288 88.1267 16.928ZM107.866 26H105.166V8H107.83V9.26C109.774 8.18 111.634 7.64 113.41 7.64C115.81 7.64 117.418 8.288 118.234 9.584C119.074 10.88 119.494 13.184 119.494 16.496V26H116.83V16.568C116.83 14.072 116.578 12.368 116.074 11.456C115.594 10.52 114.55 10.052 112.942 10.052C112.174 10.052 111.358 10.172 110.494 10.412C109.654 10.628 109.006 10.844 108.55 11.06L107.866 11.384V26ZM131.45 34.46C128.57 34.46 126.554 34.064 125.402 33.272C124.274 32.504 123.71 31.088 123.71 29.024C123.71 28.04 123.926 27.236 124.358 26.612C124.79 26.012 125.522 25.328 126.554 24.56C125.882 24.104 125.546 23.276 125.546 22.076C125.546 21.668 125.846 20.912 126.446 19.808L126.77 19.232C124.874 18.368 123.926 16.556 123.926 13.796C123.926 9.692 126.17 7.64 130.658 7.64C131.81 7.64 132.878 7.76 133.862 8L134.402 8.108L139.73 7.964V10.268L136.31 10.196C137.102 10.988 137.498 12.188 137.498 13.796C137.498 16.052 136.934 17.636 135.806 18.548C134.702 19.436 132.95 19.88 130.55 19.88C129.902 19.88 129.314 19.832 128.786 19.736C128.354 20.792 128.138 21.476 128.138 21.788C128.138 22.532 128.366 23 128.822 23.192C129.278 23.36 130.658 23.444 132.962 23.444C135.266 23.444 136.922 23.804 137.93 24.524C138.938 25.244 139.442 26.648 139.442 28.736C139.442 32.552 136.778 34.46 131.45 34.46ZM126.374 28.808C126.374 30.08 126.722 30.956 127.418 31.436C128.138 31.94 129.446 32.192 131.342 32.192C133.262 32.192 134.63 31.928 135.446 31.4C136.286 30.872 136.706 29.984 136.706 28.736C136.706 27.512 136.406 26.72 135.806 26.36C135.206 26 134.03 25.82 132.278 25.82L128.39 25.64C127.598 26.216 127.058 26.72 126.77 27.152C126.506 27.584 126.374 28.136 126.374 28.808ZM126.626 13.796C126.626 15.212 126.938 16.22 127.562 16.82C128.21 17.42 129.266 17.72 130.73 17.72C132.194 17.72 133.238 17.42 133.862 16.82C134.486 16.22 134.798 15.212 134.798 13.796C134.798 12.356 134.486 11.336 133.862 10.736C133.238 10.136 132.194 9.836 130.73 9.836C129.266 9.836 128.21 10.148 127.562 10.772C126.938 11.372 126.626 12.38 126.626 13.796Z" fill="#666666"/>
<path d="M0.06 26H-0.94V27H0.06V26ZM0.06 1.088V0.0879989H-0.94V1.088H0.06ZM15.216 1.088H16.216V0.0879989H15.216V1.088ZM15.216 3.536V4.536H16.216V3.536H15.216ZM2.832 3.536V2.536H1.832V3.536H2.832ZM2.832 12.14H1.832V13.14H2.832V12.14ZM13.056 12.14H14.056V11.14H13.056V12.14ZM13.056 14.552V15.552H14.056V14.552H13.056ZM2.832 14.552V13.552H1.832V14.552H2.832ZM2.832 23.552H1.832V24.552H2.832V23.552ZM15.216 23.552H16.216V22.552H15.216V23.552ZM15.216 26V27H16.216V26H15.216ZM1.06 26V1.088H-0.94V26H1.06ZM0.06 2.088H15.216V0.0879989H0.06V2.088ZM14.216 1.088V3.536H16.216V1.088H14.216ZM15.216 2.536H2.832V4.536H15.216V2.536ZM1.832 3.536V12.14H3.832V3.536H1.832ZM2.832 13.14H13.056V11.14H2.832V13.14ZM12.056 12.14V14.552H14.056V12.14H12.056ZM13.056 13.552H2.832V15.552H13.056V13.552ZM1.832 14.552V23.552H3.832V14.552H1.832ZM2.832 24.552H15.216V22.552H2.832V24.552ZM14.216 23.552V26H16.216V23.552H14.216ZM15.216 25H0.06V27H15.216V25ZM32.998 0.151998H33.998V-0.848002H32.998V0.151998ZM32.998 26V27H33.998V26H32.998ZM30.334 26H29.334V27H30.334V26ZM30.334 24.776H31.334V23.0528L29.8379 23.9078L30.334 24.776ZM20.326 24.704L19.6189 25.4111L19.6189 25.4111L20.326 24.704ZM20.11 9.98L19.3115 9.37803L19.31 9.38L20.11 9.98ZM30.334 8.108L30.1379 9.08858L31.334 9.3278V8.108H30.334ZM30.334 0.151998V-0.848002H29.334V0.151998H30.334ZM22.414 22.76L23.1789 22.1159L23.1728 22.1086L23.1666 22.1015L22.414 22.76ZM27.598 23.624L27.8471 24.5925L27.8564 24.5901L27.8657 24.5875L27.598 23.624ZM29.614 22.94L30.0244 23.8519L30.0244 23.8519L29.614 22.94ZM30.334 22.616L30.7444 23.5279L31.334 23.2626V22.616H30.334ZM30.334 10.412H31.334V9.58207L30.5183 9.42913L30.334 10.412ZM22.234 11.744L23.0821 12.274L23.0869 12.2662L22.234 11.744ZM31.998 0.151998V26H33.998V0.151998H31.998ZM32.998 25H30.334V27H32.998V25ZM31.334 26V24.776H29.334V26H31.334ZM29.8379 23.9078C28.1133 24.8932 26.4587 25.36 24.862 25.36V27.36C26.8654 27.36 28.8588 26.7708 30.8302 25.6442L29.8379 23.9078ZM24.862 25.36C23.9824 25.36 23.2534 25.2497 22.6583 25.0513L22.0258 26.9487C22.8707 27.2303 23.8217 27.36 24.862 27.36V25.36ZM22.6583 25.0513C22.1078 24.8678 21.5652 24.529 21.0331 23.9969L19.6189 25.4111C20.3348 26.127 21.1363 26.6522 22.0258 26.9487L22.6583 25.0513ZM21.0331 23.9969C20.0346 22.9983 19.382 20.967 19.382 17.54H17.382C17.382 21.073 18.0255 23.8177 19.6189 25.4111L21.0331 23.9969ZM19.382 17.54C19.382 14.0964 19.9577 11.8498 20.91 10.58L19.31 9.38C17.9584 11.1822 17.382 13.9756 17.382 17.54H19.382ZM20.9086 10.582C21.8307 9.35876 23.4055 8.64 25.906 8.64V6.64C23.0305 6.64 20.7414 7.48124 19.3115 9.37804L20.9086 10.582ZM25.906 8.64C27.2236 8.64 28.6335 8.7877 30.1379 9.08858L30.5301 7.12742C28.9145 6.8043 27.3724 6.64 25.906 6.64V8.64ZM31.334 8.108V0.151998H29.334V8.108H31.334ZM30.334 1.152H32.998V-0.848002H30.334V1.152ZM21.6491 23.4041C22.111 23.9526 22.649 24.3843 23.2756 24.628L24.0005 22.764C23.763 22.6717 23.4851 22.4794 23.1789 22.1159L21.6491 23.4041ZM23.2756 24.628C23.8627 24.8563 24.549 24.948 25.294 24.948V22.948C24.695 22.948 24.2774 22.8717 24.0005 22.764L23.2756 24.628ZM25.294 24.948C26.0917 24.948 26.9447 24.8245 27.8471 24.5925L27.349 22.6555C26.5713 22.8555 25.8884 22.948 25.294 22.948V24.948ZM27.8657 24.5875C28.7497 24.342 29.4772 24.0982 30.0244 23.8519L29.2037 22.0281C28.7909 22.2138 28.1744 22.426 27.3304 22.6605L27.8657 24.5875ZM30.0244 23.8519L30.7444 23.5279L29.9237 21.7041L29.2037 22.0281L30.0244 23.8519ZM31.334 22.616V10.412H29.334V22.616H31.334ZM30.5183 9.42913C28.9323 9.13175 27.4419 8.98 26.05 8.98V10.98C27.2982 10.98 28.6638 11.1163 30.1497 11.3949L30.5183 9.42913ZM26.05 8.98C24.0048 8.98 22.3406 9.65483 21.3812 11.2218L23.0869 12.2662C23.5675 11.4812 24.4472 10.98 26.05 10.98V8.98ZM21.386 11.214C20.5151 12.6074 20.154 14.6383 20.154 17.144H22.154C22.154 14.7537 22.5129 13.1846 23.082 12.274L21.386 11.214ZM20.154 17.144C20.154 18.5798 20.2617 19.8228 20.4933 20.8549C20.7229 21.8782 21.0899 22.7653 21.6615 23.4185L23.1666 22.1015C22.8982 21.7947 22.6352 21.2658 22.4448 20.4171C22.2563 19.5772 22.154 18.4922 22.154 17.144H20.154ZM38.2287 26H37.2287V27H38.2287V26ZM38.2287 8V7H37.2287V8H38.2287ZM40.9287 8H41.9287V7H40.9287V8ZM40.9287 26V27H41.9287V26H40.9287ZM38.2287 3.932H37.2287V4.932H38.2287V3.932ZM38.2287 0.799998V-0.200002H37.2287V0.799998H38.2287ZM40.9287 0.799998H41.9287V-0.200002H40.9287V0.799998ZM40.9287 3.932V4.932H41.9287V3.932H40.9287ZM39.2287 26V8H37.2287V26H39.2287ZM38.2287 9H40.9287V7H38.2287V9ZM39.9287 8V26H41.9287V8H39.9287ZM40.9287 25H38.2287V27H40.9287V25ZM39.2287 3.932V0.799998H37.2287V3.932H39.2287ZM38.2287 1.8H40.9287V-0.200002H38.2287V1.8ZM39.9287 0.799998V3.932H41.9287V0.799998H39.9287ZM40.9287 2.932H38.2287V4.932H40.9287V2.932ZM55.4277 10.34V11.34H56.4277V10.34H55.4277ZM49.7037 10.34V9.34H48.7037V10.34H49.7037ZM50.1357 23.012L49.2219 23.4181L49.2281 23.4321L49.2347 23.4458L50.1357 23.012ZM52.2957 23.984V24.984H52.3294L52.363 24.9817L52.2957 23.984ZM55.4997 23.768L56.4965 23.6876L56.4171 22.7039L55.4325 22.7703L55.4997 23.768ZM55.6797 26L55.8417 26.9868L56.7505 26.8376L56.6765 25.9196L55.6797 26ZM48.1197 25.028L47.3348 25.6476L47.3348 25.6476L48.1197 25.028ZM47.0397 10.34H48.0397V9.34H47.0397V10.34ZM44.4837 10.34H43.4837V11.34H44.4837V10.34ZM44.4837 8V7H43.4837V8H44.4837ZM47.0397 8V9H48.0397V8H47.0397ZM47.0397 2.492V1.492H46.0397V2.492H47.0397ZM49.7037 2.492H50.7037V1.492H49.7037V2.492ZM49.7037 8H48.7037V9H49.7037V8ZM55.4277 8H56.4277V7H55.4277V8ZM55.4277 9.34H49.7037V11.34H55.4277V9.34ZM48.7037 10.34V18.944H50.7037V10.34H48.7037ZM48.7037 18.944C48.7037 19.9954 48.7402 20.8886 48.8173 21.6146C48.8921 22.3192 49.0126 22.9472 49.2219 23.4181L51.0495 22.6059C50.9708 22.4288 50.8753 22.0548 50.8061 21.4034C50.7392 20.7734 50.7037 19.9566 50.7037 18.944H48.7037ZM49.2347 23.4458C49.7971 24.6139 51.0244 24.984 52.2957 24.984V22.984C51.3111 22.984 51.0983 22.7061 51.0367 22.5782L49.2347 23.4458ZM52.363 24.9817L55.567 24.7657L55.4325 22.7703L52.2285 22.9863L52.363 24.9817ZM54.503 23.8484L54.683 26.0804L56.6765 25.9196L56.4965 23.6876L54.503 23.8484ZM55.5177 25.0132C53.9234 25.275 52.7642 25.396 52.0077 25.396V27.396C52.9313 27.396 54.2201 27.253 55.8417 26.9868L55.5177 25.0132ZM52.0077 25.396C50.2553 25.396 49.3436 24.9644 48.9046 24.4084L47.3348 25.6476C48.3359 26.9156 50.0161 27.396 52.0077 27.396V25.396ZM48.9046 24.4084C48.6785 24.1219 48.4526 23.6274 48.289 22.8364C48.1274 22.0553 48.0397 21.0512 48.0397 19.808H46.0397C46.0397 21.1328 46.1321 22.2827 46.3305 23.2416C46.5268 24.1906 46.841 25.0221 47.3348 25.6476L48.9046 24.4084ZM48.0397 19.808V10.34H46.0397V19.808H48.0397ZM47.0397 9.34H44.4837V11.34H47.0397V9.34ZM45.4837 10.34V8H43.4837V10.34H45.4837ZM44.4837 9H47.0397V7H44.4837V9ZM48.0397 8V2.492H46.0397V8H48.0397ZM47.0397 3.492H49.7037V1.492H47.0397V3.492ZM48.7037 2.492V8H50.7037V2.492H48.7037ZM49.7037 9H55.4277V7H49.7037V9ZM54.4277 8V10.34H56.4277V8H54.4277ZM69.803 10.34L69.2263 11.157L69.2399 11.1666L69.2538 11.1757L69.803 10.34ZM74.843 12.032L74.6201 13.0069L74.6309 13.0093L74.843 12.032ZM80.243 14.228L79.5893 14.9849L79.5994 14.9934L80.243 14.228ZM67.283 25.712L67.4357 24.7237L67.4281 24.7226L67.4205 24.7215L67.283 25.712ZM65.987 25.532L64.9947 25.408L64.8723 26.3868L65.8494 26.5225L65.987 25.532ZM66.275 23.228L66.4062 22.2366L65.4076 22.1045L65.2827 23.104L66.275 23.228ZM77.867 15.992L77.2513 16.78L77.2649 16.7906L77.2788 16.8007L77.867 15.992ZM73.511 14.48L73.302 15.4579L73.3127 15.4602L73.3233 15.4622L73.511 14.48ZM67.535 12.176L66.9025 12.9507L66.9122 12.9584L67.535 12.176ZM80.099 1.232L79.9535 2.22136L79.9535 2.22136L80.099 1.232ZM81.323 1.412L82.3172 1.51907L82.4202 0.562605L81.4685 0.42264L81.323 1.412ZM81.071 3.752L80.9496 4.7446L81.9566 4.86776L82.0652 3.85907L81.071 3.752ZM73.979 2.14C72.0821 2.14 70.4769 2.4922 69.3273 3.35828C68.1243 4.26454 67.579 5.60967 67.579 7.208H69.579C69.579 6.09433 69.9337 5.40546 70.5307 4.95572C71.181 4.46579 72.2758 4.14 73.979 4.14V2.14ZM67.579 7.208C67.579 8.87065 68.0288 10.3117 69.2263 11.157L70.3797 9.52303C69.9451 9.21632 69.579 8.56935 69.579 7.208H67.579ZM69.2538 11.1757C70.2633 11.8391 72.1113 12.4334 74.6201 13.0069L75.0658 11.0571C72.5346 10.4786 71.0227 9.94492 70.3521 9.50429L69.2538 11.1757ZM74.6309 13.0093C77.1303 13.5516 78.7276 14.2406 79.5893 14.9848L80.8966 13.4712C79.6463 12.3914 77.6436 11.6164 75.055 11.0547L74.6309 13.0093ZM79.5994 14.9934C80.336 15.6128 80.827 16.7383 80.827 18.656H82.827C82.827 16.4457 82.262 14.6192 80.8866 13.4626L79.5994 14.9934ZM80.827 18.656C80.827 21.0483 80.2084 22.6611 79.144 23.687C78.0727 24.7195 76.3779 25.324 73.871 25.324V27.324C76.6681 27.324 78.9512 26.6505 80.5319 25.127C82.1195 23.5969 82.827 21.3757 82.827 18.656H80.827ZM73.871 25.324C72.1892 25.324 70.0485 25.1275 67.4357 24.7237L67.1302 26.7003C69.7975 27.1125 72.0487 27.324 73.871 27.324V25.324ZM67.4205 24.7215L66.1245 24.5415L65.8494 26.5225L67.1454 26.7025L67.4205 24.7215ZM66.9792 25.656L67.2672 23.352L65.2827 23.104L64.9947 25.408L66.9792 25.656ZM66.1438 24.2194C69.4191 24.6529 71.9556 24.876 73.727 24.876V22.876C72.0904 22.876 69.6588 22.6671 66.4062 22.2366L66.1438 24.2194ZM73.727 24.876C75.642 24.876 77.2644 24.4276 78.4076 23.3539C79.5625 22.2692 80.055 20.7108 80.055 18.872H78.055C78.055 20.3692 77.6594 21.3128 77.0384 21.8961C76.4055 22.4904 75.3639 22.876 73.727 22.876V24.876ZM80.055 18.872C80.055 17.3366 79.5947 16.0121 78.4551 15.1833L77.2788 16.8007C77.7232 17.1239 78.055 17.7194 78.055 18.872H80.055ZM78.4826 15.204C77.5091 14.4434 75.8435 13.9075 73.6986 13.4978L73.3233 15.4622C75.4504 15.8685 76.6889 16.3406 77.2513 16.78L78.4826 15.204ZM73.7199 13.5021C70.9495 12.9101 69.1464 12.1805 68.1577 11.3936L66.9122 12.9584C68.2755 14.0435 70.4564 14.8499 73.302 15.4579L73.7199 13.5021ZM68.1673 11.4013C67.3171 10.7073 66.771 9.46508 66.771 7.388H64.771C64.771 9.77491 65.4008 11.7247 66.9026 12.9507L68.1673 11.4013ZM66.771 7.388C66.771 5.36264 67.3694 4.00899 68.4185 3.13394C69.5024 2.2299 71.2374 1.692 73.799 1.692V-0.308C71.0086 -0.308 68.7296 0.270097 67.1374 1.59806C65.5106 2.95501 64.771 4.94936 64.771 7.388H66.771ZM73.799 1.692C75.487 1.692 77.5357 1.8658 79.9535 2.22136L80.2445 0.24264C77.7662 -0.121805 75.6149 -0.308 73.799 -0.308V1.692ZM79.9535 2.22136L81.1775 2.40136L81.4685 0.42264L80.2445 0.24264L79.9535 2.22136ZM80.3287 1.30493L80.0767 3.64493L82.0652 3.85907L82.3172 1.51907L80.3287 1.30493ZM81.1924 2.75939C77.8565 2.35141 75.4383 2.14 73.979 2.14V4.14C75.3037 4.14 77.6135 4.33659 80.9496 4.7446L81.1924 2.75939ZM87.1187 9.836L87.8983 10.4623L87.8983 10.4623L87.1187 9.836ZM98.9987 9.836L98.2128 10.4544L98.2191 10.4623L98.9987 9.836ZM99.1067 24.128L99.9098 24.7238L99.9098 24.7238L99.1067 24.128ZM87.0107 24.128L86.2076 24.7238L86.2076 24.7238L87.0107 24.128ZM89.0627 22.436L88.2018 22.9447L88.206 22.9519L88.2104 22.959L89.0627 22.436ZM97.0547 22.472L97.9105 22.9894L97.9156 22.9807L97.0547 22.472ZM96.9467 11.492L96.1237 12.0602L96.1303 12.0695L96.9467 11.492ZM89.1707 11.492L88.3569 10.9108L88.3543 10.9145L89.1707 11.492ZM86.3547 16.964C86.3547 13.7502 86.9381 11.6577 87.8983 10.4623L86.3391 9.20975C84.9473 10.9423 84.3547 13.6018 84.3547 16.964H86.3547ZM87.8983 10.4623C88.8069 9.33113 90.4273 8.64 93.0587 8.64V6.64C90.1221 6.64 87.7825 7.41287 86.3391 9.20975L87.8983 10.4623ZM93.0587 8.64C95.7196 8.64 97.331 9.33375 98.2128 10.4544L99.7846 9.21761C98.3624 7.41025 96.0137 6.64 93.0587 6.64V8.64ZM98.2191 10.4623C99.1793 11.6577 99.7627 13.7502 99.7627 16.964H101.763C101.763 13.6018 101.17 10.9423 99.7783 9.20975L98.2191 10.4623ZM99.7627 16.964C99.7627 20.1844 99.2136 22.3057 98.3036 23.5322L99.9098 24.7238C101.208 22.9743 101.763 20.3196 101.763 16.964H99.7627ZM98.3036 23.5322C97.477 24.6462 95.8568 25.36 93.0587 25.36V27.36C96.1166 27.36 98.5283 26.5858 99.9098 24.7238L98.3036 23.5322ZM93.0587 25.36C90.2606 25.36 88.6403 24.6462 87.8138 23.5322L86.2076 24.7238C87.589 26.5858 90.0008 27.36 93.0587 27.36V25.36ZM87.8138 23.5322C86.9038 22.3057 86.3547 20.1844 86.3547 16.964H84.3547C84.3547 20.3196 84.9096 22.9743 86.2076 24.7238L87.8138 23.5322ZM87.1267 16.928C87.1267 19.5625 87.43 21.6387 88.2018 22.9447L89.9236 21.9273C89.4474 21.1213 89.1267 19.5255 89.1267 16.928H87.1267ZM88.2104 22.959C89.1335 24.4633 90.9213 25.02 93.0587 25.02V23.02C91.164 23.02 90.2879 22.5207 89.915 21.913L88.2104 22.959ZM93.0587 25.02C95.2012 25.02 97.0062 24.4848 97.9104 22.9894L96.199 21.9546C95.8551 22.5232 94.9962 23.02 93.0587 23.02V25.02ZM97.9156 22.9807C98.6878 21.6739 98.9907 19.5845 98.9907 16.928H96.9907C96.9907 19.5515 96.6695 21.1581 96.1938 21.9633L97.9156 22.9807ZM98.9907 16.928C98.9907 15.5693 98.9016 14.3888 98.7117 13.4004C98.5237 12.4215 98.2253 11.568 97.7631 10.9145L96.1303 12.0695C96.364 12.4 96.5876 12.9445 96.7476 13.7776C96.9058 14.6012 96.9907 15.6467 96.9907 16.928H98.9907ZM97.7696 10.9238C96.8012 9.52138 95.0964 8.98 93.0587 8.98V10.98C94.813 10.98 95.7001 11.4466 96.1238 12.0602L97.7696 10.9238ZM93.0587 8.98C91.0358 8.98 89.3463 9.52573 88.357 10.9108L89.9844 12.0732C90.4351 11.4423 91.3375 10.98 93.0587 10.98V8.98ZM88.3543 10.9145C87.892 11.568 87.5936 12.4215 87.4056 13.4004C87.2158 14.3888 87.1267 15.5693 87.1267 16.928H89.1267C89.1267 15.6467 89.2116 14.6012 89.3697 13.7776C89.5297 12.9445 89.7533 12.4 89.9871 12.0695L88.3543 10.9145ZM107.866 26V27H108.866V26H107.866ZM105.166 26H104.166V27H105.166V26ZM105.166 8V7H104.166V8H105.166ZM107.83 8H108.83V7H107.83V8ZM107.83 9.26H106.83V10.9595L108.316 10.1342L107.83 9.26ZM118.234 9.584L117.388 10.1169L117.395 10.1279L118.234 9.584ZM119.494 26V27H120.494V26H119.494ZM116.83 26H115.83V27H116.83V26ZM116.074 11.456L115.184 11.9123L115.191 11.9261L115.199 11.9397L116.074 11.456ZM110.494 10.412L110.743 11.3805L110.753 11.3781L110.762 11.3755L110.494 10.412ZM108.55 11.06L108.978 11.9637L108.978 11.9637L108.55 11.06ZM107.866 11.384L107.438 10.4803L106.866 10.7512V11.384H107.866ZM107.866 25H105.166V27H107.866V25ZM106.166 26V8H104.166V26H106.166ZM105.166 9H107.83V7H105.166V9ZM106.83 8V9.26H108.83V8H106.83ZM108.316 10.1342C110.148 9.1162 111.842 8.64 113.41 8.64V6.64C111.427 6.64 109.4 7.24379 107.345 8.38584L108.316 10.1342ZM113.41 8.64C115.671 8.64 116.842 9.25044 117.388 10.1168L119.08 9.05119C117.994 7.32555 115.949 6.64 113.41 6.64V8.64ZM117.395 10.1279C118.064 11.1597 118.494 13.2012 118.494 16.496H120.494C120.494 13.1668 120.085 10.6003 119.073 9.0401L117.395 10.1279ZM118.494 16.496V26H120.494V16.496H118.494ZM119.494 25H116.83V27H119.494V25ZM117.83 26V16.568H115.83V26H117.83ZM117.83 16.568C117.83 15.2907 117.766 14.1883 117.63 13.2717C117.497 12.3683 117.285 11.5793 116.949 10.9723L115.199 11.9397C115.368 12.2447 115.534 12.7637 115.652 13.5643C115.768 14.3517 115.83 15.3493 115.83 16.568H117.83ZM116.964 10.9997C116.232 9.57208 114.707 9.052 112.942 9.052V11.052C114.394 11.052 114.957 11.4679 115.184 11.9123L116.964 10.9997ZM112.942 9.052C112.07 9.052 111.164 9.18821 110.227 9.44848L110.762 11.3755C111.553 11.1558 112.278 11.052 112.942 11.052V9.052ZM110.245 9.44351C109.381 9.6658 108.662 9.90045 108.122 10.1563L108.978 11.9637C109.35 11.7875 109.928 11.5902 110.743 11.3805L110.245 9.44351ZM108.122 10.1563L107.438 10.4803L108.294 12.2877L108.978 11.9637L108.122 10.1563ZM106.866 11.384V26H108.866V11.384H106.866ZM125.402 33.272L125.969 32.4479L125.965 32.4454L125.402 33.272ZM124.358 26.612L123.547 26.0277L123.541 26.0352L123.536 26.0428L124.358 26.612ZM126.554 24.56L127.151 25.3622L128.28 24.5224L127.116 23.7325L126.554 24.56ZM126.446 19.808L125.575 19.3177L125.571 19.3241L125.568 19.3305L126.446 19.808ZM126.77 19.232L127.642 19.7223L128.175 18.7734L127.185 18.322L126.77 19.232ZM133.862 8L133.625 8.97152L133.646 8.97648L133.666 8.98058L133.862 8ZM134.402 8.108L134.206 9.08858L134.317 9.11068L134.429 9.10763L134.402 8.108ZM139.73 7.964H140.73V6.93661L139.703 6.96436L139.73 7.964ZM139.73 10.268L139.709 11.2678L140.73 11.2893V10.268H139.73ZM136.31 10.196L136.331 9.19622L133.844 9.14385L135.603 10.9031L136.31 10.196ZM135.806 18.548L136.433 19.3272L136.435 19.3256L135.806 18.548ZM128.786 19.736L128.965 18.7521L128.168 18.6071L127.861 19.3574L128.786 19.736ZM128.822 23.192L128.434 24.1136L128.455 24.1225L128.476 24.1303L128.822 23.192ZM137.93 24.524L137.349 25.3377L137.93 24.524ZM127.418 31.436L127.992 30.6167L127.986 30.6128L127.418 31.436ZM135.446 31.4L134.914 30.5533L134.903 30.5604L135.446 31.4ZM135.806 26.36L135.292 27.2175L135.292 27.2175L135.806 26.36ZM132.278 25.82L132.232 26.8189L132.255 26.82H132.278V25.82ZM128.39 25.64L128.436 24.6411L128.086 24.6248L127.802 24.8313L128.39 25.64ZM126.77 27.152L125.938 26.5973L125.927 26.6137L125.917 26.6306L126.77 27.152ZM127.562 16.82L126.869 17.5408L126.876 17.5474L126.883 17.5538L127.562 16.82ZM133.862 16.82L133.169 16.0992L133.169 16.0992L133.862 16.82ZM127.562 10.772L128.255 11.4928L128.256 11.4923L127.562 10.772ZM131.45 33.46C128.597 33.46 126.852 33.0554 125.969 32.448L124.836 34.096C126.256 35.0726 128.543 35.46 131.45 35.46V33.46ZM125.965 32.4454C125.231 31.9454 124.71 30.9354 124.71 29.024H122.71C122.71 31.2406 123.318 33.0626 124.839 34.0986L125.965 32.4454ZM124.71 29.024C124.71 28.1835 124.894 27.5947 125.18 27.1812L123.536 26.0428C122.958 26.8773 122.71 27.8965 122.71 29.024H124.71ZM125.17 27.1963C125.513 26.7191 126.15 26.1072 127.151 25.3622L125.957 23.7578C124.894 24.5488 124.067 25.3049 123.547 26.0277L125.17 27.1963ZM127.116 23.7325C126.833 23.5405 126.546 23.1126 126.546 22.076H124.546C124.546 23.4394 124.932 24.6675 125.993 25.3875L127.116 23.7325ZM126.546 22.076C126.546 22.0877 126.545 22.0529 126.571 21.9543C126.595 21.8606 126.636 21.7345 126.701 21.5718C126.83 21.2453 127.035 20.8191 127.325 20.2855L125.568 19.3305C125.258 19.9009 125.012 20.4047 124.842 20.8342C124.682 21.2364 124.546 21.674 124.546 22.076H126.546ZM127.318 20.2983L127.642 19.7223L125.899 18.7417L125.575 19.3177L127.318 20.2983ZM127.185 18.322C125.765 17.6752 124.926 16.3159 124.926 13.796H122.926C122.926 16.7961 123.983 19.0608 126.355 20.142L127.185 18.322ZM124.926 13.796C124.926 11.9223 125.434 10.694 126.284 9.91697C127.151 9.12447 128.547 8.64 130.658 8.64V6.64C128.281 6.64 126.312 7.18152 124.934 8.44103C123.54 9.71602 122.926 11.5657 122.926 13.796H124.926ZM130.658 8.64C131.741 8.64 132.729 8.75282 133.625 8.97152L134.099 7.02848C133.028 6.76718 131.879 6.64 130.658 6.64V8.64ZM133.666 8.98058L134.206 9.08858L134.598 7.12742L134.058 7.01942L133.666 8.98058ZM134.429 9.10763L139.757 8.96363L139.703 6.96436L134.375 7.10836L134.429 9.10763ZM138.73 7.964V10.268H140.73V7.964H138.73ZM139.751 9.26822L136.331 9.19622L136.289 11.1958L139.709 11.2678L139.751 9.26822ZM135.603 10.9031C136.139 11.4389 136.498 12.3371 136.498 13.796H138.498C138.498 12.0389 138.065 10.5371 137.017 9.48889L135.603 10.9031ZM136.498 13.796C136.498 15.919 135.965 17.1337 135.177 17.7704L136.435 19.3256C137.903 18.1383 138.498 16.185 138.498 13.796H136.498ZM135.179 17.7688C134.34 18.4441 132.866 18.88 130.55 18.88V20.88C133.034 20.88 135.065 20.4279 136.433 19.3272L135.179 17.7688ZM130.55 18.88C129.95 18.88 129.423 18.8355 128.965 18.7521L128.607 20.7199C129.205 20.8285 129.854 20.88 130.55 20.88V18.88ZM127.861 19.3574C127.639 19.8979 127.466 20.3611 127.347 20.7399C127.237 21.086 127.138 21.4642 127.138 21.788H129.138C129.138 21.7998 129.147 21.68 129.254 21.3421C129.35 21.0369 129.501 20.6301 129.712 20.1146L127.861 19.3574ZM127.138 21.788C127.138 22.7012 127.432 23.6915 128.434 24.1136L129.21 22.2704C129.205 22.2682 129.21 22.27 129.217 22.2766C129.224 22.2827 129.219 22.2809 129.208 22.259C129.183 22.2071 129.138 22.0689 129.138 21.788H127.138ZM128.476 24.1303C128.864 24.273 129.468 24.3384 130.138 24.3792C130.857 24.4229 131.801 24.444 132.962 24.444V22.444C131.819 22.444 130.921 22.4231 130.26 22.3828C129.929 22.3627 129.669 22.3384 129.473 22.3115C129.376 22.2982 129.301 22.2851 129.246 22.2732C129.188 22.2608 129.166 22.2528 129.168 22.2537L128.476 24.1303ZM132.962 24.444C135.212 24.444 136.603 24.8052 137.349 25.3377L138.511 23.7103C137.241 22.8028 135.32 22.444 132.962 22.444V24.444ZM137.349 25.3377C137.955 25.7709 138.442 26.7508 138.442 28.736H140.442C140.442 26.5452 139.921 24.7171 138.511 23.7103L137.349 25.3377ZM138.442 28.736C138.442 30.3822 137.886 31.4826 136.862 32.216C135.776 32.9936 134.025 33.46 131.45 33.46V35.46C134.203 35.46 136.448 34.9724 138.026 33.842C139.666 32.6674 140.442 30.9058 140.442 28.736H138.442ZM125.374 28.808C125.374 30.2345 125.766 31.5117 126.85 32.2592L127.986 30.6128C127.678 30.4003 127.374 29.9255 127.374 28.808H125.374ZM126.845 32.2552C127.84 32.9521 129.431 33.192 131.342 33.192V31.192C129.462 31.192 128.436 30.9279 127.992 30.6168L126.845 32.2552ZM131.342 33.192C133.299 33.192 134.917 32.9332 135.989 32.2396L134.903 30.5604C134.343 30.9228 133.225 31.192 131.342 31.192V33.192ZM135.978 32.2466C137.186 31.4875 137.706 30.2265 137.706 28.736H135.706C135.706 29.7415 135.386 30.2565 134.914 30.5534L135.978 32.2466ZM137.706 28.736C137.706 27.4261 137.395 26.1472 136.321 25.5025L135.292 27.2175C135.417 27.2928 135.706 27.5979 135.706 28.736H137.706ZM136.321 25.5025C135.858 25.2247 135.265 25.0643 134.625 24.9665C133.97 24.8662 133.184 24.82 132.278 24.82V26.82C133.125 26.82 133.802 26.8638 134.323 26.9435C134.86 27.0257 135.155 27.1353 135.292 27.2175L136.321 25.5025ZM132.324 24.8211L128.436 24.6411L128.344 26.6389L132.232 26.8189L132.324 24.8211ZM127.802 24.8313C126.984 25.4265 126.327 26.0145 125.938 26.5973L127.602 27.7067C127.79 27.4255 128.213 27.0055 128.978 26.4487L127.802 24.8313ZM125.917 26.6306C125.53 27.263 125.374 28.0106 125.374 28.808H127.374C127.374 28.2614 127.482 27.905 127.623 27.6735L125.917 26.6306ZM125.626 13.796C125.626 15.3182 125.955 16.662 126.869 17.5408L128.255 16.0992C127.921 15.778 127.626 15.1058 127.626 13.796H125.626ZM126.883 17.5538C127.805 18.4072 129.17 18.72 130.73 18.72V16.72C129.363 16.72 128.616 16.4328 128.242 16.0862L126.883 17.5538ZM130.73 18.72C132.286 18.72 133.652 18.4093 134.555 17.5408L133.169 16.0992C132.824 16.4307 132.103 16.72 130.73 16.72V18.72ZM134.555 17.5408C135.469 16.662 135.798 15.3182 135.798 13.796H133.798C133.798 15.1058 133.503 15.778 133.169 16.0992L134.555 17.5408ZM135.798 13.796C135.798 12.2558 135.472 10.8965 134.555 10.0152L133.169 11.4568C133.5 11.7755 133.798 12.4562 133.798 13.796H135.798ZM134.555 10.0152C133.652 9.14666 132.286 8.836 130.73 8.836V10.836C132.103 10.836 132.824 11.1253 133.169 11.4568L134.555 10.0152ZM130.73 8.836C129.162 8.836 127.79 9.16406 126.869 10.0517L128.256 11.4923C128.63 11.1319 129.371 10.836 130.73 10.836V8.836ZM126.869 10.0512C125.955 10.93 125.626 12.2738 125.626 13.796H127.626C127.626 12.4862 127.921 11.814 128.255 11.4928L126.869 10.0512Z" fill="black" mask="url(#path-1-outside-1_448_2)"/>
</svg>
