<svg width="207" height="35" viewBox="0 0 207 35" fill="none" xmlns="http://www.w3.org/2000/svg">
<mask id="path-1-outside-1_449_4" maskUnits="userSpaceOnUse" x="-1" y="-1" width="209" height="37" fill="black">
<rect fill="white" x="-1" y="-1" width="209" height="37"/>
<path d="M2.832 16.46V26H0.06V1.088H9.276C11.916 1.088 13.896 1.7 15.216 2.924C16.56 4.148 17.232 6.056 17.232 8.648C17.232 12.488 15.708 14.9 12.66 15.884L17.448 26H14.388L9.888 16.46H2.832ZM9.312 14.012C12.696 14.012 14.388 12.272 14.388 8.792C14.388 5.288 12.684 3.536 9.276 3.536H2.832V14.012H9.312ZM33.6992 23.768L34.7432 23.66L34.8152 25.784C32.0792 26.168 29.7392 26.36 27.7952 26.36C25.2032 26.36 23.3672 25.616 22.2872 24.128C21.2072 22.616 20.6672 20.276 20.6672 17.108C20.6672 10.796 23.1752 7.64 28.1912 7.64C30.6152 7.64 32.4272 8.324 33.6272 9.692C34.8272 11.036 35.4272 13.16 35.4272 16.064L35.2832 18.116H23.4032C23.4032 20.108 23.7632 21.584 24.4832 22.544C25.2032 23.504 26.4512 23.984 28.2272 23.984C30.0272 23.984 31.8512 23.912 33.6992 23.768ZM32.7272 15.956C32.7272 13.748 32.3672 12.188 31.6472 11.276C30.9512 10.364 29.7992 9.908 28.1912 9.908C26.6072 9.908 25.4072 10.388 24.5912 11.348C23.7992 12.308 23.3912 13.844 23.3672 15.956H32.7272ZM46.583 34.46C43.703 34.46 41.687 34.064 40.535 33.272C39.407 32.504 38.843 31.088 38.843 29.024C38.843 28.04 39.059 27.236 39.491 26.612C39.923 26.012 40.655 25.328 41.687 24.56C41.015 24.104 40.679 23.276 40.679 22.076C40.679 21.668 40.979 20.912 41.579 19.808L41.903 19.232C40.007 18.368 39.059 16.556 39.059 13.796C39.059 9.692 41.303 7.64 45.791 7.64C46.943 7.64 48.011 7.76 48.995 8L49.535 8.108L54.863 7.964V10.268L51.443 10.196C52.235 10.988 52.631 12.188 52.631 13.796C52.631 16.052 52.067 17.636 50.939 18.548C49.835 19.436 48.083 19.88 45.683 19.88C45.035 19.88 44.447 19.832 43.919 19.736C43.487 20.792 43.271 21.476 43.271 21.788C43.271 22.532 43.499 23 43.955 23.192C44.411 23.36 45.791 23.444 48.095 23.444C50.399 23.444 52.055 23.804 53.063 24.524C54.071 25.244 54.575 26.648 54.575 28.736C54.575 32.552 51.911 34.46 46.583 34.46ZM41.507 28.808C41.507 30.08 41.855 30.956 42.551 31.436C43.271 31.94 44.579 32.192 46.475 32.192C48.395 32.192 49.763 31.928 50.579 31.4C51.419 30.872 51.839 29.984 51.839 28.736C51.839 27.512 51.539 26.72 50.939 26.36C50.339 26 49.163 25.82 47.411 25.82L43.523 25.64C42.731 26.216 42.191 26.72 41.903 27.152C41.639 27.584 41.507 28.136 41.507 28.808ZM41.759 13.796C41.759 15.212 42.071 16.22 42.695 16.82C43.343 17.42 44.399 17.72 45.863 17.72C47.327 17.72 48.371 17.42 48.995 16.82C49.619 16.22 49.931 15.212 49.931 13.796C49.931 12.356 49.619 11.336 48.995 10.736C48.371 10.136 47.327 9.836 45.863 9.836C44.399 9.836 43.343 10.148 42.695 10.772C42.071 11.372 41.759 12.38 41.759 13.796ZM58.1272 26V8H60.8272V26H58.1272ZM58.1272 3.932V0.799998H60.8272V3.932H58.1272ZM71.6542 10.052C69.0382 10.052 67.7302 10.964 67.7302 12.788C67.7302 13.628 68.0302 14.228 68.6302 14.588C69.2302 14.924 70.5982 15.284 72.7342 15.668C74.8702 16.028 76.3822 16.544 77.2702 17.216C78.1582 17.888 78.6022 19.148 78.6022 20.996C78.6022 22.844 78.0022 24.2 76.8022 25.064C75.6262 25.928 73.8982 26.36 71.6182 26.36C70.1302 26.36 68.3782 26.192 66.3622 25.856L65.2822 25.676L65.4262 23.336C68.1622 23.744 70.2262 23.948 71.6182 23.948C73.0102 23.948 74.0662 23.732 74.7862 23.3C75.5302 22.844 75.9022 22.1 75.9022 21.068C75.9022 20.012 75.5902 19.304 74.9662 18.944C74.3422 18.56 72.9742 18.2 70.8622 17.864C68.7502 17.528 67.2502 17.036 66.3622 16.388C65.4742 15.74 65.0302 14.54 65.0302 12.788C65.0302 11.036 65.6422 9.74 66.8662 8.9C68.1142 8.06 69.6622 7.64 71.5102 7.64C72.9742 7.64 74.8102 7.808 77.0182 8.144L78.0262 8.324L77.9542 10.628C75.2902 10.244 73.1902 10.052 71.6542 10.052ZM92.0605 10.34H86.3365V18.944C86.3365 21.008 86.4805 22.364 86.7685 23.012C87.0805 23.66 87.8005 23.984 88.9285 23.984L92.1325 23.768L92.3125 26C90.7045 26.264 89.4805 26.396 88.6405 26.396C86.7685 26.396 85.4725 25.94 84.7525 25.028C84.0325 24.116 83.6725 22.376 83.6725 19.808V10.34H81.1165V8H83.6725V2.492H86.3365V8H92.0605V10.34ZM107.598 23.768L108.642 23.66L108.714 25.784C105.978 26.168 103.638 26.36 101.694 26.36C99.1016 26.36 97.2656 25.616 96.1856 24.128C95.1056 22.616 94.5656 20.276 94.5656 17.108C94.5656 10.796 97.0736 7.64 102.09 7.64C104.514 7.64 106.326 8.324 107.526 9.692C108.726 11.036 109.326 13.16 109.326 16.064L109.182 18.116H97.3016C97.3016 20.108 97.6616 21.584 98.3816 22.544C99.1016 23.504 100.35 23.984 102.126 23.984C103.926 23.984 105.75 23.912 107.598 23.768ZM106.626 15.956C106.626 13.748 106.266 12.188 105.546 11.276C104.85 10.364 103.698 9.908 102.09 9.908C100.506 9.908 99.3056 10.388 98.4896 11.348C97.6976 12.308 97.2896 13.844 97.2656 15.956H106.626ZM113.533 26V8H116.197V10.448C118.285 9.008 120.481 8.06 122.785 7.604V10.34C121.777 10.532 120.721 10.832 119.617 11.24C118.537 11.648 117.709 12.008 117.133 12.32L116.233 12.788V26H113.533ZM141.233 3.14C137.633 3.14 135.833 4.496 135.833 7.208C135.833 8.72 136.241 9.764 137.057 10.34C137.897 10.892 139.577 11.456 142.097 12.032C144.641 12.584 146.441 13.316 147.497 14.228C148.553 15.116 149.081 16.592 149.081 18.656C149.081 23.768 146.429 26.324 141.125 26.324C139.373 26.324 137.177 26.12 134.537 25.712L133.241 25.532L133.529 23.228C136.793 23.66 139.277 23.876 140.981 23.876C144.533 23.876 146.309 22.208 146.309 18.872C146.309 17.528 145.913 16.568 145.121 15.992C144.353 15.392 142.901 14.888 140.765 14.48C137.957 13.88 135.965 13.112 134.789 12.176C133.613 11.216 133.025 9.62 133.025 7.388C133.025 2.924 135.701 0.692 141.053 0.692C142.805 0.692 144.905 0.872 147.353 1.232L148.577 1.412L148.325 3.752C144.989 3.344 142.625 3.14 141.233 3.14ZM152.609 16.964C152.609 13.676 153.197 11.3 154.373 9.836C155.549 8.372 157.529 7.64 160.313 7.64C163.121 7.64 165.101 8.372 166.253 9.836C167.429 11.3 168.017 13.676 168.017 16.964C168.017 20.252 167.465 22.64 166.361 24.128C165.257 25.616 163.241 26.36 160.313 26.36C157.385 26.36 155.369 25.616 154.265 24.128C153.161 22.64 152.609 20.252 152.609 16.964ZM155.381 16.928C155.381 19.544 155.693 21.38 156.317 22.436C156.965 23.492 158.297 24.02 160.313 24.02C162.353 24.02 163.685 23.504 164.309 22.472C164.933 21.416 165.245 19.568 165.245 16.928C165.245 14.288 164.897 12.476 164.201 11.492C163.505 10.484 162.209 9.98 160.313 9.98C158.441 9.98 157.145 10.484 156.425 11.492C155.729 12.476 155.381 14.288 155.381 16.928ZM175.12 26H172.42V8H175.084V9.26C177.028 8.18 178.888 7.64 180.664 7.64C183.064 7.64 184.672 8.288 185.488 9.584C186.328 10.88 186.748 13.184 186.748 16.496V26H184.084V16.568C184.084 14.072 183.832 12.368 183.328 11.456C182.848 10.52 181.804 10.052 180.196 10.052C179.428 10.052 178.612 10.172 177.748 10.412C176.908 10.628 176.26 10.844 175.804 11.06L175.12 11.384V26ZM198.704 34.46C195.824 34.46 193.808 34.064 192.656 33.272C191.528 32.504 190.964 31.088 190.964 29.024C190.964 28.04 191.18 27.236 191.612 26.612C192.044 26.012 192.776 25.328 193.808 24.56C193.136 24.104 192.8 23.276 192.8 22.076C192.8 21.668 193.1 20.912 193.7 19.808L194.024 19.232C192.128 18.368 191.18 16.556 191.18 13.796C191.18 9.692 193.424 7.64 197.912 7.64C199.064 7.64 200.132 7.76 201.116 8L201.656 8.108L206.984 7.964V10.268L203.564 10.196C204.356 10.988 204.752 12.188 204.752 13.796C204.752 16.052 204.188 17.636 203.06 18.548C201.956 19.436 200.204 19.88 197.804 19.88C197.156 19.88 196.568 19.832 196.04 19.736C195.608 20.792 195.392 21.476 195.392 21.788C195.392 22.532 195.62 23 196.076 23.192C196.532 23.36 197.912 23.444 200.216 23.444C202.52 23.444 204.176 23.804 205.184 24.524C206.192 25.244 206.696 26.648 206.696 28.736C206.696 32.552 204.032 34.46 198.704 34.46ZM193.628 28.808C193.628 30.08 193.976 30.956 194.672 31.436C195.392 31.94 196.7 32.192 198.596 32.192C200.516 32.192 201.884 31.928 202.7 31.4C203.54 30.872 203.96 29.984 203.96 28.736C203.96 27.512 203.66 26.72 203.06 26.36C202.46 26 201.284 25.82 199.532 25.82L195.644 25.64C194.852 26.216 194.312 26.72 194.024 27.152C193.76 27.584 193.628 28.136 193.628 28.808ZM193.88 13.796C193.88 15.212 194.192 16.22 194.816 16.82C195.464 17.42 196.52 17.72 197.984 17.72C199.448 17.72 200.492 17.42 201.116 16.82C201.74 16.22 202.052 15.212 202.052 13.796C202.052 12.356 201.74 11.336 201.116 10.736C200.492 10.136 199.448 9.836 197.984 9.836C196.52 9.836 195.464 10.148 194.816 10.772C194.192 11.372 193.88 12.38 193.88 13.796Z"/>
</mask>
<path d="M2.832 16.46V26H0.06V1.088H9.276C11.916 1.088 13.896 1.7 15.216 2.924C16.56 4.148 17.232 6.056 17.232 8.648C17.232 12.488 15.708 14.9 12.66 15.884L17.448 26H14.388L9.888 16.46H2.832ZM9.312 14.012C12.696 14.012 14.388 12.272 14.388 8.792C14.388 5.288 12.684 3.536 9.276 3.536H2.832V14.012H9.312ZM33.6992 23.768L34.7432 23.66L34.8152 25.784C32.0792 26.168 29.7392 26.36 27.7952 26.36C25.2032 26.36 23.3672 25.616 22.2872 24.128C21.2072 22.616 20.6672 20.276 20.6672 17.108C20.6672 10.796 23.1752 7.64 28.1912 7.64C30.6152 7.64 32.4272 8.324 33.6272 9.692C34.8272 11.036 35.4272 13.16 35.4272 16.064L35.2832 18.116H23.4032C23.4032 20.108 23.7632 21.584 24.4832 22.544C25.2032 23.504 26.4512 23.984 28.2272 23.984C30.0272 23.984 31.8512 23.912 33.6992 23.768ZM32.7272 15.956C32.7272 13.748 32.3672 12.188 31.6472 11.276C30.9512 10.364 29.7992 9.908 28.1912 9.908C26.6072 9.908 25.4072 10.388 24.5912 11.348C23.7992 12.308 23.3912 13.844 23.3672 15.956H32.7272ZM46.583 34.46C43.703 34.46 41.687 34.064 40.535 33.272C39.407 32.504 38.843 31.088 38.843 29.024C38.843 28.04 39.059 27.236 39.491 26.612C39.923 26.012 40.655 25.328 41.687 24.56C41.015 24.104 40.679 23.276 40.679 22.076C40.679 21.668 40.979 20.912 41.579 19.808L41.903 19.232C40.007 18.368 39.059 16.556 39.059 13.796C39.059 9.692 41.303 7.64 45.791 7.64C46.943 7.64 48.011 7.76 48.995 8L49.535 8.108L54.863 7.964V10.268L51.443 10.196C52.235 10.988 52.631 12.188 52.631 13.796C52.631 16.052 52.067 17.636 50.939 18.548C49.835 19.436 48.083 19.88 45.683 19.88C45.035 19.88 44.447 19.832 43.919 19.736C43.487 20.792 43.271 21.476 43.271 21.788C43.271 22.532 43.499 23 43.955 23.192C44.411 23.36 45.791 23.444 48.095 23.444C50.399 23.444 52.055 23.804 53.063 24.524C54.071 25.244 54.575 26.648 54.575 28.736C54.575 32.552 51.911 34.46 46.583 34.46ZM41.507 28.808C41.507 30.08 41.855 30.956 42.551 31.436C43.271 31.94 44.579 32.192 46.475 32.192C48.395 32.192 49.763 31.928 50.579 31.4C51.419 30.872 51.839 29.984 51.839 28.736C51.839 27.512 51.539 26.72 50.939 26.36C50.339 26 49.163 25.82 47.411 25.82L43.523 25.64C42.731 26.216 42.191 26.72 41.903 27.152C41.639 27.584 41.507 28.136 41.507 28.808ZM41.759 13.796C41.759 15.212 42.071 16.22 42.695 16.82C43.343 17.42 44.399 17.72 45.863 17.72C47.327 17.72 48.371 17.42 48.995 16.82C49.619 16.22 49.931 15.212 49.931 13.796C49.931 12.356 49.619 11.336 48.995 10.736C48.371 10.136 47.327 9.836 45.863 9.836C44.399 9.836 43.343 10.148 42.695 10.772C42.071 11.372 41.759 12.38 41.759 13.796ZM58.1272 26V8H60.8272V26H58.1272ZM58.1272 3.932V0.799998H60.8272V3.932H58.1272ZM71.6542 10.052C69.0382 10.052 67.7302 10.964 67.7302 12.788C67.7302 13.628 68.0302 14.228 68.6302 14.588C69.2302 14.924 70.5982 15.284 72.7342 15.668C74.8702 16.028 76.3822 16.544 77.2702 17.216C78.1582 17.888 78.6022 19.148 78.6022 20.996C78.6022 22.844 78.0022 24.2 76.8022 25.064C75.6262 25.928 73.8982 26.36 71.6182 26.36C70.1302 26.36 68.3782 26.192 66.3622 25.856L65.2822 25.676L65.4262 23.336C68.1622 23.744 70.2262 23.948 71.6182 23.948C73.0102 23.948 74.0662 23.732 74.7862 23.3C75.5302 22.844 75.9022 22.1 75.9022 21.068C75.9022 20.012 75.5902 19.304 74.9662 18.944C74.3422 18.56 72.9742 18.2 70.8622 17.864C68.7502 17.528 67.2502 17.036 66.3622 16.388C65.4742 15.74 65.0302 14.54 65.0302 12.788C65.0302 11.036 65.6422 9.74 66.8662 8.9C68.1142 8.06 69.6622 7.64 71.5102 7.64C72.9742 7.64 74.8102 7.808 77.0182 8.144L78.0262 8.324L77.9542 10.628C75.2902 10.244 73.1902 10.052 71.6542 10.052ZM92.0605 10.34H86.3365V18.944C86.3365 21.008 86.4805 22.364 86.7685 23.012C87.0805 23.66 87.8005 23.984 88.9285 23.984L92.1325 23.768L92.3125 26C90.7045 26.264 89.4805 26.396 88.6405 26.396C86.7685 26.396 85.4725 25.94 84.7525 25.028C84.0325 24.116 83.6725 22.376 83.6725 19.808V10.34H81.1165V8H83.6725V2.492H86.3365V8H92.0605V10.34ZM107.598 23.768L108.642 23.66L108.714 25.784C105.978 26.168 103.638 26.36 101.694 26.36C99.1016 26.36 97.2656 25.616 96.1856 24.128C95.1056 22.616 94.5656 20.276 94.5656 17.108C94.5656 10.796 97.0736 7.64 102.09 7.64C104.514 7.64 106.326 8.324 107.526 9.692C108.726 11.036 109.326 13.16 109.326 16.064L109.182 18.116H97.3016C97.3016 20.108 97.6616 21.584 98.3816 22.544C99.1016 23.504 100.35 23.984 102.126 23.984C103.926 23.984 105.75 23.912 107.598 23.768ZM106.626 15.956C106.626 13.748 106.266 12.188 105.546 11.276C104.85 10.364 103.698 9.908 102.09 9.908C100.506 9.908 99.3056 10.388 98.4896 11.348C97.6976 12.308 97.2896 13.844 97.2656 15.956H106.626ZM113.533 26V8H116.197V10.448C118.285 9.008 120.481 8.06 122.785 7.604V10.34C121.777 10.532 120.721 10.832 119.617 11.24C118.537 11.648 117.709 12.008 117.133 12.32L116.233 12.788V26H113.533ZM141.233 3.14C137.633 3.14 135.833 4.496 135.833 7.208C135.833 8.72 136.241 9.764 137.057 10.34C137.897 10.892 139.577 11.456 142.097 12.032C144.641 12.584 146.441 13.316 147.497 14.228C148.553 15.116 149.081 16.592 149.081 18.656C149.081 23.768 146.429 26.324 141.125 26.324C139.373 26.324 137.177 26.12 134.537 25.712L133.241 25.532L133.529 23.228C136.793 23.66 139.277 23.876 140.981 23.876C144.533 23.876 146.309 22.208 146.309 18.872C146.309 17.528 145.913 16.568 145.121 15.992C144.353 15.392 142.901 14.888 140.765 14.48C137.957 13.88 135.965 13.112 134.789 12.176C133.613 11.216 133.025 9.62 133.025 7.388C133.025 2.924 135.701 0.692 141.053 0.692C142.805 0.692 144.905 0.872 147.353 1.232L148.577 1.412L148.325 3.752C144.989 3.344 142.625 3.14 141.233 3.14ZM152.609 16.964C152.609 13.676 153.197 11.3 154.373 9.836C155.549 8.372 157.529 7.64 160.313 7.64C163.121 7.64 165.101 8.372 166.253 9.836C167.429 11.3 168.017 13.676 168.017 16.964C168.017 20.252 167.465 22.64 166.361 24.128C165.257 25.616 163.241 26.36 160.313 26.36C157.385 26.36 155.369 25.616 154.265 24.128C153.161 22.64 152.609 20.252 152.609 16.964ZM155.381 16.928C155.381 19.544 155.693 21.38 156.317 22.436C156.965 23.492 158.297 24.02 160.313 24.02C162.353 24.02 163.685 23.504 164.309 22.472C164.933 21.416 165.245 19.568 165.245 16.928C165.245 14.288 164.897 12.476 164.201 11.492C163.505 10.484 162.209 9.98 160.313 9.98C158.441 9.98 157.145 10.484 156.425 11.492C155.729 12.476 155.381 14.288 155.381 16.928ZM175.12 26H172.42V8H175.084V9.26C177.028 8.18 178.888 7.64 180.664 7.64C183.064 7.64 184.672 8.288 185.488 9.584C186.328 10.88 186.748 13.184 186.748 16.496V26H184.084V16.568C184.084 14.072 183.832 12.368 183.328 11.456C182.848 10.52 181.804 10.052 180.196 10.052C179.428 10.052 178.612 10.172 177.748 10.412C176.908 10.628 176.26 10.844 175.804 11.06L175.12 11.384V26ZM198.704 34.46C195.824 34.46 193.808 34.064 192.656 33.272C191.528 32.504 190.964 31.088 190.964 29.024C190.964 28.04 191.18 27.236 191.612 26.612C192.044 26.012 192.776 25.328 193.808 24.56C193.136 24.104 192.8 23.276 192.8 22.076C192.8 21.668 193.1 20.912 193.7 19.808L194.024 19.232C192.128 18.368 191.18 16.556 191.18 13.796C191.18 9.692 193.424 7.64 197.912 7.64C199.064 7.64 200.132 7.76 201.116 8L201.656 8.108L206.984 7.964V10.268L203.564 10.196C204.356 10.988 204.752 12.188 204.752 13.796C204.752 16.052 204.188 17.636 203.06 18.548C201.956 19.436 200.204 19.88 197.804 19.88C197.156 19.88 196.568 19.832 196.04 19.736C195.608 20.792 195.392 21.476 195.392 21.788C195.392 22.532 195.62 23 196.076 23.192C196.532 23.36 197.912 23.444 200.216 23.444C202.52 23.444 204.176 23.804 205.184 24.524C206.192 25.244 206.696 26.648 206.696 28.736C206.696 32.552 204.032 34.46 198.704 34.46ZM193.628 28.808C193.628 30.08 193.976 30.956 194.672 31.436C195.392 31.94 196.7 32.192 198.596 32.192C200.516 32.192 201.884 31.928 202.7 31.4C203.54 30.872 203.96 29.984 203.96 28.736C203.96 27.512 203.66 26.72 203.06 26.36C202.46 26 201.284 25.82 199.532 25.82L195.644 25.64C194.852 26.216 194.312 26.72 194.024 27.152C193.76 27.584 193.628 28.136 193.628 28.808ZM193.88 13.796C193.88 15.212 194.192 16.22 194.816 16.82C195.464 17.42 196.52 17.72 197.984 17.72C199.448 17.72 200.492 17.42 201.116 16.82C201.74 16.22 202.052 15.212 202.052 13.796C202.052 12.356 201.74 11.336 201.116 10.736C200.492 10.136 199.448 9.836 197.984 9.836C196.52 9.836 195.464 10.148 194.816 10.772C194.192 11.372 193.88 12.38 193.88 13.796Z" fill="#666666"/>
<path d="M2.832 16.46V15.46H1.832V16.46H2.832ZM2.832 26V27H3.832V26H2.832ZM0.06 26H-0.94V27H0.06V26ZM0.06 1.088V0.0879989H-0.94V1.088H0.06ZM15.216 2.924L14.536 3.6573L14.5427 3.66334L15.216 2.924ZM12.66 15.884L12.3528 14.9324L11.2689 15.2823L11.7561 16.3118L12.66 15.884ZM17.448 26V27H19.0277L18.3519 25.5722L17.448 26ZM14.388 26L13.4836 26.4266L13.754 27H14.388V26ZM9.888 16.46L10.7924 16.0334L10.522 15.46H9.888V16.46ZM2.832 3.536V2.536H1.832V3.536H2.832ZM2.832 14.012H1.832V15.012H2.832V14.012ZM1.832 16.46V26H3.832V16.46H1.832ZM2.832 25H0.06V27H2.832V25ZM1.06 26V1.088H-0.94V26H1.06ZM0.06 2.088H9.276V0.0879989H0.06V2.088ZM9.276 2.088C11.7798 2.088 13.4713 2.66998 14.5361 3.65727L15.8959 2.19073C14.3207 0.730015 12.0522 0.0879989 9.276 0.0879989V2.088ZM14.5427 3.66334C15.6026 4.62859 16.232 6.21482 16.232 8.648H18.232C18.232 5.89717 17.5174 3.66741 15.8893 2.18466L14.5427 3.66334ZM16.232 8.648C16.232 10.4425 15.8753 11.803 15.2436 12.8028C14.622 13.7866 13.6831 14.5029 12.3528 14.9324L12.9672 16.8356C14.6849 16.2811 16.032 15.2994 16.9344 13.8712C17.8267 12.4589 18.232 10.6935 18.232 8.648H16.232ZM11.7561 16.3118L16.5441 26.4278L18.3519 25.5722L13.5639 15.4562L11.7561 16.3118ZM17.448 25H14.388V27H17.448V25ZM15.2924 25.5734L10.7924 16.0334L8.98357 16.8866L13.4836 26.4266L15.2924 25.5734ZM9.888 15.46H2.832V17.46H9.888V15.46ZM9.312 15.012C11.1654 15.012 12.7374 14.5339 13.8359 13.4041C14.9294 12.2796 15.388 10.6792 15.388 8.792H13.388C13.388 10.3848 13.0006 11.3944 12.4021 12.0099C11.8086 12.6201 10.8426 13.012 9.312 13.012V15.012ZM15.388 8.792C15.388 6.89271 14.9264 5.2833 13.8269 4.15278C12.7223 3.01711 11.1413 2.536 9.276 2.536V4.536C10.8187 4.536 11.7937 4.93089 12.3931 5.54722C12.9976 6.1687 13.388 7.18728 13.388 8.792H15.388ZM9.276 2.536H2.832V4.536H9.276V2.536ZM1.832 3.536V14.012H3.832V3.536H1.832ZM2.832 15.012H9.312V13.012H2.832V15.012ZM33.6992 23.768L33.7769 24.765L33.7895 24.764L33.8021 24.7627L33.6992 23.768ZM34.7432 23.66L35.7426 23.6261L35.7063 22.555L34.6403 22.6653L34.7432 23.66ZM34.8152 25.784L34.9542 26.7743L35.8451 26.6493L35.8146 25.7501L34.8152 25.784ZM22.2872 24.128L21.4734 24.7093L21.4779 24.7154L22.2872 24.128ZM33.6272 9.692L32.8754 10.3515L32.8813 10.358L33.6272 9.692ZM35.4272 16.064L36.4247 16.134L36.4272 16.099V16.064H35.4272ZM35.2832 18.116V19.116H36.2155L36.2807 18.186L35.2832 18.116ZM23.4032 18.116V17.116H22.4032V18.116H23.4032ZM24.4832 22.544L23.6832 23.144L23.6832 23.144L24.4832 22.544ZM32.7272 15.956V16.956H33.7272V15.956H32.7272ZM31.6472 11.276L30.8522 11.8827L30.8572 11.8892L30.8623 11.8956L31.6472 11.276ZM24.5912 11.348L23.8292 10.7004L23.8245 10.7059L23.8198 10.7116L24.5912 11.348ZM23.3672 15.956L22.3673 15.9446L22.3558 16.956H23.3672V15.956ZM33.8021 24.7627L34.8461 24.6547L34.6403 22.6653L33.5963 22.7733L33.8021 24.7627ZM33.7438 23.6939L33.8158 25.8179L35.8146 25.7501L35.7426 23.6261L33.7438 23.6939ZM34.6762 24.7937C31.9688 25.1737 29.6779 25.36 27.7952 25.36V27.36C29.8005 27.36 32.1896 27.1623 34.9542 26.7743L34.6762 24.7937ZM27.7952 25.36C25.3832 25.36 23.9189 24.6737 23.0965 23.5406L21.4779 24.7154C22.8155 26.5583 25.0231 27.36 27.7952 27.36V25.36ZM23.1009 23.5468C22.201 22.2869 21.6672 20.1993 21.6672 17.108H19.6672C19.6672 20.3527 20.2134 22.9451 21.4735 24.7092L23.1009 23.5468ZM21.6672 17.108C21.6672 14.0577 22.2777 11.9548 23.3311 10.6291C24.3497 9.34738 25.9062 8.64 28.1912 8.64V6.64C25.4602 6.64 23.2547 7.51062 21.7653 9.38485C20.3107 11.2152 19.6672 13.8463 19.6672 17.108H21.6672ZM28.1912 8.64C30.4282 8.64 31.923 9.26569 32.8754 10.3514L34.3789 9.03256C32.9314 7.38231 30.8022 6.64 28.1912 6.64V8.64ZM32.8813 10.358C33.8429 11.4351 34.4272 13.2638 34.4272 16.064H36.4272C36.4272 13.0562 35.8114 10.6369 34.3731 9.02598L32.8813 10.358ZM34.4296 15.994L34.2856 18.046L36.2807 18.186L36.4247 16.134L34.4296 15.994ZM35.2832 17.116H23.4032V19.116H35.2832V17.116ZM22.4032 18.116C22.4032 20.1942 22.7725 21.9297 23.6832 23.144L25.2832 21.944C24.7539 21.2383 24.4032 20.0218 24.4032 18.116H22.4032ZM23.6832 23.144C24.6699 24.4596 26.2939 24.984 28.2272 24.984V22.984C26.6085 22.984 25.7365 22.5484 25.2832 21.944L23.6832 23.144ZM28.2272 24.984C30.0539 24.984 31.9038 24.9109 33.7769 24.765L33.6215 22.771C31.7986 22.9131 30.0005 22.984 28.2272 22.984V24.984ZM33.7272 15.956C33.7272 13.6978 33.3706 11.8452 32.4321 10.6564L30.8623 11.8956C31.3638 12.5308 31.7272 13.7982 31.7272 15.956H33.7272ZM32.4421 10.6693C31.4888 9.42007 29.9781 8.908 28.1912 8.908V10.908C29.6203 10.908 30.4136 11.3079 30.8522 11.8827L32.4421 10.6693ZM28.1912 8.908C26.3955 8.908 24.8825 9.46128 23.8292 10.7004L25.3531 11.9956C25.9319 11.3147 26.8189 10.908 28.1912 10.908V8.908ZM23.8198 10.7116C22.8113 11.934 22.3922 13.7493 22.3673 15.9446L24.3671 15.9674C24.3902 13.9387 24.7871 12.682 25.3626 11.9844L23.8198 10.7116ZM23.3672 16.956H32.7272V14.956H23.3672V16.956ZM40.535 33.272L41.1015 32.4479L41.0978 32.4454L40.535 33.272ZM39.491 26.612L38.6794 26.0277L38.674 26.0352L38.6688 26.0428L39.491 26.612ZM41.687 24.56L42.284 25.3622L43.4125 24.5224L42.2485 23.7325L41.687 24.56ZM41.579 19.808L40.7074 19.3177L40.7038 19.3241L40.7003 19.3305L41.579 19.808ZM41.903 19.232L42.7745 19.7223L43.3083 18.7734L42.3176 18.322L41.903 19.232ZM48.995 8L48.758 8.97152L48.7783 8.97648L48.7989 8.98058L48.995 8ZM49.535 8.108L49.3389 9.08858L49.4493 9.11068L49.562 9.10763L49.535 8.108ZM54.863 7.964H55.863V6.93661L54.836 6.96436L54.863 7.964ZM54.863 10.268L54.8419 11.2678L55.863 11.2893V10.268H54.863ZM51.443 10.196L51.464 9.19622L48.9766 9.14385L50.7359 10.9031L51.443 10.196ZM50.939 18.548L51.5657 19.3272L51.5677 19.3256L50.939 18.548ZM43.919 19.736L44.0979 18.7521L43.3003 18.6071L42.9934 19.3574L43.919 19.736ZM43.955 23.192L43.5669 24.1136L43.5879 24.1225L43.6093 24.1303L43.955 23.192ZM53.063 24.524L52.4817 25.3377L53.063 24.524ZM42.551 31.436L43.1244 30.6167L43.1187 30.6128L42.551 31.436ZM50.579 31.4L50.0468 30.5533L50.0357 30.5604L50.579 31.4ZM50.939 26.36L50.4245 27.2175L50.4245 27.2175L50.939 26.36ZM47.411 25.82L47.3647 26.8189L47.3878 26.82H47.411V25.82ZM43.523 25.64L43.5692 24.6411L43.2186 24.6248L42.9348 24.8313L43.523 25.64ZM41.903 27.152L41.0709 26.5973L41.06 26.6137L41.0497 26.6306L41.903 27.152ZM42.695 16.82L42.0019 17.5408L42.0086 17.5474L42.0156 17.5538L42.695 16.82ZM48.995 16.82L48.3019 16.0992L48.3019 16.0992L48.995 16.82ZM42.695 10.772L43.3881 11.4928L43.3886 11.4923L42.695 10.772ZM46.583 33.46C43.7301 33.46 41.985 33.0554 41.1015 32.448L39.9684 34.096C41.389 35.0726 43.6758 35.46 46.583 35.46V33.46ZM41.0978 32.4454C40.3634 31.9454 39.843 30.9354 39.843 29.024H37.843C37.843 31.2406 38.4505 33.0626 39.9722 34.0986L41.0978 32.4454ZM39.843 29.024C39.843 28.1835 40.0269 27.5947 40.3132 27.1812L38.6688 26.0428C38.091 26.8773 37.843 27.8965 37.843 29.024H39.843ZM40.3025 27.1963C40.6461 26.7191 41.283 26.1072 42.284 25.3622L41.09 23.7578C40.027 24.5488 39.1998 25.3049 38.6794 26.0277L40.3025 27.1963ZM42.2485 23.7325C41.9654 23.5405 41.679 23.1126 41.679 22.076H39.679C39.679 23.4394 40.0645 24.6675 41.1255 25.3875L42.2485 23.7325ZM41.679 22.076C41.679 22.0877 41.6782 22.0529 41.7036 21.9543C41.7277 21.8606 41.7689 21.7345 41.8335 21.5718C41.963 21.2453 42.1676 20.8191 42.4576 20.2855L40.7003 19.3305C40.3903 19.9009 40.1449 20.4047 39.9745 20.8342C39.8149 21.2364 39.679 21.674 39.679 22.076H41.679ZM42.4505 20.2983L42.7745 19.7223L41.0314 18.7417L40.7074 19.3177L42.4505 20.2983ZM42.3176 18.322C40.8982 17.6752 40.059 16.3159 40.059 13.796H38.059C38.059 16.7961 39.1157 19.0608 41.4883 20.142L42.3176 18.322ZM40.059 13.796C40.059 11.9223 40.5671 10.694 41.4168 9.91697C42.2834 9.12447 43.6801 8.64 45.791 8.64V6.64C43.4139 6.64 41.4445 7.18152 40.0671 8.44103C38.6728 9.71602 38.059 11.5657 38.059 13.796H40.059ZM45.791 8.64C46.8738 8.64 47.8613 8.75282 48.758 8.97152L49.2319 7.02848C48.1606 6.76718 47.0121 6.64 45.791 6.64V8.64ZM48.7989 8.98058L49.3389 9.08858L49.7311 7.12742L49.1911 7.01942L48.7989 8.98058ZM49.562 9.10763L54.89 8.96363L54.836 6.96436L49.508 7.10836L49.562 9.10763ZM53.863 7.964V10.268H55.863V7.964H53.863ZM54.884 9.26822L51.464 9.19622L51.4219 11.1958L54.8419 11.2678L54.884 9.26822ZM50.7359 10.9031C51.2717 11.4389 51.631 12.3371 51.631 13.796H53.631C53.631 12.0389 53.1983 10.5371 52.1501 9.48889L50.7359 10.9031ZM51.631 13.796C51.631 15.919 51.0977 17.1337 50.3102 17.7704L51.5677 19.3256C53.0362 18.1383 53.631 16.185 53.631 13.796H51.631ZM50.3122 17.7688C49.4726 18.4441 47.9992 18.88 45.683 18.88V20.88C48.1668 20.88 50.1973 20.4279 51.5657 19.3272L50.3122 17.7688ZM45.683 18.88C45.0831 18.88 44.5562 18.8355 44.0979 18.7521L43.7401 20.7199C44.3377 20.8285 44.9869 20.88 45.683 20.88V18.88ZM42.9934 19.3574C42.7723 19.8979 42.599 20.3611 42.4794 20.7399C42.3701 21.086 42.271 21.4642 42.271 21.788H44.271C44.271 21.7998 44.2799 21.68 44.3866 21.3421C44.4829 21.0369 44.6336 20.6301 44.8445 20.1146L42.9934 19.3574ZM42.271 21.788C42.271 22.7012 42.5643 23.6915 43.5669 24.1136L44.343 22.2704C44.338 22.2682 44.3432 22.27 44.3501 22.2766C44.3564 22.2827 44.3516 22.2809 44.341 22.259C44.3157 22.2071 44.271 22.0689 44.271 21.788H42.271ZM43.6093 24.1303C43.9965 24.273 44.6013 24.3384 45.2712 24.3792C45.9903 24.4229 46.9341 24.444 48.095 24.444V22.444C46.9518 22.444 46.0536 22.4231 45.3927 22.3828C45.062 22.3627 44.8018 22.3384 44.6062 22.3115C44.5088 22.2982 44.4339 22.2851 44.3785 22.2732C44.3205 22.2608 44.2984 22.2528 44.3007 22.2537L43.6093 24.1303ZM48.095 24.444C50.345 24.444 51.7362 24.8052 52.4817 25.3377L53.6442 23.7103C52.3737 22.8028 50.453 22.444 48.095 22.444V24.444ZM52.4817 25.3377C53.0882 25.7709 53.575 26.7508 53.575 28.736H55.575C55.575 26.5452 55.0537 24.7171 53.6442 23.7103L52.4817 25.3377ZM53.575 28.736C53.575 30.3822 53.0187 31.4826 51.9947 32.216C50.9091 32.9936 49.1577 33.46 46.583 33.46V35.46C49.3362 35.46 51.5809 34.9724 53.1592 33.842C54.7992 32.6674 55.575 30.9058 55.575 28.736H53.575ZM40.507 28.808C40.507 30.2345 40.8993 31.5117 41.9832 32.2592L43.1187 30.6128C42.8107 30.4003 42.507 29.9255 42.507 28.808H40.507ZM41.9775 32.2552C42.973 32.9521 44.5636 33.192 46.475 33.192V31.192C44.5944 31.192 43.5689 30.9279 43.1244 30.6168L41.9775 32.2552ZM46.475 33.192C48.4319 33.192 50.0503 32.9332 51.1222 32.2396L50.0357 30.5604C49.4756 30.9228 48.3581 31.192 46.475 31.192V33.192ZM51.1111 32.2466C52.3189 31.4875 52.839 30.2265 52.839 28.736H50.839C50.839 29.7415 50.5191 30.2565 50.0468 30.5534L51.1111 32.2466ZM52.839 28.736C52.839 27.4261 52.5279 26.1472 51.4535 25.5025L50.4245 27.2175C50.55 27.2928 50.839 27.5979 50.839 28.736H52.839ZM51.4535 25.5025C50.9904 25.2247 50.3974 25.0643 49.7583 24.9665C49.1028 24.8662 48.3163 24.82 47.411 24.82V26.82C48.2576 26.82 48.9351 26.8638 49.4557 26.9435C49.9926 27.0257 50.2876 27.1353 50.4245 27.2175L51.4535 25.5025ZM47.4572 24.8211L43.5692 24.6411L43.4767 26.6389L47.3647 26.8189L47.4572 24.8211ZM42.9348 24.8313C42.1164 25.4265 41.4594 26.0145 41.0709 26.5973L42.735 27.7067C42.9225 27.4255 43.3455 27.0055 44.1111 26.4487L42.9348 24.8313ZM41.0497 26.6306C40.6632 27.263 40.507 28.0106 40.507 28.808H42.507C42.507 28.2614 42.6148 27.905 42.7563 27.6735L41.0497 26.6306ZM40.759 13.796C40.759 15.3182 41.0879 16.662 42.0019 17.5408L43.3881 16.0992C43.054 15.778 42.759 15.1058 42.759 13.796H40.759ZM42.0156 17.5538C42.9373 18.4072 44.3023 18.72 45.863 18.72V16.72C44.4956 16.72 43.7486 16.4328 43.3744 16.0862L42.0156 17.5538ZM45.863 18.72C47.4185 18.72 48.7848 18.4093 49.6881 17.5408L48.3019 16.0992C47.9571 16.4307 47.2354 16.72 45.863 16.72V18.72ZM49.6881 17.5408C50.602 16.662 50.931 15.3182 50.931 13.796H48.931C48.931 15.1058 48.6359 15.778 48.3019 16.0992L49.6881 17.5408ZM50.931 13.796C50.931 12.2558 50.6046 10.8965 49.6881 10.0152L48.3019 11.4568C48.6333 11.7755 48.931 12.4562 48.931 13.796H50.931ZM49.6881 10.0152C48.7848 9.14666 47.4185 8.836 45.863 8.836V10.836C47.2354 10.836 47.9571 11.1253 48.3019 11.4568L49.6881 10.0152ZM45.863 8.836C44.2945 8.836 42.9231 9.16406 42.0013 10.0517L43.3886 11.4923C43.7629 11.1319 44.5035 10.836 45.863 10.836V8.836ZM42.0019 10.0512C41.0879 10.93 40.759 12.2738 40.759 13.796H42.759C42.759 12.4862 43.054 11.814 43.3881 11.4928L42.0019 10.0512ZM58.1272 26H57.1272V27H58.1272V26ZM58.1272 8V7H57.1272V8H58.1272ZM60.8272 8H61.8272V7H60.8272V8ZM60.8272 26V27H61.8272V26H60.8272ZM58.1272 3.932H57.1272V4.932H58.1272V3.932ZM58.1272 0.799998V-0.200002H57.1272V0.799998H58.1272ZM60.8272 0.799998H61.8272V-0.200002H60.8272V0.799998ZM60.8272 3.932V4.932H61.8272V3.932H60.8272ZM59.1272 26V8H57.1272V26H59.1272ZM58.1272 9H60.8272V7H58.1272V9ZM59.8272 8V26H61.8272V8H59.8272ZM60.8272 25H58.1272V27H60.8272V25ZM59.1272 3.932V0.799998H57.1272V3.932H59.1272ZM58.1272 1.8H60.8272V-0.200002H58.1272V1.8ZM59.8272 0.799998V3.932H61.8272V0.799998H59.8272ZM60.8272 2.932H58.1272V4.932H60.8272V2.932ZM68.6302 14.588L68.1157 15.4455L68.1285 15.4532L68.1416 15.4605L68.6302 14.588ZM72.7342 15.668L72.5572 16.6523L72.568 16.6541L72.7342 15.668ZM77.2702 17.216L77.8736 16.4186L77.8736 16.4186L77.2702 17.216ZM76.8022 25.064L76.2178 24.2524L76.2101 24.2581L76.8022 25.064ZM66.3622 25.856L66.1978 26.8424L66.3622 25.856ZM65.2822 25.676L64.284 25.6146L64.2287 26.5142L65.1178 26.6624L65.2822 25.676ZM65.4262 23.336L65.5736 22.3469L64.495 22.1861L64.428 23.2746L65.4262 23.336ZM74.7862 23.3L75.3007 24.1575L75.3087 24.1526L74.7862 23.3ZM74.9662 18.944L74.4421 19.7957L74.4541 19.8031L74.4664 19.8102L74.9662 18.944ZM70.8622 17.864L71.0193 16.8764L71.0193 16.8764L70.8622 17.864ZM66.3622 16.388L66.9516 15.5802L66.9516 15.5802L66.3622 16.388ZM66.8662 8.9L66.3078 8.07038L66.3003 8.07549L66.8662 8.9ZM77.0182 8.144L77.1939 7.15957L77.1813 7.15731L77.1686 7.15538L77.0182 8.144ZM78.0262 8.324L79.0257 8.35523L79.0527 7.49148L78.2019 7.33957L78.0262 8.324ZM77.9542 10.628L77.8115 11.6178L78.9187 11.7774L78.9537 10.6592L77.9542 10.628ZM71.6542 9.052C70.2607 9.052 69.0376 9.28933 68.1392 9.91571C67.1753 10.5878 66.7302 11.6034 66.7302 12.788H68.7302C68.7302 12.1486 68.939 11.7962 69.2831 11.5563C69.6927 11.2707 70.4316 11.052 71.6542 11.052V9.052ZM66.7302 12.788C66.7302 13.8967 67.1498 14.866 68.1157 15.4455L69.1447 13.7305C68.9105 13.59 68.7302 13.3593 68.7302 12.788H66.7302ZM68.1416 15.4605C68.5579 15.6937 69.153 15.8932 69.8517 16.0771C70.5709 16.2664 71.4753 16.4577 72.5572 16.6522L72.9111 14.6838C71.857 14.4943 71.0094 14.3136 70.3606 14.1429C69.6914 13.9668 69.3024 13.8183 69.1188 13.7155L68.1416 15.4605ZM72.568 16.6541C74.6683 17.0081 75.9792 17.4932 76.6667 18.0134L77.8736 16.4186C76.7851 15.5948 75.072 15.0479 72.9004 14.6819L72.568 16.6541ZM76.6667 18.0134C77.1776 18.4 77.6022 19.2565 77.6022 20.996H79.6022C79.6022 19.0395 79.1388 17.376 77.8736 16.4186L76.6667 18.0134ZM77.6022 20.996C77.6022 22.6122 77.0917 23.6233 76.2179 24.2525L77.3865 25.8755C78.9127 24.7767 79.6022 23.0758 79.6022 20.996H77.6022ZM76.2101 24.2581C75.278 24.9429 73.7969 25.36 71.6182 25.36V27.36C73.9994 27.36 75.9743 26.9131 77.3942 25.8699L76.2101 24.2581ZM71.6182 25.36C70.2013 25.36 68.5068 25.1996 66.5266 24.8696L66.1978 26.8424C68.2495 27.1844 70.059 27.36 71.6182 27.36V25.36ZM66.5266 24.8696L65.4466 24.6896L65.1178 26.6624L66.1978 26.8424L66.5266 24.8696ZM66.2803 25.7374L66.4243 23.3974L64.428 23.2746L64.284 25.6146L66.2803 25.7374ZM65.2787 24.3251C68.0257 24.7347 70.1494 24.948 71.6182 24.948V22.948C70.3029 22.948 68.2986 22.7533 65.5736 22.3469L65.2787 24.3251ZM71.6182 24.948C73.0851 24.948 74.3541 24.7254 75.3007 24.1575L74.2717 22.4425C73.7782 22.7386 72.9352 22.948 71.6182 22.948V24.948ZM75.3087 24.1526C76.4078 23.479 76.9022 22.3734 76.9022 21.068H74.9022C74.9022 21.8266 74.6525 22.209 74.2636 22.4474L75.3087 24.1526ZM76.9022 21.068C76.9022 19.8374 76.5305 18.692 75.4659 18.0778L74.4664 19.8102C74.6498 19.916 74.9022 20.1866 74.9022 21.068H76.9022ZM75.4903 18.0923C75.0491 17.8209 74.4347 17.6052 73.7267 17.4189C72.9988 17.2274 72.0933 17.0473 71.0193 16.8764L70.705 18.8516C71.743 19.0167 72.5775 19.1846 73.2177 19.3531C73.8776 19.5268 74.2592 19.6831 74.4421 19.7957L75.4903 18.0923ZM71.0193 16.8764C68.9425 16.546 67.6401 16.0826 66.9516 15.5802L65.7727 17.1958C66.8602 17.9894 68.5578 18.51 70.705 18.8516L71.0193 16.8764ZM66.9516 15.5802C66.4453 15.2107 66.0302 14.4132 66.0302 12.788H64.0302C64.0302 14.6668 64.503 16.2693 65.7727 17.1958L66.9516 15.5802ZM66.0302 12.788C66.0302 11.2974 66.5315 10.3425 67.432 9.72451L66.3003 8.07549C64.7528 9.13752 64.0302 10.7746 64.0302 12.788H66.0302ZM67.4245 9.72959C68.4732 9.02376 69.8153 8.64 71.5102 8.64V6.64C69.509 6.64 67.7551 7.09624 66.3078 8.07041L67.4245 9.72959ZM71.5102 8.64C72.9049 8.64 74.6865 8.8007 76.8677 9.13262L77.1686 7.15538C74.9338 6.8153 73.0434 6.64 71.5102 6.64V8.64ZM76.8424 9.12843L77.8504 9.30843L78.2019 7.33957L77.1939 7.15957L76.8424 9.12843ZM77.0266 8.29276L76.9546 10.5968L78.9537 10.6592L79.0257 8.35523L77.0266 8.29276ZM78.0968 9.63823C75.415 9.25167 73.2605 9.052 71.6542 9.052V11.052C73.1198 11.052 75.1653 11.2363 77.8115 11.6178L78.0968 9.63823ZM92.0605 10.34V11.34H93.0605V10.34H92.0605ZM86.3365 10.34V9.34H85.3365V10.34H86.3365ZM86.7685 23.012L85.8547 23.4181L85.8609 23.4321L85.8675 23.4458L86.7685 23.012ZM88.9285 23.984V24.984H88.9622L88.9958 24.9817L88.9285 23.984ZM92.1325 23.768L93.1293 23.6876L93.05 22.7039L92.0653 22.7703L92.1325 23.768ZM92.3125 26L92.4745 26.9868L93.3833 26.8376L93.3093 25.9196L92.3125 26ZM84.7525 25.028L83.9676 25.6476L83.9676 25.6476L84.7525 25.028ZM83.6725 10.34H84.6725V9.34H83.6725V10.34ZM81.1165 10.34H80.1165V11.34H81.1165V10.34ZM81.1165 8V7H80.1165V8H81.1165ZM83.6725 8V9H84.6725V8H83.6725ZM83.6725 2.492V1.492H82.6725V2.492H83.6725ZM86.3365 2.492H87.3365V1.492H86.3365V2.492ZM86.3365 8H85.3365V9H86.3365V8ZM92.0605 8H93.0605V7H92.0605V8ZM92.0605 9.34H86.3365V11.34H92.0605V9.34ZM85.3365 10.34V18.944H87.3365V10.34H85.3365ZM85.3365 18.944C85.3365 19.9954 85.373 20.8886 85.4501 21.6146C85.5249 22.3192 85.6454 22.9472 85.8547 23.4181L87.6823 22.6059C87.6037 22.4288 87.5081 22.0548 87.4389 21.4034C87.372 20.7734 87.3365 19.9566 87.3365 18.944H85.3365ZM85.8675 23.4458C86.4299 24.6139 87.6572 24.984 88.9285 24.984V22.984C87.9439 22.984 87.7311 22.7061 87.6695 22.5782L85.8675 23.4458ZM88.9958 24.9817L92.1998 24.7657L92.0653 22.7703L88.8613 22.9863L88.9958 24.9817ZM91.1358 23.8484L91.3158 26.0804L93.3093 25.9196L93.1293 23.6876L91.1358 23.8484ZM92.1505 25.0132C90.5562 25.275 89.397 25.396 88.6405 25.396V27.396C89.5641 27.396 90.8529 27.253 92.4745 26.9868L92.1505 25.0132ZM88.6405 25.396C86.8881 25.396 85.9764 24.9644 85.5374 24.4084L83.9676 25.6476C84.9687 26.9156 86.6489 27.396 88.6405 27.396V25.396ZM85.5374 24.4084C85.3113 24.1219 85.0854 23.6274 84.9218 22.8364C84.7602 22.0553 84.6725 21.0512 84.6725 19.808H82.6725C82.6725 21.1328 82.7649 22.2827 82.9633 23.2416C83.1596 24.1906 83.4738 25.0221 83.9676 25.6476L85.5374 24.4084ZM84.6725 19.808V10.34H82.6725V19.808H84.6725ZM83.6725 9.34H81.1165V11.34H83.6725V9.34ZM82.1165 10.34V8H80.1165V10.34H82.1165ZM81.1165 9H83.6725V7H81.1165V9ZM84.6725 8V2.492H82.6725V8H84.6725ZM83.6725 3.492H86.3365V1.492H83.6725V3.492ZM85.3365 2.492V8H87.3365V2.492H85.3365ZM86.3365 9H92.0605V7H86.3365V9ZM91.0605 8V10.34H93.0605V8H91.0605ZM107.598 23.768L107.675 24.765L107.688 24.764L107.701 24.7627L107.598 23.768ZM108.642 23.66L109.641 23.6261L109.605 22.555L108.539 22.6653L108.642 23.66ZM108.714 25.784L108.853 26.7743L109.744 26.6493L109.713 25.7501L108.714 25.784ZM96.1856 24.128L95.3719 24.7093L95.3763 24.7154L96.1856 24.128ZM107.526 9.692L106.774 10.3515L106.78 10.358L107.526 9.692ZM109.326 16.064L110.323 16.134L110.326 16.099V16.064H109.326ZM109.182 18.116V19.116H110.114L110.179 18.186L109.182 18.116ZM97.3016 18.116V17.116H96.3016V18.116H97.3016ZM98.3816 22.544L97.5816 23.144L97.5816 23.144L98.3816 22.544ZM106.626 15.956V16.956H107.626V15.956H106.626ZM105.546 11.276L104.751 11.8827L104.756 11.8892L104.761 11.8956L105.546 11.276ZM98.4896 11.348L97.7277 10.7004L97.7229 10.7059L97.7183 10.7116L98.4896 11.348ZM97.2656 15.956L96.2657 15.9446L96.2542 16.956H97.2656V15.956ZM107.701 24.7627L108.745 24.6547L108.539 22.6653L107.495 22.7733L107.701 24.7627ZM107.642 23.6939L107.714 25.8179L109.713 25.7501L109.641 23.6261L107.642 23.6939ZM108.575 24.7937C105.867 25.1737 103.576 25.36 101.694 25.36V27.36C103.699 27.36 106.088 27.1623 108.853 26.7743L108.575 24.7937ZM101.694 25.36C99.2817 25.36 97.8173 24.6737 96.9949 23.5406L95.3763 24.7154C96.7139 26.5583 98.9216 27.36 101.694 27.36V25.36ZM96.9994 23.5468C96.0994 22.2869 95.5656 20.1993 95.5656 17.108H93.5656C93.5656 20.3527 94.1118 22.9451 95.3719 24.7092L96.9994 23.5468ZM95.5656 17.108C95.5656 14.0577 96.1761 11.9548 97.2295 10.6291C98.2481 9.34738 99.8047 8.64 102.09 8.64V6.64C99.3586 6.64 97.1531 7.51062 95.6637 9.38485C94.2092 11.2152 93.5656 13.8463 93.5656 17.108H95.5656ZM102.09 8.64C104.327 8.64 105.821 9.26569 106.774 10.3514L108.277 9.03256C106.83 7.38231 104.701 6.64 102.09 6.64V8.64ZM106.78 10.358C107.741 11.4351 108.326 13.2638 108.326 16.064H110.326C110.326 13.0562 109.71 10.6369 108.272 9.02598L106.78 10.358ZM108.328 15.994L108.184 18.046L110.179 18.186L110.323 16.134L108.328 15.994ZM109.182 17.116H97.3016V19.116H109.182V17.116ZM96.3016 18.116C96.3016 20.1942 96.6709 21.9297 97.5816 23.144L99.1816 21.944C98.6523 21.2383 98.3016 20.0218 98.3016 18.116H96.3016ZM97.5816 23.144C98.5683 24.4596 100.192 24.984 102.126 24.984V22.984C100.507 22.984 99.6349 22.5484 99.1816 21.944L97.5816 23.144ZM102.126 24.984C103.952 24.984 105.802 24.9109 107.675 24.765L107.52 22.771C105.697 22.9131 103.899 22.984 102.126 22.984V24.984ZM107.626 15.956C107.626 13.6978 107.269 11.8452 106.331 10.6564L104.761 11.8956C105.262 12.5308 105.626 13.7982 105.626 15.956H107.626ZM106.341 10.6693C105.387 9.42007 103.877 8.908 102.09 8.908V10.908C103.519 10.908 104.312 11.3079 104.751 11.8827L106.341 10.6693ZM102.09 8.908C100.294 8.908 98.7809 9.46128 97.7277 10.7004L99.2516 11.9956C99.8304 11.3147 100.717 10.908 102.09 10.908V8.908ZM97.7183 10.7116C96.7098 11.934 96.2906 13.7493 96.2657 15.9446L98.2656 15.9674C98.2886 13.9387 98.6855 12.682 99.261 11.9844L97.7183 10.7116ZM97.2656 16.956H106.626V14.956H97.2656V16.956ZM113.533 26H112.533V27H113.533V26ZM113.533 8V7H112.533V8H113.533ZM116.197 8H117.197V7H116.197V8ZM116.197 10.448H115.197V12.3524L116.765 11.2712L116.197 10.448ZM122.785 7.604H123.785V6.38668L122.591 6.62303L122.785 7.604ZM122.785 10.34L122.973 11.3223L123.785 11.1675V10.34H122.785ZM119.617 11.24L119.271 10.302L119.264 10.3045L119.617 11.24ZM117.133 12.32L117.595 13.2072L117.602 13.2033L117.61 13.1993L117.133 12.32ZM116.233 12.788L115.772 11.9008L115.233 12.1809V12.788H116.233ZM116.233 26V27H117.233V26H116.233ZM114.533 26V8H112.533V26H114.533ZM113.533 9H116.197V7H113.533V9ZM115.197 8V10.448H117.197V8H115.197ZM116.765 11.2712C118.75 9.90249 120.82 9.01239 122.98 8.58497L122.591 6.62303C120.143 7.10761 117.821 8.11351 115.63 9.62479L116.765 11.2712ZM121.785 7.604V10.34H123.785V7.604H121.785ZM122.598 9.35766C121.529 9.56138 120.419 9.87757 119.271 10.302L119.964 12.178C121.024 11.7864 122.026 11.5026 122.973 11.3223L122.598 9.35766ZM119.264 10.3045C118.168 10.7184 117.292 11.097 116.657 11.4407L117.61 13.1993C118.127 12.919 118.906 12.5776 119.971 12.1755L119.264 10.3045ZM116.672 11.4328L115.772 11.9008L116.695 13.6752L117.595 13.2072L116.672 11.4328ZM115.233 12.788V26H117.233V12.788H115.233ZM116.233 25H113.533V27H116.233V25ZM137.057 10.34L136.48 11.157L136.494 11.1666L136.508 11.1757L137.057 10.34ZM142.097 12.032L141.874 13.0069L141.885 13.0093L142.097 12.032ZM147.497 14.228L146.843 14.9849L146.853 14.9934L147.497 14.228ZM134.537 25.712L134.69 24.7237L134.682 24.7226L134.674 24.7215L134.537 25.712ZM133.241 25.532L132.249 25.408L132.126 26.3868L133.103 26.5225L133.241 25.532ZM133.529 23.228L133.66 22.2366L132.662 22.1045L132.537 23.104L133.529 23.228ZM145.121 15.992L144.505 16.78L144.519 16.7906L144.533 16.8007L145.121 15.992ZM140.765 14.48L140.556 15.4579L140.567 15.4602L140.577 15.4622L140.765 14.48ZM134.789 12.176L134.156 12.9507L134.166 12.9584L134.789 12.176ZM147.353 1.232L147.207 2.22136L147.207 2.22136L147.353 1.232ZM148.577 1.412L149.571 1.51907L149.674 0.562605L148.722 0.42264L148.577 1.412ZM148.325 3.752L148.203 4.7446L149.21 4.86776L149.319 3.85907L148.325 3.752ZM141.233 2.14C139.336 2.14 137.731 2.4922 136.581 3.35828C135.378 4.26454 134.833 5.60967 134.833 7.208H136.833C136.833 6.09433 137.188 5.40546 137.785 4.95572C138.435 4.46579 139.53 4.14 141.233 4.14V2.14ZM134.833 7.208C134.833 8.87065 135.283 10.3117 136.48 11.157L137.634 9.52303C137.199 9.21632 136.833 8.56935 136.833 7.208H134.833ZM136.508 11.1757C137.517 11.8391 139.365 12.4334 141.874 13.0069L142.32 11.0571C139.789 10.4786 138.277 9.94492 137.606 9.50429L136.508 11.1757ZM141.885 13.0093C144.384 13.5516 145.982 14.2406 146.843 14.9848L148.15 13.4712C146.9 12.3914 144.898 11.6164 142.309 11.0547L141.885 13.0093ZM146.853 14.9934C147.59 15.6128 148.081 16.7383 148.081 18.656H150.081C150.081 16.4457 149.516 14.6192 148.14 13.4626L146.853 14.9934ZM148.081 18.656C148.081 21.0483 147.462 22.6611 146.398 23.687C145.327 24.7195 143.632 25.324 141.125 25.324V27.324C143.922 27.324 146.205 26.6505 147.786 25.127C149.373 23.5969 150.081 21.3757 150.081 18.656H148.081ZM141.125 25.324C139.443 25.324 137.302 25.1275 134.69 24.7237L134.384 26.7003C137.051 27.1125 139.303 27.324 141.125 27.324V25.324ZM134.674 24.7215L133.378 24.5415L133.103 26.5225L134.399 26.7025L134.674 24.7215ZM134.233 25.656L134.521 23.352L132.537 23.104L132.249 25.408L134.233 25.656ZM133.398 24.2194C136.673 24.6529 139.209 24.876 140.981 24.876V22.876C139.344 22.876 136.913 22.6671 133.66 22.2366L133.398 24.2194ZM140.981 24.876C142.896 24.876 144.518 24.4276 145.661 23.3539C146.816 22.2692 147.309 20.7108 147.309 18.872H145.309C145.309 20.3692 144.913 21.3128 144.292 21.8961C143.659 22.4904 142.618 22.876 140.981 22.876V24.876ZM147.309 18.872C147.309 17.3366 146.849 16.0121 145.709 15.1833L144.533 16.8007C144.977 17.1239 145.309 17.7194 145.309 18.872H147.309ZM145.737 15.204C144.763 14.4434 143.097 13.9075 140.952 13.4978L140.577 15.4622C142.704 15.8685 143.943 16.3406 144.505 16.78L145.737 15.204ZM140.974 13.5021C138.203 12.9101 136.4 12.1805 135.412 11.3936L134.166 12.9584C135.529 14.0435 137.71 14.8499 140.556 15.4579L140.974 13.5021ZM135.421 11.4013C134.571 10.7073 134.025 9.46508 134.025 7.388H132.025C132.025 9.77491 132.655 11.7247 134.156 12.9507L135.421 11.4013ZM134.025 7.388C134.025 5.36264 134.623 4.00899 135.672 3.13394C136.756 2.2299 138.491 1.692 141.053 1.692V-0.308C138.262 -0.308 135.983 0.270097 134.391 1.59806C132.764 2.95501 132.025 4.94936 132.025 7.388H134.025ZM141.053 1.692C142.741 1.692 144.79 1.8658 147.207 2.22136L147.498 0.24264C145.02 -0.121805 142.869 -0.308 141.053 -0.308V1.692ZM147.207 2.22136L148.431 2.40136L148.722 0.42264L147.498 0.24264L147.207 2.22136ZM147.583 1.30493L147.331 3.64493L149.319 3.85907L149.571 1.51907L147.583 1.30493ZM148.446 2.75939C145.11 2.35141 142.692 2.14 141.233 2.14V4.14C142.558 4.14 144.867 4.33659 148.203 4.7446L148.446 2.75939ZM154.373 9.836L155.152 10.4623L155.152 10.4623L154.373 9.836ZM166.253 9.836L165.467 10.4544L165.473 10.4623L166.253 9.836ZM166.361 24.128L167.164 24.7238L167.164 24.7238L166.361 24.128ZM154.265 24.128L153.461 24.7238L153.461 24.7238L154.265 24.128ZM156.317 22.436L155.456 22.9447L155.46 22.9519L155.464 22.959L156.317 22.436ZM164.309 22.472L165.164 22.9894L165.17 22.9807L164.309 22.472ZM164.201 11.492L163.378 12.0602L163.384 12.0695L164.201 11.492ZM156.425 11.492L155.611 10.9108L155.608 10.9145L156.425 11.492ZM153.609 16.964C153.609 13.7502 154.192 11.6577 155.152 10.4623L153.593 9.20975C152.201 10.9423 151.609 13.6018 151.609 16.964H153.609ZM155.152 10.4623C156.061 9.33113 157.681 8.64 160.313 8.64V6.64C157.376 6.64 155.036 7.41287 153.593 9.20975L155.152 10.4623ZM160.313 8.64C162.974 8.64 164.585 9.33375 165.467 10.4544L167.038 9.21761C165.616 7.41025 163.268 6.64 160.313 6.64V8.64ZM165.473 10.4623C166.433 11.6577 167.017 13.7502 167.017 16.964H169.017C169.017 13.6018 168.424 10.9423 167.032 9.20975L165.473 10.4623ZM167.017 16.964C167.017 20.1844 166.467 22.3057 165.557 23.5322L167.164 24.7238C168.462 22.9743 169.017 20.3196 169.017 16.964H167.017ZM165.557 23.5322C164.731 24.6462 163.111 25.36 160.313 25.36V27.36C163.37 27.36 165.782 26.5858 167.164 24.7238L165.557 23.5322ZM160.313 25.36C157.514 25.36 155.894 24.6462 155.068 23.5322L153.461 24.7238C154.843 26.5858 157.255 27.36 160.313 27.36V25.36ZM155.068 23.5322C154.158 22.3057 153.609 20.1844 153.609 16.964H151.609C151.609 20.3196 152.163 22.9743 153.461 24.7238L155.068 23.5322ZM154.381 16.928C154.381 19.5625 154.684 21.6387 155.456 22.9447L157.178 21.9273C156.701 21.1213 156.381 19.5255 156.381 16.928H154.381ZM155.464 22.959C156.387 24.4633 158.175 25.02 160.313 25.02V23.02C158.418 23.02 157.542 22.5207 157.169 21.913L155.464 22.959ZM160.313 25.02C162.455 25.02 164.26 24.4848 165.164 22.9894L163.453 21.9546C163.109 22.5232 162.25 23.02 160.313 23.02V25.02ZM165.17 22.9807C165.942 21.6739 166.245 19.5845 166.245 16.928H164.245C164.245 19.5515 163.923 21.1581 163.448 21.9633L165.17 22.9807ZM166.245 16.928C166.245 15.5693 166.155 14.3888 165.966 13.4004C165.778 12.4215 165.479 11.568 165.017 10.9145L163.384 12.0695C163.618 12.4 163.842 12.9445 164.002 13.7776C164.16 14.6012 164.245 15.6467 164.245 16.928H166.245ZM165.023 10.9238C164.055 9.52138 162.35 8.98 160.313 8.98V10.98C162.067 10.98 162.954 11.4466 163.378 12.0602L165.023 10.9238ZM160.313 8.98C158.29 8.98 156.6 9.52573 155.611 10.9108L157.238 12.0732C157.689 11.4423 158.591 10.98 160.313 10.98V8.98ZM155.608 10.9145C155.146 11.568 154.848 12.4215 154.66 13.4004C154.47 14.3888 154.381 15.5693 154.381 16.928H156.381C156.381 15.6467 156.465 14.6012 156.624 13.7776C156.784 12.9445 157.007 12.4 157.241 12.0695L155.608 10.9145ZM175.12 26V27H176.12V26H175.12ZM172.42 26H171.42V27H172.42V26ZM172.42 8V7H171.42V8H172.42ZM175.084 8H176.084V7H175.084V8ZM175.084 9.26H174.084V10.9595L175.57 10.1342L175.084 9.26ZM185.488 9.584L184.642 10.1169L184.649 10.1279L185.488 9.584ZM186.748 26V27H187.748V26H186.748ZM184.084 26H183.084V27H184.084V26ZM183.328 11.456L182.438 11.9123L182.445 11.9261L182.453 11.9397L183.328 11.456ZM177.748 10.412L177.997 11.3805L178.006 11.3781L178.016 11.3755L177.748 10.412ZM175.804 11.06L176.232 11.9637L176.232 11.9637L175.804 11.06ZM175.12 11.384L174.692 10.4803L174.12 10.7512V11.384H175.12ZM175.12 25H172.42V27H175.12V25ZM173.42 26V8H171.42V26H173.42ZM172.42 9H175.084V7H172.42V9ZM174.084 8V9.26H176.084V8H174.084ZM175.57 10.1342C177.402 9.1162 179.096 8.64 180.664 8.64V6.64C178.68 6.64 176.654 7.24379 174.598 8.38584L175.57 10.1342ZM180.664 8.64C182.925 8.64 184.096 9.25044 184.642 10.1168L186.334 9.05119C185.248 7.32555 183.203 6.64 180.664 6.64V8.64ZM184.649 10.1279C185.318 11.1597 185.748 13.2012 185.748 16.496H187.748C187.748 13.1668 187.339 10.6003 186.327 9.0401L184.649 10.1279ZM185.748 16.496V26H187.748V16.496H185.748ZM186.748 25H184.084V27H186.748V25ZM185.084 26V16.568H183.084V26H185.084ZM185.084 16.568C185.084 15.2907 185.02 14.1883 184.884 13.2717C184.751 12.3683 184.539 11.5793 184.203 10.9723L182.453 11.9397C182.621 12.2447 182.787 12.7637 182.906 13.5643C183.022 14.3517 183.084 15.3493 183.084 16.568H185.084ZM184.218 10.9997C183.486 9.57208 181.961 9.052 180.196 9.052V11.052C181.648 11.052 182.21 11.4679 182.438 11.9123L184.218 10.9997ZM180.196 9.052C179.324 9.052 178.417 9.18821 177.48 9.44848L178.016 11.3755C178.807 11.1558 179.532 11.052 180.196 11.052V9.052ZM177.499 9.44351C176.635 9.6658 175.916 9.90045 175.376 10.1563L176.232 11.9637C176.604 11.7875 177.182 11.5902 177.997 11.3805L177.499 9.44351ZM175.376 10.1563L174.692 10.4803L175.548 12.2877L176.232 11.9637L175.376 10.1563ZM174.12 11.384V26H176.12V11.384H174.12ZM192.656 33.272L193.223 32.4479L193.219 32.4454L192.656 33.272ZM191.612 26.612L190.801 26.0277L190.795 26.0352L190.79 26.0428L191.612 26.612ZM193.808 24.56L194.405 25.3622L195.534 24.5224L194.37 23.7325L193.808 24.56ZM193.7 19.808L192.828 19.3177L192.825 19.3241L192.821 19.3305L193.7 19.808ZM194.024 19.232L194.896 19.7223L195.429 18.7734L194.439 18.322L194.024 19.232ZM201.116 8L200.879 8.97152L200.899 8.97648L200.92 8.98058L201.116 8ZM201.656 8.108L201.46 9.08858L201.57 9.11068L201.683 9.10763L201.656 8.108ZM206.984 7.964H207.984V6.93661L206.957 6.96436L206.984 7.964ZM206.984 10.268L206.963 11.2678L207.984 11.2893V10.268H206.984ZM203.564 10.196L203.585 9.19622L201.098 9.14385L202.857 10.9031L203.564 10.196ZM203.06 18.548L203.687 19.3272L203.689 19.3256L203.06 18.548ZM196.04 19.736L196.219 18.7521L195.421 18.6071L195.115 19.3574L196.04 19.736ZM196.076 23.192L195.688 24.1136L195.709 24.1225L195.73 24.1303L196.076 23.192ZM205.184 24.524L204.603 25.3377L205.184 24.524ZM194.672 31.436L195.246 30.6167L195.24 30.6128L194.672 31.436ZM202.7 31.4L202.168 30.5533L202.157 30.5604L202.7 31.4ZM203.06 26.36L202.546 27.2175L202.546 27.2175L203.06 26.36ZM199.532 25.82L199.486 26.8189L199.509 26.82H199.532V25.82ZM195.644 25.64L195.69 24.6411L195.34 24.6248L195.056 24.8313L195.644 25.64ZM194.024 27.152L193.192 26.5973L193.181 26.6137L193.171 26.6306L194.024 27.152ZM194.816 16.82L194.123 17.5408L194.13 17.5474L194.137 17.5538L194.816 16.82ZM201.116 16.82L200.423 16.0992L200.423 16.0992L201.116 16.82ZM194.816 10.772L195.509 11.4928L195.51 11.4923L194.816 10.772ZM198.704 33.46C195.851 33.46 194.106 33.0554 193.223 32.448L192.09 34.096C193.51 35.0726 195.797 35.46 198.704 35.46V33.46ZM193.219 32.4454C192.485 31.9454 191.964 30.9354 191.964 29.024H189.964C189.964 31.2406 190.572 33.0626 192.093 34.0986L193.219 32.4454ZM191.964 29.024C191.964 28.1835 192.148 27.5947 192.434 27.1812L190.79 26.0428C190.212 26.8773 189.964 27.8965 189.964 29.024H191.964ZM192.424 27.1963C192.767 26.7191 193.404 26.1072 194.405 25.3622L193.211 23.7578C192.148 24.5488 191.321 25.3049 190.801 26.0277L192.424 27.1963ZM194.37 23.7325C194.087 23.5405 193.8 23.1126 193.8 22.076H191.8C191.8 23.4394 192.186 24.6675 193.247 25.3875L194.37 23.7325ZM193.8 22.076C193.8 22.0877 193.799 22.0529 193.825 21.9543C193.849 21.8606 193.89 21.7345 193.955 21.5718C194.084 21.2453 194.289 20.8191 194.579 20.2855L192.821 19.3305C192.511 19.9009 192.266 20.4047 192.096 20.8342C191.936 21.2364 191.8 21.674 191.8 22.076H193.8ZM194.572 20.2983L194.896 19.7223L193.152 18.7417L192.828 19.3177L194.572 20.2983ZM194.439 18.322C193.019 17.6752 192.18 16.3159 192.18 13.796H190.18C190.18 16.7961 191.237 19.0608 193.609 20.142L194.439 18.322ZM192.18 13.796C192.18 11.9223 192.688 10.694 193.538 9.91697C194.405 9.12447 195.801 8.64 197.912 8.64V6.64C195.535 6.64 193.566 7.18152 192.188 8.44103C190.794 9.71602 190.18 11.5657 190.18 13.796H192.18ZM197.912 8.64C198.995 8.64 199.982 8.75282 200.879 8.97152L201.353 7.02848C200.282 6.76718 199.133 6.64 197.912 6.64V8.64ZM200.92 8.98058L201.46 9.08858L201.852 7.12742L201.312 7.01942L200.92 8.98058ZM201.683 9.10763L207.011 8.96363L206.957 6.96436L201.629 7.10836L201.683 9.10763ZM205.984 7.964V10.268H207.984V7.964H205.984ZM207.005 9.26822L203.585 9.19622L203.543 11.1958L206.963 11.2678L207.005 9.26822ZM202.857 10.9031C203.393 11.4389 203.752 12.3371 203.752 13.796H205.752C205.752 12.0389 205.319 10.5371 204.271 9.48889L202.857 10.9031ZM203.752 13.796C203.752 15.919 203.219 17.1337 202.431 17.7704L203.689 19.3256C205.157 18.1383 205.752 16.185 205.752 13.796H203.752ZM202.433 17.7688C201.594 18.4441 200.12 18.88 197.804 18.88V20.88C200.288 20.88 202.318 20.4279 203.687 19.3272L202.433 17.7688ZM197.804 18.88C197.204 18.88 196.677 18.8355 196.219 18.7521L195.861 20.7199C196.459 20.8285 197.108 20.88 197.804 20.88V18.88ZM195.115 19.3574C194.893 19.8979 194.72 20.3611 194.6 20.7399C194.491 21.086 194.392 21.4642 194.392 21.788H196.392C196.392 21.7998 196.401 21.68 196.508 21.3421C196.604 21.0369 196.755 20.6301 196.966 20.1146L195.115 19.3574ZM194.392 21.788C194.392 22.7012 194.685 23.6915 195.688 24.1136L196.464 22.2704C196.459 22.2682 196.464 22.27 196.471 22.2766C196.477 22.2827 196.473 22.2809 196.462 22.259C196.437 22.2071 196.392 22.0689 196.392 21.788H194.392ZM195.73 24.1303C196.118 24.273 196.722 24.3384 197.392 24.3792C198.111 24.4229 199.055 24.444 200.216 24.444V22.444C199.073 22.444 198.175 22.4231 197.514 22.3828C197.183 22.3627 196.923 22.3384 196.727 22.3115C196.63 22.2982 196.555 22.2851 196.5 22.2732C196.442 22.2608 196.419 22.2528 196.422 22.2537L195.73 24.1303ZM200.216 24.444C202.466 24.444 203.857 24.8052 204.603 25.3377L205.765 23.7103C204.495 22.8028 202.574 22.444 200.216 22.444V24.444ZM204.603 25.3377C205.209 25.7709 205.696 26.7508 205.696 28.736H207.696C207.696 26.5452 207.175 24.7171 205.765 23.7103L204.603 25.3377ZM205.696 28.736C205.696 30.3822 205.14 31.4826 204.116 32.216C203.03 32.9936 201.279 33.46 198.704 33.46V35.46C201.457 35.46 203.702 34.9724 205.28 33.842C206.92 32.6674 207.696 30.9058 207.696 28.736H205.696ZM192.628 28.808C192.628 30.2345 193.02 31.5117 194.104 32.2592L195.24 30.6128C194.932 30.4003 194.628 29.9255 194.628 28.808H192.628ZM194.099 32.2552C195.094 32.9521 196.685 33.192 198.596 33.192V31.192C196.715 31.192 195.69 30.9279 195.246 30.6168L194.099 32.2552ZM198.596 33.192C200.553 33.192 202.171 32.9332 203.243 32.2396L202.157 30.5604C201.597 30.9228 200.479 31.192 198.596 31.192V33.192ZM203.232 32.2466C204.44 31.4875 204.96 30.2265 204.96 28.736H202.96C202.96 29.7415 202.64 30.2565 202.168 30.5534L203.232 32.2466ZM204.96 28.736C204.96 27.4261 204.649 26.1472 203.575 25.5025L202.546 27.2175C202.671 27.2928 202.96 27.5979 202.96 28.736H204.96ZM203.575 25.5025C203.111 25.2247 202.518 25.0643 201.879 24.9665C201.224 24.8662 200.437 24.82 199.532 24.82V26.82C200.379 26.82 201.056 26.8638 201.577 26.9435C202.114 27.0257 202.409 27.1353 202.546 27.2175L203.575 25.5025ZM199.578 24.8211L195.69 24.6411L195.598 26.6389L199.486 26.8189L199.578 24.8211ZM195.056 24.8313C194.237 25.4265 193.581 26.0145 193.192 26.5973L194.856 27.7067C195.044 27.4255 195.467 27.0055 196.232 26.4487L195.056 24.8313ZM193.171 26.6306C192.784 27.263 192.628 28.0106 192.628 28.808H194.628C194.628 28.2614 194.736 27.905 194.877 27.6735L193.171 26.6306ZM192.88 13.796C192.88 15.3182 193.209 16.662 194.123 17.5408L195.509 16.0992C195.175 15.778 194.88 15.1058 194.88 13.796H192.88ZM194.137 17.5538C195.058 18.4072 196.423 18.72 197.984 18.72V16.72C196.617 16.72 195.87 16.4328 195.495 16.0862L194.137 17.5538ZM197.984 18.72C199.54 18.72 200.906 18.4093 201.809 17.5408L200.423 16.0992C200.078 16.4307 199.356 16.72 197.984 16.72V18.72ZM201.809 17.5408C202.723 16.662 203.052 15.3182 203.052 13.796H201.052C201.052 15.1058 200.757 15.778 200.423 16.0992L201.809 17.5408ZM203.052 13.796C203.052 12.2558 202.726 10.8965 201.809 10.0152L200.423 11.4568C200.754 11.7755 201.052 12.4562 201.052 13.796H203.052ZM201.809 10.0152C200.906 9.14666 199.54 8.836 197.984 8.836V10.836C199.356 10.836 200.078 11.1253 200.423 11.4568L201.809 10.0152ZM197.984 8.836C196.416 8.836 195.044 9.16406 194.122 10.0517L195.51 11.4923C195.884 11.1319 196.625 10.836 197.984 10.836V8.836ZM194.123 10.0512C193.209 10.93 192.88 12.2738 192.88 13.796H194.88C194.88 12.4862 195.175 11.814 195.509 11.4928L194.123 10.0512Z" fill="black" mask="url(#path-1-outside-1_449_4)"/>
</svg>
