<svg width="212" height="24" viewBox="0 0 212 24" fill="none" xmlns="http://www.w3.org/2000/svg">
<path d="M0.312 3.048V1.392H12.312V3.048H7.248V18H5.424V3.048H0.312ZM19.7629 6H21.5629V18H19.7629V17.16C18.5629 17.88 17.3789 18.24 16.2109 18.24C14.5789 18.24 13.4909 17.816 12.9469 16.968C12.4189 16.12 12.1549 14.552 12.1549 12.264V6H13.9549V12.24C13.9549 13.984 14.1069 15.152 14.4109 15.744C14.7149 16.336 15.4029 16.632 16.4749 16.632C17.0029 16.632 17.5389 16.56 18.0829 16.416C18.6269 16.256 19.0429 16.104 19.3309 15.96L19.7629 15.744V6ZM34.0663 7.368C32.3223 7.368 31.4503 7.976 31.4503 9.192C31.4503 9.752 31.6503 10.152 32.0503 10.392C32.4503 10.616 33.3623 10.856 34.7863 11.112C36.2103 11.352 37.2183 11.696 37.8103 12.144C38.4023 12.592 38.6983 13.432 38.6983 14.664C38.6983 15.896 38.2983 16.8 37.4983 17.376C36.7143 17.952 35.5623 18.24 34.0423 18.24C33.0503 18.24 31.8823 18.128 30.5383 17.904L29.8183 17.784L29.9143 16.224C31.7383 16.496 33.1143 16.632 34.0423 16.632C34.9703 16.632 35.6743 16.488 36.1543 16.2C36.6503 15.896 36.8983 15.4 36.8983 14.712C36.8983 14.008 36.6903 13.536 36.2743 13.296C35.8583 13.04 34.9463 12.8 33.5383 12.576C32.1303 12.352 31.1303 12.024 30.5383 11.592C29.9463 11.16 29.6503 10.36 29.6503 9.192C29.6503 8.024 30.0583 7.16 30.8743 6.6C31.7063 6.04 32.7383 5.76 33.9703 5.76C34.9463 5.76 36.1703 5.872 37.6423 6.096L38.3143 6.216L38.2663 7.752C36.4903 7.496 35.0903 7.368 34.0663 7.368ZM41.4546 18V6H43.2546V18H41.4546ZM41.4546 3.288V1.2H43.2546V3.288H41.4546ZM55.746 7.368C54.002 7.368 53.13 7.976 53.13 9.192C53.13 9.752 53.33 10.152 53.73 10.392C54.13 10.616 55.042 10.856 56.466 11.112C57.89 11.352 58.898 11.696 59.49 12.144C60.082 12.592 60.378 13.432 60.378 14.664C60.378 15.896 59.978 16.8 59.178 17.376C58.394 17.952 57.242 18.24 55.722 18.24C54.73 18.24 53.562 18.128 52.218 17.904L51.498 17.784L51.594 16.224C53.418 16.496 54.794 16.632 55.722 16.632C56.65 16.632 57.354 16.488 57.834 16.2C58.33 15.896 58.578 15.4 58.578 14.712C58.578 14.008 58.37 13.536 57.954 13.296C57.538 13.04 56.626 12.8 55.218 12.576C53.81 12.352 52.81 12.024 52.218 11.592C51.626 11.16 51.33 10.36 51.33 9.192C51.33 8.024 51.738 7.16 52.554 6.6C53.386 6.04 54.418 5.76 55.65 5.76C56.626 5.76 57.85 5.872 59.322 6.096L59.994 6.216L59.946 7.752C58.17 7.496 56.77 7.368 55.746 7.368ZM71.6063 9.624V15.768C71.6543 16.36 72.1183 16.712 72.9983 16.824L72.9263 18.24C71.6623 18.24 70.7103 17.92 70.0703 17.28C68.6303 17.92 67.1903 18.24 65.7503 18.24C64.6463 18.24 63.8063 17.928 63.2303 17.304C62.6543 16.68 62.3663 15.784 62.3663 14.616C62.3663 13.448 62.6623 12.592 63.2543 12.048C63.8463 11.488 64.7743 11.144 66.0383 11.016L69.8063 10.656V9.624C69.8063 8.808 69.6303 8.224 69.2783 7.872C68.9263 7.52 68.4463 7.344 67.8383 7.344C66.5583 7.344 65.2303 7.424 63.8543 7.584L63.1103 7.656L63.0383 6.288C64.7983 5.936 66.3583 5.76 67.7183 5.76C69.0783 5.76 70.0623 6.072 70.6703 6.696C71.2943 7.32 71.6063 8.296 71.6063 9.624ZM64.2143 14.52C64.2143 15.992 64.8223 16.728 66.0383 16.728C67.1263 16.728 68.1983 16.544 69.2543 16.176L69.8063 15.984V12.024L66.2543 12.36C65.5343 12.424 65.0143 12.632 64.6943 12.984C64.3743 13.336 64.2143 13.848 64.2143 14.52ZM80.4617 5.76C82.0777 5.76 83.2057 6.224 83.8457 7.152C84.5017 8.064 84.8297 9.672 84.8297 11.976C84.8297 14.28 84.4217 15.904 83.6057 16.848C82.8057 17.776 81.3257 18.24 79.1657 18.24C78.4937 18.24 77.3817 18.176 75.8297 18.048L75.1577 17.976V0.767999H76.9337V6.6C78.1497 6.04 79.3257 5.76 80.4617 5.76ZM79.1417 16.632C80.7097 16.632 81.7417 16.28 82.2377 15.576C82.7497 14.856 83.0057 13.648 83.0057 11.952C83.0057 10.256 82.8057 9.072 82.4057 8.4C82.0057 7.712 81.2937 7.368 80.2697 7.368C79.3417 7.368 78.3897 7.544 77.4137 7.896L76.9337 8.064V16.512C77.9737 16.592 78.7097 16.632 79.1417 16.632ZM95.9505 16.512L96.6465 16.44L96.6945 17.856C94.8705 18.112 93.3105 18.24 92.0145 18.24C90.2865 18.24 89.0625 17.744 88.3425 16.752C87.6225 15.744 87.2625 14.184 87.2625 12.072C87.2625 7.864 88.9345 5.76 92.2785 5.76C93.8945 5.76 95.1025 6.216 95.9025 7.128C96.7025 8.024 97.1025 9.44 97.1025 11.376L97.0065 12.744H89.0865C89.0865 14.072 89.3265 15.056 89.8065 15.696C90.2865 16.336 91.1185 16.656 92.3025 16.656C93.5025 16.656 94.7185 16.608 95.9505 16.512ZM95.3025 11.304C95.3025 9.832 95.0625 8.792 94.5825 8.184C94.1185 7.576 93.3505 7.272 92.2785 7.272C91.2225 7.272 90.4225 7.592 89.8785 8.232C89.3505 8.872 89.0785 9.896 89.0625 11.304H95.3025ZM103.676 7.368C101.932 7.368 101.06 7.976 101.06 9.192C101.06 9.752 101.26 10.152 101.66 10.392C102.06 10.616 102.972 10.856 104.396 11.112C105.82 11.352 106.828 11.696 107.42 12.144C108.012 12.592 108.308 13.432 108.308 14.664C108.308 15.896 107.908 16.8 107.108 17.376C106.324 17.952 105.172 18.24 103.652 18.24C102.66 18.24 101.492 18.128 100.148 17.904L99.4277 17.784L99.5237 16.224C101.348 16.496 102.724 16.632 103.652 16.632C104.58 16.632 105.284 16.488 105.764 16.2C106.26 15.896 106.508 15.4 106.508 14.712C106.508 14.008 106.3 13.536 105.884 13.296C105.468 13.04 104.556 12.8 103.148 12.576C101.74 12.352 100.74 12.024 100.148 11.592C99.5557 11.16 99.2597 10.36 99.2597 9.192C99.2597 8.024 99.6677 7.16 100.484 6.6C101.316 6.04 102.348 5.76 103.58 5.76C104.556 5.76 105.78 5.872 107.252 6.096L107.924 6.216L107.876 7.752C106.1 7.496 104.7 7.368 103.676 7.368ZM120.321 18.24C118.705 18.24 117.545 17.768 116.841 16.824C116.153 15.88 115.809 14.28 115.809 12.024C115.809 9.768 116.225 8.16 117.057 7.2C117.889 6.24 119.361 5.76 121.473 5.76L125.481 6V23.328H123.705V17.448C122.585 17.976 121.457 18.24 120.321 18.24ZM121.497 7.32C119.993 7.32 118.969 7.696 118.425 8.448C117.897 9.2 117.633 10.4 117.633 12.048C117.633 13.68 117.849 14.856 118.281 15.576C118.729 16.28 119.473 16.632 120.513 16.632C121.441 16.632 122.361 16.456 123.273 16.104L123.705 15.936V7.464C122.713 7.368 121.977 7.32 121.497 7.32ZM136.458 6H138.258V18H136.458V17.16C135.258 17.88 134.074 18.24 132.906 18.24C131.274 18.24 130.186 17.816 129.642 16.968C129.114 16.12 128.85 14.552 128.85 12.264V6H130.65V12.24C130.65 13.984 130.802 15.152 131.106 15.744C131.41 16.336 132.098 16.632 133.17 16.632C133.698 16.632 134.234 16.56 134.778 16.416C135.322 16.256 135.738 16.104 136.026 15.96L136.458 15.744V6ZM149.88 16.512L150.576 16.44L150.624 17.856C148.8 18.112 147.24 18.24 145.944 18.24C144.216 18.24 142.992 17.744 142.272 16.752C141.552 15.744 141.192 14.184 141.192 12.072C141.192 7.864 142.864 5.76 146.208 5.76C147.824 5.76 149.032 6.216 149.832 7.128C150.632 8.024 151.032 9.44 151.032 11.376L150.936 12.744H143.016C143.016 14.072 143.256 15.056 143.736 15.696C144.216 16.336 145.048 16.656 146.232 16.656C147.432 16.656 148.648 16.608 149.88 16.512ZM149.232 11.304C149.232 9.832 148.992 8.792 148.512 8.184C148.048 7.576 147.28 7.272 146.208 7.272C145.152 7.272 144.352 7.592 143.808 8.232C143.28 8.872 143.008 9.896 142.992 11.304H149.232ZM153.837 18V6H155.613V7.632C157.005 6.672 158.469 6.04 160.005 5.736V7.56C159.333 7.688 158.629 7.888 157.893 8.16C157.173 8.432 156.621 8.672 156.237 8.88L155.637 9.192V18H153.837ZM170.06 16.512L170.756 16.44L170.804 17.856C168.98 18.112 167.42 18.24 166.124 18.24C164.396 18.24 163.172 17.744 162.452 16.752C161.732 15.744 161.372 14.184 161.372 12.072C161.372 7.864 163.044 5.76 166.388 5.76C168.004 5.76 169.212 6.216 170.012 7.128C170.812 8.024 171.212 9.44 171.212 11.376L171.116 12.744H163.196C163.196 14.072 163.436 15.056 163.916 15.696C164.396 16.336 165.228 16.656 166.412 16.656C167.612 16.656 168.828 16.608 170.06 16.512ZM169.412 11.304C169.412 9.832 169.172 8.792 168.692 8.184C168.228 7.576 167.46 7.272 166.388 7.272C165.332 7.272 164.532 7.592 163.988 8.232C163.46 8.872 163.188 9.896 163.172 11.304H169.412ZM174.017 18V6H175.793V7.632C177.185 6.672 178.649 6.04 180.185 5.736V7.56C179.513 7.688 178.809 7.888 178.073 8.16C177.353 8.432 176.801 8.672 176.417 8.88L175.817 9.192V18H174.017ZM184.114 18H182.314V6H184.09V6.84C185.29 6.12 186.458 5.76 187.594 5.76C189.082 5.76 190.122 6.168 190.714 6.984C191.242 6.664 191.922 6.384 192.754 6.144C193.602 5.888 194.346 5.76 194.986 5.76C196.586 5.76 197.658 6.192 198.202 7.056C198.762 7.904 199.042 9.44 199.042 11.664V18H197.242V11.712C197.242 10.048 197.082 8.912 196.762 8.304C196.442 7.68 195.762 7.368 194.722 7.368C194.194 7.368 193.65 7.448 193.09 7.608C192.53 7.752 192.098 7.896 191.794 8.04L191.338 8.256C191.546 8.784 191.65 9.952 191.65 11.76V18H189.85V11.808C189.85 10.08 189.69 8.912 189.37 8.304C189.066 7.68 188.386 7.368 187.33 7.368C186.818 7.368 186.29 7.448 185.746 7.608C185.218 7.752 184.81 7.896 184.522 8.04L184.114 8.256V18ZM210.536 16.512L211.232 16.44L211.28 17.856C209.456 18.112 207.896 18.24 206.6 18.24C204.872 18.24 203.648 17.744 202.928 16.752C202.208 15.744 201.848 14.184 201.848 12.072C201.848 7.864 203.52 5.76 206.864 5.76C208.48 5.76 209.688 6.216 210.488 7.128C211.288 8.024 211.688 9.44 211.688 11.376L211.592 12.744H203.672C203.672 14.072 203.912 15.056 204.392 15.696C204.872 16.336 205.704 16.656 206.888 16.656C208.088 16.656 209.304 16.608 210.536 16.512ZM209.888 11.304C209.888 9.832 209.648 8.792 209.168 8.184C208.704 7.576 207.936 7.272 206.864 7.272C205.808 7.272 205.008 7.592 204.464 8.232C203.936 8.872 203.664 9.896 203.648 11.304H209.888Z" fill="black"/>
</svg>
