<svg width="99" height="27" viewBox="0 0 99 27" fill="none" xmlns="http://www.w3.org/2000/svg">
<mask id="path-1-outside-1_453_2" maskUnits="userSpaceOnUse" x="-1" y="-1" width="101" height="29" fill="black">
<rect fill="white" x="-1" y="-1" width="101" height="29"/>
<path d="M0.864 26L7.704 1.088H13.752L20.592 26H17.856L16.056 19.592H5.4L3.6 26H0.864ZM9.792 3.464L6.012 17.108H15.444L11.664 3.464H9.792ZM24.0373 26V8H26.7013V10.448C28.7893 9.008 30.9853 8.06 33.2893 7.604V10.34C32.2813 10.532 31.2253 10.832 30.1213 11.24C29.0413 11.648 28.2133 12.008 27.6373 12.32L26.7373 12.788V26H24.0373ZM45.8066 10.34H40.0826V18.944C40.0826 21.008 40.2266 22.364 40.5146 23.012C40.8266 23.66 41.5466 23.984 42.6746 23.984L45.8786 23.768L46.0586 26C44.4506 26.264 43.2266 26.396 42.3866 26.396C40.5146 26.396 39.2186 25.94 38.4986 25.028C37.7786 24.116 37.4186 22.376 37.4186 19.808V10.34H34.8626V8H37.4186V2.492H40.0826V8H45.8066V10.34ZM49.1037 26V8H51.8037V26H49.1037ZM49.1037 3.932V0.799998H51.8037V3.932H49.1037ZM62.6307 10.052C60.0147 10.052 58.7067 10.964 58.7067 12.788C58.7067 13.628 59.0067 14.228 59.6067 14.588C60.2067 14.924 61.5747 15.284 63.7107 15.668C65.8467 16.028 67.3587 16.544 68.2467 17.216C69.1347 17.888 69.5787 19.148 69.5787 20.996C69.5787 22.844 68.9787 24.2 67.7787 25.064C66.6027 25.928 64.8747 26.36 62.5947 26.36C61.1067 26.36 59.3547 26.192 57.3387 25.856L56.2587 25.676L56.4027 23.336C59.1387 23.744 61.2027 23.948 62.5947 23.948C63.9867 23.948 65.0427 23.732 65.7627 23.3C66.5067 22.844 66.8787 22.1 66.8787 21.068C66.8787 20.012 66.5667 19.304 65.9427 18.944C65.3187 18.56 63.9507 18.2 61.8387 17.864C59.7267 17.528 58.2267 17.036 57.3387 16.388C56.4507 15.74 56.0067 14.54 56.0067 12.788C56.0067 11.036 56.6187 9.74 57.8427 8.9C59.0907 8.06 60.6387 7.64 62.4867 7.64C63.9507 7.64 65.7867 7.808 67.9947 8.144L69.0027 8.324L68.9307 10.628C66.2667 10.244 64.1667 10.052 62.6307 10.052ZM83.0371 10.34H77.3131V18.944C77.3131 21.008 77.4571 22.364 77.7451 23.012C78.0571 23.66 78.7771 23.984 79.9051 23.984L83.1091 23.768L83.2891 26C81.6811 26.264 80.4571 26.396 79.6171 26.396C77.7451 26.396 76.4491 25.94 75.7291 25.028C75.0091 24.116 74.6491 22.376 74.6491 19.808V10.34H72.0931V8H74.6491V2.492H77.3131V8H83.0371V10.34ZM91.9862 10.052C89.3702 10.052 88.0622 10.964 88.0622 12.788C88.0622 13.628 88.3622 14.228 88.9622 14.588C89.5622 14.924 90.9302 15.284 93.0662 15.668C95.2022 16.028 96.7142 16.544 97.6022 17.216C98.4902 17.888 98.9342 19.148 98.9342 20.996C98.9342 22.844 98.3342 24.2 97.1342 25.064C95.9582 25.928 94.2302 26.36 91.9502 26.36C90.4622 26.36 88.7102 26.192 86.6942 25.856L85.6142 25.676L85.7582 23.336C88.4942 23.744 90.5582 23.948 91.9502 23.948C93.3422 23.948 94.3982 23.732 95.1182 23.3C95.8622 22.844 96.2342 22.1 96.2342 21.068C96.2342 20.012 95.9222 19.304 95.2982 18.944C94.6742 18.56 93.3062 18.2 91.1942 17.864C89.0822 17.528 87.5822 17.036 86.6942 16.388C85.8062 15.74 85.3622 14.54 85.3622 12.788C85.3622 11.036 85.9742 9.74 87.1982 8.9C88.4462 8.06 89.9942 7.64 91.8422 7.64C93.3062 7.64 95.1422 7.808 97.3502 8.144L98.3582 8.324L98.2862 10.628C95.6222 10.244 93.5222 10.052 91.9862 10.052Z"/>
</mask>
<path d="M0.864 26L7.704 1.088H13.752L20.592 26H17.856L16.056 19.592H5.4L3.6 26H0.864ZM9.792 3.464L6.012 17.108H15.444L11.664 3.464H9.792ZM24.0373 26V8H26.7013V10.448C28.7893 9.008 30.9853 8.06 33.2893 7.604V10.34C32.2813 10.532 31.2253 10.832 30.1213 11.24C29.0413 11.648 28.2133 12.008 27.6373 12.32L26.7373 12.788V26H24.0373ZM45.8066 10.34H40.0826V18.944C40.0826 21.008 40.2266 22.364 40.5146 23.012C40.8266 23.66 41.5466 23.984 42.6746 23.984L45.8786 23.768L46.0586 26C44.4506 26.264 43.2266 26.396 42.3866 26.396C40.5146 26.396 39.2186 25.94 38.4986 25.028C37.7786 24.116 37.4186 22.376 37.4186 19.808V10.34H34.8626V8H37.4186V2.492H40.0826V8H45.8066V10.34ZM49.1037 26V8H51.8037V26H49.1037ZM49.1037 3.932V0.799998H51.8037V3.932H49.1037ZM62.6307 10.052C60.0147 10.052 58.7067 10.964 58.7067 12.788C58.7067 13.628 59.0067 14.228 59.6067 14.588C60.2067 14.924 61.5747 15.284 63.7107 15.668C65.8467 16.028 67.3587 16.544 68.2467 17.216C69.1347 17.888 69.5787 19.148 69.5787 20.996C69.5787 22.844 68.9787 24.2 67.7787 25.064C66.6027 25.928 64.8747 26.36 62.5947 26.36C61.1067 26.36 59.3547 26.192 57.3387 25.856L56.2587 25.676L56.4027 23.336C59.1387 23.744 61.2027 23.948 62.5947 23.948C63.9867 23.948 65.0427 23.732 65.7627 23.3C66.5067 22.844 66.8787 22.1 66.8787 21.068C66.8787 20.012 66.5667 19.304 65.9427 18.944C65.3187 18.56 63.9507 18.2 61.8387 17.864C59.7267 17.528 58.2267 17.036 57.3387 16.388C56.4507 15.74 56.0067 14.54 56.0067 12.788C56.0067 11.036 56.6187 9.74 57.8427 8.9C59.0907 8.06 60.6387 7.64 62.4867 7.64C63.9507 7.64 65.7867 7.808 67.9947 8.144L69.0027 8.324L68.9307 10.628C66.2667 10.244 64.1667 10.052 62.6307 10.052ZM83.0371 10.34H77.3131V18.944C77.3131 21.008 77.4571 22.364 77.7451 23.012C78.0571 23.66 78.7771 23.984 79.9051 23.984L83.1091 23.768L83.2891 26C81.6811 26.264 80.4571 26.396 79.6171 26.396C77.7451 26.396 76.4491 25.94 75.7291 25.028C75.0091 24.116 74.6491 22.376 74.6491 19.808V10.34H72.0931V8H74.6491V2.492H77.3131V8H83.0371V10.34ZM91.9862 10.052C89.3702 10.052 88.0622 10.964 88.0622 12.788C88.0622 13.628 88.3622 14.228 88.9622 14.588C89.5622 14.924 90.9302 15.284 93.0662 15.668C95.2022 16.028 96.7142 16.544 97.6022 17.216C98.4902 17.888 98.9342 19.148 98.9342 20.996C98.9342 22.844 98.3342 24.2 97.1342 25.064C95.9582 25.928 94.2302 26.36 91.9502 26.36C90.4622 26.36 88.7102 26.192 86.6942 25.856L85.6142 25.676L85.7582 23.336C88.4942 23.744 90.5582 23.948 91.9502 23.948C93.3422 23.948 94.3982 23.732 95.1182 23.3C95.8622 22.844 96.2342 22.1 96.2342 21.068C96.2342 20.012 95.9222 19.304 95.2982 18.944C94.6742 18.56 93.3062 18.2 91.1942 17.864C89.0822 17.528 87.5822 17.036 86.6942 16.388C85.8062 15.74 85.3622 14.54 85.3622 12.788C85.3622 11.036 85.9742 9.74 87.1982 8.9C88.4462 8.06 89.9942 7.64 91.8422 7.64C93.3062 7.64 95.1422 7.808 97.3502 8.144L98.3582 8.324L98.2862 10.628C95.6222 10.244 93.5222 10.052 91.9862 10.052Z" fill="#666666"/>
<path d="M0.864 26L-0.100312 25.7352L-0.447575 27H0.864V26ZM7.704 1.088V0.0879989H6.94156L6.73969 0.823231L7.704 1.088ZM13.752 1.088L14.7163 0.823231L14.5144 0.0879989H13.752V1.088ZM20.592 26V27H21.9036L21.5563 25.7352L20.592 26ZM17.856 26L16.8933 26.2704L17.0982 27H17.856V26ZM16.056 19.592L17.0187 19.3216L16.8138 18.592H16.056V19.592ZM5.4 19.592V18.592H4.6422L4.43726 19.3216L5.4 19.592ZM3.6 26V27H4.3578L4.56274 26.2704L3.6 26ZM9.792 3.464V2.464H9.03138L8.8283 3.19701L9.792 3.464ZM6.012 17.108L5.0483 16.841L4.69729 18.108H6.012V17.108ZM15.444 17.108V18.108H16.7587L16.4077 16.841L15.444 17.108ZM11.664 3.464L12.6277 3.19701L12.4246 2.464H11.664V3.464ZM1.82831 26.2648L8.66831 1.35277L6.73969 0.823231L-0.100312 25.7352L1.82831 26.2648ZM7.704 2.088H13.752V0.0879989H7.704V2.088ZM12.7877 1.35277L19.6277 26.2648L21.5563 25.7352L14.7163 0.823231L12.7877 1.35277ZM20.592 25H17.856V27H20.592V25ZM18.8187 25.7296L17.0187 19.3216L15.0933 19.8624L16.8933 26.2704L18.8187 25.7296ZM16.056 18.592H5.4V20.592H16.056V18.592ZM4.43726 19.3216L2.63726 25.7296L4.56274 26.2704L6.36274 19.8624L4.43726 19.3216ZM3.6 25H0.864V27H3.6V25ZM8.8283 3.19701L5.0483 16.841L6.9757 17.375L10.7557 3.73099L8.8283 3.19701ZM6.012 18.108H15.444V16.108H6.012V18.108ZM16.4077 16.841L12.6277 3.19701L10.7003 3.73099L14.4803 17.375L16.4077 16.841ZM11.664 2.464H9.792V4.464H11.664V2.464ZM24.0373 26H23.0373V27H24.0373V26ZM24.0373 8V7H23.0373V8H24.0373ZM26.7013 8H27.7013V7H26.7013V8ZM26.7013 10.448H25.7013V12.3524L27.269 11.2712L26.7013 10.448ZM33.2893 7.604H34.2893V6.38668L33.0952 6.62303L33.2893 7.604ZM33.2893 10.34L33.4764 11.3223L34.2893 11.1675V10.34H33.2893ZM30.1213 11.24L29.7747 10.302L29.7679 10.3045L30.1213 11.24ZM27.6373 12.32L28.0987 13.2072L28.1062 13.2033L28.1136 13.1993L27.6373 12.32ZM26.7373 12.788L26.276 11.9008L25.7373 12.1809V12.788H26.7373ZM26.7373 26V27H27.7373V26H26.7373ZM25.0373 26V8H23.0373V26H25.0373ZM24.0373 9H26.7013V7H24.0373V9ZM25.7013 8V10.448H27.7013V8H25.7013ZM27.269 11.2712C29.2537 9.90249 31.3239 9.01239 33.4835 8.58497L33.0952 6.62303C30.6467 7.10761 28.3249 8.11351 26.1336 9.62479L27.269 11.2712ZM32.2893 7.604V10.34H34.2893V7.604H32.2893ZM33.1022 9.35766C32.0327 9.56138 30.9231 9.87757 29.7747 10.302L30.468 12.178C31.5275 11.7864 32.53 11.5026 33.4764 11.3223L33.1022 9.35766ZM29.7679 10.3045C28.6723 10.7184 27.7956 11.097 27.161 11.4407L28.1136 13.1993C28.631 12.919 29.4103 12.5776 30.4747 12.1755L29.7679 10.3045ZM27.176 11.4328L26.276 11.9008L27.1987 13.6752L28.0987 13.2072L27.176 11.4328ZM25.7373 12.788V26H27.7373V12.788H25.7373ZM26.7373 25H24.0373V27H26.7373V25ZM45.8066 10.34V11.34H46.8066V10.34H45.8066ZM40.0826 10.34V9.34H39.0826V10.34H40.0826ZM40.5146 23.012L39.6008 23.4181L39.607 23.4321L39.6136 23.4458L40.5146 23.012ZM42.6746 23.984V24.984H42.7083L42.7419 24.9817L42.6746 23.984ZM45.8786 23.768L46.8754 23.6876L46.7961 22.7039L45.8114 22.7703L45.8786 23.768ZM46.0586 26L46.2206 26.9868L47.1294 26.8376L47.0554 25.9196L46.0586 26ZM38.4986 25.028L37.7137 25.6476L37.7137 25.6476L38.4986 25.028ZM37.4186 10.34H38.4186V9.34H37.4186V10.34ZM34.8626 10.34H33.8626V11.34H34.8626V10.34ZM34.8626 8V7H33.8626V8H34.8626ZM37.4186 8V9H38.4186V8H37.4186ZM37.4186 2.492V1.492H36.4186V2.492H37.4186ZM40.0826 2.492H41.0826V1.492H40.0826V2.492ZM40.0826 8H39.0826V9H40.0826V8ZM45.8066 8H46.8066V7H45.8066V8ZM45.8066 9.34H40.0826V11.34H45.8066V9.34ZM39.0826 10.34V18.944H41.0826V10.34H39.0826ZM39.0826 18.944C39.0826 19.9954 39.1191 20.8886 39.1962 21.6146C39.271 22.3192 39.3915 22.9472 39.6008 23.4181L41.4284 22.6059C41.3498 22.4288 41.2542 22.0548 41.185 21.4034C41.1181 20.7734 41.0826 19.9566 41.0826 18.944H39.0826ZM39.6136 23.4458C40.176 24.6139 41.4033 24.984 42.6746 24.984V22.984C41.69 22.984 41.4772 22.7061 41.4156 22.5782L39.6136 23.4458ZM42.7419 24.9817L45.9459 24.7657L45.8114 22.7703L42.6074 22.9863L42.7419 24.9817ZM44.8819 23.8484L45.0619 26.0804L47.0554 25.9196L46.8754 23.6876L44.8819 23.8484ZM45.8966 25.0132C44.3023 25.275 43.1431 25.396 42.3866 25.396V27.396C43.3102 27.396 44.599 27.253 46.2206 26.9868L45.8966 25.0132ZM42.3866 25.396C40.6342 25.396 39.7225 24.9644 39.2835 24.4084L37.7137 25.6476C38.7148 26.9156 40.395 27.396 42.3866 27.396V25.396ZM39.2835 24.4084C39.0574 24.1219 38.8315 23.6274 38.6679 22.8364C38.5063 22.0553 38.4186 21.0512 38.4186 19.808H36.4186C36.4186 21.1328 36.511 22.2827 36.7094 23.2416C36.9057 24.1906 37.2199 25.0221 37.7137 25.6476L39.2835 24.4084ZM38.4186 19.808V10.34H36.4186V19.808H38.4186ZM37.4186 9.34H34.8626V11.34H37.4186V9.34ZM35.8626 10.34V8H33.8626V10.34H35.8626ZM34.8626 9H37.4186V7H34.8626V9ZM38.4186 8V2.492H36.4186V8H38.4186ZM37.4186 3.492H40.0826V1.492H37.4186V3.492ZM39.0826 2.492V8H41.0826V2.492H39.0826ZM40.0826 9H45.8066V7H40.0826V9ZM44.8066 8V10.34H46.8066V8H44.8066ZM49.1037 26H48.1037V27H49.1037V26ZM49.1037 8V7H48.1037V8H49.1037ZM51.8037 8H52.8037V7H51.8037V8ZM51.8037 26V27H52.8037V26H51.8037ZM49.1037 3.932H48.1037V4.932H49.1037V3.932ZM49.1037 0.799998V-0.200002H48.1037V0.799998H49.1037ZM51.8037 0.799998H52.8037V-0.200002H51.8037V0.799998ZM51.8037 3.932V4.932H52.8037V3.932H51.8037ZM50.1037 26V8H48.1037V26H50.1037ZM49.1037 9H51.8037V7H49.1037V9ZM50.8037 8V26H52.8037V8H50.8037ZM51.8037 25H49.1037V27H51.8037V25ZM50.1037 3.932V0.799998H48.1037V3.932H50.1037ZM49.1037 1.8H51.8037V-0.200002H49.1037V1.8ZM50.8037 0.799998V3.932H52.8037V0.799998H50.8037ZM51.8037 2.932H49.1037V4.932H51.8037V2.932ZM59.6067 14.588L59.0922 15.4455L59.1051 15.4532L59.1181 15.4605L59.6067 14.588ZM63.7107 15.668L63.5338 16.6523L63.5445 16.6541L63.7107 15.668ZM68.2467 17.216L68.8502 16.4186L68.8502 16.4186L68.2467 17.216ZM67.7787 25.064L67.1944 24.2524L67.1866 24.2581L67.7787 25.064ZM57.3387 25.856L57.1743 26.8424L57.3387 25.856ZM56.2587 25.676L55.2606 25.6146L55.2052 26.5142L56.0943 26.6624L56.2587 25.676ZM56.4027 23.336L56.5502 22.3469L55.4716 22.1861L55.4046 23.2746L56.4027 23.336ZM65.7627 23.3L66.2772 24.1575L66.2853 24.1526L65.7627 23.3ZM65.9427 18.944L65.4186 19.7957L65.4307 19.8031L65.443 19.8102L65.9427 18.944ZM61.8387 17.864L61.9958 16.8764L61.9958 16.8764L61.8387 17.864ZM57.3387 16.388L57.9282 15.5802L57.9282 15.5802L57.3387 16.388ZM57.8427 8.9L57.2843 8.07038L57.2769 8.07549L57.8427 8.9ZM67.9947 8.144L68.1705 7.15957L68.1579 7.15731L68.1452 7.15538L67.9947 8.144ZM69.0027 8.324L70.0022 8.35523L70.0292 7.49148L69.1785 7.33957L69.0027 8.324ZM68.9307 10.628L68.788 11.6178L69.8953 11.7774L69.9302 10.6592L68.9307 10.628ZM62.6307 9.052C61.2373 9.052 60.0141 9.28933 59.1158 9.91571C58.1518 10.5878 57.7067 11.6034 57.7067 12.788H59.7067C59.7067 12.1486 59.9156 11.7962 60.2597 11.5563C60.6693 11.2707 61.4082 11.052 62.6307 11.052V9.052ZM57.7067 12.788C57.7067 13.8967 58.1264 14.866 59.0922 15.4455L60.1212 13.7305C59.887 13.59 59.7067 13.3593 59.7067 12.788H57.7067ZM59.1181 15.4605C59.5345 15.6937 60.1295 15.8932 60.8282 16.0771C61.5475 16.2664 62.4519 16.4577 63.5338 16.6522L63.8877 14.6838C62.8336 14.4943 61.9859 14.3136 61.3372 14.1429C60.6679 13.9668 60.2789 13.8183 60.0953 13.7155L59.1181 15.4605ZM63.5445 16.6541C65.6449 17.0081 66.9558 17.4932 67.6433 18.0134L68.8502 16.4186C67.7616 15.5948 66.0485 15.0479 63.8769 14.6819L63.5445 16.6541ZM67.6433 18.0134C68.1541 18.4 68.5787 19.2565 68.5787 20.996H70.5787C70.5787 19.0395 70.1153 17.376 68.8502 16.4186L67.6433 18.0134ZM68.5787 20.996C68.5787 22.6122 68.0682 23.6233 67.1944 24.2525L68.363 25.8755C69.8892 24.7767 70.5787 23.0758 70.5787 20.996H68.5787ZM67.1866 24.2581C66.2546 24.9429 64.7735 25.36 62.5947 25.36V27.36C64.976 27.36 66.9509 26.9131 68.3708 25.8699L67.1866 24.2581ZM62.5947 25.36C61.1779 25.36 59.4833 25.1996 57.5031 24.8696L57.1743 26.8424C59.2261 27.1844 61.0356 27.36 62.5947 27.36V25.36ZM57.5031 24.8696L56.4231 24.6896L56.0943 26.6624L57.1743 26.8424L57.5031 24.8696ZM57.2568 25.7374L57.4008 23.3974L55.4046 23.2746L55.2606 25.6146L57.2568 25.7374ZM56.2552 24.3251C59.0023 24.7347 61.126 24.948 62.5947 24.948V22.948C61.2794 22.948 59.2751 22.7533 56.5502 22.3469L56.2552 24.3251ZM62.5947 24.948C64.0616 24.948 65.3307 24.7254 66.2772 24.1575L65.2482 22.4425C64.7548 22.7386 63.9118 22.948 62.5947 22.948V24.948ZM66.2853 24.1526C67.3843 23.479 67.8787 22.3734 67.8787 21.068H65.8787C65.8787 21.8266 65.6291 22.209 65.2402 22.4474L66.2853 24.1526ZM67.8787 21.068C67.8787 19.8374 67.507 18.692 66.4424 18.0778L65.443 19.8102C65.6264 19.916 65.8787 20.1866 65.8787 21.068H67.8787ZM66.4668 18.0923C66.0257 17.8209 65.4112 17.6052 64.7032 17.4189C63.9753 17.2274 63.0699 17.0473 61.9958 16.8764L61.6816 18.8516C62.7196 19.0167 63.5541 19.1846 64.1942 19.3531C64.8542 19.5268 65.2357 19.6831 65.4186 19.7957L66.4668 18.0923ZM61.9958 16.8764C59.919 16.546 58.6166 16.0826 57.9282 15.5802L56.7492 17.1958C57.8368 17.9894 59.5344 18.51 61.6816 18.8516L61.9958 16.8764ZM57.9282 15.5802C57.4219 15.2107 57.0067 14.4132 57.0067 12.788H55.0067C55.0067 14.6668 55.4796 16.2693 56.7493 17.1958L57.9282 15.5802ZM57.0067 12.788C57.0067 11.2974 57.5081 10.3425 58.4086 9.72451L57.2769 8.07549C55.7293 9.13752 55.0067 10.7746 55.0067 12.788H57.0067ZM58.4011 9.72959C59.4498 9.02376 60.7918 8.64 62.4867 8.64V6.64C60.4856 6.64 58.7317 7.09624 57.2843 8.07041L58.4011 9.72959ZM62.4867 8.64C63.8815 8.64 65.6631 8.8007 67.8443 9.13262L68.1452 7.15538C65.9103 6.8153 64.0199 6.64 62.4867 6.64V8.64ZM67.8189 9.12843L68.8269 9.30843L69.1785 7.33957L68.1705 7.15957L67.8189 9.12843ZM68.0032 8.29276L67.9312 10.5968L69.9302 10.6592L70.0022 8.35523L68.0032 8.29276ZM69.0734 9.63823C66.3916 9.25167 64.2371 9.052 62.6307 9.052V11.052C64.0964 11.052 66.1418 11.2363 68.788 11.6178L69.0734 9.63823ZM83.0371 10.34V11.34H84.0371V10.34H83.0371ZM77.3131 10.34V9.34H76.3131V10.34H77.3131ZM77.7451 23.012L76.8313 23.4181L76.8375 23.4321L76.8441 23.4458L77.7451 23.012ZM79.9051 23.984V24.984H79.9388L79.9724 24.9817L79.9051 23.984ZM83.1091 23.768L84.1059 23.6876L84.0265 22.7039L83.0418 22.7703L83.1091 23.768ZM83.2891 26L83.4511 26.9868L84.3599 26.8376L84.2859 25.9196L83.2891 26ZM75.7291 25.028L74.9442 25.6476L74.9442 25.6476L75.7291 25.028ZM74.6491 10.34H75.6491V9.34H74.6491V10.34ZM72.0931 10.34H71.0931V11.34H72.0931V10.34ZM72.0931 8V7H71.0931V8H72.0931ZM74.6491 8V9H75.6491V8H74.6491ZM74.6491 2.492V1.492H73.6491V2.492H74.6491ZM77.3131 2.492H78.3131V1.492H77.3131V2.492ZM77.3131 8H76.3131V9H77.3131V8ZM83.0371 8H84.0371V7H83.0371V8ZM83.0371 9.34H77.3131V11.34H83.0371V9.34ZM76.3131 10.34V18.944H78.3131V10.34H76.3131ZM76.3131 18.944C76.3131 19.9954 76.3496 20.8886 76.4267 21.6146C76.5015 22.3192 76.622 22.9472 76.8313 23.4181L78.6589 22.6059C78.5802 22.4288 78.4847 22.0548 78.4155 21.4034C78.3486 20.7734 78.3131 19.9566 78.3131 18.944H76.3131ZM76.8441 23.4458C77.4065 24.6139 78.6337 24.984 79.9051 24.984V22.984C78.9205 22.984 78.7077 22.7061 78.6461 22.5782L76.8441 23.4458ZM79.9724 24.9817L83.1764 24.7657L83.0418 22.7703L79.8378 22.9863L79.9724 24.9817ZM82.1123 23.8484L82.2923 26.0804L84.2859 25.9196L84.1059 23.6876L82.1123 23.8484ZM83.1271 25.0132C81.5327 25.275 80.3735 25.396 79.6171 25.396V27.396C80.5407 27.396 81.8295 27.253 83.4511 26.9868L83.1271 25.0132ZM79.6171 25.396C77.8647 25.396 76.9529 24.9644 76.514 24.4084L74.9442 25.6476C75.9452 26.9156 77.6255 27.396 79.6171 27.396V25.396ZM76.514 24.4084C76.2879 24.1219 76.062 23.6274 75.8984 22.8364C75.7367 22.0553 75.6491 21.0512 75.6491 19.808H73.6491C73.6491 21.1328 73.7414 22.2827 73.9398 23.2416C74.1362 24.1906 74.4503 25.0221 74.9442 25.6476L76.514 24.4084ZM75.6491 19.808V10.34H73.6491V19.808H75.6491ZM74.6491 9.34H72.0931V11.34H74.6491V9.34ZM73.0931 10.34V8H71.0931V10.34H73.0931ZM72.0931 9H74.6491V7H72.0931V9ZM75.6491 8V2.492H73.6491V8H75.6491ZM74.6491 3.492H77.3131V1.492H74.6491V3.492ZM76.3131 2.492V8H78.3131V2.492H76.3131ZM77.3131 9H83.0371V7H77.3131V9ZM82.0371 8V10.34H84.0371V8H82.0371ZM88.9622 14.588L88.4477 15.4455L88.4605 15.4532L88.4736 15.4605L88.9622 14.588ZM93.0662 15.668L92.8892 16.6523L92.9 16.6541L93.0662 15.668ZM97.6022 17.216L98.2056 16.4186L98.2056 16.4186L97.6022 17.216ZM97.1342 25.064L96.5499 24.2524L96.5421 24.2581L97.1342 25.064ZM86.6942 25.856L86.5298 26.8424L86.6942 25.856ZM85.6142 25.676L84.6161 25.6146L84.5607 26.5142L85.4498 26.6624L85.6142 25.676ZM85.7582 23.336L85.9057 22.3469L84.8271 22.1861L84.7601 23.2746L85.7582 23.336ZM95.1182 23.3L95.6327 24.1575L95.6408 24.1526L95.1182 23.3ZM95.2982 18.944L94.7741 19.7957L94.7862 19.8031L94.7985 19.8102L95.2982 18.944ZM91.1942 17.864L91.3513 16.8764L91.3513 16.8764L91.1942 17.864ZM86.6942 16.388L87.2837 15.5802L87.2837 15.5802L86.6942 16.388ZM87.1982 8.9L86.6398 8.07038L86.6323 8.07549L87.1982 8.9ZM97.3502 8.144L97.526 7.15957L97.5133 7.15731L97.5006 7.15538L97.3502 8.144ZM98.3582 8.324L99.3577 8.35523L99.3847 7.49148L98.534 7.33957L98.3582 8.324ZM98.2862 10.628L98.1435 11.6178L99.2508 11.7774L99.2857 10.6592L98.2862 10.628ZM91.9862 9.052C90.5927 9.052 89.3696 9.28933 88.4712 9.91571C87.5073 10.5878 87.0622 11.6034 87.0622 12.788H89.0622C89.0622 12.1486 89.2711 11.7962 89.6151 11.5563C90.0248 11.2707 90.7636 11.052 91.9862 11.052V9.052ZM87.0622 12.788C87.0622 13.8967 87.4819 14.866 88.4477 15.4455L89.4767 13.7305C89.2425 13.59 89.0622 13.3593 89.0622 12.788H87.0622ZM88.4736 15.4605C88.89 15.6937 89.485 15.8932 90.1837 16.0771C90.903 16.2664 91.8073 16.4577 92.8892 16.6522L93.2431 14.6838C92.189 14.4943 91.3414 14.3136 90.6927 14.1429C90.0234 13.9668 89.6344 13.8183 89.4508 13.7155L88.4736 15.4605ZM92.9 16.6541C95.0004 17.0081 96.3113 17.4932 96.9987 18.0134L98.2056 16.4186C97.1171 15.5948 95.404 15.0479 93.2324 14.6819L92.9 16.6541ZM96.9987 18.0134C97.5096 18.4 97.9342 19.2565 97.9342 20.996H99.9342C99.9342 19.0395 99.4708 17.376 98.2056 16.4186L96.9987 18.0134ZM97.9342 20.996C97.9342 22.6122 97.4237 23.6233 96.5499 24.2525L97.7185 25.8755C99.2447 24.7767 99.9342 23.0758 99.9342 20.996H97.9342ZM96.5421 24.2581C95.61 24.9429 94.1289 25.36 91.9502 25.36V27.36C94.3314 27.36 96.3063 26.9131 97.7263 25.8699L96.5421 24.2581ZM91.9502 25.36C90.5333 25.36 88.8388 25.1996 86.8586 24.8696L86.5298 26.8424C88.5816 27.1844 90.3911 27.36 91.9502 27.36V25.36ZM86.8586 24.8696L85.7786 24.6896L85.4498 26.6624L86.5298 26.8424L86.8586 24.8696ZM86.6123 25.7374L86.7563 23.3974L84.7601 23.2746L84.6161 25.6146L86.6123 25.7374ZM85.6107 24.3251C88.3578 24.7347 90.4815 24.948 91.9502 24.948V22.948C90.6349 22.948 88.6306 22.7533 85.9057 22.3469L85.6107 24.3251ZM91.9502 24.948C93.4171 24.948 94.6862 24.7254 95.6327 24.1575L94.6037 22.4425C94.1102 22.7386 93.2673 22.948 91.9502 22.948V24.948ZM95.6408 24.1526C96.7398 23.479 97.2342 22.3734 97.2342 21.068H95.2342C95.2342 21.8266 94.9846 22.209 94.5956 22.4474L95.6408 24.1526ZM97.2342 21.068C97.2342 19.8374 96.8625 18.692 95.7979 18.0778L94.7985 19.8102C94.9819 19.916 95.2342 20.1866 95.2342 21.068H97.2342ZM95.8223 18.0923C95.3812 17.8209 94.7667 17.6052 94.0587 17.4189C93.3308 17.2274 92.4253 17.0473 91.3513 16.8764L91.0371 18.8516C92.075 19.0167 92.9096 19.1846 93.5497 19.3531C94.2097 19.5268 94.5912 19.6831 94.7741 19.7957L95.8223 18.0923ZM91.3513 16.8764C89.2745 16.546 87.9721 16.0826 87.2837 15.5802L86.1047 17.1958C87.1923 17.9894 88.8899 18.51 91.0371 18.8516L91.3513 16.8764ZM87.2837 15.5802C86.7773 15.2107 86.3622 14.4132 86.3622 12.788H84.3622C84.3622 14.6668 84.835 16.2693 86.1047 17.1958L87.2837 15.5802ZM86.3622 12.788C86.3622 11.2974 86.8636 10.3425 87.764 9.72451L86.6323 8.07549C85.0848 9.13752 84.3622 10.7746 84.3622 12.788H86.3622ZM87.7566 9.72959C88.8052 9.02376 90.1473 8.64 91.8422 8.64V6.64C89.8411 6.64 88.0872 7.09624 86.6398 8.07041L87.7566 9.72959ZM91.8422 8.64C93.237 8.64 95.0186 8.8007 97.1997 9.13262L97.5006 7.15538C95.2658 6.8153 93.3754 6.64 91.8422 6.64V8.64ZM97.1744 9.12843L98.1824 9.30843L98.534 7.33957L97.526 7.15957L97.1744 9.12843ZM97.3587 8.29276L97.2867 10.5968L99.2857 10.6592L99.3577 8.35523L97.3587 8.29276ZM98.4289 9.63823C95.7471 9.25167 93.5925 9.052 91.9862 9.052V11.052C93.4518 11.052 95.4973 11.2363 98.1435 11.6178L98.4289 9.63823Z" fill="black" mask="url(#path-1-outside-1_453_2)"/>
</svg>
