<svg width="94" height="80" viewBox="0 0 94 80" fill="none" xmlns="http://www.w3.org/2000/svg">
<path d="M71.418 6.38126C74.8145 6.38126 77.8438 9.31719 77.8438 13.2609C77.8438 17.2188 74.8145 20.1406 71.418 20.1406C68.0215 20.1406 64.9922 17.2188 64.9922 13.2609C64.9922 9.31719 68.0215 6.38126 71.418 6.38126ZM47.0184 6.38126C50.3965 6.38126 53.4442 9.31719 53.4442 13.2609C53.4442 17.2188 50.3965 20.1406 47.0184 20.1406C43.6219 20.1406 40.5743 17.2188 40.5743 13.2609C40.5743 9.31719 43.6219 6.38126 47.0184 6.38126ZM22.6004 6.38126C25.9969 6.38126 29.0262 9.31719 29.0262 13.2609C29.0262 17.2188 25.9969 20.1406 22.6004 20.1406C19.204 20.1406 16.1581 17.2188 16.1581 13.2609C16.1581 9.31719 19.204 6.38126 22.6004 6.38126ZM47.0184 23.4219C58.7684 23.7344 68.6825 23.7344 80.5794 24.0781C86.2524 26.8594 88.8778 41.1094 88.7126 46.0625L85.4813 48.8281C84.0676 42.1406 82.2868 33.2188 79.3309 31.2344V44.9219L80.0837 73.625H76.0079L72.9419 44.7656H69.6372L66.5712 73.625H62.477L63.2481 44.9219L61.7794 31.0938H56.4001L55.0782 44.875L55.8493 73.5781H51.7551L48.6708 44.7188H45.3661L42.2817 73.5781H38.2059L38.977 44.875L37.6368 31.0938H32.2575L30.7887 44.9219L31.5598 73.625H27.4657L24.3997 44.7656H21.095L17.9941 73.625H13.9183L14.6894 44.9219V31.2344C11.7152 33.2188 9.93431 42.1406 8.52064 48.8281L5.28939 46.0625C5.12415 41.1094 7.76791 26.8594 13.4226 24.0781C25.3544 23.7344 35.2684 23.7344 47.0184 23.4219Z" fill="black"/>
</svg>
