<svg width="95" height="39" viewBox="0 0 95 39" fill="none" xmlns="http://www.w3.org/2000/svg">
<g filter="url(#filter0_i_343_71)">
<rect width="95" height="39" rx="19.5" fill="white"/>
<rect width="95" height="39" rx="19.5" fill="url(#paint0_linear_343_71)"/>
</g>
<path d="M36.664 13.672C36.888 13.672 37.056 13.752 37.168 13.912C37.28 14.056 37.336 14.216 37.336 14.392L37.312 14.632C36.64 16.344 36.144 17.736 35.824 18.808C35.616 19.56 35.456 20.12 35.344 20.488C35.248 20.856 35.08 21.504 34.84 22.432C34.6 23.36 34.44 23.96 34.36 24.232C34.136 24.776 33.744 25.048 33.184 25.048C32.912 25.048 32.72 24.872 32.608 24.52C32.096 22.92 31.344 21.112 30.352 19.096C29.36 17.08 28.792 15.928 28.648 15.64C28.52 15.336 28.456 15.064 28.456 14.824C28.456 14.584 28.56 14.352 28.768 14.128C28.992 13.904 29.24 13.792 29.512 13.792C29.784 13.792 30.016 13.936 30.208 14.224C30.384 14.576 30.88 15.56 31.696 17.176C32.528 18.792 33.112 20.064 33.448 20.992C33.464 20.896 33.52 20.696 33.616 20.392C34.432 17.56 35.096 15.536 35.608 14.32C35.88 13.888 36.232 13.672 36.664 13.672ZM40.1054 9.832C40.3934 9.832 40.6654 9.968 40.9214 10.24C41.1774 10.512 41.3054 10.8 41.3054 11.104C41.3054 11.392 41.1614 11.688 40.8734 11.992C40.6014 12.296 40.3134 12.448 40.0094 12.448C39.7054 12.448 39.4254 12.32 39.1694 12.064C38.9294 11.808 38.8094 11.48 38.8094 11.08C38.8094 10.312 39.2254 9.896 40.0574 9.832C40.0734 9.832 40.0894 9.832 40.1054 9.832ZM41.1134 22.408L41.1374 24.088C41.1374 24.392 41.0174 24.648 40.7774 24.856C40.5374 25.048 40.2814 25.144 40.0094 25.144C39.6094 25.144 39.4014 24.944 39.3854 24.544C39.1774 19.44 39.0734 16.616 39.0734 16.072C39.0734 15.528 39.0974 14.864 39.1454 14.08C39.1774 13.792 39.3614 13.648 39.6974 13.648C40.5454 13.648 41.0254 13.992 41.1374 14.68C41.1854 15.032 41.2094 15.312 41.2094 15.52L41.1134 17.032V22.408ZM47.3446 13.888C48.1926 13.888 49.0006 14.136 49.7686 14.632C50.5366 15.128 50.9206 15.744 50.9206 16.48C50.9206 17.2 50.6086 17.904 49.9846 18.592C49.3606 19.264 48.5286 19.672 47.4886 19.816C47.0406 19.88 46.3686 19.912 45.4726 19.912C45.6486 21.272 45.9926 22.168 46.5046 22.6C46.6646 22.776 46.8806 22.864 47.1526 22.864C48.1446 22.864 48.9766 22.552 49.6486 21.928C50.3206 21.288 50.8006 20.968 51.0886 20.968C51.2166 20.968 51.4086 21.088 51.6646 21.328C51.9206 21.568 52.0486 21.792 52.0486 22C52.0486 22.416 51.5446 23.016 50.5366 23.8C50.0886 24.168 49.5446 24.48 48.9046 24.736C48.2806 24.976 47.6966 25.096 47.1526 25.096C45.7606 25.096 44.7366 24.2 44.0806 22.408C43.6646 21.304 43.4566 20.088 43.4566 18.76C43.4566 17.432 43.7686 16.288 44.3926 15.328C45.0166 14.368 46.0006 13.888 47.3446 13.888ZM47.4646 15.544C46.8566 15.544 46.3366 15.888 45.9046 16.576C45.7446 16.816 45.5926 17.36 45.4486 18.208C47.6886 18.208 48.8086 17.656 48.8086 16.552C48.8086 15.88 48.3606 15.544 47.4646 15.544ZM55.4431 24.976C54.8991 24.976 54.3711 23.92 53.8591 21.808C53.3631 19.68 53.1151 17.296 53.1151 14.656C53.1151 14.384 53.2271 14.176 53.4511 14.032C53.6911 13.872 53.9071 13.792 54.0991 13.792C54.2911 13.792 54.4431 13.856 54.5551 13.984C54.6831 14.096 54.7471 14.248 54.7471 14.44C54.7471 16.936 55.1711 19.336 56.0191 21.64C56.1471 21.448 56.3471 21.064 56.6191 20.488C56.8911 19.896 57.1471 19.464 57.3871 19.192C57.6271 18.92 57.9151 18.784 58.2511 18.784C58.5871 18.784 58.9391 19.032 59.3071 19.528C59.6751 20.024 59.9871 20.56 60.2431 21.136C60.5151 21.696 60.6671 21.992 60.6991 22.024C61.1311 20.68 61.3471 19.432 61.3471 18.28L61.2031 14.632C61.1871 14.392 61.2991 14.192 61.5391 14.032C61.7791 13.856 62.0111 13.768 62.2351 13.768C62.6991 13.768 62.9311 14.672 62.9311 16.48V17.8C62.9311 19.944 62.6031 21.856 61.9471 23.536C61.5951 24.496 61.1551 24.976 60.6271 24.976C60.3231 24.976 60.0431 24.784 59.7871 24.4C59.5311 24 59.2431 23.44 58.9231 22.72C58.6031 22 58.3551 21.504 58.1791 21.232L57.4591 22.648C57.1871 23.208 56.9791 23.616 56.8351 23.872C56.6911 24.112 56.4911 24.36 56.2351 24.616C55.9791 24.856 55.7151 24.976 55.4431 24.976Z" fill="black"/>
<defs>
<filter id="filter0_i_343_71" x="0" y="0" width="95" height="43" filterUnits="userSpaceOnUse" color-interpolation-filters="sRGB">
<feFlood flood-opacity="0" result="BackgroundImageFix"/>
<feBlend mode="normal" in="SourceGraphic" in2="BackgroundImageFix" result="shape"/>
<feColorMatrix in="SourceAlpha" type="matrix" values="0 0 0 0 0 0 0 0 0 0 0 0 0 0 0 0 0 0 127 0" result="hardAlpha"/>
<feOffset dy="4"/>
<feGaussianBlur stdDeviation="2"/>
<feComposite in2="hardAlpha" operator="arithmetic" k2="-1" k3="1"/>
<feColorMatrix type="matrix" values="0 0 0 0 0 0 0 0 0 0 0 0 0 0 0 0 0 0 0.25 0"/>
<feBlend mode="normal" in2="shape" result="effect1_innerShadow_343_71"/>
</filter>
<linearGradient id="paint0_linear_343_71" x1="47.5" y1="0" x2="47.5" y2="39" gradientUnits="userSpaceOnUse">
<stop stop-color="white"/>
<stop offset="1" stop-color="#999999"/>
</linearGradient>
</defs>
</svg>
